<?xml version="1.0" encoding="UTF-8" standalone="no"?>
<!DOCTYPE svg PUBLIC "-//W3C//DTD SVG 1.1//EN" "http://www.w3.org/Graphics/SVG/1.1/DTD/svg11.dtd">
<svg xmlns="http://www.w3.org/2000/svg" version="1.1" viewBox="0.00 0.00 128.00 128.00">
<g stroke-width="2.00" fill="none" stroke-linecap="butt">
<path stroke="#b4dfbe" vector-effect="non-scaling-stroke" d="
  M 123.15 64.00
  A 59.15 59.15 0.0 0 0 64.00 4.85
  A 59.15 59.15 0.0 0 0 4.85 64.00
  A 59.15 59.15 0.0 0 0 64.00 123.15
  A 59.15 59.15 0.0 0 0 123.15 64.00"
/>
<path stroke="#539e67" vector-effect="non-scaling-stroke" d="
  M 39.27 52.89
  Q 36.76 52.79 35.21 53.80
  A 1.45 1.45 0.0 0 0 34.56 54.87
  Q 34.13 58.76 34.66 62.91
  A 6.98 6.90 44.7 0 1 34.68 64.57
  C 34.35 68.02 33.07 75.55 39.24 74.15
  A 0.70 0.70 0.0 0 1 40.09 74.83
  L 40.09 92.86
  A 2.57 2.56 3.0 0 0 42.39 95.41
  Q 46.69 95.88 52.21 95.46
  Q 55.20 95.24 55.21 92.98
  Q 55.29 78.86 55.27 74.87
  A 0.65 0.65 0.0 0 1 55.92 74.21
  L 62.08 74.21
  A 1.21 1.21 0.0 0 1 63.13 74.82
  L 73.75 93.22
  A 2.98 2.96 75.1 0 0 76.28 94.70
  Q 80.20 94.76 83.47 94.77
  C 86.48 94.79 88.02 94.00 88.01 90.75
  Q 87.98 75.41 88.01 74.75
  A 0.62 0.62 0.0 0 1 88.74 74.18
  C 91.66 74.73 93.80 73.52 93.79 70.22
  Q 93.77 66.25 93.38 64.23
  A 2.82 2.82 0.0 0 1 93.38 63.23
  Q 93.83 60.89 93.69 57.29
  C 93.63 55.85 93.77 54.19 92.25 53.40
  Q 90.52 52.51 88.58 52.92
  A 0.51 0.50 -5.6 0 1 87.97 52.43
  Q 88.09 42.68 87.83 35.52
  Q 87.73 32.88 85.40 32.64
  Q 81.30 32.23 75.69 32.56
  A 1.74 1.69 -64.2 0 0 74.78 32.89
  Q 73.39 33.90 73.38 35.48
  Q 73.35 51.87 73.41 52.27
  A 0.56 0.54 86.7 0 1 72.87 52.89
  L 66.42 52.88
  A 1.10 1.09 74.5 0 1 65.48 52.34
  Q 55.90 35.72 54.81 33.91
  Q 53.88 32.36 51.57 32.35
  Q 49.00 32.35 43.50 32.45
  C 40.63 32.50 39.95 34.16 39.99 36.88
  Q 40.16 46.54 39.96 52.26
  A 0.66 0.66 0.0 0 1 39.27 52.89"
/>
<path stroke="#9fbea9" vector-effect="non-scaling-stroke" d="
  M 43.65 35.76
  A 0.40 0.40 0.0 0 0 43.25 36.16
  L 43.25 55.73
  A 0.40 0.40 0.0 0 1 42.85 56.13
  L 37.91 56.13
  A 0.40 0.40 0.0 0 0 37.51 56.53
  L 37.51 61.02
  A 0.40 0.40 0.0 0 0 37.91 61.42
  L 42.87 61.42
  A 0.40 0.40 0.0 0 1 43.27 61.82
  L 43.27 65.30
  A 0.40 0.40 0.0 0 1 42.87 65.70
  L 37.91 65.70
  A 0.40 0.40 0.0 0 0 37.51 66.10
  L 37.51 70.61
  A 0.40 0.40 0.0 0 0 37.91 71.01
  L 42.86 71.01
  A 0.40 0.40 0.0 0 1 43.26 71.41
  L 43.26 91.84
  A 0.40 0.40 0.0 0 0 43.66 92.24
  L 51.61 92.24
  A 0.40 0.40 0.0 0 0 52.01 91.84
  L 52.01 71.41
  A 0.40 0.40 0.0 0 1 52.41 71.01
  L 64.48 71.01
  A 0.40 0.40 0.0 0 1 64.83 71.21
  L 76.34 91.17
  A 0.40 0.40 0.0 0 0 76.69 91.37
  L 84.35 91.37
  A 0.40 0.40 0.0 0 0 84.75 90.97
  L 84.75 71.40
  A 0.40 0.40 0.0 0 1 85.15 71.00
  L 90.10 71.00
  A 0.40 0.40 0.0 0 0 90.50 70.60
  L 90.50 66.15
  A 0.40 0.40 0.0 0 0 90.10 65.75
  L 85.14 65.75
  A 0.40 0.40 0.0 0 1 84.74 65.35
  L 84.74 61.77
  A 0.40 0.40 0.0 0 1 85.14 61.37
  L 90.10 61.37
  A 0.40 0.40 0.0 0 0 90.50 60.97
  L 90.50 56.52
  A 0.40 0.40 0.0 0 0 90.10 56.12
  L 85.15 56.12
  A 0.40 0.40 0.0 0 1 84.75 55.72
  L 84.75 36.15
  A 0.40 0.40 0.0 0 0 84.35 35.75
  L 77.03 35.75
  A 0.40 0.40 0.0 0 0 76.63 36.15
  L 76.63 55.73
  A 0.40 0.40 0.0 0 1 76.23 56.13
  L 64.10 56.13
  A 0.40 0.40 0.0 0 1 63.75 55.93
  L 52.23 35.96
  A 0.40 0.40 0.0 0 0 51.88 35.76
  L 43.65 35.76"
/>
<path stroke="#9fbea9" vector-effect="non-scaling-stroke" d="
  M 52.16 50.57
  L 52.11 55.74
  A 0.45 0.44 0.6 0 0 52.55 56.18
  L 55.27 56.21
  A 0.30 0.30 0.0 0 0 55.54 55.77
  L 52.56 50.48
  A 0.21 0.21 0.0 0 0 52.16 50.57"
/>
<path stroke="#9fbea9" vector-effect="non-scaling-stroke" d="
  M 52.02 65.34
  A 0.42 0.42 0.0 0 0 52.44 65.76
  L 60.70 65.76
  A 0.42 0.42 0.0 0 0 61.07 65.13
  L 59.02 61.58
  A 0.42 0.42 0.0 0 0 58.66 61.37
  L 52.44 61.37
  A 0.42 0.42 0.0 0 0 52.02 61.79
  L 52.02 65.34"
/>
<path stroke="#9fbea9" vector-effect="non-scaling-stroke" d="
  M 67.30 61.97
  L 69.08 65.06
  A 1.42 1.39 74.6 0 0 70.29 65.76
  L 76.14 65.76
  A 0.49 0.49 0.0 0 0 76.63 65.27
  L 76.63 61.80
  A 0.44 0.43 -90.0 0 0 76.20 61.36
  L 67.66 61.36
  A 0.41 0.41 0.0 0 0 67.30 61.97"
/>
<path stroke="#9fbea9" vector-effect="non-scaling-stroke" d="
  M 76.73 77.36
  L 76.73 71.58
  A 0.50 0.49 -0.0 0 0 76.23 71.09
  L 73.18 71.09
  A 0.33 0.33 0.0 0 0 72.89 71.59
  L 76.29 77.47
  A 0.24 0.23 30.5 0 0 76.73 77.36"
/>
</g>
<path fill="#ffffff" d="
  M 67.60 0.00
  C 100.46 2.34 124.94 27.00 128.00 59.68
  L 128.00 67.71
  C 125.22 100.45 101.01 125.39 68.17 128.00
  L 60.36 128.00
  Q 24.71 124.75 7.70 94.52
  Q 1.13 82.85 0.00 67.82
  L 0.00 60.56
  Q 1.15 43.05 10.14 29.39
  Q 27.35 3.26 59.55 0.00
  L 67.60 0.00
  Z
  M 123.15 64.00
  A 59.15 59.15 0.0 0 0 64.00 4.85
  A 59.15 59.15 0.0 0 0 4.85 64.00
  A 59.15 59.15 0.0 0 0 64.00 123.15
  A 59.15 59.15 0.0 0 0 123.15 64.00
  Z"
/>
<path fill="#68be7c" d="
  M 123.15 64.00
  A 59.15 59.15 0.0 0 1 64.00 123.15
  A 59.15 59.15 0.0 0 1 4.85 64.00
  A 59.15 59.15 0.0 0 1 64.00 4.85
  A 59.15 59.15 0.0 0 1 123.15 64.00
  Z
  M 39.27 52.89
  Q 36.76 52.79 35.21 53.80
  A 1.45 1.45 0.0 0 0 34.56 54.87
  Q 34.13 58.76 34.66 62.91
  A 6.98 6.90 44.7 0 1 34.68 64.57
  C 34.35 68.02 33.07 75.55 39.24 74.15
  A 0.70 0.70 0.0 0 1 40.09 74.83
  L 40.09 92.86
  A 2.57 2.56 3.0 0 0 42.39 95.41
  Q 46.69 95.88 52.21 95.46
  Q 55.20 95.24 55.21 92.98
  Q 55.29 78.86 55.27 74.87
  A 0.65 0.65 0.0 0 1 55.92 74.21
  L 62.08 74.21
  A 1.21 1.21 0.0 0 1 63.13 74.82
  L 73.75 93.22
  A 2.98 2.96 75.1 0 0 76.28 94.70
  Q 80.20 94.76 83.47 94.77
  C 86.48 94.79 88.02 94.00 88.01 90.75
  Q 87.98 75.41 88.01 74.75
  A 0.62 0.62 0.0 0 1 88.74 74.18
  C 91.66 74.73 93.80 73.52 93.79 70.22
  Q 93.77 66.25 93.38 64.23
  A 2.82 2.82 0.0 0 1 93.38 63.23
  Q 93.83 60.89 93.69 57.29
  C 93.63 55.85 93.77 54.19 92.25 53.40
  Q 90.52 52.51 88.58 52.92
  A 0.51 0.50 -5.6 0 1 87.97 52.43
  Q 88.09 42.68 87.83 35.52
  Q 87.73 32.88 85.40 32.64
  Q 81.30 32.23 75.69 32.56
  A 1.74 1.69 -64.2 0 0 74.78 32.89
  Q 73.39 33.90 73.38 35.48
  Q 73.35 51.87 73.41 52.27
  A 0.56 0.54 86.7 0 1 72.87 52.89
  L 66.42 52.88
  A 1.10 1.09 74.5 0 1 65.48 52.34
  Q 55.90 35.72 54.81 33.91
  Q 53.88 32.36 51.57 32.35
  Q 49.00 32.35 43.50 32.45
  C 40.63 32.50 39.95 34.16 39.99 36.88
  Q 40.16 46.54 39.96 52.26
  A 0.66 0.66 0.0 0 1 39.27 52.89
  Z"
/>
<path fill="#3e7d52" d="
  M 39.96 52.26
  Q 40.16 46.54 39.99 36.88
  C 39.95 34.16 40.63 32.50 43.50 32.45
  Q 49.00 32.35 51.57 32.35
  Q 53.88 32.36 54.81 33.91
  Q 55.90 35.72 65.48 52.34
  A 1.10 1.09 74.5 0 0 66.42 52.88
  L 72.87 52.89
  A 0.56 0.54 86.7 0 0 73.41 52.27
  Q 73.35 51.87 73.38 35.48
  Q 73.39 33.90 74.78 32.89
  A 1.74 1.69 -64.2 0 1 75.69 32.56
  Q 81.30 32.23 85.40 32.64
  Q 87.73 32.88 87.83 35.52
  Q 88.09 42.68 87.97 52.43
  A 0.51 0.50 -5.6 0 0 88.58 52.92
  Q 90.52 52.51 92.25 53.40
  C 93.77 54.19 93.63 55.85 93.69 57.29
  Q 93.83 60.89 93.38 63.23
  A 2.82 2.82 0.0 0 0 93.38 64.23
  Q 93.77 66.25 93.79 70.22
  C 93.80 73.52 91.66 74.73 88.74 74.18
  A 0.62 0.62 0.0 0 0 88.01 74.75
  Q 87.98 75.41 88.01 90.75
  C 88.02 94.00 86.48 94.79 83.47 94.77
  Q 80.20 94.76 76.28 94.70
  A 2.98 2.96 75.1 0 1 73.75 93.22
  L 63.13 74.82
  A 1.21 1.21 0.0 0 0 62.08 74.21
  L 55.92 74.21
  A 0.65 0.65 0.0 0 0 55.27 74.87
  Q 55.29 78.86 55.21 92.98
  Q 55.20 95.24 52.21 95.46
  Q 46.69 95.88 42.39 95.41
  A 2.57 2.56 3.0 0 1 40.09 92.86
  L 40.09 74.83
  A 0.70 0.70 0.0 0 0 39.24 74.15
  C 33.07 75.55 34.35 68.02 34.68 64.57
  A 6.98 6.90 44.7 0 0 34.66 62.91
  Q 34.13 58.76 34.56 54.87
  A 1.45 1.45 0.0 0 1 35.21 53.80
  Q 36.76 52.79 39.27 52.89
  A 0.66 0.66 0.0 0 0 39.96 52.26
  Z
  M 43.65 35.76
  A 0.40 0.40 0.0 0 0 43.25 36.16
  L 43.25 55.73
  A 0.40 0.40 0.0 0 1 42.85 56.13
  L 37.91 56.13
  A 0.40 0.40 0.0 0 0 37.51 56.53
  L 37.51 61.02
  A 0.40 0.40 0.0 0 0 37.91 61.42
  L 42.87 61.42
  A 0.40 0.40 0.0 0 1 43.27 61.82
  L 43.27 65.30
  A 0.40 0.40 0.0 0 1 42.87 65.70
  L 37.91 65.70
  A 0.40 0.40 0.0 0 0 37.51 66.10
  L 37.51 70.61
  A 0.40 0.40 0.0 0 0 37.91 71.01
  L 42.86 71.01
  A 0.40 0.40 0.0 0 1 43.26 71.41
  L 43.26 91.84
  A 0.40 0.40 0.0 0 0 43.66 92.24
  L 51.61 92.24
  A 0.40 0.40 0.0 0 0 52.01 91.84
  L 52.01 71.41
  A 0.40 0.40 0.0 0 1 52.41 71.01
  L 64.48 71.01
  A 0.40 0.40 0.0 0 1 64.83 71.21
  L 76.34 91.17
  A 0.40 0.40 0.0 0 0 76.69 91.37
  L 84.35 91.37
  A 0.40 0.40 0.0 0 0 84.75 90.97
  L 84.75 71.40
  A 0.40 0.40 0.0 0 1 85.15 71.00
  L 90.10 71.00
  A 0.40 0.40 0.0 0 0 90.50 70.60
  L 90.50 66.15
  A 0.40 0.40 0.0 0 0 90.10 65.75
  L 85.14 65.75
  A 0.40 0.40 0.0 0 1 84.74 65.35
  L 84.74 61.77
  A 0.40 0.40 0.0 0 1 85.14 61.37
  L 90.10 61.37
  A 0.40 0.40 0.0 0 0 90.50 60.97
  L 90.50 56.52
  A 0.40 0.40 0.0 0 0 90.10 56.12
  L 85.15 56.12
  A 0.40 0.40 0.0 0 1 84.75 55.72
  L 84.75 36.15
  A 0.40 0.40 0.0 0 0 84.35 35.75
  L 77.03 35.75
  A 0.40 0.40 0.0 0 0 76.63 36.15
  L 76.63 55.73
  A 0.40 0.40 0.0 0 1 76.23 56.13
  L 64.10 56.13
  A 0.40 0.40 0.0 0 1 63.75 55.93
  L 52.23 35.96
  A 0.40 0.40 0.0 0 0 51.88 35.76
  L 43.65 35.76
  Z"
/>
<path fill="#ffffff" d="
  M 43.65 35.76
  L 51.88 35.76
  A 0.40 0.40 0.0 0 1 52.23 35.96
  L 63.75 55.93
  A 0.40 0.40 0.0 0 0 64.10 56.13
  L 76.23 56.13
  A 0.40 0.40 0.0 0 0 76.63 55.73
  L 76.63 36.15
  A 0.40 0.40 0.0 0 1 77.03 35.75
  L 84.35 35.75
  A 0.40 0.40 0.0 0 1 84.75 36.15
  L 84.75 55.72
  A 0.40 0.40 0.0 0 0 85.15 56.12
  L 90.10 56.12
  A 0.40 0.40 0.0 0 1 90.50 56.52
  L 90.50 60.97
  A 0.40 0.40 0.0 0 1 90.10 61.37
  L 85.14 61.37
  A 0.40 0.40 0.0 0 0 84.74 61.77
  L 84.74 65.35
  A 0.40 0.40 0.0 0 0 85.14 65.75
  L 90.10 65.75
  A 0.40 0.40 0.0 0 1 90.50 66.15
  L 90.50 70.60
  A 0.40 0.40 0.0 0 1 90.10 71.00
  L 85.15 71.00
  A 0.40 0.40 0.0 0 0 84.75 71.40
  L 84.75 90.97
  A 0.40 0.40 0.0 0 1 84.35 91.37
  L 76.69 91.37
  A 0.40 0.40 0.0 0 1 76.34 91.17
  L 64.83 71.21
  A 0.40 0.40 0.0 0 0 64.48 71.01
  L 52.41 71.01
  A 0.40 0.40 0.0 0 0 52.01 71.41
  L 52.01 91.84
  A 0.40 0.40 0.0 0 1 51.61 92.24
  L 43.66 92.24
  A 0.40 0.40 0.0 0 1 43.26 91.84
  L 43.26 71.41
  A 0.40 0.40 0.0 0 0 42.86 71.01
  L 37.91 71.01
  A 0.40 0.40 0.0 0 1 37.51 70.61
  L 37.51 66.10
  A 0.40 0.40 0.0 0 1 37.91 65.70
  L 42.87 65.70
  A 0.40 0.40 0.0 0 0 43.27 65.30
  L 43.27 61.82
  A 0.40 0.40 0.0 0 0 42.87 61.42
  L 37.91 61.42
  A 0.40 0.40 0.0 0 1 37.51 61.02
  L 37.51 56.53
  A 0.40 0.40 0.0 0 1 37.91 56.13
  L 42.85 56.13
  A 0.40 0.40 0.0 0 0 43.25 55.73
  L 43.25 36.16
  A 0.40 0.40 0.0 0 1 43.65 35.76
  Z
  M 52.16 50.57
  L 52.11 55.74
  A 0.45 0.44 0.6 0 0 52.55 56.18
  L 55.27 56.21
  A 0.30 0.30 0.0 0 0 55.54 55.77
  L 52.56 50.48
  A 0.21 0.21 0.0 0 0 52.16 50.57
  Z
  M 52.02 65.34
  A 0.42 0.42 0.0 0 0 52.44 65.76
  L 60.70 65.76
  A 0.42 0.42 0.0 0 0 61.07 65.13
  L 59.02 61.58
  A 0.42 0.42 0.0 0 0 58.66 61.37
  L 52.44 61.37
  A 0.42 0.42 0.0 0 0 52.02 61.79
  L 52.02 65.34
  Z
  M 67.30 61.97
  L 69.08 65.06
  A 1.42 1.39 74.6 0 0 70.29 65.76
  L 76.14 65.76
  A 0.49 0.49 0.0 0 0 76.63 65.27
  L 76.63 61.80
  A 0.44 0.43 -90.0 0 0 76.20 61.36
  L 67.66 61.36
  A 0.41 0.41 0.0 0 0 67.30 61.97
  Z
  M 76.73 77.36
  L 76.73 71.58
  A 0.50 0.49 -0.0 0 0 76.23 71.09
  L 73.18 71.09
  A 0.33 0.33 0.0 0 0 72.89 71.59
  L 76.29 77.47
  A 0.24 0.23 30.5 0 0 76.73 77.36
  Z"
/>
<path fill="#3e7d52" d="
  M 52.16 50.57
  A 0.21 0.21 0.0 0 1 52.56 50.48
  L 55.54 55.77
  A 0.30 0.30 0.0 0 1 55.27 56.21
  L 52.55 56.18
  A 0.45 0.44 0.6 0 1 52.11 55.74
  L 52.16 50.57
  Z"
/>
<path fill="#3e7d52" d="
  M 52.02 65.34
  L 52.02 61.79
  A 0.42 0.42 0.0 0 1 52.44 61.37
  L 58.66 61.37
  A 0.42 0.42 0.0 0 1 59.02 61.58
  L 61.07 65.13
  A 0.42 0.42 0.0 0 1 60.70 65.76
  L 52.44 65.76
  A 0.42 0.42 0.0 0 1 52.02 65.34
  Z"
/>
<path fill="#3e7d52" d="
  M 67.66 61.36
  L 76.20 61.36
  A 0.44 0.43 90.0 0 1 76.63 61.80
  L 76.63 65.27
  A 0.49 0.49 0.0 0 1 76.14 65.76
  L 70.29 65.76
  A 1.42 1.39 74.6 0 1 69.08 65.06
  L 67.30 61.97
  A 0.41 0.41 0.0 0 1 67.66 61.36
  Z"
/>
<path fill="#3e7d52" d="
  M 76.73 77.36
  A 0.24 0.23 30.5 0 1 76.29 77.47
  L 72.89 71.59
  A 0.33 0.33 0.0 0 1 73.18 71.09
  L 76.23 71.09
  A 0.50 0.49 -0.0 0 1 76.73 71.58
  L 76.73 77.36
  Z"
/>
</svg>
