<svg width="500" height="500" viewBox="0 0 500 500" fill="none" xmlns="http://www.w3.org/2000/svg">
<rect width="500" height="500" fill="white"/>
<g clip-path="url(#clip0_11_9953)">
<path d="M203.755 222.725C193.965 219.685 179.145 216.975 165.575 216.975C110.165 216.975 83.2852 253.375 83.2852 291.005C83.2852 314.805 98.5252 330.425 119.085 330.425C133.005 330.425 148.015 324.425 158.395 305.285H158.845C158.205 313.355 157.525 321.315 157.265 327.765H188.295C187.805 313.715 189.915 292.385 192.595 278.005L203.765 222.725H203.755ZM161.935 264.745C156.655 293.475 143.335 303.845 133.155 303.845C123.765 303.845 118.465 296.395 118.465 285.375C118.465 263.875 135.155 242.355 156.545 242.355C160.335 242.355 163.735 242.775 166.255 243.335L161.935 264.745Z" fill="#B8201D"/>
<path d="M246.545 269.205C229.815 270.465 225.685 278.185 224.685 281.335C224.475 281.975 224.935 282.655 225.595 282.735C226.505 282.825 227.685 283.095 228.175 283.865C228.965 285.035 226.685 289.765 226.155 290.825C226.075 290.975 225.985 291.085 225.875 291.185L214.425 300.545C214.425 300.545 214.385 300.585 214.365 300.605C213.795 301.285 208.685 307.335 204.345 312.435C202.385 308.265 201.425 303.435 201.455 298.005C201.455 291.105 202.515 284.125 204.095 276.655L225.915 169.575H259.295L246.295 232.365L246.725 232.425C250.795 227.865 256.045 224.085 261.985 221.425C263.305 221.915 265.075 222.685 267.025 223.765L259.635 224.685V226.815L269.575 225.415C269.805 225.585 270.895 226.265 271.025 226.335C274.945 229.335 278.605 233.695 279.385 239.725C281.255 253.925 267.675 267.585 246.545 269.185V269.205Z" fill="#B8201D"/>
<path d="M318.956 256.945C318.956 290.255 295.566 330.425 243.586 330.425C226.136 330.425 214.016 325.805 207.396 317.355C208.146 314.775 208.996 312.115 209.926 310.965C219.056 299.595 232.356 293.215 240.276 290.195C240.746 289.785 248.236 283.315 248.746 280.915L251.176 281.465C251.176 281.465 246.706 284.765 247.156 287.995L277.486 284.165C277.696 284.125 277.896 284.055 278.056 283.915L287.916 275.555C288.066 275.475 288.216 275.405 288.366 275.325L299.715 272.435C300.415 272.245 301.076 272.775 301.076 273.475L301.156 279.925C301.156 280.175 301.076 280.415 300.926 280.625L292.926 290.885C292.566 291.355 292.626 292.015 293.076 292.395L294.946 293.945C295.456 294.365 296.226 294.245 296.566 293.685L305.465 279.065C305.575 278.875 305.636 278.645 305.616 278.425L304.876 267.715C304.836 267.075 304.216 266.605 303.576 266.735L295.596 268.375C295.256 268.455 294.936 268.355 294.676 268.145L292.076 265.935C291.846 265.745 291.716 265.485 291.696 265.185L290.616 248.605C290.596 248.095 290.916 247.625 291.426 247.495C293.896 246.855 300.816 245.045 301.836 244.535C303.076 243.915 302.986 241.255 302.986 241.255L285.856 235.105C285.446 234.955 285.136 234.555 285.136 234.085L285.026 220.425C285.026 219.855 284.576 219.385 284.026 219.345L282.286 219.215L282.346 230.855C282.346 231.855 281.136 232.325 280.456 231.605L276.496 227.365C276.326 227.155 276.215 226.915 276.215 226.645L276.026 219.235L274.046 219.145L274.156 223.875C274.176 224.785 273.176 225.305 272.436 224.795L265.586 219.965C270.976 218.025 276.846 216.965 282.866 216.965C306.516 216.965 318.926 234.905 318.926 256.935L318.956 256.945Z" fill="#408F49"/>
<path d="M391.705 243.025C399.405 243.025 404.435 244.385 408.565 246.215L416.715 221.205C411.155 218.995 402.055 216.975 392.025 216.975C348.455 216.975 317.335 245.925 317.335 284.155C317.335 314.955 339.155 330.425 366.735 330.425C380.935 330.425 393.105 327.765 401.215 323.765L400.215 298.775C394.125 301.505 386.745 303.985 376.165 303.985C363.415 303.985 352.515 296.685 352.515 280.765C352.515 261.485 366.885 243.025 391.705 243.025Z" fill="#408F49"/>
</g>
<defs>
<clipPath id="clip0_11_9953">
<rect width="333.43" height="160.85" fill="white" transform="translate(83.2852 169.575)"/>
</clipPath>
</defs>
</svg>
