<svg width="500" height="500" viewBox="0 0 500 500" fill="none" xmlns="http://www.w3.org/2000/svg">
<rect width="500" height="500" fill="white"/>
<g clip-path="url(#clip0_11_10171)">
<path d="M306.53 94C326.01 94.27 344.6 97.97 361.96 106.8C377.26 114.63 389.74 125.59 398.26 140.69C403.8 150.66 407.43 161.57 408.97 172.86C412.14 194.54 408.93 215.52 401.78 236.03C397.58 248.06 391.76 259.34 385.46 270.43C372.63 292.99 356.14 312.54 336.97 329.88C312.37 352.14 285.39 371.62 256.52 387.98C245.34 394.3 233.74 399.6 221.27 402.84C213.63 404.9 205.74 405.9 197.83 405.81C187.41 405.6 179.26 400.85 172.92 392.86C167.07 385.69 164.05 376.61 164.44 367.36C164.51 364.79 164.88 362.23 165.55 359.74C169.32 346.34 174.45 333.5 182.11 321.79C187.97 312.85 194.95 304.91 204.08 299.23C214.23 292.91 225.27 290.21 237.21 292.81C240.94 293.68 244.45 295.32 247.53 297.61C255.39 303.23 254.98 312.04 251.2 317.66C247.97 322.55 244.35 327.18 240.39 331.5C233.68 338.73 226.55 345.56 219.59 352.55C213.43 358.74 207.65 365.23 202.96 372.63C200.53 376.47 198.29 380.38 197.62 384.99C196.77 390.77 199.77 394.71 205.61 395.25C208.63 395.5 211.67 395.19 214.57 394.35C223.53 391.87 231.86 387.88 240.03 383.57C252.64 376.9 264.27 368.75 275.62 360.15C289.37 349.73 302.74 338.85 315.06 326.76C329.09 313 341.6 298.05 351.17 280.8C358.16 268.2 363.31 254.9 365.6 240.63C367.62 228.06 366.49 215.82 360.67 204.28C357.87 198.58 353.48 193.8 348.04 190.52C345.53 189.01 342.75 187.97 339.86 187.47C329.34 185.6 319.17 187.13 309.16 190.47C298.74 193.95 289.07 199.04 279.67 204.6C259.27 216.7 238.85 228.8 219.4 242.42C209.65 249.25 200.21 256.51 190.65 263.61C182.02 270.03 173.45 276.52 164.02 281.76C156.37 286.12 148.09 289.26 139.47 291.08C128.79 293.25 118.95 291.23 109.91 285.43C100.53 279.41 93.96 271.14 91.08 260.21C89.24 253.31 89.97 246.46 91.55 239.64C93.86 229.63 98.25 220.57 103.73 211.98C117.27 190.76 134.29 172.75 154.08 157.36C183.42 134.55 215.69 116.99 250.61 104.28C268.54 97.74 287.45 94.26 306.53 94Z" fill="#E20010"/>
</g>
<defs>
<clipPath id="clip0_11_10171">
<rect width="320.19" height="311.81" fill="white" transform="translate(90 94)"/>
</clipPath>
</defs>
</svg>
