<svg width="500" height="500" viewBox="0 0 500 500" fill="none" xmlns="http://www.w3.org/2000/svg">
<rect width="500" height="500" fill="white"/>
<g clip-path="url(#clip0_11_10177)">
<path d="M114.795 234.1L118.205 243.23H127.765L110.815 199.75H102.495L85.4746 243.23H94.6646L98.1046 234.1H114.785H114.795ZM103.425 220C103.755 219.05 104.105 218.07 104.485 217.08C104.855 216.09 105.205 215.06 105.545 214.01C105.875 212.96 106.195 211.94 106.505 210.93C106.815 211.91 107.135 212.92 107.475 213.98C107.845 215.14 108.205 216.24 108.565 217.27C108.915 218.31 109.215 219.15 109.465 219.82L111.995 226.59H100.955L103.435 220.01L103.425 220Z" fill="black"/>
<path d="M141.494 197.27H132.674V243.23H141.494V197.27Z" fill="black"/>
<path d="M171.555 230.06C171.555 230.97 171.385 231.82 171.055 232.61C170.725 233.4 170.265 234.08 169.685 234.66C169.105 235.24 168.405 235.68 167.575 235.99C166.745 236.3 165.855 236.46 164.905 236.46C163.575 236.46 162.465 236.17 161.555 235.59C160.645 235.01 159.935 234.17 159.445 233.07C158.945 231.97 158.695 230.68 158.695 229.19V210.37H149.875V230.62C149.875 233.39 150.345 235.77 151.275 237.73C152.205 239.7 153.535 241.21 155.255 242.26C156.975 243.32 159.035 243.84 161.435 243.84C163.295 243.84 165.035 243.49 166.655 242.78C168.275 242.07 169.655 241.1 170.815 239.86C171.175 239.47 171.495 239.07 171.785 238.66L171.995 243.22H180.375V210.37H171.555V230.06Z" fill="black"/>
<path d="M210.065 243.23H218.885V223.6C218.885 222.69 219.055 221.86 219.385 221.12C219.715 220.37 220.185 219.72 220.785 219.16C221.385 218.6 222.085 218.17 222.895 217.86C223.705 217.55 224.585 217.39 225.535 217.39C226.775 217.39 227.795 217.63 228.575 218.1C229.365 218.58 229.965 219.29 230.375 220.24C230.785 221.19 230.995 222.41 230.995 223.9V243.22H239.815V223.28C239.815 220.34 239.385 217.86 238.545 215.83C237.695 213.8 236.425 212.28 234.725 211.27C233.025 210.26 230.895 209.75 228.325 209.75C227.245 209.75 226.155 209.92 225.035 210.25C223.915 210.58 222.845 211.05 221.805 211.65C220.765 212.25 219.835 212.95 219.015 213.76C218.345 214.41 217.795 215.15 217.315 215.92C216.855 214.81 216.315 213.85 215.665 213.07C214.715 211.93 213.555 211.09 212.185 210.55C210.815 210.01 209.285 209.74 207.585 209.74C206.465 209.74 205.345 209.92 204.235 210.27C203.115 210.62 202.055 211.11 201.035 211.73C200.015 212.35 199.145 213.1 198.395 213.97C198.195 214.21 198.025 214.47 197.845 214.73L197.715 210.37H189.205V243.23H198.025V223.54C198.025 222.67 198.205 221.86 198.555 221.12C198.905 220.37 199.375 219.72 199.955 219.16C200.535 218.6 201.225 218.17 202.035 217.86C202.845 217.55 203.725 217.39 204.675 217.39C205.835 217.39 206.805 217.64 207.595 218.14C208.385 218.64 208.995 219.37 209.425 220.34C209.855 221.31 210.075 222.48 210.075 223.85V243.23H210.065Z" fill="black"/>
<path d="M253.295 203.6C254.955 203.6 256.265 203.17 257.235 202.3C258.205 201.43 258.695 200.27 258.695 198.82C258.695 197.37 258.215 196.16 257.265 195.31C256.315 194.46 254.985 194.04 253.295 194.04C251.605 194.04 250.325 194.49 249.355 195.38C248.385 196.27 247.895 197.42 247.895 198.83C247.895 200.36 248.365 201.54 249.325 202.37C250.275 203.2 251.605 203.61 253.305 203.61L253.295 203.6Z" fill="black"/>
<path d="M257.765 210.37H248.945V243.23H257.765V210.37Z" fill="black"/>
<path d="M276.025 223.48C276.025 222.61 276.195 221.8 276.555 221.06C276.905 220.31 277.385 219.65 277.985 219.07C278.585 218.49 279.305 218.05 280.155 217.73C281.005 217.42 281.925 217.26 282.915 217.26C284.155 217.18 285.205 217.37 286.055 217.85C286.905 218.33 287.535 219.06 287.945 220.06C288.355 221.05 288.565 222.3 288.565 223.79V243.23H297.385V223.11C297.385 220.17 296.965 217.7 296.115 215.69C295.265 213.68 294.005 212.18 292.325 211.19C290.645 210.2 288.565 209.7 286.085 209.7C284.265 209.7 282.525 210.07 280.865 210.82C279.205 211.57 277.795 212.55 276.615 213.77C276.325 214.07 276.055 214.38 275.815 214.7L275.655 210.39H267.205V243.25H276.025V223.5V223.48Z" fill="black"/>
<path d="M310.925 203.6C312.585 203.6 313.895 203.17 314.865 202.3C315.835 201.43 316.325 200.27 316.325 198.82C316.325 197.37 315.845 196.16 314.895 195.31C313.945 194.46 312.615 194.04 310.925 194.04C309.235 194.04 307.955 194.49 306.985 195.38C306.015 196.27 305.525 197.42 305.525 198.83C305.525 200.36 305.995 201.54 306.955 202.37C307.905 203.2 309.235 203.61 310.935 203.61L310.925 203.6Z" fill="black"/>
<path d="M315.394 210.37H306.574V243.23H315.394V210.37Z" fill="black"/>
<path d="M329.964 242.27C331.684 243.33 333.744 243.85 336.144 243.85C338.004 243.85 339.744 243.5 341.364 242.79C342.984 242.08 344.364 241.11 345.524 239.87C345.884 239.49 346.204 239.08 346.494 238.67L346.704 243.23H355.084V210.37H346.264V230.06C346.264 230.97 346.094 231.82 345.764 232.61C345.434 233.4 344.974 234.08 344.394 234.66C343.814 235.24 343.114 235.68 342.284 235.99C341.454 236.3 340.564 236.46 339.614 236.46C338.284 236.46 337.174 236.17 336.264 235.59C335.354 235.01 334.644 234.17 334.154 233.07C333.654 231.97 333.404 230.68 333.404 229.19V210.37H324.584V230.62C324.584 233.39 325.054 235.77 325.984 237.73C326.914 239.7 328.244 241.21 329.954 242.26L329.964 242.27Z" fill="black"/>
<path d="M413.254 215.84C412.404 213.81 411.134 212.29 409.434 211.28C407.734 210.27 405.604 209.76 403.034 209.76C401.954 209.76 400.864 209.93 399.744 210.26C398.624 210.59 397.544 211.06 396.514 211.66C395.474 212.26 394.544 212.96 393.724 213.77C393.054 214.42 392.504 215.16 392.024 215.93C391.564 214.82 391.024 213.86 390.374 213.08C389.424 211.94 388.264 211.1 386.894 210.56C385.524 210.02 383.994 209.75 382.294 209.75C381.174 209.75 380.054 209.93 378.944 210.28C377.824 210.63 376.764 211.12 375.744 211.74C374.724 212.36 373.854 213.11 373.104 213.98C372.904 214.22 372.734 214.48 372.554 214.74L372.424 210.38H363.914V243.24H372.734V223.55C372.734 222.68 372.914 221.87 373.264 221.13C373.614 220.38 374.084 219.73 374.664 219.17C375.244 218.61 375.934 218.18 376.744 217.87C377.554 217.56 378.434 217.4 379.384 217.4C380.544 217.4 381.514 217.65 382.304 218.15C383.094 218.65 383.704 219.38 384.134 220.35C384.574 221.32 384.784 222.49 384.784 223.86V243.24H393.604V223.61C393.604 222.7 393.774 221.87 394.104 221.13C394.434 220.38 394.904 219.73 395.504 219.17C396.104 218.61 396.804 218.18 397.614 217.87C398.424 217.56 399.304 217.4 400.254 217.4C401.494 217.4 402.514 217.64 403.294 218.11C404.084 218.59 404.684 219.3 405.094 220.25C405.504 221.2 405.714 222.42 405.714 223.91V243.23H414.534V223.29C414.534 220.35 414.114 217.87 413.264 215.84H413.254Z" fill="black"/>
<path d="M119.295 287.14H136.625V279.19H119.295V270.06H139.605V261.86H110.225V305.34H140.035V297.14H119.295V287.14Z" fill="black"/>
<path d="M178.915 272.48H168.545L162.915 282.35L155.935 272.48H145.255L157.335 288.62L145.135 305.34H155.505L161.935 295.01L169.165 305.34H179.725L167.545 288.71L178.915 272.48Z" fill="black"/>
<path d="M197.175 264.16H188.355V272.48H182.205V280.37H188.355V305.34H197.175V280.37H203.885V272.48H197.175V264.16Z" fill="black"/>
<path d="M228.104 271.8C226.444 271.8 224.864 272.19 223.354 272.98C221.844 273.77 220.524 274.85 219.414 276.24C219.004 276.75 218.654 277.28 218.334 277.83L218.174 272.48H209.664V305.34H218.544V288.32C218.544 287.28 218.724 286.33 219.074 285.46C219.424 284.59 219.914 283.84 220.534 283.19C221.154 282.54 221.894 282.05 222.734 281.7C223.584 281.35 224.504 281.17 225.494 281.17C226.244 281.17 226.964 281.26 227.664 281.45C228.364 281.64 228.964 281.85 229.464 282.1L231.824 272.41C231.364 272.25 230.804 272.1 230.144 271.98C229.484 271.86 228.794 271.79 228.094 271.79L228.104 271.8Z" fill="black"/>
<path d="M258.295 292.17C258.295 293.08 258.125 293.93 257.795 294.72C257.465 295.51 257.005 296.19 256.425 296.77C255.845 297.35 255.145 297.8 254.315 298.11C253.485 298.42 252.595 298.57 251.645 298.57C250.325 298.57 249.205 298.28 248.295 297.7C247.385 297.12 246.675 296.28 246.185 295.18C245.685 294.08 245.435 292.79 245.435 291.3V272.48H236.615V292.73C236.615 295.5 237.085 297.87 238.015 299.84C238.945 301.81 240.275 303.32 241.995 304.37C243.715 305.43 245.775 305.95 248.175 305.95C250.035 305.95 251.775 305.6 253.395 304.9C255.015 304.19 256.395 303.22 257.555 301.98C257.915 301.6 258.235 301.19 258.525 300.78L258.735 305.33H267.115V272.47H258.295V292.16V292.17Z" fill="black"/>
<path d="M298.104 289.75C297.274 288.88 296.164 288.11 294.784 287.45C293.394 286.79 291.714 286.19 289.724 285.65C288.194 285.24 286.984 284.86 286.094 284.53C285.204 284.2 284.534 283.91 284.074 283.66C283.664 283.37 283.334 283.02 283.114 282.61C282.884 282.2 282.774 281.76 282.774 281.31C282.774 280.86 282.864 280.43 283.054 280.04C283.244 279.65 283.524 279.33 283.894 279.08C284.264 278.83 284.734 278.64 285.294 278.52C285.854 278.4 286.484 278.33 287.184 278.33C287.974 278.33 288.864 278.5 289.854 278.83C290.844 279.16 291.814 279.62 292.744 280.2C293.674 280.78 294.514 281.42 295.254 282.13L299.974 276.91C298.934 275.87 297.724 274.97 296.344 274.21C294.954 273.44 293.454 272.85 291.844 272.44C290.234 272.03 288.574 271.82 286.874 271.82C285.174 271.82 283.564 272.06 282.034 272.53C280.504 273.01 279.144 273.68 277.964 274.55C276.784 275.42 275.864 276.46 275.204 277.69C274.544 278.91 274.214 280.27 274.214 281.76C274.214 283 274.414 284.13 274.804 285.14C275.194 286.16 275.764 287.1 276.514 287.97C277.384 288.88 278.554 289.7 280.024 290.42C281.494 291.15 283.284 291.78 285.394 292.31C286.764 292.68 287.874 293.02 288.744 293.34C289.614 293.65 290.254 293.91 290.674 294.12C291.424 294.66 291.794 295.38 291.794 296.29C291.794 296.75 291.704 297.17 291.514 297.56C291.324 297.95 291.044 298.29 290.674 298.55C290.304 298.82 289.854 299.03 289.344 299.17C288.824 299.32 288.254 299.39 287.634 299.39C286.064 299.39 284.484 299.09 282.914 298.49C281.344 297.89 279.914 296.91 278.624 295.54L273.154 300.26C274.604 302.04 276.514 303.44 278.904 304.45C281.284 305.46 284.004 305.97 287.074 305.97C289.554 305.97 291.794 305.52 293.784 304.64C295.774 303.75 297.334 302.51 298.474 300.91C299.614 299.32 300.184 297.5 300.184 295.47C300.184 294.31 300.014 293.26 299.684 292.3C299.354 291.35 298.834 290.5 298.134 289.76L298.104 289.75Z" fill="black"/>
<path d="M311.515 256.15C309.855 256.15 308.545 256.6 307.575 257.49C306.605 258.38 306.115 259.53 306.115 260.94C306.115 262.47 306.585 263.65 307.545 264.48C308.495 265.31 309.825 265.72 311.525 265.72C313.225 265.72 314.495 265.29 315.465 264.42C316.435 263.55 316.925 262.39 316.925 260.94C316.925 259.49 316.445 258.28 315.495 257.43C314.545 256.58 313.215 256.16 311.525 256.16L311.515 256.15Z" fill="black"/>
<path d="M315.984 272.48H307.164V305.34H315.984V272.48Z" fill="black"/>
<path d="M349.624 274.04C346.994 272.55 344.024 271.8 340.714 271.8C337.404 271.8 334.364 272.55 331.744 274.04C329.114 275.53 327.044 277.55 325.534 280.1C324.024 282.64 323.264 285.58 323.264 288.89C323.264 292.2 324.014 295.14 325.534 297.71C327.044 300.28 329.114 302.3 331.744 303.76C334.374 305.23 337.364 305.97 340.714 305.97C344.064 305.97 346.994 305.24 349.624 303.76C352.254 302.29 354.314 300.27 355.804 297.71C357.294 295.14 358.044 292.2 358.044 288.89C358.044 285.58 357.294 282.65 355.804 280.1C354.314 277.55 352.254 275.53 349.624 274.04ZM348.064 293.69C347.344 295.12 346.334 296.24 345.054 297.04C343.774 297.85 342.324 298.25 340.704 298.25C339.084 298.25 337.574 297.85 336.294 297.04C335.014 296.23 333.994 295.11 333.254 293.69C332.504 292.26 332.154 290.66 332.194 288.88C332.154 287.06 332.504 285.44 333.254 284.04C334.004 282.63 335.014 281.51 336.294 280.69C337.574 279.87 339.044 279.45 340.704 279.45C342.364 279.45 343.764 279.85 345.054 280.66C346.334 281.47 347.344 282.59 348.064 284.01C348.784 285.43 349.154 287.06 349.154 288.89C349.154 290.72 348.794 292.27 348.064 293.7V293.69Z" fill="black"/>
<path d="M389.806 273.29C388.126 272.3 386.046 271.8 383.566 271.8C381.746 271.8 380.006 272.17 378.346 272.92C376.686 273.66 375.276 274.65 374.096 275.87C373.806 276.17 373.536 276.48 373.296 276.8L373.136 272.49H364.686V305.35H373.506V285.6C373.506 284.73 373.676 283.92 374.036 283.18C374.386 282.43 374.866 281.77 375.466 281.19C376.066 280.61 376.786 280.17 377.636 279.86C378.486 279.55 379.406 279.39 380.396 279.39C381.636 279.31 382.686 279.51 383.536 279.98C384.386 280.46 385.016 281.19 385.426 282.19C385.836 283.18 386.046 284.43 386.046 285.92V305.36H394.866V285.24C394.866 282.3 394.446 279.83 393.596 277.82C392.746 275.81 391.486 274.31 389.806 273.32V273.29Z" fill="black"/>
</g>
<defs>
<clipPath id="clip0_11_10177">
<rect width="329.05" height="111.92" fill="white" transform="translate(85.4746 194.04)"/>
</clipPath>
</defs>
</svg>
