<svg width="500" height="500" viewBox="0 0 500 500" fill="none" xmlns="http://www.w3.org/2000/svg">
<rect width="500" height="500" fill="white"/>
<g clip-path="url(#clip0_11_10203)">
<path d="M404.13 287.48L273.59 133.33C255.55 112.03 223.66 109.39 202.36 127.42C181.06 145.46 178.42 177.35 196.45 198.65L326.99 352.8C345.03 374.1 376.92 376.74 398.22 358.71C419.52 340.67 422.16 308.78 404.13 287.48Z" fill="#B8201D"/>
<path d="M220.84 256.93C193.17 224.26 144.26 220.2 111.59 247.87C56.25 294.73 89.81 385.14 162.32 384.54L298.77 383.42C310.28 383.33 316.46 369.85 309.02 361.06L220.84 256.93Z" fill="#E1422D"/>
</g>
<defs>
<clipPath id="clip0_11_10203">
<rect width="332.1" height="269.1" fill="white" transform="translate(84 115.45)"/>
</clipPath>
</defs>
</svg>
