<svg width="500" height="500" viewBox="0 0 500 500" fill="none" xmlns="http://www.w3.org/2000/svg">
<rect width="500" height="500" fill="white"/>
<g clip-path="url(#clip0_11_10083)">
<path d="M152.461 231.745C152.461 252.125 156.661 271.515 164.231 289.105C137.171 267.715 119.811 234.605 119.811 197.435C119.821 132.925 172.111 80.635 236.621 80.635C250.981 80.635 264.731 83.225 277.431 87.965C206.821 97.795 152.461 158.425 152.461 231.745Z" fill="#2E3083"/>
<path d="M216.31 156.715C198.78 167.095 184.24 180.595 172.96 196.085C177.57 161.905 197.21 130.095 229.2 111.145C284.7 78.265 356.34 96.605 389.22 152.105C396.54 164.455 401.32 177.605 403.71 190.955C359.26 135.215 279.4 119.345 216.31 156.715Z" fill="#D31E28"/>
<path d="M313.4 173.405C295.53 163.615 276.51 157.985 257.44 156.165C289.2 142.715 326.58 143.395 359.18 161.255C415.75 192.255 436.49 263.235 405.49 319.805C398.59 332.395 389.71 343.215 379.45 352.075C404.75 285.425 377.7 208.625 313.4 173.395V173.405Z" fill="#E38724"/>
<path d="M348.53 265.445C347.85 245.085 343 225.845 334.84 208.515C362.6 228.985 381.06 261.495 382.31 298.645C384.48 363.115 333.97 417.135 269.5 419.305C255.15 419.785 241.32 417.665 228.47 413.345C298.71 401.145 351 338.735 348.54 265.445H348.53Z" fill="#E9D324"/>
<path d="M287.24 342.575C304.41 331.605 318.49 317.625 329.25 301.775C325.79 336.095 307.23 368.545 275.9 388.555C221.53 423.275 149.32 407.355 114.59 352.985C106.86 340.885 101.64 327.905 98.7998 314.645C145.09 368.855 225.44 382.035 287.24 342.575Z" fill="#0A8140"/>
<path d="M189.641 329.155C207.831 338.335 227.031 343.335 246.151 344.505C214.861 359.015 177.481 359.585 144.301 342.835C86.7105 313.755 63.6105 243.505 92.6905 185.925C99.1605 173.105 107.671 162.005 117.631 152.805C94.5805 220.265 124.191 296.115 189.641 329.165V329.155Z" fill="#3B7DB9"/>
<path d="M296.01 258.035C294.23 254.705 291.72 251.895 288.49 249.595C286.39 248.105 284.06 246.885 281.5 245.925C284.78 244.475 287.41 242.345 289.4 239.535C292.12 235.695 293.48 230.865 293.48 225.045C293.48 220.175 292.22 215.955 289.68 212.385C287.15 208.815 283.47 206.055 278.64 204.085C273.8 202.115 267.92 201.125 260.98 201.125H216.38V299.625H262.39C267.55 299.625 272.31 299.015 276.68 297.795C281.04 296.575 284.88 294.695 288.21 292.165C291.54 289.635 294.12 286.485 295.95 282.735C297.78 278.985 298.7 274.575 298.7 269.515C298.7 265.205 297.81 261.375 296.03 258.045L296.01 258.035ZM242.4 223.485H256.04C259.7 223.485 262.37 224.245 264.06 225.735C265.75 227.235 266.59 229.255 266.59 231.785C266.59 233.475 266.21 234.955 265.46 236.225C264.71 237.485 263.58 238.455 262.09 239.105C260.59 239.765 258.71 240.085 256.46 240.085H242.4V223.485ZM270.33 273.015C269.53 274.415 268.4 275.475 266.95 276.185C265.5 276.885 263.69 277.245 261.54 277.245H242.4V259.375H260.83C263.08 259.375 265 259.725 266.6 260.435C268.19 261.145 269.42 262.105 270.26 263.325C271.1 264.545 271.52 266.095 271.52 267.965C271.52 269.935 271.12 271.625 270.33 273.025V273.015Z" fill="#2E3083"/>
</g>
<defs>
<clipPath id="clip0_11_10083">
<rect width="339.76" height="338.73" fill="white" transform="translate(80.1201 80.635)"/>
</clipPath>
</defs>
</svg>
