<svg width="500" height="500" viewBox="0 0 500 500" fill="none" xmlns="http://www.w3.org/2000/svg">
<rect width="500" height="500" fill="white"/>
<g clip-path="url(#clip0_11_10095)">
<path d="M318.039 216.618C320.732 213.851 323.182 210.862 325.41 207.706C336.55 192.295 342.473 172.893 340.858 152.154C337.674 111.484 304.764 78.5091 264.094 75.2692C221.808 71.9087 185.492 99.9073 175.855 138.48C174.184 145.154 173.618 152.052 173.618 158.931V409.238C197.486 409.062 216.749 389.687 216.749 365.783V236.531H273.433C277.137 236.531 280.73 237.18 284.034 238.359C296.586 242.964 305.395 255.413 304.328 269.839C303.112 286.169 288.797 298.46 272.421 298.46H239.79V335.157H273.433C294.32 335.157 313.008 325.706 325.41 310.825C335.223 299.11 341.118 284.015 341.118 267.509C341.118 251.003 335.223 235.918 325.41 224.165C323.145 221.473 320.704 218.92 318.039 216.618ZM259.703 199.332C258.877 199.369 258.05 199.406 257.224 199.406C256.398 199.406 255.572 199.369 254.745 199.332H216.749V160.983C216.712 160.296 216.712 159.581 216.712 158.894C216.712 158.207 216.712 157.492 216.749 156.805C217.863 135.416 235.547 118.381 257.224 118.381C278.901 118.381 297.7 136.53 297.7 158.894C297.7 181.257 280.915 198.032 259.712 199.332H259.703Z" fill="#22A73E"/>
</g>
<defs>
<clipPath id="clip0_11_10095">
<rect width="167.5" height="334.238" fill="white" transform="translate(173.618 75)"/>
</clipPath>
</defs>
</svg>
