<svg width="500" height="500" viewBox="0 0 500 500" fill="none" xmlns="http://www.w3.org/2000/svg">
<rect width="500" height="500" fill="white"/>
<g clip-path="url(#clip0_11_10101)">
<path d="M114.342 357.02H385.66C385.72 356.95 385.779 356.891 385.829 356.811C408.971 327.412 422.787 290.315 422.787 250.01C422.787 154.581 345.425 77.219 250.006 77.219C154.587 77.219 77.2148 154.581 77.2148 250C77.2148 290.305 91.0306 327.412 114.183 356.801L114.342 357.01V357.02Z" fill="#BA0E36"/>
<path d="M114.184 356.801H385.84C385.78 356.881 385.721 356.94 385.671 357.01C354.037 397.076 305.021 422.781 250.017 422.781C195.012 422.781 145.997 397.076 114.352 357.01L114.194 356.801H114.184Z" fill="#1B356E"/>
<path d="M250.005 133.386C195.586 133.386 151.309 177.654 151.309 232.072C151.309 286.491 195.586 330.759 250.005 330.759C304.424 330.759 348.692 286.491 348.692 232.072C348.692 177.654 304.414 133.386 250.005 133.386ZM218.331 234.665C218.391 242.322 218.709 249.821 219.295 257.062C208.061 255.91 197.632 254.112 188.445 251.738C187.641 246.206 187.174 240.505 187.065 234.655H218.331V234.665ZM187.065 229.49C187.184 223.64 187.651 217.929 188.445 212.397C197.623 210.023 208.061 208.245 219.295 207.083C218.709 214.314 218.391 221.832 218.331 229.48H187.065V229.49ZM219.771 262.306C220.854 273.281 222.533 283.551 224.757 292.689C215.044 290.861 205.966 287.991 197.791 284.276C194.087 276.112 191.216 267.034 189.379 257.31C198.526 259.545 208.806 261.214 219.771 262.306ZM189.379 206.835C191.216 197.121 194.087 188.043 197.791 179.869C205.956 176.154 215.044 173.293 224.757 171.456C222.533 180.604 220.854 190.873 219.771 201.839C208.796 202.921 198.526 204.61 189.379 206.835ZM201.337 172.827C210.435 156.369 223.228 144.589 237.838 140.318C233.726 145.364 230.061 153.091 226.952 163.371C226.694 164.215 226.446 165.089 226.198 165.954C217.388 167.473 209.045 169.797 201.337 172.827ZM219.97 143.517C209.502 150.986 200.553 162.239 193.958 176.025C180.162 182.62 168.909 191.579 161.439 202.047C170.776 174.595 192.527 152.843 219.97 143.517ZM190.749 183.404C187.73 191.102 185.396 199.455 183.886 208.275C183.012 208.523 182.138 208.761 181.304 209.02C171.024 212.138 163.287 215.803 158.251 219.905C162.512 205.315 174.282 192.512 190.749 183.404ZM182.794 213.976C182.873 213.946 182.953 213.926 183.032 213.906C182.377 218.982 181.979 224.186 181.89 229.49H157.02C159.264 223.938 168.541 218.286 182.794 213.976ZM181.89 234.665C181.989 239.978 182.377 245.183 183.032 250.248C182.953 250.219 182.873 250.199 182.794 250.179C168.541 245.858 159.274 240.207 157.02 234.665H181.89ZM181.304 255.125C182.138 255.383 183.012 255.632 183.886 255.87C185.396 264.69 187.73 273.033 190.749 280.74C174.292 271.642 162.512 258.84 158.251 244.239C163.287 248.341 171.024 252.016 181.304 255.125ZM161.439 262.107C168.909 272.566 180.172 281.525 193.958 288.12C200.553 301.916 209.502 313.159 219.97 320.638C192.517 311.302 170.766 289.55 161.439 262.107ZM201.337 291.318C209.035 294.347 217.388 296.672 226.198 298.191C226.446 299.055 226.694 299.929 226.952 300.774C230.061 311.053 233.726 318.781 237.838 323.826C223.238 319.565 210.435 307.786 201.337 291.318ZM247.413 325.048C241.861 322.803 236.209 313.536 231.899 299.274C231.879 299.194 231.849 299.125 231.829 299.045C236.905 299.691 242.109 300.088 247.413 300.178V325.048ZM247.413 295.003C241.573 294.894 235.862 294.417 230.319 293.622C227.956 284.455 226.168 274.016 225.006 262.773C232.246 263.359 239.755 263.687 247.403 263.746V295.003H247.413ZM247.413 258.572C239.576 258.512 231.909 258.164 224.529 257.549C223.913 250.159 223.566 242.501 223.496 234.665H247.413V258.572ZM247.413 229.49H223.496C223.566 221.644 223.903 213.986 224.529 206.606C231.909 205.99 239.576 205.643 247.413 205.573V229.49ZM247.413 200.398C239.755 200.458 232.256 200.786 225.016 201.372C226.168 190.138 227.966 179.7 230.329 170.522C235.872 169.718 241.573 169.241 247.423 169.142V200.398H247.413ZM247.413 163.967C242.099 164.066 236.895 164.454 231.829 165.099C231.849 165.02 231.879 164.95 231.899 164.871C236.219 150.618 241.861 141.341 247.413 139.097V163.967ZM342.981 229.49H318.11C318.011 224.176 317.624 218.972 316.968 213.906C317.048 213.926 317.127 213.946 317.207 213.976C331.459 218.296 340.726 223.938 342.981 229.49ZM318.706 209.02C317.872 208.761 316.998 208.523 316.124 208.275C314.614 199.455 312.28 191.112 309.261 183.404C325.718 192.502 337.498 205.305 341.759 219.905C336.723 215.803 328.986 212.138 318.706 209.02ZM310.631 257.31C308.794 267.034 305.924 276.102 302.219 284.276C294.055 287.991 284.967 290.861 275.253 292.689C277.478 283.551 279.156 273.271 280.239 262.306C291.214 261.223 301.484 259.545 310.631 257.31ZM275.243 171.446C284.957 173.284 294.035 176.144 302.209 179.859C305.914 188.023 308.784 197.111 310.622 206.825C301.474 204.6 291.194 202.921 280.229 201.829C279.146 190.854 277.468 180.594 275.243 171.446ZM280.706 257.062C281.292 249.821 281.609 242.312 281.679 234.665H312.936C312.817 240.505 312.35 246.216 311.555 251.748C302.378 254.122 291.939 255.91 280.706 257.072V257.062ZM281.679 229.49C281.609 221.832 281.292 214.323 280.706 207.083C291.939 208.245 302.368 210.033 311.555 212.397C312.36 217.929 312.826 223.63 312.936 229.49H281.679ZM338.571 202.047C331.102 191.579 319.839 182.62 306.053 176.025C299.458 162.229 290.509 150.986 280.04 143.517C307.493 152.853 329.244 174.604 338.571 202.047ZM298.663 172.827C290.966 169.797 282.613 167.473 273.803 165.954C273.554 165.089 273.306 164.215 273.058 163.371C269.939 153.091 266.274 145.364 262.162 140.318C276.763 144.589 289.565 156.359 298.663 172.827ZM252.588 139.097C258.14 141.341 263.791 150.618 268.102 164.871C268.122 164.95 268.151 165.02 268.171 165.099C263.096 164.454 257.891 164.056 252.588 163.967V139.097ZM252.588 169.142C258.428 169.251 264.139 169.728 269.681 170.522C272.045 179.69 273.833 190.138 274.995 201.372C267.754 200.786 260.245 200.458 252.597 200.398V169.142H252.588ZM252.588 205.573C260.424 205.643 268.092 205.98 275.471 206.606C276.087 213.986 276.435 221.644 276.504 229.49H252.588V205.573ZM252.588 234.665H276.504C276.435 242.501 276.097 250.159 275.471 257.549C268.092 258.154 260.424 258.512 252.588 258.572V234.665ZM252.588 263.746C260.245 263.687 267.744 263.369 274.985 262.773C273.833 274.006 272.035 284.445 269.671 293.622C264.129 294.427 258.428 294.904 252.578 295.003V263.746H252.588ZM252.588 325.048V300.178C257.901 300.078 263.106 299.691 268.171 299.045C268.151 299.125 268.122 299.194 268.102 299.274C263.781 313.536 258.14 322.803 252.588 325.048ZM273.068 300.774C273.316 299.929 273.564 299.055 273.813 298.191C282.623 296.672 290.966 294.347 298.673 291.318C289.575 307.776 276.782 319.565 262.172 323.826C266.284 318.781 269.949 311.053 273.068 300.774ZM280.03 320.638C290.499 313.159 299.448 301.906 306.043 288.12C319.839 281.525 331.092 272.566 338.561 262.107C329.225 289.55 307.473 311.312 280.03 320.638ZM309.261 280.74C312.28 273.043 314.614 264.69 316.124 255.87C316.998 255.632 317.872 255.383 318.706 255.125C328.986 252.016 336.723 248.341 341.759 244.239C337.498 258.83 325.728 271.632 309.261 280.74ZM317.207 250.179C317.127 250.199 317.048 250.219 316.968 250.248C317.624 245.173 318.021 239.968 318.11 234.665H342.981C340.736 240.217 331.459 245.868 317.207 250.179Z" fill="#FFC707"/>
</g>
<defs>
<clipPath id="clip0_11_10101">
<rect width="345.572" height="345.562" fill="white" transform="translate(77.2148 77.219)"/>
</clipPath>
</defs>
</svg>
