<svg width="500" height="500" viewBox="0 0 500 500" fill="none" xmlns="http://www.w3.org/2000/svg">
<rect width="500" height="500" fill="white"/>
<g clip-path="url(#clip0_11_9769)">
<path d="M420.531 263.205C419.401 261.815 418.941 260.585 416.641 261.045C413.351 261.705 405.191 275.845 402.121 279.375C400.411 281.345 391.481 291.045 390.781 284.505C389.931 276.585 402.541 265.035 400.771 260.985C398.251 255.235 391.211 263.455 389.111 265.725C385.771 269.305 371.281 288.215 366.621 286.845C363.011 285.785 367.551 276.565 368.661 274.655C370.461 271.525 378.861 263.315 375.451 260.265C373.091 258.745 370.591 260.175 367.991 260.815C366.551 261.175 365.331 259.715 365.931 258.355C366.891 256.165 367.861 253.115 365.901 251.375C362.671 248.465 358.001 252.825 356.491 255.705C354.451 259.565 355.291 263.125 354.411 266.605C353.401 270.595 340.871 285.265 336.471 284.855C334.971 284.715 333.871 283.295 334.021 281.805C334.291 279.025 350.871 264.625 346.871 257.145C346.771 256.955 346.621 256.785 346.461 256.655C341.371 252.435 335.511 260.195 332.941 264.295C328.241 271.755 327.961 284.125 317.901 285.375C317.561 285.415 317.201 285.365 316.901 285.205C312.581 282.925 320.071 271.305 321.731 268.805C323.931 265.495 332.811 257.325 329.111 253.635C324.981 249.525 319.911 256.865 317.291 258.915C313.871 261.585 309.921 264.545 305.561 265.475C304.441 265.705 303.391 264.805 303.441 263.655C303.731 256.165 301.141 248.305 293.061 249.395C291.761 249.575 290.701 248.305 291.131 247.065C292.881 241.965 296.171 236.945 299.511 232.995C301.761 230.335 316.471 218.815 306.201 216.755C300.531 215.615 296.581 223.545 291.841 225.345C285.901 227.615 276.251 227.785 270.911 224.025C267.411 221.575 266.111 215.455 261.281 215.955C251.771 216.925 260.641 230.565 261.791 235.155C262.481 237.885 263.841 243.825 262.301 246.195C261.991 246.665 254.061 250.015 252.171 251.255C245.211 255.825 239.671 262.705 236.341 270.265C234.431 274.615 231.341 287.505 224.961 287.295C218.091 287.075 224.961 270.405 226.351 267.115C229.521 259.645 243.851 240.745 227.011 240.445C208.911 240.105 194.561 262.535 181.471 272.155C146.231 298.035 79.3007 291.615 102.541 235.045C115.861 202.585 154.491 183.565 188.691 186.605C221.771 189.535 219.851 218.475 197.881 235.995C183.061 247.815 133.321 262.215 137.061 229.905C139.351 210.055 171.001 200.955 188.011 201.945C188.261 201.965 188.521 201.945 188.761 201.835C191.511 200.585 191.231 196.325 187.871 195.605C182.721 194.505 171.661 195.395 166.341 196.335C145.031 200.095 116.631 221.065 123.431 245.555C129.851 268.675 165.481 262.625 181.991 255.605C216.581 240.895 245.751 197.555 198.691 180.785C185.681 177.175 172.011 177.485 167.871 177.685C167.871 177.685 167.771 177.695 167.721 177.705C167.401 177.725 167.101 177.745 166.781 177.775C129.311 180.535 86.2107 206.615 79.8107 245.805C73.7207 283.105 106.321 302.835 140.051 299.755C154.041 298.475 167.751 290.265 179.541 282.675C180.741 281.905 182.301 282.775 182.301 284.195C182.281 300.575 200.441 298.865 209.851 288.685C210.791 287.665 212.481 287.995 212.891 289.325C215.481 297.605 225.801 298.595 230.881 291.195C231.631 290.095 233.281 290.155 233.921 291.325C234.801 292.915 235.561 294.625 237.351 295.645C246.141 300.685 255.701 289.415 259.921 282.865C268.481 269.585 272.021 253.865 272.461 238.145C272.491 237.175 273.281 236.395 274.251 236.395H283.101C284.481 236.335 285.531 237.565 285.021 238.845C282.671 244.735 279.471 250.415 277.261 256.505C274.051 265.395 266.801 289.195 276.621 295.375C284.241 300.165 291.751 292.445 295.631 286.415C297.311 283.795 299.191 277.825 300.911 275.995C301.751 275.105 303.651 274.455 305.441 273.805C306.881 273.295 308.261 274.695 307.721 276.125C306.951 278.165 305.951 280.405 305.821 280.895C300.921 298.705 313.461 299.615 324.131 291.075C325.001 290.375 326.281 290.675 326.821 291.655C335.511 307.545 352.061 279.565 357.761 270.675C358.031 270.245 358.471 269.955 358.981 269.875L360.121 269.685C361.571 269.445 362.681 270.955 362.011 272.255C358.741 278.695 354.211 285.275 356.591 292.705C359.931 303.125 371.811 292.805 378.291 286.255C379.481 285.065 381.501 286.015 381.351 287.695C381.121 290.315 381.081 292.935 382.931 295.095C386.211 298.925 390.571 296.635 394.441 293.685C396.011 292.485 398.091 294.295 397.091 296.005C392.821 303.325 386.181 314.055 387.451 317.175C387.641 319.535 390.491 321.715 392.601 322.305C393.981 322.695 393.401 322.015 393.601 321.355C394.101 319.645 394.191 317.645 394.881 315.945C394.911 315.875 394.931 315.805 394.971 315.745C403.321 299.535 412.741 283.865 420.751 267.465C420.871 267.215 420.941 266.945 420.941 266.665V264.335C420.941 263.925 420.801 263.525 420.541 263.205H420.531ZM206.821 279.005C204.691 281.345 198.691 287.995 195.371 284.655C194.711 283.985 194.441 282.035 194.461 281.065C194.561 276.325 203.471 263.835 206.851 259.945C209.611 256.765 220.211 246.085 224.651 248.975C225.431 249.505 225.281 250.085 225.191 250.885C224.691 255.295 210.481 274.975 206.821 279.005ZM260.951 259.675C259.641 265.195 257.501 270.705 254.581 275.475C253.261 277.635 245.221 289.075 243.791 281.735C242.251 273.815 250.031 260.925 258.521 257.605C259.881 257.075 261.291 258.255 260.951 259.665V259.675ZM293.691 266.735C293.341 270.925 289.041 286.075 283.191 284.065C278.671 282.505 282.831 259.455 290.091 258.325C294.651 257.615 293.941 263.655 293.691 266.735Z" fill="#3E2774"/>
</g>
<defs>
<clipPath id="clip0_11_9769">
<rect width="341.86" height="144.85" fill="white" transform="translate(79.0703 177.575)"/>
</clipPath>
</defs>
</svg>
