<svg width="500" height="500" viewBox="0 0 500 500" fill="none" xmlns="http://www.w3.org/2000/svg">
<rect width="500" height="500" fill="white"/>
<g clip-path="url(#clip0_11_9793)">
<path d="M377.521 294.728V123.398H122.501V294.298C122.481 295.098 122.471 295.918 122.471 296.728C122.471 367.048 179.681 424.248 250.001 424.248C320.321 424.248 377.531 367.048 377.531 296.728C377.531 296.038 377.531 295.358 377.511 294.738L377.521 294.728ZM250.001 415.958C184.251 415.958 130.761 362.468 130.761 296.718C130.761 295.948 130.761 295.178 130.781 294.408V131.698H369.211V294.788C369.211 295.428 369.231 296.078 369.231 296.728C369.231 362.468 315.741 415.968 249.991 415.968L250.001 415.958Z" fill="#D12421"/>
<path d="M369.221 294.788V131.698H130.781V294.418C130.761 295.188 130.761 295.958 130.761 296.728C130.761 362.468 184.241 415.969 250.001 415.969C315.761 415.969 369.241 362.478 369.241 296.728C369.241 296.078 369.241 295.428 369.221 294.788ZM351.181 266.568V257.858L358.771 256.448V265.878L351.181 266.568ZM358.771 275.088V284.348L351.181 283.748V275.198L358.771 275.078V275.088ZM351.181 248.838V239.408L358.771 236.608V246.828L351.181 248.838ZM351.181 229.438V218.518L358.771 214.158V225.978L351.181 229.438ZM344.011 211.638H328.781L358.771 186.888V201.618L344.011 211.638ZM345.701 219.548V287.268H153.501V219.548H345.691H345.701ZM321.261 206.888V194.178L358.771 150.728V170.888L321.261 206.888ZM346.401 144.858L313.181 189.738L311.961 189.928C308.531 190.458 305.091 190.928 301.661 191.368L329.761 144.858H346.411H346.401ZM315.751 144.858L291.641 192.518C288.771 192.818 285.901 193.078 283.021 193.308L302.071 144.858H315.751ZM277.901 144.858H289.981L274.821 193.898C272.411 194.038 269.991 194.168 267.571 194.268L277.911 144.858H277.901ZM255.401 144.858H266.771L260.221 194.528C257.981 194.588 255.771 194.628 253.531 194.658L255.401 144.868V144.858ZM244.591 144.858L246.451 194.648C243.051 194.618 239.651 194.558 236.251 194.438L227.551 144.848H244.591V144.858ZM216.281 144.858L228.791 194.128C226.291 194.008 223.801 193.858 221.321 193.678L203.931 144.848H216.291L216.281 144.858ZM191.481 144.858L212.821 193.018C209.791 192.758 206.761 192.448 203.731 192.108L177.261 144.868H191.481V144.858ZM162.621 144.858L193.081 190.768C191.271 190.518 189.451 190.248 187.641 189.978L180.601 188.908L145.011 144.858H162.621ZM141.231 160.608L177.961 199.658V211.358L141.231 178.998V160.608ZM141.231 193.878L164.711 211.638H148.031V211.848L141.231 207.648V193.888V193.878ZM141.231 219.548L148.031 223.078V233.548L141.231 230.798V219.548ZM141.231 241.058L148.031 243.238V252.418L141.231 250.928V241.058ZM141.231 260.338L148.031 261.308V269.908L141.231 269.588V260.338ZM141.231 278.708L148.031 278.518V287.088L141.231 287.908V278.708ZM141.261 297.238L148.021 295.888V296.968H174.841L141.961 306.758C141.581 303.628 141.351 300.448 141.261 297.238ZM143.481 316.218L182.781 301.238C183.411 303.038 184.101 304.818 184.851 306.548L145.931 325.748C144.971 322.638 144.161 319.458 143.491 316.228L143.481 316.218ZM149.191 334.958L187.581 312.308C188.471 314.018 189.411 315.688 190.411 317.328L153.421 344.118C151.871 341.138 150.451 338.088 149.181 334.958H149.191ZM164.411 361.158C162.291 358.458 160.291 355.648 158.421 352.758L193.971 322.698C195.111 324.288 196.301 325.848 197.551 327.348L164.421 361.158H164.411ZM171.051 368.838L201.911 332.218C203.301 333.658 204.741 335.048 206.231 336.388L178.661 376.118C176.001 373.828 173.471 371.388 171.051 368.838ZM186.721 382.508L211.341 340.638C212.971 341.898 214.631 343.078 216.351 344.208L195.711 388.309C192.621 386.519 189.621 384.588 186.721 382.518V382.508ZM214.991 397.039C211.571 395.879 208.211 394.549 204.951 393.059L222.171 347.708C224.011 348.718 225.911 349.668 227.831 350.538L215.001 397.039H214.991ZM235.771 401.879C232.141 401.409 228.571 400.738 225.061 399.928L234.271 353.168C236.301 353.898 238.381 354.558 240.481 355.138L235.771 401.879ZM249.991 402.789C248.731 402.789 247.481 402.768 246.231 402.728L247.411 356.738C248.091 356.868 248.791 356.988 249.481 357.108L249.671 357.068C251.121 356.838 252.561 356.558 253.981 356.258L257.151 402.569C254.781 402.719 252.401 402.789 250.001 402.789H249.991ZM267.591 401.379L260.841 354.488C262.911 353.858 264.961 353.148 266.961 352.378L278.231 399.099C274.751 400.039 271.201 400.799 267.591 401.379ZM288.211 395.898L273.291 349.598C275.181 348.688 277.031 347.698 278.831 346.638L298.131 391.589C294.911 393.179 291.591 394.618 288.211 395.888V395.898ZM307.221 386.538L284.551 343.018C286.241 341.848 287.871 340.628 289.451 339.348L316.031 380.468C313.201 382.628 310.261 384.658 307.221 386.528V386.538ZM323.901 373.828L294.441 334.998C295.891 333.628 297.291 332.208 298.631 330.748L331.271 366.298C328.951 368.928 326.481 371.438 323.891 373.828H323.901ZM337.671 358.418L302.861 325.788C304.081 324.268 305.241 322.688 306.351 321.078L343.391 349.798C341.631 352.778 339.721 355.648 337.671 358.418ZM348.131 341.008L309.771 315.638C310.741 313.968 311.651 312.278 312.491 310.538L352.071 331.688C350.901 334.858 349.581 337.968 348.131 340.998V341.008ZM355.051 322.358L315.101 304.718C315.811 302.958 316.461 301.168 317.051 299.358L357.171 312.738C356.611 315.998 355.901 319.208 355.051 322.358ZM358.781 294.018C358.781 297.128 358.651 300.208 358.391 303.238L333.541 296.968H351.181V292.488L358.781 293.668V294.018Z" fill="#F0F3FA"/>
<path d="M193.081 190.768C191.271 190.518 189.451 190.248 187.641 189.978L180.601 188.908L145.011 144.858H162.621L193.081 190.768Z" fill="#007336"/>
<path d="M212.821 193.008C209.791 192.748 206.761 192.438 203.731 192.098L177.261 144.858H191.481L212.821 193.018V193.008Z" fill="#007336"/>
<path d="M228.791 194.128C226.291 194.008 223.801 193.858 221.321 193.678L203.931 144.848H216.291L228.801 194.118L228.791 194.128Z" fill="#007336"/>
<path d="M148.02 243.238V252.428L141.23 250.928V241.058L148.02 243.238Z" fill="#007336"/>
<path d="M246.451 194.648C243.051 194.618 239.651 194.558 236.251 194.438L227.551 144.848H244.591L246.451 194.638V194.648Z" fill="#007336"/>
<path d="M177.96 199.668V211.368L141.23 178.998V160.608L177.96 199.668Z" fill="#007336"/>
<path d="M148.02 223.078V233.548L141.23 230.798V219.548L148.02 223.078Z" fill="#007336"/>
<path d="M266.78 144.858L260.23 194.528C257.99 194.588 255.78 194.628 253.54 194.658L255.41 144.868H266.78V144.858Z" fill="#007336"/>
<path d="M164.71 211.638H148.02V211.838L141.23 207.638V193.878L164.71 211.638Z" fill="#007336"/>
<path d="M289.98 144.858L274.82 193.898C272.41 194.038 269.99 194.168 267.57 194.268L277.91 144.858H289.99H289.98Z" fill="#007336"/>
<path d="M358.771 214.158V225.978L351.181 229.438V218.518L358.771 214.158Z" fill="#007336"/>
<path d="M358.771 236.608V246.828L351.181 248.838V239.408L358.771 236.608Z" fill="#007336"/>
<path d="M358.771 256.448V265.878L351.181 266.568V257.858L358.771 256.448Z" fill="#007336"/>
<path d="M358.771 150.719V170.879L321.261 206.889V194.179L358.771 150.719Z" fill="#007336"/>
<path d="M148.02 261.308V269.908L141.23 269.588V260.338L148.02 261.308Z" fill="#007336"/>
<path d="M315.751 144.858L291.641 192.518C288.771 192.818 285.901 193.078 283.021 193.308L302.071 144.858H315.751Z" fill="#007336"/>
<path d="M346.4 144.858L313.18 189.738L311.96 189.928C308.53 190.458 305.09 190.928 301.66 191.368L329.76 144.858H346.41H346.4Z" fill="#007336"/>
<path d="M358.771 275.088V284.348L351.181 283.748V275.208L358.771 275.088Z" fill="#007336"/>
<path d="M358.77 186.888V201.608L344.01 211.638H328.78L358.77 186.888Z" fill="#007336"/>
<path d="M316.02 380.478C313.19 382.638 310.25 384.668 307.21 386.538L284.54 343.018C286.23 341.848 287.86 340.628 289.44 339.348L316.02 380.468V380.478Z" fill="#007336"/>
<path d="M331.271 366.308C328.951 368.938 326.481 371.448 323.891 373.838L294.431 335.008C295.881 333.638 297.281 332.218 298.621 330.758L331.261 366.308H331.271Z" fill="#007336"/>
<path d="M298.13 391.598C294.91 393.188 291.59 394.628 288.21 395.898L273.29 349.598C275.18 348.688 277.03 347.698 278.83 346.638L298.13 391.588V391.598Z" fill="#007336"/>
<path d="M148.02 278.518V287.088L141.23 287.908V278.708L148.02 278.518Z" fill="#007336"/>
<path d="M278.231 399.098C274.751 400.038 271.201 400.798 267.591 401.378L260.841 354.488C262.911 353.858 264.961 353.148 266.961 352.378L278.231 399.098Z" fill="#007336"/>
<path d="M358.78 293.668V294.018C358.78 297.128 358.65 300.208 358.39 303.238L333.54 296.968H351.18V292.488L358.78 293.668Z" fill="#007336"/>
<path d="M357.171 312.738C356.611 315.998 355.901 319.208 355.051 322.358L315.101 304.718C315.811 302.958 316.461 301.168 317.051 299.358L357.171 312.738Z" fill="#007336"/>
<path d="M343.39 349.798C341.63 352.778 339.72 355.648 337.67 358.418L302.86 325.788C304.08 324.268 305.24 322.688 306.35 321.078L343.39 349.798Z" fill="#007336"/>
<path d="M352.071 331.698C350.901 334.868 349.581 337.978 348.131 341.008L309.771 315.638C310.741 313.968 311.651 312.278 312.491 310.538L352.071 331.688V331.698Z" fill="#007336"/>
<path d="M257.15 402.568C254.78 402.718 252.4 402.788 250 402.788C248.74 402.788 247.49 402.768 246.24 402.728L247.42 356.738C248.1 356.868 248.8 356.988 249.49 357.108L249.68 357.068C251.13 356.838 252.57 356.558 253.99 356.258L257.16 402.568H257.15Z" fill="#007336"/>
<path d="M184.84 306.538L145.92 325.738C144.96 322.628 144.15 319.448 143.48 316.218L182.78 301.238C183.41 303.038 184.1 304.818 184.85 306.548L184.84 306.538Z" fill="#007336"/>
<path d="M190.411 317.338L153.421 344.128C151.871 341.148 150.451 338.098 149.181 334.968L187.571 312.318C188.461 314.028 189.401 315.698 190.401 317.338H190.411Z" fill="#007336"/>
<path d="M197.551 327.348L164.421 361.158C162.301 358.458 160.301 355.648 158.431 352.758L193.981 322.698C195.121 324.288 196.311 325.848 197.561 327.348H197.551Z" fill="#007336"/>
<path d="M174.851 296.968L141.971 306.758C141.591 303.628 141.361 300.448 141.271 297.238L148.031 295.888V296.968H174.851Z" fill="#007336"/>
<path d="M240.481 355.138L235.771 401.878C232.141 401.408 228.571 400.738 225.061 399.928L234.271 353.168C236.301 353.898 238.381 354.558 240.481 355.138Z" fill="#007336"/>
<path d="M206.231 336.389L178.661 376.118C176.001 373.828 173.471 371.389 171.051 368.839L201.911 332.219C203.301 333.659 204.741 335.049 206.231 336.389Z" fill="#007336"/>
<path d="M227.831 350.538L215.001 397.039C211.581 395.879 208.221 394.549 204.961 393.059L222.181 347.708C224.021 348.718 225.921 349.668 227.841 350.538H227.831Z" fill="#007336"/>
<path d="M216.351 344.198L195.711 388.298C192.621 386.508 189.621 384.578 186.721 382.508L211.341 340.638C212.971 341.898 214.631 343.078 216.351 344.208V344.198Z" fill="#007336"/>
<path d="M337.42 227.568H161.78V279.248H337.42V227.568Z" fill="#D12421"/>
<path d="M153.501 219.548V287.268H345.691V219.548H153.501ZM342.381 283.948H156.821V222.868H342.381V283.948Z" fill="#D12421"/>
<path d="M156.821 222.868V283.948H342.381V222.868H156.821ZM337.431 279.248H161.781V227.568H337.421V279.248H337.431Z" fill="#F0F3FA"/>
<path d="M188.841 255.838C188.651 256.958 188.281 257.938 187.751 258.778C187.221 259.608 186.571 260.298 185.801 260.858C185.031 261.418 184.171 261.828 183.201 262.108C182.241 262.388 181.241 262.528 180.201 262.528C178.661 262.528 177.271 262.248 176.031 261.698C174.791 261.148 173.721 260.388 172.831 259.408C171.941 258.438 171.261 257.278 170.791 255.948C170.311 254.618 170.081 253.188 170.081 251.648C170.081 249.958 170.351 248.418 170.891 247.008C171.431 245.598 172.161 244.388 173.081 243.378C174.001 242.358 175.071 241.568 176.291 241.008C177.511 240.448 178.821 240.168 180.201 240.168C181.871 240.168 183.431 240.668 184.901 241.658C185.661 240.878 186.441 240.428 187.241 240.298C187.301 240.358 187.401 240.608 187.531 241.028C187.661 241.448 187.781 241.998 187.901 242.668C188.021 243.338 188.121 244.108 188.211 244.968C188.301 245.828 188.341 246.738 188.341 247.698H187.241C186.741 245.618 185.881 244.058 184.641 243.008C183.411 241.958 181.971 241.438 180.331 241.438C179.141 241.438 178.121 241.688 177.281 242.198C176.441 242.708 175.741 243.378 175.201 244.208C174.661 245.038 174.261 245.988 174.021 247.048C173.771 248.108 173.651 249.188 173.651 250.288C173.651 251.828 173.781 253.248 174.061 254.558C174.331 255.868 174.761 256.998 175.341 257.968C175.921 258.928 176.681 259.688 177.611 260.238C178.541 260.788 179.651 261.068 180.951 261.068C181.771 261.068 182.511 260.978 183.171 260.808C183.831 260.638 184.441 260.338 184.991 259.918C185.541 259.498 186.051 258.928 186.511 258.198C186.971 257.478 187.421 256.568 187.861 255.488L188.831 255.848L188.841 255.838Z" fill="#F0F3FA"/>
<path d="M202.82 262.029V261.059C204.96 261.059 206.03 260.309 206.03 258.819V252.039C205.64 251.719 204.82 251.549 203.56 251.549H197.72C197.29 251.549 196.88 251.589 196.49 251.659C196.1 251.739 195.73 251.859 195.39 252.029V258.809C195.39 260.299 196.38 261.049 198.37 261.049V262.019H188.86V261.049C191.07 261.049 192.17 260.299 192.17 258.809V244.349C192.17 242.439 191.07 241.489 188.86 241.489V240.519H198.37V241.489C196.38 241.489 195.39 242.449 195.39 244.359V249.929C196.1 250.169 196.88 250.289 197.73 250.289H203.57C204.78 250.289 205.6 250.169 206.04 249.929V244.359C206.04 242.449 204.97 241.489 202.83 241.489V240.519H212.21V241.489C210.24 241.489 209.26 242.439 209.26 244.349V258.809C209.26 260.299 210.24 261.049 212.21 261.049V262.019H202.83L202.82 262.029Z" fill="#F0F3FA"/>
<path d="M224.041 262.028V261.058C224.341 261.018 224.661 260.968 225.001 260.928C225.331 260.888 225.641 260.828 225.911 260.768C226.181 260.698 226.411 260.618 226.591 260.528C226.771 260.428 226.871 260.318 226.871 260.188C226.851 260.098 226.831 259.978 226.821 259.818C226.811 259.658 226.751 259.458 226.641 259.218L225.181 255.228C224.941 254.668 224.281 254.388 223.201 254.388H218.371C217.551 254.388 217.051 254.668 216.881 255.228L215.781 258.588C215.691 258.778 215.651 259.058 215.651 259.428C215.651 260.418 216.601 260.918 218.511 260.918V262.058H211.211V260.918C211.841 260.878 212.371 260.658 212.821 260.268C213.261 259.878 213.641 259.318 213.941 258.588L221.731 240.058L222.701 240.448L230.391 259.718C230.691 260.168 230.931 260.458 231.101 260.558C231.141 260.598 231.321 260.658 231.641 260.738C231.951 260.818 232.391 260.928 232.951 261.078V262.048H224.061L224.041 262.028ZM221.211 244.608L218.361 251.418C218.121 251.938 218.001 252.308 218.001 252.518C218.001 252.838 218.401 253.008 219.201 253.008H223.291C223.941 253.008 224.261 252.878 224.261 252.618C224.261 252.508 224.141 252.158 223.901 251.548L221.211 244.608Z" fill="#F0F3FA"/>
<path d="M248.401 262.029V261.059C250.301 261.059 251.261 260.269 251.261 258.689L251.031 243.599L244.121 262.029H243.211L235.811 243.889L235.681 258.199C235.661 260.099 236.741 261.049 238.921 261.049V262.019H231.101V261.049C233.071 261.049 234.111 260.009 234.211 257.929L234.471 243.439V243.109C234.471 242.869 234.441 242.659 234.391 242.459C234.341 242.259 234.201 242.089 233.971 241.939C233.741 241.789 233.411 241.679 232.981 241.599C232.551 241.519 231.961 241.489 231.231 241.489V240.519H237.911L244.461 256.969L250.721 240.519H257.311V241.489C256.601 241.489 256.031 241.539 255.621 241.639C255.211 241.739 254.901 241.879 254.701 242.059C254.491 242.239 254.361 242.459 254.311 242.689C254.261 242.919 254.231 243.179 254.231 243.439L254.591 258.449C254.591 260.179 255.571 261.049 257.541 261.049V262.019H248.391L248.401 262.029Z" fill="#F0F3FA"/>
<path d="M258.36 262.028V261.058C260.33 261.058 261.31 260.278 261.31 258.718V243.468C261.31 242.168 260.28 241.518 258.23 241.518V240.508H263.65C264.36 240.508 264.92 240.508 265.32 240.488C265.72 240.478 266.08 240.468 266.39 240.458C266.7 240.448 267.02 240.438 267.33 240.428C267.64 240.418 268.07 240.408 268.61 240.408C273.46 240.408 275.88 242.508 275.88 246.698C275.88 247.518 275.73 248.288 275.44 248.998C275.15 249.708 274.7 250.338 274.09 250.878C273.48 251.418 272.72 251.838 271.79 252.148C270.86 252.448 269.76 252.598 268.48 252.598C267.79 252.598 267.11 252.568 266.45 252.518C265.79 252.468 265.15 252.368 264.52 252.238V258.568C264.52 260.208 265.59 261.038 267.73 261.038V262.008H258.35L258.36 262.028ZM265.89 241.528C264.98 241.528 264.53 242.098 264.53 243.248V251.068C265.07 251.178 265.67 251.268 266.31 251.328C266.96 251.388 267.68 251.428 268.48 251.428C269.19 251.428 269.8 251.288 270.31 251.018C270.82 250.748 271.24 250.388 271.58 249.948C271.92 249.508 272.16 248.988 272.31 248.408C272.46 247.828 272.54 247.218 272.54 246.588C272.54 243.218 270.6 241.528 266.73 241.528H265.89Z" fill="#F0F3FA"/>
<path d="M276.341 262.028V261.058C278.391 261.058 279.421 260.308 279.421 258.818V244.358C279.421 242.448 278.351 241.498 276.211 241.498V240.528H285.621V241.498C283.631 241.498 282.631 242.448 282.631 244.358V258.818C282.631 260.308 283.671 261.058 285.741 261.058V262.028H276.331H276.341Z" fill="#F0F3FA"/>
<path d="M296.741 262.518C295.201 262.518 293.791 262.228 292.491 261.658C291.191 261.088 290.071 260.298 289.131 259.288C288.191 258.278 287.451 257.108 286.921 255.748C286.391 254.398 286.131 252.958 286.131 251.418C286.131 249.988 286.381 248.598 286.881 247.248C287.381 245.898 288.091 244.698 289.021 243.648C289.951 242.598 291.071 241.758 292.381 241.118C293.691 240.478 295.141 240.158 296.741 240.158C298.341 240.158 299.771 240.438 301.101 240.988C302.431 241.538 303.581 242.308 304.541 243.288C305.501 244.268 306.251 245.438 306.791 246.778C307.331 248.118 307.601 249.578 307.601 251.158C307.601 252.538 307.341 253.918 306.821 255.278C306.301 256.638 305.571 257.858 304.631 258.928C303.691 259.998 302.551 260.868 301.211 261.528C299.871 262.188 298.381 262.518 296.731 262.518H296.741ZM297.001 261.258C298.211 261.258 299.251 261.008 300.111 260.498C300.971 259.988 301.691 259.298 302.251 258.408C302.811 257.518 303.231 256.478 303.501 255.278C303.771 254.078 303.911 252.788 303.911 251.408C303.911 250.108 303.771 248.858 303.501 247.648C303.231 246.438 302.801 245.368 302.221 244.428C301.641 243.488 300.871 242.728 299.931 242.158C298.991 241.588 297.851 241.298 296.511 241.298C295.281 241.298 294.231 241.568 293.381 242.108C292.531 242.648 291.831 243.368 291.301 244.278C290.771 245.188 290.391 246.228 290.161 247.418C289.931 248.608 289.821 249.848 289.821 251.138C289.821 252.568 289.961 253.888 290.241 255.118C290.521 256.348 290.951 257.418 291.541 258.328C292.121 259.238 292.871 259.948 293.781 260.468C294.691 260.988 295.761 261.248 296.991 261.248L297.001 261.258Z" fill="#F0F3FA"/>
<path d="M326.5 262.388L312.16 244.118V257.198C312.16 259.768 313.27 261.058 315.5 261.058V262.028H307.71V261.058C309.53 261.058 310.44 259.768 310.44 257.188V242.858C310.44 241.948 309.37 241.498 307.23 241.498V240.528H313.16L325.85 256.718V245.078C325.85 242.698 324.75 241.498 322.54 241.498V240.528H330.33V241.498C328.34 241.498 327.35 242.688 327.35 245.068V262.158L326.51 262.388H326.5Z" fill="#F0F3FA"/>
</g>
<defs>
<clipPath id="clip0_11_9793">
<rect width="255.06" height="300.85" fill="white" transform="translate(122.471 123.398)"/>
</clipPath>
</defs>
</svg>
