<svg width="500" height="500" viewBox="0 0 500 500" fill="none" xmlns="http://www.w3.org/2000/svg">
<rect width="500" height="500" fill="white"/>
<g clip-path="url(#clip0_11_9932)">
<path d="M348.981 93.3252H151.02V406.675H348.981V93.3252Z" fill="#991F36"/>
<path d="M216.778 274.228C204.433 260.668 195.988 243.492 193.245 224.505C185.865 216.404 177.085 209.594 167.298 204.47C167.172 206.634 167.113 208.814 167.113 211.012C167.113 250.344 186.276 285.29 215.763 306.986C217.063 300.771 217.75 294.331 217.75 287.73C217.75 283.143 217.423 278.64 216.778 274.228Z" fill="#F0F3FA"/>
<path d="M304.936 303.086C298.89 304.319 292.633 304.964 286.235 304.964C285.723 304.964 285.203 304.964 284.691 304.939C286.285 313.753 289.111 322.148 292.994 329.931C297.036 329.704 301.02 329.277 304.936 328.656V303.086Z" fill="#F0F3FA"/>
<path d="M264.958 328.22C255.699 326.543 246.818 323.8 238.432 320.11C240.78 311.825 242.247 303.17 242.725 294.263C247.799 296.93 253.141 299.144 258.702 300.847C259.716 310.349 261.838 319.515 264.958 328.22Z" fill="#F0F3FA"/>
<path d="M304.936 93.3587V118.929C298.889 117.696 292.633 117.05 286.234 117.05C241.023 117.05 203.167 149.145 194.26 191.748C187.249 186.582 179.651 182.171 171.592 178.623C184.104 134.393 221.583 100.529 267.784 93.3252H304.709C304.785 93.3336 304.86 93.3504 304.936 93.3587Z" fill="#F0F3FA"/>
<path d="M348.982 377.851V403.958C309.919 394.447 278.335 365.623 264.959 328.22C271.861 329.47 278.973 330.124 286.235 330.124C288.5 330.124 290.756 330.057 292.995 329.931C304.274 352.616 324.477 370.127 348.982 377.851Z" fill="#F0F3FA"/>
<path d="M348.981 172.443V198.55C310.89 210.55 283.198 246.201 283.198 288.2C283.198 293.911 283.71 299.505 284.691 304.939C275.667 304.805 266.945 303.38 258.702 300.847C258.265 296.687 258.039 292.469 258.039 288.2C258.039 232.221 296.851 185.14 348.981 172.443Z" fill="#F0F3FA"/>
<path d="M292.993 329.931C290.754 330.057 288.498 330.124 286.234 330.124C278.971 330.124 271.859 329.47 264.957 328.22C261.838 319.515 259.716 310.349 258.701 300.847C266.945 303.38 275.667 304.805 284.691 304.939C286.284 313.754 289.11 322.148 292.993 329.931Z" fill="#991F36"/>
<path d="M151.02 171.747V197.795C156.689 199.514 162.132 201.753 167.298 204.47C167.776 195.564 169.243 186.909 171.591 178.623C165.025 175.739 158.14 173.424 151.02 171.747Z" fill="#F0F3FA"/>
<path d="M238.431 320.11C226.732 361.514 193.144 393.818 151.02 403.714V377.666C183.584 367.787 208.726 340.674 215.763 306.986C222.774 312.152 230.372 316.563 238.431 320.11Z" fill="#F0F3FA"/>
<path d="M242.726 294.263C242.248 303.17 240.78 311.825 238.432 320.11C230.373 316.563 222.775 312.152 215.764 306.986C217.064 300.771 217.751 294.33 217.751 287.73C217.751 283.143 217.424 278.64 216.778 274.228C224.158 282.33 232.939 289.139 242.726 294.263Z" fill="#991F36"/>
<path d="M192.272 211.012C192.272 215.591 192.599 220.094 193.244 224.505C185.864 216.404 177.084 209.594 167.297 204.47C167.775 195.564 169.243 186.909 171.591 178.623C179.65 182.171 187.248 186.582 194.259 191.748C192.959 197.962 192.272 204.411 192.272 211.012Z" fill="#F0F3FA"/>
<path d="M242.909 287.73C242.909 289.919 242.85 292.1 242.724 294.263C232.937 289.139 224.157 282.33 216.777 274.228C214.034 255.233 205.589 238.066 193.244 224.505C192.599 220.094 192.271 215.591 192.271 211.012C192.271 204.412 192.959 197.962 194.259 191.748C223.746 213.452 242.909 248.398 242.909 287.73Z" fill="#F0F3FA"/>
</g>
<defs>
<clipPath id="clip0_11_9932">
<rect width="197.961" height="313.35" fill="white" transform="translate(151.02 93.3252)"/>
</clipPath>
</defs>
</svg>
