<svg width="500" height="500" viewBox="0 0 500 500" fill="none" xmlns="http://www.w3.org/2000/svg">
<rect width="500" height="500" fill="white"/>
<g clip-path="url(#clip0_11_9644)">
<path d="M380.015 265.365C374.735 265.365 369.565 264.765 364.635 263.635C365.705 267.435 366.275 271.445 366.275 275.605C366.275 294.315 354.815 310.355 338.525 317.055C340.985 311.535 342.325 305.425 342.325 298.985C342.325 287.815 338.235 277.605 331.475 269.775C329.505 267.435 327.265 265.315 324.825 263.445C317.265 257.615 307.775 254.145 297.485 254.145C294.015 254.145 290.645 254.535 287.405 255.295C284.985 255.845 282.635 256.585 280.365 257.535C275.205 259.655 270.525 262.715 266.545 266.535H266.525V266.555C262.905 270.315 259.975 274.705 257.875 279.555C256.585 282.435 255.635 285.495 255.015 288.655C254.435 291.515 254.135 294.465 254.135 297.485C254.135 307.595 257.485 316.955 263.135 324.455C264.715 326.545 266.465 328.485 268.375 330.245C276.365 337.725 287.125 342.325 298.975 342.325C304.625 342.325 310.045 341.275 315.035 339.345C308.135 355.185 292.335 366.275 273.935 366.275C272.395 366.275 270.855 366.195 269.355 366.045C269.215 366.025 269.085 366.025 268.965 365.985C267.285 365.825 265.655 365.535 264.055 365.165C263.665 365.085 263.255 364.985 262.865 364.895C263.955 369.745 264.545 374.815 264.545 380.015C264.545 396.175 258.955 411.005 249.595 422.715C240.245 411.005 234.645 396.175 234.645 380.015C234.645 374.735 235.245 369.565 236.375 364.635C232.575 365.705 228.565 366.275 224.405 366.275C205.695 366.275 189.655 354.815 182.955 338.525C188.475 340.985 194.585 342.325 201.025 342.325C212.195 342.325 222.405 338.235 230.235 331.475C232.575 329.505 234.695 327.265 236.565 324.825C242.395 317.265 245.865 307.775 245.865 297.485C245.865 294.015 245.475 290.645 244.715 287.405C244.165 284.985 243.425 282.635 242.475 280.365C240.355 275.205 237.275 270.505 233.455 266.525C229.695 262.905 225.285 259.955 220.435 257.855C217.555 256.565 214.495 255.615 211.335 254.995C208.475 254.415 205.525 254.115 202.505 254.115C192.395 254.115 183.035 257.465 175.535 263.115C173.445 264.695 171.505 266.445 169.745 268.355C162.265 276.345 157.665 287.105 157.665 298.955C157.665 304.605 158.715 310.025 160.645 315.015C144.805 308.115 133.715 292.315 133.715 273.915C133.715 272.375 133.795 270.835 133.945 269.335C133.965 269.195 133.965 269.065 134.005 268.945C134.165 267.265 134.455 265.635 134.825 264.035C134.905 263.645 135.005 263.235 135.095 262.845C130.245 263.935 125.175 264.525 119.975 264.525C103.815 264.525 88.9854 258.935 77.2754 249.575C88.9854 240.225 103.815 234.625 119.975 234.625C125.255 234.625 130.425 235.225 135.355 236.355C134.285 232.555 133.715 228.545 133.715 224.385C133.715 205.675 145.175 189.635 161.465 182.935C159.005 188.455 157.665 194.565 157.665 201.005C157.665 212.175 161.755 222.385 168.515 230.215C170.485 232.555 172.725 234.675 175.165 236.545C182.725 242.375 192.215 245.845 202.505 245.845C205.975 245.845 209.345 245.455 212.585 244.695C215.005 244.145 217.355 243.405 219.625 242.455C224.785 240.335 229.465 237.275 233.445 233.455H233.465V233.435C237.085 229.675 240.015 225.285 242.115 220.435C243.405 217.555 244.355 214.495 244.975 211.335C245.555 208.475 245.855 205.525 245.855 202.505C245.855 192.395 242.505 183.035 236.855 175.535C235.275 173.445 233.525 171.505 231.615 169.745C223.625 162.265 212.865 157.665 201.015 157.665C195.365 157.665 189.945 158.715 184.955 160.645C191.855 144.805 207.655 133.715 226.055 133.715C227.595 133.715 229.135 133.795 230.635 133.945C230.775 133.965 230.905 133.965 231.025 134.005C232.705 134.165 234.335 134.455 235.935 134.825C236.325 134.905 236.735 135.005 237.125 135.095C236.035 130.245 235.445 125.175 235.445 119.975C235.445 103.815 241.035 88.9849 250.395 77.2749C259.745 88.9849 265.345 103.815 265.345 119.975C265.345 125.255 264.745 130.425 263.615 135.355C267.415 134.285 271.425 133.715 275.585 133.715C294.295 133.715 310.335 145.175 317.035 161.465C311.515 159.005 305.405 157.665 298.965 157.665C287.795 157.665 277.585 161.755 269.755 168.515C267.415 170.485 265.295 172.725 263.425 175.165C257.595 182.725 254.125 192.215 254.125 202.505C254.125 205.975 254.515 209.345 255.275 212.585C255.825 215.005 256.565 217.355 257.515 219.625C259.635 224.785 262.715 229.485 266.535 233.465C270.295 237.085 274.705 240.035 279.555 242.135C282.435 243.425 285.495 244.375 288.655 244.995C291.515 245.575 294.465 245.875 297.485 245.875C307.595 245.875 316.955 242.525 324.455 236.875C326.545 235.295 328.485 233.545 330.245 231.635C337.725 223.645 342.325 212.885 342.325 201.035C342.325 195.385 341.275 189.965 339.345 184.975C355.185 191.875 366.275 207.675 366.275 226.075C366.275 227.615 366.195 229.155 366.045 230.655C366.025 230.795 366.025 230.925 365.985 231.045C365.825 232.725 365.535 234.355 365.165 235.955C365.085 236.345 364.985 236.755 364.895 237.145C369.745 236.055 374.815 235.465 380.015 235.465C396.175 235.465 411.005 241.055 422.715 250.415C411.005 259.765 396.175 265.365 380.015 265.365Z" fill="#71706E"/>
</g>
<defs>
<clipPath id="clip0_11_9644">
<rect width="345.43" height="345.43" fill="white" transform="translate(77.2852 77.2849)"/>
</clipPath>
</defs>
</svg>
