<svg width="500" height="500" viewBox="0 0 500 500" fill="none" xmlns="http://www.w3.org/2000/svg">
<rect width="500" height="500" fill="white"/>
<g clip-path="url(#clip0_11_9650)">
<path d="M235.209 383.968H216.844C142.889 383.968 82.7139 323.793 82.7139 249.838C82.7139 175.883 142.889 115.699 216.853 115.699H235.695V141.266H216.853C156.985 141.266 108.28 189.97 108.28 249.838C108.28 309.706 156.985 358.402 216.853 358.402H235.218V383.968H235.209Z" fill="black"/>
<path d="M391.412 295.687V384.301H246.766V358.734H365.846V321.254H271.037V142.919H296.603V295.687H391.412Z" fill="black"/>
<path d="M214.305 328.072H216.444C215.958 328.08 215.481 328.08 214.995 328.08C214.765 328.08 214.535 328.08 214.305 328.072Z" fill="#FC0203"/>
<path d="M216.444 171.443H214.305C214.535 171.434 214.765 171.434 214.995 171.434C215.481 171.434 215.958 171.434 216.444 171.443Z" fill="#FC0203"/>
<path d="M234.971 171.442V328.071H214.304C214.159 328.08 214.023 328.071 213.878 328.063C170.356 327.483 135.278 292.653 135.278 249.761C135.278 206.869 170.356 172.03 213.878 171.451C214.023 171.451 214.159 171.434 214.304 171.451H234.971V171.442Z" fill="#FC0203"/>
<path d="M213.878 328.063C214.023 328.072 214.159 328.08 214.304 328.072H213.878V328.063Z" fill="#FC0203"/>
<path d="M214.304 171.443C214.159 171.434 214.023 171.443 213.878 171.443H214.304Z" fill="#FC0203"/>
</g>
<defs>
<clipPath id="clip0_11_9650">
<rect width="308.698" height="268.602" fill="white" transform="translate(82.7139 115.699)"/>
</clipPath>
</defs>
</svg>
