<svg width="500" height="500" viewBox="0 0 500 500" fill="none" xmlns="http://www.w3.org/2000/svg">
<rect width="500" height="500" fill="white"/>
<g clip-path="url(#clip0_11_9663)">
<path d="M226.86 265.299V265.349C229.979 265.406 233.254 265.439 236.686 265.439C237.139 265.439 237.585 265.439 238.039 265.431C234.318 265.415 230.581 265.365 226.86 265.299Z" fill="#2C2F7F"/>
<path d="M426.574 264.35H426.533C422.656 264.4 416.13 264.457 407.839 264.507C407.542 266.99 407.163 269.407 406.709 271.783C415.627 271.734 422.631 271.692 426.624 271.651C428.62 271.635 430.229 270.001 430.229 268.005C430.229 266.008 428.587 264.35 426.574 264.35ZM258.241 265.15C251.766 265.324 245.29 265.423 238.814 265.431H238.038C237.584 265.439 237.139 265.439 236.685 265.439C233.253 265.439 229.978 265.406 226.86 265.348C226.332 265.348 225.812 265.332 225.293 265.324V287.235C225.317 287.639 225.326 288.043 225.326 288.455V326.032C221.44 328.845 217.406 331.188 213.232 333.053C209.057 334.925 204.735 336.32 200.272 337.244C191.337 339.091 182.213 340.015 172.891 340.015C161.82 340.015 151.962 337.59 143.325 332.731C134.679 327.88 127.304 321.371 121.183 313.212C115.07 305.054 110.409 295.492 107.2 284.52C103.999 273.548 102.399 261.941 102.399 249.707C102.399 238.834 103.999 227.961 107.2 217.08C110.409 206.207 115.07 196.398 121.183 187.662C127.304 178.926 134.679 171.839 143.325 166.395C151.962 160.958 161.82 158.244 172.891 158.244C182.403 158.244 190.702 159.894 197.797 163.194C204.883 166.494 211.145 170.866 216.589 176.302C222.018 181.739 226.827 187.951 231.001 194.946C232.231 197.009 233.443 199.088 234.631 201.191C235.448 202.61 236.248 204.046 237.04 205.489C237.989 207.222 240.464 207.222 241.412 205.489C242.204 204.046 243.004 202.61 243.821 201.191C245.009 199.088 246.222 197.009 247.451 194.946C251.625 187.951 256.435 181.739 261.863 176.302C267.308 170.866 273.569 166.494 280.656 163.194C287.75 159.894 296.049 158.244 305.561 158.244C316.632 158.244 326.49 160.958 335.128 166.395C343.773 171.839 351.148 178.926 357.269 187.662C363.382 196.398 368.043 206.207 371.252 217.08C374.453 227.961 376.054 238.834 376.054 249.707C376.054 254.805 375.781 259.788 375.212 264.664C387.446 264.614 398.715 264.565 407.839 264.507C408.4 259.854 408.681 255.02 408.681 249.996C408.681 235.823 405.727 222.574 399.796 210.241C393.873 197.908 386.011 187.274 376.202 178.34C366.402 169.406 355.281 162.369 342.849 157.221C330.425 152.082 317.704 149.5 304.687 149.5C296.726 149.5 289.54 149.846 283.13 150.522C276.721 151.207 270.896 152.082 265.658 153.146C260.411 154.21 255.651 155.324 251.378 156.495C247.146 157.65 243.087 158.714 239.226 159.679C235.365 158.714 231.307 157.65 227.075 156.495C222.801 155.324 218.041 154.21 212.794 153.146C207.556 152.082 201.732 151.207 195.322 150.522C188.912 149.846 181.727 149.5 173.766 149.5C160.748 149.5 148.027 152.082 135.603 157.221C123.171 162.369 112.051 169.406 102.25 178.34C92.4413 187.274 84.5795 197.908 78.6563 210.241C72.7248 222.574 69.7715 235.823 69.7715 249.996C69.7715 266.314 72.7248 280.684 78.6563 293.108C84.5795 305.54 92.4413 316.034 102.25 324.572C112.051 333.119 123.171 339.578 135.603 343.942C148.027 348.314 160.748 350.501 173.766 350.501C186 350.501 198.671 348.603 211.78 344.817C220.854 342.193 230.011 339.413 239.226 336.46C248.441 339.413 257.598 342.193 266.673 344.817C279.781 348.603 292.452 350.501 304.687 350.501C317.704 350.501 330.425 348.314 342.849 343.942C355.281 339.578 366.402 333.119 376.202 324.572C386.011 316.034 393.873 305.54 399.796 293.108C402.931 286.542 405.232 279.439 406.709 271.783C397.494 271.841 386.242 271.899 374.173 271.965C373.422 276.238 372.449 280.42 371.252 284.52C368.043 295.492 363.382 305.054 357.269 313.212C351.148 321.371 343.773 327.88 335.128 332.731C326.49 337.59 316.632 340.015 305.561 340.015C296.239 340.015 287.115 339.091 278.181 337.244C269.246 335.396 260.898 331.659 253.127 326.032V292.292C253.127 291.879 253.135 291.475 253.16 291.071V285.312C253.333 284.85 253.523 284.413 253.729 283.984C255.181 280.973 257.119 278.597 259.553 276.848C261.978 275.099 264.94 273.837 268.438 273.062C270.566 272.592 328.264 272.22 374.173 271.965C374.594 269.564 374.94 267.13 375.212 264.664C326.564 264.87 262.754 265.027 258.241 265.15Z" fill="#2C2F7F"/>
<path d="M407.84 264.507C407.543 266.99 407.163 269.407 406.709 271.783C398.534 271.832 384.782 271.882 373.356 271.94C371.154 271.948 369.471 270.009 369.776 267.823C369.776 267.798 369.776 267.774 369.784 267.749C370.032 265.975 371.541 264.655 373.332 264.647C385.096 264.598 399.483 264.556 407.84 264.507Z" fill="#F0F3FA"/>
</g>
<defs>
<clipPath id="clip0_11_9663">
<rect width="360.457" height="201.001" fill="white" transform="translate(69.7715 149.5)"/>
</clipPath>
</defs>
</svg>
