<svg width="500" height="500" viewBox="0 0 500 500" fill="none" xmlns="http://www.w3.org/2000/svg">
<rect width="500" height="500" fill="white"/>
<g clip-path="url(#clip0_11_9681)">
<path d="M339.24 243.152C338.01 243.272 336.91 243.152 335.71 242.852C329.73 241.382 320.82 236.212 314.56 233.802C272.11 217.412 230.23 217.512 187.61 233.362C180.58 235.972 171.41 241.182 164.64 242.862C163.44 243.152 162.34 243.282 161.11 243.162C178.59 223.282 203.57 210.832 229.66 206.652C229.7 206.652 229.73 206.632 229.76 206.622C230.2 206.512 230.64 206.402 231.06 206.312C231.29 206.262 231.52 206.212 231.74 206.162C231.99 206.112 232.23 206.062 232.47 206.012C232.88 205.932 233.28 205.862 233.67 205.792C241.39 204.522 245.26 206.132 246.55 206.882C246.61 206.912 246.67 206.902 246.71 206.862C246.75 206.822 246.77 206.762 246.73 206.692C246.64 206.552 246.53 206.392 246.41 206.212C246.35 206.122 246.28 206.022 246.21 205.912C246.06 205.692 245.89 205.462 245.72 205.222C246.05 205.412 246.46 205.432 246.98 205.142C247.5 205.092 248.01 205.062 248.5 205.032C258.44 204.402 261.88 206.152 263.21 206.932C263.3 206.982 263.4 206.962 263.45 206.902C263.51 206.852 263.54 206.752 263.5 206.672C263.5 206.672 263.5 206.662 263.49 206.652C263.33 206.412 263.13 206.112 262.91 205.792C262.91 205.792 262.91 205.772 262.9 205.772C265.09 206.362 269.14 206.332 271.69 206.792C297.68 211.552 321.66 223.242 339.24 243.162V243.152Z" fill="#ED1B2F"/>
<path d="M246.761 206.782C246.761 206.782 246.741 206.842 246.721 206.862C246.741 206.842 246.751 206.812 246.761 206.782Z" fill="#ED1B2F"/>
<path d="M246.74 206.692C246.74 206.692 246.76 206.752 246.76 206.782C246.76 206.752 246.76 206.722 246.74 206.692C246.65 206.552 246.54 206.382 246.42 206.212C246.54 206.392 246.65 206.552 246.74 206.692Z" fill="#ED1B2F"/>
<path d="M263.471 206.892C263.411 206.952 263.321 206.982 263.231 206.922C261.901 206.132 258.461 204.392 248.521 205.022C258.701 204.332 262.341 206.052 263.481 206.892H263.471Z" fill="#ED1B2F"/>
<path d="M254.921 375.662H242.291L241.831 343.212L233.051 375.222L222.711 375.692L213.651 342.762C213.371 345.752 213.371 348.762 213.401 351.782L213.011 366.072V366.162C212.961 367.042 212.931 367.932 212.931 368.842V368.882L212.741 375.672H202.591L204.381 333.082H221.531L228.971 358.552L235.501 333.082H252.911L254.901 375.672L254.921 375.662Z" fill="#171D64"/>
<path d="M107.85 261.022C99.9303 257.112 82.6704 256.692 73.8404 257.562C73.2304 257.622 72.6604 257.562 72.3604 258.252C73.2904 262.742 76.5304 265.912 79.0304 269.542L79.4904 311.222H98.6604C99.2704 311.222 103.85 309.952 104.74 309.642C125.27 302.362 127.25 270.622 107.85 261.032V261.022ZM102.15 298.012C101.08 298.532 97.3804 299.942 96.4204 299.942H89.8804V269.292H97.3204C98.2004 269.292 101.82 270.922 102.81 271.472C112.54 276.922 112.2 293.132 102.16 298.012H102.15Z" fill="#171D64"/>
<path d="M311.591 255.952C276.261 256.512 281.511 319.072 316.721 311.462C345.321 305.282 341.441 255.482 311.591 255.952ZM311.961 300.432C295.421 300.772 294.501 269.722 310.281 267.612C328.211 265.212 329.861 300.062 311.961 300.432Z" fill="#171D64"/>
<path d="M224.25 258.032V311.212L221.75 310.792L192.24 283.502L190.89 282.832V311.222H179.62V258.042L182.13 258.472C191.72 266.522 200.28 275.892 209.83 283.962C210.67 284.672 211.91 285.772 213 285.982V258.042H224.27L224.25 258.032Z" fill="#171D64"/>
<path d="M277.46 281.472V306.482C254.69 321.512 229.75 304.782 234.76 277.772C238.51 257.542 260.2 251.092 277.02 260.732V273.802C274.48 271.382 271.48 269.552 268.1 268.522C238.57 259.532 238.38 307.602 266.65 299.952V292.512C266.65 289.952 262.69 283.812 261.24 281.472H277.47H277.46Z" fill="#171D64"/>
<path d="M424.7 299.952L425.38 300.632V311.222H392.91V258.042H427.63C427.69 260.812 425.98 264.892 423.98 266.792C423.63 267.132 420.84 268.862 420.64 268.862H404.18V278.782H422.22V289.602H404.18V299.972H424.7V299.952Z" fill="#171D64"/>
<path d="M323.69 375.662L304.98 350.872L305.87 375.662H295.05C295.6 368.352 295.43 339.332 294.63 333.072H306.21L322.55 354.922L322.1 333.072H332.48L332.92 375.662H323.67H323.69Z" fill="#171D64"/>
<path d="M149.81 258.742C148.94 257.532 146.78 258.052 145.41 258.102L120.99 311.652C129.02 311.372 135.66 306.792 138.19 299.102L138.8 298.992C142.73 299.552 146.69 300.002 150.43 301.392C158 304.202 164.1 311.292 172.85 311.652L149.82 258.732L149.81 258.742ZM142.63 289.132C141.95 288.482 146.99 279.142 147.15 277.412L153.91 292.282C150.2 291.152 146.6 289.242 142.64 289.132H142.63Z" fill="#171D64"/>
<path d="M288.84 366.202H273.86V358.312L274.54 357.632H286.94L287.39 349.062L273.86 349.522V341.412H287.5V333.082H260.7C260.18 333.562 260.79 333.842 260.79 333.982V375.672H288.27L288.84 366.212V366.202Z" fill="#171D64"/>
<path d="M197.55 366.202L196.86 375.662H169.24V333.972C169.24 333.832 169.09 333.562 168.95 333.072H195.7V341.402H182.31V349.512L195.84 349.052L195.38 357.622H182.3V366.192H197.53L197.55 366.202Z" fill="#171D64"/>
<path d="M383.89 258.032V268.852H368.56V311.212H357.28L356.83 268.852H341.5V258.032H383.89Z" fill="#171D64"/>
<path d="M164.28 363.952L163.78 374.712C150.27 379.162 134.58 376.312 131.5 360.442C127.32 338.882 143.77 326.712 163.79 333.802L163.38 344.572C161.37 343.702 160.05 342.232 157.7 341.912C147.22 340.462 143.85 348.252 144.89 357.422C145.98 367.032 157.32 369.002 164.28 363.952Z" fill="#171D64"/>
<path d="M369.011 341.862H359.091C359.311 350.942 359.071 360.072 359.071 369.152C359.071 371.532 358.871 372.982 358.871 375.672H346.021L346.471 341.872H336.551V333.542L337.001 333.092H369.461L369.021 341.872L369.011 341.862Z" fill="#171D64"/>
<path d="M296.571 190.762C288.121 187.512 280.351 181.482 275.031 174.162L270.091 165.672C270.021 165.552 269.831 165.602 269.841 165.742C269.921 167.852 269.601 170.142 269.811 172.172C269.841 172.472 270.461 173.032 270.291 173.662C270.271 173.712 270.221 173.752 270.161 173.762C267.931 173.962 266.021 172.552 264.191 171.512C264.181 171.512 264.171 171.502 264.161 171.492C263.991 171.302 262.201 169.372 261.511 168.642C261.421 168.552 261.271 168.622 261.281 168.742C261.951 176.612 261.181 183.992 258.431 191.452C257.271 194.612 254.761 197.372 255.411 201.112C255.411 201.172 255.461 201.212 255.521 201.222C257.031 201.502 258.781 202.062 260.121 202.892C260.251 202.972 260.371 203.052 260.491 203.132C261.371 203.742 262.651 205.582 262.901 205.752C262.911 205.762 262.921 205.772 262.941 205.782C263.161 206.112 263.361 206.402 263.521 206.642C263.521 206.642 263.521 206.652 263.531 206.662C263.571 206.752 263.541 206.842 263.481 206.892C263.421 206.952 263.331 206.982 263.241 206.922C261.911 206.132 258.471 204.392 248.531 205.022C248.041 205.052 247.531 205.092 247.011 205.132C247.191 205.032 247.381 204.892 247.591 204.712C248.001 204.362 248.401 203.232 248.891 202.632C249.341 202.082 250.371 201.822 250.661 201.252C252.051 198.502 248.751 194.552 247.511 192.232C247.511 192.232 247.511 192.222 247.511 192.212L245.251 186.052C245.201 185.912 245.011 185.942 244.991 186.082C244.331 192.252 237.731 195.262 237.371 201.092C237.371 201.172 237.431 201.232 237.511 201.232C239.431 201.142 241.671 201.702 243.351 202.782H243.361C244.101 203.142 245.021 204.212 245.761 205.222C245.941 205.462 246.101 205.692 246.251 205.912C246.321 206.012 246.391 206.112 246.451 206.212C246.571 206.392 246.681 206.552 246.771 206.692C246.791 206.722 246.791 206.752 246.791 206.782C246.791 206.812 246.771 206.842 246.751 206.862C246.711 206.902 246.651 206.912 246.591 206.882C245.291 206.142 241.431 204.522 233.711 205.792C233.321 205.862 232.921 205.932 232.511 206.012C232.271 206.062 232.031 206.102 231.781 206.162C231.561 206.212 231.331 206.252 231.101 206.312C230.681 206.402 230.241 206.512 229.801 206.622C229.741 206.642 229.671 206.622 229.641 206.562C228.271 204.212 232.471 202.282 232.771 201.402C233.871 198.202 230.381 193.782 231.241 190.242C231.281 190.102 231.091 190.022 231.001 190.132C229.511 192.092 228.401 194.372 226.311 195.842C221.551 199.172 208.911 195.902 204.121 192.562C204.041 192.512 204.051 192.392 204.121 192.342C205.231 191.642 212.291 189.222 213.621 188.572C221.911 184.542 229.501 177.512 232.401 168.582C232.651 167.812 234.821 160.412 233.151 160.242C233.101 160.242 233.051 160.262 233.021 160.312C231.571 162.682 231.011 165.482 229.431 167.862C227.201 171.212 222.881 174.532 219.031 175.942C218.941 175.972 218.841 175.892 218.851 175.802C218.971 174.792 220.461 170.412 219.201 169.322C219.151 169.272 219.061 169.292 219.011 169.352C212.041 178.602 201.691 186.262 190.791 190.302C190.671 190.352 190.571 190.222 190.621 190.112C195.191 181.372 198.441 172.162 199.451 162.292C199.461 162.182 199.351 162.102 199.251 162.162L195.601 164.192C195.511 164.242 195.411 164.192 195.401 164.092C194.331 153.482 197.801 141.142 205.111 133.182C211.441 126.292 220.231 124.152 225.461 133.332C225.491 133.382 225.481 133.452 225.441 133.492C218.761 140.432 223.621 151.382 233.631 147.642C233.701 147.612 233.731 147.532 233.711 147.462C231.561 141.612 231.501 135.442 235.481 130.332C235.521 130.282 235.521 130.202 235.481 130.162L231.871 126.352C231.781 126.252 231.871 126.092 232.011 126.132C236.601 127.562 238.131 125.162 241.781 123.382C244.791 121.922 249.301 120.162 252.231 122.592C253.261 123.452 253.311 124.552 254.071 125.272C254.561 125.742 255.381 125.662 255.881 126.272C256.741 127.322 257.411 131.642 255.881 131.142C252.631 128.542 249.081 130.952 247.821 134.312C247.781 134.402 247.871 134.502 247.961 134.492C255.491 133.762 259.341 140.942 260.351 147.452C260.361 147.532 260.441 147.582 260.511 147.562C266.451 146.342 266.321 137.502 262.301 133.842C262.251 133.802 262.241 133.742 262.271 133.682C263.941 130.302 268.171 127.622 271.871 127.312C287.511 125.982 296.691 151.312 294.671 164.072C294.661 164.162 294.551 164.212 294.471 164.162L290.781 162.112C290.691 162.062 290.581 162.122 290.581 162.232C290.321 172.002 293.281 181.562 296.781 190.562C296.831 190.672 296.721 190.782 296.611 190.742L296.571 190.762Z" fill="#171D64"/>
</g>
<defs>
<clipPath id="clip0_11_9681">
<rect width="355.26" height="255.2" fill="white" transform="translate(72.3701 121.402)"/>
</clipPath>
</defs>
</svg>
