<svg width="500" height="500" viewBox="0 0 500 500" fill="none" xmlns="http://www.w3.org/2000/svg">
<rect width="500" height="500" fill="white"/>
<g clip-path="url(#clip0_11_9746)">
<path d="M214.933 193.266C212.869 188.355 209.398 184.71 204.538 182.338C199.66 179.974 192.894 178.784 184.204 178.784H159.061V285.394H184.995C193.326 285.394 199.893 284.145 204.671 281.648C209.448 279.143 212.877 275.331 214.941 270.196C216.997 265.061 218.029 258.627 218.029 250.911V211.951C218.029 204.402 216.997 198.177 214.941 193.258L214.933 193.266ZM198.279 251.444C198.279 255.83 198.054 259.542 197.621 262.564C197.188 265.585 195.99 267.89 194.067 269.48C192.136 271.061 188.932 271.844 184.462 271.844H178.536V192.608H184.196C188.499 192.608 191.612 193.224 193.543 194.448C195.466 195.68 196.739 197.611 197.355 200.241C197.971 202.871 198.279 206.342 198.279 210.636V251.436V251.444Z" fill="black"/>
<path d="M271.854 178.792V239.6L245.928 178.792H232.361V285.402H248.949V221.697L275.009 285.402H287.918V178.792H271.854Z" fill="black"/>
<path d="M297.789 178.792V193.133H314.76V285.402H334.244V193.133H350.965V178.792H297.789Z" fill="black"/>
<path d="M406.63 232.884C409.959 231.569 412.573 229.704 414.462 227.282C416.343 224.877 417.683 221.956 418.474 218.535C419.265 215.106 419.656 211.252 419.656 206.941C419.656 199.841 418.357 194.223 415.777 190.095C413.189 185.967 409.418 183.054 404.458 181.339C399.489 179.633 393.421 178.776 386.23 178.776H360.695V285.385H380.18V236.554H380.221V224.311H380.18V192.084H387.287C392.822 192.084 396.568 193.424 398.54 196.104C400.513 198.776 401.503 202.796 401.503 208.148C401.503 211.918 401.029 215.014 400.055 217.428C399.089 219.833 397.491 221.598 395.253 222.688C393.014 223.787 390.009 224.336 386.239 224.336H385.839L389.135 236.579L392.065 247.649L402.036 285.41H421.52L406.647 232.892L406.63 232.884Z" fill="black"/>
<path d="M149.124 188.097H77.2129V193.499H149.124V188.097Z" fill="#FFE528"/>
<path d="M149.124 178.959H77.2129V188.564H149.124V178.959Z" fill="#D12C23"/>
<path d="M77.214 276.488H149.125V271.086H77.214V276.488Z" fill="#FFE528"/>
<path d="M77.214 285.627H149.125V276.022H77.214V285.627Z" fill="#D12C23"/>
<path d="M149.124 192.592H77.2129V231.843H149.124V192.592Z" fill="#1F1A17"/>
<path d="M149.124 231.369H77.2129V270.62H149.124V231.369Z" fill="#D12C23"/>
<path d="M95.3066 209.712V259.534L139.252 256.013L115.515 250.837L113.634 220.291L95.3066 209.712Z" fill="white"/>
<path d="M96.7227 205.959L116.224 219.118L119.511 249.197L136.432 249.663L122.807 205.484L96.7227 205.959Z" fill="white"/>
<path d="M422.785 312.485H77.2129V321.208H422.785V312.485Z" fill="#1B1617"/>
<path d="M422.785 303.854H77.2129V312.577H422.785V303.854Z" fill="#D12C23"/>
<path d="M422.785 295.706H77.2129V304.429H422.785V295.706Z" fill="#FFE528"/>
</g>
<defs>
<clipPath id="clip0_11_9746">
<rect width="345.572" height="142.415" fill="white" transform="translate(77.2129 178.792)"/>
</clipPath>
</defs>
</svg>
