<svg width="500" height="500" viewBox="0 0 500 500" fill="none" xmlns="http://www.w3.org/2000/svg">
<rect width="500" height="500" fill="white"/>
<g clip-path="url(#clip0_11_9620)">
<path d="M171.222 350.639C170.897 350.404 170.583 350.146 170.27 349.889C170.527 350.023 170.774 350.157 171.031 350.269C171.087 350.393 171.143 350.516 171.222 350.639Z" stroke="#28166F" stroke-width="1.12002" stroke-miterlimit="10"/>
<path d="M162.206 290.024C158.241 310.487 161.68 331.106 171.032 350.27C170.774 350.158 170.528 350.023 170.27 349.889C160.492 345.028 151.376 339.495 143.031 333.402C102.733 304.035 80.4112 261.934 88.4417 220.516C95.8115 182.513 127.071 153.538 169.509 139.605L197.901 163.899C158.622 178.548 130.017 206.515 123.017 242.647C120.273 256.815 121.079 271.073 124.943 284.872C125.436 286.619 128.001 286.193 127.945 284.39C127.721 277.782 128.236 271.129 129.513 264.487C137.319 224.245 171.905 194.128 218.196 181.27L248.739 207.411C203.535 220.594 169.889 250.409 162.206 290.024Z" fill="#28166F"/>
<path d="M337.792 209.976C341.757 189.513 338.319 168.894 328.967 149.73C329.224 149.842 329.471 149.977 329.728 150.111C339.506 154.972 348.623 160.505 356.967 166.598C397.265 195.965 419.587 238.066 411.557 279.485C404.187 317.487 372.927 346.462 330.49 360.395L302.097 336.101C341.376 321.452 369.982 293.485 376.982 257.353C379.726 243.185 378.919 228.927 375.055 215.128C374.563 213.381 371.998 213.807 372.054 215.61C372.278 222.218 371.762 228.871 370.486 235.513C362.679 275.755 328.093 305.872 281.803 318.73L251.26 292.589C296.464 279.406 330.109 249.591 337.792 209.976Z" fill="#84C125"/>
<path d="M171.222 350.639C170.897 350.404 170.583 350.146 170.27 349.889C170.527 350.023 170.774 350.157 171.031 350.269C171.087 350.393 171.143 350.516 171.222 350.639Z" stroke="#28166F" stroke-width="1.12002" stroke-miterlimit="10"/>
</g>
<defs>
<clipPath id="clip0_11_9620">
<rect width="326.362" height="220.789" fill="white" transform="translate(86.8184 139.605)"/>
</clipPath>
</defs>
</svg>
