<svg xmlns="http://www.w3.org/2000/svg" width="500" height="500" fill="none" viewBox="0 0 500 500"><path fill="#fff" d="M0 0h500v500H0z"/><g fill="#A44640" clip-path="url(#a)"><path d="M213.682 368.277c1.283-5.449 1.145-9.781.207-13.23a17.428 17.428 0 0 0-1.945-4.498 16.766 16.766 0 0 0-2.635-3.407c-1.931-1.89-4.001-3.201-5.628-4.042-1.628-.828-2.787-1.159-2.787-1.159-2.842 6.856-1.697 12.526.359 16.21a19.72 19.72 0 0 0 3.117 4.276c.938.939 1.628 1.408 1.628 1.408s-1.724-.87-4.166-1.711c-2.442-.828-5.725-1.435-8.802-.993-6.787 1.034-10.236 3.504-10.236 3.504s.566 2.055 2.483 4.387c1.89 2.373 5.298 4.856 10.65 5.684 5.408.703 9.85-.883 12.927-2.677 3.09-1.807 4.828-3.752 4.828-3.752Z"/><path d="M190.45 359.627c3.228-1.531 5.118-3.311 5.118-3.311 3.504-10.678.911-17.258-2.524-21.425-1.697-2.11-3.711-3.517-5.229-4.497-1.517-.979-2.649-1.421-2.649-1.421-1.738 3.311-2.455 6.388-2.51 9.133a17.606 17.606 0 0 0 1.407 7.049 17.189 17.189 0 0 0 2.745 4.512c.855 1.02 1.49 1.559 1.49 1.559s-1.614-1.063-4.015-2.042c-2.372-1.021-5.504-2.014-8.691-1.766-3.449.248-6.042.828-7.822 1.421-1.766.579-2.676 1.117-2.676 1.117s.358 2.111 2.069 4.636c.855 1.255 2.097 2.552 3.739 3.738 1.655 1.187 3.738 2.249 6.415 2.828 2.662.607 5.118.607 7.325.276a22.338 22.338 0 0 0 5.794-1.821l.014.014Z"/><path d="M173.165 345.694c3.339-1.214 5.38-2.829 5.38-2.829 2.249-5.173 2.87-9.477 2.525-12.995-.345-3.518-1.518-6.387-3.076-8.567-1.518-2.221-3.284-3.877-4.746-4.953-1.462-1.062-2.497-1.642-2.497-1.642-4.153 6.278-3.904 11.892-2.649 15.99 1.352 4.014 3.656 6.428 3.656 6.428s-1.49-1.214-3.78-2.428c-2.318-1.186-5.325-2.483-8.484-2.566-3.449-.082-6.167.318-7.96.69-1.808.4-2.76.842-2.76.842s.042.538.263 1.421c.206.883.634 2.083 1.393 3.393 1.504 2.635 4.332 5.836 9.533 7.533 5.132 1.766 9.905.841 13.216-.345l-.014.028Z"/><path d="M157.203 330.215c3.477-.925 5.656-2.332 5.656-2.332 1.352-2.469 2.263-4.732 2.856-6.829.607-2.124.883-4.069.897-5.835.027-1.78-.235-3.366-.621-4.829a16.272 16.272 0 0 0-1.559-3.959 23.989 23.989 0 0 0-4.194-5.366c-1.31-1.228-2.318-1.863-2.318-1.863-2.359 2.883-3.655 5.725-4.249 8.388a17.306 17.306 0 0 0-.427 3.835c.027 1.2.179 2.318.4 3.352a20.18 20.18 0 0 0 1.807 4.967c.648 1.159 1.186 1.793 1.186 1.793s-1.434-1.296-3.545-2.773c-2.111-1.476-5.118-2.952-8.195-3.421-3.407-.455-6.125-.372-7.987-.152-1.863.221-2.87.566-2.87.566s-.041 2.138 1.187 4.953c1.172 2.841 3.793 6.235 8.746 8.539 5.063 2.18 9.754 1.862 13.216.952l.014.014Z"/><path d="M142.869 313.164c3.532-.538 5.849-1.725 5.849-1.725 6.374-9.256 5.85-16.196 3.877-21.107-.952-2.469-2.456-4.359-3.532-5.739-1.131-1.366-2.041-2.111-2.041-2.111-2.691 2.58-4.332 5.257-5.243 7.85-.897 2.566-.993 4.994-.814 7.119.18 2.138.731 3.904 1.269 5.118.525 1.228.966 1.931.966 1.931s-1.241-1.476-3.256-3.118c-1.931-1.696-4.649-3.573-7.767-4.318-3.324-.855-6.014-1.103-7.891-1.117-1.876 0-2.911.207-2.911.207s-.289 2.138.58 5.118c.414 1.504 1.228 3.132 2.469 4.801 1.269 1.642 2.925 3.352 5.353 4.718a19.748 19.748 0 0 0 6.981 2.456c2.234.317 4.331.193 6.097-.069l.014-.014Z"/><path d="M136.413 293.601c3.739-4.249 5.67-8.112 6.457-11.492.882-3.435.648-6.429-.069-8.939-.621-2.553-1.766-4.622-2.76-6.07-.924-1.477-1.71-2.332-1.71-2.332-6.112 4.428-7.781 9.767-7.946 14.044-.069 2.125.331 3.918.675 5.215.359 1.283.704 2.042.704 2.042s-1.035-1.628-2.814-3.518c-1.849-1.849-4.167-4.125-7.174-5.256-3.283-1.228-5.863-1.863-7.726-2.125-1.848-.262-2.897-.179-2.897-.179s-.607 2.11-.096 5.201c.621 3.007 2.18 7.146 6.649 10.484 4.346 3.422 9.174 4.056 12.706 3.96 3.559-.125 5.987-1.021 5.987-1.021l.014-.014Z"/><path d="M120.272 274.646c1.752.18 3.297.097 4.387 0 1.09-.11 1.724-.262 1.724-.262 8.402-7.477 9.685-14.195 9.05-19.341-.358-2.566-1.062-4.773-1.862-6.332-.787-1.559-1.407-2.525-1.407-2.525-3.353 1.752-5.588 3.863-7.119 6.098-1.504 2.221-2.4 4.566-2.704 6.649a19.248 19.248 0 0 0-.055 5.256c.166 1.325.414 2.125.414 2.125l-.593-1.145a29.688 29.688 0 0 0-1.697-2.732 26.12 26.12 0 0 0-2.759-3.297c-1.035-1.104-2.249-2.124-3.629-2.911a36.705 36.705 0 0 0-7.38-3.2c-1.78-.538-2.828-.607-2.828-.607s-.221.51-.442 1.407c-.248.91-.4 2.193-.331 3.752a17.592 17.592 0 0 0 1.118 5.394c.772 1.959 2.11 4.015 4.028 6.029 1.89 2.014 4.125 3.311 6.208 4.18a20.83 20.83 0 0 0 5.877 1.476v-.014Z"/><path d="M112.905 253.429c3.504.827 6.098.593 6.098.593 2.345-1.545 4.221-3.118 5.711-4.663 1.559-1.559 2.731-3.118 3.614-4.622a17.384 17.384 0 0 0 1.808-4.401c.413-1.42.607-2.786.634-4.069 0-2.552-.4-4.829-.883-6.484-.496-1.656-1.034-2.677-1.034-2.677-3.505 1.214-6.07 2.953-7.947 4.925a16.731 16.731 0 0 0-2.317 3.063c-.58 1.035-.994 2.083-1.325 3.09a20.222 20.222 0 0 0-.896 5.201c.013 1.325.179 2.139.179 2.139s-.649-1.821-1.738-4.153c-1.118-2.331-2.994-5.118-5.394-7.105-2.691-2.152-5.091-3.504-6.802-4.304-1.724-.8-2.745-1.035-2.745-1.035s-.304.47-.62 1.325a14.995 14.995 0 0 0-.884 3.683c-.151 1.559-.248 3.463.29 5.532.524 2.07 1.476 4.332 3.063 6.608 3.421 4.512 7.684 6.54 11.188 7.367v-.013Z"/><path d="M103.497 228.155c1.724 1.462 3.614 2.456 5.269 3.132 3.325 1.365 5.919 1.517 5.919 1.517 10.181-4.732 13.354-10.678 14.347-15.699.511-2.511.262-4.829.138-6.539-.193-1.711-.552-2.815-.552-2.815-3.669.649-6.497 1.959-8.691 3.615-2.18 1.641-3.532 3.614-4.525 5.504-.993 1.89-1.49 3.684-1.655 4.994-.193 1.311-.18 2.138-.18 2.138s-.303-1.903-1.117-4.373c-.717-2.469-2.014-5.518-4.235-7.863-2.29-2.539-4.415-4.263-5.974-5.312-1.559-1.062-2.538-1.448-2.538-1.448s-1.421 1.655-2.332 4.704c-.496 1.518-.69 3.38-.524 5.518.207 2.125.62 4.525 2 7.022 1.325 2.511 2.953 4.429 4.663 5.891l-.013.014Z"/><path d="M108.077 208.772c3.049 1.863 5.573 2.428 5.573 2.428 5.45-1.531 9.188-3.656 11.699-5.987 2.635-2.332 4.139-4.87 4.911-7.298.938-2.414 1.173-4.718 1.173-6.456-.014-.869 0-1.587-.042-2.084a9.794 9.794 0 0 0-.069-.786c-7.587.124-11.878 3.573-14.499 6.995-2.414 3.448-2.911 6.773-2.911 6.773s.056-1.917-.372-4.483c-.497-2.58-1.118-5.767-2.952-8.416a43.75 43.75 0 0 0-2.828-3.697 28.398 28.398 0 0 0-2.318-2.469c-1.352-1.27-2.263-1.808-2.263-1.808s-.427.345-1.021 1.063c-.593.703-1.407 1.765-2 3.2-1.228 2.856-2.304 7.202-.455 12.582 1.655 5.339 5.38 8.595 8.374 10.457v-.014Z"/><path d="M110.836 186.423c2.773 2.318 5.215 3.269 5.215 3.269 5.504-.689 9.588-2.221 12.512-4.138a17.462 17.462 0 0 0 3.573-3.146 16.463 16.463 0 0 0 2.401-3.393 17.111 17.111 0 0 0 1.338-3.367c.345-1.062.552-2.055.703-2.91.318-1.711.29-2.87.29-2.87-7.394-.924-12.416 1.78-15.285 4.856a19.358 19.358 0 0 0-3.118 4.263c-.593 1.186-.8 2-.8 2s.234-1.917.303-4.497c.042-2.58-.372-5.905-1.724-8.76-1.518-3.132-3.008-5.381-4.208-6.843-1.173-1.462-1.987-2.111-1.987-2.111s-1.876 1.145-3.6 3.78c-1.752 2.622-3.104 6.815-2.29 12.306 1.021 5.546 4.014 9.285 6.704 11.575l-.027-.014Z"/><path d="M121.583 168.751c11.243.248 16.734-3.739 19.824-7.946a21.078 21.078 0 0 0 2.966-5.96c.552-1.669.704-2.828.704-2.828-7.215-1.904-12.526.096-15.879 2.69-3.38 2.594-4.759 5.642-4.759 5.642s.579-1.834.924-4.4c.359-2.566.51-5.864-.441-8.899-1.063-3.297-2.249-5.725-3.229-7.339-.979-1.614-1.696-2.359-1.696-2.359s-2.001.869-4.056 3.214c-2.042 2.332-4.125 6.208-4.001 11.81.152 5.587 2.607 9.725 4.98 12.402 2.359 2.676 4.635 3.973 4.635 3.973h.028Z"/><path d="M130.081 148.83c11.091 1.821 17.106-1.449 20.748-5.229 1.794-1.903 2.994-3.945 3.753-5.545.758-1.587 1.076-2.718 1.076-2.718-6.926-2.828-12.444-1.532-16.114.607-3.683 2.124-5.477 4.966-5.477 4.966s.814-1.752 1.518-4.235c.69-2.497 1.297-5.739.731-8.871-.607-3.407-1.49-5.973-2.235-7.684-.758-1.71-1.379-2.566-1.379-2.566s-2.097.607-4.429 2.649c-2.331 2.028-4.897 5.587-5.49 11.119-.594 5.532 1.296 9.961 3.269 12.927 1.973 2.98 4.042 4.58 4.042 4.58h-.013ZM280.163 395.621c-13.975-3.574-33.22-11.961-47.236-18.569.524-4.787 0-8.581-1.104-11.561-1.241-3.325-3.145-5.794-5.242-7.491a20.94 20.94 0 0 0-5.946-3.559c-1.711-.649-2.869-.939-2.869-.939-2.304 7.188-.552 12.527 1.724 16.155 2.345 3.532 5.215 5.256 5.215 5.256s-1.766-.786-4.291-1.365c-2.538-.539-5.794-1.008-8.857-.249-3.338.842-5.835 1.932-7.463 2.787-1.628.869-2.428 1.559-2.428 1.559s.179.51.621 1.283c.427.786 1.145 1.835 2.221 2.897 2.124 2.124 5.656 4.442 11.092 4.718 5.394.359 9.753-1.752 12.65-3.752a23.933 23.933 0 0 0 3.146-2.622c14.168 6.884 32.64 18.652 46.85 22.294l1.931-6.842h-.014Z"/><path d="M160.955 98.062c-30.378 10.788-19.962 30.888-19.962 30.888 27.771-6.139 19.962-30.888 19.962-30.888ZM286.316 368.277c-1.283-5.449-1.145-9.781-.206-13.23a17.394 17.394 0 0 1 1.945-4.498 16.766 16.766 0 0 1 2.635-3.407c1.931-1.89 4-3.201 5.628-4.042 1.628-.828 2.787-1.159 2.787-1.159 2.842 6.856 1.697 12.526-.359 16.21a19.72 19.72 0 0 1-3.117 4.276c-.939.939-1.628 1.408-1.628 1.408s1.724-.87 4.166-1.711c2.442-.828 5.725-1.435 8.802-.993 6.787 1.034 10.236 3.504 10.236 3.504s-.566 2.055-2.483 4.387c-1.89 2.373-5.298 4.856-10.651 5.684-5.407.703-9.85-.883-12.926-2.677-3.09-1.807-4.829-3.752-4.829-3.752Z"/><path d="M309.548 359.627c-3.228-1.531-5.118-3.311-5.118-3.311-3.504-10.678-.911-17.258 2.525-21.425 1.696-2.11 3.711-3.517 5.228-4.497 1.518-.979 2.649-1.421 2.649-1.421 1.738 3.311 2.456 6.388 2.511 9.133a17.64 17.64 0 0 1-1.407 7.049 17.161 17.161 0 0 1-2.746 4.512c-.855 1.02-1.49 1.559-1.49 1.559s1.614-1.063 4.015-2.042c2.373-1.021 5.504-2.014 8.691-1.766 3.449.248 6.043.828 7.822 1.421 1.766.579 2.677 1.117 2.677 1.117s-.359 2.111-2.07 4.636c-.855 1.255-2.097 2.552-3.738 3.738-1.656 1.187-3.739 2.249-6.415 2.828a19.594 19.594 0 0 1-7.326.276 22.338 22.338 0 0 1-5.794-1.821l-.014.014Z"/><path d="M326.835 345.694c-3.339-1.214-5.381-2.829-5.381-2.829-2.248-5.173-2.869-9.477-2.524-12.995.345-3.518 1.517-6.387 3.076-8.567 1.518-2.221 3.284-3.877 4.746-4.953 1.462-1.062 2.497-1.642 2.497-1.642 4.152 6.278 3.904 11.892 2.649 15.99-1.352 4.014-3.656 6.428-3.656 6.428s1.49-1.214 3.78-2.428c2.317-1.186 5.325-2.483 8.484-2.566 3.449-.082 6.167.318 7.96.69 1.807.4 2.759.842 2.759.842s-.041.538-.262 1.421c-.207.883-.634 2.083-1.393 3.393-1.504 2.635-4.332 5.836-9.533 7.533-5.132 1.766-9.905.841-13.216-.345l.014.028Z"/><path d="M342.782 330.215c-3.477-.925-5.657-2.332-5.657-2.332-1.351-2.469-2.262-4.732-2.855-6.829-.607-2.124-.883-4.069-.897-5.835-.028-1.78.235-3.366.621-4.829.372-1.476.91-2.8 1.559-3.959a23.989 23.989 0 0 1 4.194-5.366c1.31-1.228 2.317-1.863 2.317-1.863 2.359 2.883 3.656 5.725 4.249 8.388a17.25 17.25 0 0 1 .428 3.835 17.998 17.998 0 0 1-.4 3.352 20.18 20.18 0 0 1-1.807 4.967c-.649 1.159-1.187 1.793-1.187 1.793s1.435-1.296 3.546-2.773c2.111-1.476 5.118-2.952 8.194-3.421 3.408-.455 6.126-.372 7.988-.152 1.863.221 2.87.566 2.87.566s.041 2.138-1.187 4.953c-1.172 2.841-3.794 6.235-8.746 8.539-5.063 2.18-9.754 1.862-13.216.952l-.014.014Z"/><path d="M357.129 313.164c-3.532-.538-5.849-1.725-5.849-1.725-6.374-9.256-5.85-16.196-3.877-21.107.952-2.469 2.456-4.359 3.532-5.739 1.131-1.366 2.042-2.111 2.042-2.111 2.69 2.58 4.331 5.257 5.242 7.85.897 2.566.993 4.994.814 7.119-.18 2.138-.731 3.904-1.269 5.118-.525 1.228-.966 1.931-.966 1.931s1.242-1.476 3.256-3.118c1.931-1.696 4.649-3.573 7.767-4.318 3.324-.855 6.015-1.103 7.891-1.117 1.876 0 2.911.207 2.911.207s.289 2.138-.58 5.118c-.414 1.504-1.228 3.132-2.469 4.801-1.269 1.642-2.925 3.352-5.353 4.718a19.748 19.748 0 0 1-6.981 2.456c-2.234.317-4.331.193-6.097-.069l-.014-.014Z"/><path d="M363.586 293.601c-3.739-4.249-5.67-8.112-6.456-11.492-.883-3.435-.649-6.429.069-8.939.62-2.553 1.765-4.622 2.759-6.07.924-1.477 1.71-2.332 1.71-2.332 6.112 4.428 7.781 9.767 7.947 14.044.069 2.125-.331 3.918-.676 5.215-.359 1.283-.704 2.042-.704 2.042s1.035-1.628 2.814-3.518c1.849-1.849 4.167-4.125 7.174-5.256 3.283-1.228 5.863-1.863 7.726-2.125 1.848-.262 2.897-.179 2.897-.179s.607 2.11.096 5.201c-.621 3.007-2.179 7.146-6.649 10.484-4.346 3.422-9.174 4.056-12.706 3.96-3.559-.125-5.987-1.021-5.987-1.021l-.014-.014Z"/><path d="M379.727 274.646c-1.752.18-3.297.097-4.387 0-1.09-.11-1.725-.262-1.725-.262-8.401-7.477-9.684-14.195-9.05-19.341.359-2.566 1.063-4.773 1.863-6.332.786-1.559 1.407-2.525 1.407-2.525 3.352 1.752 5.587 3.863 7.118 6.098 1.504 2.221 2.401 4.566 2.704 6.649.318 2.083.221 3.932.056 5.256-.166 1.325-.414 2.125-.414 2.125s.22-.428.593-1.145a29.47 29.47 0 0 1 1.697-2.732 26.12 26.12 0 0 1 2.759-3.297c1.035-1.104 2.249-2.124 3.628-2.911a36.733 36.733 0 0 1 7.381-3.2c1.779-.538 2.828-.607 2.828-.607s.221.51.441 1.407c.249.91.4 2.193.331 3.752a17.587 17.587 0 0 1-1.117 5.394c-.773 1.959-2.111 4.015-4.028 6.029-1.89 2.014-4.125 3.311-6.208 4.18a20.83 20.83 0 0 1-5.877 1.476v-.014Z"/><path d="M387.094 253.429c-3.504.827-6.098.593-6.098.593-2.345-1.545-4.221-3.118-5.711-4.663-1.559-1.559-2.732-3.118-3.615-4.622a17.379 17.379 0 0 1-1.807-4.401 15.694 15.694 0 0 1-.634-4.069c0-2.552.4-4.829.882-6.484.497-1.656 1.035-2.677 1.035-2.677 3.504 1.214 6.07 2.953 7.946 4.925.938.98 1.697 2.015 2.318 3.063.579 1.035.993 2.083 1.324 3.09.635 2.015.842 3.863.897 5.201-.014 1.325-.179 2.139-.179 2.139s.648-1.821 1.738-4.153c1.118-2.331 2.994-5.118 5.394-7.105 2.69-2.152 5.091-3.504 6.801-4.304 1.725-.8 2.746-1.035 2.746-1.035s.303.47.621 1.325c.331.855.703 2.111.882 3.683.152 1.559.249 3.463-.289 5.532-.524 2.07-1.476 4.332-3.063 6.608-3.421 4.512-7.684 6.54-11.188 7.367v-.013Z"/><path d="M396.502 228.155c-1.725 1.462-3.615 2.456-5.27 3.132-3.325 1.365-5.919 1.517-5.919 1.517-10.181-4.732-13.354-10.678-14.347-15.699-.511-2.511-.262-4.829-.138-6.539.193-1.711.552-2.815.552-2.815 3.669.649 6.498 1.959 8.691 3.615 2.18 1.641 3.532 3.614 4.525 5.504.993 1.89 1.49 3.684 1.655 4.994.194 1.311.18 2.138.18 2.138s.303-1.903 1.117-4.373c.718-2.469 2.014-5.518 4.236-7.863 2.29-2.539 4.414-4.263 5.973-5.312 1.559-1.062 2.538-1.448 2.538-1.448s1.421 1.655 2.332 4.704c.497 1.518.69 3.38.524 5.518-.207 2.125-.621 4.525-2 7.022-1.325 2.511-2.952 4.429-4.663 5.891l.014.014Z"/><path d="M391.922 208.772c-3.048 1.863-5.573 2.428-5.573 2.428-5.449-1.531-9.188-3.656-11.699-5.987-2.635-2.332-4.138-4.87-4.911-7.298-.938-2.414-1.173-4.718-1.173-6.456.014-.869 0-1.587.042-2.084.027-.496.069-.786.069-.786 7.587.124 11.878 3.573 14.499 6.995 2.414 3.448 2.911 6.773 2.911 6.773s-.055-1.917.372-4.483c.497-2.58 1.118-5.767 2.953-8.416a43.333 43.333 0 0 1 2.828-3.697 28.252 28.252 0 0 1 2.317-2.469c1.352-1.27 2.263-1.808 2.263-1.808s.428.345 1.021 1.063c.593.703 1.407 1.765 2 3.2 1.228 2.856 2.304 7.202.455 12.582-1.655 5.339-5.38 8.595-8.374 10.457v-.014Z"/><path d="M389.163 186.423c-2.773 2.318-5.215 3.269-5.215 3.269-5.504-.689-9.588-2.221-12.513-4.138-1.462-.966-2.593-2.028-3.573-3.146a16.457 16.457 0 0 1-2.4-3.393 17.05 17.05 0 0 1-1.338-3.367 21.453 21.453 0 0 1-.704-2.91c-.317-1.711-.29-2.87-.29-2.87 7.395-.924 12.417 1.78 15.286 4.856a19.424 19.424 0 0 1 3.118 4.263c.593 1.186.8 2 .8 2s-.235-1.917-.303-4.497c-.042-2.58.372-5.905 1.724-8.76 1.517-3.132 3.007-5.381 4.208-6.843 1.172-1.462 1.986-2.111 1.986-2.111s1.876 1.145 3.601 3.78c1.752 2.622 3.104 6.815 2.29 12.306-1.021 5.546-4.015 9.285-6.705 11.575l.028-.014Z"/><path d="M378.416 168.751c-11.244.248-16.734-3.739-19.824-7.946a21.111 21.111 0 0 1-2.967-5.96c-.551-1.669-.703-2.828-.703-2.828 7.215-1.904 12.526.096 15.879 2.69 3.38 2.594 4.759 5.642 4.759 5.642s-.579-1.834-.924-4.4c-.359-2.566-.511-5.864.441-8.899 1.063-3.297 2.249-5.725 3.229-7.339.979-1.614 1.696-2.359 1.696-2.359s2.001.869 4.056 3.214c2.042 2.332 4.125 6.208 4.001 11.81-.152 5.587-2.607 9.725-4.98 12.402-2.359 2.676-4.636 3.973-4.636 3.973h-.027Z"/><path d="M369.918 148.83c-11.092 1.821-17.107-1.449-20.749-5.229-1.793-1.903-2.993-3.945-3.752-5.545-.759-1.587-1.076-2.718-1.076-2.718 6.925-2.828 12.444-1.532 16.113.607 3.684 2.124 5.477 4.966 5.477 4.966s-.814-1.752-1.518-4.235c-.689-2.497-1.296-5.739-.731-8.871.607-3.407 1.49-5.973 2.235-7.684.759-1.71 1.38-2.566 1.38-2.566s2.097.607 4.428 2.649c2.332 2.028 4.898 5.587 5.491 11.119s-1.297 9.961-3.27 12.927c-1.972 2.98-4.042 4.58-4.042 4.58h.014ZM219.835 395.621c13.975-3.574 33.22-11.961 47.236-18.569-.524-4.787 0-8.581 1.104-11.561 1.242-3.325 3.145-5.794 5.242-7.491a20.94 20.94 0 0 1 5.946-3.559c1.711-.649 2.87-.939 2.87-.939 2.304 7.188.552 12.527-1.725 16.155-2.345 3.532-5.214 5.256-5.214 5.256s1.765-.786 4.29-1.365c2.538-.539 5.794-1.008 8.857-.249 3.338.842 5.835 1.932 7.463 2.787 1.628.869 2.428 1.559 2.428 1.559s-.179.51-.621 1.283c-.427.786-1.145 1.835-2.221 2.897-2.124 2.124-5.656 4.442-11.091 4.718-5.394.359-9.754-1.752-12.651-3.752a23.848 23.848 0 0 1-3.145-2.622c-14.168 6.884-32.641 18.652-46.85 22.294l-1.932-6.842h.014Z"/><path d="M339.043 98.062c30.378 10.788 19.962 30.888 19.962 30.888-27.77-6.125-19.962-30.888-19.962-30.888ZM320.888 278.15H172.833v8.678h148.055v-8.678ZM245.661 309.26a52.24 52.24 0 0 1-16.762-2.746l-3.67-1.241c-8.236-2.787-17.01-3.049-25.411-.787l-9.436 2.553-2.263-8.374 9.436-2.553a52.242 52.242 0 0 1 30.461.938l3.67 1.242c9.284 3.145 19.493 3.049 28.722-.262l3.849-1.38a52.18 52.18 0 0 1 29.426-1.724l11.768 2.718-1.945 8.456-11.768-2.717c-8.167-1.89-16.651-1.38-24.542 1.434l-3.849 1.38c-5.684 2.042-11.671 3.049-17.659 3.049l-.027.014Z"/><path d="M246.833 324.297a52.24 52.24 0 0 1-16.762-2.746l-3.669-1.241c-8.236-2.787-17.01-3.049-25.412-.787l-2.276-8.374a52.234 52.234 0 0 1 30.461.939l3.669 1.241c9.285 3.146 19.494 3.049 28.723-.262l3.849-1.379a52.181 52.181 0 0 1 29.426-1.725l-1.945 8.457a43.507 43.507 0 0 0-24.543 1.435l-3.849 1.379a52.596 52.596 0 0 1-17.658 3.049l-.014.014Z"/><path d="M246.612 338.175c-5.67 0-11.354-.91-16.761-2.745l-3.67-1.242a43.382 43.382 0 0 0-12.651-2.276l.262-8.677a52.579 52.579 0 0 1 15.162 2.731l3.669 1.242c9.285 3.145 19.48 3.049 28.723-.248l3.849-1.38a52.263 52.263 0 0 1 14.582-2.98l.51 8.664a43.694 43.694 0 0 0-12.167 2.483l-3.849 1.38a52.597 52.597 0 0 1-17.659 3.048ZM278.646 177.138h-64.577c-8.54 0-15.479-6.939-15.479-15.478v-48.644c0-8.539 6.939-15.478 15.479-15.478h65.556c8.54 0 15.479 6.939 15.479 15.478v13.713h-15.63v-13.561h-65.267v48.354h64.287v-12.568H247.44v-15.631h31.192c8.54 0 15.479 6.94 15.479 15.479v12.858c0 8.539-6.939 15.478-15.479 15.478h.014ZM278.646 267.197h-64.577c-8.54 0-15.479-6.94-15.479-15.479v-48.644c0-8.539 6.939-15.478 15.479-15.478h65.556c8.54 0 15.479 6.939 15.479 15.478v13.713h-15.63v-13.561h-65.267v48.354h64.287v-12.568H247.44v-15.63h31.192c8.54 0 15.479 6.939 15.479 15.478v12.858c0 8.539-6.939 15.479-15.479 15.479h.014Z"/></g><defs><clipPath id="a"><path fill="#fff" d="M96.778 97.538h306.443v304.925H96.778z"/></clipPath></defs></svg>