<svg xmlns="http://www.w3.org/2000/svg" width="500" height="500" fill="none" viewBox="0 0 500 500"><path fill="#fff" d="M0 0h500v500H0z"/><g clip-path="url(#a)"><path fill="#D13833" d="m430.404 268.216-20.717 71.314s-57.614-21.78-155.636-21.78c-107.148 0-165.472 18.626-165.472 18.626l-18.981-70.623s53.061-18.739 163.68-20.568l-43.505-43.878 60.247-60.246 60.601 60.414-42.516 43.748c101.418 2.183 162.299 22.993 162.299 22.993Z"/><path fill="#B19A59" d="M138.205 348.694h12.038v2.576h-9.014v15.659h-3.024v-18.235Zm1.624 7.764h9.649v2.576h-9.649v-2.576ZM153.902 348.694h3.023v15.659h8.66v2.576h-11.683v-18.235ZM171.426 366.07a8.37 8.37 0 0 1-3.303-3.341c-.803-1.437-1.213-3.117-1.213-5.039 0-1.904.41-3.546 1.231-4.984.822-1.418 1.942-2.519 3.341-3.284 1.4-.766 2.931-1.139 4.573-1.139 1.642 0 3.191.373 4.591 1.139 1.4.765 2.501 1.847 3.322 3.266.822 1.418 1.232 3.079 1.232 4.983 0 1.922-.41 3.583-1.232 5.039-.821 1.456-1.922 2.576-3.322 3.341-1.4.784-2.93 1.176-4.591 1.176s-3.229-.392-4.629-1.176v.019Zm7.69-2.352c.914-.56 1.623-1.362 2.146-2.408.523-1.045.765-2.239.765-3.602 0-1.362-.261-2.538-.784-3.564-.522-1.008-1.231-1.792-2.146-2.352-.914-.56-1.922-.821-3.042-.821-1.12 0-2.146.28-3.042.821-.896.541-1.624 1.325-2.147 2.352-.522 1.007-.783 2.183-.783 3.527 0 1.362.261 2.557.783 3.602.523 1.045 1.232 1.848 2.147 2.426.896.579 1.922.859 3.042.859 1.12 0 2.146-.28 3.061-.84ZM192.329 366.35a6.276 6.276 0 0 1-2.594-2.576c-.616-1.119-.933-2.501-.933-4.087v-10.993h3.023v10.844c0 1.045.187 1.941.542 2.706.373.765.877 1.325 1.53 1.736.653.392 1.419.597 2.296.597.877 0 1.661-.187 2.314-.579.653-.392 1.157-.952 1.53-1.698.374-.747.542-1.642.542-2.688v-10.899h3.023v10.974c0 1.586-.317 2.949-.933 4.069a6.304 6.304 0 0 1-2.613 2.613c-1.12.597-2.407.895-3.863.895s-2.744-.298-3.864-.895v-.019ZM208.231 348.694h7.95c1.363 0 2.501.243 3.416.709.914.467 1.605 1.101 2.053 1.923.448.802.672 1.735.672 2.781 0 1.418-.355 2.556-1.083 3.434-.728.877-1.642 1.455-2.781 1.754v.056l4.33 7.615h-3.471l-3.808-6.85c-.112-.186-.186-.317-.28-.373-.074-.056-.242-.075-.485-.075h-4.89v-2.557h6.029c1.12 0 1.959-.261 2.519-.783.56-.523.859-1.232.859-2.109 0-.915-.299-1.624-.877-2.128-.579-.523-1.419-.784-2.52-.784h-4.685v15.659h-2.967v-18.235l.019-.037ZM233.595 348.694h5.002l5.319 15.92h-.728l5.319-15.92h4.852v18.235h-2.892v-17.563h.504l-5.936 17.563h-3.079l-5.972-17.563h.522v17.563h-2.893v-18.235h-.018ZM258.157 348.694h3.023v18.235h-3.023v-18.235ZM266.014 348.694h3.024v15.659h8.66v2.576h-11.684v-18.235ZM281.038 348.694h3.023v15.659h8.66v2.576h-11.683v-18.235ZM297.127 365.715c-1.363-1.026-2.128-2.501-2.277-4.461h2.948c.15 1.12.635 1.96 1.456 2.557.821.598 1.829.878 3.024.878.746 0 1.418-.112 2.034-.318.616-.224 1.083-.522 1.437-.933.355-.411.523-.896.523-1.456 0-.728-.318-1.287-.971-1.735-.653-.448-1.586-.803-2.799-1.064l-1.904-.411c-1.736-.392-3.042-.989-3.901-1.81-.858-.821-1.288-1.904-1.288-3.21 0-1.064.299-1.997.896-2.819.598-.821 1.4-1.474 2.427-1.922 1.007-.467 2.127-.69 3.34-.69 1.904 0 3.491.485 4.741 1.455 1.25.971 1.96 2.315 2.146 4.032h-2.949c-.13-.896-.559-1.624-1.25-2.147-.691-.522-1.586-.802-2.688-.802-.671 0-1.306.112-1.866.336a3.606 3.606 0 0 0-1.362.933c-.355.392-.504.858-.504 1.362 0 .691.242 1.195.709 1.568.485.373 1.25.653 2.333.877l2.184.467c1.81.373 3.21 1.008 4.199 1.848.989.858 1.493 1.978 1.493 3.396 0 1.232-.317 2.24-.971 3.08-.653.84-1.511 1.474-2.575 1.885a9.43 9.43 0 0 1-3.434.634c-2.072 0-3.789-.503-5.151-1.53ZM320.213 348.694h6.981c1.418 0 2.631.224 3.602.691.989.466 1.717 1.119 2.221 1.978s.746 1.866.746 3.005c0 1.213-.261 2.221-.765 3.098-.504.859-1.269 1.53-2.258 1.997-.989.467-2.184.709-3.602.709H323.2v6.775h-3.024v-18.234l.037-.019Zm9.538 8.044c.634-.56.97-1.325.97-2.314 0-.989-.317-1.736-.97-2.314-.654-.56-1.568-.84-2.744-.84h-3.751v6.308h3.751c1.194 0 2.128-.28 2.762-.84h-.018ZM337.197 348.694h3.024v15.659h8.66v2.576h-11.684v-18.235ZM354.666 366.07c-1.362-.784-2.445-1.885-3.247-3.341-.803-1.437-1.214-3.117-1.214-5.039 0-1.904.411-3.546 1.232-4.984.821-1.418 1.904-2.519 3.266-3.284 1.363-.766 2.819-1.139 4.405-1.139 1.4 0 2.688.261 3.863.784 1.157.523 2.128 1.251 2.875 2.184.746.933 1.213 2.034 1.399 3.285h-3.005a4.328 4.328 0 0 0-1.007-1.867 4.928 4.928 0 0 0-1.792-1.25c-.709-.299-1.475-.448-2.333-.448-1.064 0-2.016.28-2.893.84-.877.56-1.549 1.343-2.053 2.351s-.746 2.184-.746 3.509c0 1.362.242 2.557.746 3.602s1.195 1.848 2.053 2.426c.859.579 1.829.859 2.893.859 1.288 0 2.37-.317 3.266-.952.896-.634 1.531-1.512 1.885-2.613h3.005c-.243 1.288-.747 2.389-1.493 3.341a7.45 7.45 0 0 1-2.837 2.165c-1.138.504-2.426.765-3.826.765-1.605 0-3.08-.392-4.423-1.176l-.019-.018Z"/><path fill="url(#b)" d="M107.709 341.733c.765-.15 75.849-17.414 147.555-17.414s136.338 16.872 136.991 17.003v.037c-.653-.13-65.659-13.307-136.991-13.307-71.333 0-146.809 13.531-147.574 13.681h.019Z"/><path fill="url(#c)" d="M429.134 259.911c-.597-.168-55.17-14.969-129.264-18.963 7.726-3.583 26.297-12.448 43.654-22.695 3.061-.205 9.444-1.176 16.779-5.543 6.98-4.162 11.328-12.374 12.448-14.707.131-.28-.074-.597-.392-.56-2.613.262-12.056 1.475-18.887 6.253-5.991 4.199-9.687 10.321-11.143 13.12-20.679 12.206-43.075 22.415-46.453 23.946a698.127 698.127 0 0 0-15.715-.579l39.137-38.372-68.794-69.056-67.712 68.104 37.57 38.335c-3.266.019-10.059.149-19.634.672-1.176-.523-24.991-11.198-46.846-24.114-1.456-2.799-5.151-8.921-11.142-13.12-6.831-4.778-16.275-5.991-18.888-6.253a.382.382 0 0 0-.392.56c1.12 2.333 5.469 10.527 12.449 14.707 7.316 4.368 13.699 5.338 16.779 5.543 17.656 10.452 36.581 19.448 44.065 22.882-27.119 1.643-73.05 6.234-125.868 19.149l.448 1.81c84.005-20.548 150.597-20.007 151.269-20.007h2.258l-39.399-40.183 65.062-65.435 66.125 66.387-40.967 40.145 2.221.056c6.197.131 12.281.355 18.272.654h.037c75.7 3.676 131.841 18.906 132.457 19.074l.504-1.792-.038-.018Z"/><path fill="url(#d)" d="M331.859 218.925c1.139-.672 2.24-1.381 3.36-2.09 3.602-2.333 7.558-4.815 9.929-8.473 2.127-3.267 3.247-7.186 3.658-11.049a.497.497 0 0 0-.728-.486 57.89 57.89 0 0 0-1.045.56c-3.976 2.165-8.1 4.909-10.638 8.735-1.27 1.904-2.147 4.087-3.005 6.196a137.33 137.33 0 0 0-2.259 6.01c-.149.448.336.821.728.597Z"/><path fill="url(#e)" d="M352.763 230.814c3.845-.56 7.559-2.277 10.732-4.498a.506.506 0 0 0-.112-.877c-.374-.149-.747-.28-1.12-.429-4.237-1.568-9.015-2.875-13.569-2.259-2.277.299-4.498 1.064-6.644 1.811a109.83 109.83 0 0 0-6.01 2.258c-.429.168-.41.784.038.933 1.25.411 2.519.784 3.789 1.157 4.124 1.176 8.585 2.52 12.915 1.904h-.019Z"/><path fill="url(#f)" d="M315.827 221.445a137.316 137.316 0 0 0-2.258 6.01c-.149.448.336.821.728.597 1.138-.672 2.239-1.381 3.359-2.09 3.602-2.333 7.559-4.815 9.929-8.473 2.128-3.267 3.248-7.186 3.658-11.049a.496.496 0 0 0-.728-.486c-.354.187-.709.374-1.045.56-3.975 2.165-8.1 4.909-10.638 8.735-1.269 1.904-2.146 4.087-3.005 6.196Z"/><path fill="url(#g)" d="M345.913 233.613c-4.237-1.605-8.996-2.967-13.55-2.407-2.277.279-4.498 1.026-6.663 1.735a110.41 110.41 0 0 0-6.029 2.203c-.429.168-.41.783.019.933 1.251.41 2.501.821 3.77 1.194 4.106 1.232 8.567 2.613 12.897 2.035 3.863-.504 7.577-2.203 10.769-4.386.336-.224.28-.71-.094-.878-.373-.149-.727-.298-1.101-.429h-.018Z"/><path fill="url(#h)" d="M372.135 243.02c-.41.243-.28.84.168.915 1.307.205 2.613.392 3.919.56 4.256.541 8.866 1.194 13.046-.056 3.733-1.12 7.13-3.397 9.929-6.066a.496.496 0 0 0-.242-.84c-.392-.093-.765-.168-1.157-.261-4.424-.915-9.351-1.493-13.755-.187-2.203.635-4.274 1.736-6.309 2.8-1.903.989-3.77 2.053-5.599 3.135Z"/><path fill="url(#i)" d="M355.376 235.367a163.327 163.327 0 0 0-6.7 4.554c-.486.336-.243 1.101.354 1.139 1.68.13 3.36.224 5.039.298 5.469.243 11.423.579 16.574-1.455 4.572-1.811 8.604-5.04 11.795-8.698.336-.373.094-.97-.41-1.045-.504-.074-1.008-.13-1.512-.205-5.749-.672-12.076-.896-17.507 1.213-2.706 1.045-5.207 2.65-7.633 4.199Z"/><path fill="url(#j)" d="M312.952 214.745a49.93 49.93 0 0 0-1.045.56c-3.975 2.165-8.1 4.908-10.638 8.734-1.269 1.904-2.146 4.088-3.005 6.197a137.276 137.276 0 0 0-2.258 6.009c-.15.448.336.821.728.597 1.138-.671 2.239-1.381 3.359-2.09 3.602-2.333 7.559-4.815 9.929-8.473 2.128-3.266 3.248-7.186 3.658-11.049a.496.496 0 0 0-.728-.485Z"/><path fill="url(#k)" d="M391.509 246.137c-.504.037-.597.746-.131.914 18.272 7.167 31.374 9.108 32.027 7.839.653-1.325-8.697-7.242-15.416-8.567-5.021-.989-12.859-.504-16.48-.186Z"/><path fill="url(#l)" d="M160.975 215.771c1.101.71 2.221 1.419 3.359 2.091a.5.5 0 0 0 .728-.598c-.709-2.015-1.437-4.031-2.258-6.009-.859-2.109-1.755-4.293-3.005-6.197-2.538-3.844-6.663-6.569-10.638-8.734-.355-.187-.691-.373-1.046-.56a.495.495 0 0 0-.727.485c.41 3.845 1.549 7.783 3.658 11.049 2.37 3.658 6.327 6.14 9.929 8.473Z"/><path fill="url(#m)" d="M160.171 225.755a117.499 117.499 0 0 0-6.009-2.258c-2.165-.746-4.386-1.512-6.645-1.81-4.554-.616-9.331.69-13.568 2.258-.373.131-.747.28-1.12.429a.506.506 0 0 0-.112.878c3.173 2.221 6.868 3.956 10.732 4.498 4.33.615 8.79-.728 12.915-1.904a99.467 99.467 0 0 0 3.789-1.157c.448-.15.466-.766.037-.934h-.019Z"/><path fill="url(#n)" d="M178.556 224.916c1.101.71 2.221 1.419 3.359 2.091a.5.5 0 0 0 .728-.598c-.709-2.015-1.437-4.031-2.258-6.009-.859-2.109-1.755-4.293-3.005-6.197-2.538-3.844-6.663-6.569-10.638-8.734-.355-.187-.691-.374-1.046-.56a.496.496 0 0 0-.728.485c.411 3.845 1.55 7.783 3.659 11.049 2.37 3.658 6.327 6.14 9.929 8.473Z"/><path fill="url(#o)" d="M149.179 232.998a.497.497 0 0 0-.094.877c3.192 2.184 6.906 3.882 10.769 4.386 4.33.579 8.791-.821 12.897-2.034a90.106 90.106 0 0 0 3.77-1.195.492.492 0 0 0 .019-.933 122.938 122.938 0 0 0-6.029-2.202c-2.165-.71-4.404-1.456-6.663-1.736-4.572-.56-9.332.802-13.55 2.408-.373.149-.746.28-1.101.429h-.018Z"/><path fill="url(#p)" d="M106.906 243.394c4.181 1.269 8.809.615 13.046.056 1.306-.168 2.613-.355 3.919-.56a.49.49 0 0 0 .168-.915 138.351 138.351 0 0 0-5.599-3.135c-2.016-1.064-4.106-2.147-6.308-2.8-4.424-1.288-9.332-.709-13.755.187-.392.074-.784.168-1.158.261a.496.496 0 0 0-.242.84c2.8 2.669 6.196 4.946 9.929 6.066Z"/><path fill="url(#q)" d="M125.55 238.858c5.152 2.034 11.087 1.698 16.574 1.455 1.679-.074 3.359-.168 5.039-.298.597-.038.821-.803.354-1.139a150.41 150.41 0 0 0-6.7-4.554c-2.426-1.549-4.927-3.154-7.633-4.199-5.431-2.09-11.758-1.885-17.507-1.213-.504.056-1.008.13-1.512.205-.503.075-.746.653-.41 1.045 3.191 3.677 7.204 6.887 11.795 8.698Z"/><path fill="url(#r)" d="M196.118 233.688c1.101.709 2.221 1.418 3.36 2.09a.5.5 0 0 0 .728-.597c-.71-2.016-1.438-4.032-2.259-6.01-.858-2.109-1.754-4.293-3.005-6.196-2.538-3.845-6.663-6.57-10.638-8.735-.355-.187-.691-.373-1.045-.56a.496.496 0 0 0-.728.485c.411 3.845 1.549 7.783 3.658 11.049 2.37 3.658 6.327 6.141 9.929 8.474Z"/><path fill="url(#s)" d="M104.815 246.006c.467-.187.373-.877-.131-.914-3.62-.318-11.46-.803-16.48.186-6.719 1.325-16.07 7.242-15.416 8.567.635 1.269 13.737-.653 32.027-7.839Z"/><path fill="#fff" stroke="#DFAD0E" d="M240.897 195.274h22.986v-28.032l16.861 15.84v37.144l-16.861 16.438v-27.553h-22.986v28.163l-16.879-15.804v-38.388l16.879-15.841v28.033Z"/><path fill="#fff" d="m93.338 282.101 9.201-1.679 2.314 12.672 11.329-2.071-2.314-12.673 9.201-1.68 6.215 34.08-9.201 1.68-2.52-13.774-11.329 2.072 2.52 13.773-9.201 1.68-6.215-34.08ZM132.42 292.646c-1.867-12.542 5.916-19.055 14.203-20.287 8.249-1.232 17.581 2.725 19.447 15.285 1.867 12.542-5.916 19.056-14.165 20.288-8.287 1.232-17.638-2.725-19.504-15.267l.019-.019Zm24.393-3.639c-.933-6.29-4.237-9.743-9.052-9.015-4.852.728-7.017 4.965-6.084 11.273.933 6.29 4.274 9.967 9.145 9.239 4.815-.709 6.943-5.207 6.01-11.497h-.019ZM170.456 269.597l9.164-1.008 14.744 17.917h.094l-2.128-19.317 8.511-.933 3.788 34.434-8.604.952-15.285-17.805h-.094l2.128 19.28-8.511.933-3.788-34.435-.019-.018ZM209.724 265.509l24.674-1.512.485 7.765-15.323.951.355 5.599 10.937-.671.447 7.297-10.936.672.392 6.402 16.125-.99.467 7.522-25.476 1.568-2.128-34.584-.019-.019ZM251.252 283.893l-11.889-20.287 9.649.093 7.055 12.337 7.316-12.206 9.556.093-12.318 20.064-.131 14.464-9.369-.093.131-14.465ZM277.026 264.073l9.369.858 1.68 13.83c.355 2.296.653 4.05.84 7.279h.093c.71-3.024 1.326-4.76 2.053-6.943l4.106-13.345 8.436.784 1.811 13.942c.41 2.669.69 3.826.896 7.185h.093c.728-3.266 1.138-4.162 1.941-6.812l4.013-13.494 8.529.784-12.131 33.67-7.783-.71-2.725-22.023h-.093l-7.205 21.09-7.932-.728-6.009-35.349.018-.018ZM327.25 269.186l24.468 3.527-1.12 7.69-15.192-2.202-.803 5.561 10.844 1.568-1.045 7.223-10.844-1.568-.914 6.346 15.976 2.314-1.083 7.466-25.252-3.658 4.946-34.286.019.019ZM359.109 273.964l9.219 1.642-4.74 26.689 14.334 2.538-1.325 7.428-23.554-4.18 6.047-34.117h.019ZM388.336 279.246l9.182 1.885-5.449 26.558 14.277 2.931-1.512 7.39-23.441-4.796 6.961-33.949-.018-.019Z"/><path stroke="#DFAD0E" d="m93.338 282.101 9.201-1.679 2.314 12.672 11.329-2.071-2.314-12.673 9.201-1.68 6.215 34.08-9.201 1.68-2.52-13.774-11.329 2.072 2.52 13.773-9.201 1.68-6.215-34.08ZM132.42 292.646c-1.867-12.542 5.916-19.055 14.203-20.287 8.249-1.232 17.581 2.725 19.447 15.285 1.867 12.542-5.916 19.056-14.165 20.288-8.287 1.232-17.638-2.725-19.504-15.267l.019-.019Zm24.393-3.639c-.933-6.29-4.237-9.743-9.052-9.015-4.852.728-7.017 4.965-6.084 11.273.933 6.29 4.274 9.967 9.145 9.239 4.815-.709 6.943-5.207 6.01-11.497h-.019ZM170.456 269.597l9.164-1.008 14.744 17.917h.094l-2.128-19.317 8.511-.933 3.788 34.434-8.604.952-15.285-17.805h-.094l2.128 19.28-8.511.933-3.788-34.435-.019-.018ZM209.724 265.509l24.674-1.512.485 7.765-15.323.951.355 5.599 10.937-.671.447 7.297-10.936.672.392 6.402 16.125-.99.467 7.522-25.476 1.568-2.128-34.584-.019-.019ZM251.252 283.893l-11.889-20.287 9.649.093 7.055 12.337 7.316-12.206 9.556.093-12.318 20.064-.131 14.464-9.369-.093.131-14.465ZM277.026 264.073l9.369.858 1.68 13.83c.355 2.296.653 4.05.84 7.279h.093c.71-3.024 1.326-4.76 2.053-6.943l4.106-13.345 8.436.784 1.811 13.942c.41 2.669.69 3.826.896 7.185h.093c.728-3.266 1.138-4.162 1.941-6.812l4.013-13.494 8.529.784-12.131 33.67-7.783-.71-2.725-22.023h-.093l-7.205 21.09-7.932-.728-6.009-35.349.018-.018ZM327.25 269.186l24.468 3.527-1.12 7.69-15.192-2.202-.803 5.561 10.844 1.568-1.045 7.223-10.844-1.568-.914 6.346 15.976 2.314-1.083 7.466-25.252-3.658 4.946-34.286.019.019ZM359.109 273.964l9.219 1.642-4.74 26.689 14.334 2.538-1.325 7.428-23.554-4.18 6.047-34.117h.019ZM388.336 279.246l9.182 1.885-5.449 26.558 14.277 2.931-1.512 7.39-23.441-4.796 6.961-33.949-.018-.019Z"/></g><defs><linearGradient id="b" x1="70.885" x2="429.172" y1="273.289" y2="279.847" gradientUnits="userSpaceOnUse"><stop stop-color="#DFAD0E"/><stop offset=".495" stop-color="#C1B79A"/><stop offset="1" stop-color="#DFAD0E"/></linearGradient><linearGradient id="c" x1="70.885" x2="429.172" y1="273.289" y2="279.847" gradientUnits="userSpaceOnUse"><stop stop-color="#DFAD0E"/><stop offset=".495" stop-color="#C1B79A"/><stop offset="1" stop-color="#DFAD0E"/></linearGradient><linearGradient id="d" x1="70.885" x2="429.172" y1="273.289" y2="279.847" gradientUnits="userSpaceOnUse"><stop stop-color="#DFAD0E"/><stop offset=".495" stop-color="#C1B79A"/><stop offset="1" stop-color="#DFAD0E"/></linearGradient><linearGradient id="e" x1="70.885" x2="429.172" y1="273.289" y2="279.847" gradientUnits="userSpaceOnUse"><stop stop-color="#DFAD0E"/><stop offset=".495" stop-color="#C1B79A"/><stop offset="1" stop-color="#DFAD0E"/></linearGradient><linearGradient id="f" x1="70.885" x2="429.172" y1="273.289" y2="279.847" gradientUnits="userSpaceOnUse"><stop stop-color="#DFAD0E"/><stop offset=".495" stop-color="#C1B79A"/><stop offset="1" stop-color="#DFAD0E"/></linearGradient><linearGradient id="g" x1="70.885" x2="429.172" y1="273.289" y2="279.847" gradientUnits="userSpaceOnUse"><stop stop-color="#DFAD0E"/><stop offset=".495" stop-color="#C1B79A"/><stop offset="1" stop-color="#DFAD0E"/></linearGradient><linearGradient id="h" x1="70.885" x2="429.172" y1="273.289" y2="279.847" gradientUnits="userSpaceOnUse"><stop stop-color="#DFAD0E"/><stop offset=".495" stop-color="#C1B79A"/><stop offset="1" stop-color="#DFAD0E"/></linearGradient><linearGradient id="i" x1="70.885" x2="429.172" y1="273.289" y2="279.847" gradientUnits="userSpaceOnUse"><stop stop-color="#DFAD0E"/><stop offset=".495" stop-color="#C1B79A"/><stop offset="1" stop-color="#DFAD0E"/></linearGradient><linearGradient id="j" x1="70.885" x2="429.172" y1="273.289" y2="279.847" gradientUnits="userSpaceOnUse"><stop stop-color="#DFAD0E"/><stop offset=".495" stop-color="#C1B79A"/><stop offset="1" stop-color="#DFAD0E"/></linearGradient><linearGradient id="k" x1="70.885" x2="429.172" y1="273.289" y2="279.847" gradientUnits="userSpaceOnUse"><stop stop-color="#DFAD0E"/><stop offset=".495" stop-color="#C1B79A"/><stop offset="1" stop-color="#DFAD0E"/></linearGradient><linearGradient id="l" x1="70.885" x2="429.172" y1="273.289" y2="279.847" gradientUnits="userSpaceOnUse"><stop stop-color="#DFAD0E"/><stop offset=".495" stop-color="#C1B79A"/><stop offset="1" stop-color="#DFAD0E"/></linearGradient><linearGradient id="m" x1="70.885" x2="429.172" y1="273.289" y2="279.847" gradientUnits="userSpaceOnUse"><stop stop-color="#DFAD0E"/><stop offset=".495" stop-color="#C1B79A"/><stop offset="1" stop-color="#DFAD0E"/></linearGradient><linearGradient id="n" x1="70.885" x2="429.172" y1="273.289" y2="279.847" gradientUnits="userSpaceOnUse"><stop stop-color="#DFAD0E"/><stop offset=".495" stop-color="#C1B79A"/><stop offset="1" stop-color="#DFAD0E"/></linearGradient><linearGradient id="o" x1="70.885" x2="429.172" y1="273.289" y2="279.847" gradientUnits="userSpaceOnUse"><stop stop-color="#DFAD0E"/><stop offset=".495" stop-color="#C1B79A"/><stop offset="1" stop-color="#DFAD0E"/></linearGradient><linearGradient id="p" x1="70.885" x2="429.172" y1="273.289" y2="279.847" gradientUnits="userSpaceOnUse"><stop stop-color="#DFAD0E"/><stop offset=".495" stop-color="#C1B79A"/><stop offset="1" stop-color="#DFAD0E"/></linearGradient><linearGradient id="q" x1="70.885" x2="429.172" y1="273.289" y2="279.847" gradientUnits="userSpaceOnUse"><stop stop-color="#DFAD0E"/><stop offset=".495" stop-color="#C1B79A"/><stop offset="1" stop-color="#DFAD0E"/></linearGradient><linearGradient id="r" x1="70.885" x2="429.172" y1="273.289" y2="279.847" gradientUnits="userSpaceOnUse"><stop stop-color="#DFAD0E"/><stop offset=".495" stop-color="#C1B79A"/><stop offset="1" stop-color="#DFAD0E"/></linearGradient><linearGradient id="s" x1="70.885" x2="429.172" y1="273.289" y2="279.847" gradientUnits="userSpaceOnUse"><stop stop-color="#DFAD0E"/><stop offset=".495" stop-color="#C1B79A"/><stop offset="1" stop-color="#DFAD0E"/></linearGradient><clipPath id="a"><path fill="#fff" d="M69.598 132.755h360.806v234.491H69.598z"/></clipPath></defs></svg>