<svg width="500" height="500" viewBox="0 0 500 500" fill="none" xmlns="http://www.w3.org/2000/svg">
<rect width="500" height="500" fill="white"/>
<g clip-path="url(#clip0_11_7368)">
<path d="M369.15 312.609L363.783 334.876H363.775C355.006 336.858 345.854 335.939 337.553 332.18L314.86 321.897C308.966 319.226 302.332 319.498 296.659 322.645L269.586 337.632C263.301 341.11 256.378 342.854 249.446 342.854C242.514 342.854 236.152 341.255 230.07 338.048L200.787 322.62C195.02 319.575 188.088 319.498 182.253 322.416L165.047 331.006C156.414 335.327 146.522 336.475 137.209 334.34L131.851 312.107L137.728 312.235L139.412 312.856C144.651 314.812 150.528 314.497 155.547 311.988L172.753 303.389C184.694 297.427 198.881 297.58 210.704 303.806L239.979 319.235C246.052 322.433 253.273 322.356 259.286 319.03L286.359 304.044C297.799 297.708 311.73 297.138 323.629 302.53L346.322 312.805C351.059 314.956 356.375 315.203 361.274 313.51L362.627 313.043L369.15 312.609Z" fill="#00B5C2"/>
<path d="M354.529 373.217L349.477 394.158C345.403 393.639 341.388 392.508 337.552 390.772L314.86 380.498C308.966 377.827 302.331 378.099 296.658 381.238L269.586 396.224C263.3 399.703 256.377 401.447 249.445 401.447C242.513 401.447 236.151 399.848 230.07 396.641L200.786 381.212C195.011 378.168 188.087 378.1 182.253 381.008L165.046 389.607C160.777 391.742 156.192 393.103 151.523 393.673L146.471 372.724C149.592 372.724 152.705 372.001 155.546 370.581L172.752 361.99C184.694 356.02 198.881 356.173 210.703 362.399L239.979 377.827C246.051 381.034 253.273 380.957 259.286 377.623L286.358 362.637C297.798 356.3 311.73 355.739 323.629 361.123L346.321 371.406C348.941 372.588 351.731 373.2 354.529 373.217Z" fill="#00B5C2"/>
<path d="M368.881 295.028C368.846 295.939 368.811 296.649 368.802 297.14L352.893 296.833L351.175 296.798C346.468 296.29 342.805 292.293 342.805 287.455C342.805 287.288 342.805 287.13 342.813 286.973C343.734 233.208 328.754 196.552 315.703 174.999C302.485 153.156 287.234 137.239 271.606 128.965C259.913 122.777 251.788 122.856 250.912 122.882L250.474 122.9L250.044 122.882C249.15 122.856 241.034 122.777 229.341 128.974C213.713 137.248 198.47 153.165 185.253 174.999C172.368 196.289 157.511 232.699 158.195 286.78C158.195 287.201 158.204 287.613 158.204 288.033C157.941 292.784 154.146 296.597 149.395 296.886H132.145C132.145 296.395 132.119 295.606 132.075 294.546C129.761 230.21 147.484 186.621 162.753 161.387C200.337 99.2952 241.498 96.429 250.474 96.5868C259.466 96.4027 300.61 99.2689 338.194 161.378C353.673 186.946 371.563 230.894 368.881 295.019V295.028Z" fill="#151B2E"/>
</g>
<defs>
<clipPath id="clip0_11_7368">
<rect width="244.545" height="306.426" fill="white" transform="translate(128.228 96.5869)"/>
</clipPath>
</defs>
</svg>
