<svg width="500" height="500" viewBox="0 0 500 500" fill="none" xmlns="http://www.w3.org/2000/svg">
<rect width="500" height="500" fill="white"/>
<g clip-path="url(#clip0_11_9079)">
<path d="M249.35 120.65L278.74 92.98L249.64 79L220.82 93.26L249.35 120.65Z" fill="#094977"/>
<path d="M190.87 106.39L174.61 147.47H206.56L230.24 122.36L190.87 106.39Z" fill="#C52223"/>
<path d="M250.21 130.92L227.67 156.03L250.78 163.73L274.74 153.46L250.21 130.92Z" fill="#EE8021"/>
<path d="M342.09 159.18L382.42 160.81L372.05 130.24L341.7 119.63L342.09 159.18Z" fill="#094977"/>
<path d="M311.36 107.41L270.63 124.53L292.99 147.36L327.49 146.72L311.36 107.41Z" fill="#C52223"/>
<path d="M335.349 166.97L301.649 168.43L312.309 190.33L336.409 200.27L335.349 166.97Z" fill="#EE8021"/>
<path d="M379.449 252.39L406.499 282.35L421.089 253.55L407.429 224.44L379.449 252.39Z" fill="#094977"/>
<path d="M394.94 194.22L354.21 177.1L353.54 209.04L378.14 233.24L394.94 194.22Z" fill="#C52223"/>
<path d="M369.17 253.03L344.54 229.97L336.35 252.91L346.12 277.09L369.17 253.03Z" fill="#EE8021"/>
<path d="M338.991 344.3L336.511 384.59L367.301 374.86L378.541 344.74L338.991 344.3Z" fill="#094977"/>
<path d="M391.391 314.66L375.121 273.59L351.831 295.46L351.761 329.97L391.391 314.66Z" fill="#C52223"/>
<path d="M331.34 337.4L330.58 303.67L308.46 313.87L298.03 337.76L331.34 337.4Z" fill="#EE8021"/>
<path d="M245.02 379.7L214.5 406.12L242.99 421.3L272.37 408.26L245.02 379.7Z" fill="#094977"/>
<path d="M302.85 396.4L320.82 356.04L288.9 354.7L264.19 378.79L302.85 396.4Z" fill="#C52223"/>
<path d="M244.59 369.4L268.16 345.26L245.4 336.6L221.02 345.86L244.59 369.4Z" fill="#EE8021"/>
<path d="M153.97 337.32L113.75 334L122.83 364.98L152.71 376.85L153.97 337.32Z" fill="#094977"/>
<path d="M182.5 390.33L223.92 374.93L202.54 351.18L168.04 350.38L182.5 390.33Z" fill="#C52223"/>
<path d="M161.03 329.82L194.77 329.77L185.03 307.44L161.37 296.5L161.03 329.82Z" fill="#EE8021"/>
<path d="M120.55 242.63L94.78 211.56L79 239.72L91.43 269.38L120.55 242.63Z" fill="#094977"/>
<path d="M102.64 300.1L142.62 318.91L144.63 287.02L121.06 261.81L102.64 300.1Z" fill="#C52223"/>
<path d="M130.86 242.42L154.49 266.49L163.63 243.91L154.89 219.35L130.86 242.42Z" fill="#EE8021"/>
<path d="M164.831 152.49L168.991 112.34L137.831 120.77L125.341 150.4L164.831 152.49Z" fill="#094977"/>
<path d="M111.23 179.9L125.76 221.63L149.95 200.75L151.48 166.28L111.23 179.9Z" fill="#C52223"/>
<path d="M172.19 159.71L171.53 193.44L194.05 184.17L205.48 160.74L172.19 159.71Z" fill="#EE8021"/>
</g>
<defs>
<clipPath id="clip0_11_9079">
<rect width="342.09" height="342.3" fill="white" transform="translate(79 79)"/>
</clipPath>
</defs>
</svg>
