<svg width="500" height="500" viewBox="0 0 500 500" fill="none" xmlns="http://www.w3.org/2000/svg">
<rect width="500" height="500" fill="white"/>
<g clip-path="url(#clip0_11_9123)">
<path d="M406.822 206.577C415.115 198.868 401.752 171.012 376.975 144.358C352.198 117.704 325.39 102.346 317.097 110.055C308.805 117.764 322.168 145.62 346.945 172.274C371.721 198.927 398.53 214.285 406.822 206.577Z" fill="#204BEF"/>
<path d="M333.737 362.544C312.712 382.118 249.237 348.085 192.044 286.462C134.812 224.879 105.49 159.148 126.515 139.614C141.981 125.236 180.324 139.735 222.211 172.883C194.662 153.55 170.738 146.018 160.347 155.685C144.277 170.587 166.992 221.134 211.055 268.579C255.157 315.985 303.892 342.325 319.962 327.342C330.313 317.716 324.594 293.349 307.396 264.471C337.482 308.815 349.243 348.165 333.737 362.544Z" fill="#61D0F9"/>
<path d="M288.828 382.642C253.748 406.043 190.554 386.911 141.981 336.566C91.273 284.005 75.1625 216.704 104.766 183.798C88.4134 202.687 114.472 259.84 164.334 313.447C213.794 366.693 268.449 396.819 288.828 382.682V382.642Z" fill="#204BEF"/>
<path d="M333.615 178.926C286.613 128.379 234.536 100.468 217.297 116.498C200.059 132.528 224.064 186.498 271.026 237.045C318.028 287.551 370.066 315.503 387.344 299.433C404.623 283.363 380.578 229.433 333.615 178.886V178.926ZM286.653 222.304C250.485 183.397 230.991 142.758 243.074 131.481C255.157 120.203 294.306 142.677 330.474 181.584C366.642 220.491 386.136 261.13 374.053 272.407C361.97 283.685 322.821 261.211 286.653 222.304Z" fill="#204BEF"/>
</g>
<defs>
<clipPath id="clip0_11_9123">
<rect width="319.311" height="284.472" fill="white" transform="translate(89.9844 108.079)"/>
</clipPath>
</defs>
</svg>
