<svg width="500" height="500" viewBox="0 0 500 500" fill="none" xmlns="http://www.w3.org/2000/svg">
<rect width="500" height="500" fill="white"/>
<g clip-path="url(#clip0_11_10070)">
<path d="M246.071 333.788L234.802 349.846C233.607 349.904 226.572 328.484 226.764 327.308C226.907 326.371 234.276 316.526 235.557 315.111C236.551 314.031 236.58 312.741 238.683 313.267L246.071 333.788Z" fill="#00008F"/>
<path d="M348.547 291.053H306.385L336.895 247.763L348.547 291.053Z" fill="#00008F"/>
<path d="M178.102 291.053H135.931L166.45 247.763L178.102 291.053Z" fill="#00008F"/>
<path d="M374 370.311C342.61 402.675 298.651 422.786 249.999 422.786C185.614 422.786 129.469 387.573 99.7422 335.365L118.849 310.485L184.745 309.854L192.735 337.707C182.89 349.263 174.651 362.607 164.337 373.733C162.225 375.998 157.608 377.135 157.675 380.94H188.749C190.049 372.777 196.176 365.809 201.51 359.883C203.135 359.873 208.401 378.024 207.627 380.94L239.103 380.796L253.67 360.991C255.916 361.001 259.548 377.929 259.777 380.94H299.722C296.558 374.899 293.595 368.762 291.119 362.358C288.682 356.011 280.146 333.358 279.774 328.092C279.363 322.443 287.382 315.771 288.806 310.112L357.387 309.979C361.268 330.319 370.606 349.894 374 370.311Z" fill="#00008F"/>
<path d="M422.786 250C422.786 281.284 414.47 310.629 399.923 335.949C397.447 328.292 395.067 320.617 392.649 312.999C382.383 280.778 372.242 248.031 365.274 214.978L333.005 215.026L320.168 236.59L270.885 299.933L266.976 281.103C285.49 259.348 301.367 235.376 320.808 214.491H287.516C287.602 216.364 287.641 218.257 286.991 220.054C284.773 226.353 264.557 251.959 259.119 257.666C258.191 258.641 257.618 260.266 255.897 259.998C251.959 244.915 245.46 230.166 244.236 214.491H205.401L230.711 288.501L219.27 302.131C217.846 301.271 217.827 299.895 217.282 298.604C210.734 283.091 200.708 250.201 196.856 233.588C195.403 227.328 194.982 220.857 194.294 214.5L160.61 214.644C155.812 224.221 150.851 233.282 144.801 242.105C128.016 266.555 107.772 289.591 89.1809 313.314C81.4578 293.71 77.2139 272.347 77.2139 250C77.2139 154.57 154.57 77.2139 250 77.2139C293.949 77.2139 334.085 93.6255 364.576 120.666C369.584 125.101 374.335 129.833 378.799 134.822C406.155 165.39 422.786 205.754 422.786 250Z" fill="#00008F"/>
<path d="M378.798 134.822L322.06 208.947H296.998L364.576 120.666C369.584 125.101 374.335 129.832 378.798 134.822Z" fill="#E60D2E"/>
</g>
<defs>
<clipPath id="clip0_11_10070">
<rect width="345.572" height="345.572" fill="white" transform="translate(77.2139 77.2139)"/>
</clipPath>
</defs>
</svg>
