<svg width="500" height="500" viewBox="0 0 500 500" fill="none" xmlns="http://www.w3.org/2000/svg">
<rect width="500" height="500" fill="white"/>
<g clip-path="url(#clip0_11_9132)">
<path d="M246.681 344.013H98.0273L171.772 220.531L246.681 344.013Z" fill="#6FADF2"/>
<path d="M403.778 344.013H257.544L330.103 222.508L403.778 344.013Z" fill="#6FADF2"/>
<path d="M324.637 213.505L252.078 334.987L177.17 211.482L246.96 94.6527L249.728 90L252.543 94.6527L324.637 213.505Z" fill="#111F4A"/>
<path d="M219.23 219.926L211.135 201.967H203.667V231.93H211.902V223.927C211.902 221.462 211.856 219.321 211.739 217.46L217.625 231.907H220.463L226.558 217.321C226.442 219.298 226.372 221.485 226.372 223.927V231.93H234.607V201.967H227.396L219.184 219.926H219.23Z" fill="white"/>
<path d="M267.617 221.95C268.269 220.345 268.734 218.623 268.943 216.762H261.406C261.313 217.902 261.08 218.926 260.755 219.903L259.987 219.112C259.405 218.553 258.731 217.855 257.94 217.065C257.149 216.274 256.381 215.413 255.614 214.529C254.846 213.645 254.218 212.807 253.706 212.016C253.194 211.225 252.962 210.574 252.962 210.016C252.962 209.55 253.055 209.178 253.264 208.829C253.473 208.504 253.752 208.248 254.101 208.108C254.45 207.945 254.892 207.875 255.381 207.875C256.009 207.875 256.567 208.038 257.033 208.387C257.498 208.736 257.963 209.457 258.382 210.574L264.803 206.852C264.407 205.712 263.709 204.712 262.755 203.851C261.802 202.99 260.638 202.339 259.312 201.85C257.986 201.385 256.567 201.152 255.055 201.152C253.078 201.152 251.333 201.501 249.844 202.222C248.355 202.944 247.169 203.921 246.331 205.154C245.494 206.387 245.052 207.806 245.052 209.364C245.052 209.969 245.122 210.621 245.285 211.342C245.447 212.04 245.727 212.807 246.122 213.645C244.331 214.459 242.935 215.552 241.935 216.925C240.725 218.6 240.12 220.438 240.12 222.415C240.12 224.299 240.655 225.998 241.749 227.487C242.819 228.975 244.284 230.162 246.145 231.023C248.006 231.883 250.1 232.302 252.473 232.302C254.218 232.302 255.869 232.069 257.405 231.604C258.731 231.209 259.941 230.604 261.08 229.859L263.081 231.883H272.875L266.082 224.811C266.664 223.904 267.199 222.95 267.617 221.903V221.95ZM253.124 226.137C251.984 226.137 251.007 225.974 250.216 225.649C249.425 225.323 248.821 224.858 248.379 224.23C247.937 223.625 247.727 222.88 247.727 222.02C247.727 220.926 248.123 220.019 248.914 219.298C249.17 219.065 249.519 218.879 249.821 218.693C250.263 219.181 250.705 219.647 251.217 220.182L256.242 225.393C256.242 225.393 256.195 225.439 256.149 225.439C255.195 225.905 254.171 226.114 253.101 226.114L253.124 226.137Z" fill="white"/>
<path d="M299.955 219.275C299.42 218.251 298.629 217.414 297.652 216.716C297 216.251 296.256 215.902 295.465 215.622C296.489 215.18 297.326 214.529 297.931 213.668C298.768 212.505 299.187 211.04 299.187 209.272C299.187 207.783 298.792 206.503 298.024 205.41C297.256 204.316 296.116 203.479 294.628 202.874C293.139 202.269 291.347 201.967 289.207 201.967H275.528V231.93H289.626C291.208 231.93 292.673 231.744 293.999 231.372C295.325 231 296.512 230.441 297.535 229.65C298.559 228.883 299.35 227.929 299.908 226.789C300.467 225.649 300.746 224.3 300.746 222.764C300.746 221.462 300.467 220.298 299.932 219.275H299.955ZM283.531 208.76H287.718C288.835 208.76 289.649 208.992 290.184 209.434C290.696 209.9 290.952 210.504 290.952 211.272C290.952 211.784 290.836 212.226 290.603 212.621C290.37 213.017 290.021 213.296 289.579 213.505C289.114 213.715 288.556 213.808 287.858 213.808H283.554V208.76H283.531ZM292.092 223.834C291.836 224.253 291.51 224.579 291.068 224.788C290.626 224.998 290.068 225.114 289.417 225.114H283.554V219.67H289.207C289.905 219.67 290.487 219.787 290.975 219.996C291.464 220.205 291.836 220.508 292.092 220.88C292.348 221.252 292.487 221.717 292.487 222.299C292.487 222.904 292.371 223.416 292.115 223.834H292.092Z" fill="white"/>
</g>
<defs>
<clipPath id="clip0_11_9132">
<rect width="305.751" height="254.013" fill="white" transform="translate(98.0273 90)"/>
</clipPath>
</defs>
</svg>
