<svg width="500" height="500" viewBox="0 0 500 500" fill="none" xmlns="http://www.w3.org/2000/svg">
<rect width="500" height="500" fill="white"/>
<g clip-path="url(#clip0_11_9144)">
<path d="M301.919 230.892C292.916 240.253 276.201 248.987 245.414 246.058C221.237 243.758 207.282 257.26 199.359 271.39C196.46 264.687 194.854 257.289 194.854 249.52C194.854 219.062 219.542 194.373 250 194.373C273.922 194.373 294.281 209.598 301.919 230.892Z" fill="#98D482"/>
<path d="M305.146 249.52C305.146 279.977 280.457 304.666 250 304.666C227.311 304.666 207.829 290.967 199.358 271.39C207.281 257.26 221.236 243.758 245.414 246.058C276.2 248.987 292.915 240.253 301.919 230.892C304.007 236.712 305.146 242.984 305.146 249.52Z" fill="#58AF5F"/>
<path d="M132.361 203.136C157.94 203.136 178.745 223.947 178.745 249.52C178.745 275.092 157.933 295.904 132.361 295.904C106.788 295.904 85.9766 275.1 85.9766 249.52C85.9766 223.94 106.788 203.136 132.361 203.136ZM132.361 194.373C101.903 194.373 77.2139 219.062 77.2139 249.52C77.2139 279.978 101.903 304.667 132.361 304.667C162.818 304.667 187.507 279.978 187.507 249.52C187.507 219.062 162.818 194.373 132.361 194.373Z" fill="url(#paint0_linear_11_9144)"/>
<path d="M421.786 239.056C411.855 244.532 397.294 248.081 376.008 246.058C344.637 243.072 330.485 266.687 324.395 283.753C316.932 274.347 312.485 262.459 312.485 249.52C312.485 219.062 337.182 194.373 367.632 194.373C394.512 194.373 416.9 213.6 421.786 239.056Z" fill="#FAC772"/>
<path d="M422.786 249.52C422.786 279.978 398.09 304.667 367.632 304.667C350.114 304.667 334.495 296.495 324.396 283.753C330.486 266.687 344.637 243.072 376.008 246.059C397.294 248.081 411.855 244.532 421.786 239.056C422.443 242.444 422.786 245.942 422.786 249.52Z" fill="#E99A4A"/>
</g>
<defs>
<linearGradient id="paint0_linear_11_9144" x1="132.361" y1="194.373" x2="132.361" y2="304.666" gradientUnits="userSpaceOnUse">
<stop stop-color="#C1DD7D"/>
<stop offset="1" stop-color="#0AAB5B"/>
</linearGradient>
<clipPath id="clip0_11_9144">
<rect width="345.573" height="110.293" fill="white" transform="translate(77.2139 194.373)"/>
</clipPath>
</defs>
</svg>
