<svg width="500" height="500" viewBox="0 0 500 500" fill="none" xmlns="http://www.w3.org/2000/svg">
<rect width="500" height="500" fill="white"/>
<g clip-path="url(#clip0_11_9154)">
<path d="M167.5 274.24H191.19V264.17H177.81V216.96H191.19V207.19H177.81V168.23H191.19V157.94H167.5V274.24Z" fill="black"/>
<path d="M246.379 159.11C245.069 158.7 243.679 158.48 242.239 158.48C240.799 158.48 239.409 158.7 238.109 159.1C233.769 160.45 230.339 163.88 228.989 168.22C228.659 169.28 228.449 170.4 228.389 171.56V261.12C228.719 267 232.709 271.9 238.119 273.58C239.419 273.99 240.809 274.2 242.249 274.2C243.689 274.2 245.079 273.98 246.389 273.57C251.839 271.87 255.849 266.9 256.119 260.96V230.74H246.389V258.87C246.389 261.15 244.539 263.01 242.249 263.01C239.959 263.01 238.269 261.31 238.119 259.16C238.119 259.07 238.109 258.97 238.109 258.88C238.109 258.79 238.109 258.69 238.119 258.6V172.58C238.119 172.51 238.119 172.44 238.119 172.37C238.119 172.3 238.119 172.23 238.119 172.16C238.229 170.05 239.919 168.35 242.039 168.24C242.109 168.24 242.179 168.24 242.249 168.24C242.319 168.24 242.389 168.24 242.459 168.24C244.639 168.35 246.379 170.16 246.379 172.37V193.36H256.109V171.72C256.059 170.51 255.849 169.34 255.499 168.23C254.149 163.89 250.719 160.46 246.379 159.11Z" fill="black"/>
<path d="M348.909 157.97H348.899C348.779 157.97 348.669 157.97 348.549 157.97C348.509 157.97 348.469 157.97 348.419 157.97L345.829 157.94H327.109V274.24H336.829V168.23H344.949C345.429 168.23 345.819 168.62 345.819 169.1V274.24H355.539V219.01C355.529 218.3 355.409 217.61 355.189 216.96C355.189 216.96 355.189 216.96 355.189 216.95C354.329 214.31 351.949 212.36 349.089 212.12C351.979 211.87 354.369 209.89 355.209 207.21C355.209 207.21 355.209 207.21 355.209 207.2C355.209 207.2 355.479 206.45 355.539 205.65V164.55C355.329 160.99 352.459 158.15 348.889 157.97H348.909Z" fill="black"/>
<path d="M296.96 257.5C296.98 257.67 296.99 257.85 296.99 258.03C296.99 258.21 296.98 258.39 296.96 258.56C296.7 261.07 294.57 263.03 291.99 263.03C289.41 263.03 287.13 260.93 287 258.29C287 258.21 287 258.12 287 258.03C287 257.94 287 257.86 287 257.77V157.94H277.27V258.82C277.58 264.87 281.54 269.96 287 271.92C288.56 272.48 290.23 272.78 291.98 272.78C293.73 272.78 295.41 272.47 296.97 271.91C302.47 269.93 306.45 264.78 306.7 258.66V157.94H296.97V257.5H296.96Z" fill="black"/>
<path d="M400.209 168.23V157.94H377.199V274.24H400.209V264.26H386.929V216.96H400.209V207.19H386.929V168.23H400.209Z" fill="black"/>
<path d="M150.319 168.22C148.849 163.71 145.299 160.15 140.809 158.66C139.439 158.2 137.979 157.94 136.459 157.9C136.329 157.9 136.199 157.9 136.069 157.9C135.939 157.9 135.809 157.9 135.679 157.9C134.209 157.94 132.789 158.19 131.459 158.62C129.569 159.23 127.839 160.21 126.359 161.47C126.359 161.47 126.349 161.48 126.339 161.49C124.879 160.25 123.179 159.28 121.319 158.67C120.049 158.25 118.719 158 117.329 157.94H115.959C114.579 158 113.259 158.25 111.999 158.66C107.489 160.14 103.919 163.71 102.439 168.23C101.959 169.69 101.699 171.25 101.699 172.87V274.24H112.009V173.01C112.009 173.01 112.009 172.93 112.009 172.89C112.009 172.85 112.009 172.81 112.009 172.77C112.069 170.26 114.119 168.25 116.649 168.25C118.799 168.25 120.609 169.71 121.139 171.7C121.139 171.7 121.309 172.39 121.329 173.09V175.55V274.24H131.439V172.94C131.439 172.85 131.439 172.75 131.449 172.66C131.469 172.37 131.509 172.08 131.579 171.83C132.059 169.78 133.909 168.25 136.109 168.25C138.589 168.25 140.619 170.18 140.759 172.63V274.24H151.069V172.57C151.039 171.06 150.779 169.6 150.339 168.23C150.339 168.23 150.339 168.23 150.339 168.22H150.319Z" fill="black"/>
<path d="M104.97 285.83V309.88H101.74V285.83H104.97Z" fill="black"/>
<path d="M124.141 309.88V285.83H127.861L135.801 300.15C136.061 300.62 136.361 301.19 136.691 301.85C137.021 302.51 137.371 303.25 137.741 304.07C138.111 304.89 138.471 305.79 138.831 306.76H138.431C138.351 305.84 138.281 304.94 138.241 304.04C138.201 303.14 138.171 302.3 138.151 301.51C138.131 300.72 138.121 300.06 138.121 299.52V285.83H141.391V309.88H137.651L130.531 297.08C130.151 296.38 129.781 295.68 129.421 294.96C129.061 294.25 128.661 293.43 128.221 292.5C127.781 291.57 127.251 290.44 126.611 289.1H127.121C127.171 290.28 127.211 291.39 127.261 292.42C127.311 293.45 127.341 294.36 127.371 295.15C127.401 295.94 127.411 296.57 127.411 297.05V309.88H124.141Z" fill="black"/>
<path d="M163.8 285.83V309.88H160.57V285.83H163.8ZM167.43 309.88H162.22V306.65H167.26C168.86 306.65 170.18 306.31 171.24 305.63C172.3 304.95 173.09 303.95 173.62 302.64C174.15 301.32 174.41 299.72 174.41 297.82C174.41 295.92 174.15 294.34 173.62 293.04C173.1 291.74 172.32 290.75 171.28 290.07C170.25 289.39 168.96 289.05 167.42 289.05H162.1V285.82H167.64C169.72 285.82 171.5 286.3 172.98 287.26C174.46 288.22 175.6 289.59 176.39 291.38C177.18 293.17 177.58 295.32 177.58 297.81C177.58 300.3 177.18 302.47 176.38 304.27C175.58 306.07 174.43 307.45 172.91 308.42C171.39 309.39 169.57 309.87 167.42 309.87L167.43 309.88Z" fill="black"/>
<path d="M204.42 310.25C202.73 310.25 201.25 309.88 199.99 309.14C198.72 308.4 197.75 307.38 197.05 306.08C196.35 304.78 196.01 303.29 196.01 301.62V285.83H199.24V301.31C199.24 302.4 199.45 303.36 199.87 304.2C200.29 305.04 200.89 305.7 201.66 306.19C202.43 306.67 203.35 306.92 204.42 306.92C205.49 306.92 206.39 306.68 207.16 306.19C207.93 305.7 208.52 305.04 208.94 304.2C209.36 303.36 209.56 302.4 209.56 301.31V285.83H212.8V301.62C212.8 303.3 212.45 304.79 211.76 306.08C211.07 307.38 210.09 308.4 208.83 309.14C207.57 309.88 206.1 310.25 204.42 310.25Z" fill="black"/>
<path d="M239.051 310.29C237.471 310.29 236.101 310 234.941 309.43C233.781 308.86 232.871 308.04 232.211 306.98C231.551 305.92 231.191 304.66 231.131 303.19H234.371C234.441 304.06 234.681 304.78 235.111 305.35C235.541 305.92 236.101 306.35 236.791 306.63C237.481 306.91 238.221 307.05 239.031 307.05C239.931 307.05 240.721 306.89 241.421 306.57C242.111 306.25 242.661 305.8 243.071 305.21C243.481 304.62 243.681 303.94 243.681 303.17C243.681 302.47 243.501 301.9 243.151 301.45C242.801 301 242.321 300.63 241.721 300.34C241.121 300.05 240.441 299.78 239.671 299.56L237.211 298.78C235.481 298.25 234.131 297.47 233.171 296.44C232.211 295.41 231.721 294.07 231.721 292.42C231.721 291.03 232.051 289.82 232.701 288.78C233.361 287.74 234.251 286.93 235.381 286.36C236.511 285.78 237.781 285.5 239.201 285.5C240.621 285.5 241.921 285.79 243.021 286.36C244.121 286.94 244.981 287.72 245.611 288.72C246.241 289.72 246.571 290.86 246.591 292.14H243.451C243.351 291.04 242.901 290.19 242.111 289.59C241.321 288.99 240.331 288.69 239.131 288.69C238.281 288.69 237.541 288.84 236.911 289.14C236.281 289.44 235.801 289.86 235.451 290.39C235.111 290.92 234.931 291.53 234.931 292.21C234.931 292.97 235.141 293.59 235.551 294.06C235.961 294.53 236.461 294.9 237.051 295.17C237.641 295.44 238.201 295.66 238.741 295.82L240.791 296.43C241.461 296.62 242.151 296.89 242.861 297.21C243.571 297.53 244.231 297.96 244.841 298.49C245.441 299.01 245.931 299.66 246.311 300.43C246.691 301.2 246.871 302.13 246.871 303.21C246.871 304.57 246.561 305.78 245.951 306.84C245.341 307.91 244.451 308.74 243.281 309.35C242.111 309.96 240.701 310.26 239.051 310.26V310.29Z" fill="black"/>
<path d="M264.15 288.99V285.83H280.53V288.99H273.97V309.88H270.73V288.99H264.15Z" fill="black"/>
<path d="M298.641 309.88V285.83H306.201C307.821 285.83 309.181 286.15 310.261 286.79C311.341 287.43 312.161 288.32 312.701 289.46C313.241 290.6 313.511 291.91 313.511 293.38C313.511 294.85 313.241 296.17 312.701 297.28C312.161 298.39 311.341 299.26 310.261 299.87C309.181 300.48 307.811 300.79 306.181 300.79H300.501V297.64H305.871C306.911 297.64 307.751 297.47 308.381 297.13C309.021 296.79 309.491 296.3 309.791 295.67C310.091 295.04 310.241 294.27 310.241 293.38C310.241 292.49 310.091 291.7 309.791 291.04C309.491 290.38 309.021 289.88 308.371 289.51C307.731 289.15 306.881 288.97 305.831 288.97H301.871V309.88H298.641ZM310.641 309.88L305.531 299.02H309.111L314.311 309.88H310.641Z" fill="black"/>
<path d="M335.169 285.83V309.88H331.939V285.83H335.169Z" fill="black"/>
<path d="M354.34 309.88V285.83H367.62V288.99H357.57V296.16H366.9V299.31H357.57V306.72H367.71V309.88H354.34Z" fill="black"/>
<path d="M393.41 310.29C391.83 310.29 390.46 310 389.3 309.43C388.14 308.86 387.23 308.04 386.57 306.98C385.91 305.92 385.55 304.66 385.49 303.19H388.73C388.8 304.06 389.04 304.78 389.47 305.35C389.9 305.92 390.46 306.35 391.15 306.63C391.84 306.91 392.59 307.05 393.39 307.05C394.29 307.05 395.08 306.89 395.78 306.57C396.47 306.25 397.02 305.8 397.43 305.21C397.84 304.62 398.04 303.94 398.04 303.17C398.04 302.47 397.86 301.9 397.51 301.45C397.16 301 396.68 300.63 396.08 300.34C395.48 300.05 394.8 299.78 394.03 299.56L391.57 298.78C389.84 298.25 388.49 297.47 387.53 296.44C386.57 295.41 386.08 294.07 386.08 292.42C386.08 291.03 386.41 289.82 387.06 288.78C387.72 287.74 388.61 286.93 389.74 286.36C390.87 285.78 392.14 285.5 393.56 285.5C394.98 285.5 396.28 285.79 397.38 286.36C398.48 286.94 399.34 287.72 399.97 288.72C400.6 289.72 400.93 290.86 400.95 292.14H397.81C397.71 291.04 397.26 290.19 396.47 289.59C395.68 288.99 394.69 288.69 393.49 288.69C392.64 288.69 391.9 288.84 391.27 289.14C390.64 289.44 390.16 289.86 389.81 290.39C389.47 290.92 389.29 291.53 389.29 292.21C389.29 292.97 389.5 293.59 389.91 294.06C390.32 294.53 390.82 294.9 391.41 295.17C392 295.44 392.56 295.66 393.1 295.82L395.15 296.43C395.82 296.62 396.51 296.89 397.22 297.21C397.93 297.53 398.59 297.96 399.2 298.49C399.8 299.01 400.29 299.66 400.67 300.43C401.04 301.2 401.23 302.13 401.23 303.21C401.23 304.57 400.92 305.78 400.31 306.84C399.7 307.91 398.81 308.74 397.64 309.35C396.47 309.96 395.06 310.26 393.41 310.26V310.29Z" fill="black"/>
<path d="M234.57 341.901V326.541H239.4C240.44 326.541 241.3 326.761 241.99 327.201C242.68 327.641 243.2 328.231 243.55 328.981C243.9 329.731 244.07 330.581 244.07 331.531C244.07 332.481 243.9 333.331 243.55 334.081C243.2 334.831 242.68 335.431 241.99 335.861C241.3 336.301 240.43 336.511 239.39 336.511H236.09V334.521H239.19C239.85 334.521 240.39 334.391 240.8 334.131C241.21 333.871 241.51 333.511 241.7 333.061C241.89 332.611 241.98 332.101 241.98 331.521C241.98 330.941 241.89 330.431 241.7 329.981C241.51 329.531 241.21 329.181 240.8 328.921C240.39 328.671 239.85 328.541 239.18 328.541H236.65V341.891H234.59L234.57 341.901Z" fill="black"/>
<path d="M246.461 341.901V326.541H248.521V339.881H254.621V341.901H246.461Z" fill="black"/>
<path d="M262 342.11C260.84 342.11 259.8 341.8 258.88 341.17C257.96 340.54 257.24 339.64 256.72 338.46C256.2 337.28 255.93 335.88 255.93 334.24C255.93 332.6 256.19 331.19 256.72 330.01C257.24 328.83 257.96 327.93 258.88 327.29C259.8 326.66 260.84 326.34 262 326.34C262.71 326.34 263.38 326.46 264 326.69C264.62 326.92 265.18 327.26 265.67 327.71C266.16 328.16 266.57 328.7 266.89 329.34C267.21 329.98 267.43 330.7 267.55 331.51H265.48C265.4 331.02 265.25 330.59 265.03 330.22C264.82 329.85 264.56 329.53 264.25 329.27C263.94 329.01 263.6 328.81 263.22 328.68C262.84 328.55 262.44 328.48 262.02 328.48C261.25 328.48 260.56 328.7 259.94 329.14C259.33 329.58 258.85 330.23 258.5 331.09C258.15 331.95 257.98 332.99 257.98 334.23C257.98 335.47 258.16 336.51 258.51 337.37C258.86 338.23 259.35 338.87 259.96 339.31C260.57 339.75 261.26 339.97 262.02 339.97C262.44 339.97 262.84 339.9 263.22 339.77C263.6 339.64 263.94 339.44 264.25 339.18C264.56 338.92 264.82 338.6 265.04 338.23C265.26 337.86 265.4 337.42 265.49 336.94H267.57C267.47 337.7 267.26 338.39 266.95 339.02C266.64 339.65 266.24 340.2 265.75 340.66C265.26 341.13 264.7 341.49 264.07 341.74C263.44 341.99 262.75 342.12 262.01 342.12L262 342.11Z" fill="black"/>
<path d="M229.03 332.01H98.7695V334.71H229.03V332.01Z" fill="#ECCC75"/>
<path d="M401.09 332.01H270.83V334.71H401.09V332.01Z" fill="#ECCC75"/>
</g>
<defs>
<clipPath id="clip0_11_9154">
<rect width="302.46" height="184.22" fill="white" transform="translate(98.7695 157.89)"/>
</clipPath>
</defs>
</svg>
