<svg width="500" height="500" viewBox="0 0 500 500" fill="none" xmlns="http://www.w3.org/2000/svg">
<rect width="500" height="500" fill="white"/>
<g clip-path="url(#clip0_11_9184)">
<path d="M441.785 128.72L439.915 131.72C439.785 131.93 439.585 132.09 439.355 132.17L366.445 159.39C365.215 159.85 365.645 161.69 366.955 161.54L386.135 159.41C386.555 159.37 386.965 159.56 387.195 159.91L389.625 163.65C384.335 165.02 308.825 184.92 223.335 227.38C137.445 270.05 95.0945 325.72 92.5245 329.16C92.8845 328.55 92.5745 327.72 91.8545 327.52L90.9245 327.27C90.4645 327.14 90.1345 326.73 90.1145 326.26L89.8145 321.15C89.7945 320.84 89.9045 320.52 90.1345 320.3L108.955 301.47C109.205 301.22 109.325 300.87 109.275 300.52L109.095 299.36C108.965 298.48 107.915 298.1 107.255 298.69L58.6445 342.21C57.9145 342.87 56.7445 342.31 56.7945 341.32L57.0045 337.24C57.0245 336.98 57.1245 336.74 57.2945 336.55L88.0345 302.82C88.0345 302.82 88.1045 302.76 88.1445 302.72L129.955 267.45C130.145 267.28 130.275 267.06 130.325 266.81L132.435 256.1C132.485 255.85 132.615 255.62 132.815 255.46L151.645 239.73C151.815 239.6 151.935 239.42 151.995 239.21L155.735 227.48C155.805 227.23 155.965 227.03 156.175 226.89C161.755 223.23 237.185 173.82 237.735 173.64C238.285 173.46 326.555 127.88 330.055 126.07C330.125 126.04 330.195 126.01 330.275 125.99L349.215 121.01C350.445 120.69 351.175 122.33 350.105 123.02L322.965 140.6C322.865 140.67 322.775 140.75 322.705 140.84L322.365 141.27C321.655 142.16 322.565 143.41 323.625 143.01L399.535 114.07C399.715 114.01 399.905 113.98 400.085 114.01L415.065 116.09C416.165 116.24 416.385 117.73 415.385 118.2L370.495 139.05C369.675 139.43 369.625 140.57 370.395 141.02C370.575 141.12 370.765 141.18 370.965 141.18C371.065 141.18 371.175 141.16 371.275 141.13L430.335 123.67C430.555 123.61 430.795 123.61 431.005 123.68L441.195 127.08C441.875 127.3 442.165 128.11 441.785 128.72Z" fill="#E23730"/>
<path d="M374.036 237.79L369.456 243.8C369.246 244.07 368.926 244.23 368.576 244.24L354.226 244.41C353.696 244.41 353.236 244.79 353.146 245.32L351.136 256.04C351.076 256.31 350.926 256.56 350.706 256.73L346.006 260.25C345.856 260.36 345.686 260.43 345.496 260.46L336.256 261.8C335.766 261.88 335.376 262.26 335.306 262.75L334.036 271.5C333.966 271.97 333.616 272.34 333.156 272.43L323.946 274.31C323.326 274.43 322.936 275.05 323.086 275.66L325.286 284.78C325.386 285.19 325.246 285.63 324.916 285.9L318.206 291.43C318.026 291.58 317.796 291.67 317.556 291.68L299.836 292.59C299.606 292.6 299.376 292.69 299.196 292.84L277.596 310.37C277.506 310.45 277.396 310.51 277.276 310.55L220.856 331.17C220.856 331.17 220.776 331.2 220.736 331.23L186.196 348.86C185.736 349.1 185.166 348.98 184.836 348.59L181.776 344.94C181.566 344.7 181.476 344.38 181.526 344.06L181.796 342.28C181.906 341.54 181.276 340.9 180.536 341.01L172.266 342.21C171.896 342.27 171.516 342.13 171.266 341.84L167.176 337.12C166.926 336.83 166.546 336.69 166.166 336.74L163.236 337.18C163.086 337.21 162.936 337.26 162.806 337.34L153.306 343.26C153.126 343.37 152.916 343.43 152.706 343.42C150.656 343.39 139.716 343.22 140.226 343.05C140.596 342.93 143.726 337.86 145.836 334.39C146.406 333.44 145.396 332.33 144.396 332.81L133.136 338.23C132.976 338.31 132.796 338.34 132.616 338.34L127.756 338.19C137.286 329.57 215.136 261.56 332.546 229.97C332.516 230.3 332.636 230.64 332.906 230.88L336.906 234.45C337.156 234.68 337.506 234.78 337.846 234.72L367.176 229.29C367.566 229.22 367.966 229.36 368.226 229.66L373.996 236.39C374.336 236.79 374.356 237.38 374.036 237.79Z" fill="#383F83"/>
<path d="M395.476 174.46L385.686 182.71C385.566 182.81 385.416 182.89 385.266 182.93L327.606 198.98C327.426 199.03 327.266 199.12 327.136 199.25L316.426 209.51C315.636 210.27 316.306 211.6 317.386 211.41L339.056 207.61C339.386 207.56 339.716 207.65 339.966 207.85L346.556 213.34C347.056 213.76 347.096 214.51 346.646 214.98L332.846 229.28C332.656 229.47 332.556 229.72 332.546 229.97C215.136 261.56 137.286 329.57 127.756 338.19L121.256 337.99C120.886 337.98 120.536 337.77 120.336 337.45L115.686 329.69C115.326 329.1 114.526 328.97 114.006 329.42L95.1756 345.61C94.9756 345.78 94.7156 345.88 94.4456 345.88H87.3956C86.8256 345.88 86.3456 345.45 86.2856 344.89L85.5056 337.89C85.4756 337.58 85.5656 337.27 85.7656 337.04L92.4056 329.33C92.4056 329.33 92.4456 329.27 92.5256 329.16C95.0956 325.72 137.446 270.05 223.336 227.38C308.826 184.92 384.336 165.02 389.626 163.65L395.696 173C395.996 173.48 395.906 174.1 395.476 174.46Z" fill="#F7BF2A"/>
</g>
<defs>
<clipPath id="clip0_11_9184">
<rect width="385.16" height="234.99" fill="white" transform="translate(56.7949 114)"/>
</clipPath>
</defs>
</svg>
