<svg width="500" height="500" viewBox="0 0 500 500" fill="none" xmlns="http://www.w3.org/2000/svg">
<rect width="500" height="500" fill="white"/>
<g clip-path="url(#clip0_11_9192)">
<path d="M249.994 347.22C345.037 347.22 422.084 303.693 422.084 250C422.084 196.307 345.037 152.78 249.994 152.78C154.952 152.78 77.9043 196.307 77.9043 250C77.9043 303.693 154.952 347.22 249.994 347.22Z" fill="#E67334"/>
<path d="M158.525 275.19C154.385 274.21 172.405 222.58 172.405 222.58C160.625 215.39 143.395 245.86 139.895 252.33C139.635 252.82 138.915 252.82 138.655 252.32C136.425 248.04 129.555 232.19 122.845 221.29C118.825 214.77 114.215 210.56 112.475 210.16C107.365 208.94 105.175 214.05 105.175 214.05L103.715 216.73C108.305 216.08 115.725 223.15 118.095 227.13L118.155 227.18C120.215 230.66 120.895 234.79 120.055 238.75C117.555 250.47 112.015 274.93 109.065 276.41C105.975 277.95 105.645 279.8 105.635 280.5H118.485C119.155 279.54 116.125 277.63 116.125 277.63L124.785 246.94L134.775 271.18C135.335 272.46 137.095 272.58 137.815 271.37L153.145 245.97C153.145 245.97 145.835 276.42 153.395 280.31C160.935 284.2 168.495 276.17 166.785 271.78C165.075 267.39 162.645 276.17 158.505 275.2L158.525 275.19Z" fill="black"/>
<path d="M212.535 232.86C212.155 229.21 209.885 224.25 205.045 223.04C198.955 221.53 193.645 223.61 189.125 227.1C186.605 229.07 184.325 231.46 182.275 233.89C176.695 240.61 173.385 249.15 171.595 257.7C169.845 266.06 169.695 277.78 178.905 281.64C179.575 281.92 180.285 282.14 181.005 282.3C190.435 284.33 198.095 274.6 202.435 267.65C205.525 262.71 207.995 257.38 209.945 251.88C211.985 246.08 213.155 239.07 212.535 232.86ZM200.425 255.05C196.475 268.88 189.365 278.96 184.535 277.59C179.705 276.21 178.995 263.87 182.945 250.05C186.905 236.23 194.025 226.14 198.845 227.52C203.675 228.9 204.385 241.22 200.425 255.04V255.05Z" fill="black"/>
<path d="M322.944 280.91C323.654 281.09 324.394 281.19 325.114 281.23C334.744 281.76 340.794 270.95 343.984 263.41C346.264 258.04 347.874 252.39 348.934 246.66C350.044 240.61 350.104 233.5 348.514 227.47C347.574 223.92 344.544 219.39 339.574 218.94C333.314 218.4 328.404 221.29 324.494 225.44C322.314 227.78 320.434 230.5 318.794 233.22C314.334 240.73 312.404 249.68 311.974 258.41C311.554 266.94 313.234 278.54 322.944 280.91ZM321.984 249.08C323.734 234.81 329.184 223.73 334.164 224.34C339.144 224.95 341.774 237.01 340.024 251.28C338.294 265.56 332.834 276.63 327.854 276.03C322.874 275.42 320.234 263.35 321.974 249.08H321.984Z" fill="black"/>
<path d="M261.556 298.48C248.166 287.27 237.336 252.71 237.336 252.71C248.906 242.11 253.606 234.75 250.856 228.95C247.506 221.88 239.406 220.06 233.196 220.06H217.846L223.446 225.42C223.446 225.42 210.786 270.24 209.806 274.14C209.206 276.52 206.606 278.18 204.686 279.11C204.656 279.12 204.626 279.14 204.596 279.15V279.99L227.796 279.97L227.836 277.55L219.796 276.32L235.146 228.09C255.116 233.21 228.326 256.84 228.326 256.84C228.326 256.84 240.126 319.66 297.256 317.72C352.046 315.87 381.456 290.31 381.456 290.31L372.156 282.83C305.406 323.99 272.556 307.67 261.556 298.47V298.48Z" fill="black"/>
<path d="M249.744 279.94H275.654L267.844 276.52L275.154 219.52H259.804L264.114 223.92L257.174 275.56L249.744 279.94Z" fill="black"/>
<path d="M279.064 274.34C281.884 277.14 286.184 279.12 290.094 279.78C294.204 280.47 298.454 279.44 301.874 277.15C305.584 274.66 308.484 270.78 309.314 266.34C310.294 261.09 308.074 256.07 304.494 252.3C299.204 246.72 291.434 239.33 290.364 231.24C289.644 225.78 298.514 217.06 302.154 224.08C303.514 226.7 303.614 230.23 303.394 233.12C303.024 232.94 311.794 233.67 311.794 233.67C311.904 233.16 311.994 232.65 312.064 232.14C313.304 222.6 305.154 214.89 295.694 217.58C283.764 220.97 276.924 235.35 284.664 245.69C286.884 248.65 289.624 251.17 292.374 253.63C293.694 254.82 295.124 255.89 296.304 257.24C298.464 259.71 299.414 263.15 299.664 266.38C299.874 269.13 299.504 272.42 297.254 274.32C295.074 276.15 292.004 275.76 289.614 274.59C286.944 273.28 285.414 271.22 284.364 268.5C283.694 266.77 283.024 264.95 282.754 263.1C282.744 263.11 276.364 269.49 276.364 269.49C275.724 270.13 277.924 273.07 278.234 273.44C278.504 273.76 278.784 274.07 279.074 274.36L279.064 274.34Z" fill="black"/>
<path d="M393.174 216.22C392.334 213.19 375.114 214.85 373.934 220.36C372.754 225.85 379.714 219.63 381.974 219.75C387.394 220.04 374.664 247.27 374.664 247.27C374.664 247.27 365.164 188.81 349.454 213.05C349.454 213.05 354.804 215.3 356.954 222.98C358.054 226.89 358.324 232.21 356.634 239.36C351.644 260.55 346.034 276.87 346.034 276.87L339.334 279.55H359.794L354.314 276.38L363.314 245.06C363.314 245.06 376.554 290.88 384.764 287.7C392.314 284.78 377.214 275.52 377.094 271.01C376.904 264.04 394.724 221.78 393.174 216.2V216.22Z" fill="black"/>
</g>
<defs>
<clipPath id="clip0_11_9192">
<rect width="344.19" height="194.44" fill="white" transform="translate(77.9043 152.78)"/>
</clipPath>
</defs>
</svg>
