<svg width="500" height="500" viewBox="0 0 500 500" fill="none" xmlns="http://www.w3.org/2000/svg">
<rect width="500" height="500" fill="white"/>
<g clip-path="url(#clip0_11_7376)">
<path d="M137.84 341.14V299.75C137.84 293.01 143.3 287.55 150.04 287.55C154.23 287.55 158.12 289.7 160.36 293.24L181.48 326.7L201.01 294.96C203.23 291.35 207.17 289.15 211.4 289.15H212.91C219.65 289.15 225.11 294.61 225.11 301.35V340.81H211.31V308.85C211.31 307.72 210.39 306.8 209.26 306.8H208.72C207.95 306.8 207.24 307.23 206.89 307.91L190.13 340.49H175.05L154.15 306.18C153.78 305.57 153.11 305.19 152.4 305.19C151.27 305.19 150.35 306.11 150.35 307.24V341.13H137.83L137.84 341.14Z" fill="#231F20"/>
<path d="M355.97 308.72H319.47C316.98 308.72 314.97 306.71 314.97 304.24C314.97 303 315.46 301.87 316.28 301.05C317.1 300.25 318.22 299.74 319.47 299.74H362.79V288.2H310.33C305.27 288.2 301.18 292.3 301.18 297.35V311.74C301.18 316.1 304.71 319.63 309.07 319.63H345.47C348.11 319.63 350.28 321.8 350.28 324.45C350.28 325.78 349.73 326.97 348.87 327.86C348 328.71 346.81 329.26 345.48 329.26H302.06C301.05 329.26 300.22 330.08 300.22 331.1V335.49C300.22 335.95 299.85 336.32 299.39 336.32H295.92C295.68 336.32 295.46 336.22 295.3 336.04L282.74 321.93C286.01 321.93 289 320.6 291.14 318.44C293.3 316.29 294.63 313.31 294.63 310.02V300.44C294.63 293.86 289.31 288.54 282.73 288.52H230.26V340.82H244.7V320.6H265.55L284.17 339.22H356.38C360.1 339.22 363.11 336.21 363.11 332.49V315.87C363.11 311.93 359.91 308.73 355.97 308.73V308.72ZM276.29 310.83H243.73V299.44L276.33 299.58C277.88 299.58 279.28 300.21 280.29 301.23C281.31 302.25 281.93 303.65 281.93 305.2C281.93 308.3 279.42 310.83 276.3 310.83H276.29Z" fill="#231F20"/>
<path d="M361.61 352.75C339.86 376.14 298.07 391.96 250.1 391.96C202.13 391.96 160.33 376.14 138.57 352.75H361.61Z" fill="#820024"/>
<path d="M359.77 277.01H140.43C162.64 254.68 203.44 239.73 250.1 239.73C296.76 239.73 337.54 254.68 359.77 277.01Z" fill="#820024"/>
<path d="M250 216.66C164.4 216.66 95 261.31 95 316.37C95 371.43 164.4 416.08 250 416.08C335.6 416.08 405 371.45 405 316.37C405 261.29 335.6 216.66 250 216.66ZM250 403.57C171.15 403.57 107.23 364.53 107.23 316.37C107.23 268.21 171.16 229.19 250 229.19C328.84 229.19 392.77 268.21 392.77 316.37C392.77 364.53 328.84 403.57 250 403.57Z" fill="#FFCC07"/>
<path d="M307.16 187.36C306.92 186.47 306.87 185.67 306.94 184.91L306.92 184.93L306.95 184.49L307.24 181.11C307.26 179.44 308.42 178.01 310.04 177.62C312.27 177.07 315.12 176.38 315.79 176.12C315.79 176.12 315.796 176.11 315.81 176.09C316.56 173.46 316.22 160.73 313.08 160.1C311.1 159.72 304.03 164.57 298.04 167.94C298.04 167.94 290.01 173.84 286.67 173.84C286.41 173.84 286.19 173.81 285.99 173.72C282.89 172.49 284.01 170.96 281.06 170.77C280.91 170.75 280.72 170.75 280.53 170.75C279.35 170.77 278.26 171.02 277.24 171.76C276 172.65 275.23 174.08 274.92 175.58L268.6 207.56V207.59C268.82 209.69 269.32 211.39 270.17 212.45C271.91 214.63 283.11 220.31 283.76 221.06C284.49 221.9 284.75 222.58 284.65 223.11H271.05C270.01 223.11 269.09 222.38 268.97 221.35C268.7 218.86 266.19 216.17 264.55 214.02C264.55 214.02 264.543 214.01 264.53 213.99V175.53C264.53 175.53 264.5 175.46 264.46 175.46C249.8 176.59 235.62 173.72 221.43 170.58C221.4 170.56 221.38 170.58 221.36 170.6C218.8 174.86 206.87 184.51 205.61 187.38C204.81 189.19 208.64 191.23 208.35 194.93C207.96 200.01 198.31 204.9 202.28 211.24C203.49 213.18 212 217.19 214.64 219.27C216 220.36 217.78 219.25 216.81 223.11C216.81 223.13 216.79 223.16 216.79 223.18L212.66 223.11L208.02 223.02C208.02 223.02 207.99 223 207.97 222.99L206.64 220.31C206.64 220.31 206.61 220.28 206.59 220.28H202.38C202.38 220.28 202.33 220.26 202.31 220.25C199.82 214.35 196.68 210.06 195.41 202.81C194.37 196.98 195.48 190.69 193.88 185.59C192.48 181.06 186.91 179.04 186.09 174.61C184.9 169.58 193.23 173.13 194.6 172.07C194.62 172.05 194.63 172.02 194.62 171.98C191.74 162.11 185.53 153.98 190.44 143.1C192.47 138.63 202.87 134.71 198.42 130.33C195.25 127.21 189.83 128.74 188.33 132.96C184.17 144.65 186.3 171.71 169.29 172.02C169.22 172.02 169.19 171.93 169.24 171.88C185.95 158.5 169.34 144.76 172.89 127.25C176.69 108.6 205.3 112.28 203.2 132.74C203.18 132.79 203.23 132.83 203.29 132.81C217.93 127.39 233.36 138.91 247.63 135.5C259.75 132.6 259.55 120.19 264.25 111.22C267.78 104.5 287.28 77.1804 296.54 85.4804L297.82 94.3804C299.39 94.9304 300.65 95.9104 301.69 97.0904L301.71 97.1104C304.86 100.74 305.72 106.16 305.72 106.16C309.35 112.57 318.76 116.44 309.23 122.65C307.64 123.67 305.53 123.25 304.44 121.71C302.19 118.57 300.42 115.81 297.93 114.35C297.98 114.33 298.02 114.32 298.07 114.3H297.85C297.85 114.3 297.92 114.32 297.94 114.35C293.25 116.19 289.21 114.47 288.61 114.2C288.56 114.18 288.52 114.2 288.52 114.27C288.83 119.26 287.58 125.54 288.47 130.24C289.66 136.56 301.61 143.61 296.99 154.91C296.97 154.96 297.01 155 297.04 155L315.98 156.41C317.39 156.51 318.71 157.55 318.74 158.95C319.08 170.73 322.47 183.67 307.18 187.39L307.16 187.36Z" fill="black"/>
</g>
<defs>
<clipPath id="clip0_11_7376">
<rect width="310" height="332.18" fill="white" transform="translate(95 83.9102)"/>
</clipPath>
</defs>
</svg>
