<svg width="500" height="500" viewBox="0 0 500 500" fill="none" xmlns="http://www.w3.org/2000/svg">
<rect width="500" height="500" fill="white"/>
<g clip-path="url(#clip0_11_8957)">
<path d="M185.444 174.15C202.774 159.23 225.324 150.2 249.994 150.2C274.664 150.2 299.114 160 316.714 176.04L327.904 167.82L373.124 134.62C342.424 101.64 298.624 81 249.984 81C201.344 81 159.404 100.79 128.824 132.58L174.164 165.86L185.444 174.14V174.15Z" fill="#007CC2"/>
<path d="M386.754 151.28L340.484 182.08L329.104 189.65L251.104 241.55L172.144 188.03L160.824 180.36L114.804 149.16C94.0645 177.1 81.8145 211.72 81.8145 249.2C81.8145 314.04 118.514 370.32 172.264 398.38L207.514 353.54C166.344 336.78 137.344 296.37 137.344 249.2C137.344 243.07 137.824 237.04 138.794 231.18L151.594 238.37L249.784 293.49L348.374 238.16L361.174 230.97C362.144 236.89 362.654 242.99 362.654 249.2C362.654 296.71 333.224 337.38 291.594 353.9L326.884 398.82C381.124 370.91 418.204 314.4 418.204 249.2C418.204 212.67 406.564 178.86 386.774 151.28H386.754Z" fill="#014B92"/>
</g>
<defs>
<clipPath id="clip0_11_8957">
<rect width="336.37" height="317.82" fill="white" transform="translate(81.8145 81)"/>
</clipPath>
</defs>
</svg>
