<svg width="500" height="500" viewBox="0 0 500 500" fill="none" xmlns="http://www.w3.org/2000/svg">
<rect width="500" height="500" fill="white"/>
<g clip-path="url(#clip0_11_8950)">
<path d="M255.97 113.67C251.19 110.12 246.7 110.4 241.89 113.47C224.5 124.56 218.29 159.37 211.94 178C211.63 178.91 211.75 180.62 210.48 180.42C212.76 164.78 216.01 149.09 214.84 133.15C214.04 122.21 208.5 105.52 194.42 112.79C176.83 121.88 169.42 160.38 163.41 178C163.1 178.91 163.22 180.62 161.95 180.42C163.42 161.1 173.17 138.71 170.54 119.39C170.34 117.98 168.64 113 167.79 112.18C162.67 107.22 153.98 119.24 151.71 122.95C143.74 135.95 139.65 152.31 135.94 167C135.68 168.52 137.09 167.77 137.55 166.87C142.42 157.28 145.62 143.75 152.9 135.42C153.08 135.21 153.24 135 153.4 134.8C154.2 133.78 155.83 134.34 155.86 135.64C155.89 137.13 155.97 138.63 155.85 140.12C151.66 190.77 132.45 244.1 125.78 294.64C125.37 297.74 125.38 299.51 125.01 302.95C124.9 303.99 125.73 304.89 126.78 304.85L138.52 304.35C145.04 259.28 154.22 214.15 169.71 171.3C172.39 163.91 182.52 136.04 188.47 132.86C200.06 126.69 200.34 153.21 200.05 159.17C197.95 203.35 178.18 253.11 174.17 297.09C173.96 299.33 173.88 301.57 174.19 303.8L174.87 304.85L186.93 304.23C192.84 265.72 200.2 227.3 211.96 190.15C215.86 177.83 226.88 143.43 234.73 134.91C247.38 121.19 248.89 152.37 248.58 159.16C246.92 196.12 232.22 240.68 226.33 278.19C225.39 284.21 222.05 302.65 230.14 305.05C241.66 308.46 251.39 281.09 254.02 272.95C255.6 268.07 258.41 259.26 258.94 254.45C259.13 252.73 258.76 253.18 257.26 253.21C253.82 265.67 247.88 277.17 240.77 287.87L239.05 287.45C239.15 285.72 238.9 283.95 239.02 282.22C241.96 240.41 260.9 193.55 263.35 150.54C263.9 140.85 264.42 119.97 255.96 113.66L255.97 113.67Z" fill="#B9944E"/>
<path d="M375.09 339.53C374.86 338.68 373.71 337.68 372.96 339.02C371.61 347.84 365.11 359.58 357.21 364.01C349.21 368.49 348.48 361.36 346.81 354.8C345.05 347.92 343.44 340.97 341.92 333.96C341.92 333.92 341.9 333.87 341.89 333.83L322.61 228.39C327.39 216.82 330.87 203.97 335.05 191.86L335.79 189.78C337.36 185.36 339.03 181.06 340.92 176.98C345.04 168.06 354.69 159.73 359.7 172.91C361.73 178.25 362.85 188.13 363.02 193.9C363.11 196.86 362.65 198.27 362.11 201.65C361.86 203.23 362.17 203.09 363.52 202.99C363.72 202.98 363.89 202.83 363.92 202.63C365.91 190.51 367.6 176.76 366.37 164.5C364.52 145.94 353.25 142.1 343.79 159.05C339.39 166.95 336.02 176.21 332.9 185.72C332.86 185.83 332.82 185.95 332.78 186.08L321.04 219.77L314.36 183.24C313.8 179.63 313.18 176.05 312.47 172.48C310.97 164.98 308 146.08 296.9 148.54C283.99 151.39 280.19 189.52 280.68 200.37C283.29 200.79 282.07 199.73 282.43 198.26C284.03 191.77 285.71 179.31 289.48 174.07C295.25 166.02 297.71 178.76 298.6 182.88C299.66 187.7 300.53 192.6 301.3 197.54L311.14 248.23L298.43 284.75C296.17 291.93 293.77 298.96 290.87 305.46C286.74 314.78 273.35 321.33 271.35 308.93C270.96 306.48 272.38 300.3 269.43 300.91C268.09 302.19 263.9 334.55 264.3 337.66C265.33 345.8 273.36 345.29 278.51 340.77C283.79 336.13 289.42 322.03 294.66 306.86L295.14 305.48L309.97 263.29L312.61 255.78L331.22 351.74C331.54 353.14 331.86 354.54 332.18 355.94C332.65 357.83 333.08 360.9 333.68 364.43C335.45 374.98 338.55 389.62 347.62 389.11C358.9 388.46 368.3 370.24 371.26 360.72C372.35 357.22 375.8 342.22 375.11 339.55L375.09 339.53Z" fill="#B9944E"/>
</g>
<defs>
<clipPath id="clip0_11_8950">
<rect width="250.19" height="278.11" fill="white" transform="translate(125 111)"/>
</clipPath>
</defs>
</svg>
