<svg width="500" height="500" viewBox="0 0 500 500" fill="none" xmlns="http://www.w3.org/2000/svg">
<rect width="500" height="500" fill="white"/>
<g clip-path="url(#clip0_11_8755)">
<path d="M111.557 164.851H383.987C394.927 164.851 403.807 173.731 403.807 184.671V293.861H91.7373V184.671C91.7373 173.731 100.617 164.851 111.557 164.851Z" fill="#FFF699"/>
<path d="M91.7373 293.251H403.807V315.331C403.807 326.271 394.927 335.151 383.987 335.151H111.557C100.617 335.151 91.7373 326.271 91.7373 315.331V293.251Z" fill="#2D2997"/>
<path d="M131.408 215.26C131.408 214.32 131.538 213.45 131.788 212.64C132.038 211.83 132.398 211.13 132.868 210.54C133.338 209.95 133.898 209.49 134.568 209.16C135.238 208.84 135.978 208.67 136.808 208.67C137.818 208.67 138.648 208.88 139.318 209.29C139.988 209.7 140.478 210.32 140.798 211.15C141.118 211.98 141.288 213 141.288 214.23V231.94H149.548V212.56C149.548 210.15 149.128 208.16 148.278 206.6C147.428 205.03 146.278 203.87 144.828 203.12C143.378 202.37 141.708 201.99 139.838 201.99C137.858 201.99 136.108 202.47 134.578 203.42C133.318 204.2 132.278 205.34 131.418 206.79V202.91H123.158V231.95H131.418V215.27L131.408 215.26Z" fill="#2D2997"/>
<path d="M180.968 224.71V213.59C180.968 211.32 180.488 209.33 179.538 207.6C178.588 205.87 177.168 204.51 175.298 203.5C173.428 202.49 171.108 201.99 168.338 201.99C165.888 201.99 163.718 202.41 161.808 203.26C159.898 204.11 158.358 205.31 157.188 206.88C156.018 208.45 155.288 210.33 154.998 212.52H163.258C163.438 211.37 163.918 210.44 164.688 209.74C165.458 209.04 166.548 208.69 167.958 208.69C169.538 208.69 170.728 209.1 171.518 209.9C172.308 210.71 172.708 211.92 172.708 213.54V214.2C170.628 214.23 168.698 214.33 166.928 214.51C164.878 214.73 162.848 215.18 160.828 215.86C158.528 216.65 156.808 217.79 155.678 219.26C154.548 220.74 153.978 222.46 153.978 224.44C153.978 226.28 154.388 227.82 155.218 229.08C156.048 230.34 157.188 231.28 158.648 231.89C160.108 232.5 161.748 232.81 163.588 232.81C164.988 232.81 166.368 232.58 167.718 232.11C169.068 231.64 170.288 230.9 171.388 229.9C171.898 229.44 172.358 228.9 172.778 228.31C172.788 228.61 172.798 228.91 172.818 229.2C172.888 230.28 173.038 231.2 173.248 231.95H181.778C181.558 231.19 181.378 230.28 181.208 229.2C181.048 228.12 180.968 226.63 180.968 224.72V224.71ZM169.438 226.19C168.448 226.78 167.338 227.08 166.118 227.08C164.898 227.08 163.988 226.79 163.288 226.22C162.588 225.64 162.238 224.87 162.238 223.9C162.238 223.18 162.408 222.52 162.748 221.93C163.088 221.34 163.688 220.81 164.528 220.36C165.378 219.91 166.548 219.57 168.038 219.33C169.298 219.13 170.868 219.02 172.708 218.99V220.11C172.708 221.41 172.408 222.59 171.818 223.67C171.228 224.75 170.428 225.59 169.448 226.18L169.438 226.19Z" fill="#2D2997"/>
<path d="M195.098 225.59H186.848V231.94H195.098V225.59Z" fill="#2D2997"/>
<path d="M213.238 212.56V231.94H204.988V214.24C204.988 213.01 204.828 211.99 204.498 211.16C204.178 210.33 203.678 209.71 203.018 209.3C202.348 208.89 201.518 208.67 200.498 208.67C199.678 208.67 198.928 208.83 198.258 209.16C197.598 209.48 197.028 209.95 196.558 210.54C196.088 211.13 195.728 211.83 195.478 212.64C195.228 213.45 195.098 214.33 195.098 215.26V218.69H186.848V193.08H195.098V206.79C195.948 205.33 196.998 204.19 198.258 203.42C199.798 202.47 201.548 201.98 203.528 201.98C205.398 201.98 207.068 202.36 208.528 203.12C209.978 203.88 211.138 205.03 211.978 206.6C212.818 208.17 213.248 210.16 213.248 212.57L213.238 212.56Z" fill="#2D2997"/>
<path d="M224.198 230.94C226.318 232.18 228.818 232.8 231.698 232.8C235.078 232.8 237.978 231.91 240.388 230.13C242.798 228.35 244.308 225.64 244.918 222.01H236.658C236.338 223.38 235.758 224.4 234.928 225.09C234.098 225.77 233.078 226.12 231.848 226.12C229.978 226.12 228.548 225.37 227.558 223.88C226.568 222.39 226.078 220.24 226.078 217.43C226.078 214.62 226.548 212.42 227.478 210.93C228.418 209.44 229.798 208.69 231.638 208.69C232.828 208.69 233.858 209.04 234.738 209.74C235.618 210.44 236.208 211.66 236.488 213.38H244.748C244.428 210.83 243.648 208.7 242.428 207.01C241.208 205.32 239.668 204.06 237.808 203.23C235.958 202.4 233.898 201.99 231.628 201.99C228.788 201.99 226.308 202.59 224.208 203.8C222.098 205.01 220.478 206.75 219.318 209.04C218.168 211.33 217.588 214.12 217.588 217.43C217.588 220.74 218.158 223.33 219.288 225.63C220.418 227.93 222.048 229.71 224.178 230.95L224.198 230.94Z" fill="#2D2997"/>
<path d="M254.558 230.94C256.698 232.18 259.228 232.8 262.138 232.8C265.048 232.8 267.578 232.2 269.718 230.99C271.858 229.78 273.518 228.04 274.688 225.75C275.858 223.47 276.438 220.69 276.438 217.41C276.438 214.13 275.858 211.45 274.708 209.15C273.558 206.85 271.908 205.07 269.768 203.83C267.628 202.59 265.078 201.97 262.128 201.97C259.178 201.97 256.788 202.57 254.628 203.78C252.468 204.99 250.808 206.73 249.638 209.02C248.468 211.31 247.888 214.1 247.888 217.41C247.888 220.72 248.468 223.31 249.618 225.61C250.768 227.91 252.418 229.69 254.558 230.93V230.94ZM257.858 210.91C258.848 209.42 260.278 208.67 262.148 208.67C264.018 208.67 265.508 209.43 266.498 210.94C267.488 212.45 267.978 214.61 267.978 217.42C267.978 220.23 267.488 222.38 266.498 223.87C265.508 225.36 264.058 226.11 262.148 226.11C260.238 226.11 258.848 225.36 257.858 223.87C256.868 222.38 256.378 220.23 256.378 217.42C256.378 214.61 256.868 212.41 257.858 210.92V210.91Z" fill="#2D2997"/>
<path d="M148.958 261.93V250.81C148.958 248.54 148.478 246.55 147.528 244.82C146.578 243.09 145.158 241.73 143.288 240.72C141.418 239.71 139.098 239.21 136.328 239.21C133.878 239.21 131.708 239.63 129.798 240.48C127.888 241.33 126.348 242.53 125.178 244.1C124.008 245.67 123.278 247.55 122.988 249.74H131.248C131.428 248.59 131.908 247.66 132.678 246.96C133.448 246.26 134.538 245.91 135.948 245.91C137.528 245.91 138.718 246.32 139.508 247.12C140.298 247.93 140.698 249.14 140.698 250.76V251.42C138.618 251.45 136.688 251.55 134.918 251.73C132.868 251.95 130.838 252.4 128.818 253.08C126.518 253.87 124.798 255.01 123.668 256.48C122.538 257.96 121.968 259.68 121.968 261.66C121.968 263.5 122.378 265.04 123.208 266.3C124.038 267.56 125.178 268.5 126.638 269.11C128.098 269.72 129.738 270.03 131.578 270.03C132.978 270.03 134.358 269.8 135.708 269.33C137.058 268.86 138.278 268.12 139.378 267.12C139.888 266.66 140.348 266.12 140.768 265.53C140.778 265.83 140.788 266.13 140.808 266.42C140.878 267.5 141.028 268.42 141.238 269.17H149.768C149.548 268.41 149.368 267.5 149.198 266.42C149.038 265.34 148.958 263.85 148.958 261.94V261.93ZM137.428 263.42C136.438 264.01 135.328 264.31 134.108 264.31C132.888 264.31 131.978 264.02 131.278 263.45C130.578 262.87 130.228 262.1 130.228 261.13C130.228 260.41 130.398 259.75 130.738 259.16C131.078 258.57 131.678 258.04 132.518 257.59C133.368 257.14 134.538 256.8 136.028 256.56C137.288 256.36 138.858 256.25 140.698 256.22V257.34C140.698 258.64 140.398 259.82 139.808 260.9C139.218 261.98 138.418 262.82 137.438 263.41L137.428 263.42Z" fill="#2D2997"/>
<path d="M167.037 259.34L166.297 262.86L165.527 259.34L159.637 240.12H150.737L160.987 269.16H171.197L181.447 240.12H172.977L167.037 259.34Z" fill="#2D2997"/>
<path d="M192.628 240.12H184.368V269.16H192.628V240.12Z" fill="#2D2997"/>
<path d="M223.988 261.93V250.81C223.988 248.54 223.508 246.55 222.558 244.82C221.608 243.09 220.188 241.73 218.318 240.72C216.448 239.71 214.128 239.21 211.358 239.21C208.908 239.21 206.738 239.63 204.828 240.48C202.918 241.33 201.378 242.53 200.208 244.1C199.038 245.67 198.308 247.55 198.018 249.74H206.278C206.458 248.59 206.938 247.66 207.708 246.96C208.478 246.26 209.568 245.91 210.978 245.91C212.558 245.91 213.748 246.32 214.538 247.12C215.328 247.93 215.728 249.14 215.728 250.76V251.42C213.648 251.45 211.718 251.55 209.948 251.73C207.898 251.95 205.868 252.4 203.848 253.08C201.548 253.87 199.828 255.01 198.698 256.48C197.568 257.96 196.998 259.68 196.998 261.66C196.998 263.5 197.408 265.04 198.238 266.3C199.068 267.56 200.208 268.5 201.668 269.11C203.128 269.72 204.768 270.03 206.608 270.03C208.008 270.03 209.388 269.8 210.738 269.33C212.088 268.86 213.308 268.12 214.408 267.12C214.918 266.66 215.378 266.12 215.798 265.53C215.808 265.83 215.818 266.13 215.838 266.42C215.908 267.5 216.058 268.42 216.268 269.17H224.798C224.578 268.41 224.398 267.5 224.228 266.42C224.068 265.34 223.988 263.85 223.988 261.94V261.93ZM212.458 263.42C211.468 264.01 210.358 264.31 209.138 264.31C207.918 264.31 207.008 264.02 206.308 263.45C205.608 262.87 205.258 262.1 205.258 261.13C205.258 260.41 205.428 259.75 205.768 259.16C206.108 258.57 206.708 258.04 207.548 257.59C208.398 257.14 209.568 256.8 211.058 256.56C212.318 256.36 213.888 256.25 215.728 256.22V257.34C215.728 258.64 215.428 259.82 214.838 260.9C214.248 261.98 213.448 262.82 212.468 263.41L212.458 263.42Z" fill="#2D2997"/>
<path d="M251.538 240.34C250.078 239.58 248.418 239.21 246.548 239.21C244.568 239.21 242.818 239.69 241.288 240.64C240.028 241.42 238.988 242.56 238.128 244.01V240.13H229.868V269.17H238.128V252.49C238.128 251.55 238.258 250.68 238.508 249.87C238.758 249.06 239.118 248.36 239.588 247.77C240.058 247.18 240.618 246.72 241.288 246.39C241.958 246.07 242.698 245.9 243.528 245.9C244.538 245.9 245.368 246.11 246.038 246.52C246.708 246.93 247.198 247.55 247.518 248.38C247.838 249.21 248.008 250.23 248.008 251.46V269.17H256.268V249.79C256.268 247.38 255.848 245.39 254.998 243.83C254.148 242.26 252.998 241.1 251.548 240.35L251.538 240.34Z" fill="#2D2997"/>
<path d="M277.958 262.31C277.128 262.99 276.108 263.34 274.878 263.34C273.008 263.34 271.578 262.59 270.588 261.1C269.598 259.61 269.108 257.46 269.108 254.65C269.108 251.84 269.578 249.64 270.508 248.15C271.448 246.66 272.828 245.91 274.668 245.91C275.858 245.91 276.888 246.26 277.768 246.96C278.648 247.66 279.238 248.88 279.518 250.6H287.778C287.458 248.05 286.678 245.92 285.458 244.23C284.238 242.54 282.698 241.28 280.838 240.45C278.988 239.62 276.928 239.21 274.658 239.21C271.818 239.21 269.338 239.81 267.238 241.02C265.128 242.23 263.508 243.97 262.348 246.26C261.198 248.55 260.618 251.34 260.618 254.65C260.618 257.96 261.188 260.55 262.318 262.85C263.448 265.15 265.078 266.93 267.208 268.17C269.328 269.41 271.828 270.03 274.708 270.03C278.088 270.03 280.988 269.14 283.398 267.36C285.808 265.58 287.318 262.87 287.928 259.24H279.668C279.348 260.61 278.768 261.63 277.938 262.32L277.958 262.31Z" fill="#2D2997"/>
<path d="M310.888 259.61C310.458 260.94 309.788 261.91 308.888 262.52C307.988 263.13 306.858 263.44 305.488 263.44C303.468 263.44 301.938 262.68 300.868 261.17C300.028 259.97 299.528 258.35 299.348 256.31H319.298V254.47C319.298 251.3 318.718 248.58 317.568 246.29C316.418 244.01 314.778 242.25 312.658 241.03C310.538 239.81 308.038 239.19 305.158 239.19C302.278 239.19 299.768 239.79 297.628 241C295.488 242.21 293.828 243.95 292.658 246.24C291.488 248.53 290.908 251.32 290.908 254.63C290.908 257.94 291.488 260.53 292.658 262.83C293.828 265.13 295.498 266.91 297.678 268.15C299.858 269.39 302.458 270.01 305.478 270.01C309.038 270.01 312.078 269.11 314.598 267.31C317.118 265.51 318.758 262.94 319.508 259.59H310.868L310.888 259.61ZM305.168 245.79C307.038 245.79 308.478 246.55 309.488 248.06C310.098 248.98 310.528 250.15 310.768 251.57H299.528C299.768 250.15 300.188 248.98 300.798 248.06C301.808 246.55 303.258 245.79 305.168 245.79Z" fill="#2D2997"/>
<path d="M373.508 212.411C372.668 220.571 367.178 228.391 362.708 234.981C362.598 235.131 362.498 235.291 362.388 235.441C354.838 233.621 347.358 231.481 339.968 229.121C335.828 227.791 331.378 226.401 326.908 224.801C327.208 220.241 327.928 215.771 328.638 211.861C329.548 206.831 330.738 201.821 332.348 196.961C332.838 195.491 333.348 193.611 334.088 191.931C344.838 193.461 355.828 196.411 365.438 201.301C370.418 203.841 374.148 206.111 373.498 212.411H373.508Z" fill="#8BD6F6" stroke="#003E7C" stroke-width="3" stroke-miterlimit="10" stroke-linejoin="round"/>
<path d="M334.088 191.93C333.348 193.61 332.838 195.49 332.348 196.96C330.738 201.82 329.538 206.82 328.638 211.86C327.928 215.77 327.208 220.25 326.908 224.8C317.578 221.46 308.198 217.18 301.628 210.53C301.088 209.98 300.568 209.42 300.098 208.8C298.448 206.63 297.448 203.79 298.088 201.13C300.978 189.02 321.378 190.43 330.298 191.45C331.548 191.59 332.818 191.76 334.078 191.94L334.088 191.93Z" fill="#03ACED" stroke="#003E7C" stroke-width="3" stroke-miterlimit="10" stroke-linejoin="round"/>
<path d="M362.388 235.441C356.088 244.551 341.008 260.661 331.248 246.611C327.108 240.631 326.388 232.581 326.908 224.801C331.378 226.401 335.838 227.791 339.968 229.121C347.358 231.491 354.838 233.631 362.388 235.441Z" fill="#00A350" stroke="#003E7C" stroke-width="3" stroke-miterlimit="10" stroke-linejoin="round"/>
</g>
<defs>
<clipPath id="clip0_11_8755">
<rect width="312.07" height="170.3" fill="white" transform="translate(91.7373 164.851)"/>
</clipPath>
</defs>
</svg>
