<svg width="500" height="500" viewBox="0 0 500 500" fill="none" xmlns="http://www.w3.org/2000/svg">
<rect width="500" height="500" fill="white"/>
<g clip-path="url(#clip0_11_9010)">
<path d="M100.276 334.058C100.276 334.058 137.043 313.634 168.592 311.363L187.43 342.908L112.535 361.067L126.834 339.733L100.276 334.058Z" fill="#36519B"/>
<path d="M152.327 341.626L183.121 341.598L179.492 335.091L166.876 337.74L152.327 341.626Z" fill="white"/>
<path d="M422.786 334.058C422.786 334.058 386.02 313.634 354.47 311.363L335.633 342.908L410.528 361.067L396.228 339.733L422.782 334.058H422.786Z" fill="#36519B"/>
<path d="M370.736 341.626L339.938 341.598L343.571 335.091L356.187 337.74L370.736 341.626Z" fill="white"/>
<path d="M129.117 302.344L122.988 293.494C122.988 293.494 146.48 279.536 155.33 278.515L156.009 251.961L162.138 244.811L162.48 169.574H157.034V138.933H190.738L242.145 200.553V167.87H237.037V139.275H280.274V167.87H274.145V191.699C274.145 191.699 301.378 228.128 325.891 230.17L364.019 281.236L385.807 295.194L382.744 303.023" fill="#36519B"/>
<path d="M376.369 345.975C376.369 345.975 323.941 327.363 256.537 327.363C189.133 327.363 136.93 346.429 136.93 346.429L116.959 307.392C116.959 307.392 188.45 280.384 255.858 280.384C323.265 280.384 393.169 306.938 393.169 306.938L376.373 345.975H376.369Z" fill="#F15C25"/>
<path d="M163.484 145.211L186.71 145.287L221.358 187.463C224.538 191.241 227.982 194.822 231.366 198.411C235.731 203.041 240.039 207.936 245.272 211.61C246.65 212.578 248.097 213.455 249.641 214.138C252.703 215.492 256.746 216.232 259.921 214.781C262.461 213.619 264.817 211.638 266.842 209.741C269.599 207.153 272.159 204.235 274.314 201.12C274.314 201.12 290.502 220.637 298.673 225.934C306.844 231.231 321.67 236.223 321.67 236.223L349.209 272.386H161.896V255.442L168.705 246.97V163.445H163.408L163.484 145.215V145.211Z" fill="#C7C4E2" stroke="white" stroke-width="2.41144" stroke-miterlimit="10"/>
<path d="M248.367 202.442V161.364H242.579V146.043H273.445V161.251H268.225V199.609C268.225 199.609 260.396 213.226 248.367 202.446V202.442Z" fill="#C7C4E2" stroke="white" stroke-width="2.41144" stroke-miterlimit="10"/>
<path d="M188.675 182.283L241.711 247.986H188.45L188.675 182.283Z" fill="#36519C"/>
<path d="M194.463 202.028L229.188 242.086H194.463V202.028Z" fill="#C7C4E2" stroke="white" stroke-width="2.41144" stroke-miterlimit="10"/>
<path d="M149.345 335.799L148.75 333.255L152.765 332.314L146.616 306.017L142.601 306.954L142.006 304.41L151.82 302.115L175.955 319.907L171.357 300.234L167.362 301.166L166.767 298.622L177.739 296.058L178.334 298.602L174.319 299.539L181.063 328.379L175.557 329.665L151.021 311.483L155.727 331.619L159.722 330.686L160.317 333.23L149.345 335.795V335.799Z" fill="white"/>
<path d="M185.829 327.358L185.468 324.77L188.076 324.404L195.978 293.389L201.086 292.674L217.234 320.317L220.269 319.891L220.631 322.479L205.688 324.573L205.326 321.985L208.449 321.547L204.904 315.394L192.911 317.074L191.155 323.97L194.961 323.436L195.323 326.024L185.829 327.354V327.358ZM193.594 314.349L203.493 312.962L196.866 301.443L193.594 314.349Z" fill="white"/>
<path d="M222.857 320.896L222.423 313.268L225.16 313.111C225.715 315.502 226.8 317.247 228.424 318.352C230.043 319.457 232.226 319.927 234.971 319.771C237.197 319.642 238.869 319.124 239.982 318.207C241.1 317.295 241.61 316.017 241.514 314.377C241.441 313.083 240.987 312.102 240.155 311.427C239.323 310.756 237.655 310.181 235.147 309.703L230.252 308.795C227.061 308.172 224.782 307.179 223.424 305.821C222.061 304.466 221.306 302.465 221.157 299.82C220.976 296.629 221.893 294.089 223.91 292.192C225.928 290.295 228.85 289.238 232.668 289.021C234.549 288.912 236.518 288.961 238.568 289.162C240.617 289.362 242.756 289.716 244.974 290.223L245.38 297.336L242.643 297.493C242.1 295.303 241.096 293.735 239.629 292.791C238.162 291.842 236.128 291.444 233.528 291.593C231.402 291.714 229.818 292.176 228.773 292.98C227.732 293.783 227.25 294.917 227.334 296.38C227.411 297.714 227.841 298.711 228.629 299.366C229.416 300.021 231.289 300.64 234.247 301.219L239.142 302.127C242.173 302.702 244.407 303.743 245.838 305.246C247.273 306.749 248.069 308.887 248.225 311.66C248.41 314.908 247.43 317.44 245.288 319.256C243.141 321.073 239.894 322.106 235.541 322.355C233.443 322.476 231.349 322.415 229.26 322.174C227.17 321.933 225.036 321.507 222.853 320.896H222.857Z" fill="white"/>
<path d="M283.975 312.605C283.023 315.901 281.419 318.32 279.168 319.86C276.918 321.403 273.935 322.114 270.226 321.994C264.788 321.821 260.54 320.185 257.477 317.086C254.415 313.988 252.964 309.872 253.129 304.736C253.294 299.587 254.998 295.56 258.253 292.663C261.505 289.765 265.849 288.398 271.287 288.571C273.2 288.631 275.185 288.925 277.243 289.451C279.301 289.978 281.471 290.745 283.758 291.754L283.509 299.672L280.768 299.583C280.294 296.863 279.337 294.805 277.898 293.414C276.459 292.024 274.522 291.288 272.095 291.212C268.96 291.111 266.593 292.192 264.993 294.455C263.393 296.714 262.521 300.243 262.369 305.029C262.216 309.82 262.867 313.389 264.318 315.74C265.769 318.091 268.076 319.313 271.243 319.413C273.385 319.482 275.157 318.939 276.552 317.79C277.951 316.64 278.995 314.864 279.691 312.469L283.983 312.605H283.975Z" fill="white"/>
<path d="M304.284 324.734C298.898 324.071 294.859 322.082 292.162 318.766C289.465 315.45 288.436 311.202 289.071 306.034C289.706 300.861 291.736 296.991 295.164 294.418C298.593 291.846 302.989 290.89 308.359 291.549C313.744 292.212 317.784 294.201 320.48 297.517C323.177 300.837 324.206 305.085 323.567 310.274C322.932 315.446 320.902 319.313 317.474 321.881C314.05 324.445 309.649 325.397 304.28 324.738L304.284 324.734ZM304.605 322.142C307.334 322.476 309.504 321.575 311.112 319.441C312.724 317.303 313.821 313.871 314.4 309.144C314.982 304.402 314.749 300.801 313.704 298.337C312.659 295.873 310.77 294.475 308.045 294.141C305.333 293.808 303.162 294.72 301.543 296.878C299.923 299.036 298.822 302.465 298.247 307.163C297.672 311.849 297.909 315.434 298.958 317.918C300.007 320.402 301.892 321.812 304.605 322.146V322.142Z" fill="white"/>
<path d="M324.729 326.716L325.287 324.164L329.314 325.044L335.074 298.659L331.046 297.779L331.605 295.227L341.456 297.377L355.591 323.818L359.899 304.077L355.892 303.2L356.451 300.648L367.459 303.052L366.901 305.604L362.873 304.724L356.559 333.661L351.033 332.455L336.701 305.487L332.292 325.691L336.299 326.567L335.741 329.119L324.733 326.716H324.729Z" fill="white"/>
</g>
<defs>
<clipPath id="clip0_11_9010">
<rect width="322.51" height="222.133" fill="white" transform="translate(100.276 138.933)"/>
</clipPath>
</defs>
</svg>
