<svg width="500" height="500" viewBox="0 0 500 500" fill="none" xmlns="http://www.w3.org/2000/svg">
<rect width="500" height="500" fill="white"/>
<g clip-path="url(#clip0_11_9034)">
<path d="M344.072 247.008C321.736 265.874 302.71 288.17 283.206 309.829L269.485 324.527L268.329 325.763C262.824 331.626 256.682 336.911 250.001 341.478C232.272 353.623 210.813 360.723 187.679 360.723C126.674 360.743 77.2148 311.284 77.2148 250.279C77.2148 189.273 126.674 139.794 187.679 139.794C207.921 139.794 226.887 145.239 243.201 154.752L227.924 170.766L211.89 187.578C204.371 184.666 196.215 183.071 187.679 183.071C150.565 183.071 120.491 213.165 120.491 250.279C120.491 287.393 150.565 317.467 187.679 317.467C198.867 317.467 209.417 314.735 218.671 309.908C218.83 309.809 218.99 309.729 219.149 309.649C223.357 307.435 227.266 304.783 230.876 301.752C233.349 299.678 235.662 297.424 237.836 295.011L252.494 280.812C264.28 268.128 275.548 254.906 288.272 243.119C290.326 241.205 315.534 219.387 316.81 220.623L344.092 247.028L344.072 247.008Z" fill="#55B848"/>
<path d="M422.788 250.279C422.788 311.285 373.33 360.744 312.324 360.744C291.443 360.744 271.939 354.96 255.307 344.889L286.518 312.322C294.455 315.633 303.17 317.467 312.324 317.467C349.418 317.467 379.512 287.393 379.512 250.279C379.512 218.969 358.093 192.644 329.116 185.185C329.056 185.165 329.016 185.165 328.976 185.146C275.369 169.789 243.381 229.758 209.956 260.032C200.942 268.188 185.706 277.143 185.706 277.143L156.449 249.143C156.449 249.143 173.939 236.459 181.797 228.781C187.74 222.977 207.304 200.98 214.483 192.863L222.68 184.108L222.74 184.049C235.822 170.966 247.948 157.305 264.899 149.148C280.934 141.41 298.842 138.299 316.552 139.516C318.765 139.675 320.979 139.895 323.173 140.174L323.352 140.354C325.167 140.513 326.942 140.732 328.757 141.012C381.985 148.949 422.788 194.838 422.788 250.279Z" fill="#55B848"/>
<path d="M328.716 141.011C326.941 140.732 325.166 140.512 323.351 140.353L323.172 140.173C324.987 140.393 326.841 140.672 328.716 141.011Z" fill="#55B848"/>
<path d="M312.961 216.914C312.961 216.914 295.65 229.838 291.023 233.926C279.416 244.157 245.912 280.253 234.864 290.564C226.787 298.142 214.283 305.122 214.283 305.122L188.396 280.054C188.396 280.054 206.565 269.026 214.741 261.567C236.02 242.202 253.231 218.171 276.784 201.359C282.468 197.291 288.49 193.222 288.49 193.222L295.77 200.262L312.961 216.914Z" fill="#55B848"/>
</g>
<defs>
<clipPath id="clip0_11_9034">
<rect width="345.573" height="221.487" fill="white" transform="translate(77.2148 139.256)"/>
</clipPath>
</defs>
</svg>
