<svg width="500" height="500" viewBox="0 0 500 500" fill="none" xmlns="http://www.w3.org/2000/svg">
<rect width="500" height="500" fill="white"/>
<g clip-path="url(#clip0_11_9044)">
<path d="M172.995 247.683C173.657 244.813 173.924 242.953 173.796 242.117C173.657 241.28 173.099 240.862 172.1 240.862C170.868 240.862 170.02 241.234 169.567 241.942C169.102 242.651 168.521 244.58 167.801 247.706L166.859 251.761H172.065L172.995 247.683Z" fill="#343274"/>
<path d="M250.209 159.406C219.823 159.406 191.249 163.427 166.371 170.492L136.055 287.702L119.798 287.76L117.254 256.967L110.154 287.795L94.6413 287.853L110.258 220.039L125.759 219.981L129.129 250.483L149.325 176.011C104.751 192.384 75.666 219.307 75.666 249.739C75.666 299.635 153.822 340.084 250.209 340.084C346.596 340.084 424.763 299.635 424.763 249.739C424.763 199.844 346.607 159.406 250.209 159.406ZM215.117 176.801C229.246 176.801 240.704 188.258 240.704 202.388C240.704 216.518 229.246 227.975 215.117 227.975C200.987 227.975 189.529 216.518 189.529 202.388C189.529 188.258 200.987 176.801 215.117 176.801ZM186.044 268.436C185.253 271.875 184.417 274.513 183.545 276.361C182.662 278.208 181.14 280.172 178.99 282.275C176.829 284.378 174.342 285.959 171.53 287.004C168.718 288.062 165.383 288.596 161.502 288.62C157.749 288.62 154.542 288.12 151.904 287.097C149.267 286.075 147.349 284.669 146.164 282.868C144.979 281.078 144.328 279.103 144.212 276.942C144.084 274.78 144.502 271.631 145.455 267.495L149.185 251.285C150.301 246.428 151.881 242.593 153.903 239.781C155.936 236.969 158.69 234.808 162.176 233.309C165.662 231.798 169.45 231.043 173.529 231.031C178.525 231.008 182.43 231.891 185.265 233.681C188.1 235.47 189.82 237.852 190.447 240.827C191.063 243.79 190.761 247.973 189.518 253.365L187.821 260.732L164.779 260.813L162.014 272.84C161.433 275.35 161.247 276.965 161.467 277.697C161.677 278.417 162.327 278.778 163.42 278.778C164.767 278.766 165.778 278.278 166.464 277.313C167.138 276.349 167.789 274.49 168.428 271.724L170.113 264.392L186.985 264.334L186.044 268.436ZM187.461 287.516L200.255 231.938L218.591 231.868L205.797 287.458L187.461 287.516ZM258.354 287.272L266.697 251.041C267.79 246.288 268.289 243.348 268.22 242.221C268.138 241.094 267.487 240.536 266.244 240.536C265.001 240.536 264.048 241.106 263.42 242.221C262.793 243.337 261.933 246.288 260.829 251.064L252.486 287.295L235.219 287.353L243.353 252.04C244.608 246.59 245.212 243.325 245.189 242.245C245.154 241.152 244.515 240.606 243.248 240.618C242.458 240.618 241.714 240.908 241.029 241.478C240.332 242.059 239.867 242.756 239.623 243.581C239.367 244.406 238.937 246.16 238.321 248.833L229.456 287.376L212.177 287.434L224.97 231.845L242.551 231.787L241.029 237.074C242.888 234.971 244.898 233.39 247.048 232.344C249.198 231.287 251.498 230.752 253.927 230.741C258.691 230.741 261.956 232.809 263.723 236.992C265.698 234.889 267.755 233.32 269.87 232.263C271.996 231.206 274.204 230.671 276.493 230.66C279.514 230.648 281.861 231.345 283.523 232.728C285.185 234.122 286.056 235.83 286.149 237.852C286.242 239.874 285.766 243.163 284.72 247.706L275.621 287.214L258.354 287.272ZM328.225 260.244L305.182 260.325L302.417 272.34C301.836 274.85 301.662 276.477 301.871 277.197C302.092 277.918 302.742 278.278 303.823 278.278C305.182 278.278 306.193 277.79 306.867 276.825C307.541 275.861 308.204 273.99 308.843 271.225L310.528 263.904L327.4 263.846L326.458 267.948C325.668 271.376 324.832 274.025 323.949 275.861C323.065 277.709 321.555 279.684 319.394 281.776C317.244 283.879 314.757 285.459 311.945 286.516C309.133 287.574 305.787 288.108 301.917 288.12C298.152 288.132 294.957 287.632 292.308 286.609C289.67 285.587 287.764 284.169 286.567 282.38C285.382 280.579 284.731 278.603 284.615 276.442C284.499 274.281 284.917 271.132 285.87 266.995L289.6 250.785C290.716 245.928 292.284 242.094 294.318 239.282C296.34 236.469 299.094 234.32 302.58 232.809C306.066 231.31 309.854 230.543 313.932 230.532C318.929 230.532 322.845 231.403 325.668 233.193C328.504 234.982 330.235 237.364 330.851 240.327C331.478 243.302 331.165 247.474 329.921 252.865L328.225 260.244ZM352.197 286.935L345.015 286.97C340.96 286.981 338.102 286.83 336.44 286.516C334.778 286.203 333.43 285.459 332.373 284.309C331.316 283.158 330.804 281.834 330.816 280.335C330.839 278.847 331.49 275.338 332.756 269.807L339.264 241.571L335.429 241.594L337.451 232.798L341.285 232.774L343.296 224.025L361.144 223.966L359.134 232.716H363.933L361.911 241.501H357.1L350.256 271.248C349.419 274.908 349.141 276.942 349.443 277.36C349.745 277.778 351.348 277.987 354.253 277.976L352.197 286.935ZM405.334 248.461L396.515 286.784L378.713 286.842L387.719 247.729C388.462 244.487 388.776 242.407 388.648 241.489C388.52 240.56 387.87 240.107 386.696 240.107C385.615 240.107 384.767 240.595 384.175 241.547C383.57 242.5 382.943 244.383 382.292 247.195L373.159 286.865L355.369 286.923L370.974 219.121L388.776 219.051L385.267 234.308C387.103 232.96 388.985 231.949 390.914 231.264C392.843 230.59 394.83 230.253 396.852 230.241C399.966 230.241 402.441 230.973 404.289 232.472C406.125 233.971 407.066 235.703 407.089 237.678C407.124 239.642 406.543 243.232 405.334 248.461Z" fill="#343274"/>
<path d="M215.116 227.975C229.248 227.975 240.703 216.52 240.703 202.388C240.703 188.257 229.248 176.801 215.116 176.801C200.985 176.801 189.529 188.257 189.529 202.388C189.529 216.52 200.985 227.975 215.116 227.975Z" fill="#E83036"/>
<path d="M312.502 240.374C311.271 240.374 310.434 240.734 309.969 241.454C309.516 242.163 308.923 244.08 308.203 247.206L307.273 251.273L312.468 251.25L313.409 247.194C314.071 244.313 314.327 242.453 314.199 241.617C314.071 240.78 313.502 240.374 312.502 240.374Z" fill="#343274"/>
</g>
<defs>
<clipPath id="clip0_11_9044">
<rect width="349.097" height="180.678" fill="white" transform="translate(75.666 159.406)"/>
</clipPath>
</defs>
</svg>
