<svg width="500" height="500" viewBox="0 0 500 500" fill="none" xmlns="http://www.w3.org/2000/svg">
<rect width="500" height="500" fill="white"/>
<circle cx="250.001" cy="250" r="176.544" fill="#942043"/>
<g clip-path="url(#clip0_11_9053)">
<path d="M279.139 320.326V366.141H220.871V320.326L250.001 291.196L279.139 320.326Z" fill="#FDE875"/>
<path d="M279.139 133.858V179.674L250.001 208.804L220.871 179.674V133.858H279.139Z" fill="#FDE875"/>
<path d="M320.328 279.137H279.139V320.326L250.002 291.196L220.872 320.326V279.137H179.676L208.813 250L179.683 220.87H220.872V179.674L250.002 208.804L279.139 179.674V220.87H320.321L291.198 250L320.328 279.137Z" fill="#942043"/>
<path d="M220.871 279.137V320.326L188.478 352.726L147.275 311.53L179.675 279.137H220.871Z" fill="white"/>
<path d="M352.727 188.47L320.32 220.87H279.139V179.674L311.531 147.274L352.727 188.47Z" fill="#FDE875"/>
<path d="M220.871 179.674V220.87H179.682L147.275 188.47L188.478 147.274L220.871 179.674Z" fill="#FDE875"/>
<path d="M352.727 311.53L311.531 352.726L279.139 320.326V279.137H320.327L352.727 311.53Z" fill="#FDE875"/>
<path d="M208.812 250L179.675 279.137H133.859V220.87H179.682L208.812 250Z" fill="#FDE875"/>
<path d="M366.143 220.87V279.137H320.328L291.197 250L320.321 220.87H366.143Z" fill="#FDE875"/>
</g>
<defs>
<clipPath id="clip0_11_9053">
<rect width="232.283" height="232.283" fill="white" transform="translate(133.859 133.858)"/>
</clipPath>
</defs>
</svg>
