<svg width="500" height="500" viewBox="0 0 500 500" fill="none" xmlns="http://www.w3.org/2000/svg">
<rect width="500" height="500" fill="white"/>
<g clip-path="url(#clip0_11_8882)">
<path d="M258.658 74.1222C205.153 71.9629 151.524 96.7945 121.793 142.015C109.502 160.701 101.301 181.92 98.0201 203.865C91.8122 245.514 91.2724 294.534 108.214 333.962C121.793 365.52 146.043 392.76 177.228 408.934C244.622 443.918 332.384 423.509 374.864 362.489C391.411 338.737 401.377 310.749 404.035 282.222C407.772 242.172 407.398 197.824 389.75 160.701C375.528 130.762 351.485 105.182 321.173 90.0468C301.386 80.164 280.022 74.9942 258.658 74.1222ZM364.213 284.61C364.213 350.592 313.179 404.076 250.207 404.076C187.235 404.076 136.223 350.592 136.223 284.61V215.388C136.223 149.427 187.256 95.9433 250.207 95.9433C281.683 95.9433 310.189 109.314 330.827 130.928C351.444 152.541 364.213 182.418 364.213 215.388V284.61Z" fill="#FEC20A"/>
<path d="M334.668 130.929C313.034 109.315 283.178 95.9443 250.186 95.9443C214.994 95.9443 181.048 111.848 158.48 138.86C140.001 160.992 132.485 188.855 130.7 217.113C128.104 257.848 126.07 307.076 146.998 343.555C163.982 373.183 193.298 394.983 226.87 401.751C234.552 403.309 242.38 404.077 250.207 404.077C281.205 404.077 311.414 391.785 333.609 370.151C358.898 345.486 368.78 312.349 369.798 277.738C371.334 225.688 374.324 170.564 334.689 130.929H334.668ZM336.018 333.091C300.701 369.57 242.484 370.504 206.004 335.188L166.473 296.923C129.994 261.606 129.06 203.389 164.376 166.91C182.398 148.286 206.399 138.922 230.421 138.922C254.443 138.922 276.513 147.518 294.368 164.813L333.9 203.098C370.379 238.415 371.334 296.611 336.018 333.091Z" fill="#F79516"/>
<path d="M333.9 203.097L294.369 164.811C276.513 147.516 253.467 138.921 230.421 138.921C207.375 138.921 182.398 148.285 164.376 166.908C129.06 203.388 129.994 261.605 166.473 296.922L206.004 335.186C242.484 370.503 300.701 369.569 336.018 333.089C371.334 296.61 370.379 238.414 333.9 203.097ZM306.639 285.585L278.423 310.459C251.91 333.837 211.444 331.304 188.066 304.77C164.688 278.256 167.241 237.791 193.755 214.412L221.95 189.539C248.484 166.161 288.929 168.715 312.328 195.228C323.062 207.395 328.315 222.51 328.315 237.542C328.315 255.272 320.986 272.941 306.639 285.585Z" fill="#EB4E1B"/>
<path d="M312.328 195.228C288.929 168.715 248.484 166.161 221.95 189.539L193.755 214.413C167.241 237.791 164.687 278.256 188.066 304.77C211.444 331.304 251.91 333.837 278.423 310.459L306.639 285.585C320.986 272.941 328.315 255.273 328.315 237.542C328.315 222.51 323.062 207.395 312.328 195.228ZM262.042 288.368L234.718 287.039C212.669 285.98 195.644 267.252 196.703 245.203C197.72 223.776 215.41 207.146 236.608 207.146C237.251 207.146 237.916 207.146 238.559 207.187L265.883 208.495C287.932 209.554 304.957 228.282 303.898 250.352C302.839 272.401 284.091 289.426 262.042 288.368Z" fill="#D9001B"/>
<path d="M303.899 250.353C302.84 272.402 284.091 289.427 262.042 288.368L234.719 287.04C212.669 285.981 195.644 267.253 196.703 245.204C197.72 223.777 215.41 207.146 236.608 207.146C237.252 207.146 237.916 207.146 238.56 207.188L265.883 208.496C287.932 209.555 304.957 228.282 303.899 250.353Z" fill="#221E7F"/>
</g>
<defs>
<clipPath id="clip0_11_8882">
<rect width="311.89" height="352.003" fill="white" transform="translate(94.0547 73.998)"/>
</clipPath>
</defs>
</svg>
