<svg width="500" height="500" viewBox="0 0 500 500" fill="none" xmlns="http://www.w3.org/2000/svg">
<rect width="500" height="500" fill="white"/>
<g clip-path="url(#clip0_11_8892)">
<path d="M314.015 157.77L291.075 220.08C290.405 221.91 288.665 223.12 286.715 223.12H214.505C211.275 223.12 209.025 219.9 210.145 216.87L228.025 168.3C227.825 170.86 227.755 173.5 227.825 176.19C228.035 185.19 229.705 193.64 232.515 200C235.525 206.8 239.575 210.52 243.965 210.52H244.145C252.665 210.32 258.825 196.27 258.825 177.53C258.825 176.84 258.825 176.14 258.795 175.44C258.585 166.44 256.915 157.98 254.105 151.63C254.085 151.59 254.065 151.55 254.055 151.51H309.645C312.875 151.51 315.125 154.73 314.005 157.76L314.015 157.77Z" fill="#00A850"/>
<path d="M244.056 206.63H243.966C241.256 206.63 238.386 203.64 236.076 198.42C233.466 192.53 231.926 184.59 231.716 176.09C231.516 167.59 232.666 159.6 234.996 153.58C235.226 152.98 235.476 152.39 235.726 151.85C237.696 147.53 240.146 145.06 242.576 145H242.676C245.066 145 247.606 147.34 249.746 151.52C250.026 152.05 250.296 152.62 250.566 153.21C251.866 156.16 252.906 159.61 253.646 163.4C254.386 167.17 254.816 171.29 254.916 175.54C255.356 193.7 249.546 206.49 244.056 206.63Z" fill="#F7941D"/>
<path d="M166.025 239.83H177.725L172.035 270.05L172.395 270.01C174.495 267.51 176.745 265.32 178.715 263.18L201.205 239.84H216.435L187.275 267.95L205.755 305.33H192.745L177.975 275.03L169.755 282.25L165.315 305.33H153.615L166.035 239.85L166.025 239.83Z" fill="#00A850"/>
<path d="M273.085 267.82C273.085 278.96 269.045 288.86 261.715 296.07C255.065 302.55 245.935 306.48 235.015 306.48C216.915 306.48 205.695 294.64 205.695 277.49C205.695 266.25 210.095 256.09 217.525 248.92C224.115 242.59 233.625 238.66 243.775 238.66C262.575 238.66 273.085 250.58 273.085 267.82ZM226.875 255.13C221.485 260.52 218.335 268.53 218.335 276.61C218.335 288.23 224.095 296.73 236.755 296.73C242.535 296.73 247.975 294.26 252.115 290.07C257.265 284.92 260.465 277.08 260.465 268.47C260.465 258.84 256.645 248.41 242.385 248.41C236.315 248.41 230.985 251.02 226.875 255.14V255.13Z" fill="#00A850"/>
<path d="M332.174 305.31L336.494 274.56C337.564 267.45 339.104 257.2 340.754 249.01H340.514C336.864 256.62 332.634 265.54 328.584 273.25L311.454 304.53H302.054L298.004 274.06C297.054 265.91 296.364 256.88 295.794 249.01H295.604C293.914 256.42 291.674 267.5 289.954 274.56L282.284 305.31H271.184L287.964 239.83H304.324L308.404 269.24C308.984 275.43 309.904 282.5 310.074 289.1H310.434C313.054 282.5 316.504 275.3 319.574 269.38L335.904 239.83H352.564L343.944 305.31H332.174Z" fill="#00A850"/>
<path d="M376.185 239.24L369.275 275.76C368.805 278.11 368.515 280.94 368.515 283.91C368.575 291.32 373.075 296.1 380.855 296.1C389.985 296.1 396.445 290.07 399.185 275.76L406.135 239.24H417.945L410.965 275.9C406.925 296.9 396.735 305.88 379.305 305.88C366.045 305.88 356.705 299.07 356.705 283.9C356.705 281.04 357.055 277.85 357.575 274.99L364.375 239.23H376.185V239.24Z" fill="#00A850"/>
<path d="M150.904 267.82C150.904 278.96 146.864 288.86 139.534 296.07C132.884 302.55 123.754 306.48 112.834 306.48C94.7337 306.48 83.5137 294.64 83.5137 277.49C83.5137 266.25 87.9137 256.09 95.3437 248.92C101.934 242.59 111.444 238.66 121.594 238.66C140.394 238.66 150.904 250.58 150.904 267.82ZM104.694 255.13C99.3037 260.52 96.1537 268.53 96.1537 276.61C96.1537 288.23 101.914 296.73 114.574 296.73C120.354 296.73 125.794 294.26 129.934 290.07C135.084 284.92 138.284 277.08 138.284 268.47C138.284 258.84 134.464 248.41 120.204 248.41C114.134 248.41 108.804 251.02 104.694 255.14V255.13Z" fill="#F7941D"/>
<path d="M112.844 307.93C94.4345 307.93 82.0645 295.69 82.0645 277.48C82.0645 266.02 86.4245 255.5 94.3345 247.86C101.394 241.08 111.334 237.2 121.594 237.2C140.574 237.2 152.354 248.93 152.354 267.82C152.354 279.22 148.164 289.62 140.554 297.11C133.284 304.19 123.704 307.94 112.834 307.94L112.844 307.93ZM121.604 240.12C112.084 240.12 102.884 243.71 96.3645 249.97C89.0245 257.05 84.9845 266.82 84.9845 277.49C84.9845 294.22 95.9245 305.02 112.844 305.02C122.934 305.02 131.814 301.56 138.524 295.03C145.574 288.1 149.454 278.44 149.454 267.83C149.454 250.75 138.784 240.13 121.604 240.13V240.12ZM114.574 298.19C102.124 298.19 94.6945 290.12 94.6945 276.61C94.6945 268.13 98.0445 259.72 103.664 254.1C108.344 249.42 114.064 246.95 120.204 246.95C132.624 246.95 139.744 254.79 139.744 268.47C139.744 277.28 136.544 285.53 130.964 291.1C126.444 295.67 120.624 298.19 114.574 298.19ZM120.204 249.87C114.854 249.87 109.844 252.05 105.724 256.17C100.644 261.25 97.6045 268.89 97.6045 276.61C97.6045 292.84 108.234 295.27 114.574 295.27C119.834 295.27 124.924 293.06 128.894 289.04C133.934 284 136.824 276.5 136.824 268.47C136.824 253.1 127.784 249.87 120.204 249.87Z" fill="#00A850"/>
</g>
<defs>
<clipPath id="clip0_11_8892">
<rect width="335.87" height="162.93" fill="white" transform="translate(82.0645 145)"/>
</clipPath>
</defs>
</svg>
