<svg width="500" height="500" viewBox="0 0 500 500" fill="none" xmlns="http://www.w3.org/2000/svg">
<rect width="500" height="500" fill="white"/>
<circle cx="250" cy="250" r="174.657" fill="#FFDD25"/>
<g clip-path="url(#clip0_11_8908)">
<path d="M295.844 212.034C295.986 212.12 296.128 212.205 296.271 212.297C296.271 212.297 296.121 212.205 295.844 212.034Z" fill="#1F1A17"/>
<path d="M163.114 225.146C162.965 204.706 181.804 196.823 181.804 196.823C229.642 173.601 290.187 208.647 295.844 212.041C227.003 169.844 176.361 178.154 158.006 189.516C139.792 200.793 144.716 224.221 144.716 224.221L163.114 225.146Z" fill="#1F1A17"/>
<path d="M334.603 281.921C331.238 297.381 316.596 303.507 316.596 303.507C269.071 326.579 209.003 292.137 202.678 288.36C271.461 330.471 322.053 322.168 340.402 310.806C352.902 303.065 354.496 289.598 354.268 281.921H334.603Z" fill="#1F1A17"/>
<path d="M150.869 233.364C137.48 233.364 127.697 243.324 127.697 256.493C127.697 266.446 134.855 272.899 144.765 272.899C158.098 272.899 168.137 263.352 168.137 249.876C168.137 240.507 161.513 233.356 150.869 233.356V233.364ZM146.124 265.657C141.115 265.657 137.537 262.099 137.537 256.344C137.537 249.193 141.962 240.613 149.831 240.613C156.177 240.613 158.297 246.056 158.297 250.218C158.297 257.973 153.217 265.657 146.124 265.657Z" fill="#1F1A17"/>
<path d="M216.488 240.984C220.287 240.984 221.738 243.467 221.738 247.152C221.738 248.547 221.475 250.276 221.24 251.556L217.477 271.975H226.576L230.631 250.261C230.93 248.533 231.172 245.729 231.172 244.079C231.172 236.651 226.526 233.364 221.155 233.364C215.484 233.428 210.348 236.054 206.719 241.574C206.456 237.42 203.553 233.364 196.979 233.364C191.736 233.364 186.649 235.854 182.921 241.176H182.779L183.696 234.296H175.536C175.102 237.533 174.554 241.311 173.715 245.701L168.855 271.982H177.955L181.029 255.021C182.444 247.145 187.631 240.991 192.355 240.991C196.617 240.991 197.506 244.029 197.506 247.159C197.506 248.39 197.307 249.749 197.043 251.229L193.138 271.982H202.237L205.424 254.722C206.904 246.548 211.835 240.991 216.473 240.991L216.488 240.984Z" fill="#1F1A17"/>
<path d="M274.692 235.143C271.491 234.182 266.681 233.364 262.306 233.364C244.028 233.364 234.004 246.106 234.004 259.475C234.004 267.301 239.02 272.907 246.312 272.907C251.748 272.907 257.247 270.317 261.118 262.911H261.274C260.897 266.355 260.577 269.706 260.556 271.982H269.37C269.186 267.422 269.797 260.215 270.907 254.295L274.699 235.143H274.692ZM262.348 249.884C260.435 260.272 254.693 265.351 250.076 265.351C245.693 265.351 243.929 261.872 243.929 257.945C243.929 248.782 251.186 240.65 259.873 240.65C261.779 240.65 263.152 240.863 264.07 241.112L262.356 249.884H262.348Z" fill="#1F1A17"/>
<path d="M315.586 272.907C320.417 272.907 326.158 271.776 330.064 269.677L329.153 262.89C326.258 264.362 322.359 265.536 317.72 265.536C313.949 265.536 310.926 264.284 309.232 261.623C308.4 260.2 307.959 257.838 308.094 256.43C324.045 256.828 334.859 253.982 334.859 244.292C334.859 237.512 329.402 233.364 321.59 233.364C308.151 233.364 298.959 245.054 298.959 256.707C298.959 266.376 304.572 272.9 315.579 272.9L315.586 272.907ZM320.402 240.201C323.59 240.201 325.817 241.731 325.817 244.157C325.817 248.568 319.613 249.585 309.047 249.486C310.022 245.63 313.978 240.201 320.402 240.201Z" fill="#1F1A17"/>
<path d="M294.862 222.607L284.126 224.798L282.241 233.777L276.841 233.748L275.773 238.835L281.173 238.864L276.713 260.115C275.112 267.749 277.901 272.103 286.395 272.146C289.789 272.16 293.667 271.356 297.01 269.798L296.271 264.853C294.741 265.522 293.304 266.112 291.063 266.098C287.669 266.084 286.289 263.452 287.577 257.319L291.44 238.913L301.55 238.963L302.617 233.876L292.507 233.826L294.862 222.6V222.607Z" fill="#1F1A17"/>
<path d="M372.773 236.644L365.872 233.464L349.729 248.888L348.57 248.881L355.357 216.56L345.091 216.51L333.551 271.498L343.81 271.548L347.958 251.798H348.114L358.317 272.373L368.903 269.051L358.217 250.055L372.773 236.644Z" fill="#1F1A17"/>
<path d="M364.839 224.357H365.487C366.241 224.357 366.597 224.642 366.71 225.289C366.888 225.972 366.995 226.506 367.18 226.726H368.653C368.51 226.513 368.404 226.15 368.219 225.254C368.041 224.464 367.714 224.03 367.144 223.816V223.745C367.863 223.532 368.368 223.027 368.368 222.379C368.368 221.803 368.119 221.341 367.792 221.084C367.358 220.835 366.86 220.65 365.743 220.65C364.775 220.65 364.021 220.722 363.48 220.828V226.712H364.846V224.343L364.839 224.357ZM364.875 221.703C365.017 221.668 365.273 221.632 365.629 221.632C366.49 221.632 366.888 221.988 366.888 222.529C366.888 223.14 366.276 223.39 365.522 223.39H364.875V221.703Z" fill="#1F1A17"/>
<path d="M365.772 229.601C369.18 229.601 371.805 226.982 371.805 223.639C371.805 220.295 369.187 217.755 365.772 217.755C362.357 217.755 359.703 220.373 359.703 223.639C359.703 226.904 362.392 229.601 365.772 229.601ZM365.772 218.943C368.39 218.943 370.297 221.063 370.297 223.681C370.297 226.299 368.397 228.348 365.807 228.348C363.218 228.348 361.211 226.264 361.211 223.646C361.211 221.028 363.147 218.943 365.772 218.943Z" fill="#1F1A17"/>
</g>
<defs>
<clipPath id="clip0_11_8908">
<rect width="245.076" height="139.681" fill="white" transform="translate(127.697 180.325)"/>
</clipPath>
</defs>
</svg>
