<svg width="500" height="500" viewBox="0 0 500 500" fill="none" xmlns="http://www.w3.org/2000/svg">
<rect width="500" height="500" fill="white"/>
<g clip-path="url(#clip0_11_7420)">
<path d="M114.39 170.66H134.35C139.75 170.66 143.73 171.08 146.3 171.93C148.87 172.78 150.56 174 151.39 175.6C152.22 177.2 152.44 179.14 152.05 181.41C151.67 183.69 150.53 187.21 148.64 191.98L146.01 198.62C144.08 203.49 142.18 207.03 140.29 209.26C138.4 211.49 135.88 213.2 132.73 214.39C129.57 215.58 125.83 216.18 121.5 216.18H116.18L104.03 246.88H84.2197L114.39 170.66ZM129.05 183.7L121.37 203.1C121.92 203.13 122.4 203.15 122.81 203.15C124.63 203.15 126.07 202.7 127.13 201.81C128.19 200.92 129.28 199.06 130.4 196.23L132.88 189.97C133.91 187.37 134.17 185.67 133.67 184.89C133.16 184.11 131.62 183.71 129.05 183.71V183.7Z" fill="#B8363E"/>
<path d="M207.4 170.66L177.23 246.89H157.41L170.08 214.87H164.15L151.48 246.89H131.66L161.83 170.66H181.65L170.86 197.92H176.79L187.58 170.66H207.4Z" fill="#B8363E"/>
<path d="M248.659 170.66L229.819 246.89H209.559L213.919 233.19H206.829L200.219 246.89H179.729L220.009 170.66H248.659ZM218.749 219.67C221.159 211.04 224.379 200.37 228.399 187.65C220.599 202.25 215.109 212.92 211.919 219.67H218.739H218.749Z" fill="#B8363E"/>
<path d="M262.399 170.66H276.429C285.779 170.66 291.969 171.02 294.999 171.74C298.029 172.46 299.999 174.31 300.909 177.27C301.819 180.24 300.989 184.97 298.419 191.46C296.069 197.39 293.759 201.38 291.469 203.42C289.189 205.46 285.799 206.69 281.309 207.09C284.849 208.06 286.969 209.37 287.669 211C288.369 212.63 288.619 214.13 288.409 215.5C288.199 216.87 286.879 220.62 284.439 226.78L276.479 246.88H258.069L268.099 221.55C269.719 217.47 270.389 214.94 270.139 213.97C269.879 213 268.389 212.51 265.659 212.51L252.059 246.88H232.239L262.399 170.66ZM277.059 183.7L270.349 200.65C272.579 200.65 274.259 200.34 275.399 199.73C276.539 199.12 277.769 197.13 279.099 193.77L280.759 189.58C281.719 187.16 281.909 185.58 281.349 184.83C280.779 184.08 279.359 183.7 277.069 183.7H277.059Z" fill="#B8363E"/>
<path d="M374.52 170.66L344.35 246.89H327.02L347.37 195.43L320.1 246.89H307.81L320.44 196.61L300.51 246.89H283.18L313.36 170.66H339.01C337.96 175.24 336.6 180.64 334.95 186.86L330.09 206.25L348.73 170.66H374.52Z" fill="#B8363E"/>
<path d="M415.78 170.66L396.94 246.89H376.68L381.04 233.19H373.95L367.34 246.89H346.85L387.13 170.66H415.78ZM385.87 219.67C388.28 211.04 391.5 200.37 395.52 187.65C387.72 202.25 382.23 212.92 379.04 219.67H385.86H385.87Z" fill="#B8363E"/>
<path d="M205.32 251.521H220.15C229.72 251.521 236.02 251.961 239.05 252.841C242.08 253.721 244.07 255.161 245.03 257.171C245.99 259.181 246.21 261.421 245.67 263.881C245.13 266.341 243.44 271.191 240.58 278.401L230.01 305.101C227.3 311.941 225.17 316.521 223.61 318.821C222.05 321.131 220.22 322.931 218.1 324.231C215.98 325.531 213.65 326.441 211.09 326.961C208.53 327.481 204.88 327.741 200.14 327.741H175.14L205.31 251.521H205.32ZM219.98 264.561L200.13 314.701C202.99 314.701 204.97 314.131 206.08 312.981C207.19 311.831 208.76 308.721 210.77 303.631L222.49 274.021C223.86 270.571 224.62 268.351 224.79 267.381C224.95 266.411 224.74 265.691 224.13 265.241C223.52 264.791 222.14 264.561 219.97 264.561H219.98Z" fill="#B8363E"/>
<path d="M257.649 251.52H290.699L284.66 266.77H271.43L265.71 281.22H278.089L272.35 295.72H259.969L253.339 312.48H267.889L261.85 327.73H227.479L257.649 251.51V251.52Z" fill="#B8363E"/>
<path d="M344 251.521L319.01 285.941L314.91 327.751H294.43L299.34 295.081L286.41 327.751H266.59L296.76 251.531H316.58L304.86 281.141L325.41 251.531H344.01L344 251.521Z" fill="#B8363E"/>
<path d="M373.419 296.15C370.389 303.81 368.059 309.23 366.439 312.42C364.819 315.61 362.539 318.52 359.589 321.15C356.649 323.79 353.279 325.81 349.489 327.22C345.699 328.63 341.649 329.34 337.349 329.34C333.049 329.34 329.869 328.67 327.149 327.34C324.429 326.01 322.609 324.01 321.689 321.34C320.769 318.67 320.739 315.77 321.609 312.63C322.479 309.49 324.459 304 327.569 296.15L332.729 283.11C335.759 275.45 338.089 270.03 339.709 266.84C341.329 263.65 343.609 260.74 346.559 258.11C349.499 255.47 352.869 253.45 356.659 252.04C360.449 250.63 364.499 249.92 368.799 249.92C373.099 249.92 376.279 250.59 378.999 251.92C381.719 253.25 383.539 255.26 384.459 257.92C385.379 260.59 385.409 263.49 384.539 266.63C383.669 269.77 381.689 275.26 378.579 283.11L373.419 296.15ZM363.509 271.1C364.909 267.55 365.619 265.28 365.609 264.3C365.609 263.31 364.999 262.82 363.769 262.82C362.729 262.82 361.779 263.22 360.919 264.02C360.049 264.82 358.839 267.18 357.289 271.11L343.199 306.7C341.449 311.13 340.549 313.86 340.499 314.89C340.449 315.93 341.089 316.44 342.399 316.44C343.709 316.44 344.849 315.84 345.699 314.65C346.549 313.46 347.859 310.62 349.639 306.13L363.509 271.1Z" fill="#B8363E"/>
</g>
<defs>
<clipPath id="clip0_11_7420">
<rect width="331.56" height="158.68" fill="white" transform="translate(84.2197 170.66)"/>
</clipPath>
</defs>
</svg>
