<svg xmlns="http://www.w3.org/2000/svg" width="500" height="500" fill="none" viewBox="0 0 500 500"><path fill="#fff" d="M0 0h500v500H0z"/><g clip-path="url(#a)"><path fill="#5AAD3E" d="M250.091 425.182c96.7 0 175.091-78.391 175.091-175.091S346.791 75 250.091 75 75 153.391 75 250.091s78.391 175.091 175.091 175.091Z"/><path fill="#FFFEEE" d="M174 162.271a4.867 4.867 0 0 0 4.421 5.281 4.867 4.867 0 0 0 5.281-4.421 4.867 4.867 0 0 0-4.421-5.281 4.867 4.867 0 0 0-5.281 4.421Z"/><path fill="#FFFEEE" d="M186.041 161.402a4.866 4.866 0 0 0 5.651-3.938 4.877 4.877 0 0 0-3.938-5.658 4.877 4.877 0 0 0-5.658 3.938 4.865 4.865 0 0 0 3.938 5.65l.007.008ZM215.915 138.491a4.87 4.87 0 1 0-4.18 8.797 4.87 4.87 0 0 0 4.18-8.797ZM221.016 144.172a4.874 4.874 0 0 0 6.669-1.728 4.874 4.874 0 0 0-1.728-6.669 4.873 4.873 0 0 0-4.941 8.397Z"/><path fill="#FFFEEE" d="M237.334 140.747a4.877 4.877 0 0 0-1.132-6.797 4.878 4.878 0 0 0-6.797 1.131c-1.569 2.188-1.056 5.228 1.132 6.798a4.878 4.878 0 0 0 6.797-1.132Z"/><path fill="#FFFEEE" d="M247.096 139.917a4.882 4.882 0 0 0-.521-6.873 4.882 4.882 0 0 0-6.873.521 4.88 4.88 0 0 0 .521 6.872c2.037 1.758 5.115 1.517 6.873-.52Z"/><path fill="#FFFEEE" d="M250.008 139.865c1.878 1.923 4.964 1.969 6.888.09 1.923-1.878 1.969-4.964.09-6.888-1.878-1.923-4.964-1.969-6.887-.09-1.924 1.878-1.97 4.964-.091 6.888ZM281.006 136.703a4.87 4.87 0 0 0-1.894 6.624 4.87 4.87 0 0 0 6.624 1.894 4.87 4.87 0 0 0 1.894-6.624 4.87 4.87 0 0 0-6.624-1.894Z"/><path fill="#FFFEEE" d="M294.911 148.66a4.867 4.867 0 0 0 2.474-6.427 4.868 4.868 0 0 0-6.428-2.475 4.868 4.868 0 0 0-2.474 6.428 4.868 4.868 0 0 0 6.428 2.474ZM322.363 165.469a4.876 4.876 0 0 0 5.168 4.557 4.876 4.876 0 0 0 4.556-5.168 4.876 4.876 0 0 0-5.167-4.557 4.876 4.876 0 0 0-4.557 5.168ZM347.938 183.265a4.864 4.864 0 0 0-5.749 3.795 4.864 4.864 0 0 0 3.795 5.749 4.863 4.863 0 0 0 5.748-3.795 4.863 4.863 0 0 0-3.794-5.749Z"/><path fill="#FFFEEE" d="M353.498 192.062a4.87 4.87 0 0 0-6.066 3.267c-.769 2.58.687 5.296 3.267 6.065a4.867 4.867 0 0 0 6.065-3.266 4.869 4.869 0 0 0-3.266-6.066Z"/><path fill="#FFFEEE" d="M351.929 204.034a4.871 4.871 0 0 0 9.045 3.614 4.87 4.87 0 0 0-9.045-3.614ZM367.401 231.08a4.864 4.864 0 0 0-6.82.958c-1.614 2.15-1.192 5.205.959 6.82a4.863 4.863 0 0 0 6.819-.958c1.615-2.15 1.192-5.206-.958-6.82Z"/><path fill="#FFFEEE" d="M361.773 241.755a4.876 4.876 0 0 0 .347 6.88 4.876 4.876 0 0 0 6.881-.347 4.876 4.876 0 0 0-.347-6.88 4.877 4.877 0 0 0-6.881.347Z"/><path fill="#FFFEEE" d="M368.986 251.812a4.869 4.869 0 0 0-6.563-.528c-19.887-12.81-49.135-25.092-80.821-16.281a81.663 81.663 0 0 0-22.919 10.389l.121-14.312c3.184-2.587 11.482-8.555 24.36-12.41 22.482-6.729 47.551-4.187 74.506 7.552l.196-.453a4.851 4.851 0 0 0 2.233 3.395 4.876 4.876 0 0 0 6.714-1.554 4.876 4.876 0 0 0-1.554-6.714 4.873 4.873 0 0 0-5.311.105l.37-.852a4.87 4.87 0 0 0 4.036-2.656 4.875 4.875 0 0 0-2.143-6.548 4.875 4.875 0 0 0-6.548 2.143 4.963 4.963 0 0 0-.302.754c-33.654-12.998-59.636-10.094-75.856-5.115-8.781 2.701-15.669 6.247-20.573 9.325l.136-16.937c8.668-5.341 42.753-24.133 79.327-14.824l.535-2.105a4.969 4.969 0 0 0 1.607.483 4.873 4.873 0 0 0 5.394-4.285 4.873 4.873 0 0 0-4.285-5.394 4.837 4.837 0 0 0-2.859.551c-.211-.046-.415-.098-.626-.151a4.872 4.872 0 1 0-8.201-1.434c-30.712-3.998-57.727 7.726-70.786 14.855l.151-17.933c9.279-3.311 36.551-11.912 56.928-6.736l.347-1.381a4.879 4.879 0 0 0 3.553.845 4.872 4.872 0 0 0 4.081-5.553 4.878 4.878 0 0 0-5.394-4.096l.015-.053a55.081 55.081 0 0 0-2.942-.656 4.87 4.87 0 0 0-.136-1.268 4.873 4.873 0 0 0-5.892-3.568 4.874 4.874 0 0 0-3.591 3.667c-.339-.016-.671-.038-1.011-.046 1.532-1.252 2.211-3.364 1.532-5.341a4.868 4.868 0 0 0-6.186-3.033 4.865 4.865 0 0 0-1.532 8.352c-15.148.46-30.01 4.488-38.859 7.378a34.674 34.674 0 0 1 5.22-11.92l4.164-6.096a4.87 4.87 0 0 0 6.707 1.23 4.873 4.873 0 0 0 1.298-6.767 4.868 4.868 0 0 0-6.767-1.298 4.886 4.886 0 0 0-2.098 4.648l-.596-.408a4.854 4.854 0 0 0-.784-4.79 4.865 4.865 0 0 0-6.85-.694 4.871 4.871 0 0 0-1.622 5.039l-2.173 3.184a45.439 45.439 0 0 0-7.205 17.525c-8.057-3.516-22.421-8.367-41.432-9.114.408-.452.74-.98.966-1.584a4.875 4.875 0 0 0-2.874-6.261 4.875 4.875 0 0 0-6.262 2.874 4.878 4.878 0 0 0 .898 4.896c-.219 0-.438.008-.657.015a4.863 4.863 0 0 0-3.387-3.334 4.87 4.87 0 0 0-5.017 7.823l.589 6.518c28.796-2.588 49.489 6.043 56.422 9.475l-.151 18.31c-12.583-6.646-38.844-16.544-78.428-12.086a4.772 4.772 0 0 0-.634-2.595 4.872 4.872 0 0 0 6.737-4.504 4.871 4.871 0 0 0-4.874-4.873 4.87 4.87 0 0 0-4.239 7.272 4.864 4.864 0 0 0-6.669 5.296 4.874 4.874 0 0 0 1.003 2.248 4.864 4.864 0 0 0-7.076 5.1 4.864 4.864 0 0 0 5.605 4.006 4.848 4.848 0 0 0 3.38-2.308l.294 1.878c48.229-7.529 77.048 7.816 84.796 12.735l-.144 17.532c-5.228-3.176-12.704-6.971-22.232-9.92-16.801-5.198-43.303-8.608-76.445 3.13a4.87 4.87 0 0 0-.286-3.251 4.869 4.869 0 1 0-8.85 4.066 4.84 4.84 0 0 0 2.505 2.437l.189.468a4.868 4.868 0 0 0-5.621 7.084 4.869 4.869 0 0 0 6.647 1.81 4.833 4.833 0 0 0 1.833-1.863l.679 1.659c26.668-10.871 52.137-12.757 75.712-5.605 13.218 4.006 22.112 9.898 25.764 12.621l-.121 15.104c-29.03-18.951-56.347-17.374-74.823-12.259-14.062 3.892-24.91 10.222-31.013 14.364a4.826 4.826 0 0 0-1.124-1.766 4.872 4.872 0 0 0-6.888 0 4.872 4.872 0 0 0 0 6.888 4.863 4.863 0 0 0 4.534 1.298l.543.633a4.848 4.848 0 0 0-4.957 1.585 4.87 4.87 0 0 0 .612 6.865 4.871 4.871 0 0 0 6.865-.611 4.89 4.89 0 0 0 1.116-3.584l.679.8c.128-.113 13.202-11.06 32.84-16.401 25.159-6.843 49.202-1.796 71.518 14.998l-.113 14.122a86.333 86.333 0 0 0-25.145-10.29c-17.894-4.187-45.325-4.194-76.376 18.106a4.87 4.87 0 0 0-8.993-3.418 4.868 4.868 0 0 0 1.811 6.647 4.794 4.794 0 0 0 2.504.634l.46.58a4.868 4.868 0 0 0 .468 8.601 4.866 4.866 0 0 0 5.922-1.502c23.561-18.317 47.551-24.88 71.337-19.478 14.319 3.251 24.353 10.094 27.914 12.802l-.114 13.692c-5.597-2.881-13.752-6.352-23.65-8.419-16.62-3.47-41.236-3.447-66.177 15.194a4.857 4.857 0 0 0-3.395-3.169c-2.603-.671-5.266.891-5.937 3.493a4.874 4.874 0 0 0 3.493 5.938 4.859 4.859 0 0 0 3.945-.687l.234.287a4.848 4.848 0 0 0-2.293 3.372 4.873 4.873 0 0 0 4.006 5.605 4.874 4.874 0 0 0 5.56-5.846c17.638-13.489 37.139-18.174 58.021-13.927 12.486 2.543 22.029 7.725 26.103 10.215l-.113 13.617c-4.474-2.467-10.517-5.243-17.646-7.107-13.625-3.56-33.73-4.33-53.872 11.075a4.873 4.873 0 0 0-4.225-2.354 4.867 4.867 0 0 0-4.806 4.934 4.865 4.865 0 0 0 4.934 4.806 4.848 4.848 0 0 0 3.455-1.501l.242.279a4.859 4.859 0 0 0-1.094 3.591 4.871 4.871 0 0 0 5.341 4.353 4.871 4.871 0 0 0 3.976-6.782c13.066-9.446 27.513-12.237 43.031-8.284 9.695 2.467 17.193 7.001 20.566 9.287l-.189 22.926a4.872 4.872 0 0 0-6.435 0 4.865 4.865 0 0 0-.438 6.873 4.871 4.871 0 0 0 6.873.438 4.796 4.796 0 0 0 1.381-2.06h.822c.234.8.671 1.554 1.313 2.165 1.946 1.856 5.032 1.773 6.887-.173a4.873 4.873 0 0 0 .144-6.548l.196-23.666c7.061-4.798 31.746-18.649 59.236.128a4.867 4.867 0 0 0 1.992 8.894 4.868 4.868 0 0 0 5.273-6.435l.589-.694a4.86 4.86 0 0 0 2.384.77 4.876 4.876 0 0 0 5.115-4.617 4.876 4.876 0 0 0-4.618-5.115 4.817 4.817 0 0 0-2.112.37c-19.954-14.893-39.018-14.636-51.828-11.596-6.382 1.517-11.799 3.833-15.925 5.998l.113-13.64c19.577-12.614 39.154-15.224 58.218-7.755 10.146 3.975 17.638 9.928 21.478 13.436a4.869 4.869 0 0 0 4.187 8.14 4.87 4.87 0 0 0 4.217-5.447 4.869 4.869 0 0 0-1.735-3.138l.203-.181.106-.091a4.865 4.865 0 0 0 3.485.551 4.875 4.875 0 0 0 3.72-5.802 4.875 4.875 0 0 0-7.944-2.648c-4.663-4.126-12.697-10.214-23.432-14.492-14.538-5.801-36.635-9.158-62.413 5.062l.113-13.647c21.856-15.081 43.907-18.317 65.596-9.604 17.133 6.881 27.74 18.996 27.846 19.117l.045-.038a4.87 4.87 0 0 0 6.707 3.946 4.87 4.87 0 0 0 2.633-6.367 4.89 4.89 0 0 0-3.229-2.837l.332-.287a4.88 4.88 0 0 0 4.134-.173 4.869 4.869 0 1 0-4.512-8.631 4.864 4.864 0 0 0-2.451 3.086c-5.093-4.738-14.462-12.267-27.144-17.442-16.386-6.684-41.221-10.441-69.851 6.624l.113-14.191c3.478-2.957 12.682-9.89 26.359-13.587 23.553-6.359 48.682-.618 74.702 17.065l2.376-3.5a4.864 4.864 0 0 0 6.707.09c1.977-1.826 2.09-4.911.264-6.888l-.045.046Z"/><path fill="#FFFEEE" d="M368.39 262.199a4.867 4.867 0 0 0-6.835-.868 4.868 4.868 0 0 0-.867 6.835 4.867 4.867 0 0 0 6.835.868 4.868 4.868 0 0 0 .867-6.835Z"/><path fill="#FFFEEE" d="M360.152 271.019a4.868 4.868 0 0 0-1.471 6.729 4.868 4.868 0 0 0 6.729 1.471 4.868 4.868 0 0 0 1.471-6.729 4.868 4.868 0 0 0-6.729-1.471ZM350.903 298.826c-2.565.807-3.999 3.538-3.192 6.103a4.87 4.87 0 1 0 3.192-6.103ZM329.983 328.279a4.877 4.877 0 0 0 5.054 4.684 4.877 4.877 0 0 0 4.685-5.054 4.869 4.869 0 0 0-5.054-4.685 4.878 4.878 0 0 0-4.685 5.055ZM310.376 351.99c2.618.611 5.236-1.026 5.847-3.644.611-2.618-1.026-5.236-3.644-5.847-2.618-.611-5.235 1.026-5.847 3.644-.611 2.618 1.026 5.235 3.644 5.847Z"/><path fill="#FFFEEE" d="M301.15 356.795a4.874 4.874 0 1 0 3.032-9.264 4.874 4.874 0 0 0-3.032 9.264Z"/><path fill="#FFFEEE" d="M291.523 360.763a4.868 4.868 0 0 0 6.397-2.557 4.869 4.869 0 0 0-2.557-6.398 4.868 4.868 0 0 0-6.397 2.558 4.868 4.868 0 0 0 2.557 6.397Z"/><path fill="#FFFEEE" d="M286.212 355.286a4.873 4.873 0 1 0-4.622 8.576 4.873 4.873 0 0 0 4.622-8.576Z"/><path fill="#FFFEEE" d="M270.029 359.323a4.867 4.867 0 0 0 1.388 6.744 4.867 4.867 0 0 0 6.745-1.388 4.867 4.867 0 0 0-1.388-6.744 4.867 4.867 0 0 0-6.745 1.388Z"/><path fill="#FFFEEE" d="M260.313 360.529a4.87 4.87 0 1 0 7.627 6.058 4.87 4.87 0 0 0-7.627-6.058ZM231.035 358.937a4.878 4.878 0 0 0-1.041 6.813 4.877 4.877 0 0 0 6.812 1.041 4.878 4.878 0 0 0 1.041-6.813 4.87 4.87 0 0 0-6.812-1.041Z"/><path fill="#FFFEEE" d="M226.545 365.026a4.88 4.88 0 0 0 1.645-6.692 4.88 4.88 0 0 0-6.692-1.644c-2.301 1.388-3.032 4.39-1.644 6.691a4.878 4.878 0 0 0 6.691 1.645Z"/><path fill="#FFFEEE" d="M216.489 362.355a4.87 4.87 0 1 0-4.294-8.743 4.87 4.87 0 0 0 4.294 8.743Z"/><path fill="#FFFEEE" d="M206.712 358.81a4.875 4.875 0 1 0-3.502-9.099 4.875 4.875 0 0 0 3.502 9.099Z"/><path fill="#FFFEEE" d="M197.282 354.403a4.87 4.87 0 0 0 3.342-6.02 4.877 4.877 0 0 0-6.021-3.342 4.87 4.87 0 0 0-3.342 6.02 4.876 4.876 0 0 0 6.021 3.342Z"/><path fill="#FFFEEE" d="M186.441 339.617a4.873 4.873 0 0 0-3.863 5.703 4.872 4.872 0 0 0 5.703 3.863 4.873 4.873 0 0 0 3.863-5.703 4.873 4.873 0 0 0-5.703-3.863ZM169.754 324.574a4.871 4.871 0 0 0-4.489-5.228 4.87 4.87 0 0 0-5.228 4.489 4.869 4.869 0 0 0 4.488 5.228 4.87 4.87 0 0 0 5.229-4.489ZM153.119 300.441a4.872 4.872 0 1 0-9.181-3.267 4.87 4.87 0 0 0 2.957 6.224 4.87 4.87 0 0 0 6.224-2.957ZM143.409 272.783a4.869 4.869 0 0 0-1.214-6.782 4.87 4.87 0 0 0-6.783 1.215 4.869 4.869 0 0 0 1.215 6.782 4.868 4.868 0 0 0 6.782-1.215ZM134.455 242.947a4.87 4.87 0 0 0 6.865.611 4.871 4.871 0 0 0 .611-6.865 4.87 4.87 0 0 0-6.865-.611 4.876 4.876 0 0 0-.611 6.865Z"/><path fill="#FFFEEE" d="M142.353 233.812a4.87 4.87 0 0 0 1.214-6.783 4.869 4.869 0 0 0-6.782-1.214 4.869 4.869 0 0 0-1.214 6.782 4.869 4.869 0 0 0 6.782 1.215ZM147.272 196.497a4.878 4.878 0 0 0-2.957 6.224 4.877 4.877 0 0 0 6.224 2.957 4.877 4.877 0 0 0 2.957-6.223 4.879 4.879 0 0 0-6.224-2.958Z"/><path fill="#FFFEEE" d="M154.899 196.898a4.868 4.868 0 0 0 3.493-5.937 4.867 4.867 0 0 0-5.937-3.493 4.867 4.867 0 0 0-3.493 5.937 4.867 4.867 0 0 0 5.937 3.493ZM253.553 85.003h-5.485V96.71h5.485V85.003ZM254.682 84.995l-.468 11.7 5.48.219.468-11.7-5.48-.219ZM261.329 85.257l-.937 11.67 5.467.44.937-11.671-5.467-.44ZM267.914 85.786l-1.402 11.624 5.445.657 1.402-11.624-5.445-.657ZM274.485 86.57l-1.866 11.559 5.415.874 1.866-11.559-5.415-.874ZM281.018 87.61l-2.327 11.475 5.376 1.09 2.326-11.475-5.375-1.09ZM287.496 88.922l-2.783 11.373 5.327 1.304 2.783-11.373-5.327-1.304ZM293.957 90.505l-3.237 11.252 5.271 1.516 3.237-11.252-5.271-1.516ZM300.31 92.323l-3.684 11.114 5.206 1.725 3.684-11.114-5.206-1.725ZM306.585 94.399l-4.125 10.957 5.133 1.933 4.125-10.958-5.133-1.932ZM312.776 96.71l-4.56 10.783 5.051 2.136 4.56-10.784-5.051-2.136ZM318.901 99.306l-4.989 10.592 4.962 2.337 4.989-10.592-4.962-2.337ZM324.893 102.118l-5.409 10.385 4.865 2.533 5.408-10.384-4.864-2.534ZM330.757 105.163l-5.819 10.16 4.76 2.726 5.819-10.16-4.76-2.726ZM336.496 108.436l-6.22 9.919 4.647 2.914 6.22-9.919-4.647-2.914ZM342.136 111.976l-6.614 9.662 4.526 3.098 6.614-9.662-4.526-3.098ZM347.599 115.705l-6.994 9.39 4.399 3.276 6.994-9.39-4.399-3.276ZM352.903 119.647l-7.364 9.103 4.264 3.449 7.364-9.103-4.264-3.449ZM358.048 123.791l-7.722 8.802 4.123 3.617 7.722-8.802-4.123-3.617ZM363.049 128.186l-8.069 8.485 3.975 3.779 8.068-8.484-3.974-3.78ZM367.843 132.738l-8.401 8.156 3.821 3.935 8.401-8.156-3.821-3.935ZM372.456 137.467l-8.721 7.813 3.66 4.085 8.72-7.813-3.659-4.085ZM376.873 142.384l-9.025 7.459 3.493 4.228 9.026-7.459-3.494-4.228ZM381.11 147.522l-9.317 7.09 3.321 4.365 9.318-7.09-3.322-4.365ZM385.126 152.779l-9.594 6.712 3.144 4.494 9.594-6.712-3.144-4.494ZM388.914 158.188l-9.853 6.324 2.962 4.616 9.854-6.324-2.963-4.616ZM392.493 163.738l-10.098 5.925 2.775 4.731 10.099-5.925-2.776-4.731ZM395.858 169.497l-10.329 5.515 2.584 4.838 10.328-5.515-2.583-4.838ZM398.977 175.31l-10.54 5.098 2.387 4.938 10.541-5.098-2.388-4.938ZM401.868 181.261l-10.736 4.673 2.189 5.029 10.735-4.673-2.188-5.029ZM404.516 187.307l-10.913 4.24 1.986 5.112 10.913-4.24-1.986-5.112ZM406.917 193.531l-11.075 3.798 1.779 5.188 11.075-3.798-1.779-5.188ZM409.067 199.78l-11.218 3.353 1.57 5.255 11.218-3.353-1.57-5.255ZM410.975 206.103l-11.343 2.902 1.359 5.313 11.343-2.902-1.359-5.313ZM412.622 212.501l-11.45 2.446 1.146 5.364 11.45-2.447-1.146-5.363ZM414.006 219.022l-11.539 1.985.93 5.405 11.539-1.985-.93-5.405ZM415.136 225.53l-11.609 1.522.713 5.438 11.609-1.522-.713-5.438ZM416.01 232.079l-11.66 1.057.495 5.462 11.66-1.057-.495-5.462ZM416.614 238.657l-11.694.59.276 5.478 11.694-.591-.276-5.477ZM416.967 245.255l-11.708.123.057 5.484 11.708-.122-.057-5.485ZM405.343 251.574l-.162 5.483 11.703.347.163-5.482-11.704-.348ZM405.15 257.71l-.381 5.472 11.68.814.381-5.471-11.68-.815ZM404.728 263.837l-.6 5.452 11.638 1.281.6-5.452-11.638-1.281ZM404.063 269.951l-.817 5.423 11.578 1.745.817-5.424-11.578-1.744ZM403.196 276.065l-1.034 5.386 11.498 2.208 1.035-5.386-11.499-2.208ZM402.038 282.098l-1.249 5.34 11.401 2.666 1.249-5.34-11.401-2.666ZM400.64 288.083l-1.461 5.286 11.285 3.119 1.461-5.286-11.285-3.119ZM399.011 294.006l-1.671 5.223 11.152 3.568 1.671-5.224-11.152-3.567ZM397.178 299.904l-1.879 5.153 10.999 4.012 1.88-5.153-11-4.012ZM395.073 305.681l-2.084 5.073 10.831 4.448 2.084-5.073-10.831-4.448ZM392.741 311.361l-2.285 4.986 10.644 4.877 2.285-4.986-10.644-4.877ZM390.182 316.944l-2.482 4.891 10.441 5.299 2.482-4.891-10.441-5.299ZM387.435 322.494l-2.676 4.787 10.219 5.714 2.677-4.787-10.22-5.714ZM384.438 327.853l-2.866 4.676 9.983 6.118 2.866-4.676-9.983-6.118ZM381.235 333.09l-3.05 4.558 9.73 6.512 3.05-4.558-9.73-6.512ZM377.818 338.194l-3.23 4.433 9.463 6.895 3.23-4.432-9.463-6.896ZM374.225 343.229l-3.406 4.299 9.179 7.27 3.405-4.3-9.178-7.269ZM370.408 348.048l-3.574 4.16 8.881 7.63 3.574-4.16-8.881-7.63ZM366.411 352.707l-3.738 4.014 8.568 7.979 3.738-4.014-8.568-7.979ZM362.231 357.2l-3.895 3.862 8.243 8.315 3.895-3.862-8.243-8.315ZM357.871 361.601l-4.047 3.702 7.903 8.639 4.047-3.702-7.903-8.639ZM353.348 365.744l-4.192 3.537 7.551 8.948 4.192-3.537-7.551-8.948ZM348.647 369.717l-4.33 3.367 7.188 9.243 4.329-3.367-7.187-9.243ZM343.804 373.481l-4.46 3.191 6.812 9.522 4.461-3.191-6.813-9.522ZM338.802 377.127l-4.585 3.01 6.425 9.788 4.585-3.01-6.425-9.788ZM333.673 380.496l-4.701 2.824L335 393.357l4.702-2.823-6.029-10.038ZM328.406 383.672l-4.811 2.634 5.622 10.27 4.811-2.634-5.622-10.27ZM323.033 386.616l-4.912 2.44 5.208 10.486 4.912-2.439-5.208-10.487ZM317.499 389.413l-5.006 2.24 4.783 10.687 5.006-2.24-4.783-10.687ZM311.895 391.925l-5.091 2.039 4.352 10.869 5.091-2.038-4.352-10.87ZM306.194 394.21l-5.169 1.834 3.915 11.035 5.169-1.834-3.915-11.035ZM300.412 396.276l-5.238 1.625 3.47 11.183 5.238-1.626-3.47-11.182ZM294.509 398.152l-5.299 1.414 3.018 11.313 5.3-1.414-3.019-11.313ZM288.582 399.738l-5.352 1.201 2.565 11.425 5.351-1.201-2.564-11.425ZM282.589 401.094l-5.395.986 2.106 11.518 5.395-.987-2.106-11.517ZM276.55 402.203l-5.43.77 1.644 11.592 5.43-.77-1.644-11.592ZM270.483 403.075l-5.457.552 1.18 11.649 5.456-.552-1.179-11.649ZM264.31 403.737l-5.474.333.711 11.687 5.474-.333-.711-11.687ZM258.192 404.119l-5.483.113.243 11.706 5.484-.114-.244-11.705ZM246.545 404.142l-.225 11.707 5.484.105.225-11.706-5.484-.106ZM240.397 403.805l-.692 11.688 5.475.324.692-11.687-5.475-.325ZM234.293 403.286l-1.161 11.651 5.457.543 1.161-11.65-5.457-.544ZM228.189 402.458l-1.626 11.595 5.432.761 1.625-11.595-5.431-.761ZM222.123 401.387l-2.088 11.521 5.397.978 2.087-11.521-5.396-.978ZM216.107 400.073l-2.546 11.428 5.353 1.193 2.546-11.429-5.353-1.192ZM210.159 398.587l-3.003 11.317 5.301 1.407 3.003-11.317-5.301-1.407ZM204.269 396.791l-3.453 11.188 5.241 1.617 3.453-11.188-5.241-1.617ZM198.451 394.769l-3.896 11.041 5.172 1.825 3.896-11.041-5.172-1.825ZM192.717 392.521l-4.335 10.876 5.095 2.031 4.335-10.876-5.095-2.031ZM187.083 390.097l-4.768 10.694 5.01 2.233 4.768-10.693-5.01-2.234ZM181.554 387.397l-5.192 10.495 4.916 2.431 5.192-10.494-4.916-2.432ZM176.129 384.476l-5.607 10.279 4.815 2.626 5.607-10.279-4.815-2.626ZM170.833 381.33l-6.013 10.047 4.706 2.817 6.013-10.047-4.706-2.817ZM165.656 378.04l-6.411 9.797 4.589 3.003 6.412-9.797-4.59-3.003ZM160.623 374.487l-6.798 9.534 4.466 3.184 6.797-9.534-4.465-3.184ZM155.74 370.736l-7.173 9.254 4.335 3.36 7.173-9.254-4.335-3.36ZM151.012 366.806l-7.537 8.96 4.197 3.53 7.537-8.96-4.197-3.53ZM146.424 362.725l-7.891 8.65 4.052 3.696 7.891-8.65-4.052-3.696ZM142.02 358.422l-8.23 8.328 3.901 3.855 8.23-8.328-3.901-3.855ZM137.792 353.943l-8.556 7.993 3.744 4.007 8.556-7.992-3.744-4.008ZM133.749 349.3l-8.868 7.644 3.581 4.155 8.868-7.645-3.581-4.154ZM129.872 344.535l-9.168 7.282 3.411 4.295 9.169-7.282-3.412-4.295ZM126.211 339.596l-9.452 6.91 3.237 4.427 9.452-6.91-3.237-4.427ZM122.759 334.498l-9.721 6.527 3.057 4.554 9.721-6.527-3.057-4.554ZM119.504 329.28l-9.974 6.133 2.873 4.672 9.974-6.133-2.873-4.672ZM116.437 323.952l-10.211 5.728 2.683 4.783 10.211-5.728-2.683-4.783ZM113.614 318.477l-10.432 5.316 2.49 4.887 10.432-5.316-2.49-4.887ZM111.012 312.9l-10.636 4.894 2.293 4.982 10.636-4.894-2.293-4.982ZM108.633 307.23l-10.823 4.465 2.091 5.07 10.824-4.465-2.092-5.07ZM106.454 301.473l-10.994 4.028 1.887 5.15 10.994-4.028-1.887-5.15ZM104.541 295.628l-11.147 3.585 1.68 5.221 11.146-3.585-1.679-5.221ZM102.858 289.717l-11.28 3.137 1.468 5.284 11.281-3.137-1.469-5.284ZM101.413 283.73l-11.396 2.683 1.257 5.339 11.396-2.684-1.257-5.338ZM100.176 277.711l-11.495 2.224 1.041 5.384 11.496-2.224-1.042-5.384ZM99.216 271.626l-11.575 1.763.825 5.422 11.575-1.763-.825-5.422ZM98.498 265.518l-11.637 1.299.609 5.451 11.636-1.299-.608-5.451ZM98.025 259.385l-11.68.833.39 5.47 11.68-.833-.39-5.47ZM97.77 253.24l-11.704.364.17 5.481 11.704-.363-.17-5.482ZM86.092 246.986l-.049 5.485 11.708.104.049-5.484-11.708-.105ZM86.366 240.364l-.268 5.478 11.694.572.268-5.478-11.694-.572ZM86.899 233.759l-.487 5.463 11.662 1.038.487-5.462-11.662-1.039ZM87.699 227.177l-.705 5.439 11.612 1.504.704-5.439-11.611-1.504ZM88.763 220.665l-.922 5.406 11.542 1.969.922-5.406-11.542-1.969ZM90.084 214.169l-1.138 5.365 11.454 2.429 1.138-5.366-11.454-2.428ZM91.663 207.743l-1.35 5.316 11.347 2.884 1.351-5.316-11.347-2.884ZM93.5 201.367l-1.563 5.257 11.224 3.335 1.562-5.257-11.223-3.335ZM95.591 195.11l-1.772 5.191 11.081 3.783 1.772-5.191-11.08-3.783ZM97.93 188.906l-1.978 5.115 10.921 4.223 1.978-5.115-10.92-4.223ZM100.514 182.805l-2.181 5.032 10.743 4.656 2.181-5.033-10.743-4.655ZM103.343 176.816l-2.38 4.941 10.548 5.081 2.38-4.941-10.548-5.081ZM106.405 170.967l-2.577 4.842 10.336 5.5 2.577-4.842-10.336-5.5ZM109.699 165.217l-2.768 4.735 10.108 5.909 2.768-4.735-10.108-5.909ZM113.225 159.612l-2.954 4.62 9.863 6.309 2.955-4.621-9.864-6.308ZM116.974 154.142l-3.137 4.499 9.604 6.697 3.137-4.499-9.604-6.697ZM120.928 148.852l-3.315 4.37 9.328 7.077 3.315-4.369-9.328-7.078ZM125.103 143.706l-3.487 4.233 9.037 7.445 3.487-4.233-9.037-7.445ZM129.469 138.732l-3.654 4.09 8.733 7.8 3.653-4.091-8.732-7.799ZM134.047 133.935l-3.814 3.941 8.414 8.142 3.814-3.941-8.414-8.142ZM138.802 129.336l-3.969 3.785 8.08 8.473 3.969-3.785-8.08-8.473ZM143.732 124.926l-4.117 3.624 7.736 8.789 4.117-3.623-7.736-8.79ZM148.842 120.712l-4.259 3.456 7.378 9.091 4.259-3.456-7.378-9.091ZM154.115 116.699l-4.393 3.283 7.008 9.379 4.394-3.283-7.009-9.379ZM159.537 112.92l-4.521 3.104 6.626 9.653 4.522-3.104-6.627-9.653ZM165.122 109.342l-4.643 2.921 6.236 9.909 4.642-2.92-6.235-9.91ZM170.836 106.004l-4.755 2.733 5.835 10.151 4.755-2.733-5.835-10.151ZM176.668 102.888l-4.86 2.541 5.424 10.376 4.861-2.541-5.425-10.376ZM182.639 100.025l-4.958 2.344 5.003 10.586 4.959-2.344-5.004-10.586ZM188.714 97.382l-5.048 2.144 4.577 10.777 5.048-2.144-4.577-10.777ZM194.884 94.99l-5.13 1.94 4.142 10.952 5.13-1.941-4.142-10.95ZM201.141 92.842l-5.203 1.734 3.701 11.108 5.203-1.734-3.701-11.108ZM207.488 90.97l-5.268 1.524 3.253 11.248 5.268-1.524-3.253-11.248ZM213.911 89.33l-5.325 1.313 2.801 11.368 5.325-1.312-2.801-11.368ZM220.385 87.946l-5.373 1.098 2.344 11.471 5.374-1.098-2.345-11.471ZM226.908 86.827l-5.413.883 1.884 11.556 5.413-.883-1.884-11.556ZM233.475 85.998l-5.444.664 1.419 11.622 5.444-.664-1.419-11.623ZM240.068 85.393l-5.466.447.953 11.67 5.466-.447-.953-11.67ZM246.683 85.06l-5.48.227.486 11.698 5.48-.227-.486-11.699Z"/></g><defs><clipPath id="a"><path fill="#fff" d="M75 75h350.19v350.19H75z"/></clipPath></defs></svg>