<svg width="500" height="500" viewBox="0 0 500 500" fill="none" xmlns="http://www.w3.org/2000/svg">
<rect width="500" height="500" fill="white"/>
<g clip-path="url(#clip0_11_7693)">
<path d="M312.784 197.215C312.784 197.215 312.764 197.255 312.764 197.345C312.764 197.395 312.764 197.465 312.744 197.545C312.744 197.565 312.744 197.595 312.744 197.615C312.744 197.645 312.744 197.685 312.744 197.725C312.744 197.815 312.744 197.925 312.734 198.045C312.734 198.105 312.734 198.165 312.734 198.235C312.734 198.365 312.734 198.505 312.724 198.655C312.724 198.655 312.724 198.655 312.724 198.675C312.724 198.825 312.724 198.985 312.704 199.155C312.704 199.505 312.684 199.905 312.674 200.335C312.674 200.515 312.674 200.705 312.674 200.905C312.654 201.785 312.644 202.805 312.624 203.925C312.624 204.335 312.614 204.755 312.604 205.195C312.604 205.355 312.604 205.515 312.604 205.675C312.604 205.835 312.604 206.005 312.604 206.165C312.604 206.325 312.604 206.495 312.604 206.665C312.604 207.005 312.604 207.345 312.594 207.695V207.725C312.594 208.005 312.594 208.285 312.594 208.575C312.594 209.565 312.574 210.585 312.564 211.645C312.564 211.895 312.564 212.145 312.564 212.395C312.564 212.495 312.564 212.605 312.564 212.705C312.564 212.905 312.564 213.095 312.564 213.295C312.564 213.495 312.564 213.685 312.564 213.885C312.564 214.275 312.564 214.675 312.564 215.085C312.564 215.135 312.564 215.175 312.564 215.225C312.664 205.505 312.774 197.235 312.894 197.235H312.874L312.784 197.215ZM312.464 216.405C312.464 216.565 312.464 216.735 312.464 216.895C312.464 216.685 312.464 216.485 312.464 216.285C312.464 216.085 312.464 215.875 312.464 215.675C312.464 215.515 312.464 215.365 312.464 215.215C312.464 215.285 312.464 215.365 312.464 215.435C312.464 215.755 312.464 216.075 312.464 216.405ZM312.434 220.605C312.434 220.395 312.434 220.195 312.434 219.985C312.434 219.775 312.434 219.565 312.434 219.365C312.434 219.575 312.434 219.775 312.434 219.985C312.434 220.195 312.434 220.405 312.434 220.605Z" fill="#01AFEF"/>
<path d="M409.334 182.685C400.624 162.095 388.154 143.605 372.274 127.725C356.394 111.845 337.904 99.3752 317.304 90.6652C295.984 81.6452 273.344 77.0752 249.994 77.0752C226.644 77.0752 204.004 81.6452 182.684 90.6652C162.094 99.3752 143.594 111.845 127.714 127.725C111.834 143.605 99.3642 162.095 90.6542 182.685C81.6442 204.005 77.0742 226.655 77.0742 249.995C77.0742 273.335 81.6442 295.985 90.6642 317.305C99.3742 337.895 111.844 356.385 127.724 372.265C143.604 388.145 162.094 400.615 182.694 409.325C204.014 418.345 226.664 422.915 250.004 422.915C273.344 422.915 295.994 418.345 317.314 409.325C337.904 400.615 356.394 388.145 372.284 372.265C388.164 356.385 400.634 337.895 409.344 317.305C409.514 316.905 409.684 316.505 409.844 316.105C418.534 295.135 422.934 272.895 422.934 249.995C422.934 227.095 418.364 204.005 409.344 182.685H409.334ZM315.534 94.8652C335.584 103.345 353.584 115.485 369.054 130.945C384.514 146.405 396.654 164.415 405.134 184.465C407.564 190.215 409.664 196.055 411.434 201.995C410.734 200.585 410.004 199.195 409.234 197.805C400.484 181.895 387.984 167.615 372.054 155.365C366.884 151.385 361.434 147.695 355.724 144.275C352.314 138.575 348.614 133.125 344.644 127.945C332.394 112.025 318.114 99.5152 302.204 90.7652C300.814 89.9952 299.414 89.2752 298.014 88.5652C303.944 90.3352 309.794 92.4252 315.544 94.8552L315.534 94.8652ZM352.954 148.565C343.714 144.335 333.794 141.315 323.414 139.735C322.314 137.325 321.184 134.965 320.004 132.645C331.544 136.695 342.374 141.695 352.394 147.595C352.584 147.915 352.764 148.235 352.954 148.565ZM300.004 94.7652C315.364 103.205 329.164 115.305 341.024 130.725C343.224 133.595 345.344 136.545 347.374 139.585C337.894 134.595 327.794 130.335 317.124 126.865C317.044 126.835 316.964 126.815 316.894 126.795C308.394 111.535 298.534 99.4952 287.564 90.9752C285.554 89.4152 283.524 87.9852 281.474 86.6852C287.774 88.7552 293.964 91.4452 300.004 94.7752V94.7652ZM318.074 139.055C314.254 138.665 310.374 138.455 306.454 138.455C300.964 138.455 295.574 138.855 290.294 139.625C289.374 135.865 288.394 132.215 287.364 128.695C286.894 127.065 286.404 125.485 285.914 123.925C295.404 125.505 304.704 127.725 313.764 130.575C315.254 133.325 316.694 136.155 318.074 139.055ZM284.764 94.5652C294.234 101.925 302.864 112.085 310.494 124.825C301.954 122.355 293.214 120.425 284.314 119.045C280.404 107.645 276.024 98.3952 271.234 91.4652C269.184 88.4952 267.084 85.9752 264.934 83.9252C271.724 86.0352 278.354 89.5852 284.764 94.5652ZM252.274 81.8452C261.904 83.6152 271.414 96.5552 279.224 118.325C270.374 117.165 261.384 116.535 252.274 116.445V81.8452ZM252.274 121.005C261.954 121.105 271.504 121.825 280.874 123.155C281.594 125.355 282.304 127.625 282.984 129.975C283.964 133.325 284.894 136.805 285.774 140.375C273.824 142.605 262.554 146.745 252.264 152.465V121.005H252.274ZM247.724 81.8452V116.445C238.614 116.535 229.624 117.165 220.774 118.325C228.584 96.5652 238.094 83.6252 247.724 81.8452ZM165.014 171.785C161.994 182.615 159.624 193.995 157.934 205.775C147.484 207.715 137.684 210.015 128.704 212.635C127.074 213.115 125.494 213.595 123.934 214.085C125.514 204.595 127.734 195.295 130.574 186.235C141.014 180.565 152.594 175.735 165.014 171.795V171.785ZM132.654 179.995C136.704 168.455 141.704 157.625 147.604 147.605C157.624 141.705 168.454 136.705 179.994 132.655C174.714 143.035 170.214 154.405 166.544 166.545C154.414 170.225 143.034 174.725 132.654 179.995ZM200.104 299.895C201.264 312.995 202.874 325.555 204.924 337.345C192.854 335.545 181.214 333.015 170.204 329.795C166.994 318.785 164.464 307.145 162.654 295.075C174.454 297.125 187.014 298.735 200.104 299.895ZM161.984 290.335C160.354 278.015 159.474 265.265 159.384 252.285H194.764C194.934 261.805 196.304 271.035 198.714 279.825C198.984 285.045 199.314 290.205 199.714 295.285C186.494 294.095 173.834 292.435 161.984 290.335ZM198.694 220.635C196.324 229.295 194.964 238.365 194.764 247.725H159.384C159.474 234.735 160.354 221.995 161.984 209.675C173.834 207.575 186.494 205.915 199.714 204.725C199.304 209.955 198.954 215.265 198.684 220.645L198.694 220.635ZM129.974 217.005C138.394 214.555 147.544 212.395 157.284 210.535C155.754 222.605 154.914 235.055 154.824 247.725H121.004C121.104 238.045 121.824 228.495 123.154 219.115C125.354 218.395 127.624 217.695 129.974 217.005ZM154.824 252.275C154.914 264.945 155.744 277.395 157.284 289.465C147.544 287.605 138.394 285.445 129.974 282.995C127.624 282.305 125.354 281.605 123.154 280.885C121.824 271.505 121.104 261.965 121.004 252.285H154.824V252.275ZM128.694 287.375C137.674 289.995 147.474 292.285 157.924 294.235C159.624 306.015 161.994 317.395 165.004 328.225C152.584 324.285 141.004 319.455 130.564 313.785C127.714 304.725 125.504 295.425 123.924 285.935C125.474 286.425 127.064 286.905 128.694 287.385V287.375ZM166.544 333.455C170.214 345.585 174.724 356.955 179.994 367.345C168.444 363.295 157.624 358.295 147.604 352.395C141.704 342.375 136.704 331.545 132.654 320.005C143.034 325.285 154.414 329.785 166.544 333.455ZM171.784 334.985C182.614 338.005 193.994 340.375 205.774 342.075C207.724 352.515 210.014 362.325 212.634 371.305C213.104 372.935 213.584 374.515 214.084 376.075C204.594 374.495 195.294 372.275 186.234 369.425C180.564 358.985 175.734 347.405 171.794 334.985H171.784ZM204.714 300.275C205.354 300.325 206.004 300.365 206.644 300.415C214.664 316.325 226.384 330.045 240.654 340.465C230.104 340.155 219.744 339.335 209.664 337.995C207.564 326.145 205.904 313.485 204.714 300.265V300.275ZM200.104 200.105C187.004 201.265 174.444 202.875 162.654 204.925C164.454 192.855 166.984 181.215 170.204 170.205C181.224 166.995 192.854 164.465 204.924 162.655C202.884 174.455 201.264 187.005 200.104 200.105ZM171.784 165.015C175.724 152.595 180.554 141.015 186.224 130.575C195.284 127.725 204.584 125.515 214.074 123.925C213.584 125.485 213.104 127.075 212.624 128.695C210.004 137.675 207.714 147.475 205.764 157.925C193.984 159.615 182.604 161.995 171.774 165.005L171.784 165.015ZM217.004 129.975C217.684 127.625 218.394 125.345 219.114 123.155C228.494 121.825 238.044 121.105 247.724 121.005V154.825C235.054 154.915 222.604 155.745 210.534 157.285C212.394 147.545 214.554 138.395 217.004 129.975ZM228.754 91.4652C223.974 98.3952 219.594 107.655 215.674 119.045C206.774 120.425 198.034 122.355 189.494 124.825C197.124 112.075 205.764 101.915 215.224 94.5652C221.634 89.5852 228.264 86.0352 235.044 83.9252C232.894 85.9752 230.794 88.4952 228.744 91.4652H228.754ZM212.434 90.9652C201.464 99.4852 191.604 111.525 183.104 126.785C183.024 126.815 182.944 126.835 182.874 126.855C172.204 130.325 162.104 134.585 152.624 139.575C154.654 136.535 156.774 133.585 158.974 130.715C170.834 115.295 184.644 103.195 199.994 94.7552C206.034 91.4352 212.224 88.7352 218.524 86.6652C216.474 87.9652 214.444 89.3952 212.434 90.9552V90.9652ZM94.8642 184.465C103.344 164.415 115.484 146.415 130.944 130.945C146.404 115.485 164.414 103.345 184.464 94.8652C190.214 92.4352 196.054 90.3352 201.994 88.5752C200.594 89.2752 199.194 90.0052 197.804 90.7752C181.894 99.5252 167.614 112.035 155.364 127.955C151.384 133.125 147.694 138.575 144.284 144.285C138.574 147.695 133.124 151.395 127.954 155.375C112.034 167.625 99.5242 181.905 90.7742 197.815C90.0142 199.205 89.2842 200.605 88.5742 202.005C90.3442 196.075 92.4342 190.225 94.8742 184.475L94.8642 184.465ZM94.7642 199.995C103.204 184.635 115.304 170.835 130.724 158.975C133.594 156.765 136.544 154.655 139.584 152.625C134.594 162.095 130.334 172.205 126.864 182.875C126.834 182.955 126.814 183.035 126.794 183.105C111.544 191.605 99.4942 201.465 90.9742 212.435C89.4142 214.445 87.9842 216.475 86.6842 218.525C88.7442 212.225 91.4442 206.035 94.7642 199.995ZM94.5642 215.235C101.914 205.765 112.074 197.135 124.824 189.505C122.354 198.045 120.434 206.785 119.044 215.685C107.644 219.595 98.3942 223.985 91.4642 228.765C88.4942 230.815 85.9742 232.915 83.9242 235.065C86.0342 228.275 89.5842 221.655 94.5642 215.235ZM118.324 220.775C117.164 229.625 116.534 238.615 116.444 247.725H81.8442C83.6142 238.095 96.5542 228.575 118.324 220.775ZM116.444 252.275C116.534 261.375 117.164 270.375 118.324 279.225C96.5642 271.425 83.6242 261.905 81.8442 252.275H116.444ZM91.4642 271.245C98.3942 276.025 107.654 280.405 119.044 284.325C120.424 293.225 122.354 301.965 124.824 310.505C112.074 302.875 101.914 294.235 94.5642 284.775C89.5842 278.365 86.0342 271.735 83.9242 264.945C85.9742 267.095 88.4942 269.205 91.4642 271.245ZM90.9642 287.565C99.4842 298.535 111.534 308.395 126.784 316.895C126.814 316.975 126.834 317.055 126.854 317.125C130.324 327.795 134.584 337.895 139.574 347.375C136.534 345.345 133.584 343.235 130.714 341.025C115.294 329.165 103.194 315.355 94.7542 300.005C91.4342 293.965 88.7342 287.775 86.6742 281.475C87.9742 283.525 89.4042 285.555 90.9642 287.565ZM184.464 405.135C164.414 396.655 146.414 384.515 130.944 369.055C115.484 353.595 103.344 335.585 94.8642 315.535C92.4342 309.795 90.3342 303.945 88.5642 298.005C89.2642 299.415 89.9942 300.815 90.7642 302.205C99.5142 318.115 112.024 332.395 127.944 344.645C133.114 348.625 138.564 352.315 144.274 355.735C147.684 361.445 151.384 366.885 155.354 372.065C167.604 387.985 181.884 400.495 197.794 409.245C199.184 410.015 200.584 410.735 201.984 411.445C196.054 409.685 190.204 407.585 184.454 405.155L184.464 405.135ZM199.994 405.235C184.634 396.795 170.834 384.695 158.974 369.275C156.774 366.405 154.654 363.455 152.624 360.415C162.104 365.415 172.204 369.665 182.874 373.145C182.954 373.165 183.024 373.195 183.104 373.215C191.604 388.475 201.474 400.515 212.434 409.035C214.444 410.595 216.474 412.025 218.524 413.325C212.224 411.255 206.034 408.565 199.994 405.235ZM215.234 405.435C205.764 398.085 197.124 387.915 189.504 375.175C198.044 377.645 206.784 379.575 215.684 380.955C219.594 392.355 223.974 401.605 228.764 408.535C230.814 411.505 232.914 414.025 235.064 416.075C228.284 413.975 221.654 410.415 215.244 405.435H215.234ZM247.724 418.155C238.094 416.375 228.584 403.445 220.774 381.675C229.624 382.835 238.614 383.465 247.724 383.555V418.155ZM247.724 378.995C238.044 378.895 228.494 378.175 219.124 376.845C218.404 374.645 217.694 372.375 217.014 370.025C214.554 361.605 212.394 352.455 210.544 342.715C222.584 344.245 235.004 345.075 247.644 345.175C247.674 345.195 247.704 345.215 247.734 345.235V379.005L247.724 378.995ZM252.274 418.155V383.555C261.384 383.465 270.374 382.835 279.224 381.675C271.414 403.435 261.904 416.375 252.274 418.155ZM252.274 378.995V347.905C262.534 353.605 273.774 357.735 285.694 359.975C284.834 363.435 283.934 366.785 282.984 370.025C282.304 372.375 281.594 374.655 280.874 376.845C271.494 378.175 261.954 378.895 252.274 378.995ZM271.244 408.525C276.024 401.595 280.404 392.345 284.324 380.945C293.224 379.565 301.964 377.635 310.504 375.165C302.874 387.915 294.234 398.075 284.774 405.425C278.364 410.405 271.734 413.955 264.944 416.065C267.094 414.015 269.204 411.495 271.244 408.525ZM285.924 376.075C286.414 374.515 286.894 372.935 287.374 371.305C288.364 367.895 289.314 364.365 290.214 360.735C295.524 361.505 300.944 361.915 306.464 361.915C310.324 361.915 314.144 361.715 317.904 361.335C316.584 364.105 315.204 366.805 313.784 369.435C304.724 372.285 295.424 374.495 285.934 376.085L285.924 376.075ZM287.564 409.035C298.534 400.515 308.394 388.475 316.894 373.215C316.974 373.195 317.054 373.165 317.124 373.145C327.794 369.675 337.894 365.415 347.374 360.415C345.344 363.455 343.224 366.405 341.024 369.275C329.164 384.695 315.354 396.795 300.004 405.235C293.964 408.565 287.774 411.255 281.474 413.325C283.524 412.025 285.554 410.595 287.564 409.035ZM320.004 367.345C321.114 365.155 322.194 362.925 323.234 360.645C333.574 359.085 343.454 356.115 352.664 351.925C352.574 352.075 352.484 352.235 352.394 352.385C342.374 358.285 331.544 363.295 320.004 367.335V367.345ZM405.134 315.535C405.054 315.735 404.964 315.925 404.884 316.115C396.414 335.935 384.364 353.735 369.054 369.045C353.594 384.505 335.584 396.645 315.534 405.125C309.784 407.555 303.934 409.655 298.004 411.415C299.404 410.715 300.804 409.985 302.194 409.215C318.104 400.465 332.384 387.955 344.634 372.035C348.614 366.865 352.304 361.415 355.714 355.705C361.424 352.295 366.874 348.595 372.044 344.615C383.174 336.055 392.634 326.495 400.304 316.085H367.144L339.004 260.355H312.794V316.905H293.754V197.185H208.054C207.634 197.965 207.224 198.745 206.824 199.525C206.114 199.585 205.404 199.625 204.704 199.685C205.894 186.455 207.554 173.805 209.654 161.955C219.904 160.605 230.444 159.765 241.174 159.475C232.934 165.415 225.534 172.455 219.184 180.375H337.674C337.674 180.375 370.584 181.285 375.674 209.875C375.754 210.505 375.844 211.095 375.844 211.095C375.844 211.095 376.154 213.345 376.324 216.555C376.534 220.575 376.514 226.085 375.354 230.535C373.894 237.595 369.214 248.835 354.524 256.675L377.974 299.985H410.804C409.174 305.225 407.284 310.395 405.124 315.485L405.134 315.535Z" fill="#01AFEF"/>
<path d="M312.434 219.985C312.434 220.195 312.434 220.405 312.434 220.605C312.434 220.395 312.434 220.195 312.434 219.985C312.434 219.775 312.434 219.565 312.434 219.365C312.434 219.575 312.434 219.775 312.434 219.985ZM312.784 197.215C312.784 197.215 312.764 197.255 312.764 197.345C312.764 197.395 312.764 197.465 312.744 197.545C312.744 197.565 312.744 197.595 312.744 197.615C312.744 197.645 312.744 197.685 312.744 197.725C312.744 197.815 312.744 197.925 312.734 198.045C312.734 198.105 312.734 198.165 312.734 198.235C312.734 198.365 312.734 198.505 312.724 198.655C312.724 198.655 312.724 198.655 312.724 198.675C312.724 198.825 312.724 198.985 312.704 199.155C312.704 199.505 312.684 199.905 312.674 200.335C312.674 200.515 312.674 200.705 312.674 200.905C312.654 201.785 312.644 202.805 312.624 203.925C312.624 204.335 312.624 204.755 312.604 205.195C312.604 205.355 312.604 205.515 312.604 205.675C312.604 205.835 312.604 206.005 312.604 206.165C312.604 206.325 312.604 206.495 312.604 206.665C312.604 207.005 312.604 207.345 312.594 207.695V207.725C312.594 208.005 312.594 208.285 312.594 208.575C312.594 209.565 312.574 210.585 312.564 211.645C312.564 211.895 312.564 212.145 312.564 212.395C312.564 212.495 312.564 212.605 312.564 212.705C312.564 212.905 312.564 213.095 312.564 213.295C312.564 213.495 312.564 213.685 312.564 213.885C312.564 214.275 312.564 214.675 312.564 215.085C312.564 215.135 312.564 215.175 312.564 215.225C312.664 205.505 312.774 197.235 312.894 197.235H312.874L312.784 197.215ZM312.464 216.405C312.464 216.565 312.464 216.735 312.464 216.895C312.464 216.685 312.464 216.485 312.464 216.285C312.464 216.085 312.464 215.875 312.464 215.675C312.464 215.515 312.464 215.365 312.464 215.215C312.464 215.285 312.464 215.365 312.464 215.435C312.464 215.755 312.464 216.075 312.464 216.405Z" fill="#01AFEF"/>
<path d="M312.464 216.406C312.464 216.406 312.464 216.326 312.464 216.286C312.464 216.086 312.464 215.876 312.464 215.676V215.436C312.464 215.756 312.464 216.076 312.464 216.406ZM312.434 219.986C312.434 219.776 312.434 219.566 312.434 219.366C312.434 219.576 312.434 219.776 312.434 219.986Z" fill="#01AFEF"/>
<path d="M360.834 219.276C360.834 227.426 357.614 234.086 352.414 238.696C347.214 243.306 340.024 245.886 332.094 245.886H312.244C312.244 245.886 312.274 240.396 312.324 233.096C312.324 232.416 312.324 231.726 312.344 231.016C312.344 230.666 312.344 230.306 312.344 229.946C312.344 229.406 312.344 228.866 312.354 228.316C312.354 227.766 312.354 227.216 312.364 226.656C312.364 226.096 312.364 225.536 312.374 224.966C312.374 224.246 312.374 223.516 312.394 222.796C312.394 222.486 312.394 222.166 312.394 221.856C312.394 221.446 312.394 221.026 312.394 220.606C312.394 220.396 312.394 220.196 312.394 219.986C312.394 219.776 312.394 219.566 312.394 219.366C312.394 219.156 312.394 218.956 312.394 218.746C312.394 218.536 312.394 218.336 312.394 218.126C312.394 217.716 312.394 217.306 312.394 216.896C312.394 216.686 312.394 216.486 312.394 216.286C312.394 216.086 312.394 215.876 312.394 215.676C312.394 215.516 312.394 215.366 312.394 215.216C312.494 205.496 312.604 197.226 312.724 197.226H339.294C351.144 197.226 360.754 207.096 360.754 219.276H360.834Z" fill="#01AFEF"/>
<path d="M312.805 197.215C312.695 197.215 312.575 205.485 312.475 215.205C312.475 215.155 312.475 215.115 312.475 215.065C312.475 214.665 312.475 214.265 312.475 213.865C312.475 213.665 312.475 213.465 312.475 213.275C312.475 213.075 312.475 212.885 312.475 212.685C312.475 212.585 312.475 212.475 312.475 212.375C312.475 212.125 312.475 211.875 312.475 211.625C312.475 210.565 312.495 209.545 312.505 208.555C312.505 208.265 312.505 207.985 312.505 207.705V207.675C312.505 207.325 312.505 206.985 312.515 206.645C312.515 206.475 312.515 206.305 312.515 206.145C312.515 205.975 312.515 205.815 312.515 205.655C312.515 205.495 312.515 205.335 312.515 205.175C312.515 204.735 312.525 204.315 312.535 203.905C312.555 202.785 312.575 201.765 312.585 200.885C312.585 200.685 312.585 200.495 312.585 200.315C312.585 199.885 312.605 199.485 312.615 199.135C312.615 198.965 312.615 198.805 312.635 198.665C312.635 198.665 312.635 198.655 312.635 198.645C312.635 198.495 312.635 198.355 312.645 198.225C312.645 198.155 312.645 198.095 312.645 198.035C312.645 197.915 312.645 197.815 312.655 197.715C312.655 197.675 312.655 197.645 312.655 197.605C312.655 197.575 312.655 197.555 312.655 197.535C312.655 197.455 312.655 197.395 312.675 197.335C312.675 197.255 312.695 197.205 312.695 197.205H312.715L312.805 197.215Z" fill="#01AFEF"/>
</g>
<defs>
<clipPath id="clip0_11_7693">
<rect width="345.85" height="345.85" fill="white" transform="translate(77.0742 77.0752)"/>
</clipPath>
</defs>
</svg>
