<svg width="500" height="500" viewBox="0 0 500 500" fill="none" xmlns="http://www.w3.org/2000/svg">
<rect width="500" height="500" fill="white"/>
<g clip-path="url(#clip0_11_7707)">
<path d="M105.865 247.175C105.865 245.365 105.175 243.705 103.985 242.435C102.465 240.805 100.295 239.945 97.1548 239.945H84.1348V263.555H88.1848V254.485H96.5748L101.635 263.555H106.295L100.655 253.935C103.765 252.775 105.865 250.355 105.865 247.175ZM97.8748 250.865H88.1848V243.565H97.1548C98.4248 243.565 99.7248 243.675 100.845 244.835C101.455 245.485 101.825 246.285 101.825 247.185C101.825 249.205 100.015 250.875 97.8848 250.875L97.8748 250.865Z" fill="#160D46"/>
<path d="M121.405 239.226C113.955 239.226 108.135 244.796 108.135 251.696C108.135 258.596 113.955 264.276 121.405 264.276C128.855 264.276 134.785 258.706 134.785 251.696C134.785 244.686 128.855 239.226 121.405 239.226ZM121.405 260.666C116.345 260.666 112.405 256.616 112.405 251.696C112.405 246.776 116.345 242.836 121.405 242.836C126.465 242.836 130.515 246.816 130.515 251.696C130.515 256.576 126.505 260.666 121.405 260.666Z" fill="#160D46"/>
<path d="M153.115 239.945L146.355 249.055L139.595 239.945H134.455L144.145 252.675V263.555H148.195V252.675L157.885 239.945H153.115Z" fill="#160D46"/>
<path d="M166.055 239.945L155.105 263.555H159.335L162.155 257.195H173.395L176.255 263.555H180.705L169.755 239.945H166.065H166.055ZM163.595 253.935L167.685 244.785H167.905L171.955 253.935H163.605H163.595Z" fill="#160D46"/>
<path d="M183.445 239.945V263.555H201.995V259.935H187.495V239.945H183.445Z" fill="#160D46"/>
<path d="M220.534 253.035H229.614V249.415H220.534V243.565H235.644V239.945H216.484V263.555H236.514V259.935H220.534V253.035Z" fill="#160D46"/>
<path d="M261.104 239.945H256.184L249.384 248.555L242.874 239.945H237.704L246.744 251.405L236.734 263.555H241.654L249.164 254.085L256.404 263.555H261.564L251.804 251.225L261.104 239.945Z" fill="#160D46"/>
<path d="M274.875 260.666C269.595 260.666 266.165 256.686 266.165 251.776C266.165 246.866 269.525 242.846 274.695 242.846C277.585 242.846 280.845 244.116 282.935 246.096L285.685 243.386C283.045 240.926 278.925 239.226 274.625 239.226C267.065 239.226 261.895 244.906 261.895 251.736C261.895 258.566 267.025 264.276 274.805 264.276C279.935 264.276 283.915 261.886 286.445 259.356L283.735 256.686C281.715 258.856 278.565 260.666 274.875 260.666Z" fill="#160D46"/>
<path d="M306.544 248.875H293.714V239.945H289.664V263.555H293.714V252.495H306.544V263.555H310.594V239.945H306.544V248.875Z" fill="#160D46"/>
<path d="M324.296 239.945L313.346 263.555H317.576L320.396 257.195H331.636L334.496 263.555H338.946L327.996 239.945H324.306H324.296ZM321.836 253.935L325.926 244.785H326.146L330.196 253.935H321.846H321.836Z" fill="#160D46"/>
<path d="M358.926 256.325H358.896L345.266 239.945H341.686V263.555H345.736V247.175H345.766L359.396 263.555H362.976V239.945H358.926V256.325Z" fill="#160D46"/>
<path d="M379.685 254.006H387.095V258.746C385.505 259.936 382.615 260.666 380.155 260.666C374.185 260.666 371.085 256.326 371.085 251.776C371.085 246.896 374.665 242.846 379.765 242.846C382.545 242.846 385.915 244.036 387.895 246.026L390.715 243.496C387.495 240.746 383.485 239.226 379.725 239.226C372.495 239.226 366.855 244.796 366.855 251.736C366.855 258.676 372.425 264.276 379.905 264.276C383.625 264.276 387.825 262.906 390.785 260.736V250.396H379.685V254.016V254.006Z" fill="#160D46"/>
<path d="M399.896 259.935V253.035H408.966V249.415H399.896V243.565H415.006V239.945H395.846V263.555H415.866V259.935H399.896Z" fill="#160D46"/>
<path d="M184.635 230.095H221.715V237.155H223.405V225.445H182.945V237.155H184.635V230.095Z" fill="#D4AB13"/>
<path d="M221.715 269.905H184.635V266.245H182.945V274.555H223.405V266.245H221.715V269.905Z" fill="#D4AB13"/>
</g>
<defs>
<clipPath id="clip0_11_7707">
<rect width="331.73" height="49.11" fill="white" transform="translate(84.1348 225.445)"/>
</clipPath>
</defs>
</svg>
