<svg width="500" height="500" viewBox="0 0 500 500" fill="none" xmlns="http://www.w3.org/2000/svg">
<rect width="500" height="500" fill="white"/>
<g clip-path="url(#clip0_11_7661)">
<path d="M414.822 166.045H84.9375V333.225H414.822V166.045Z" fill="#233082"/>
<path d="M135.916 252.978C134.101 250.556 131.494 248.839 128.114 247.836C130.51 246.727 132.411 245.064 133.817 242.846C135.217 240.628 135.916 238.192 135.916 235.539C135.916 233.09 135.349 230.878 134.213 228.905C133.078 226.931 131.652 225.354 129.949 224.165C128.246 222.977 126.312 222.198 124.154 221.829C121.995 221.452 118.721 221.268 114.325 221.268H92.1328V277.962H111.031C118.173 277.916 122.682 277.784 124.55 277.58C127.533 277.243 130.042 276.345 132.075 274.893C134.101 273.434 135.705 271.487 136.88 269.051C138.055 266.616 138.643 264.107 138.643 261.526C138.643 258.252 137.732 255.401 135.916 252.978ZM103.341 230.7H109.784C115.058 230.7 118.252 230.766 119.361 230.898C121.229 231.129 122.642 231.789 123.586 232.885C124.536 233.981 125.005 235.407 125.005 237.162C125.005 238.918 124.457 240.469 123.362 241.592C122.259 242.714 120.754 243.387 118.833 243.618C117.771 243.75 115.058 243.816 110.688 243.816H103.341V230.7ZM125.48 265.804C124.431 266.998 123.078 267.757 121.408 268.061C120.325 268.299 117.757 268.411 113.718 268.411H103.341V253.249H112.391C117.493 253.249 120.807 253.519 122.338 254.061C123.863 254.602 125.032 255.467 125.843 256.655C126.649 257.843 127.051 259.282 127.051 260.985C127.051 262.998 126.53 264.602 125.48 265.804Z" fill="white"/>
<path d="M186.559 266.906C183.885 262.497 181.76 259.427 180.182 257.698C178.598 255.975 176.598 254.384 174.175 252.939C179.047 252.219 182.71 250.47 185.159 247.697C187.608 244.932 188.836 241.413 188.836 237.162C188.836 233.809 188.024 230.832 186.407 228.225C184.796 225.624 182.644 223.809 179.951 222.792C177.265 221.776 172.948 221.268 167.013 221.268H143.422V277.962H154.63V254.298H156.901C159.482 254.298 161.363 254.51 162.545 254.932C163.733 255.361 164.855 256.147 165.918 257.295C166.98 258.437 168.947 261.216 171.825 265.625L179.931 277.962H193.344L186.559 266.906ZM162.927 245.242H154.63V230.859H163.383C167.924 230.859 170.65 230.925 171.561 231.05C173.383 231.36 174.789 232.1 175.786 233.275C176.783 234.45 177.284 235.988 177.284 237.895C177.284 239.598 176.901 241.017 176.142 242.153C175.39 243.288 174.34 244.087 173 244.549C171.66 245.011 168.307 245.242 162.927 245.242Z" fill="white"/>
<path d="M194.327 221.268V277.962H205.542V221.268H194.327Z" fill="white"/>
<path d="M251.583 252.418C250.105 249.982 248.059 248.061 245.445 246.655C242.831 245.249 238.798 243.889 233.345 242.576C227.893 241.262 224.454 240.001 223.041 238.787C221.932 237.83 221.378 236.688 221.378 235.341C221.378 233.876 221.972 232.701 223.153 231.823C225.002 230.457 227.55 229.777 230.81 229.777C234.071 229.777 236.329 230.41 237.913 231.691C239.491 232.965 240.514 235.057 240.996 237.975L252.21 237.473C252.032 232.265 250.184 228.1 246.659 224.978C243.134 221.856 237.893 220.298 230.923 220.298C226.652 220.298 223.008 220.958 219.992 222.272C216.975 223.585 214.665 225.499 213.061 228.014C211.457 230.529 210.658 233.229 210.658 236.12C210.658 240.602 212.361 244.411 215.767 247.526C218.196 249.744 222.414 251.612 228.421 253.137C233.094 254.319 236.085 255.144 237.398 255.612C239.319 256.306 240.659 257.124 241.431 258.068C242.204 259.005 242.586 260.147 242.586 261.487C242.586 263.58 241.676 265.402 239.84 266.959C238.012 268.524 235.292 269.303 231.682 269.303C228.269 269.303 225.563 268.425 223.556 266.676C221.549 264.92 220.216 262.174 219.556 258.431L208.651 259.52C209.384 265.857 211.628 270.689 215.391 274.003C219.153 277.316 224.546 278.973 231.563 278.973C236.388 278.973 240.415 278.28 243.649 276.9C246.884 275.521 249.379 273.415 251.148 270.577C252.917 267.745 253.801 264.702 253.801 261.448C253.801 257.87 253.062 254.853 251.583 252.418Z" fill="white"/>
<path d="M294.027 257.117C293.096 261.269 291.552 264.312 289.406 266.246C287.261 268.181 284.7 269.151 281.716 269.151C277.677 269.151 274.396 267.626 271.868 264.583C269.346 261.54 268.079 256.438 268.079 249.269C268.079 242.51 269.366 237.625 271.927 234.609C274.488 231.592 277.828 230.087 281.947 230.087C284.924 230.087 287.459 230.932 289.538 232.635C291.624 234.338 292.991 236.661 293.651 239.599L304.747 236.892C303.486 232.351 301.591 228.872 299.063 226.45C294.826 222.351 289.307 220.298 282.515 220.298C274.733 220.298 268.462 222.912 263.689 228.133C258.917 233.354 256.527 240.681 256.527 250.121C256.527 259.038 258.904 266.075 263.65 271.217C268.396 276.359 274.455 278.933 281.828 278.933C287.789 278.933 292.707 277.428 296.581 274.425C300.463 271.422 303.235 266.827 304.898 260.636L294.027 257.117Z" fill="white"/>
<path d="M354.009 228.074C349.098 222.892 342.55 220.298 334.372 220.298C329.85 220.298 325.863 221.044 322.404 222.542C319.804 223.651 317.408 225.354 315.223 227.645C313.038 229.942 311.315 232.536 310.054 235.42C308.364 239.341 307.52 244.186 307.52 249.962C307.52 258.992 309.955 266.075 314.827 271.217C319.698 276.359 326.266 278.933 334.524 278.933C342.781 278.933 349.191 276.346 354.069 271.177C358.94 266.009 361.376 258.847 361.376 249.692C361.376 240.536 358.92 233.255 354.009 228.074ZM345.488 264.213C342.623 267.501 338.953 269.151 334.484 269.151C330.015 269.151 326.325 267.494 323.428 264.18C320.523 260.867 319.071 255.995 319.071 249.579C319.071 243.163 320.484 238.173 323.309 234.939C326.141 231.704 329.863 230.087 334.484 230.087C339.105 230.087 342.814 231.684 345.6 234.879C348.392 238.081 349.785 242.926 349.785 249.421C349.785 255.916 348.352 260.926 345.488 264.213Z" fill="white"/>
<path d="M376.604 268.411V252.978H404.486V243.427H376.604V230.859H406.565V221.268H365.396V277.962H407.628V268.411H376.604Z" fill="white"/>
<path d="M414.822 184.87H84.9375V195.306H414.822V184.87Z" fill="white"/>
<path d="M414.822 303.963H84.9375V314.399H414.822V303.963Z" fill="white"/>
</g>
<defs>
<clipPath id="clip0_11_7661">
<rect width="329.885" height="167.18" fill="white" transform="translate(84.9375 166.045)"/>
</clipPath>
</defs>
</svg>
