<svg width="500" height="500" viewBox="0 0 500 500" fill="none" xmlns="http://www.w3.org/2000/svg">
<rect width="500" height="500" fill="white"/>
<g clip-path="url(#clip0_11_7727)">
<path d="M250.001 74.8799C153.441 74.8799 74.8809 153.44 74.8809 250C74.8809 346.56 153.441 425.12 250.001 425.12C346.561 425.12 425.121 346.56 425.121 250C425.121 153.44 346.561 74.8799 250.001 74.8799ZM250.001 419.36C188.651 419.36 134.811 386.56 105.091 337.58H179.851C183.961 340.86 188.301 343.86 192.841 346.54C200.091 350.83 207.861 354.32 216.041 356.89C222.771 359.01 229.771 360.51 236.981 361.32C241.121 361.79 245.321 362.03 249.601 362.03C253.881 362.03 258.301 361.78 262.551 361.28C269.681 360.46 276.611 358.97 283.261 356.86C291.561 354.24 299.441 350.68 306.781 346.29C311.181 343.68 315.381 340.77 319.371 337.58H394.881C365.171 386.56 311.331 419.36 249.971 419.36H250.001ZM190.791 337.57H308.871L302.891 341.91C296.671 345.54 290.041 348.55 283.101 350.85H283.081C275.701 353.32 267.941 354.99 259.931 355.76H259.901C256.521 356.1 253.091 356.26 249.631 356.26C246.351 356.26 243.101 356.11 239.891 355.81H239.861C231.321 355.04 223.081 353.24 215.251 350.55H215.211C209.251 348.5 203.531 345.94 198.111 342.91L190.791 337.58V337.57ZM102.291 332.75C88.5209 308.26 80.6509 280.03 80.6509 250C80.6409 156.62 156.621 80.6399 250.001 80.6399C343.381 80.6399 419.361 156.61 419.361 250C419.361 280.04 411.491 308.27 397.721 332.75H102.291Z" fill="#1C458C"/>
<path d="M231.271 115.71L224.021 127.82L223.941 127.76L231.271 115.71Z" fill="#1C458C"/>
<path d="M275.752 127.89L275.622 127.99L264.092 108.75L275.752 127.89Z" fill="#1C458C"/>
<path d="M413.621 267.27L371.151 287.38L360.051 268.86L355.331 260.98C355.661 257.73 355.851 254.44 355.871 251.12C355.891 250.76 355.891 250.38 355.891 250.01C355.891 242.18 355.041 234.55 353.411 227.19C351.931 220.43 349.801 213.9 347.081 207.69C343.861 200.29 339.821 193.32 335.071 186.91C331.021 181.44 326.461 176.37 321.441 171.77C315.761 166.56 309.521 161.95 302.821 158.07C298.651 155.64 294.301 153.49 289.801 151.66L285.491 144.47L285.071 143.75L275.631 128.01L275.761 127.91L316.821 99.5596L323.211 149.01L372.241 139.82L357.951 187.6L406.481 199.15L373.991 236.98L413.631 267.28L413.621 267.27Z" fill="#1C458C"/>
<path d="M346.55 383.29L300.54 364.06L283.95 411.11L249.75 374.83L215.46 411.05L198.97 363.99L152.9 383.14L156.65 337.58H179.85C183.96 340.86 188.3 343.86 192.84 346.54C200.09 350.83 207.86 354.32 216.04 356.89C222.77 359.01 229.77 360.51 236.98 361.32C241.12 361.79 245.32 362.03 249.6 362.03C253.88 362.03 258.3 361.78 262.55 361.28C269.68 360.46 276.61 358.97 283.26 356.86C291.56 354.24 299.44 350.68 306.78 346.29C311.18 343.68 315.38 340.77 319.37 337.58H342.87L346.53 383.3L346.55 383.29Z" fill="#ED1C24"/>
<path d="M231.271 115.71L224.021 127.82L223.931 127.76L183.101 99.4396L176.611 148.9L127.621 139.6L141.811 187.43L93.2812 198.88L125.701 236.79L86.0312 267L128.491 287.21L103.091 329.6L151.241 303.53L156.301 300.78L249.761 250.18V85.3896L231.271 115.71ZM209.201 152.55L144.771 260.08L143.981 261.4C143.571 257.66 143.371 253.85 143.371 250C143.371 249 143.371 248.01 143.421 247.02C143.571 241.38 144.171 235.86 145.181 230.48C146.891 221.24 149.811 212.43 153.761 204.19C156.291 198.91 159.251 193.86 162.591 189.1C167.641 181.9 173.571 175.35 180.211 169.61C184.921 165.55 189.981 161.89 195.331 158.69C199.951 155.92 204.801 153.5 209.841 151.48L209.201 152.55Z" fill="#1C458C"/>
<path d="M249.771 84.8604V85.3904L231.271 115.71L249.771 84.8604Z" fill="#1C458C"/>
<path d="M264.091 108.75L249.811 85.3204L249.771 85.3904V84.8604L264.091 108.75Z" fill="#ED1C24"/>
<path d="M396.451 329.6L348.071 303.41L343.001 300.66L249.771 250.18V85.3903L249.811 85.3203L264.091 108.75L275.621 127.99L285.061 143.73L285.481 144.45L289.791 151.64L290.291 152.47L354.901 260.26L355.321 260.98L360.041 268.86L371.141 287.38L396.451 329.6Z" fill="#ED1C24"/>
</g>
<defs>
<clipPath id="clip0_11_7727">
<rect width="350.24" height="350.24" fill="white" transform="translate(74.8809 74.8799)"/>
</clipPath>
</defs>
</svg>
