<svg width="500" height="500" viewBox="0 0 500 500" fill="none" xmlns="http://www.w3.org/2000/svg">
<rect width="500" height="500" fill="white"/>
<g clip-path="url(#clip0_11_8253)">
<path d="M347.86 230.569H161.35V412.069H347.86V230.569Z" fill="#1C2657"/>
<path d="M349.18 195.66V130.99H315.34V157.81L252.85 87.9297L125 225.81L375.69 225.31L349.18 195.66Z" fill="#1C2657"/>
<path d="M214.5 288.439L205.25 284.409C198.85 281.959 193.23 279.949 193.23 274.459C193.23 268.969 197.74 266.229 204.43 266.229C211.53 266.229 216.4 268.429 221.2 272.249L227.61 264.289C221.84 258.679 213.68 255.319 205.03 255.319C190.64 255.319 180.54 263.969 180.54 275.189C180.54 285.529 188.18 291.009 195.59 293.889L205.28 298.099C212.16 300.999 216.99 302.679 216.99 308.969C216.99 313.899 212.65 317.509 204.45 317.509C197.06 317.509 190.13 314.299 184.77 309.489L177.48 318.119C184.4 324.639 193.78 328.419 203.7 328.419C220.18 328.419 229.83 318.869 229.83 307.419C229.83 297.239 223.48 291.879 214.51 288.429L214.5 288.439Z" fill="white"/>
<path d="M248.38 267.169H275.15L280.96 256.619H235.83V327.139H248.38V297.709H273.09V287.169H248.38V267.169Z" fill="white"/>
<path d="M296.421 293.909L306.111 298.119C312.991 301.019 317.821 302.699 317.821 308.989C317.821 313.919 313.481 317.529 305.281 317.529C297.891 317.529 290.961 314.319 285.601 309.509L278.311 318.139C285.231 324.659 294.611 328.439 304.531 328.439C321.011 328.439 330.661 318.889 330.661 307.439C330.661 297.259 324.311 291.899 315.341 288.449L306.091 284.419C299.691 281.969 294.071 279.959 294.071 274.469C294.071 268.979 298.581 266.239 305.271 266.239C312.371 266.239 317.241 268.439 322.041 272.259L328.451 264.299C322.681 258.689 314.521 255.329 305.871 255.329C291.481 255.329 281.381 263.979 281.381 275.199C281.381 285.539 289.021 291.019 296.431 293.899L296.421 293.909Z" fill="white"/>
<path d="M198.731 363.15C200.401 362.34 201.661 361.19 202.521 359.71C203.381 358.22 203.811 356.46 203.811 354.43C203.811 352.4 203.391 350.64 202.541 349.12C201.691 347.6 200.441 346.42 198.791 345.57C197.141 344.73 195.101 344.3 192.661 344.3H180.801V375.94H186.531V364.35H192.361L198.581 375.94H204.981L198.131 363.41C198.341 363.33 198.541 363.24 198.741 363.14L198.731 363.15ZM186.531 349.1H191.781C193.211 349.1 194.381 349.31 195.291 349.73C196.201 350.15 196.871 350.75 197.311 351.55C197.751 352.35 197.971 353.31 197.971 354.43C197.971 355.55 197.751 356.5 197.311 357.26C196.871 358.03 196.201 358.61 195.291 359.01C194.381 359.41 193.221 359.6 191.801 359.6H186.521V349.1H186.531Z" fill="white"/>
<path d="M215.56 369.529C214.62 369.529 213.82 369.859 213.15 370.519C212.48 371.179 212.15 371.969 212.16 372.899C212.15 373.849 212.48 374.649 213.15 375.309C213.82 375.969 214.62 376.299 215.56 376.299C216.17 376.299 216.73 376.149 217.24 375.839C217.75 375.539 218.16 375.129 218.48 374.609C218.79 374.099 218.96 373.519 218.97 372.899C218.96 371.969 218.62 371.179 217.94 370.519C217.27 369.859 216.47 369.529 215.57 369.529H215.56Z" fill="white"/>
<path d="M233.991 362.509H247.771V357.709H233.991V349.119H248.841V344.319H228.261V375.949H248.961V371.149H233.991V362.509Z" fill="white"/>
<path d="M261.15 369.529C260.21 369.529 259.41 369.859 258.74 370.519C258.07 371.179 257.74 371.969 257.75 372.899C257.74 373.849 258.07 374.649 258.74 375.309C259.41 375.969 260.21 376.299 261.15 376.299C261.76 376.299 262.32 376.149 262.83 375.839C263.34 375.539 263.75 375.129 264.07 374.609C264.38 374.099 264.55 373.519 264.56 372.899C264.55 371.969 264.21 371.179 263.53 370.519C262.86 369.859 262.06 369.529 261.16 369.529H261.15Z" fill="white"/>
<path d="M279.581 344.319H273.851V375.959H279.581V344.319Z" fill="white"/>
<path d="M292.27 369.529C291.33 369.529 290.53 369.859 289.86 370.519C289.19 371.179 288.86 371.969 288.87 372.899C288.86 373.849 289.19 374.649 289.86 375.309C290.53 375.969 291.33 376.299 292.27 376.299C292.88 376.299 293.44 376.149 293.95 375.839C294.46 375.539 294.87 375.129 295.19 374.609C295.5 374.099 295.67 373.519 295.68 372.899C295.67 371.969 295.33 371.179 294.65 370.519C293.98 369.859 293.18 369.529 292.28 369.529H292.27Z" fill="white"/>
<path d="M302.101 349.119H311.871V375.949H317.561V349.119H327.341V344.319H302.101V349.119Z" fill="white"/>
</g>
<defs>
<clipPath id="clip0_11_8253">
<rect width="250.69" height="324.14" fill="white" transform="translate(125 87.9297)"/>
</clipPath>
</defs>
</svg>
