<svg width="500" height="500" viewBox="0 0 500 500" fill="none" xmlns="http://www.w3.org/2000/svg">
<rect width="500" height="500" fill="white"/>
<g clip-path="url(#clip0_11_8272)">
<path d="M133.31 263.34C128.33 259.28 124.07 257.55 119.8 257.55C115.53 257.55 112.39 259.78 112.39 263.44C112.39 274.82 144.89 272.78 144.89 296.25C144.89 308.03 133.72 318.19 119.3 318.19C110.46 318.19 102.54 315.14 94.0098 308.24L103.66 295.85C109.45 300.62 114.32 302.65 119.3 302.65C124.28 302.65 127.53 300.21 127.53 296.25C127.53 284.87 95.0298 286.91 95.0298 263.44C95.0298 251.96 106.2 242.01 119.81 242.01C127.83 242.01 135.15 244.65 142.86 250.95L133.31 263.34Z" fill="#777674"/>
<path d="M192.44 316.159L188.68 307.929H163.09L159.33 316.159H142.88L175.89 243.029H176.8L209.81 316.159H192.44ZM182.08 293.299L175.88 279.489L169.68 293.299H182.07H182.08Z" fill="#777674"/>
<path d="M251.689 316.16V286.3H229.349V316.16H212.899V244.05H229.349V270.76H251.689V244.05H268.139V316.16H251.689Z" fill="#777674"/>
<path d="M335.68 307.619C328.67 313.919 319.94 317.169 310.9 317.169C290.49 317.169 273.83 300.509 273.83 280.099C273.83 259.689 290.49 243.029 310.9 243.029C319.94 243.029 328.47 246.279 335.38 252.269L326.04 264.359C320.96 260.299 316.39 258.569 310.91 258.569C299.53 258.569 290.29 267.809 290.29 280.099C290.29 292.389 299.53 301.629 310.91 301.629C316.5 301.629 321.27 299.799 326.35 295.539L335.69 307.629L335.68 307.619Z" fill="#777674"/>
<path d="M369.88 243.029C390.29 243.029 406.95 259.689 406.95 280.099C406.95 300.509 390.29 317.169 369.88 317.169C349.47 317.169 332.81 300.509 332.81 280.099C332.81 259.689 349.47 243.029 369.88 243.029ZM369.88 301.629C381.26 301.629 390.5 292.389 390.5 280.099C390.5 267.809 381.26 258.569 369.88 258.569C358.5 258.569 349.26 267.809 349.26 280.099C349.26 292.389 358.5 301.629 369.88 301.629Z" fill="#777674"/>
<path d="M308.97 208.72C306.49 206.69 304.36 205.83 302.23 205.83C300.1 205.83 298.53 206.94 298.53 208.77C298.53 214.44 314.74 213.43 314.74 225.13C314.74 231.01 309.17 236.07 301.97 236.07C297.56 236.07 293.61 234.55 289.36 231.11L294.17 224.93C297.06 227.31 299.49 228.32 301.97 228.32C304.45 228.32 306.07 227.1 306.07 225.13C306.07 219.46 289.86 220.47 289.86 208.77C289.86 203.05 295.43 198.08 302.22 198.08C306.22 198.08 309.87 199.4 313.72 202.54L308.96 208.72H308.97Z" fill="#E07638"/>
<path d="M315.91 235.06V199.09H324.12V235.06H315.91Z" fill="#E07638"/>
<path d="M325.41 235.06V199.09H345.77V206.84H333.61V213.43H344.75V221.18H333.61V235.06H325.4H325.41Z" fill="#E07638"/>
<path d="M364.58 235.06L363.72 230.96H350.95L350.09 235.06H340.87L352.28 198.59H362.84L374.25 235.06H364.58ZM361.43 223.66L357.37 209.34H357.32L353.22 223.66H361.42H361.43Z" fill="#E07638"/>
<path d="M406.78 181H402.4L385.96 209.27L379.83 199.09H370.71L381.04 216.31L369.95 235.05H378.61L385.4 223.55L392.29 235.05H401.41L390.32 216.56L406.79 188.33V181H406.78Z" fill="#E07638"/>
<path d="M406.95 198.46V230.12L397.71 215.57L406.95 198.46Z" fill="#777674"/>
</g>
<defs>
<clipPath id="clip0_11_8272">
<rect width="312.95" height="137.19" fill="white" transform="translate(94 181)"/>
</clipPath>
</defs>
</svg>
