<svg xmlns="http://www.w3.org/2000/svg" width="500" height="500" fill="none" viewBox="0 0 500 500"><path fill="#fff" d="M0 0h500v500H0z"/><g clip-path="url(#a)"><path fill="#2A2B64" d="M218.12 233.93c-1.97-2.05-3.95-5.3-3.95-8.34v-.05c0-.21.01-.41.04-.62.01-.15.03-.29.06-.44 0-.01.01-.02 0-.04a5.38 5.38 0 0 1 2.33-3.38c.01-.01.02-.01.03-.01a5.155 5.155 0 0 1 3.45-.8c1.15.11 2.19.61 2.98 1.37.96.85 1.6 2.06 1.71 3.42v1.2h2.05s.02.01.03.01h13.59c3.99-11.16-3.55-18.62-14.45-18.6-6.23.02-12.44.04-18.67.05-5.63.02-11.1 1.42-13.25 7.24-.02.03-.03.07-.04.1-6.11 16.88 12.71 33.93 24.25 42.53 3.1 2.31 12.18 6.46 15.49 11.22 0 .02.02.04.03.05.95 1.38 1.4 2.82 1.07 4.27 0 .01-.01.02-.01.04-.34 3.22-3.09 5.73-6.4 5.73-3.55 0-6.43-2.88-6.43-6.43 0-.36.03-.7.09-1.05-.03-.06-.06-.12-.09-.19h-12.74c-1.02 13.04.9 20.46 15.03 21.76 17.44 1.6 28.69-4.2 27.33-23.16-1.21-16.99-23.07-24.96-33.54-35.9l.01.02ZM413.089 212.03c-1.7-1.04-3.68-1.51-5.67-1.51h-13.03c-2.36 0-4.71.67-6.58 2.1-.76.58-1.37 1.22-1.82 1.94-3.06 4.83-6.36 15.59-9.1 25.97-2.07 7.84-3.82 15.47-4.88 20.13-.32 1.38-.93 3.73-1.61 6.49-1.79 7.44-3.95 17.88-1.53 20.41 4.08 4.3 22.52 4.42 27.62 1.73 5.57-2.94 8.63-17.65 10.36-23.83 4.3-15.34 6.84-31.13 10.38-46.65.09-2.95-1.55-5.2-4.14-6.78Zm-20.08 55.11c-.63 2.04-1.18 3.66-1.57 4.66-.97 2.47-3.85 7.95-7.22 5.58-.54-.38-.76-3.13-.66-4.1.11-1.26.51-3.42 1.09-6.14 1.53-7.09 4.35-17.99 6.83-26.62 1.64-5.65 3.12-10.33 4.01-12.35 2.1-4.77 7.48-5.21 7.26-.08-.22 5.08-6.3 28.11-9.73 39.05h-.01ZM361.81 267.14h-8.85c-1.22 0-2.3.8-2.65 1.96-1.1 3.67-2.21 10.02-5.23 8.15-1.48-.93-2.07-2.81-1.59-4.49l1.61-5.63 7.57-26.62 3.57-12.56c.52-1.83 2.15-3.2 4.05-3.18 4.1.05.46 7.03-.95 12.36-.45 1.71.83 3.38 2.6 3.38h7.82c1.22 0 2.29-.82 2.6-2l5.4-20.53c.05-.22.09-.44.13-.66.54-3.63-2.49-6.82-6.14-6.82h-20.66c-.65 0-1.3.09-1.91.3-2.83.98-5.05 2.34-6.1 4.11-2.59 4.32-5.15 17.18-6.91 25.6-.38 1.86-.74 3.51-1.04 4.8-1.56 6.68-8.82 36.38-7.56 40.71 1.92 6.56 25.69 6.04 30.47 3.96.87-.38 1.71-1.33 2.5-2.63.09-.16.17-.33.21-.51l3.73-16.33c.39-1.73-.92-3.37-2.69-3.37h.02Z"/><path fill="#2A2B64" d="M290.11 222.54h-13.44l2.24-38.33h-19.5l.2 38.33h-9.2c-.96-.06-1.91-.09-2.78 0v18.65h11.98l-.39 74.59h4.67l11.37-9.87 1.68-64.78 13.17.07v-18.66Z"/><path fill="#2A2B64" d="M335.43 220.73c.01-.05.01-.11.02-.17.63-5.36-3.62-10.05-9.01-10.05h-21.87c-3.72 0-7.17 2.24-8.43 5.74-.95 2.64-1.28 6.05-.84 10.43h14.5c.5 0 .7-7.87 7.24-4.69 3.56 1.73 1.5 7.04.4 9.76-6.24 15.33-30.55 20.06-34.13 37.36-2.02 9.79 1.33 18.08 7.65 20.61 2.54 1.04 5.56 1.12 8.92 0 1.82-.6 3.75-1.57 5.75-2.94 0 .01-.01.02-.01.03-.39 1.47.77 2.91 2.29 2.91h9.85c1.11 0 2.06-.77 2.3-1.84 1.77-7.92 8.58-38.64 8.58-38.64l6.79-28.5v-.01Zm-21.74 36.53c-.81 5.06-2.81 15.47-6.5 16.09-10.09 1.7-1.99-15.37 4.9-17.47.88-.27 1.75.47 1.6 1.38Z"/><path stroke="#404066" stroke-miterlimit="10" stroke-width="2" d="M154.989 248.301c-.02.34-.05.68-.08 1.02-.03.27-.06.55-.1.82m-.14.81c-.07.39-.16.78-.25 1.16M164.41 218.581c-3.24.2-6.51 1.14-9.52 2.88-4.15 2.4-7.21 5.96-8.98 10-.3-.18-.61-.34-.92-.5-.31-.17-.63-.31-.95-.46-.27-.12-.54-.24-.81-.34-.3-.12-.61-.24-.92-.33-.3-.11-.61-.21-.93-.3-.34-.1-.68-.2-1.03-.27-.33-.08-.66-.16-.99-.22l-.8-.15-.22-.03c-.49-.07-.98-.12-1.48-.17-.25-.02-.51-.04-.76-.05-.25-.01-.5-.02-.76-.02-.33-.01-.67-.01-1.02 0-.3 0-.59.01-.89.03-.3.02-.6.04-.9.07-.16.01-.31.03-.47.05-.46.04-.92.11-1.38.19-.28.05-.56.1-.84.16-.28.06-.57.11-.85.19-.21.05-.42.1-.63.16-.63.17-1.26.35-1.89.57-.39.13-.79.28-1.17.44-.28.1-.57.22-.85.35-.35.14-.7.3-1.05.48-.21.09-.41.2-.61.3-.16.07-.3.16-.46.24-.27.15-.54.29-.81.45-.38.22-.76.45-1.12.69-.76.47-1.47.97-2.15 1.53-.04.01-.08.05-.12.09-.01-.01-.01 0-.02.02-.2.15-.39.3-.59.48-.2.16-.39.32-.58.5-.13.11-.26.23-.39.35-.3.27-.59.55-.87.84-.69.69-1.35 1.43-1.94 2.2-.22.28-.44.56-.62.84-.07.08-.13.17-.2.26a20.402 20.402 0 0 0-1.3 2.04c-.09.15-.18.3-.26.47-.15.25-.27.5-.39.76l-.06.12c-.1.21-.21.41-.29.63-.03.04-.05.09-.07.15-.02.04-.04.09-.06.15-.08.18-.16.36-.23.54-.03.07-.06.13-.08.21-.08.21-.17.4-.23.61-.36.97-.64 1.96-.86 2.96-.07.35-.15.7-.2 1.07a21.029 21.029 0 0 0-6.7-.79c-.23.01-.48.02-.7.04-.05 0-.11 0-.18.01h-.01c-1.23.1-2.48.31-3.71.64-.29.08-.58.17-.87.25-.31.1-.61.21-.91.31-.31.11-.61.23-.91.35-.6.25-1.19.52-1.78.83-.28.15-.55.29-.83.46-.1.06-.22.12-.32.2-.61.35-1.2.75-1.76 1.18-.11.07-.24.16-.35.26-.12.08-.24.19-.35.28-.01 0-.02 0-.02.02-.21.16-.41.32-.61.51-.2.17-.39.34-.59.53-.25.23-.49.47-.73.7 0-2.81.32-5.64.93-8.43 2.68-12.12 11.02-23.74 23.7-31.04 1.65-.95 3.3-1.8 4.99-2.55h.01c2.91-1.31 5.87-2.31 8.85-3.03 5.22-1.28 10.47-1.69 15.51-1.25 1.92.16 3.81.45 5.66.85 6.48 1.4 12.4 4.26 17.2 8.46v-.02ZM137.19 270.16c-.28.09-.56.19-.84.27M132.14 271.351c-.28.04-.56.07-.84.1"/><path stroke="#404066" stroke-miterlimit="10" stroke-width="2" d="M112.929 240.08c-.25.35-.49.71-.73 1.08"/><path fill="red" stroke="#404066" stroke-miterlimit="10" stroke-width="2" d="M176.089 244.97c-.25-.11-.5-.22-.76-.31-.3-.13-.59-.24-.9-.34a.935.935 0 0 0-.22-.07c-.18-.07-.36-.13-.55-.18-.2-.07-.39-.13-.6-.19-.3-.08-.61-.17-.93-.23-.36-.09-.73-.17-1.1-.22-.3-.06-.6-.1-.9-.13-.24-.04-.49-.07-.74-.08-.66-.07-1.34-.1-2.01-.1-.42 0-.84.01-1.26.04-.22.01-.44.03-.64.05-.33.03-.65.06-.97.11-.16.02-.32.04-.48.07-.17.02-.32.05-.49.08-.42.07-.86.17-1.28.28h-.01c-.24.06-.47.12-.7.2-.24.06-.48.13-.71.22a22.48 22.48 0 0 0-4.19 1.85c-.56.32-1.11.67-1.63 1.04 0-.77-.05-1.52-.15-2.27-.3-2.33-1.05-4.59-2.26-6.69-1.64-2.84-3.96-5.07-6.7-6.65 1.77-4.04 4.83-7.59 8.98-10 3.01-1.74 6.28-2.68 9.52-2.88h.01c2.77 2.45 5.16 5.31 7.07 8.62 1.47 2.54 2.57 5.2 3.33 7.94.75 2.69 1.16 5.45 1.25 8.25.02.53.03 1.06.02 1.6v-.01Z"/><path stroke="#404066" stroke-miterlimit="10" stroke-width="2" d="M176.089 244.971c-.01 1.48-.11 2.96-.3 4.45"/><path stroke="#404066" stroke-miterlimit="10" stroke-width="2" d="M176.089 244.971c-.01 1.48-.11 2.96-.3 4.45"/><path fill="red" stroke="#404066" stroke-miterlimit="10" stroke-width="2" d="M115.5 267.221c-4.33-.45-8.87.44-12.97 2.8a21.456 21.456 0 0 0-7.49 7.19 33.54 33.54 0 0 1-2.87-4.21c-.85-1.47-1.57-2.98-2.19-4.53a34.19 34.19 0 0 1-2.21-8.92c-.01-.07-.01-.13-.02-.21-.13-1.25-.2-2.51-.2-3.77.24-.25.48-.49.73-.71.2-.19.39-.36.59-.53.2-.19.4-.35.61-.51 0-.02.01-.02.02-.02.11-.09.23-.2.35-.28.11-.1.24-.19.35-.26.56-.44 1.15-.83 1.76-1.18.1-.07.22-.13.32-.2.28-.17.55-.31.83-.46.59-.31 1.18-.58 1.78-.83.3-.12.6-.24.91-.35.3-.1.6-.21.91-.31.29-.08.58-.17.87-.25 1.23-.33 2.48-.54 3.71-.64h.01c.06-.01.12-.01.18-.01.23-.02.48-.03.7-.04a20.976 20.976 0 0 1 6.7.79c-.56 3.46-.23 6.96 1.11 10.18.29.73.64 1.44 1.05 2.13.38.65.8 1.27 1.24 1.86.93 1.23 2 2.32 3.2 3.25l.02.02Z"/><path stroke="#404066" stroke-miterlimit="10" stroke-width="2" d="M179.57 228.99c0 5.29-1.28 10.24-3.5 14.39-.09-2.8-.51-5.55-1.25-8.25.49-1.95.74-4.01.74-6.14 0-12.23-8.33-22.14-18.61-22.14-3.56 0-6.9 1.19-9.73 3.26-1.84-.4-3.74-.69-5.66-.85 4.03-4.47 9.44-7.19 15.39-7.19 12.49 0 22.63 12.05 22.63 26.92h-.01ZM126.049 210.52c-2.97.71-5.94 1.72-8.85 3.03h-.01c-7.77-.59-16.93 4.4-23.02 13.34-4.51 6.62-6.38 14.01-5.68 20.24-.61 2.8-.93 5.63-.93 8.43 0 1.27.06 2.53.2 3.78-.02.04-.04.08-.05.11-6.13-8.37-5.13-22.66 3.15-34.82 9.42-13.82 24.84-19.88 35.19-14.11ZM176.619 282.08c-8.35 12.26-23.5 16.5-33.82 9.47-1.08-.73-2.05-1.55-2.93-2.47 1.73-.5 3.45-1.1 5.16-1.8.15.11.3.23.46.33 8.5 5.78 20.95 2.3 27.82-7.79 5.49-8.07 5.75-17.92 1.28-24.5.56-1.95.96-3.93 1.2-5.9 7.8 7.73 8.37 21.57.83 32.66Z"/><path stroke="#404066" stroke-miterlimit="10" stroke-width="2" d="M176.09 244.971c-.01 1.48-.11 2.96-.3 4.45-.24 1.97-.64 3.95-1.2 5.9-.25.89-.53 1.78-.84 2.66-3.15 8.97-9.42 17.35-18.22 23.54a53.705 53.705 0 0 1-10.49 5.76c-1.71.7-3.43 1.31-5.16 1.8-2.09.62-4.19 1.09-6.28 1.41-2.4.38-4.8.59-7.17.6-2.76.03-5.48-.19-8.12-.64h-.01c-2.53-.44-4.97-1.1-7.32-1.96-6.28-2.3-11.79-6.1-15.92-11.29 1.8-2.87 4.33-5.37 7.49-7.19 4.1-2.36 8.64-3.24 12.97-2.8 2.31 1.83 5.05 3.1 8.02 3.78.83.19 1.68.33 2.55.42 1.04.12 2.1.18 3.17.15.26.01.51 0 .77-.02.05 0 .1 0 .17-.01l.5-.03c.21-.01.42-.03.63-.05.29-.02.56-.06.84-.1.35-.04.69-.09 1.05-.17.26-.04.53-.09.8-.15.22-.04.45-.09.66-.16.23-.04.45-.1.67-.16.34-.09.68-.2 1.03-.3.28-.08.56-.17.84-.27a22.9 22.9 0 0 0 1.57-.59c.14-.05.28-.11.42-.18.28-.12.56-.25.85-.38.29-.13.58-.28.87-.44.4-.2.81-.42 1.21-.65a28.28 28.28 0 0 0 3.81-2.64c3.07-2.53 5.43-5.59 6.97-8.88.13-.28.26-.57.37-.85.07-.16.13-.3.19-.46.06-.15.12-.3.17-.45.09-.21.17-.42.23-.63.09-.25.18-.51.25-.77.05-.15.09-.29.12-.44.07-.23.13-.47.19-.7.1-.38.19-.77.25-1.16.03-.13.05-.27.07-.4.03-.13.05-.27.06-.41.04-.27.08-.54.1-.82.04-.34.07-.68.08-1.02.03-.41.03-.82.03-1.23.52-.36 1.07-.71 1.63-1.04 1.36-.78 2.76-1.4 4.19-1.85.24-.08.48-.16.71-.22.24-.07.47-.13.7-.2h.01c.42-.1.86-.2 1.28-.28.17-.03.32-.06.49-.08.16-.03.32-.05.48-.07.32-.05.64-.08.97-.11.21-.02.42-.04.64-.05.42-.03.84-.04 1.26-.04.67 0 1.35.03 2.01.1.25.02.5.05.74.08.3.04.6.08.9.13.37.06.74.13 1.1.22.32.06.63.15.93.23.21.05.4.11.6.19.19.05.37.1.55.18.07.01.15.04.22.07.3.1.6.22.9.34.26.09.51.2.76.31l-.01.02Z"/><path stroke="#404066" stroke-miterlimit="10" stroke-width="2" d="M126.419 291.1c-9.76 7.64-22.32 9.21-31.49 2.96-10.27-6.99-12.95-21.51-7.23-34.6.02.03.04.06.07.09a34.19 34.19 0 0 0 2.21 8.92c-1.21 8.42 1.6 16.54 8.1 20.97 5.85 3.99 13.38 4.09 20.2 1.02h.01c2.64.46 5.37.67 8.12.64h.01Z"/><path fill="#000" d="M285.229 297.83h-2.4v13.26h2.4v-13.26ZM294.769 301.461c-.51-.29-1.11-.44-1.8-.44-.74 0-1.37.16-1.87.49-.5.33-.87.77-1.1 1.33h-.12v-1.69h-2.24v9.95h2.34v-5.83c0-.48.09-.89.27-1.22.18-.34.43-.59.74-.77.32-.18.68-.27 1.09-.27.6 0 1.08.19 1.42.56.34.38.51.9.51 1.56v5.97h2.34v-6.33c0-.79-.14-1.47-.42-2.03-.28-.56-.68-.98-1.19-1.28h.03ZM303.959 305.421l-1.7-.36c-.5-.12-.87-.27-1.08-.45a.84.84 0 0 1-.32-.71c0-.34.16-.61.49-.82.33-.21.74-.32 1.23-.32.36 0 .67.06.92.17.25.12.45.27.6.46.15.19.25.39.31.61l2.14-.23c-.16-.85-.58-1.52-1.25-2.01-.67-.5-1.59-.74-2.76-.74-.79 0-1.5.12-2.1.37-.6.25-1.08.6-1.42 1.05-.34.45-.51.98-.5 1.6 0 .73.22 1.32.68 1.8.46.47 1.16.81 2.12 1.01l1.7.36c.46.1.8.24 1.01.43.22.19.33.42.33.71 0 .34-.17.62-.51.85-.34.23-.79.34-1.34.34s-.98-.11-1.31-.34c-.33-.23-.56-.57-.66-1.02l-2.29.22c.14.92.58 1.63 1.33 2.14.74.51 1.72.77 2.94.77.83 0 1.56-.13 2.2-.4.64-.27 1.14-.64 1.5-1.12.36-.48.54-1.03.55-1.66 0-.71-.24-1.29-.7-1.73-.46-.44-1.16-.76-2.1-.96l-.01-.02ZM314.939 306.91c0 .5-.1.92-.31 1.26-.21.33-.48.59-.8.75-.32.17-.66.25-1 .25-.56 0-1.01-.19-1.36-.56-.35-.37-.52-.87-.52-1.5v-5.97h-2.34v6.33c0 .79.14 1.47.42 2.03.28.56.67.99 1.17 1.28.5.29 1.07.44 1.73.44.75 0 1.38-.18 1.89-.53.51-.35.88-.81 1.1-1.37h.1v1.77h2.27v-9.95h-2.34v5.76l-.01.01ZM324.429 301.01c-.57 0-1.08.16-1.52.47-.44.31-.75.76-.94 1.33h-.1v-1.66h-2.27v9.95h2.34v-5.85c0-.42.1-.8.29-1.12.19-.32.46-.58.8-.76.34-.18.72-.28 1.15-.28a4.397 4.397 0 0 1 1.09.13v-2.16c-.11-.02-.24-.04-.4-.05-.16-.01-.31-.02-.44-.02v.02ZM333.369 301.741c-.39-.26-.83-.44-1.3-.55-.48-.11-.95-.17-1.43-.17-.7 0-1.33.1-1.9.31-.57.21-1.06.51-1.46.92-.4.41-.68.92-.85 1.52l2.19.31c.12-.34.34-.64.68-.89.33-.25.79-.38 1.36-.38.54 0 .96.13 1.25.4.29.27.43.65.43 1.13v.04c0 .22-.08.39-.25.5-.17.11-.43.18-.79.23-.36.05-.84.11-1.42.17-.48.05-.95.14-1.4.25-.45.11-.86.28-1.21.5-.36.22-.64.51-.85.88-.21.37-.31.83-.31 1.39 0 .65.15 1.2.44 1.64.29.45.69.78 1.19 1.01.5.23 1.07.34 1.7.34.52 0 .97-.07 1.36-.22.39-.14.71-.34.97-.58.26-.24.46-.5.6-.77h.08v1.37h2.25v-6.66c0-.66-.12-1.21-.36-1.65-.24-.44-.56-.79-.95-1.05l-.02.01Zm-1.03 5.79c0 .37-.09.71-.28 1.02-.19.31-.46.56-.8.75-.35.19-.75.28-1.22.28s-.89-.11-1.2-.33c-.32-.22-.47-.55-.47-.98 0-.3.08-.55.24-.74.16-.19.38-.34.65-.45.28-.11.59-.19.94-.23.16-.02.34-.05.55-.08.21-.03.43-.06.64-.1.21-.04.41-.08.59-.14.18-.06.3-.11.37-.17v1.17h-.01ZM344.069 301.461c-.51-.29-1.11-.44-1.8-.44-.74 0-1.37.16-1.87.49-.5.33-.87.77-1.1 1.33h-.12v-1.69h-2.24v9.95h2.34v-5.83c0-.48.09-.89.27-1.22.18-.34.43-.59.74-.77.32-.18.68-.27 1.09-.27.6 0 1.08.19 1.42.56.34.38.51.9.51 1.56v5.97h2.34v-6.33c0-.79-.14-1.47-.42-2.03-.28-.56-.68-.98-1.19-1.28h.03ZM351.069 303.301c.36-.26.78-.39 1.26-.39.57 0 1.02.16 1.36.48.34.32.55.72.64 1.2h2.24c-.05-.72-.26-1.34-.63-1.88-.37-.54-.87-.95-1.49-1.25-.62-.3-1.34-.44-2.15-.44-.97 0-1.81.22-2.52.65-.71.43-1.26 1.04-1.65 1.81-.39.77-.58 1.67-.58 2.68 0 1.01.19 1.89.57 2.67.38.77.93 1.38 1.64 1.81.71.44 1.56.65 2.55.65.83 0 1.56-.15 2.18-.46.62-.3 1.11-.73 1.46-1.27.36-.54.57-1.17.62-1.87h-2.24c-.07.36-.2.66-.38.91-.19.25-.42.44-.69.57-.27.13-.58.2-.93.2-.49 0-.91-.13-1.27-.39s-.64-.63-.84-1.12c-.2-.49-.3-1.07-.3-1.75 0-.68.1-1.24.3-1.72.2-.48.48-.85.85-1.1v.01ZM365.889 302.221c-.42-.41-.91-.71-1.45-.91-.55-.2-1.13-.29-1.74-.29-.95 0-1.78.22-2.48.65-.7.43-1.25 1.04-1.64 1.81-.39.77-.59 1.67-.59 2.7 0 1.03.19 1.94.58 2.71.39.77.94 1.36 1.67 1.77.72.42 1.58.62 2.58.62.77 0 1.46-.12 2.06-.35.6-.24 1.09-.57 1.48-1 .39-.43.65-.93.79-1.51l-2.19-.25c-.1.28-.26.52-.46.71-.2.19-.44.33-.72.43-.28.1-.58.15-.93.15-.51 0-.96-.11-1.33-.33-.37-.22-.68-.53-.89-.95-.2-.4-.3-.88-.31-1.43h6.92v-.72c0-.87-.12-1.62-.36-2.26-.24-.63-.57-1.15-.99-1.56v.01Zm-5.56 2.96c.02-.39.11-.75.29-1.08.2-.37.48-.68.84-.91.36-.23.78-.35 1.26-.35.45 0 .84.1 1.18.3.34.2.6.48.79.83.19.35.29.75.29 1.2h-4.66l.01.01ZM381.219 298.4c-.69-.38-1.55-.57-2.57-.57h-4.97v13.26h2.4v-4.48h2.54c1.02 0 1.88-.19 2.58-.57.7-.38 1.23-.9 1.59-1.56.36-.66.54-1.42.54-2.27 0-.85-.18-1.59-.53-2.26-.36-.66-.88-1.18-1.57-1.56l-.01.01Zm-.62 5.07c-.18.36-.47.65-.85.85-.38.21-.87.31-1.46.31h-2.21v-4.8h2.2c.6 0 1.09.1 1.47.3.38.2.67.48.85.84.18.36.28.77.28 1.24s-.09.89-.28 1.25v.01ZM387.549 297.83h-2.34v13.26h2.34v-13.26ZM395.849 308.611c-.19.25-.42.44-.69.57-.27.13-.58.2-.93.2-.49 0-.91-.13-1.27-.39s-.64-.63-.84-1.12c-.2-.49-.3-1.07-.3-1.75 0-.68.1-1.24.3-1.72.2-.48.48-.85.85-1.1.36-.26.78-.39 1.26-.39.57 0 1.02.16 1.36.48.34.32.55.72.64 1.2h2.24c-.05-.72-.26-1.34-.63-1.88-.37-.54-.87-.95-1.49-1.25-.62-.3-1.34-.44-2.15-.44-.97 0-1.81.22-2.52.65-.71.43-1.26 1.04-1.65 1.81-.39.77-.58 1.67-.58 2.68 0 1.01.19 1.89.57 2.67.38.77.93 1.38 1.64 1.81.71.44 1.56.65 2.55.65.83 0 1.56-.15 2.18-.46.62-.3 1.11-.73 1.46-1.27.36-.54.57-1.17.62-1.87h-2.24c-.07.36-.2.66-.38.91v.01Z"/></g><defs><clipPath id="a"><path fill="#fff" d="M82.77 184.21h334.46v131.58H82.77z"/></clipPath></defs></svg>