<svg width="500" height="500" viewBox="0 0 500 500" fill="none" xmlns="http://www.w3.org/2000/svg">
<rect width="500" height="500" fill="white"/>
<g clip-path="url(#clip0_11_8412)">
<path d="M404.736 202.741L378.055 195.036V113.174H376.323V194.534L369.259 192.508V113.174H367.528V192.006L360.463 189.963V113.174H358.732V189.461L351.668 187.417V113.174H349.936V186.915L342.855 184.89V113.174H341.123V184.387L334.059 182.344V113.174H332.328V181.842L325.263 179.799V113.174H323.532V179.297L316.468 177.271V113.174H314.736V176.769L307.655 174.726V113.174H305.923V174.224L298.859 172.181V113.174H297.128V171.679L290.063 169.653V113.174H288.332V169.151L281.268 167.108V113.174H279.536V166.606L272.472 164.563V113.174H270.741V164.061L263.659 162.035V113.174H261.928V161.533L254.863 159.49V113.174H253.132V158.987L247.972 157.498L246.068 158.052V113.174H244.336V158.572L237.272 160.65V113.174H235.541V161.169L228.459 163.247V113.174H226.728V163.749L219.663 165.844V113.174H217.932V166.346L210.868 168.441V113.174H209.136V168.943L202.072 171.021V113.174H200.341V171.54L193.259 173.618V113.174H191.528V174.137L184.464 176.215V113.174H182.732V176.717L175.668 178.812V113.174H173.936V179.314L166.872 181.392V113.174H165.141V181.912L158.077 183.989V113.174H156.345V184.509L149.264 186.586V113.174H147.532V187.106L140.468 189.184V113.174H138.736V189.686L131.672 191.781V113.174H129.941V192.283L122.877 194.361V113.174H121.145V194.88L94.4639 202.741V297.519L121.145 305.293V386.947H122.877V305.795L129.941 307.856V386.947H131.672V308.358L138.736 310.418V386.947H140.468V310.92L147.532 312.981V386.947H149.264V313.483L156.345 315.543V386.947H158.077V316.045L165.141 318.106V386.947H166.872V318.608L173.936 320.668V386.947H175.668V321.17L182.732 323.231V386.947H184.464V323.733L191.528 325.793V386.947H193.259V326.295L200.341 328.356V386.947H202.072V328.858L209.136 330.918V386.947H210.868V331.42L217.932 333.481V386.947H219.663V334L226.728 336.043V386.947H228.459V336.563L235.541 338.623V386.947H237.272V339.125L244.336 341.186V386.947H246.068V341.688L249.271 342.623L253.132 341.497V386.947H254.863V340.995L261.928 338.952V386.947H263.659V338.45L270.741 336.39V386.947H272.472V335.888L279.536 333.844V386.947H281.268V333.342L288.332 331.282V386.947H290.063V330.78L297.128 328.737V386.947H298.859V328.235L305.923 326.174V386.947H307.655V325.672L314.736 323.629V386.947H316.468V323.127L323.532 321.066V386.947H325.263V320.564L332.328 318.521V386.947H334.059V318.019L341.123 315.976V386.947H342.855V315.474L349.936 313.414V386.947H351.668V312.911L358.732 310.868V386.947H360.463V310.366L367.528 308.306V386.947H369.259V307.804L376.323 305.761V386.947H378.055V305.259L404.736 297.519V202.741Z" fill="#263A94"/>
<path d="M249.289 335.991C249.289 335.991 249.133 335.991 249.046 335.956L101.719 294.506C101.338 294.402 101.096 294.055 101.096 293.675V206.566C101.096 206.185 101.355 205.839 101.719 205.735L247.817 164.164C247.973 164.129 248.129 164.112 248.284 164.164L397.482 205.735C397.863 205.839 398.122 206.185 398.122 206.566V293.675C398.122 294.055 397.863 294.402 397.482 294.506L249.531 335.956C249.531 335.956 249.375 335.991 249.306 335.991H249.289ZM102.827 293.017L249.289 334.225L396.374 293.017V207.224L248.059 165.895L102.827 207.224V293.017Z" fill="white"/>
<path d="M135.309 267.184H127.552L139.377 232.919H148.71L160.518 267.184H152.761L144.173 240.762H143.914L135.309 267.184ZM134.824 253.713H153.16V259.375H134.824V253.713Z" fill="#FCFEFF"/>
<path d="M164.396 267.184V232.919H177.919C180.516 232.919 182.732 233.404 184.568 234.391C186.403 235.378 187.788 236.745 188.758 238.494C189.727 240.243 190.212 242.251 190.212 244.52C190.212 246.788 189.727 248.796 188.74 250.545C187.753 252.276 186.334 253.644 184.481 254.614C182.628 255.583 180.378 256.068 177.746 256.068H169.123V250.268H176.568C177.954 250.268 179.114 250.025 180.014 249.541C180.914 249.056 181.607 248.381 182.057 247.515C182.507 246.649 182.732 245.662 182.732 244.537C182.732 243.411 182.507 242.407 182.057 241.559C181.607 240.71 180.914 240.035 180.014 239.568C179.096 239.1 177.936 238.858 176.534 238.858H171.651V267.201H164.414L164.396 267.184Z" fill="#FCFEFF"/>
<path d="M194.68 267.184V232.919H217.76V238.892H201.917V247.047H216.565V253.021H201.917V261.193H217.829V267.167H194.68V267.184Z" fill="#FCFEFF"/>
<path d="M230.087 232.936L236.996 244.605H237.255L244.198 232.936H252.371L241.913 250.059L252.596 267.183H244.268L237.238 255.496H236.978L229.949 267.183H221.655L232.373 250.059L221.846 232.936H230.053H230.087Z" fill="#FCFEFF"/>
<path d="M267.399 232.936H276.334L285.77 255.946H286.168L295.604 232.936H304.539V267.201H297.509V244.9H297.232L288.367 267.027H283.588L274.723 244.813H274.446V267.201H267.417V232.936H267.399Z" fill="#FCFEFF"/>
<path d="M317.489 232.936V267.201H310.252V232.936H317.489Z" fill="#FCFEFF"/>
<path d="M323.22 267.184V232.919H330.458V261.21H345.14V267.184H323.203H323.22Z" fill="#FCFEFF"/>
<path d="M349.729 267.184V232.919H356.967V261.21H371.649V267.184H349.712H349.729Z" fill="#FCFEFF"/>
</g>
<defs>
<clipPath id="clip0_11_8412">
<rect width="310.272" height="273.774" fill="white" transform="translate(94.4639 113.174)"/>
</clipPath>
</defs>
</svg>
