<svg width="500" height="500" viewBox="0 0 500 500" fill="none" xmlns="http://www.w3.org/2000/svg">
<rect width="500" height="500" fill="white"/>
<g clip-path="url(#clip0_11_8519)">
<path d="M394.683 276.791C394.683 358.916 328.111 425.487 245.986 425.487C163.861 425.487 97.2891 358.916 97.2891 276.791C97.2891 236.182 113.572 199.346 139.98 172.511L179.699 212.764C163.683 229.331 153.824 251.895 153.824 276.791C153.824 327.703 195.091 368.97 245.986 368.97C296.88 368.97 338.165 327.703 338.165 276.791C338.165 251.735 328.182 229.046 311.97 212.443L351.689 172.19C378.275 199.043 394.683 236.022 394.683 276.791Z" fill="#55585D"/>
<path d="M272.786 183.705H208.474L264.084 74.5137H329.072L272.786 183.705Z" fill="#F6821F"/>
</g>
<defs>
<clipPath id="clip0_11_8519">
<rect width="297.393" height="350.975" fill="white" transform="translate(97.2891 74.5137)"/>
</clipPath>
</defs>
</svg>
