<svg width="500" height="500" viewBox="0 0 500 500" fill="none" xmlns="http://www.w3.org/2000/svg">
<rect width="500" height="500" fill="white"/>
<g clip-path="url(#clip0_11_8618)">
<path d="M249.659 422.786C345.274 422.786 422.785 345.275 422.785 249.66C422.785 154.045 345.274 76.5342 249.659 76.5342C154.044 76.5342 76.5332 154.045 76.5332 249.66C76.5332 345.275 154.044 422.786 249.659 422.786Z" fill="#BF0027"/>
<path d="M249.659 410.206C338.326 410.206 410.205 338.327 410.205 249.66C410.205 160.993 338.326 89.1143 249.659 89.1143C160.992 89.1143 89.1133 160.993 89.1133 249.66C89.1133 338.327 160.992 410.206 249.659 410.206Z" fill="#ED0000"/>
<path d="M235.204 348.844C306.928 348.844 365.072 290.7 365.072 218.976C365.072 147.251 306.928 89.1074 235.204 89.1074C163.48 89.1074 105.336 147.251 105.336 218.976C105.336 290.7 163.48 348.844 235.204 348.844Z" fill="url(#paint0_linear_11_8618)"/>
<path d="M195.629 262.611C195.629 269.667 194.84 275.36 193.268 279.704C191.689 284.048 189.018 288.108 185.241 291.886C177.052 299.441 165.976 303.218 151.993 303.218C138.01 303.218 127.501 299.441 118.934 291.886C111.878 285.592 108.357 275.832 108.357 262.604V210.658C108.357 207.259 109.545 204.365 111.919 201.97C114.293 199.583 117.228 198.382 120.728 198.382C123.973 198.382 126.725 199.583 128.978 201.97C131.224 204.365 132.351 207.259 132.351 210.658V260.716C132.351 274.82 138.867 281.869 151.899 281.869C164.931 281.869 171.636 274.82 171.636 260.716V210.658C171.636 207.259 172.769 204.365 175.035 201.97C177.302 199.583 180.135 198.382 183.534 198.382C186.934 198.382 189.639 199.583 192.033 201.97C194.421 204.365 195.622 207.259 195.622 210.658V262.604L195.629 262.611Z" fill="white"/>
<path d="M281.572 210.665V209.107C281.572 206.119 282.705 203.583 284.972 201.505C287.238 199.427 289.943 198.389 293.093 198.389C296.493 198.389 299.326 199.4 301.592 201.411C303.859 203.427 304.992 205.883 304.992 208.777V291.704C304.992 294.982 303.811 297.721 301.444 299.92C299.076 302.119 296.162 303.225 292.708 303.225C289.255 303.225 286.597 302.139 284.364 299.967C282.125 297.795 281.005 295.097 281.005 291.866V290.004C276.371 295.346 272.263 298.881 268.695 300.621C265.127 302.355 260.331 303.225 254.321 303.225C241.538 303.225 230.86 298.227 222.28 288.237C213.7 278.24 209.41 265.835 209.41 250.996C209.41 236.156 213.754 223.535 222.442 213.471C231.13 203.414 241.896 198.389 254.746 198.389C260.661 198.389 265.322 199.158 268.722 200.689C272.122 202.227 276.405 205.552 281.565 210.665H281.572ZM257.774 220.298C250.719 220.298 244.992 223.124 240.587 228.77C236.176 234.422 233.977 241.889 233.977 251.178C233.977 260.466 236.115 267.751 240.398 273.397C244.675 279.05 250.348 281.869 257.397 281.869C264.823 281.869 270.617 279.171 274.773 273.775C278.928 268.378 281.005 260.776 281.005 250.989C281.005 241.201 278.928 234.105 274.773 228.581C270.617 223.056 264.951 220.291 257.774 220.291V220.298Z" fill="white"/>
<path d="M383.576 276.965C386.092 276.21 387.92 275.832 389.053 275.832C391.697 275.832 394.024 276.904 396.041 279.043C398.051 281.188 399.063 283.704 399.063 286.598C399.063 291.387 396.007 295.414 389.903 298.685C383.791 301.957 376.331 303.596 367.522 303.596C353.168 303.596 341.424 298.719 332.291 288.958C323.158 279.198 318.598 266.638 318.598 251.272C318.598 235.906 323.225 223.097 332.48 213.208C341.734 203.326 353.606 198.382 368.088 198.382C376.776 198.382 384.108 199.893 390.092 202.915C396.068 205.937 399.063 209.593 399.063 213.869C399.063 217.397 398.085 220.264 396.135 222.463C394.179 224.668 391.697 225.768 388.675 225.768C387.414 225.768 386.564 225.707 386.125 225.579C385.68 225.458 384.264 224.891 381.876 223.879C376.459 221.741 371.987 220.668 368.466 220.668C361.033 220.668 355.023 223.407 350.429 228.884C345.829 234.362 343.535 241.633 343.535 250.699C343.535 259.765 345.862 266.753 350.523 272.419C355.178 278.085 361.161 280.918 368.466 280.918C370.604 280.918 372.304 280.763 373.566 280.446C374.82 280.135 376.709 279.535 379.232 278.652L383.576 276.952V276.965Z" fill="white"/>
<path d="M176.554 336.931C176.237 336.776 175.913 336.648 175.596 336.567C175.279 336.479 174.975 336.439 174.685 336.439C174.24 336.439 173.876 336.547 173.592 336.756C173.316 336.965 173.174 337.242 173.174 337.579C173.174 337.775 173.208 337.923 173.269 338.031C173.336 338.139 173.478 338.26 173.707 338.409C173.93 338.557 174.132 338.665 174.301 338.746C174.469 338.827 174.84 338.982 175.4 339.205C175.946 339.4 176.446 339.603 176.898 339.812C177.269 339.974 177.626 340.169 177.963 340.392C178.51 340.763 178.928 341.188 179.211 341.667C179.495 342.146 179.636 342.678 179.636 343.279C179.636 344.459 179.164 345.424 178.226 346.186C177.289 346.948 176.081 347.326 174.611 347.326C173.43 347.326 172.304 347.056 171.238 346.51C170.172 345.97 169.633 345.35 169.633 344.655C169.633 344.264 169.761 343.933 170.017 343.657C170.274 343.38 170.584 343.245 170.935 343.245C171.191 343.245 171.589 343.4 172.122 343.704C172.425 343.879 172.695 344.041 172.931 344.176C173.167 344.311 173.457 344.432 173.801 344.527C174.145 344.621 174.456 344.675 174.732 344.675C175.252 344.675 175.683 344.54 176.027 344.277C176.371 344.007 176.547 343.684 176.547 343.292C176.547 342.746 175.987 342.26 174.881 341.835L173.815 341.424C172.634 340.972 171.791 340.567 171.272 340.21C170.483 339.643 170.085 338.827 170.085 337.761C170.085 336.601 170.53 335.643 171.42 334.901C172.311 334.159 173.451 333.788 174.847 333.788C176.027 333.788 177.066 334.031 177.957 334.51C178.847 334.996 179.292 335.549 179.292 336.176C179.292 336.527 179.171 336.83 178.935 337.08C178.699 337.329 178.402 337.451 178.038 337.451C177.774 337.451 177.498 337.377 177.201 337.235L176.54 336.925L176.554 336.931Z" fill="white"/>
<path d="M185.902 330.651C185.902 330.132 186.084 329.7 186.442 329.349C186.806 328.999 187.245 328.83 187.757 328.83C188.243 328.83 188.661 329.005 189.012 329.363C189.363 329.72 189.545 330.159 189.545 330.672C189.545 331.184 189.369 331.623 189.025 331.973C188.681 332.324 188.256 332.493 187.757 332.493C187.258 332.493 186.806 332.317 186.442 331.973C186.078 331.623 185.902 331.184 185.902 330.651ZM189.275 345.687C189.275 346.125 189.133 346.496 188.843 346.8C188.553 347.103 188.196 347.258 187.757 347.258C187.319 347.258 186.955 347.103 186.651 346.8C186.348 346.489 186.192 346.132 186.192 345.707V335.36C186.192 334.941 186.348 334.577 186.651 334.267C186.955 333.957 187.326 333.808 187.757 333.808C188.162 333.808 188.513 333.963 188.816 334.267C189.12 334.577 189.275 334.948 189.275 335.38V345.68V345.687Z" fill="white"/>
<path d="M199.575 335.34C199.832 335.022 200.02 334.827 200.135 334.766C200.911 334.112 201.902 333.788 203.096 333.788C204.439 333.788 205.606 334.24 206.59 335.144C207.029 335.582 207.346 336.068 207.535 336.601C207.724 337.134 207.825 337.795 207.825 338.591V345.768C207.825 346.186 207.676 346.55 207.386 346.861C207.096 347.171 206.732 347.319 206.294 347.319C205.855 347.319 205.491 347.171 205.187 346.867C204.891 346.571 204.735 346.2 204.735 345.768V339.009C204.735 338.301 204.493 337.694 204.007 337.194C203.521 336.695 202.928 336.446 202.233 336.446C201.538 336.446 200.918 336.695 200.425 337.188C199.933 337.68 199.683 338.287 199.683 338.995V345.768C199.683 346.206 199.535 346.571 199.231 346.874C198.934 347.171 198.57 347.326 198.152 347.326C197.734 347.326 197.349 347.178 197.046 346.874C196.749 346.571 196.594 346.206 196.594 345.768V335.144C196.594 334.773 196.749 334.456 197.052 334.193C197.363 333.936 197.734 333.802 198.172 333.802C198.543 333.802 198.867 333.936 199.143 334.2C199.42 334.463 199.555 334.786 199.555 335.164V335.36L199.575 335.34Z" fill="white"/>
<path d="M222.934 343.886C223.257 343.791 223.494 343.737 223.635 343.737C223.972 343.737 224.276 343.879 224.532 344.149C224.789 344.425 224.924 344.749 224.924 345.12C224.924 345.734 224.532 346.253 223.743 346.672C222.961 347.09 221.996 347.306 220.863 347.306C219.015 347.306 217.51 346.678 216.337 345.424C215.163 344.169 214.576 342.557 214.576 340.581C214.576 338.604 215.17 336.958 216.364 335.69C217.551 334.422 219.082 333.781 220.944 333.781C222.064 333.781 223.001 333.977 223.77 334.361C224.539 334.753 224.924 335.218 224.924 335.771C224.924 336.223 224.795 336.594 224.546 336.877C224.296 337.161 223.972 337.302 223.588 337.302C223.426 337.302 223.318 337.296 223.257 337.275C223.203 337.262 223.021 337.188 222.711 337.06C222.016 336.783 221.443 336.648 220.984 336.648C220.026 336.648 219.257 336.999 218.664 337.707C218.07 338.409 217.78 339.346 217.78 340.513C217.78 341.68 218.077 342.577 218.677 343.306C219.278 344.034 220.047 344.398 220.984 344.398C221.261 344.398 221.477 344.378 221.639 344.338C221.8 344.297 222.043 344.223 222.367 344.108L222.927 343.893L222.934 343.886Z" fill="white"/>
<path d="M234.179 341.552C234.273 341.909 234.374 342.213 234.482 342.476C234.59 342.732 234.705 342.975 234.833 343.205C235.076 343.623 235.447 343.96 235.953 344.203C236.452 344.446 236.998 344.567 237.578 344.567C238.469 344.567 239.332 344.297 240.175 343.751C240.533 343.501 240.809 343.333 241.012 343.245C241.214 343.157 241.403 343.11 241.585 343.11C241.99 343.11 242.314 343.232 242.556 343.474C242.799 343.717 242.921 344.028 242.921 344.405C242.921 344.783 242.745 345.167 242.388 345.532C241.126 346.719 239.467 347.313 237.41 347.313C235.48 347.313 233.902 346.692 232.674 345.444C231.447 344.196 230.826 342.584 230.826 340.614C230.826 338.645 231.427 337.066 232.62 335.758C233.821 334.449 235.298 333.788 237.066 333.788C238.927 333.788 240.425 334.49 241.558 335.893C242.01 336.439 242.394 337.12 242.698 337.936C243.008 338.753 243.157 339.495 243.157 340.176C243.157 340.675 243.042 341.033 242.819 341.242C242.59 341.451 242.199 341.559 241.632 341.559H234.179V341.552ZM237.093 336.311C235.46 336.311 234.469 337.37 234.131 339.495H240.007C239.649 337.377 238.678 336.311 237.093 336.311Z" fill="white"/>
<path d="M266.011 332.446H264.264C263.859 332.446 263.515 332.305 263.232 332.021C262.948 331.738 262.807 331.394 262.807 330.989C262.807 330.585 262.955 330.261 263.245 329.971C263.535 329.681 263.886 329.532 264.291 329.532H267.717C268.156 329.532 268.513 329.681 268.783 329.971C269.053 330.261 269.194 330.638 269.194 331.111V345.633C269.194 346.072 269.039 346.45 268.736 346.773C268.426 347.097 268.048 347.259 267.596 347.259C267.144 347.259 266.786 347.097 266.476 346.773C266.166 346.45 266.017 346.079 266.017 345.66V332.446H266.011Z" fill="white"/>
<path d="M279.637 337.403L278.834 336.722C278.072 335.96 277.694 334.989 277.694 333.808C277.694 332.5 278.173 331.4 279.138 330.516C280.102 329.633 281.296 329.194 282.719 329.194C284.143 329.194 285.357 329.633 286.315 330.503C287.272 331.38 287.745 332.479 287.745 333.808C287.745 334.456 287.643 335.002 287.441 335.447C287.239 335.892 287.043 336.236 286.847 336.466C286.652 336.695 286.315 337.012 285.829 337.403C286.119 337.532 286.348 337.653 286.51 337.754C286.672 337.862 286.807 337.95 286.922 338.031C287.421 338.388 287.826 338.914 288.136 339.609C288.446 340.304 288.595 341.026 288.595 341.768C288.595 343.373 288.035 344.709 286.922 345.774C285.802 346.84 284.406 347.38 282.719 347.38C281.033 347.38 279.657 346.847 278.544 345.774C277.431 344.702 276.871 343.373 276.871 341.768C276.871 340.972 277.04 340.223 277.384 339.508C277.613 338.989 277.876 338.591 278.173 338.307C278.47 338.024 278.962 337.72 279.643 337.397L279.637 337.403ZM282.719 338.712C282.004 338.712 281.411 338.975 280.932 339.501C280.453 340.027 280.217 340.702 280.217 341.532C280.217 342.307 280.46 342.982 280.945 343.548C281.431 344.115 282.011 344.398 282.692 344.398C283.374 344.398 284.001 344.122 284.487 343.575C284.972 343.022 285.215 342.355 285.215 341.559C285.215 340.763 284.979 340.075 284.514 339.528C284.041 338.989 283.448 338.712 282.719 338.712ZM282.719 331.96C282.166 331.96 281.701 332.162 281.31 332.567C280.918 332.972 280.729 333.484 280.729 334.098C280.729 334.665 280.925 335.157 281.31 335.582C281.701 336 282.166 336.216 282.719 336.216C283.272 336.216 283.765 336.014 284.149 335.609C284.541 335.204 284.729 334.692 284.729 334.078C284.729 333.464 284.534 332.978 284.149 332.574C283.758 332.169 283.286 331.967 282.719 331.967V331.96Z" fill="white"/>
<path d="M303.676 332.446H297.025C296.587 332.446 296.223 332.311 295.933 332.035C295.643 331.765 295.494 331.407 295.494 330.976C295.494 330.578 295.643 330.234 295.946 329.95C296.243 329.667 296.607 329.532 297.025 329.532H306.01C306.428 329.532 306.786 329.681 307.076 329.971C307.366 330.261 307.514 330.618 307.514 331.043C307.514 331.273 307.447 331.515 307.319 331.772L300.445 346.355C300.155 346.955 299.595 347.259 298.772 347.259C298.401 347.259 298.071 347.084 297.774 346.733C297.484 346.382 297.336 345.971 297.336 345.505C297.336 345.377 297.369 345.229 297.43 345.067L303.67 332.446H303.676Z" fill="white"/>
<path d="M320.019 340.513C319.291 340.769 318.711 340.904 318.272 340.904C316.815 340.904 315.615 340.385 314.663 339.333C313.719 338.287 313.24 336.965 313.24 335.38C313.24 333.613 313.793 332.149 314.893 331.002C315.992 329.849 317.395 329.275 319.095 329.275C320.795 329.275 322.218 329.849 323.318 331.002C324.417 332.149 324.97 333.633 324.97 335.447C324.97 336.614 324.701 337.882 324.154 339.258C323.608 340.635 322.852 342.004 321.881 343.36C321.072 344.493 320.1 345.626 318.967 346.759C318.515 347.211 318.07 347.441 317.631 347.441C317.193 347.441 316.802 347.292 316.505 346.995C316.208 346.699 316.053 346.328 316.053 345.896L316.1 345.484C316.195 345.289 316.35 345.073 316.559 344.83C316.653 344.736 316.977 344.398 317.53 343.812C317.982 343.346 318.394 342.861 318.758 342.375C319.122 341.889 319.54 341.269 320.006 340.527L320.019 340.513ZM319.142 332.351C318.38 332.351 317.766 332.628 317.294 333.181C316.822 333.734 316.593 334.449 316.593 335.326C316.593 336.203 316.829 336.877 317.294 337.451C317.766 338.017 318.36 338.301 319.088 338.301C319.817 338.301 320.417 338.038 320.896 337.511C321.375 336.985 321.611 336.297 321.611 335.454C321.611 334.53 321.382 333.781 320.93 333.208C320.478 332.641 319.878 332.351 319.136 332.351H319.142Z" fill="white"/>
</g>
<defs>
<linearGradient id="paint0_linear_11_8618" x1="235.204" y1="89.1074" x2="235.204" y2="348.844" gradientUnits="userSpaceOnUse">
<stop stop-color="#F37171"/>
<stop offset="1" stop-color="#ED0000"/>
</linearGradient>
<clipPath id="clip0_11_8618">
<rect width="346.252" height="346.252" fill="white" transform="translate(76.5332 76.5342)"/>
</clipPath>
</defs>
</svg>
