<svg width="500" height="500" viewBox="0 0 500 500" fill="none" xmlns="http://www.w3.org/2000/svg">
<rect width="500" height="500" fill="white"/>
<g clip-path="url(#clip0_11_8682)">
<path d="M224.029 181.245H84.4551V318.755H224.029V181.245Z" fill="#1C2753"/>
<path d="M244.394 267.287H233.015V283.268H227.828V238.558H244.722C254.786 238.558 261.818 244.073 261.818 252.895C261.818 260 257.288 264.986 250.311 266.629L263.863 283.268H257.416L244.394 267.287ZM233.015 262.484H244.576C251.553 262.484 256.667 258.867 256.667 252.877C256.667 246.886 251.535 243.343 244.576 243.343H233.015V262.465V262.484Z" fill="#1C2753"/>
<path d="M272.082 280.437C272.082 278.592 273.598 277.223 275.443 277.223C277.287 277.223 278.858 278.611 278.858 280.437C278.858 282.264 277.342 283.798 275.443 283.798C273.543 283.798 272.082 282.355 272.082 280.437Z" fill="#1C2753"/>
<path d="M296.082 243.36V258.684H319.551V263.487H296.082V278.482H322.181V283.286H290.895V238.575H322.181V243.379H296.082V243.36Z" fill="#1C2753"/>
<path d="M332.117 280.437C332.117 278.592 333.633 277.223 335.478 277.223C337.322 277.223 338.893 278.611 338.893 280.437C338.893 282.264 337.377 283.798 335.478 283.798C333.578 283.798 332.117 282.355 332.117 280.437Z" fill="#1C2753"/>
<path d="M356.115 238.558V283.268H350.928V238.558H356.115Z" fill="#1C2753"/>
<path d="M368.078 280.437C368.078 278.592 369.594 277.223 371.439 277.223C373.283 277.223 374.854 278.611 374.854 280.437C374.854 282.264 373.338 283.798 371.439 283.798C369.539 283.798 368.078 282.355 368.078 280.437Z" fill="#1C2753"/>
<path d="M415.546 243.361H399.035V283.268H393.848V243.361H377.41V238.558H415.546V243.361Z" fill="#1C2753"/>
<path d="M192.999 239.069V257.023H174.79V239.069H153.165V263.123C153.165 269.954 149.348 274.228 143.503 274.228C137.659 274.228 133.896 269.954 133.896 263.123V239.069H122.719V262.94C122.719 276.821 130.737 284.638 143.485 284.638C154.206 284.638 161.548 279.159 163.667 269.26V283.78H174.771V267.013H192.981V283.78H204.03V239.069H192.981H192.999Z" fill="#FFFDFF"/>
<path d="M204.157 235.563H154.881L179.738 202.56L204.157 235.563Z" fill="#FFFDFF"/>
<path d="M176.207 212.005L163.432 229.679L164.912 230.749L177.687 213.075L176.207 212.005Z" fill="#1C2753"/>
</g>
<defs>
<clipPath id="clip0_11_8682">
<rect width="331.091" height="137.51" fill="white" transform="translate(84.4551 181.245)"/>
</clipPath>
</defs>
</svg>
