<svg xmlns="http://www.w3.org/2000/svg" width="500" height="500" fill="none" viewBox="0 0 500 500"><path fill="#fff" d="M0 0h500v500H0z"/><g fill="#0633CC" clip-path="url(#a)"><path d="M300.1 363.784c-.27 3.81 1.3 6.64.81 10.4-.26 1.95-1.84 6.7-4.22 6.7-2.1-.32-3.36-3.2-4.1-4.99-1.42-3.45-3.59-15.44-5.37-17.21-1.08-1.08-2.52-.13-3.29.81-1.92 2.35-3.66 9.4-5.48 12.77-2.96 5.45-8.76 12.14-15.29 7.52 6.34-4.53 12.26-9.61 7.49-17.99-3.53-6.2-9.55-3.8-13.16.92-3.96 5.18-5.02 11.88-4.11 18.23-3.23 2.93-11.21-1.63-11.25-5.25-.02-1.69 3.53-7.26 4.36-9.37 2.77-7.02 5.79-25.08-.67-30.35-7.78-6.35-12.62 6.27-13.93 12.1-1.68 7.45-1.43 14.03-.01 21.47.88 4.61 3.45 6.23-1.43 9.49-5.02 3.36-12.13 1.52-12.5-5.16-.22-4.03 1.67-6.3.43-10.91-1.05-3.9-4.03-5.08-6.43-1.51-3.13 4.66-1.35 11.41-5.18 15.36-1.35 1.39-2.57 1.64-4.19.58-3.79-2.5-4.93-12.71-7.25-16.93-.78-1.41-1.29-2.51-3.1-2.34-3.51.34-8.96 10.46-11.91 12.77-2.82-1.18-1.96-9.97-4.92-9.51-1.68.26-2.68 2.27-3.2 3.69-1.42 3.89-2.84 10.21-3.85 14.4-.45 1.89-2.41 7.55.65 7.77 4.53.32 16.98-16.24 21.29-15.77 4.94.54 6.73 17.34 13.18 15.76 2.81-.69 6.54-9.29 8.27-9 4.26 4.38 4.38 9.57 11.92 9.09 6.06-.39 6.89-3.5 10.85-5.12 3.07-1.26 4.51 2.37 7.33 3.84 4.72 2.46 9.06.55 13.32-1.92 6.37 6.11 15.93 2.46 21.51-2.89 1.06-1.02 5.22-6.84 6.27-6.66 3.29 3.69 3.03 13.69 10.43 12.66 8.95-1.23 15.06-16.92 15.4-24.79.44-10.03-8.1-6.67-8.68 1.36l.01-.02Zm-60.45 4.8c-.99-.92-1.37-2.61-1.55-3.92-.65-4.66-.83-16.63 1.85-20.41.31-.43.6-1.01 1.16-1.16 4.95-1.26 3.15 12.9 2.66 15.47-.29 1.56-2.48 10.03-4.12 10.01v.01Zm22-3.1c6.31-1.9 4.83 11.01-.96 11.28-2.58-2.1-2.25-10.32.96-11.28ZM224.96 138.515c-3.46 1.04-16.31-5.18-17.47-4.02-.57 3.88 7.4 15.25 5.28 18.28-4.81 2.55-11.53-9.22-15.48-8.27-.96.23-1.39 6.19-2.16 7.29-3.34.78-3.66-4.12-6.77-4.04-.66.45-2.76 10.07-3.46 11.83-.5 1.28-1.08 3.22-2.67 3.07l-1.1-.43c-2.06-4.27-1.26-9.21-2.86-13.58-1.16-.85-5.22 5.16-7.91 4.9-4.37-.42.53-10.34-2.1-12.44-1.18-.52-11.38 5.7-13.59 6.52-1.44.54-3.51 1.67-4.73.37-1.04-1.28.74-3.36 1.5-4.51 1.59-2.41 11.35-12.29 11.31-13.78-2.17-2.21-14.51 0-15.04-2.31 1.72-4.35 7.6-5.2 10.48-8.65.3-.77-1.32-1.16-1.83-1.34-1.55-.55-7.78-1.5-8.17-2.8l.42-1.33c2.2-2.12 17.45-.69 19.64 1.37 2.81 2.64-8.3 6.17-7.74 8.63.55 2.42 11.3.62 11.36 3.69.21 1.94-9.44 9.1-8.2 10.27 2.75.33 8.74-5.02 10.98-3.45 1.3.92-.96 7.3-.96 9.15 0 .69-.3 1.34.69 1.15 2.78-2.01 3.39-6.3 6.84-7.3 1.71.37.79 9.24 1.62 10.95.85.16 1.13-.39 1.46-1.04.93-1.82 1.53-8.07 3.08-8.8 1.82-.85 3.08 5.27 4.79 5.3l1.15-.7v-7.07c2.68-1.49 10.26 8.44 11.41 7.3-.41-3.1-6.17-11.88-4.15-14.42 1.86-2.33 9.45 2.6 12.17 2.54l.66-.18c1.63-1.17-1.4-4.41-2.31-5.49-1.45-1.73-7.07-5.94-6.16-7.98 1.35-3.04 16.95-5.73 20.32-4.12.04.5.08.93-.21 1.38-1.09 1.7-11.35 3.49-11.12 6.06.23 2.7 8.67 9.59 10.61 12.22 1.04 1.42 3.09 5 .4 5.8l.02-.02ZM269.331 287.814l-3.01-.24-.67 1.65c-2.27-.43-5-1.31-7.29-1.39-1.72-.06-3.74.66-4.98.47-1.19-.19-6.91-6.12-8.45-5.02-1.31 5.33-4.82 9.32-9.94 11.29-1.32.51-6.15 1.37-6.41 1.57-.29.21-.74 2.56-1.67 3.58-2.38 2.62-7.25 2.18-10.2.8-.71-4.84-3.89-9.23-8.3-11.31.76 4.97-1.82 10.13-7.08 10.95-2.1.33-4.88-.24-7.07 0 3.19 4.33 7 5.91 12.15 6.79 1.55.26 2.95-.13 4.66.36 2.91.84 7.41 5.24 11.04 6.76 9.28 3.87 20.39 3.24 28.97-2.04 1.58 4.49 7.23 4.51 11.2 3.9 1.59-.24 7.03-1.87 6.36-4.12-1.53-1.65-4.29-.25-6.11-.29-3.79-.08-8.63-1.91-11.24-4.73-1.35-1.46-2.83-5.48-4.39-5.62-1.2-.11-4.42 3.26-5.77 4.1-6 3.73-14.34 4.77-20.85 1.73l.24-.92c.42.05.78.47.9.47h6.85c7.25 0 12.11-5.28 17-9.14 4.45-3.51 5.57 2.87 7.67 5.45 4.25 5.21 11.09 7 14.28-.25.48-1.1 1.68-6.28 1.94-6.5.53-.43 2.57.49 3.23-1.18.84-2.15-3.49-4.23-3.04-7.11l-.02-.01Zm-9.17 11.43c-3.65.54-4.64-5.28-.78-5.87 3.44-.53 4.6 5.31.78 5.87ZM342.82 217.975c-3.62-2.58-7.24 4.99-10.3 5.96 2.34-10.61 15.07-15.75 9.67-28.15-2.55-5.86-6.36-5.78-10.09-9.07-2.13-1.88-4.36-6.49-6.65-8.87-8.6-8.97-13.9-3.88-23.68-5.07-1.96-.24-3.13-1.09-4.84-1.77-.06 16.93 10.78 27.23 27.93 22.68 4.39-1.16 6.36-3.66 11.01-.71 6.27 3.99 5.69 13.47.01 17.69-5.31-2.89-.41-10.25-1.54-15.03-4.39.05-9.54 6.28-8.57 10.63.89 3.99 8.28 6.34 8.54 7.45l-4.08 8.85c-.71-.07-.69-.69-.88-1.17-2.15-5.48-5.33-18.3-10.29-21.2-2.06-1.21-4.69-1.77-7.08-1.81-1.08 1.01 7.3 9.59 8.2 10.73 3.82 4.86 8.11 10.63 7.54 17.1-1.45-3.61-3.22-7.23-5.72-10.26-2.72-3.3-7.33-5.72-9.57-8.68-3.14-4.16-2.52-10.53-8.67-12.09 1.56 4.07-2.45 8.94-.4 12.95 1.81 3.54 6.99 3.65 10.23 4.83 8.61 3.14 11.56 13.28 14.59 21.01 2.4-6.54 9.36-12.14 10.27-1.37 3.36-1.68 7.76-12.22 4.36-14.63h.01Zm-15.33-30.78c-.55.89-.74.41-1.26.39-1.3-.05-2.5-.4-3.88-.04-1.58.41-2.94 2.87-4.21 3.09-.97.16-.8-.46-.59-1.05.55-1.56 2.67-2.47 2.19-4.43-4.16-.9-6.64 3.42-10.5 3.19-.89-.75 4.26-3.49 2.29-4.8h-8.23c.43-1.85 3.23-.83 4.37-2.02 1.03-1.52-2.13-4.26-.48-4.58 1.98.36 4.13 6.07 6.29 4.6 1.71-1.17-.72-3.84 1-5.05 2.05 2.39 2.47 7.48 6.58 6.79l1.18-4.05c1.17 1.13.91 2.9 1.66 4.26.63 1.16 3.72 3.02 3.59 3.7ZM300.53 116.505c-6.87-5.34-15.42-4.42-23.02-1.38l-4.1-2.99c-1.4 1.46-1.14 3.63-1.14 5.46-3.57.04-5.94-3.61-9.58-3.65-.34 2.8 4.62 6.76 4.57 8.92-.04 1.55-4.91 2.61-4.57 4.08 10.74 4.93.9 5.58.04 8.26-.76 2.35 4.64 1.3 4.95 2.73-.6 3.19-3.66 5.54-3.62 8.86.91.95 5.98-4.52 7.07-4.97 1.77.5 1.21 5.67 2.29 5.89l3.64-3.52c7.46 4.98 17.39 5.7 24.26-.74 7.21-6.76 7.16-20.77-.79-26.95Zm-25.51 20.73-.53-4.5-3.58-.07 2.7-3.36-2.7-3.48 3.66.23 1.59-3.89 1.66 3.59 4.04-.84-1.34 3.36 3.62 1.89-4.1 1.15 1.82 3.64-3.78-.84-3.05 3.13-.01-.01Zm11.64 6.38c-2.31-.2-7.14-1.75-7.08-4.55 2.72-.89 4.84 2.02 7.49 2.26 1.86-.52-.95-4.54-.64-5.91l7.75.91c.53-3.44-3.43-4.12-4.56-6.6l5.95-3.23-.29-1.16-7.95-.87c-.69-.67 2.9-4.48.65-4.99-.85-.2-6.85 3.18-7.46.61.94-3.59 6.73-3.72 9.78-3.37 13.37 1.53 13.24 28.37-3.65 26.92l.01-.02ZM176.081 215.115c-1.03 2.93-2.49 6.14-3.8 8.98-3.36 7.33-12.02 17.78-4.5 24.93-3.13.16-7.37-.58-8.22-4.1-.57-.39-1.61 2.5-1.71 3.07-2.16 12.76 15.6 12.52 8.33 25.21-5.14-3.52-9.86-6.51-11.84-12.79-2.6-8.22-.6-14.78 3.67-21.84 1.95-3.23 7.32-8.79 6.47-12.47-.12-.51-4.06-4.96-4.46-5.14-2.09-.96-3.26 1.33-3.21 3.18.05 2.04 1.65 3.13 1.84 4.62.38 2.93-3.6 9.43-6.73 8.1-3.1-1.32-3.5-15.08-3.32-18.2.14-2.45 1.44-13.73 4.42-13.84l1 .69c.35 1.14-1.46 11.27 1.21 10.65 1.44-.33 2.38-8.69 2.83-10.41.54-2.09 1.62-7.07 4.49-4.65 1.31 2.19-1.57 10.1-1.61 13.02 0 .42.26 2.47 1.14 2.04 1.19-.58 4.35-12.53 5.63-14.91 2.42-4.47 4.28-2.7 3.69 1.87-.28 2.13-5.11 14.78-4.52 15.32 1.25 1.13 3.77-3.47 4.19-4.25 1.22-2.27 3.49-10.56 5.35-11.05.45-.12.94.08 1.3.35 1.82 1.97-.79 9.21-1.63 11.61l-.01.01ZM287.34 264.545c-.15 21.17-28.79 26.77-39.02 9.13-6.61-11.4-2.18-26.2 9.81-31.73 3.5-1.62 12.47-3.57 15.4-.55 2.53 2.6-3.42 2.58-4.43 3.77-.11 1.07 1.46.68 2.45 1.19 1.46.77 2.26 2.26.96 3.58-2.07 2.11-7.81-1.09-10.25 2.06 0 .25 3.31 1.44 1.39 4.14-1.14 1.6-7.92 1.69-10.28 5.23-2.79 4.21-.79 10.5 2.72 13.67 4.49 4.07 14.92 6.24 19.39 1.13.29-1.35-2.56-.97-2.74-1.83l.92-2.29-.74-1.1c-4.41 1.47-8.2 3.07-12.87 1.49-1.8-.61-5.34-3.17-4.62-5.33.42-1.26 4.31.12 3.23-4.1l1.08-.79c1.09-.08 4.22 2.78 5.7 3.46 5.97 2.71 16.27 2.31 21.9-1.14v.01ZM369.94 356.035c-8.07-2.69-14.08 3.99-17.43 10.42-1.15 2.21-2.1 6.2-3.37 8.04-.45.64-.92 1.12-1.78.97-1.92-.34-1.64-14.11-3.9-15.79-3.33-1.76-5.03 7.27-5.85 9.24-2.22 5.32-6.87 13.09-13.52 12.94-.98-.02-5.16-1.04-4.81-2.52 3.94-2.69 9.93-3.17 11.89-8.2 2.02-5.19-1.42-12.15-7.15-12.55-13.36-.95-20.3 27.8-3.16 28.75 9.78.54 13.65-5.78 18.39-12.66.28-.4-.07-.84 1.02-.6.42 4.63 3.51 20.13 9.21 9.89 2.93-5.27 7.22-20.7 13.89-21.73.46-.07 1.04-.17 1.45.07.5.29.95 2.77 2.8 3.35 7.57 2.39 8.91-7.41 2.31-9.61l.01-.01Zm-51.5 10.57c1.5-2.51 5.54-2.5 6.22.48 1.12 4.94-2.94 7.51-7.2 8.34-.3-2.92-.63-6.15.98-8.83v.01ZM162.77 373.845c-3.66 9.77-10.97 14.98-21.63 13.85-19.08-2.01-17.88-27.99-13.29-41.47 1.46-4.29 3.21-6.53 8.15-6.33.95.33 1.19 2.37 1.17 3.3-.21 10.8-4.92 19.55-1.4 31.63 2.92 10.03 14.3 11.55 19.03 2.47 2.23-4.29 3.79-13.26 3.39-18.04-.46-5.5-4.66-10.61-2.5-16.2.74-1.89 2.54-3.84 4.68-4.02 2.13-.19 3.25 2.09 3.79 3.77 2.42 7.55 1.41 23.63-1.38 31.07l-.01-.03Z"/><path d="M343.471 113.505c-3.58-.18-11.42-3-12.29 2.53-.45 2.85 1.77 14.01-4.12 11.37-3.72-1.66 1.24-8.32-.25-11.62-1.8-4-17.35-3.1-20.3-.69-.48.39-.61.57 0 .92 1.45.85 5.3 1.24 7.62 2.42 2.05 1.04 4.06 2.75 5.62 4.42-2.73.66-5.63.82-8.31 1.72-.51.17-2.52.69-2.18 1.47.38.84 7.95 2.81 9.73 3.96 5.73 3.67 2.46 10.06-3.94 6.68-1.56-.83-5.33-5.36-5.23-2.1.15 4.66 1.61 7.4-4.4 9.46l-.28 1.4c14.88 1.97 39.3 2.99 37.41-18.47-.45-5.11-4.26-9.38.92-13.46v-.01Zm-20.08 26 6.86-3.41c2.86-2.48 5.02-5.35 4.55-9.36 1.64-.25 2.33 1.13 2.76 2.48 2.44 7.69-8.33 10.89-14.17 10.29Zm11.47-21.05c-.75-1.18.69-4.18 2.48-2.71 2.33 1.91-1.42 4.37-2.48 2.71ZM223.231 197.914c-2.97-6.48-10.51-4.56-16.2-3.64l6.61 2.73c5.86 5.32.06 11.38-5.48 13.69-.65-1.55.31-3.14.25-4.76-.11-3.01-2.55-7.46-5.49-8.46l-2.73 6.21c-.32 1.95.85 1.26.94 2.21.21 2.09-.95 4.48-.49 6.86.21 1.09 1.31 1.53 1.62 2.49.5 1.57-.01 3.96.9 5.5.78 1.31 1.84 2.62 2.86 4.43.51.9 1.88 1.83 1.9 2.64.04 1.41-1.97 3.14-3.4 2.99l-5.77-5.69c.96-3.43-2.83-5.79-3.14-8.29-.17-1.37.57-2.56.44-4.01-.16-1.76-1.99-4.74-1.83-6.46.1-1.09 1.28-.92 1.4-1.44.17-.72-.13-1.74.03-2.6.44-2.33 1.01-4.44 2.69-6.2-5.99-.49-13.23 2.41-15.52 8.21-1.86-1.31-.7-5.27.06-7.02 3.09-7.17 10.08-5.5 16.38-4.39-2.77-3.49-8.64-7.68-12.77-4.1-1.48-9.77 5.69-10.7 11.39-4.32l4.12 6.15c.24-2.35-.33-5.26 0-7.53 1.06-7.2 8.31-2.09 9.57 2.3.3 1.04-1.64.6-2.61 1.02-1.12.48-4.21 5.1-3.76 5.59 3.84-2.59 8.65-5.47 13.46-5.02 5.9.55 8.08 6.3 4.56 10.94l.01-.03ZM172.15 286.415c-4.05-6.78-4.05-15.84 3.84-19.59-2.57 12.32 4.77 24.11 18.38 21.8 10.38-1.76 6.12-20.58-4.89-19.99-8.06.43-6.42 11.21 1.35 11.89 2.54.22 4.82-.19 4.79-3.2-2.83.74-9-1.25-7.08-5.03 1.42-2.8 6.34.09 7.78 1.82 7.08 8.57-3.93 16.02-12.71 9.51-5.51-4.08-7.4-14.44-.46-18.1 8.37-4.41 17.68 2.52 20.25 10.64 7.55 23.95-21.19 27.07-31.24 10.25h-.01ZM323.8 258.895c-4.29-4.17-12.72-5.11-17.3-.97-4.4 3.98-4.24 6.55-10.82 9.26-4.42 1.82-8.05.79-4.24 7.64 6.91 1.54 12.09-9.29 16.65-11.24.71-.3.89-.13 1.58.09 1.36 5.16-12.48 10.82-12.19 14.26.22 2.59 5.58 5.55 7.94 5.76 3.22.28 6.23-2.69 8.17-4.99 1.27-1.51 4.18-6.85 5.23-7.55 1.76-1.16 1.33 2.31 1.06 3.35-.69 2.72-3.9 6.36-6.11 8.03-2.91 2.2-8.69 2.77-5.65 7.09 2.36 3.35 4.86 1.05 7.27-.91 7.79-6.35 17.71-20.81 8.41-29.83v.01Zm-1.11 6.09c-3.46 3.8-10.54-2.63-7.4-5.8 2.21-2.24 10.07 2.87 7.4 5.8Z"/><path d="M222.1 159.355c-5.69-1.5-9 2.42-12.33 6.17 1.94-14.56-15.8-17.54-20.08-4.56 7.53-5.45 5.69 8.7 1.48 9.51-3.85.75-2.67-6.09-4.44-6.23-2.94-.24-2.29 7.8-.9 9.93 5.15 7.9 17.42 2.84 22.11-3.17.74 4.05 2.82 9.85 6.98 11.51 4.55 1.81 9.73-.89 9.45-6.03l-2.68.4c-.83-2.05-.88-6.93.64-8.6 2.39-2.63 1.29 6.63 3.43 5.25 2.63-3.75 1.17-12.91-3.65-14.17l-.01-.01Zm-21.13 6.27c-.37 1.37-2.33 8.06-3.75 8.11-.79-.54-.71-1.2-.72-2.04-.02-2.08 3.5-15.24 5.28-15.28 1.79-.05-.57 8.33-.81 9.22v-.01Zm1.96 5.37c-.68-1.69-.23-3.67.31-5.38 3.18-9.97 7.04 4.55-.31 5.38Zm8.21 2.28c-.88-2.3-.83-6.28 2.28-6.38.07 2.13.32 5.75-2.28 6.38Zm7.42-.55c-.14.52-2.09 6.3-3.32 5.12-1.26-1.21 1.3-12.85 4.1-13.69.16 2.99 0 5.68-.78 8.57ZM296.41 231.635c-3.68 1.66-7.73 2.79-11.81 2.79l.88-4.53c-1.28-.64-6.47-1.17-6.28 1.02.48 1.99 3.67 4.41 3.46 6.41-.39 3.7-8.05 2.48-8.84-1.52-.54-2.74 2.42-4.24 2.1-6.86-2.72-.41-3.85 2.84-5.46 4.35-2.46 2.32-5.81 3.52-9.14 3.86 4.32-3.61 2.25-7.6 2.74-12.1.61-5.57 6.28-.79 8.46 1.17l1.39-.43c2.68-4.89-5.24-6.52-8-8.97-2.6-2.31-2.7-5.16-2.1-8.44.11-.6 1.89-6.51 2.98-5.45.23 3.6 5.11 3.94 7.29 5.72 3.71 3.02.29 11.43 2.53 12.07 4.4-.73-1.13-7.43 3.86-8.94 2.87-.87 7.2 3.57 10.51 3.01-.88 4.44-9.83 4.19-10.86 7.62-1.24 4.15 2.73 4.59 5.84 4.24v-4.11c1.12-1.09 8.41 4.67 9.36 5.93.73.96 1.44 1.8 1.08 3.15l.01.01ZM228.471 250.865c-.07.87-1.82.89-2.48.93-12.53.69-22.5-12.8-13.03-23.09.94-.48 3 2.11 4.43 2.44 2.34.54 4.56-.14 2.38-2.38-2.93-3-13.91-6.17-9.33-12.6 3.43-4.82 13.35-6 9.83-14.58 2.87.95 6.59 4.92 6.86 7.98.5 5.57-5.3 8.16-5.49 11.45-.18 3.06 5.82 5.05 5.94 9.11.17 5.35-10.1 12.18-3.52 18.77.92.92 3.09 1.9 4.41 1.98v-.01Z"/><path d="M242.18 252.435c-.75-8.32-9.35-6.69-12.14-12.04-.57-1.1-.47-2.35-1.34-3.21-2.43 3.72-4.04 6.39-.23 9.81 1.09.98 3.22 1.84 3.97 2.64 2.92 3.13-2.66 5.43-5.15 5.76-5.22.69-9.95-.56-14.1-3.62-1.16-.86-1.83-2.69-3.56-2.21-2.78.77-1 8.38-.1 10.43 7.13 16.12 34.47 12.6 32.65-7.55v-.01ZM323.63 237.165c-1.4.18-2.98-.3-4.37.2-.78.55-.07 5.56-1.56 4.82-2.38-3.56-4.8-9.96-10.06-8.69-1.29 5.88 4.77 9.09 8.91 11.66l-4.96 1.2.4 5.88c-2.26.37-2.71-3.47-4.54-3.91l-4.13 2.55c.06-4.98 4.34-8.84 2.05-14.14-2.17-5.03-6.13 1.99-6.58 4.83-.17 1.06.07 6.76-1.18 7.03-1.54.34-1.07-3.72-2.32-4.09l-4.75 1.81 1.82-5.01-5.02-1.38c1-1.94 3.89-1.51 5.84-2.14 6.78-2.2 10.93-7.13 4.16-12.65-1.13-.92-6.04-3.49-6.33-4.17-.09-.21-.19-1.12.21-1.12l4.27-.52.07-4.95c1.68-.23 3.03 3.44 3.93 3.63l3.81-2.98c2.1-.52-.29 6.43-.39 7.38-.17 1.61-.54 5.81 1.56 6.14 4.9.76 2.93-9.7 2.95-12.34l4.32 3.2 4.34-2.29-1.79 4.8 4.53 1.59c.15.97.04.74-.58 1.01-2.59 1.18-8.74.87-9.73 4.44-.71 2.57 3.37 2.41 5.01 2.24 3.17-.32 5.9-2.42 8.94-2.68l-2.71 5.18 4.54 2.58c.65.66-.04.83-.67.91l.01-.02ZM195.87 249.915c-3.98-.65-6.63-7.58-2.08-9.1-.41 2.92 3.59 4.31 4.8 1.83 1.54-3.16-5.46-12.49-7.15-15.67-2.76-5.18-5.3-10.73-5.4-16.73l-1.25 3.99c-1.32 7.52 6.33 17.4 5.25 24.42-1.1 7.09-11.72 5.32-9.02-1.94l2.42 1.76c1.36-.52 1.95-.95 2.15-2.42.92-6.65-4.52-13.4-3.22-20.33-1.2.57-1.63 2.71-1.77 3.93-.64 5.43 2.53 19.73-6.67 18.91-3.04-.27-5.19-4.2-2.74-6.4 7.44 6.17 5.82-7.13 6.22-11.13.81-8.17 6.31-15.09 12.95-19.45l-1.62 6.6c-2.82 11.92 14.85 24.94 15.54 34.25.37 5.04-3.56 8.28-8.43 7.49l.02-.01ZM304.02 292.355c-.36-1.69-2.06-4.33-4.03-4.01-.97.16-3.94 2.57-5.5 3.2-2.65 1.09-6.81 1.92-9.68 1.76-4.61-.25-5.44-3.44-9.08 1.38-3.39 4.48-6.03 13.62 1.39 15.43 9.05 2.22 29.3-6.31 26.89-17.77l.01.01Zm-19.42 12.35c.91-2.45 1.08-4.68.91-7.3l4.68-.12 5.61-1.72c1.16 5.98-6.35 8.95-11.19 9.14h-.01ZM203.831 123.765c-.47 2.21-7.02-2.28-8.47.7-1.02 2.12 3.68 6.54 1.39 8.66-1.51.3-4.39-6.05-6.74-5.86-3.38.27-1.24 9.05-5.35 8.14-.18-1.65-.06-7.63-1.68-8.16-3.03-.99-5.3 4.17-8.36 3.59-.55-2.14 5.25-6.45 4.06-8.17-1.01-1.45-9.12 1.73-9.54-.28-.39-1.83 6.61-2.65 7.55-4.8 1.02-2.35-3.54-2.04-3.44-4.09 2.62-.24 5.43-1.4 7.97-.45 2.99 1.13 3.7 5.81 7.96 3.37 1.37-.79 2.25-2.89 4.01-3.29 2.2-.5 5.21 0 7.43.36.97 1.07-4.14 2.18-3.6 4.24.55 2.09 6.2 3.5 6.79 6.02l.02.02ZM316.03 155.775c-3.96-7.87-5.54-1.98-9.73-2.56-1.95-.27-1.97-3.65-4.93-3.13-1.11.2-3.29 1.58-4.9 1.98-2.63.66-5.02.47-7.56 1.11-.86 6.08 5.14 12.71 10.65 14.51 3.66 1.2 6.88 1.18 10.62.37 7.77-1.67 9.48-5.07 5.85-12.29v.01Zm-11.05 6.98c-2.63-.14-7.97-1.8-8.06-4.98 4.83 1.01 9.57 2.51 14.6 2.28-.34 2.18-4.74 2.79-6.54 2.7Z"/><path d="M243.991 279.845c-2.26 1.14-3.52-2.15-5.94-.68 4.88 12.56-18.7 19.05-24.56 9.73-3.3-5.25 3.04-2.54 6.04-2.93 6.12-.8 5.34-8.73 9.72-10.81 2.41-1.14 5.36-.36 6.74 1.72 2.13-1.94-1.79-6.07 1.14-7.54 2.32-1.16 2.68 1.63 3.26 2.03.25.17 2.76-1.37 3.81.96.66 1.47-.22 2.33-.08 3.34.13.88 1.98 3.12-.14 4.19l.01-.01ZM336.7 256.635c-.38.65-4.38 6.5-5.1 5.62 1.73-7.42-11.23-8.31-12.22-12.64-1.42-6.2 3.88-8.62 9.03-6.52-3.02-8.8 6.64-13.08 10.43-4.26 2.35 5.46.8 12.8-2.14 17.81v-.01ZM184.801 246.395c-1.68-.39-3.81.43-4.43.28-.52-.13-1.23-1.83-2.1-2.42-4.23-2.84-9.97 1.16-7.74 6.14-8.77 1.64-5.14 12.73 3.17 9.59.85 5.04 8.88 4.34 9.58-.26.14-.92-.21-2.82.1-3.33.21-.34 3.33-.91 4.14-2.93 1.02-2.52.28-6.4-2.71-7.08l-.01.01Zm-6.96 9.75c-3.85 1.22-4.78-4.34-1.98-5.2 3.84-1.18 5.12 4.21 1.98 5.2ZM172.7 171.094c-.12-.21-1.25-.53-1.74-1.21-1.26-1.76-.03-3.22-3.06-3.78-7.53-1.4-15.01 2.55-17.24 9.92-.25.82-1.54 6.53-1.39 6.85.7 1.44 2.87.7 4.1.95 5.2 1.06 6.18 2.12 11.53-.4 3.22-1.52 9.87-8.77 7.8-12.32v-.01Zm-10.38 9.73c-2.62 1.66-6.47-1.95-6.84-4.62-.24-1.72.12-4.16 2.26-3.84-.31 2.65 1.24 4.27 2.96 5.94.64.63 3.01 1.63 1.62 2.51v.01Zm2.88-5.42c-1.23-1.19-3.8-6.43-.83-6.72 2.02-.2 1.85 1.91 2.56 2.93.63.89 2.15 1.87 2.24 2.83-.19 2.51-2.37 2.51-3.97.96Z"/><path d="M218.73 272.015c-1.46-1.44-4.02-2.63-6.07-2.87-1.49-.18-2.71.93-4.29-.69-1.25-1.29-2.21-7.22-3.61-9.62-2.48-4.23-8.44-6.88-12.95-4.25-7.62 4.44 5.01 6.47 7.31 7.61 9.19 4.52 3.25 13.69 11.99 18.13 8.86 4.49 14.69-1.34 7.61-8.3l.01-.01Zm-1.16 5.11c-1.39 1.7-6.47-1.26-6.42-3.23l1.23-1.52c1.81-.5 4.67 1.95 5.43 3.57l-.24 1.18ZM341.54 185.035c-1.11 1.18-3.62-.55-4.69-1.25-3.18-2.06-11.62-10.97-11.18-14.84 4.31-.76 8.59-1.5 12.09-4.35 2.09-1.7 4.79-7.31 5.67-1.09.43 3.05-.12 19.64-1.89 21.53ZM284.98 171.155c-3.41 5.21-10.7 5.76-16.08 3.55-.88.21-2.21 6.14-4.6-.06-1.51-3.9-1.53-8.49.67-12.12.95-.6 2.71 1.56 4.09 1.89 1.58.38 4.62-.15 5.53.41 1.31.81-1.38 3.49-.93 3.89 6.12.93 11.73-2.52 11.41-9.12 2.92 2.78 2.02 8.35-.08 11.56h-.01ZM276.84 241.734c3.99 5.68-3.16 10.52-.54 16.74 2.39 5.71 11.05 4.9 12.55-.86 2.04-7.84-4.45-15.05-12.01-15.88Zm4.76 11.45c-1.41-1.16.3-3.79-.19-5.52 3.49.63 4.35 6.73.19 5.52ZM183.32 189.045c-.41 5.99-7.38 7.91-10.72 2.92-2.54-3.79-1.1-10.61 2.31-13.59 4.78 1.59 8.78 5.27 8.41 10.68v-.01Z"/><path d="M284.601 155.255c-.26 3.16-1.85 6.48-4.39 8.41-2.08-2.02-7.38-4.14-3.82-7.04-2.99-2.57-8.52-1.1-9.12 2.97-.62-.08-.79-.62-.89-1.16-1.07-6.12 4.06-9.62 9.75-8.84 2 .27 3.83 1.96 5.17 2.17 2.6.4 3.75-2.02 3.3 3.49ZM296.68 286.894c-1.85 4.41-20.26 5.6-16.41-3.63 1.61-3.86 13.66-4.16 16.06-1.25.79.96.83 3.74.35 4.88ZM336.32 162.254c-3.17 2.33-15.87 6.23-15.22-.13.3-2.92 6.74-2.62 9.27-3.54 4.09-1.49 8.76-5.12 6.72-9.93 8.19 1.38 3.96 10.13-.76 13.61l-.01-.01ZM166.901 162.125c-5.3.77-12.58-3.35-11.33-9.5.3-1.46 1.9-3.54 3.41-3.89 7.53-1.72 10.4 7.8 7.92 13.39ZM292.8 262.065c-4.41-3.36 1.11-8.37-.89-12.57 2.46.3 5.54 1.14 7.32 2.95 5.51 5.6-.76 13.95-6.43 9.62ZM223.21 155.514c-2.39-1.45-9.86-11.85-10.5-14.62-.18-.81-.24-.82.49-1.38 1.48-.27 12.48 7.98 13.21 9.59.97 2.14-.32 8.15-3.2 6.41ZM288.74 210.045c-7.93 2.46-10.05-8.81-3.34-10.19 7.46-1.53 8.58 8.56 3.34 10.19ZM215.041 347.115c-4.9-.82-3.67-10.17 1.46-10.84 7.59-.98 6.42 12.15-1.46 10.84Z"/><path d="m321.68 156.275-1.94-5.81c3.1 2.71 13.22-4.15 14.83-.92 2.27 4.55-9.62 9.25-12.9 6.73h.01ZM287.11 187.655c-6.11 0-6.64-8.58-1.73-9.71 8.15-1.88 8.58 9.71 1.73 9.71ZM277.57 195.165c-5.35-.75-5.12-8.72.08-9.47 7.05-1.02 7.39 10.52-.08 9.47ZM270.03 199.545c-6.06 1.92-8.2-7.15-2.9-8.37 6.75-1.54 7.36 6.96 2.9 8.37ZM158.65 163.704c-1.59 2.11-6.04 2.45-8.19 1.11-4.41-2.74-3.41-9.45 1.35-11.16-.34 4.72 2.08 8.9 6.85 10.04l-.01.01ZM274.091 261.575c-.58 2.93-5.41 3.34-6.6.69-1.14-2.55 1.23-5.47-.69-7.75 4.11-.08 8.21 2.36 7.29 7.06ZM170.97 195.185c-9.58 3.22-10.56-8.89-2.28-10.48-.83 2.32-.75 5.75.53 7.91.37.62 2.2 1.97 1.76 2.57h-.01ZM156.31 199.914c-7.08 3.31-9.28-.73-9.06-7.47l3.21 3.4c3.32 2.12 7.44.83 10.93-.21.81.84-4.4 3.96-5.07 4.28h-.01ZM148.36 135.374c.9-4.21 5.39-4.61 8.92-3.62 1.03 1.45-10.9 12.9-8.92 3.62ZM293.4 201.434c-3.68-3.11 1.66-9.22 5.22-5.67 3.28 3.27-1.51 8.8-5.22 5.67ZM226.541 125.715c-1.68 1.7-8.64-2.19-8.08-4.16.41-1.43 6.52-2.15 7.92-1.17 1.11.78 1 4.47.15 5.33h.01ZM295.74 192.445c-4.36.43-5.24-6.18-.75-6.76 4.51-.58 5.06 6.33.75 6.76Z"/><path d="M160.48 188.804c-3.97 5.63-10.95 5.04-10.95-2.74 1.98.59 3.16 2.26 5.36 2.63 1.84.31 3.75 0 5.6.11h-.01ZM275.15 202.805c-3.66-2.95 2.341-8.19 4.921-4.23 2.04 3.14-2.011 6.58-4.921 4.23ZM180.43 173.145c-3.01 2.42-7.36-1.29-4.7-4.47 2.72-3.25 8.3 1.57 4.7 4.47ZM288 197.474c-4.17.73-5.47-5.55-1.24-6.32 4.02-.74 5.22 5.63 1.24 6.32ZM272.771 185.395c-.29 2.68-3.88 3.29-5.37 1.45-3.9-4.84 6.12-8.4 5.37-1.45ZM173.131 166.795c-2.77-.63-2.75-5.1 0-5.73 5.7-1.31 5.72 7.03 0 5.73ZM293.871 210.114c-2.88-3.57 2.97-6.98 4.91-3.78 2.14 3.55-2.65 6.57-4.91 3.78ZM290.34 176.475c-3.54-.22-3.44-6.18.42-6.18 4.28 0 3.68 6.44-.42 6.18ZM277.431 183.694c-4.18.66-4.42-5.79-.76-6.19 3.82-.42 4.75 5.57.76 6.19Z"/></g><defs><clipPath id="a"><path fill="#fff" d="M125 112.145h249.19v275.71H125z"/></clipPath></defs></svg>