<svg width="500" height="500" viewBox="0 0 500 500" fill="none" xmlns="http://www.w3.org/2000/svg">
<rect width="500" height="500" fill="white"/>
<g clip-path="url(#clip0_11_8526)">
<path d="M331.37 401.15V377.74L247.01 98.8496L169 378.76V401.15C169 401.15 331.61 401.15 331.37 401.15Z" fill="#00A859"/>
<path d="M181.51 373.699H191.94C203.21 373.699 210.47 377.389 210.47 385.739C210.47 394.089 203.21 397.989 192.41 397.989H181.51V373.689V373.699ZM191.44 393.569C197.7 393.569 201.93 391.549 201.93 385.739C201.93 379.929 197.7 378.119 191.44 378.119H189.86V393.569H191.44Z" fill="#FEFEFE"/>
<path d="M214.63 373.699H222.97V397.999H214.63V373.699Z" fill="#FEFEFE"/>
<path d="M227.09 385.99C227.09 377.93 235.18 373.25 244.51 373.25C249.28 373.25 253.12 374.73 255.61 376.4L251.21 379.92C249.36 378.78 247.37 377.99 244.7 377.99C239.64 377.99 235.64 380.93 235.64 385.8C235.64 390.67 239.17 393.7 244.56 393.7C247.59 393.7 249.97 392.72 251.78 391.43L256.18 394.88C253.12 397.23 249.04 398.45 244.26 398.45C234.9 398.45 227.09 394.18 227.09 385.99Z" fill="#FEFEFE"/>
<path d="M255.11 385.74C255.11 377.8 261.92 373.25 271.87 373.25C281.82 373.25 288.63 377.83 288.63 385.74C288.63 393.65 281.82 398.44 271.87 398.44C261.92 398.44 255.11 393.68 255.11 385.74ZM280.08 385.74C280.08 380.87 276.9 377.99 271.87 377.99C266.84 377.99 263.66 380.87 263.66 385.74C263.66 390.61 266.84 393.7 271.87 393.7C276.9 393.7 280.08 390.61 280.08 385.74Z" fill="#FEFEFE"/>
<path d="M292.75 373.699H301.3L310.93 385.779L314.58 391.119H314.81C314.42 388.549 313.74 385.149 313.74 382.279V373.699H321.69V397.999H313.14L303.51 385.889L299.86 380.579H299.63C300.02 383.259 300.7 386.509 300.7 389.379V397.999H292.75V373.699Z" fill="#FEFEFE"/>
<path d="M255.12 327.39H241.7L230.84 335.28L226.7 348.05L230.84 360.81L241.7 368.7H255.12L265.98 360.81L270.12 348.05L265.98 335.28L255.12 327.39Z" fill="#FEFEFE"/>
<path d="M255.68 222.75V316.31C255.68 316.31 268.96 317.37 275.45 330.12C277.5 334.14 278.38 338.65 278.27 343.16L277.6 370.61H305.39C305.39 370.61 304.66 337.43 290.73 319.24C278.24 302.92 268.42 298.72 268.42 298.72V222.75H255.67H255.68Z" fill="#FEFEFE"/>
<path d="M278.2 298.459C278.2 298.459 276.59 292.849 272.89 296.869C268.36 301.789 284.15 310.129 284.94 296.299C285.85 280.109 267.97 288.519 267.97 288.519" stroke="#FEFEFE" stroke-width="2" stroke-miterlimit="10"/>
<path d="M263.82 258.439H258.41V160.199L263.82 164.409V258.439Z" fill="#FEFEFE" stroke="black" stroke-miterlimit="10"/>
<path d="M237.58 222.75V316.31C237.58 316.31 224.3 317.37 217.81 330.12C215.76 334.14 214.88 338.65 214.99 343.16L215.66 370.61H187.87C187.87 370.61 188.6 337.43 202.53 319.24C215.02 302.92 224.84 298.72 224.84 298.72V222.75H237.59H237.58Z" fill="#FEFEFE"/>
<path d="M215.06 298.459C215.06 298.459 216.67 292.849 220.37 296.869C224.9 301.789 209.11 310.129 208.32 296.299C207.41 280.109 225.29 288.519 225.29 288.519" stroke="#FEFEFE" stroke-width="2" stroke-miterlimit="10"/>
<path d="M229.43 258.439H234.85V160.199L229.43 164.409V258.439Z" fill="#FEFEFE" stroke="black" stroke-miterlimit="10"/>
<path d="M251.19 218.869H242.16L243.97 129.659L247.64 139.689L251.19 218.869Z" fill="#FEFEFE" stroke="black" stroke-miterlimit="10"/>
<path d="M246.68 288.72C251.374 288.72 255.18 284.216 255.18 278.66C255.18 273.104 251.374 268.6 246.68 268.6C241.985 268.6 238.18 273.104 238.18 278.66C238.18 284.216 241.985 288.72 246.68 288.72Z" fill="#FEFEFE"/>
<path d="M251.78 223.94C251.78 221.123 249.497 218.84 246.68 218.84C243.863 218.84 241.58 221.123 241.58 223.94V263.54C241.58 266.356 243.863 268.64 246.68 268.64C249.497 268.64 251.78 266.356 251.78 263.54V223.94Z" fill="black"/>
</g>
<defs>
<clipPath id="clip0_11_8526">
<rect width="162.37" height="302.3" fill="white" transform="translate(169 98.8496)"/>
</clipPath>
</defs>
</svg>
