<svg width="500" height="500" viewBox="0 0 500 500" fill="none" xmlns="http://www.w3.org/2000/svg">
<rect width="500" height="500" fill="white"/>
<g clip-path="url(#clip0_11_8700)">
<path d="M157.087 281.98C164.792 288.22 175.617 290.504 186.442 290.504C198.087 290.504 209.732 287.052 217.28 279.19C226.624 269.341 228.925 255.082 228.925 240.979V219.485C228.925 207.997 229.256 202.419 229.744 197.503C230.406 191.594 233.196 188.491 243.69 187.497V181.431H203.003V187.497C214.491 188.16 219.075 189.798 219.738 197.346C220.069 202.262 220.557 208.172 220.557 219.485V239.985C220.557 264.582 212.033 279.016 192.509 279.016C174.955 279.016 165.942 266.883 165.942 248.51V204.877C165.942 189.781 167.424 188.63 179.714 187.497V181.431H129.038V187.497C141.502 188.648 142.984 189.798 142.984 204.877V246.383C142.984 264.757 147.569 274.763 157.087 281.98Z" fill="#2C1774"/>
<path d="M324.051 188.159C317.323 183.732 307.491 181.431 294.521 181.431H247.942V187.497C260.25 188.316 261.888 189.798 261.888 203.57V266.221C261.888 279.992 260.25 280.498 247.942 281.962V288.029H300.1V281.962C285.823 280.655 284.689 279.992 284.689 266.221V243.908L294.207 246.366C295.358 246.523 297.485 246.697 299.123 246.697C316.678 246.54 336.847 236.534 336.847 212.739C336.847 201.425 332.262 193.546 324.051 188.142V188.159ZM293.388 238.678C289.937 238.678 286.659 238.016 284.689 237.039V194.888C284.689 192.43 285.021 190.792 286.171 189.798C287.147 188.979 289.117 188.159 292.569 188.159C303.237 188.159 313.243 194.226 313.243 212.599C313.243 234.25 300.936 238.678 293.388 238.678Z" fill="#2C1774"/>
<path d="M316.261 279.33C319.869 279.295 324.018 277.238 324.018 272.34C324.018 270.004 323.076 268.4 321.386 267.284C320.008 266.378 317.986 265.907 315.319 265.907H305.731V267.162C308.259 267.337 308.59 267.633 308.608 270.474V283.357C308.608 286.198 308.277 286.285 305.749 286.599V287.854H316.47V286.599C313.541 286.338 313.297 286.198 313.297 283.357V278.772L315.249 279.278C315.493 279.313 315.929 279.347 316.261 279.347V279.33ZM313.297 277.343V268.679C313.297 268.173 313.367 267.842 313.593 267.633C313.803 267.459 314.204 267.302 314.901 267.302C317.097 267.302 319.154 268.557 319.154 272.322C319.154 276.767 316.627 277.691 315.075 277.691C314.36 277.691 313.698 277.552 313.28 277.36L313.297 277.343Z" fill="#2C1774"/>
<path d="M337.824 284.995C337.022 285.902 336.517 286.32 334.582 286.32C334.442 286.32 332.891 286.32 332.821 286.285C330.973 286.251 330.903 285.414 330.903 283.549V270.457C330.903 267.616 331.235 267.389 333.867 267.145V265.89H323.338V267.145C325.866 267.354 326.197 267.616 326.214 270.457V283.305C326.214 286.146 325.953 286.373 322.989 286.582V287.837H339.724C340.003 287 340.805 284.002 341.154 282.363C342.932 285.71 346.61 288.342 352.694 288.342C355.256 288.342 358.028 287.663 358.9 287.471C359.44 286.285 360.312 283.723 360.782 282.032L359.492 281.526C357.679 285.24 355.779 286.721 352.955 286.721C348.336 286.721 345.163 282.538 345.163 276.367C345.163 271.067 347.621 266.988 352.519 266.988C353.426 266.988 354.646 267.127 355.448 267.459C357.244 268.173 358.255 269.411 358.952 272.043L360.294 271.799C360.05 270.318 359.824 267.825 359.649 266.238C358.812 266.134 356.215 265.437 353.269 265.437C345.18 265.437 339.846 270.161 339.846 277.151C339.846 278.702 340.177 280.306 340.84 281.788L339.933 281.509C339.323 282.886 338.452 284.35 337.807 285.013L337.824 284.995Z" fill="#2C1774"/>
<path d="M372.653 166.438C375.651 165.427 378.109 163.492 380.602 160.459C387.592 151.952 386.546 140.639 384.053 130.668C381.404 120.086 377.638 109.139 369.898 101.137C365.244 96.3261 350.218 89.9111 346.975 100.126C345.11 106.053 353.791 113.619 357.138 117.576C360.276 121.272 366.377 127.303 364.895 132.759C361.949 143.585 346.522 149.163 337.004 143.585C330.537 139.802 330.537 127.408 329.334 121.01C328.323 115.606 326.684 108.058 322.326 104.275C316.486 99.2025 312.32 105.966 310.768 111.161C308.345 119.267 308.624 143.376 296.927 144.544C296.614 144.561 296.3 144.579 295.986 144.579C288.734 144.422 278.205 143.306 274.527 135.915C269.716 126.24 278.153 114.804 283.539 107.239C284.428 106.001 285.352 104.746 285.788 103.299C286.137 102.201 286.102 101.137 285.788 100.161C283.452 92.5608 273.62 92.003 268.147 95.9426C257.565 103.543 251.708 116.303 251.36 129.151C250.715 153.434 251.028 169.175 285.492 168.199C309.74 167.502 334.162 166.805 358.428 167.188C363.693 169.907 373.664 176.427 373.664 186.747V283.443C373.664 297.18 369.637 310.15 362.037 320.958C353.495 333.056 341.205 344.456 325.499 354.828C321.681 357.339 317.706 359.709 313.61 361.923C318.073 353.922 316.992 344.16 314.813 335.426C312.163 324.845 308.398 313.898 300.658 305.896C296.003 301.085 280.977 294.67 277.734 304.885C275.869 310.812 284.55 318.378 287.897 322.335C291.035 326.03 297.136 332.062 295.655 337.518C292.709 348.344 277.281 353.922 267.763 348.344C261.296 344.561 261.296 332.166 260.093 325.769C259.082 320.365 257.443 312.817 253.085 309.034C247.245 303.961 243.079 310.725 241.528 315.92C239.105 324.026 239.384 348.134 227.687 349.302C227.373 349.32 227.059 349.337 226.745 349.337C219.493 349.18 208.964 348.065 205.286 340.673C200.475 330.999 208.912 319.563 214.299 311.997C215.188 310.76 216.112 309.505 216.547 308.058C216.896 306.96 216.861 305.896 216.547 304.92C214.229 297.319 204.38 296.762 198.923 300.684C188.342 308.302 182.467 321.062 182.119 333.91C181.788 346.252 181.718 356.38 186.233 363.231C179.905 360.006 173.943 356.45 168.4 352.632C157.487 345.101 148.265 336.978 140.996 328.506C129.7 315.31 123.477 298.243 123.477 280.41V186.747C123.477 176.846 132.873 170.675 138.329 167.938C141.293 168.217 144.622 168.304 148.335 168.199C175.059 167.432 202.009 166.665 228.715 167.345C235.287 167.502 239.331 165.48 243.445 160.459C250.436 151.952 249.39 140.639 246.897 130.668C244.247 120.086 240.482 109.139 232.742 101.137C228.088 96.3261 213.061 89.9111 209.819 100.126C207.953 106.053 216.635 113.619 219.982 117.576C223.119 121.272 229.221 127.303 227.739 132.759C224.793 143.585 209.365 149.163 199.847 143.585C193.38 139.802 193.38 127.408 192.177 121.01C191.166 115.606 189.527 108.058 185.169 104.275C179.33 99.2025 175.163 105.966 173.612 111.161C171.189 119.267 171.468 143.376 159.771 144.544C159.457 144.561 159.143 144.579 158.829 144.579C151.578 144.422 141.048 143.306 137.37 135.915C132.559 126.24 140.996 114.804 146.383 107.239C147.272 106.001 148.196 104.746 148.631 103.299C148.98 102.201 148.945 101.137 148.631 100.161C146.296 92.5608 136.464 92.003 130.99 95.9426C120.409 103.543 114.534 116.303 114.203 129.151C113.75 146.513 113.767 159.518 126.423 165.149C120.496 169.768 114.761 176.811 114.761 186.747V280.41C114.761 300.318 121.734 319.406 134.389 334.171C142.147 343.218 151.926 351.847 163.449 359.797C174.954 367.746 188.098 374.527 202.497 379.931C217.907 385.736 228.454 391.174 235.165 395.846L235.304 395.951C236.926 397.084 238.303 398.165 239.488 399.193L248.902 406.463L256.519 400.239C257.809 399.002 259.396 397.677 261.331 396.3C268.129 391.419 279.164 385.683 295.637 379.565C308.066 374.945 319.729 369.07 330.293 362.098C346.923 351.133 359.997 338.965 369.149 325.978C377.813 313.706 382.38 298.993 382.38 283.443V186.747C382.38 177.839 377.813 171.163 372.653 166.438ZM317.968 160.982C312.18 160.982 307.474 156.276 307.474 150.471C307.474 144.666 312.18 139.976 317.968 139.976C323.755 139.976 328.48 144.683 328.48 150.471C328.48 156.258 323.773 160.982 317.968 160.982ZM180.811 139.976C186.616 139.976 191.323 144.683 191.323 150.471C191.323 156.258 186.616 160.982 180.811 160.982C175.006 160.982 170.317 156.276 170.317 150.471C170.317 144.666 175.024 139.976 180.811 139.976ZM248.727 344.735C254.532 344.735 259.239 349.442 259.239 355.229C259.239 361.017 254.532 365.741 248.727 365.741C242.922 365.741 238.233 361.034 238.233 355.229C238.233 349.424 242.94 344.735 248.727 344.735ZM209.313 372.888C211.457 373.01 213.758 373.028 216.251 372.958C225.612 372.696 234.991 372.417 244.387 372.226C236.926 380.994 216.983 375.468 209.313 372.888ZM252.702 372.051C265.114 371.825 277.508 371.755 289.867 371.964C269.454 381.779 255.822 374.143 252.702 372.051Z" fill="#2C1774"/>
</g>
<defs>
<clipPath id="clip0_11_8700">
<rect width="271.873" height="312.926" fill="white" transform="translate(114.063 93.5371)"/>
</clipPath>
</defs>
</svg>
