<svg width="500" height="500" viewBox="0 0 500 500" fill="none" xmlns="http://www.w3.org/2000/svg">
<rect width="500" height="500" fill="white"/>
<g clip-path="url(#clip0_11_9413)">
<path d="M186.718 246.115L181.593 302.698H165.697L166.986 287.726C156.758 299.005 141.979 306.091 125.554 306.091C94.6567 306.091 69.6143 281.048 69.6143 250.151C69.6143 219.255 94.6567 194.219 125.554 194.219C143.775 194.219 159.965 202.936 170.171 216.427L158.29 237.67C153.258 224.486 140.497 215.125 125.554 215.125C106.208 215.125 90.5271 230.813 90.5271 250.151C90.5271 269.49 106.208 285.185 125.554 285.185C140.641 285.185 153.495 275.645 158.426 262.275L136.869 262.011L138.214 246.115H186.718Z" fill="#3D7453"/>
<path d="M276.854 217.015L274.019 240.454H316.489L314.085 260.393H271.608L268.716 284.291H314.722L312.431 303.235H221.959L200.703 260.393H191.463L193.238 245.693L193.274 245.428L193.682 242.071H215.532C222.382 242.071 227.935 236.518 227.935 229.668C227.935 222.819 222.417 217.294 215.597 217.258L202.192 217.072L196.709 217.015L193.775 241.263H172.433L174.379 222.855L175.725 210.065L176.927 198.693H198.928L218.188 198.986L221.666 199.036C221.666 199.036 221.723 199.036 221.752 199.036C233.203 199.888 242.908 207.023 247.424 217.008C249.17 220.865 250.144 225.152 250.144 229.661C250.144 245.027 238.85 257.76 224.114 260.014L224.307 260.386L245.127 301.167L247.166 284.284L250.051 260.386L255.297 217.008L257.515 198.686H325.071L322.859 217.008H276.854V217.015Z" fill="#3D7453"/>
<path d="M354.128 198.692L351.91 217.014L349.075 240.454L346.664 260.393L343.779 284.29L341.489 303.235H321.686L323.976 284.29L326.867 260.393L329.279 240.454L332.113 217.014L334.332 198.692H354.128Z" fill="#3D7453"/>
<path d="M380.466 217.014L377.639 240.454H422.32L418.563 260.393H375.227L372.335 284.29L370.045 303.235H349.841L352.131 284.29L355.015 260.393L357.427 240.454L360.261 217.014L362.48 198.692H430.186L426.736 217.014H380.466Z" fill="#3D7453"/>
</g>
<defs>
<clipPath id="clip0_11_9413">
<rect width="360.571" height="111.872" fill="white" transform="translate(69.6143 194.219)"/>
</clipPath>
</defs>
</svg>
