<svg width="500" height="500" viewBox="0 0 500 500" fill="none" xmlns="http://www.w3.org/2000/svg">
<rect width="500" height="500" fill="white"/>
<g clip-path="url(#clip0_11_8547)">
<path d="M88.5016 266.882C81.254 257.953 77.6338 245.225 77.6338 228.612C77.6338 226.136 77.6338 224.369 77.7196 223.396L77.8055 222.602L78.0702 218.18C78.3349 214.732 78.7785 212.7 79.3938 212.085C80.1021 211.376 82.134 210.933 85.4037 210.847L88.3228 210.761H96.1857L98.5753 210.94C100.872 211.119 102.11 211.383 102.289 211.734C102.553 211.999 102.289 213.236 101.494 215.447L101.409 215.798L100.7 219.153L100.171 221.364L99.9061 222.867C99.3766 225.786 99.1119 229.227 99.0189 233.033C99.0189 235.423 99.0189 237.19 99.1047 238.163L99.1906 239.222L99.3695 240.109L99.4553 240.724L99.9848 243.2L100.6 245.854L100.779 246.298V246.477L101.838 249.396C103.34 253.817 104.492 253.109 105.458 252.401C105.902 251.607 106.345 250.812 106.782 249.839L108.105 246.305L108.284 245.776C108.899 243.923 109.343 241.619 109.608 238.972C109.694 238.263 109.787 237.648 109.787 237.204V230.844C109.787 227.045 109.787 225.013 109.701 224.655V224.305L108.642 218.559L108.027 215.111L107.941 215.025C107.325 212.814 107.232 211.491 107.762 211.133C108.377 210.689 110.502 210.604 114.301 210.868C116.333 210.954 118.365 210.954 120.311 210.868C123.666 210.689 125.791 210.782 126.671 211.219C127.559 211.569 128.26 212.721 128.703 214.667L129.591 218.559C129.591 218.738 129.59 218.91 129.676 219.003C130.206 222.094 130.471 225.099 130.564 227.932V232.354L130.478 234.3L130.299 236.954C130.034 240.932 129.147 245.353 127.644 250.297C127.38 251.356 126.671 253.216 125.527 255.957L124.733 257.81L123.76 260.02C123.051 261.609 122.257 262.939 121.463 264.084C120.669 265.229 118.809 267.354 116.068 270.445C115.095 271.418 114.215 272.212 113.593 272.655C105.193 279.109 97.2445 277.606 88.4945 266.91L88.5016 266.882Z" fill="#F58233"/>
<path d="M134.999 258.311L134.913 256.544V254.426L134.827 250.362V244.174C134.827 241.612 134.913 238.693 134.913 238.078L134.999 237.019L135.178 234.458C135.264 233.485 135.264 232.34 135.264 231.009C135.178 227.475 135.879 226.502 138.269 226.502H139.242L141.359 226.588H145.688C146.303 226.588 147.72 226.673 150.109 226.766C152.32 226.852 153.823 226.852 154.438 226.852C155.146 226.673 155.59 228.09 154.881 235.688C154.703 237.012 154.703 241.255 154.881 248.237C155.06 254.512 155.769 261.144 156.999 268.034V268.299L157.264 271.039C157.615 274.488 157.529 274.659 154.967 274.752L152.85 274.838H142.862C139.943 274.924 138.175 274.838 137.467 274.395C136.852 273.951 136.315 272.449 135.879 270.066C135.793 269.451 135.7 269.007 135.7 268.649L135.435 265.294L135.256 262.64L134.992 258.311H134.999ZM135.528 215.62C135.442 214.647 135.349 214.031 135.349 213.588C135.349 207.492 140.744 203.686 148.957 205.453C152.406 206.161 154.087 207.399 155.411 210.225C156.205 211.813 156.47 213.581 156.205 215.62C155.411 221.279 152.227 223.576 145.065 223.482C139.671 223.397 136.494 220.742 135.521 215.62H135.528Z" fill="#F58233"/>
<path d="M157.271 232.854C157.186 232.325 157.186 231.531 157.186 230.465C157.186 230.021 157.186 229.756 157.271 229.578C157.715 226.487 158.066 224.72 158.33 224.183C158.681 223.654 159.654 223.21 161.335 222.859C162.752 222.595 163.546 222.33 163.811 221.886C164.075 221.443 164.426 220.205 164.698 217.994C164.963 216.406 167.438 214.811 171.945 213.222C174.507 212.335 176.367 211.541 176.982 211.369C177.691 211.019 178.835 210.661 180.338 210.31C182.549 209.867 184.23 210.926 184.137 212.342C184.051 212.872 183.958 213.845 183.693 215.168L183.343 217.021L182.899 218.524C182.105 221.972 183.078 222.766 187.056 222.681C187.85 222.681 188.473 223.389 188.823 224.712C188.909 224.977 188.909 225.328 188.909 225.771C188.465 229.928 187.936 232.311 187.492 233.105C187.049 233.813 185.904 234.078 184.044 233.813C181.304 233.463 181.218 233.727 181.483 237.705V238.056C181.397 239.115 181.397 240.174 181.397 241.24C181.311 242.742 181.483 245.132 181.747 248.308L182.012 250.784C182.72 256.708 183.429 260.421 184.223 262.095L185.375 264.392C186.348 266.245 184.845 268.191 180.688 270.402C179.537 270.931 177.862 271.904 175.652 273.321C172.382 275.353 170.257 276.147 169.112 275.71C167.96 275.36 166.901 273.5 165.928 270.051L164.426 264.657V264.478C163.897 262.36 163.539 259.348 163.274 255.549C163.188 254.225 163.095 253.338 163.095 252.723C163.009 249.804 162.916 247.772 163.009 246.534L163.095 243L163.181 239.73V239.286C163.181 238.228 163.267 236.99 163.532 235.666C163.532 235.316 163.446 235.051 163.267 234.872C162.473 233.813 162.115 233.899 159.554 234.872C158.76 235.223 157.522 234.343 157.257 232.84L157.271 232.854Z" fill="#F58233"/>
<path d="M205.086 274.659C201.466 274.394 198.99 273.95 197.659 273.421C192.622 271.389 190.326 268.913 189.353 264.585C188.645 261.494 189.002 258.225 190.326 254.948C192.272 250.44 196.071 247.171 201.73 245.046L203.412 244.516C206.331 243.629 208.098 242.835 208.541 242.127C209.958 240.445 209.514 238.235 207.833 237.269C206.066 236.296 204.034 236.56 201.823 237.977C200.671 238.685 199.706 239.923 198.733 241.69C198.554 242.306 197.759 242.577 196.343 242.399C194.926 242.134 193.689 241.426 192.544 240.281C190.512 238.249 189.804 235.952 190.426 233.298C191.041 230.558 192.902 228.526 195.906 227.109C199.176 225.607 204.041 225.163 210.488 225.871C216.934 226.58 219.681 227.553 222.507 230.028C223.924 231.352 224.983 232.768 225.777 234.271C226.664 235.952 227.194 238.335 227.458 241.34L227.637 243.901V244.96L227.723 245.225L227.637 250.261L227.723 252.558L227.809 255.649L227.988 261.043L228.167 265.816L228.252 266.524L228.338 269.879C228.338 270.588 228.338 271.296 228.424 271.911C228.51 274.122 227.365 274.566 221.262 274.83L217.814 274.916H215.782L211.804 275.002L210.387 274.916L205.086 274.651V274.659ZM205.615 259.283L205.701 259.899C206.052 261.845 206.76 262.818 207.912 262.818C208.62 262.818 209.064 262.553 209.15 262.109C209.5 259.72 209.593 257.867 209.414 256.45C209.328 255.477 208.706 255.127 207.561 255.391C206.409 255.835 205.794 256.894 205.708 258.575C205.622 258.575 205.622 258.84 205.622 259.283H205.615Z" fill="#F58233"/>
<path d="M229.834 234.093V233.914C229.834 233.12 229.92 232.498 230.013 232.061C230.628 229.321 231.78 227.554 232.488 227.468C233.376 227.289 234.256 227.117 235.229 226.853C235.937 226.674 236.466 226.237 236.731 225.436C237.082 224.642 237.525 222.61 238.148 219.426C238.412 217.838 239.3 216.242 240.709 214.568C243.006 211.914 247.069 210.504 252.993 210.24C257.415 210.061 260.241 210.325 261.393 211.034C262.545 211.649 262.895 213.152 262.452 215.455L261.922 218.11C261.479 220.671 261.035 221.029 257.594 220.764C257.064 220.678 256.535 221.472 256.006 223.325C255.655 224.742 255.741 225.715 256.184 226.33L259.54 227.039C262.724 227.747 262.988 228.362 262.366 232.519C261.922 235.259 261.572 236.848 261.128 237.291C260.685 237.642 259.712 237.47 258.037 236.676C256.184 235.968 254.589 237.384 254.503 240.475L254.417 244.095V244.181L254.596 247.894L254.682 248.688L254.861 252.402C254.861 253.904 254.947 255.492 255.04 256.995C255.04 257.61 255.125 259.113 255.39 261.416V261.767L256.006 265.831L256.184 266.625L256.535 271.132C256.714 272.985 256.449 274.137 255.648 274.581C254.846 275.025 252.822 275.196 249.373 275.11L246.104 275.025C245.488 274.939 244.78 274.939 244.157 274.939C241.596 274.853 239.736 274.853 238.677 274.853C237.883 274.853 237.089 274.238 236.466 273.086C236.202 272.47 236.023 271.233 236.023 269.372V268.399L235.937 265.48V264.686L235.758 261.681L235.579 257.088L235.493 252.23V242.686C235.407 240.654 235.493 239.151 235.579 237.999C235.758 237.47 234.871 236.762 233.461 237.112C232.667 237.291 231.959 237.556 231.429 237.821C230.721 238.171 230.635 238.171 230.371 236.848L229.841 234.107L229.834 234.093Z" fill="#F58233"/>
<path d="M264.133 259.992C263.425 257.252 263.074 254.247 263.074 250.798C263.16 241.869 265.993 234.536 270.501 230.293C275.094 226.051 279.515 224.548 287.386 224.899C288.974 224.984 290.39 225.249 291.542 225.514C295.163 226.487 297.903 227.904 299.942 229.671C301.795 231.352 303.126 232.762 303.834 233.913C304.628 234.972 305.422 236.832 306.395 239.394C307.898 243.372 308.341 248.323 307.719 254.24C307.368 257.159 306.925 259.276 306.481 260.6C305.329 264.049 303.92 266.875 302.153 269.085C298.704 273.328 295.699 275.095 289.603 276.247C276.875 278.458 267.417 272.355 264.147 259.985L264.133 259.992ZM281.984 250.798V251.414L282.249 254.504L282.334 255.12L282.599 257.152C282.685 257.86 282.864 258.389 283.043 258.654C283.658 260.335 285.783 260.686 287.285 259.183C288.437 258.032 288.967 255.563 288.788 251.936L288.702 246.899V245.661C288.788 243.365 288.351 241.333 287.378 239.651C286.584 238.328 284.903 238.063 283.93 239.036C283.136 239.83 282.692 241.247 282.427 243.365L282.163 245.575C282.077 246.105 282.077 246.634 282.077 247.078C281.991 249.11 281.898 250.348 281.991 250.791L281.984 250.798Z" fill="#F58233"/>
<path d="M326.793 274.659C323.173 274.394 320.697 273.95 319.366 273.421C314.329 271.389 312.033 268.913 311.06 264.585C310.352 261.494 310.709 258.225 312.033 254.948C313.979 250.44 317.778 247.171 323.437 245.046L325.119 244.516C328.038 243.629 329.805 242.835 330.248 242.127C331.665 240.445 331.222 238.235 329.54 237.269C327.773 236.296 325.741 236.56 323.53 237.977C322.378 238.685 321.413 239.923 320.44 241.69C320.261 242.306 319.467 242.577 318.05 242.399C316.633 242.134 315.396 241.426 314.251 240.281C312.219 238.249 311.511 235.952 312.133 233.298C312.748 230.558 314.609 228.526 317.613 227.109C320.883 225.607 325.748 225.163 332.195 225.871C338.641 226.58 341.388 227.553 344.214 230.028C345.631 231.352 346.69 232.768 347.484 234.271C348.371 235.952 348.901 238.335 349.165 241.34L349.344 243.901V244.96L349.43 245.225L349.344 250.261L349.43 252.558L349.516 255.649L349.695 261.043L349.874 265.816L349.959 266.524L350.045 269.879C350.045 270.588 350.045 271.296 350.131 271.911C350.217 274.122 349.072 274.566 342.969 274.83L339.521 274.916H337.489L333.511 275.002L332.094 274.916L326.793 274.651V274.659ZM327.329 259.283L327.415 259.899C327.766 261.845 328.474 262.818 329.626 262.818C330.334 262.818 330.778 262.553 330.864 262.109C331.214 259.72 331.307 257.867 331.129 256.45C331.043 255.477 330.42 255.127 329.275 255.391C328.124 255.835 327.508 256.894 327.422 258.575C327.337 258.575 327.337 258.84 327.337 259.283H327.329Z" fill="#F58233"/>
<path d="M354.903 258.576L354.817 255.75V253.453L354.731 248.767V241.52C354.731 239.931 354.817 237.542 355.082 234.358V233.914L355.168 233.12L355.518 230.029L355.783 226.938C356.398 224.907 357.729 224.377 362.68 224.284C364.533 224.284 366.393 224.284 368.246 224.198C373.283 224.112 374.521 224.814 374.435 227.733C374.435 228.527 374.614 228.97 374.879 228.97L375.408 228.791L375.673 228.706L378.148 227.997C378.592 227.911 379.651 227.554 381.332 226.845C381.776 226.581 383.099 226.495 385.131 226.495C388.222 226.495 390.791 227.11 392.823 228.262L393.617 228.706L393.881 228.884C394.94 229.679 397.33 228.97 401.129 226.853C402.281 226.237 404.22 225.88 406.96 225.965C417.563 226.144 422.779 233.478 422.779 256.372C422.779 260.086 422.6 263.355 422.249 266.274L422.164 266.804C422.078 267.956 421.899 269.015 421.72 270.159C421.455 272.37 421.105 273.608 420.568 274.051C420.125 274.402 418.715 274.667 416.504 274.76L411.997 274.846H410.23C409.257 274.846 408.284 274.846 407.311 274.76C404.392 274.674 402.803 274.581 402.624 274.495C400.943 274.144 401.036 273.608 402.181 269.1V268.836L402.796 264.507L402.975 263.448C403.061 262.74 403.24 262.032 403.419 261.238L403.683 256.38L403.769 253.196L403.855 251.25L403.769 250.456L403.59 246.127C403.411 243.208 402.882 241.269 402.002 240.203C401.029 239.23 399.705 239.316 398.911 240.289C398.203 241.083 397.938 242.407 398.117 244.353C398.117 244.703 398.296 245.412 398.296 245.676L398.561 248.417C398.825 251.686 398.825 255.578 398.561 259.993C398.475 260.608 398.382 261.939 398.382 262.554L398.203 263.613L397.673 268.034C397.23 271.569 396.786 273.601 396.35 274.223C395.82 274.838 394.318 275.11 391.842 274.838C391.757 274.838 391.227 274.838 390.254 274.753C388.401 274.574 386.541 274.574 384.774 274.753C381.153 275.017 379.028 274.838 378.499 274.137C378.055 273.429 378.148 270.954 378.943 266.625C379.386 264.064 379.558 260.35 379.558 255.664C379.558 254.341 379.558 253.275 379.472 252.573V251.071L379.207 245.505C379.028 243.115 378.764 241.613 378.32 240.911C377.705 240.024 376.904 239.759 375.845 240.024C374.693 240.468 374.163 241.348 374.077 242.85L373.813 246.385V252.659C373.813 255.399 373.899 258.49 373.899 258.934L373.984 259.284L374.335 265.03L374.421 266.353L374.6 269.623C374.686 272.277 374.686 273.78 374.421 274.044C374.156 274.309 373.004 274.395 370.887 274.488L366.379 274.574H364.612C363.725 274.488 362.845 274.488 362.051 274.488C358.781 274.402 356.921 274.044 356.484 273.429C356.048 272.814 355.69 270.159 355.332 265.473C355.332 264.858 355.154 263.441 355.154 262.819L354.889 258.576H354.903Z" fill="#F58233"/>
<path d="M249.802 182.68L271.079 142.106L250.202 152.645L228.517 142.106L249.802 182.68Z" fill="#F58233"/>
<path d="M277.276 190.486H222.736C222.142 190.486 221.663 190.006 221.663 189.412V135.073C221.663 134.479 222.142 134 222.736 134H277.276C277.87 134 278.349 134.479 278.349 135.073V189.412C278.349 190.006 277.87 190.486 277.276 190.486ZM223.802 188.339H276.195V136.146H223.802V188.339Z" fill="black"/>
<path d="M416.125 288.303C415.667 287.738 414.852 287.609 414.243 288.009C414.2 288.031 409.593 290.878 398.124 292.102C387.514 293.239 368.712 293.182 339.378 286.464C305.043 278.601 280.359 285.863 265.707 293.34C258.209 297.16 252.542 301.374 248.607 304.808C244.672 301.374 239.006 297.167 231.508 293.34C216.855 285.863 192.172 278.601 157.837 286.464C128.503 293.182 109.701 293.239 99.0904 292.102C87.6216 290.878 83.014 288.031 82.9711 288.009C82.3629 287.609 81.5473 287.738 81.0894 288.303C80.6244 288.868 80.6673 289.691 81.1824 290.213C82.0195 291.064 100.471 309.294 135.429 309.294C139.02 309.294 142.791 309.101 146.726 308.679C169.585 306.218 197.209 290.449 202.768 287.158C214.108 288.918 223.223 292.338 230.07 295.815C236.988 299.328 241.925 303.914 245.273 307.906C243.041 310.124 241.889 311.612 241.767 311.77L246.067 316.885C246.096 316.85 246.876 315.047 248.607 312.392C250.339 315.04 251.119 316.842 251.147 316.885L255.447 311.77C255.325 311.612 254.174 310.131 251.941 307.906C255.29 303.907 260.226 299.328 267.145 295.815C273.992 292.338 283.107 288.918 294.447 287.158C300.006 290.449 327.63 306.218 350.489 308.679C354.424 309.101 358.194 309.294 361.786 309.294C396.743 309.294 415.195 291.064 416.032 290.213C416.547 289.691 416.59 288.868 416.125 288.303Z" fill="black"/>
</g>
<defs>
<clipPath id="clip0_11_8547">
<rect width="345.152" height="182.886" fill="white" transform="translate(77.6338 134)"/>
</clipPath>
</defs>
</svg>
