<svg width="500" height="500" viewBox="0 0 500 500" fill="none" xmlns="http://www.w3.org/2000/svg">
<rect width="500" height="500" fill="white"/>
<g clip-path="url(#clip0_11_10149)">
<path d="M250.081 293.822L241.061 296.632L116.771 335.392L241.061 373.812L250.081 376.602L259.081 373.812L383.38 335.382L259.081 296.632L250.081 293.822Z" fill="#011257"/>
<path d="M359.03 308.922L332.84 267.742L287.5 253.602V185.432L367.8 311.652L413.77 325.982L259.08 82.8516V277.752L280.34 284.392L359.03 308.922Z" fill="#011257"/>
<path d="M212.5 185.432V253.602L167.17 267.742L140.97 308.922L219.66 284.392L240.92 277.752V82.8516L86.2305 325.982L132.2 311.652L212.5 185.432Z" fill="#0C88BE"/>
</g>
<defs>
<clipPath id="clip0_11_10149">
<rect width="327.54" height="293.75" fill="white" transform="translate(86.2305 82.8516)"/>
</clipPath>
</defs>
</svg>
