<svg width="500" height="500" viewBox="0 0 500 500" fill="none" xmlns="http://www.w3.org/2000/svg">
<rect width="500" height="500" fill="white"/>
<g clip-path="url(#clip0_11_9962)">
<path d="M410.982 307.83L381.892 348.71H244.362V249.25H144.822C145.522 265.34 149.982 280.88 158.202 295.82C162.212 303.12 167.112 310.28 172.902 317.29L120.752 348.2C89.9924 307.73 78.5524 262.19 87.5424 213.74C96.1124 167.38 118.482 131.59 154.002 107.33C170.802 95.87 189.132 88.1 207.392 82.93C226.902 77.43 247.152 75 267.422 75C282.442 75 304.032 77.14 304.032 77.14L325.032 133.98H274.882C264.532 133.98 254.182 134.61 243.962 136.22C224.722 139.25 204.632 145.41 187.672 157.06C175.352 165.51 165.722 176.16 158.652 189.2H244.362V149.59H311.662V307.83H410.982Z" fill="#FF6600"/>
</g>
<defs>
<clipPath id="clip0_11_9962">
<rect width="326.42" height="273.71" fill="white" transform="translate(84.5625 75)"/>
</clipPath>
</defs>
</svg>
