<svg width="500" height="500" viewBox="0 0 500 500" fill="none" xmlns="http://www.w3.org/2000/svg">
<rect width="500" height="500" fill="white"/>
<g clip-path="url(#clip0_11_9968)">
<path d="M200.21 346.58L217.72 376.21L245.16 359.8L223.13 346.58H200.21Z" fill="#890C58"/>
<path d="M213.54 378.7L194.56 346.58H159.16L159.63 377.31L188.24 393.83L213.54 378.7Z" fill="#890C58"/>
<path d="M197.33 341.72H215.03L187.61 325.27L197.33 341.72Z" fill="#890C58"/>
<path d="M267.959 405.44L281.429 381.56L249.889 362.64L220.189 380.39L234.989 405.44H267.959Z" fill="#890C58"/>
<path d="M188.28 399.47L178.29 405.44H198.63L188.28 399.47Z" fill="#890C58"/>
<path d="M334.459 98.3101L320.899 105.84L344.499 119.47L344.749 104.55C341.389 102.36 337.959 100.28 334.449 98.3201L334.459 98.3101Z" fill="#890C58"/>
<path d="M249.89 356.97L267.27 346.58H232.58L249.89 356.97Z" fill="#890C58"/>
<path d="M270.8 410.3L264.8 420.94L283.23 410.3H270.8Z" fill="#890C58"/>
<path d="M158.22 285.08L158.48 302.12L173.67 311.24L158.22 285.08Z" fill="#890C58"/>
<path d="M178.87 320.03L158.56 307.85L159.08 341.72H191.69L178.87 320.03Z" fill="#890C58"/>
<path d="M254.62 359.8L283.82 377.32L301.15 346.58H276.74L254.62 359.8Z" fill="#890C58"/>
<path d="M313.57 324.56L284.87 341.72H303.89L313.57 324.56Z" fill="#890C58"/>
<path d="M193.06 396.61L208.35 405.44H229.35L216.02 382.89L193.06 396.61Z" fill="#890C58"/>
<path d="M255.1 142.37L274.49 153.18L300.88 152.91L285.16 125.69L255.1 142.37Z" fill="#890C58"/>
<path d="M245.1 142.37L215.99 126.15L199.95 153.93L224.72 153.68L245.1 142.37Z" fill="#890C58"/>
<path d="M306.73 396.74L285.6 384.06L273.54 405.44H291.65L306.73 396.74Z" fill="#890C58"/>
<path d="M250.1 145.15L234.92 153.58L264.68 153.28L250.1 145.15Z" fill="#890C58"/>
<path d="M188.479 173.81L215.799 158.63L197.129 158.82L188.479 173.81Z" fill="#890C58"/>
<path d="M303.67 157.74L283.06 157.95L313.62 174.98L303.67 157.74Z" fill="#890C58"/>
<path d="M287.99 379.82L311.54 393.96L340.18 377.42L340.7 346.58H306.73L287.99 379.82Z" fill="#890C58"/>
<path d="M301.37 405.44H321.24L311.49 399.6L301.37 405.44Z" fill="#890C58"/>
<path d="M309.47 341.72H340.78L341.35 307.95L321.98 319.53L309.47 341.72Z" fill="#890C58"/>
<path d="M336.62 226.98L335.87 272.65L313.87 311.64L273.72 335.65H226.15L186.88 312.07L164.13 273.58L163.45 229.32L188.17 186.49L227.61 164.59L271.7 164.13L313.94 187.66L336.62 226.98Z" fill="#890C58"/>
<path d="M341.44 302.23L341.74 284.49L326.8 310.99L341.44 302.23Z" fill="#890C58"/>
<path d="M394.88 180.34L402.46 166.89C400.58 163.44 398.55 160.09 396.44 156.79L381.37 156.94L394.88 180.34Z" fill="#890C58"/>
<path d="M392.11 185.26L375.8 157.01L348.74 157.28L348.12 194.2L377.76 210.71L392.11 185.26Z" fill="#890C58"/>
<path d="M359.09 253.73L346.75 275.61L346.35 299.3L375.38 281.94L359.09 253.73Z" fill="#890C58"/>
<path d="M375.37 214.95L348.02 199.71L347.61 224.13L359.04 243.92L375.37 214.95Z" fill="#890C58"/>
<path d="M382.01 213.08L405.44 226.13V208.35L394.93 190.15L382.01 213.08Z" fill="#890C58"/>
<path d="M347.46 233.58L346.92 265.41L356.26 248.84L347.46 233.58Z" fill="#890C58"/>
<path d="M361.86 248.81L379.55 279.45L405.44 263.97V231.7L379.62 217.31L361.86 248.81Z" fill="#890C58"/>
<path d="M329.15 404.52C332.78 402.66 336.35 400.71 339.83 398.61L340.09 383.09L316.31 396.82L329.15 404.52Z" fill="#890C58"/>
<path d="M237.87 410.3L245.68 423.51C247.12 423.55 248.56 423.62 250.01 423.62C252.63 423.62 255.24 423.54 257.83 423.42L265.23 410.3H237.88H237.87Z" fill="#890C58"/>
<path d="M141.07 372.21L154.05 394.69C154.38 394.91 154.71 395.11 155.04 395.32L154.81 380.14L141.08 372.21H141.07Z" fill="#890C58"/>
<path d="M159.71 382.97L159.95 398.47C163.41 400.57 166.98 402.52 170.59 404.38L183.46 396.68L159.71 382.97Z" fill="#890C58"/>
<path d="M264.39 89.7L256.8 76.55C254.54 76.46 252.28 76.38 250.01 76.38C248.21 76.38 246.44 76.46 244.66 76.52L237.05 89.7H264.4H264.39Z" fill="#890C58"/>
<path d="M393.21 312.83L377.81 286.15L346.26 305.02L345.64 341.72H376.53L393.21 312.83Z" fill="#890C58"/>
<path d="M410.3 183.24V207.05L422.13 227.53C420.13 212.03 416.12 197.17 410.3 183.24Z" fill="#890C58"/>
<path d="M291.65 94.5601H272.81L286.98 119.12L311.04 105.76L291.65 94.5601Z" fill="#890C58"/>
<path d="M423.41 241.71L410.3 234.4V261.05L423.54 253.13C423.56 252.08 423.62 251.04 423.62 249.99C423.62 247.21 423.54 244.45 423.41 241.7V241.71Z" fill="#890C58"/>
<path d="M363.79 136.21L349.23 127.81L348.82 152.42L373.01 152.17L363.79 136.21Z" fill="#890C58"/>
<path d="M378.59 152.12L391.12 151.99L372.21 141.07L378.59 152.12Z" fill="#890C58"/>
<path d="M410.3 216.77V228.84L420.58 234.57L410.3 216.77Z" fill="#890C58"/>
<path d="M405.44 324.29V301.38L398.82 312.83L405.44 324.29Z" fill="#890C58"/>
<path d="M396.02 307.97L405.439 291.65V269.63L381.979 283.66L396.02 307.97Z" fill="#890C58"/>
<path d="M410.3 283.23L423.25 260.79C423.29 260.15 423.36 259.53 423.39 258.89L410.29 266.72V283.23H410.3Z" fill="#890C58"/>
<path d="M349.5 111.47L349.32 122.25L358.93 127.79L349.5 111.47Z" fill="#890C58"/>
<path d="M397.71 185.23L405.44 198.62V172.65C405.34 172.45 405.24 172.25 405.13 172.05L397.7 185.22L397.71 185.23Z" fill="#890C58"/>
<path d="M165.79 98.17C162.27 100.13 158.83 102.22 155.46 104.41L155.69 119.36L179.32 105.72L165.79 98.18V98.17Z" fill="#890C58"/>
<path d="M117.07 159.64L101.63 159.8C99.5896 163.14 97.6996 166.58 95.8896 170.07L103.56 183.05L117.07 159.64Z" fill="#890C58"/>
<path d="M106.399 187.85L120.429 211.59L151.959 194.08L151.429 159.29L122.719 159.58L106.399 187.85Z" fill="#890C58"/>
<path d="M89.6999 207.05V183.24C83.8899 197.17 79.8799 212.04 77.8799 227.53L89.6999 207.05Z" fill="#890C58"/>
<path d="M104.69 318.92L97.04 332.18C98.79 335.43 100.66 338.6 102.6 341.72H117.86L104.7 318.92H104.69Z" fill="#890C58"/>
<path d="M136.21 363.79L154.72 374.48L154.29 346.58H126.28L136.21 363.79Z" fill="#890C58"/>
<path d="M120.659 346.58H106.399L127.789 358.93L120.659 346.58Z" fill="#890C58"/>
<path d="M138.19 251.19L118.65 218.13L94.5596 231.5V263.78L121.57 279.98L138.19 251.19Z" fill="#890C58"/>
<path d="M127.79 141.07L105.31 154.05C105.12 154.33 104.95 154.62 104.76 154.9L119.89 154.75L127.79 141.07Z" fill="#890C58"/>
<path d="M183.24 410.3C197.17 416.11 212.04 420.12 227.53 422.12L207.05 410.3H183.24Z" fill="#890C58"/>
<path d="M107.5 314.06L123.47 341.72H154.22L153.66 304.9L123.3 286.69L107.5 314.06Z" fill="#890C58"/>
<path d="M150.87 122.14L150.7 111.12L141.07 127.79L150.87 122.14Z" fill="#890C58"/>
<path d="M283.23 89.7L263.38 78.24L270 89.7H283.23Z" fill="#890C58"/>
<path d="M89.6999 316.76V292.95L77.8799 272.47C79.8799 287.96 83.8899 302.82 89.6999 316.76Z" fill="#890C58"/>
<path d="M144.49 112.16C132.34 121.47 121.47 132.35 112.16 144.49L132.66 132.66L144.49 112.16Z" fill="#890C58"/>
<path d="M387.85 144.49C378.54 132.34 367.66 121.47 355.52 112.16L367.35 132.66L387.85 144.49Z" fill="#890C58"/>
<path d="M355.52 387.85C367.67 378.54 378.54 367.66 387.85 355.52L367.35 367.35L355.51 387.85H355.52Z" fill="#890C58"/>
<path d="M410.3 316.76C416.11 302.83 420.12 287.96 422.12 272.47L410.3 292.95V316.76Z" fill="#890C58"/>
<path d="M112.16 355.52C121.47 367.67 132.35 378.54 144.49 387.85L132.66 367.35L112.16 355.52Z" fill="#890C58"/>
<path d="M382.149 341.72H397.409C399.609 338.19 401.689 334.57 403.639 330.88L396.029 317.7L382.159 341.73L382.149 341.72Z" fill="#890C58"/>
<path d="M272.47 422.13C287.97 420.13 302.83 416.12 316.76 410.31H292.95L272.47 422.13Z" fill="#890C58"/>
<path d="M345 380.25L344.74 395.46C345.14 395.2 345.55 394.95 345.95 394.68L358.93 372.2L344.99 380.25H345Z" fill="#890C58"/>
<path d="M373.73 346.58H345.56L345.09 374.59L363.79 363.79L373.73 346.58Z" fill="#890C58"/>
<path d="M372.21 358.93L393.6 346.58H379.34L372.21 358.93Z" fill="#890C58"/>
<path d="M216.77 410.3L239.21 423.25C239.44 423.26 239.68 423.29 239.91 423.3L232.22 410.29H216.77V410.3Z" fill="#890C58"/>
<path d="M125.54 154.69L151.36 154.43L150.95 127.7L136.21 136.21L125.54 154.69Z" fill="#890C58"/>
<path d="M342.89 215.95L343.21 197.03L326.63 187.79L342.89 215.95Z" fill="#890C58"/>
<path d="M321.89 179.59L343.3 191.51L343.87 157.33L309.25 157.68L321.89 179.59Z" fill="#890C58"/>
<path d="M289.41 123.33L306.46 152.85L343.96 152.47L344.42 125.03L315.95 108.59L289.41 123.33Z" fill="#890C58"/>
<path d="M156.87 196.91L157.2 218.26L175.49 186.57L156.87 196.91Z" fill="#890C58"/>
<path d="M316.76 89.7C302.83 83.89 287.96 79.88 272.47 77.88L292.95 89.7H316.76Z" fill="#890C58"/>
<path d="M316 103.01L329.36 95.5901C328.69 95.2501 328.02 94.9001 327.35 94.5601H301.38L316.01 103.01H316Z" fill="#890C58"/>
<path d="M282.73 121.48L267.19 94.5601H234.23L218.42 121.94L250.11 139.59L282.73 121.48Z" fill="#890C58"/>
<path d="M191.48 158.88L156.29 159.24L156.79 191.4L180.22 178.39L191.48 158.88Z" fill="#890C58"/>
<path d="M231.42 89.7L238.75 77.01L216.77 89.7H231.42Z" fill="#890C58"/>
<path d="M211.75 123.78L184.26 108.47L155.77 124.92L156.22 154.38L194.3 153.99L211.75 123.78Z" fill="#890C58"/>
<path d="M189.17 105.64L214.18 119.57L228.62 94.5601H208.35L189.17 105.64Z" fill="#890C58"/>
<path d="M94.5596 301.37V326.75L101.89 314.06L94.5596 301.37Z" fill="#890C58"/>
<path d="M94.5596 177.38V198.63L100.77 187.88L94.5596 177.38Z" fill="#890C58"/>
<path d="M227.53 77.88C212.03 79.88 197.17 83.89 183.24 89.7H207.05L227.53 77.88Z" fill="#890C58"/>
<path d="M153.08 266.83L152.6 235.94L143.81 251.16L153.08 266.83Z" fill="#890C58"/>
<path d="M125.729 282.48L153.569 299.18L153.229 276.64L141.019 256L125.729 282.48Z" fill="#890C58"/>
<path d="M140.979 246.36L152.459 226.47L152.049 199.59L122.899 215.77L140.979 246.36Z" fill="#890C58"/>
<path d="M103.61 192.68L94.5596 208.35V225.95L116.17 213.95L103.61 192.68Z" fill="#890C58"/>
<path d="M198.63 94.5601H172.66C172.07 94.8501 171.49 95.1601 170.91 95.4601L184.23 102.88L198.64 94.5601H198.63Z" fill="#890C58"/>
<path d="M119.13 284.19L94.5596 269.45V291.65L104.69 309.2L119.13 284.19Z" fill="#890C58"/>
<path d="M76.3799 250C76.3799 250.98 76.4399 251.94 76.4499 252.91L89.6999 260.86V234.2L76.5999 241.48C76.4599 244.3 76.3799 247.14 76.3799 250Z" fill="#890C58"/>
<path d="M76.7496 260.8L89.6996 283.24V266.54L76.5996 258.67C76.6396 259.38 76.6996 260.09 76.7496 260.8Z" fill="#890C58"/>
<path d="M89.7004 228.65V216.77L79.6104 234.25L89.7004 228.65Z" fill="#890C58"/>
</g>
<defs>
<clipPath id="clip0_11_9968">
<rect width="347.24" height="347.24" fill="white" transform="translate(76.3799 76.38)"/>
</clipPath>
</defs>
</svg>
