<svg width="500" height="500" viewBox="0 0 500 500" fill="none" xmlns="http://www.w3.org/2000/svg">
<rect width="500" height="500" fill="white"/>
<g clip-path="url(#clip0_11_10109)">
<path d="M113.415 357.75H386.585C386.645 357.68 386.705 357.62 386.755 357.54C410.055 327.94 423.965 290.59 423.965 250.01C423.965 153.93 346.075 76.04 250.005 76.04C153.935 76.04 76.0352 153.93 76.0352 250C76.0352 290.58 89.9452 327.94 113.255 357.53L113.415 357.74V357.75Z" fill="#BA0E36"/>
<path d="M113.256 357.53H386.766C386.706 357.61 386.646 357.67 386.596 357.74C354.746 398.08 305.396 423.96 250.016 423.96C194.636 423.96 145.286 398.08 113.426 357.74L113.266 357.53H113.256Z" fill="#57B952"/>
<path d="M250.005 132.59C195.215 132.59 150.635 177.16 150.635 231.95C150.635 286.74 195.215 331.31 250.005 331.31C304.795 331.31 349.365 286.74 349.365 231.95C349.365 177.16 304.785 132.59 250.005 132.59ZM218.115 234.56C218.175 242.27 218.495 249.82 219.085 257.11C207.775 255.95 197.275 254.14 188.025 251.75C187.215 246.18 186.745 240.44 186.635 234.55H218.115V234.56ZM186.635 229.35C186.755 223.46 187.225 217.71 188.025 212.14C197.265 209.75 207.775 207.96 219.085 206.79C218.495 214.07 218.175 221.64 218.115 229.34H186.635V229.35ZM219.565 262.39C220.655 273.44 222.345 283.78 224.585 292.98C214.805 291.14 205.665 288.25 197.435 284.51C193.705 276.29 190.815 267.15 188.965 257.36C198.175 259.61 208.525 261.29 219.565 262.39ZM188.965 206.54C190.815 196.76 193.705 187.62 197.435 179.39C205.655 175.65 214.805 172.77 224.585 170.92C222.345 180.13 220.655 190.47 219.565 201.51C208.515 202.6 198.175 204.3 188.965 206.54ZM201.005 172.3C210.165 155.73 223.045 143.87 237.755 139.57C233.615 144.65 229.925 152.43 226.795 162.78C226.535 163.63 226.285 164.51 226.035 165.38C217.165 166.91 208.765 169.25 201.005 172.3ZM219.765 142.79C209.225 150.31 200.215 161.64 193.575 175.52C179.685 182.16 168.355 191.18 160.835 201.72C170.235 174.08 192.135 152.18 219.765 142.79ZM190.345 182.95C187.305 190.7 184.955 199.11 183.435 207.99C182.555 208.24 181.675 208.48 180.835 208.74C170.485 211.88 162.695 215.57 157.625 219.7C161.915 205.01 173.765 192.12 190.345 182.95ZM182.335 213.73C182.415 213.7 182.495 213.68 182.575 213.66C181.915 218.77 181.515 224.01 181.425 229.35H156.385C158.645 223.76 167.985 218.07 182.335 213.73ZM181.425 234.56C181.525 239.91 181.915 245.15 182.575 250.25C182.495 250.22 182.415 250.2 182.335 250.18C167.985 245.83 158.655 240.14 156.385 234.56H181.425ZM180.835 255.16C181.675 255.42 182.555 255.67 183.435 255.91C184.955 264.79 187.305 273.19 190.345 280.95C173.775 271.79 161.915 258.9 157.625 244.2C162.695 248.33 170.485 252.03 180.835 255.16ZM160.835 262.19C168.355 272.72 179.695 281.74 193.575 288.38C200.215 302.27 209.225 313.59 219.765 321.12C192.125 311.72 170.225 289.82 160.835 262.19ZM201.005 291.6C208.755 294.65 217.165 296.99 226.035 298.52C226.285 299.39 226.535 300.27 226.795 301.12C229.925 311.47 233.615 319.25 237.755 324.33C223.055 320.04 210.165 308.18 201.005 291.6ZM247.395 325.56C241.805 323.3 236.115 313.97 231.775 299.61C231.755 299.53 231.725 299.46 231.705 299.38C236.815 300.03 242.055 300.43 247.395 300.52V325.56ZM247.395 295.31C241.515 295.2 235.765 294.72 230.185 293.92C227.805 284.69 226.005 274.18 224.835 262.86C232.125 263.45 239.685 263.78 247.385 263.84V295.31H247.395ZM247.395 258.63C239.505 258.57 231.785 258.22 224.355 257.6C223.735 250.16 223.385 242.45 223.315 234.56H247.395V258.63ZM247.395 229.35H223.315C223.385 221.45 223.725 213.74 224.355 206.31C231.785 205.69 239.505 205.34 247.395 205.27V229.35ZM247.395 200.06C239.685 200.12 232.135 200.45 224.845 201.04C226.005 189.73 227.815 179.22 230.195 169.98C235.775 169.17 241.515 168.69 247.405 168.59V200.06H247.395ZM247.395 163.38C242.045 163.48 236.805 163.87 231.705 164.52C231.725 164.44 231.755 164.37 231.775 164.29C236.125 149.94 241.805 140.6 247.395 138.34V163.38ZM343.615 229.35H318.575C318.475 224 318.085 218.76 317.425 213.66C317.505 213.68 317.585 213.7 317.665 213.73C332.015 218.08 341.345 223.76 343.615 229.35ZM319.175 208.74C318.335 208.48 317.455 208.24 316.575 207.99C315.055 199.11 312.705 190.71 309.665 182.95C326.235 192.11 338.095 205 342.385 219.7C337.315 215.57 329.525 211.88 319.175 208.74ZM311.045 257.36C309.195 267.15 306.305 276.28 302.575 284.51C294.355 288.25 285.205 291.14 275.425 292.98C277.665 283.78 279.355 273.43 280.445 262.39C291.495 261.3 301.835 259.61 311.045 257.36ZM275.415 170.91C285.195 172.76 294.335 175.64 302.565 179.38C306.295 187.6 309.185 196.75 311.035 206.53C301.825 204.29 291.475 202.6 280.435 201.5C279.345 190.45 277.655 180.12 275.415 170.91ZM280.915 257.11C281.505 249.82 281.825 242.26 281.895 234.56H313.365C313.245 240.44 312.775 246.19 311.975 251.76C302.735 254.15 292.225 255.95 280.915 257.12V257.11ZM281.895 229.35C281.825 221.64 281.505 214.08 280.915 206.79C292.225 207.96 302.725 209.76 311.975 212.14C312.785 217.71 313.255 223.45 313.365 229.35H281.895ZM339.175 201.72C331.655 191.18 320.315 182.16 306.435 175.52C299.795 161.63 290.785 150.31 280.245 142.79C307.885 152.19 329.785 174.09 339.175 201.72ZM298.995 172.3C291.245 169.25 282.835 166.91 273.965 165.38C273.715 164.51 273.465 163.63 273.215 162.78C270.075 152.43 266.385 144.65 262.245 139.57C276.945 143.87 289.835 155.72 298.995 172.3ZM252.605 138.34C258.195 140.6 263.885 149.94 268.225 164.29C268.245 164.37 268.275 164.44 268.295 164.52C263.185 163.87 257.945 163.47 252.605 163.38V138.34ZM252.605 168.59C258.485 168.7 264.235 169.18 269.815 169.98C272.195 179.21 273.995 189.73 275.165 201.04C267.875 200.45 260.315 200.12 252.615 200.06V168.59H252.605ZM252.605 205.27C260.495 205.34 268.215 205.68 275.645 206.31C276.265 213.74 276.615 221.45 276.685 229.35H252.605V205.27ZM252.605 234.56H276.685C276.615 242.45 276.275 250.16 275.645 257.6C268.215 258.21 260.495 258.57 252.605 258.63V234.56ZM252.605 263.84C260.315 263.78 267.865 263.46 275.155 262.86C273.995 274.17 272.185 284.68 269.805 293.92C264.225 294.73 258.485 295.21 252.595 295.31V263.84H252.605ZM252.605 325.56V300.52C257.955 300.42 263.195 300.03 268.295 299.38C268.275 299.46 268.245 299.53 268.225 299.61C263.875 313.97 258.195 323.3 252.605 325.56ZM273.225 301.12C273.475 300.27 273.725 299.39 273.975 298.52C282.845 296.99 291.245 294.65 299.005 291.6C289.845 308.17 276.965 320.04 262.255 324.33C266.395 319.25 270.085 311.47 273.225 301.12ZM280.235 321.12C290.775 313.59 299.785 302.26 306.425 288.38C320.315 281.74 331.645 272.72 339.165 262.19C329.765 289.82 307.865 311.73 280.235 321.12ZM309.665 280.95C312.705 273.2 315.055 264.79 316.575 255.91C317.455 255.67 318.335 255.42 319.175 255.16C329.525 252.03 337.315 248.33 342.385 244.2C338.095 258.89 326.245 271.78 309.665 280.95ZM317.665 250.18C317.585 250.2 317.505 250.22 317.425 250.25C318.085 245.14 318.485 239.9 318.575 234.56H343.615C341.355 240.15 332.015 245.84 317.665 250.18Z" fill="#FFC707"/>
</g>
<defs>
<clipPath id="clip0_11_10109">
<rect width="347.93" height="347.92" fill="white" transform="translate(76.0352 76.04)"/>
</clipPath>
</defs>
</svg>
