<svg width="247" height="34" viewBox="0 0 247 34" fill="none" xmlns="http://www.w3.org/2000/svg">
<path d="M12.6406 30.4219C10.2383 30.4219 8.11719 29.8535 6.27734 28.7168C4.4375 27.5801 3.00195 25.998 1.9707 23.9707C0.939453 21.9434 0.423828 19.5938 0.423828 16.9219C0.423828 14.2266 0.939453 11.8652 1.9707 9.83789C3.00195 7.79883 4.4375 6.2168 6.27734 5.0918C8.11719 3.95508 10.2383 3.38672 12.6406 3.38672C14.0703 3.38672 15.4004 3.60352 16.6309 4.03711C17.873 4.45898 18.9805 5.06836 19.9531 5.86523C20.9375 6.66211 21.7461 7.62305 22.3789 8.74805C23.0117 9.87305 23.4453 11.1328 23.6797 12.5273H19.707C19.5195 11.6367 19.2148 10.8457 18.793 10.1543C18.3711 9.46289 17.8555 8.87695 17.2461 8.39648C16.6367 7.91602 15.9453 7.55859 15.1719 7.32422C14.3984 7.07812 13.5664 6.95508 12.6758 6.95508C10.9531 6.95508 9.4707 7.37109 8.22852 8.20312C6.98633 9.03516 6.02539 10.2012 5.3457 11.7012C4.67773 13.1895 4.34375 14.9297 4.34375 16.9219C4.34375 18.9023 4.67773 20.6367 5.3457 22.125C6.02539 23.6133 6.98633 24.7734 8.22852 25.6055C9.4707 26.4375 10.9531 26.8535 12.6758 26.8535C13.5664 26.8535 14.3926 26.7363 15.1543 26.502C15.9277 26.2559 16.6191 25.8984 17.2285 25.4297C17.8379 24.9492 18.3535 24.3633 18.7754 23.6719C19.1973 22.9805 19.5137 22.1953 19.7246 21.3164H23.6797C23.457 22.6992 23.0234 23.9531 22.3789 25.0781C21.7461 26.2031 20.9375 27.1641 19.9531 27.9609C18.9805 28.7578 17.873 29.3672 16.6309 29.7891C15.4004 30.2109 14.0703 30.4219 12.6406 30.4219ZM24.6641 30L34.1738 3.80859H38.8848L48.3242 30H44.0879L39.043 15.2344C38.6328 13.9805 38.1875 12.6094 37.707 11.1211C37.2266 9.63281 36.6523 7.78711 35.9844 5.58398H37.0918C36.4238 7.78711 35.8496 9.63281 35.3691 11.1211C34.8887 12.6094 34.4375 13.9805 34.0156 15.2344L28.8125 30H24.6641ZM29.9375 23.1973V19.875H43.0684V23.1973H29.9375ZM51.0312 30V3.80859H60.7344C62.6094 3.80859 64.2266 4.14258 65.5859 4.81055C66.9453 5.4668 67.9941 6.4043 68.7324 7.62305C69.4824 8.8418 69.8574 10.2891 69.8574 11.9648C69.8574 13.6406 69.4766 15.0879 68.7148 16.3066C67.9531 17.5254 66.8809 18.4688 65.498 19.1367C64.1152 19.8047 62.4863 20.1387 60.6113 20.1387H53.0879V16.7637H60.541C61.6777 16.7637 62.6504 16.5703 63.459 16.1836C64.2676 15.7852 64.8945 15.2285 65.3398 14.5137C65.7852 13.7988 66.0078 12.9492 66.0078 11.9648C66.0078 10.9805 65.7852 10.1367 65.3398 9.43359C64.8945 8.71875 64.2676 8.16797 63.459 7.78125C62.6504 7.39453 61.6777 7.20117 60.541 7.20117H54.9336V30H51.0312ZM81.8633 30V3.80859H91.5664C93.4414 3.80859 95.0586 4.14258 96.418 4.81055C97.7773 5.4668 98.8262 6.4043 99.5645 7.62305C100.314 8.8418 100.689 10.2891 100.689 11.9648C100.689 13.6406 100.309 15.0879 99.5469 16.3066C98.7852 17.5254 97.7129 18.4688 96.3301 19.1367C94.9473 19.8047 93.3184 20.1387 91.4434 20.1387H83.9199V16.7637H91.373C92.5098 16.7637 93.4824 16.5703 94.291 16.1836C95.0996 15.7852 95.7266 15.2285 96.1719 14.5137C96.6172 13.7988 96.8398 12.9492 96.8398 11.9648C96.8398 10.9805 96.6172 10.1367 96.1719 9.43359C95.7266 8.71875 95.0996 8.16797 94.291 7.78125C93.4824 7.39453 92.5098 7.20117 91.373 7.20117H85.7656V30H81.8633ZM104.117 30V3.80859H108.02V26.5723H120.412V30H104.117ZM133.895 30.4219C131.492 30.4219 129.371 29.8535 127.531 28.7168C125.691 27.5801 124.256 25.998 123.225 23.9707C122.193 21.9434 121.678 19.5938 121.678 16.9219C121.678 14.2266 122.193 11.8652 123.225 9.83789C124.256 7.79883 125.691 6.2168 127.531 5.0918C129.371 3.95508 131.492 3.38672 133.895 3.38672C135.324 3.38672 136.654 3.60352 137.885 4.03711C139.127 4.45898 140.234 5.06836 141.207 5.86523C142.191 6.66211 143 7.62305 143.633 8.74805C144.266 9.87305 144.699 11.1328 144.934 12.5273H140.961C140.773 11.6367 140.469 10.8457 140.047 10.1543C139.625 9.46289 139.109 8.87695 138.5 8.39648C137.891 7.91602 137.199 7.55859 136.426 7.32422C135.652 7.07812 134.82 6.95508 133.93 6.95508C132.207 6.95508 130.725 7.37109 129.482 8.20312C128.24 9.03516 127.279 10.2012 126.6 11.7012C125.932 13.1895 125.598 14.9297 125.598 16.9219C125.598 18.9023 125.932 20.6367 126.6 22.125C127.279 23.6133 128.24 24.7734 129.482 25.6055C130.725 26.4375 132.207 26.8535 133.93 26.8535C134.82 26.8535 135.646 26.7363 136.408 26.502C137.182 26.2559 137.873 25.8984 138.482 25.4297C139.092 24.9492 139.607 24.3633 140.029 23.6719C140.451 22.9805 140.768 22.1953 140.979 21.3164H144.934C144.711 22.6992 144.277 23.9531 143.633 25.0781C143 26.2031 142.191 27.1641 141.207 27.9609C140.234 28.7578 139.127 29.3672 137.885 29.7891C136.654 30.2109 135.324 30.4219 133.895 30.4219ZM157.326 17.6777C157.326 15.6621 157.502 13.5996 157.854 11.4902C158.217 9.36914 158.709 7.35938 159.33 5.46094C159.963 3.55078 160.695 1.91602 161.527 0.556641H165.131C164.311 2.24414 163.596 4.06641 162.986 6.02344C162.377 7.96875 161.902 9.9375 161.562 11.9297C161.234 13.9219 161.07 15.8379 161.07 17.6777C161.07 19.3301 161.217 20.9824 161.51 22.6348C161.814 24.2754 162.266 25.9688 162.863 27.7148C163.461 29.4609 164.217 31.3066 165.131 33.252H161.527C160.156 30.9199 159.113 28.4297 158.398 25.7812C157.684 23.1328 157.326 20.4316 157.326 17.6777ZM179.668 30.4219C177.266 30.4219 175.145 29.8535 173.305 28.7168C171.465 27.5801 170.029 25.998 168.998 23.9707C167.967 21.9434 167.451 19.5938 167.451 16.9219C167.451 14.2266 167.967 11.8652 168.998 9.83789C170.029 7.79883 171.465 6.2168 173.305 5.0918C175.145 3.95508 177.266 3.38672 179.668 3.38672C181.098 3.38672 182.428 3.60352 183.658 4.03711C184.9 4.45898 186.008 5.06836 186.98 5.86523C187.965 6.66211 188.773 7.62305 189.406 8.74805C190.039 9.87305 190.473 11.1328 190.707 12.5273H186.734C186.547 11.6367 186.242 10.8457 185.82 10.1543C185.398 9.46289 184.883 8.87695 184.273 8.39648C183.664 7.91602 182.973 7.55859 182.199 7.32422C181.426 7.07812 180.594 6.95508 179.703 6.95508C177.98 6.95508 176.498 7.37109 175.256 8.20312C174.014 9.03516 173.053 10.2012 172.373 11.7012C171.705 13.1895 171.371 14.9297 171.371 16.9219C171.371 18.9023 171.705 20.6367 172.373 22.125C173.053 23.6133 174.014 24.7734 175.256 25.6055C176.498 26.4375 177.98 26.8535 179.703 26.8535C180.594 26.8535 181.42 26.7363 182.182 26.502C182.955 26.2559 183.646 25.8984 184.256 25.4297C184.865 24.9492 185.381 24.3633 185.803 23.6719C186.225 22.9805 186.541 22.1953 186.752 21.3164H190.707C190.484 22.6992 190.051 23.9531 189.406 25.0781C188.773 26.2031 187.965 27.1641 186.98 27.9609C186.008 28.7578 184.9 29.3672 183.658 29.7891C182.428 30.2109 181.098 30.4219 179.668 30.4219ZM191.691 30L201.201 3.80859H205.912L215.352 30H211.115L206.07 15.2344C205.66 13.9805 205.215 12.6094 204.734 11.1211C204.254 9.63281 203.68 7.78711 203.012 5.58398H204.119C203.451 7.78711 202.877 9.63281 202.396 11.1211C201.916 12.6094 201.465 13.9805 201.043 15.2344L195.84 30H191.691ZM196.965 23.1973V19.875H210.096V23.1973H196.965ZM218.059 30V3.80859H227.762C229.637 3.80859 231.254 4.14258 232.613 4.81055C233.973 5.4668 235.021 6.4043 235.76 7.62305C236.51 8.8418 236.885 10.2891 236.885 11.9648C236.885 13.6406 236.504 15.0879 235.742 16.3066C234.98 17.5254 233.908 18.4688 232.525 19.1367C231.143 19.8047 229.514 20.1387 227.639 20.1387H220.115V16.7637H227.568C228.705 16.7637 229.678 16.5703 230.486 16.1836C231.295 15.7852 231.922 15.2285 232.367 14.5137C232.812 13.7988 233.035 12.9492 233.035 11.9648C233.035 10.9805 232.812 10.1367 232.367 9.43359C231.922 8.71875 231.295 8.16797 230.486 7.78125C229.678 7.39453 228.705 7.20117 227.568 7.20117H221.961V30H218.059ZM238.836 33.252C239.75 31.3066 240.5 29.4609 241.086 27.7148C241.684 25.9688 242.129 24.2754 242.422 22.6348C242.727 20.9824 242.879 19.3301 242.879 17.6777C242.879 15.8379 242.709 13.9219 242.369 11.9297C242.041 9.9375 241.572 7.96875 240.963 6.02344C240.365 4.06641 239.656 2.24414 238.836 0.556641H242.439C243.26 1.91602 243.986 3.55078 244.619 5.46094C245.252 7.35938 245.744 9.36914 246.096 11.4902C246.459 13.5996 246.641 15.6621 246.641 17.6777C246.641 20.4316 246.283 23.1328 245.568 25.7812C244.854 28.4297 243.811 30.9199 242.439 33.252H238.836Z" fill="white"/>
</svg>
