<svg width="500" height="500" viewBox="0 0 500 500" fill="none" xmlns="http://www.w3.org/2000/svg">
<rect width="500" height="500" fill="white"/>
<g clip-path="url(#clip0_11_9775)">
<path d="M250.01 167.335C195.44 167.335 151.21 211.575 151.21 266.135C151.21 320.695 195.45 364.935 250.01 364.935C304.57 364.935 348.81 320.695 348.81 266.135C348.81 211.575 304.57 167.335 250.01 167.335ZM250.01 333.555C212.77 333.555 182.59 303.375 182.59 266.135C182.59 228.895 212.77 198.715 250.01 198.715C287.25 198.715 317.43 228.915 317.43 266.135C317.43 303.355 287.23 333.555 250.01 333.555Z" fill="#EA8949"/>
<path d="M400.54 266.135C400.54 349.295 333.14 416.685 249.99 416.685C208.43 416.685 170.81 399.855 143.56 372.605C141.86 370.905 140.21 369.165 138.57 367.375C136.96 365.585 135.37 363.775 133.83 361.925C132.31 360.045 130.81 358.165 129.36 356.225C127.93 354.305 126.52 352.335 125.16 350.325C108.94 326.295 99.46 297.325 99.46 266.135C99.46 264.905 99.48 263.675 99.5 262.445C99.52 261.705 99.54 260.995 99.59 260.255C99.61 259.095 99.68 257.935 99.75 256.765C99.84 255.225 99.95 253.685 100.11 252.135C100.22 250.775 100.38 249.405 100.56 248.045C100.58 247.775 100.6 247.485 100.65 247.195C100.81 245.895 100.99 244.605 101.19 243.305C101.46 241.565 101.75 239.815 102.08 238.095C102.28 236.995 102.5 235.905 102.73 234.805C102.86 234.175 103 233.555 103.15 232.925C103.64 230.665 104.2 228.405 104.83 226.195C105.03 225.435 105.23 224.675 105.48 223.915C105.7 223.115 105.93 222.325 106.2 221.525C106.78 219.605 107.41 217.725 108.08 215.845C108.42 214.885 108.75 213.945 109.11 213.005C110.18 210.165 111.32 207.395 112.55 204.665C113 203.685 113.44 202.695 113.91 201.715C114.29 200.885 114.69 200.065 115.12 199.235C116.24 196.935 117.44 194.675 118.7 192.485C119.39 191.235 120.11 189.985 120.85 188.775C121.59 187.545 122.33 186.315 123.11 185.135C123.18 185.005 123.24 184.885 123.31 184.795C124.07 183.635 124.81 182.495 125.59 181.375C126.42 180.165 127.24 178.985 128.12 177.795C129.82 175.425 131.61 173.125 133.46 170.865C134.38 169.725 135.32 168.605 136.28 167.515C137.24 166.415 138.2 165.325 139.19 164.255C140.18 163.185 141.18 162.135 142.21 161.085C143.1 160.165 144 159.255 144.94 158.355C146.26 157.055 147.6 155.805 148.96 154.555C149.88 153.725 150.82 152.925 151.73 152.115C152.85 151.155 153.97 150.215 155.08 149.295C156.22 148.375 157.36 147.465 158.52 146.595C159.68 145.705 160.84 144.825 162.03 143.975C163.04 143.235 164.06 142.525 165.09 141.825C167.21 140.345 169.38 138.945 171.57 137.625C174.12 136.035 176.73 134.545 179.39 133.155C180.22 132.705 181.07 132.265 181.92 131.835C182.26 131.635 182.59 131.475 182.93 131.325C183.67 130.945 184.41 130.585 185.17 130.225C186.15 129.735 187.14 129.285 188.12 128.865C189.1 128.415 190.09 127.995 191.09 127.565C191.69 127.275 192.3 127.025 192.9 126.785H192.92C192.99 126.115 193.01 125.425 193.01 124.725C193.01 112.875 183.4 103.265 171.55 103.265C170.83 103.265 170.14 103.305 169.45 103.375V83.3049H220.57V152.355C220.41 152.395 220.26 152.445 220.1 152.485C219.16 152.705 218.24 152.975 217.31 153.245C216.04 153.605 214.78 154.005 213.53 154.405C210.24 155.475 207 156.705 203.83 158.075C203.09 158.385 202.33 158.725 201.59 159.055C200.85 159.395 200.11 159.725 199.38 160.085C198.64 160.425 197.9 160.775 197.19 161.155C196.47 161.515 195.76 161.875 195.04 162.275C194.3 162.655 193.59 163.035 192.89 163.435C192.17 163.815 191.48 164.215 190.79 164.645C190.1 165.045 189.4 165.445 188.71 165.875C187.35 166.705 185.98 167.575 184.64 168.495C183.28 169.415 181.91 170.355 180.59 171.335C179.96 171.785 179.36 172.225 178.76 172.725C178.11 173.195 177.49 173.685 176.86 174.205C176.23 174.695 175.61 175.185 174.98 175.725C174.35 176.215 173.75 176.755 173.15 177.285C172.52 177.795 171.9 178.355 171.29 178.915C170.71 179.425 170.13 179.945 169.57 180.505C168.97 181.065 168.39 181.625 167.83 182.185C167.25 182.745 166.69 183.305 166.13 183.885C165.5 184.485 164.92 185.115 164.34 185.715C163.83 186.275 163.31 186.835 162.82 187.395C162.26 187.995 161.72 188.575 161.23 189.185C160.74 189.725 160.27 190.285 159.82 190.835C159.24 191.525 158.68 192.195 158.14 192.895C157.11 194.145 156.13 195.425 155.21 196.715C153.76 198.655 152.39 200.645 151.1 202.685C150.94 202.905 150.81 203.135 150.65 203.375C149.51 205.185 148.41 207.045 147.36 208.915C146.96 209.605 146.56 210.325 146.2 211.035C145.82 211.755 145.44 212.465 145.08 213.185C144.7 213.905 144.34 214.635 144.01 215.375C143.65 216.095 143.29 216.825 142.98 217.585C142.64 218.255 142.35 218.945 142.06 219.645C139.76 224.945 137.86 230.415 136.38 236.075C136.25 236.585 136.11 237.085 135.98 237.595C135.89 237.995 135.78 238.425 135.69 238.825C135.33 240.325 135 241.845 134.71 243.365C134.53 244.195 134.37 245.015 134.24 245.845C133.1 252.435 132.5 259.215 132.5 266.145C132.5 275.265 133.55 284.135 135.52 292.675C136.39 296.455 137.44 300.185 138.67 303.825C138.98 304.715 139.3 305.635 139.63 306.525C140.28 308.335 140.99 310.105 141.73 311.865C142.85 314.505 144.05 317.095 145.35 319.625C146.65 322.155 148.03 324.635 149.51 327.065C154.43 335.135 160.28 342.605 166.92 349.215C188.18 370.495 217.55 383.635 249.99 383.635C263.18 383.635 275.85 381.465 287.7 377.465C290.43 376.545 293.11 375.525 295.73 374.405H295.75C297.52 373.665 299.24 372.885 300.94 372.055C312.92 366.265 323.79 358.505 333.08 349.205C335.74 346.545 338.27 343.775 340.68 340.865C341.86 339.415 343.03 337.935 344.17 336.415C345.87 334.155 347.48 331.835 349 329.445C352.55 323.875 355.68 317.995 358.28 311.855C359.02 310.085 359.73 308.325 360.38 306.515C364.98 293.925 367.51 280.315 367.51 266.125C367.51 259.195 366.91 252.425 365.77 245.825C365.61 244.995 365.48 244.175 365.3 243.345C365.01 241.825 364.67 240.305 364.32 238.805C364.23 238.405 364.12 237.975 364.03 237.575C363.9 237.085 363.76 236.565 363.63 236.055C362.13 230.395 360.23 224.905 357.95 219.625C357.66 218.935 357.35 218.235 357.03 217.565C356.72 216.805 356.36 216.065 356 215.355C355.66 214.615 355.31 213.905 354.93 213.165C354.57 212.445 354.19 211.735 353.81 211.015C353.43 210.295 353.05 209.585 352.65 208.895C351.6 207.015 350.5 205.165 349.36 203.355C349.2 203.135 349.05 202.885 348.91 202.665C347.61 200.635 346.25 198.645 344.8 196.695C343.88 195.395 342.9 194.125 341.87 192.875C341.31 192.185 340.75 191.485 340.19 190.815C339.72 190.255 339.25 189.715 338.78 189.165C338.24 188.565 337.73 187.955 337.19 187.375C336.68 186.775 336.12 186.165 335.54 185.585C335.03 185.005 334.47 184.425 333.89 183.865C333.33 183.305 332.77 182.725 332.19 182.165C331.63 181.605 331.05 181.045 330.45 180.485C329.89 179.925 329.31 179.415 328.73 178.895C328.1 178.335 327.5 177.795 326.87 177.265C326.27 176.725 325.66 176.195 325.04 175.705C324.41 175.165 323.79 174.675 323.16 174.185C322.53 173.695 321.89 173.205 321.26 172.705C320.61 172.195 319.99 171.695 319.32 171.255C318.76 170.835 318.18 170.425 317.62 170.025C316.88 169.515 316.12 168.995 315.36 168.485C314.02 167.565 312.68 166.695 311.29 165.865C309.9 165.015 308.52 164.185 307.11 163.425C306.42 163.025 305.7 162.645 304.99 162.265C304.27 161.885 303.56 161.505 302.82 161.145C301.37 160.405 299.91 159.695 298.44 159.045C297.7 158.705 296.94 158.375 296.2 158.065C293.03 156.705 289.78 155.495 286.5 154.395C285.25 153.995 284 153.595 282.72 153.235C281.78 152.985 280.86 152.725 279.93 152.475C279.77 152.435 279.62 152.385 279.46 152.345V83.3049H330.58V103.405C329.89 103.335 329.19 103.295 328.48 103.295C316.63 103.295 307.02 112.905 307.02 124.755C307.02 125.445 307.04 126.145 307.11 126.815H307.13C307.73 127.065 308.34 127.305 308.94 127.595C309.95 128.015 310.93 128.445 311.91 128.895C312.89 129.345 313.88 129.785 314.86 130.255C315.6 130.615 316.36 130.975 317.1 131.355C317.44 131.535 317.77 131.695 318.11 131.865C318.96 132.285 319.81 132.735 320.64 133.185C323.3 134.595 325.92 136.065 328.46 137.655C331.88 139.735 335.21 141.965 338.45 144.335C339.48 145.075 340.51 145.835 341.51 146.615C342.61 147.445 343.68 148.295 344.73 149.145C346.03 150.175 347.28 151.245 348.51 152.315C349.16 152.875 349.81 153.435 350.43 154.015C351.75 155.175 353.05 156.385 354.32 157.615C355.19 158.445 356.04 159.265 356.87 160.115C357.54 160.785 358.21 161.475 358.86 162.175C361.14 164.565 363.35 167.025 365.45 169.555C366.08 170.295 366.7 171.055 367.31 171.815C370.69 175.975 373.82 180.305 376.7 184.825C377.1 185.455 377.5 186.095 377.88 186.725C379.78 189.745 381.55 192.805 383.2 195.955C383.6 196.695 383.98 197.435 384.36 198.195C384.54 198.555 384.72 198.915 384.9 199.265C385.3 200.095 385.7 200.915 386.11 201.745C386.58 202.725 387.03 203.715 387.47 204.695C388.43 206.845 389.35 209.005 390.2 211.195C390.54 212.045 390.85 212.875 391.16 213.725C392.12 216.295 393.02 218.915 393.82 221.545C394.09 222.345 394.31 223.135 394.54 223.935C394.76 224.695 394.99 225.455 395.19 226.215C395.82 228.425 396.37 230.665 396.87 232.945C397.03 233.575 397.16 234.195 397.29 234.825C397.51 235.925 397.74 237.015 397.94 238.115C398.28 239.835 398.57 241.575 398.83 243.325C399.03 244.625 399.21 245.915 399.37 247.215C399.41 247.505 399.44 247.775 399.46 248.065C399.64 249.425 399.8 250.795 399.91 252.155C400.07 253.695 400.18 255.235 400.27 256.785C400.34 257.945 400.4 259.105 400.43 260.275C400.47 261.015 400.5 261.725 400.52 262.465C400.54 263.695 400.56 264.925 400.56 266.155L400.54 266.135Z" fill="#EA8949"/>
</g>
<defs>
<clipPath id="clip0_11_9775">
<rect width="301.08" height="333.39" fill="white" transform="translate(99.46 83.3049)"/>
</clipPath>
</defs>
</svg>
