<svg width="500" height="500" viewBox="0 0 500 500" fill="none" xmlns="http://www.w3.org/2000/svg">
<rect width="500" height="500" fill="white"/>
<g clip-path="url(#clip0_11_9782)">
<path d="M406.269 321.022C378.552 379.602 318.865 420.107 249.729 419.997C204.509 419.926 163.27 402.293 132.467 373.611C156.635 378.788 181.718 381.502 207.424 381.502C281.035 381.502 349.447 359.214 406.269 321.022Z" fill="#005489"/>
<path d="M279.477 321.092C288.977 317.302 297.573 311.722 304.851 304.786C296.738 310.697 288.273 316.146 279.477 321.092Z" fill="#63CCF5"/>
<path d="M422.786 247.21C422.786 273.62 416.865 298.643 406.268 321.022C349.447 359.214 281.034 381.502 207.424 381.502C181.718 381.502 156.635 378.788 132.467 373.611C124.685 366.362 117.568 358.41 111.214 349.855C125.409 352.318 139.996 353.594 154.896 353.594C184.442 353.594 212.823 348.558 239.213 339.309V341.701C239.213 346.266 242.912 349.965 247.476 349.965H253.951C258.515 349.965 262.215 346.266 262.215 341.701V329.939C268.096 327.204 273.846 324.249 279.476 321.092C288.977 317.302 297.572 311.722 304.851 304.786C351.538 270.705 386.202 221.122 401.252 163.607C414.975 188.378 422.786 216.879 422.786 247.21Z" fill="#0095DA"/>
<path d="M401.252 163.607C386.202 221.122 351.538 270.705 304.851 304.786C316.392 293.777 324.636 279.341 327.923 263.105H340.811C345.376 263.105 349.075 259.405 349.075 254.841V248.376C349.075 243.812 345.376 240.113 340.811 240.113H329.2C327.833 224.61 322.022 214.195 313.034 205.388C300.498 193.103 293.722 176.083 293.722 158.53V80.0035C339.947 92.0575 378.632 122.76 401.252 163.607Z" fill="#63CCF5"/>
<path d="M239.213 325.998V339.309C212.823 348.558 184.443 353.594 154.896 353.594C139.997 353.594 125.409 352.318 111.214 349.854C89.6197 320.76 76.9224 284.709 77.2139 245.843C77.8372 166.221 132.316 99.4064 206.027 80.0739V158.821C206.027 176.646 198.698 193.546 186.172 206.223C177.646 214.859 172.137 225.083 170.81 240.113H160.616C156.052 240.113 152.352 243.812 152.352 248.376V254.841C152.352 259.405 156.052 263.104 160.616 263.104H172.077C178.742 295.959 205.655 321.454 239.213 325.998Z" fill="#63CCF5"/>
<path d="M279.476 321.092C273.847 324.249 268.096 327.204 262.215 329.939V325.797C268.217 324.872 273.997 323.274 279.476 321.092Z" fill="#63CCF5"/>
</g>
<defs>
<clipPath id="clip0_11_9782">
<rect width="345.573" height="339.993" fill="white" transform="translate(77.2139 80.0035)"/>
</clipPath>
</defs>
</svg>
