<svg width="500" height="500" viewBox="0 0 500 500" fill="none" xmlns="http://www.w3.org/2000/svg">
<rect width="500" height="500" fill="white"/>
<g clip-path="url(#clip0_11_9870)">
<path d="M258.813 340.865C258.709 340.865 258.598 340.865 258.494 340.865C254.991 340.769 251.621 339.151 249.484 336.531C246.879 333.34 246.649 329.792 246.627 326.437C246.56 315.171 246.582 303.727 246.604 292.654C246.612 287.029 246.627 281.403 246.627 275.777V166.568C246.627 165.336 247.621 164.342 248.853 164.342C250.085 164.342 251.08 165.336 251.08 166.568V275.77C251.08 281.396 251.072 287.029 251.057 292.654C251.035 303.72 251.013 315.157 251.08 326.4C251.094 329.272 251.243 331.625 252.935 333.703C254.241 335.306 256.416 336.338 258.613 336.397C260.475 336.457 262.13 335.789 263.266 334.534C265.003 332.62 264.899 329.451 264.802 326.385C264.78 325.651 264.758 324.931 264.758 324.241C264.758 323.009 265.752 322.014 266.984 322.014C268.216 322.014 269.211 323.009 269.211 324.241C269.211 324.886 269.233 325.554 269.255 326.237C269.374 329.814 269.515 334.275 266.568 337.525C264.617 339.678 261.871 340.85 258.82 340.85L258.813 340.865Z" fill="#3B3B40"/>
<path d="M387.988 174.821C387.921 174.917 387.847 175.014 387.765 175.11C381.628 183.096 371.972 188.239 361.114 188.239C350.256 188.239 340.593 183.103 334.456 175.11C334.136 174.702 333.832 174.287 333.543 173.856C333.469 173.76 333.394 173.656 333.328 173.552C333.276 173.485 333.231 173.411 333.179 173.337C333.127 173.411 333.083 173.478 333.031 173.552H277.465C277.42 173.5 277.383 173.441 277.346 173.381C277.331 173.366 277.324 173.344 277.309 173.329C277.257 173.403 277.205 173.478 277.153 173.552C276.797 174.086 276.418 174.606 276.025 175.11C269.939 183.022 260.41 188.143 249.671 188.232C249.574 188.232 249.47 188.232 249.374 188.232C238.516 188.232 228.868 183.089 222.723 175.103C222.33 174.598 221.951 174.079 221.595 173.544C221.558 173.5 221.528 173.455 221.498 173.411C221.476 173.381 221.461 173.351 221.439 173.322C221.387 173.396 221.335 173.47 221.283 173.544H166.036C165.985 173.633 165.933 173.715 165.888 173.804C165.881 173.789 165.866 173.774 165.858 173.76C165.539 174.22 165.213 174.665 164.871 175.103C158.726 183.089 149.071 188.232 138.22 188.232C127.37 188.232 117.714 183.089 111.577 175.103C111.495 175.014 111.421 174.917 111.361 174.821C111.606 174.39 111.859 173.967 112.111 173.544C118.494 162.739 126.116 152.749 134.777 143.776C138.584 139.835 142.584 136.087 146.777 132.547C149.583 130.18 152.47 127.909 155.438 125.734C181.741 106.483 214.158 95.0755 249.233 94.979H249.871C285.028 95.0235 317.534 106.438 343.889 125.734C346.857 127.909 349.752 130.18 352.557 132.547C356.75 136.08 360.758 139.828 364.565 143.776C364.573 143.776 364.573 143.784 364.573 143.784C373.241 152.764 380.863 162.739 387.238 173.544C387.498 173.967 387.743 174.39 387.988 174.814V174.821Z" fill="#DA2726"/>
<path d="M333.031 173.552C332.667 174.079 332.288 174.598 331.895 175.11C325.75 183.096 316.102 188.239 305.244 188.239C294.386 188.239 284.738 183.096 278.593 175.11C278.2 174.598 277.821 174.086 277.465 173.552H333.031Z" fill="#DA2726"/>
<path d="M333.543 173.856C333.468 173.76 333.394 173.656 333.327 173.552C333.275 173.485 333.231 173.411 333.179 173.337C333.127 173.411 333.082 173.478 333.03 173.552H277.465C277.42 173.5 277.383 173.44 277.346 173.381C273.991 144.889 264.321 118.335 249.76 95.157C249.797 95.0977 249.834 95.0457 249.871 94.9938C285.146 111.952 314.35 139.516 333.372 173.552C333.431 173.656 333.483 173.752 333.543 173.856Z" fill="#EEDD02"/>
<path d="M221.284 173.552C220.928 174.086 220.549 174.606 220.156 175.11C214.011 183.096 204.355 188.239 193.497 188.239C182.639 188.239 172.991 183.096 166.846 175.11C166.52 174.687 166.2 174.249 165.889 173.812C165.933 173.722 165.985 173.641 166.037 173.552H221.284Z" fill="#DA2726"/>
<path d="M249.671 95.0087V95.3056C234.925 118.417 225.054 144.934 221.499 173.418C221.477 173.389 221.462 173.359 221.44 173.329C221.388 173.403 221.336 173.478 221.284 173.552H166.037C184.977 139.561 214.077 112.004 249.234 94.9864C249.338 94.9345 249.441 94.8825 249.545 94.838C249.545 94.838 249.56 94.838 249.568 94.8454C249.605 94.89 249.634 94.9419 249.657 94.9864C249.664 94.9939 249.671 95.0013 249.671 95.0087Z" fill="#EEDD02"/>
<path d="M381.376 175.318C376.596 181.352 369.205 185.219 360.9 185.219C352.595 185.219 345.196 181.359 340.416 175.318H381.376Z" fill="#EEDD02"/>
<path d="M270.317 175.11C265.538 181.144 258.146 185.011 249.841 185.011C241.536 185.011 234.137 181.152 229.357 175.11H270.317Z" fill="#EEDD02"/>
<path d="M158.837 175.318C154.057 181.352 146.665 185.219 138.361 185.219C130.056 185.219 122.656 181.359 117.877 175.318H158.837Z" fill="#EEDD02"/>
<path d="M249.545 242.596C249.597 242.692 249.649 242.781 249.701 242.878C251.356 245.972 251.608 249.698 250.391 252.852C248.9 256.689 245.938 258.649 243.029 260.326C233.27 265.951 223.31 271.592 213.677 277.047C208.778 279.822 203.887 282.591 198.997 285.374L130.621 327.18C129.552 327.788 128.194 327.417 127.586 326.349C126.977 325.28 127.348 323.922 128.417 323.313L196.792 281.507C201.683 278.724 206.581 275.948 211.48 273.173C221.106 267.718 231.058 262.085 240.803 256.467C243.289 255.034 245.263 253.743 246.235 251.242C246.985 249.312 246.807 246.915 245.768 244.978C244.877 243.345 243.497 242.224 241.849 241.853C239.326 241.289 236.624 242.944 234.012 244.547C233.388 244.933 232.772 245.304 232.171 245.646C231.103 246.254 229.744 245.883 229.136 244.815C228.527 243.746 228.898 242.388 229.967 241.779C230.524 241.46 231.095 241.111 231.681 240.755C234.739 238.885 238.539 236.554 242.821 237.512C245.656 238.15 248.031 239.953 249.545 242.603V242.596Z" fill="#3B3B40"/>
<path d="M115.828 345.036L111.539 347.478C105.527 350.899 97.8086 348.777 94.3872 342.765C92.6803 339.759 92.3463 336.331 93.2072 333.214C94.0681 330.097 96.0942 327.321 99.1 325.614L103.39 323.172" fill="#3B3B40"/>
<path d="M220.504 367.984C218.158 376.816 219.16 386.53 224.036 395.102C229.588 404.854 238.976 411.059 249.218 412.84C248.973 412.84 248.736 412.84 248.491 412.825C235.941 412.617 223.487 410.933 211.412 407.845C206.106 406.487 200.866 404.862 195.715 402.969C192.272 401.7 188.865 400.312 185.511 398.813C157.672 386.323 133.158 365.772 115.844 338.23C144.951 356.05 183.811 367.115 220.496 367.991L220.504 367.984Z" fill="#05A3DE"/>
<path d="M118.195 334.438C144.319 335.047 169.798 330.393 194.037 320.574C191.484 329.569 192.426 339.537 197.414 348.302C201.295 355.13 207.055 360.206 213.682 363.256C179.854 361.282 144.846 350.751 118.203 334.445L118.195 334.438Z" fill="#05A3DE"/>
<path d="M115.947 329.918C128.571 307.401 145.396 288.112 166.014 272.542C163.735 281.477 164.789 291.274 169.71 299.92C174.571 308.462 182.304 314.326 191.002 316.982C167.016 326.49 141.797 330.839 115.947 329.918Z" fill="#05A3DE"/>
<path d="M137.388 228.279C136.431 235.908 137.848 243.909 141.945 251.108C146.962 259.925 155.051 265.884 164.098 268.415C142.873 284.29 125.543 303.95 112.511 326.957C112.051 295.111 121.231 258.804 137.388 228.279Z" fill="#05A3DE"/>
<path d="M114.589 203.023C119.591 211.825 127.659 217.785 136.683 220.316C118.664 251.783 108.118 290.339 108.028 324.322C93.8012 295.779 88.9029 264.786 92.3391 235.003C92.7622 231.344 93.3039 227.708 93.9719 224.101C94.9664 218.713 96.2429 213.369 97.794 208.114V208.107C100.941 197.383 105.201 186.992 110.544 177.129C108.734 185.657 109.936 194.859 114.589 203.031V203.023Z" fill="#05A3DE"/>
<path d="M248.341 242.513C248.289 242.61 248.237 242.699 248.186 242.796C246.53 245.89 246.278 249.616 247.495 252.77C248.987 256.607 251.948 258.566 254.858 260.244C264.617 265.869 274.577 271.51 284.21 276.965C289.108 279.74 293.999 282.509 298.89 285.292L359.235 319.016C360.304 319.624 361.662 319.253 362.271 318.184C362.879 317.116 362.508 315.758 361.44 315.149L301.094 281.425C296.203 278.642 291.305 275.866 286.407 273.091C276.781 267.636 266.829 262.003 257.084 256.385C254.598 254.952 252.624 253.661 251.651 251.16C250.902 249.23 251.08 246.833 252.119 244.896C253.01 243.263 254.39 242.142 256.038 241.771C258.561 241.207 261.262 242.862 263.875 244.465C264.498 244.851 265.114 245.222 265.715 245.564C266.784 246.172 268.142 245.801 268.751 244.733C269.359 243.664 268.988 242.306 267.92 241.697C267.363 241.378 266.792 241.029 266.205 240.673C263.148 238.803 259.348 236.472 255.065 237.43C252.23 238.068 249.855 239.871 248.341 242.521V242.513Z" fill="#3B3B40"/>
<path d="M384.172 345.036L388.462 347.478C394.473 350.899 402.192 348.777 405.613 342.765C407.32 339.759 407.654 336.33 406.793 333.213C405.932 330.096 403.906 327.321 400.9 325.614L396.611 323.172" fill="#3B3B40"/>
<path d="M279.49 367.984C281.835 376.815 280.833 386.53 275.957 395.102C270.406 404.854 261.017 411.059 250.775 412.84C251.02 412.84 251.258 412.84 251.503 412.825C264.053 412.617 276.506 410.933 288.581 407.845C293.888 406.487 299.127 404.862 304.278 402.969C307.722 401.7 311.128 400.312 314.483 398.813C342.321 386.322 366.835 365.772 384.15 338.23C355.042 356.05 316.182 367.115 279.497 367.991L279.49 367.984Z" fill="#DA2726"/>
<path d="M381.797 334.438C355.673 335.047 330.195 330.393 305.956 320.574C308.509 329.569 307.566 339.537 302.579 348.302C298.697 355.13 292.938 360.206 286.311 363.256C320.138 361.282 355.146 350.751 381.79 334.445L381.797 334.438Z" fill="#DA2726"/>
<path d="M384.045 329.918C371.421 307.401 354.596 288.112 333.979 272.542C336.257 281.477 335.203 291.274 330.283 299.92C325.422 308.462 317.688 314.325 308.99 316.982C332.977 326.489 358.196 330.838 384.045 329.918Z" fill="#DA2726"/>
<path d="M362.613 228.279C363.57 235.908 362.153 243.909 358.056 251.108C353.039 259.925 344.949 265.884 335.902 268.415C357.128 284.29 374.458 303.95 387.49 326.957C387.95 295.111 378.77 258.804 362.613 228.279Z" fill="#DA2726"/>
<path d="M385.405 203.023C380.403 211.825 372.335 217.785 363.311 220.316C381.33 251.783 391.876 290.339 391.965 324.322C406.2 295.786 411.098 264.786 407.662 235.01C407.239 231.352 406.697 227.715 406.029 224.108C405.035 218.72 403.758 213.376 402.207 208.122V208.114C399.061 197.39 394.801 187 389.457 177.136C391.268 185.664 390.066 194.867 385.412 203.038L385.405 203.023Z" fill="#DA2726"/>
<path d="M237.795 92.5151V87.5797C237.795 80.6627 243.458 75 250.375 75C253.833 75 256.98 76.4101 259.258 78.696C261.537 80.9818 262.954 84.1212 262.954 87.5797V92.5151" fill="#3B3B40"/>
<path d="M180.01 216.122H187.528V227.5H187.61C188.211 226.535 188.893 225.607 189.539 224.724L195.491 216.122H205.102L195.573 227.544L205.548 243.226H196.582L190.066 232.049L187.535 235.062V243.226H180.017V216.122H180.01Z" fill="#3B3B40"/>
<path d="M318.245 243.263C317.117 243.827 314.223 244.547 310.527 244.547C299.55 244.547 294.645 238.231 294.645 230.958C294.645 221.547 302.044 216.479 310.928 216.479C314.423 216.479 317.362 217.124 318.691 217.844L317.125 223.715C315.759 223.151 313.748 222.587 311.217 222.587C306.675 222.587 302.652 225.043 302.652 230.431C302.652 235.099 305.829 238.35 311.417 238.35C313.51 238.35 315.804 237.949 317.088 237.422L318.253 243.256L318.245 243.263Z" fill="#3B3B40"/>
</g>
<defs>
<clipPath id="clip0_11_9870">
<rect width="317.431" height="337.84" fill="white" transform="translate(91.2852 75)"/>
</clipPath>
</defs>
</svg>
