<svg width="500" height="500" viewBox="0 0 500 500" fill="none" xmlns="http://www.w3.org/2000/svg">
<rect width="500" height="500" fill="white"/>
<g clip-path="url(#clip0_11_7311)">
<path d="M125.202 260.291L125.144 293.034C125.124 305.218 134.996 315.109 147.189 315.109H221.953C192.504 325.68 170.1 332.539 167.855 333.239C170.469 332.763 199.102 327.467 236.314 317.703V344.684H127.262C107.15 344.684 90.8467 328.381 90.8467 308.269V247.204C90.8467 227.092 107.15 210.789 127.262 210.789H236.838V238.285H147.248C135.093 238.285 125.222 248.137 125.202 260.291Z" fill="#233D87"/>
<path d="M286.312 303.129L286.147 345.743H252.413V313.331C263.373 310.26 274.789 306.86 286.312 303.129Z" fill="#233D87"/>
<path d="M286.662 210.789L286.37 289.721C275.08 294.666 263.596 299.35 252.413 303.712V210.789H286.662Z" fill="#233D87"/>
<path d="M270.445 200.403C284.778 200.403 296.397 188.784 296.397 174.451C296.397 160.119 284.778 148.5 270.445 148.5C256.113 148.5 244.494 160.119 244.494 174.451C244.494 188.784 256.113 200.403 270.445 200.403Z" fill="url(#paint0_radial_11_7311)"/>
<path d="M252.413 303.712V313.331C246.913 314.876 241.531 316.323 236.313 317.703V315.109H221.953C231.514 311.669 241.822 307.851 252.413 303.712Z" fill="#666666"/>
<path d="M236.304 315.109V317.703C199.102 327.468 170.459 332.763 167.846 333.239C170.09 332.539 192.495 325.68 221.944 315.109H236.304Z" fill="white"/>
<path d="M286.36 289.721L286.302 303.119C274.779 306.85 263.363 310.251 252.403 313.321V303.702C263.577 299.35 275.071 294.657 286.36 289.711V289.721Z" fill="white"/>
<path d="M411.919 235.399C389.164 263.925 336.757 286.738 286.312 303.119L286.37 289.721C328.848 271.154 368.489 249.147 377.36 228.948C398.132 181.719 301.585 172.362 301.585 172.362C360.541 166.591 391.496 179.64 407.362 192.329C420.615 202.958 422.509 222.108 411.919 235.399Z" fill="url(#paint1_linear_11_7311)"/>
<path d="M197.936 290.226V280.18L191.057 280.219V286.039L187.802 284.057L175.852 276.76L175.395 276.488C174.22 275.682 173.433 274.302 173.433 272.757C173.433 270.309 175.473 268.249 177.921 268.249H197.936V261.322H177.921C171.655 261.322 166.544 266.432 166.544 272.699C166.544 275.808 167.778 278.616 169.76 280.676C167.778 282.735 166.544 285.543 166.544 288.652C166.544 294.919 171.655 300.03 177.921 300.03H197.936V297.455L201.152 299.418L204.368 294.161L197.936 290.226ZM177.97 293.093C175.521 293.093 173.481 291.033 173.481 288.584C173.481 286.651 174.734 284.96 176.444 284.339L190.785 293.093H177.97Z" fill="#233D87"/>
</g>
<defs>
<radialGradient id="paint0_radial_11_7311" cx="0" cy="0" r="1" gradientUnits="userSpaceOnUse" gradientTransform="translate(280.096 167.387) rotate(138.576) scale(24.5632)">
<stop stop-color="#B6BED5"/>
<stop offset="1" stop-color="#233D87"/>
</radialGradient>
<linearGradient id="paint1_linear_11_7311" x1="352.528" y1="237.038" x2="352.528" y2="303.119" gradientUnits="userSpaceOnUse">
<stop stop-color="#666666"/>
<stop offset="1" stop-color="#CCCCCC"/>
</linearGradient>
<clipPath id="clip0_11_7311">
<rect width="327.893" height="197.233" fill="white" transform="translate(90.8467 148.5)"/>
</clipPath>
</defs>
</svg>
