<svg width="500" height="500" viewBox="0 0 500 500" fill="none" xmlns="http://www.w3.org/2000/svg">
<rect width="500" height="500" fill="white"/>
<g clip-path="url(#clip0_11_9906)">
<path d="M250.006 429.585C349.185 429.585 429.586 349.184 429.586 250.005C429.586 150.826 349.185 70.425 250.006 70.425C150.826 70.425 70.4258 150.826 70.4258 250.005C70.4258 349.184 150.826 429.585 250.006 429.585Z" fill="#DD6E1D"/>
<path d="M349.386 191.085C348.196 187.875 346.486 185.045 344.846 182.315C344.356 181.515 343.876 180.715 343.416 179.905C343.266 179.655 312.846 126.975 312.846 126.975L309.306 120.835L275.196 179.915C274.806 180.595 274.406 181.275 274.006 181.955C271.816 185.655 269.556 189.485 268.326 193.985C267.336 197.615 266.836 201.375 266.836 205.175C266.836 228.595 285.886 247.645 309.306 247.645C332.726 247.645 351.776 228.595 351.776 205.175C351.776 200.155 350.946 195.285 349.386 191.095V191.085ZM309.296 239.455C290.396 239.455 275.006 224.075 275.006 205.165C275.006 202.095 275.406 199.055 276.206 196.135C277.136 192.695 279.026 189.495 281.036 186.115C281.456 185.415 281.866 184.715 282.276 184.015L309.296 137.215C329.986 173.045 334.996 181.715 336.376 183.985L336.316 184.015C336.806 184.855 337.316 185.705 337.826 186.555C339.346 189.075 340.786 191.455 341.716 193.945C342.946 197.255 343.586 201.135 343.586 205.185C343.586 224.085 328.206 239.475 309.296 239.475V239.455Z" fill="#137C9A"/>
<path d="M343.586 205.165C343.586 224.065 328.206 239.455 309.296 239.455C290.386 239.455 275.006 224.075 275.006 205.165C275.006 202.095 275.406 199.055 276.206 196.135C277.136 192.695 279.026 189.495 281.036 186.115C281.456 185.415 281.866 184.715 282.276 184.015L309.296 137.215C329.986 173.045 334.996 181.715 336.376 183.985L336.316 184.015C336.806 184.855 337.316 185.705 337.826 186.555C339.346 189.075 340.786 191.455 341.716 193.945C342.946 197.255 343.586 201.135 343.586 205.185V205.165Z" fill="#FAF69B"/>
<path d="M244.515 136.865C241.135 136.295 237.835 136.355 234.645 136.415C233.705 136.435 232.785 136.455 231.845 136.455C231.555 136.455 170.725 136.475 170.725 136.475H163.635L197.755 195.545C198.145 196.225 198.535 196.915 198.925 197.595C201.035 201.345 203.225 205.215 206.505 208.525C209.155 211.195 212.165 213.505 215.455 215.405C235.745 227.115 261.765 220.135 273.465 199.845C285.175 179.555 278.195 153.535 257.905 141.835C253.555 139.325 248.925 137.615 244.515 136.865ZM266.375 195.755C256.925 212.125 235.915 217.765 219.535 208.315C216.875 206.785 214.445 204.915 212.315 202.755C209.805 200.225 207.975 196.995 206.045 193.565C205.655 192.855 205.245 192.145 204.845 191.445L177.815 144.645C219.185 144.635 229.205 144.625 231.855 144.565V144.635C232.835 144.635 233.815 144.615 234.805 144.595C237.745 144.535 240.535 144.475 243.145 144.925C246.625 145.515 250.305 146.895 253.815 148.915C270.185 158.365 275.825 179.375 266.375 195.755Z" fill="#137C9A"/>
<path d="M253.814 148.925C270.184 158.375 275.824 179.385 266.374 195.765C256.924 212.135 235.914 217.775 219.534 208.325C216.874 206.795 214.444 204.925 212.314 202.765C209.804 200.235 207.974 197.005 206.044 193.575C205.654 192.865 205.244 192.155 204.844 191.455L177.814 144.655C219.184 144.645 229.204 144.635 231.854 144.575V144.645C232.834 144.645 233.814 144.625 234.804 144.605C237.744 144.545 240.534 144.485 243.144 144.935C246.624 145.525 250.304 146.905 253.814 148.925Z" fill="#FAF69B"/>
<path d="M145.135 200.605C142.955 203.245 141.355 206.135 139.815 208.925C139.365 209.755 138.915 210.555 138.445 211.365C138.305 211.615 107.915 264.315 107.915 264.315L104.375 270.455L172.595 270.425C173.375 270.425 174.165 270.425 174.955 270.435C179.255 270.485 183.705 270.525 188.215 269.335C191.845 268.375 195.355 266.925 198.645 265.025C218.925 253.305 225.885 227.275 214.165 206.995C202.445 186.715 176.415 179.755 156.135 191.475C151.795 193.985 147.985 197.135 145.135 200.595V200.605ZM207.075 211.095C216.535 227.465 210.915 248.485 194.545 257.945C191.885 259.485 189.055 260.655 186.125 261.425C182.685 262.335 178.965 262.305 175.025 262.265C174.215 262.255 173.395 262.245 172.585 262.245L118.545 262.275C139.215 226.435 144.205 217.755 145.485 215.425L145.545 215.455C146.025 214.605 146.505 213.745 146.985 212.885C148.405 210.305 149.745 207.865 151.435 205.825C153.685 203.105 156.715 200.605 160.225 198.575C176.595 189.115 197.615 194.735 207.075 211.105V211.095Z" fill="#137C9A"/>
<path d="M160.235 198.565C176.605 189.105 197.625 194.725 207.085 211.095C216.545 227.465 210.925 248.485 194.555 257.945C191.895 259.485 189.065 260.655 186.135 261.425C182.695 262.335 178.975 262.305 175.035 262.265C174.225 262.255 173.405 262.245 172.595 262.245L118.555 262.275C139.225 226.435 144.215 217.755 145.495 215.425L145.555 215.455C146.035 214.605 146.515 213.745 146.995 212.885C148.415 210.305 149.755 207.865 151.445 205.825C153.695 203.105 156.725 200.605 160.235 198.575V198.565Z" fill="#FAF69B"/>
<path d="M150.685 318.525C151.885 321.735 153.585 324.565 155.235 327.295C155.725 328.095 156.205 328.895 156.665 329.695C156.815 329.945 187.275 382.605 187.275 382.605L190.825 388.735L224.885 329.635C225.275 328.955 225.675 328.275 226.075 327.595C228.265 323.895 230.525 320.065 231.745 315.565C232.735 311.935 233.225 308.175 233.225 304.375C233.205 280.955 214.145 261.915 190.725 261.935C167.305 261.955 148.265 281.015 148.285 304.435C148.285 309.455 149.115 314.325 150.685 318.515V318.525ZM190.725 270.125C209.625 270.115 225.025 285.485 225.035 304.385C225.035 307.455 224.635 310.495 223.835 313.425C222.905 316.865 221.015 320.065 219.015 323.455C218.595 324.155 218.185 324.855 217.785 325.555L190.795 372.375C170.075 336.565 165.055 327.895 163.685 325.625L163.745 325.595C163.255 324.755 162.745 323.905 162.235 323.055C160.715 320.535 159.265 318.155 158.345 315.665C157.115 312.355 156.465 308.485 156.465 304.435C156.455 285.535 171.825 270.135 190.725 270.125Z" fill="#137C9A"/>
<path d="M156.465 304.435C156.455 285.535 171.825 270.135 190.725 270.125C209.625 270.115 225.025 285.485 225.035 304.385C225.035 307.455 224.635 310.495 223.835 313.425C222.905 316.865 221.015 320.065 219.015 323.455C218.595 324.155 218.185 324.855 217.785 325.555L190.795 372.375C170.075 336.565 165.055 327.895 163.685 325.625L163.745 325.595C163.255 324.755 162.745 323.905 162.235 323.055C160.715 320.535 159.265 318.155 158.345 315.665C157.115 312.355 156.465 308.485 156.465 304.435Z" fill="#FAF69B"/>
<path d="M255.595 372.665C258.975 373.235 262.275 373.165 265.465 373.105C266.405 373.075 267.325 373.065 268.265 373.065C268.555 373.065 329.385 372.995 329.385 372.995H336.475L302.305 313.945C301.915 313.265 301.525 312.575 301.135 311.895C299.025 308.145 296.835 304.275 293.545 300.965C290.895 298.295 287.885 295.985 284.595 294.095C264.295 282.405 238.285 289.405 226.595 309.695C214.905 329.995 221.905 356.005 242.195 367.695C246.545 370.195 251.175 371.915 255.595 372.655V372.665ZM233.685 313.785C243.125 297.405 264.135 291.755 280.515 301.185C283.175 302.715 285.615 304.585 287.745 306.735C290.255 309.255 292.085 312.495 294.025 315.925C294.415 316.635 294.825 317.335 295.235 318.045L322.305 364.815C280.935 364.855 270.915 364.875 268.265 364.935V364.865C267.285 364.865 266.305 364.885 265.315 364.905C262.375 364.965 259.585 365.025 256.975 364.585C253.495 363.995 249.815 362.625 246.305 360.605C229.925 351.165 224.275 330.155 233.705 313.775L233.685 313.785Z" fill="#137C9A"/>
<path d="M246.275 360.615C229.895 351.175 224.245 330.165 233.675 313.785C243.115 297.405 264.125 291.755 280.505 301.185C283.165 302.715 285.605 304.585 287.735 306.735C290.245 309.255 292.075 312.495 294.015 315.925C294.405 316.635 294.815 317.335 295.225 318.045L322.295 364.815C280.925 364.855 270.905 364.875 268.255 364.935V364.865C267.275 364.865 266.295 364.885 265.305 364.905C262.365 364.965 259.575 365.025 256.965 364.585C253.485 363.995 249.805 362.625 246.295 360.605L246.275 360.615Z" fill="#FAF69B"/>
<path d="M354.916 308.855C357.096 306.215 358.686 303.325 360.236 300.525C360.686 299.695 361.136 298.885 361.596 298.085C361.736 297.835 392.086 245.115 392.086 245.115L395.626 238.975L327.406 239.065C326.626 239.065 325.836 239.065 325.046 239.055C320.746 239.015 316.296 238.975 311.786 240.165C308.156 241.125 304.646 242.575 301.356 244.485C281.086 256.225 274.146 282.255 285.886 302.525C297.626 322.795 323.656 329.735 343.926 317.995C348.266 315.485 352.066 312.325 354.916 308.865V308.855ZM292.966 298.405C283.496 282.045 289.096 261.025 305.456 251.545C308.116 250.005 310.946 248.825 313.876 248.055C317.316 247.145 321.036 247.175 324.966 247.205C325.776 247.215 326.596 247.215 327.406 247.225L381.446 247.155C360.806 283.015 355.816 291.695 354.546 294.025L354.486 293.995C354.006 294.845 353.526 295.705 353.046 296.565C351.626 299.145 350.286 301.585 348.596 303.635C346.346 306.355 343.316 308.855 339.816 310.885C323.456 320.355 302.436 314.755 292.956 298.395L292.966 298.405Z" fill="#137C9A"/>
<path d="M339.826 310.895C323.466 320.365 302.446 314.765 292.966 298.405C283.496 282.045 289.096 261.025 305.456 251.545C308.116 250.005 310.946 248.825 313.876 248.055C317.316 247.145 321.036 247.175 324.966 247.205C325.776 247.215 326.596 247.215 327.406 247.225L381.446 247.155C360.806 283.015 355.816 291.695 354.546 294.025L354.486 293.995C354.006 294.845 353.526 295.705 353.046 296.565C351.626 299.145 350.286 301.585 348.596 303.635C346.346 306.355 343.316 308.855 339.816 310.885L339.826 310.895Z" fill="#FAF69B"/>
<path d="M316.086 111.255C316.086 111.255 316.086 111.275 316.086 111.285L316.106 111.255H316.086Z" fill="#2D2D2D"/>
</g>
<defs>
<clipPath id="clip0_11_9906">
<rect width="359.15" height="359.15" fill="white" transform="translate(70.4258 70.425)"/>
</clipPath>
</defs>
</svg>
