<svg width="500" height="500" viewBox="0 0 500 500" fill="none" xmlns="http://www.w3.org/2000/svg">
<rect width="500" height="500" fill="white"/>
<g clip-path="url(#clip0_11_7325)">
<path d="M178.95 178.77C164.27 178.77 152.37 190.67 152.37 205.35H261.45C276.13 205.35 288.03 193.45 288.03 178.77H178.95Z" fill="#A5B506"/>
<path d="M160.931 225.5C146.251 225.5 134.351 237.4 134.351 252.08H261.451C276.131 252.08 288.031 240.18 288.031 225.5H160.931Z" fill="#A5B506"/>
<path d="M260.32 273.35H142.79C142.79 288.03 154.69 299.93 169.37 299.93H286.9C286.9 285.25 275 273.35 260.32 273.35Z" fill="#A5B506"/>
<path d="M177.13 320.63C177.13 335.31 189.03 347.21 203.71 347.21H362.19C360.53 349.05 358.81 350.85 357.05 352.61C329.64 380.02 293.2 395.11 254.43 395.11C215.66 395.11 179.23 380.02 151.82 352.61C124.41 325.2 109.31 288.76 109.31 249.99C109.31 211.22 124.4 174.79 151.82 147.37C179.23 119.96 215.67 104.87 254.43 104.87C293.19 104.87 329.64 119.96 357.05 147.37C363.64 153.96 369.52 161.08 374.65 168.63H328.89V155.02C328.89 141.4 317.85 130.35 304.22 130.35H260.56C245.88 130.35 233.98 142.25 233.98 156.93H302.31V170.54C302.31 184.16 313.35 195.21 326.98 195.21H417.25C414.18 186.04 410.33 177.15 405.72 168.63C397.88 154.08 387.86 140.59 375.84 128.58C343.43 96.16 300.31 78.3 254.44 78.3C208.57 78.3 165.46 96.16 133.03 128.59C100.6 161.02 82.7402 204.14 82.7402 250C82.7402 295.86 100.6 338.98 133.03 371.41C165.46 403.84 208.58 421.7 254.44 421.7C300.3 421.7 343.43 403.84 375.85 371.41C383.37 363.89 390.11 355.79 396.03 347.21C401.85 338.78 406.86 329.88 411.04 320.63H177.13Z" fill="#A5B506"/>
</g>
<defs>
<clipPath id="clip0_11_7325">
<rect width="334.52" height="343.4" fill="white" transform="translate(82.7402 78.3)"/>
</clipPath>
</defs>
</svg>
