<svg width="500" height="500" viewBox="0 0 500 500" fill="none" xmlns="http://www.w3.org/2000/svg">
<rect width="500" height="500" fill="white"/>
<g clip-path="url(#clip0_11_9671)">
<path d="M123.93 210.095H79.0996V214.385C84.1896 214.385 86.5696 218.205 86.5696 222.655V302.145C86.5696 307.075 83.8696 309.455 79.0996 310.255V314.545H122.02C155.56 314.545 173.37 297.375 173.37 264.625C173.37 227.585 151.27 210.095 123.93 210.095ZM123.29 304.205C115.5 304.205 113.59 301.345 113.59 296.415V227.585C113.59 222.185 115.82 220.435 121.7 220.435C134.74 220.435 144.59 241.735 144.59 268.445C144.59 293.565 134.57 304.215 123.29 304.215V304.205Z" fill="#AC0208"/>
<path d="M242.57 305.195L228.21 249.445C227.99 248.445 227.65 247.105 227.65 246.325C227.65 244.875 228.65 244.435 229.99 244.325V241.435H200.5V244.325C201.5 244.435 202.61 244.775 202.61 246.215C202.61 246.775 202.61 247.325 202.17 248.995L186.37 302.635C184.59 308.645 183.14 310.875 179.47 311.535V314.535H199.5V311.535C196.16 311.425 195.05 309.755 195.05 307.415C195.05 305.855 195.49 303.295 195.72 302.625L200.5 284.935C210.52 284.935 222.65 293.395 222.65 305.855C222.65 311.195 221.43 311.305 219.09 311.535V314.535H248.02V311.535C244.35 310.975 243.68 309.425 242.57 305.195ZM202.18 278.485L209.41 251.105L217.87 284.375C214.31 280.705 207.19 278.585 202.18 278.475V278.485Z" fill="#AC0208"/>
<path d="M313.799 305.195L299.439 249.445C299.219 248.445 298.879 247.105 298.879 246.325C298.879 244.875 299.879 244.435 301.219 244.325V241.435H271.729V244.325C272.729 244.435 273.839 244.775 273.839 246.215C273.839 246.775 273.839 247.325 273.399 248.995L257.599 302.635C255.819 308.645 254.369 310.875 250.699 311.535V314.535H270.729V311.535C267.389 311.425 266.279 309.755 266.279 307.415C266.279 305.855 266.719 303.295 266.949 302.625L271.729 284.935C281.749 284.935 293.879 293.395 293.879 305.855C293.879 311.195 292.659 311.305 290.319 311.535V314.535H319.249V311.535C315.579 310.975 314.909 309.425 313.799 305.195ZM273.399 278.485L280.629 251.105L289.089 284.375C285.529 280.705 278.409 278.585 273.399 278.475V278.485Z" fill="#AC0208"/>
<path d="M411.52 296.735C406.91 277.345 396.1 259.375 388.95 250.155C400.87 243.005 408.03 234.415 408.03 225.835C408.03 220.115 405.17 215.975 401.83 213.435C397.38 209.935 390.07 210.095 384.98 210.095H323.3V214.385C328.39 214.385 330.77 218.355 330.77 222.815V302.145C330.77 307.075 328.07 309.455 323.3 310.255V314.545H364.95V310.255C359.07 309.305 357.8 305.805 357.8 302.305V263.035L365.91 260.175C380.85 284.495 384.19 301.035 384.19 305.795C384.19 307.385 383.55 310.085 379.9 310.245V314.535H420.91V310.245C416.14 309.455 413.92 306.905 411.53 296.735H411.52ZM357.78 252.545V227.585C357.78 222.025 360.32 219.315 367.64 219.315C376.54 219.315 379.88 224.405 379.88 229.805C379.88 237.435 372.89 248.085 357.78 252.535V252.545Z" fill="#AC0208"/>
<path d="M252.86 240.055C267.937 240.055 280.16 227.832 280.16 212.755C280.16 197.678 267.937 185.455 252.86 185.455C237.782 185.455 225.56 197.678 225.56 212.755C225.56 227.832 237.782 240.055 252.86 240.055Z" fill="#AC0208"/>
</g>
<defs>
<clipPath id="clip0_11_9671">
<rect width="341.8" height="129.09" fill="white" transform="translate(79.0996 185.455)"/>
</clipPath>
</defs>
</svg>
