<svg width="500" height="500" viewBox="0 0 500 500" fill="none" xmlns="http://www.w3.org/2000/svg">
<rect width="500" height="500" fill="white"/>
<g clip-path="url(#clip0_11_9708)">
<path d="M291.975 190.615C283.525 187.365 275.755 181.335 270.435 174.015L265.495 165.525C265.425 165.405 265.235 165.455 265.245 165.595C265.325 167.705 265.005 169.995 265.215 172.025C265.245 172.325 265.865 172.885 265.695 173.515C265.675 173.565 265.625 173.605 265.565 173.615C263.335 173.815 261.425 172.405 259.595 171.365C259.585 171.365 259.575 171.355 259.565 171.345C259.395 171.155 257.605 169.225 256.915 168.495C256.825 168.405 256.675 168.475 256.685 168.595C257.355 176.465 256.585 183.845 253.835 191.305C252.675 194.465 250.165 197.225 250.815 200.965C250.815 201.025 250.865 201.065 250.925 201.075C252.435 201.355 254.185 201.915 255.525 202.745C255.655 202.825 255.775 202.905 255.895 202.985C256.775 203.595 258.055 205.435 258.305 205.605C258.315 205.615 258.325 205.625 258.345 205.635C258.565 205.965 258.765 206.255 258.925 206.495C258.925 206.495 258.925 206.505 258.935 206.515C258.975 206.605 258.945 206.695 258.885 206.745C258.825 206.805 258.735 206.835 258.645 206.775C257.315 205.985 253.875 204.245 243.935 204.875C243.445 204.905 242.935 204.945 242.415 204.985C242.595 204.885 242.785 204.745 242.995 204.565C243.405 204.215 243.805 203.085 244.295 202.485C244.745 201.935 245.775 201.675 246.065 201.105C247.455 198.355 244.155 194.405 242.915 192.085C242.915 192.085 242.915 192.075 242.915 192.065L240.655 185.905C240.605 185.765 240.415 185.795 240.395 185.935C239.735 192.105 233.135 195.115 232.775 200.945C232.775 201.025 232.835 201.085 232.915 201.085C234.835 200.995 237.075 201.555 238.755 202.635H238.765C239.505 202.995 240.425 204.065 241.165 205.075C241.345 205.315 241.505 205.545 241.655 205.765C241.725 205.865 241.795 205.965 241.855 206.065C241.975 206.245 242.085 206.405 242.175 206.545C242.195 206.575 242.195 206.605 242.195 206.635C242.195 206.665 242.175 206.695 242.155 206.715C242.115 206.755 242.055 206.765 241.995 206.735C240.695 205.995 236.835 204.375 229.115 205.645C228.725 205.715 228.325 205.785 227.915 205.865C227.675 205.915 227.435 205.955 227.185 206.015C226.965 206.065 226.735 206.105 226.505 206.165C226.085 206.255 225.645 206.365 225.205 206.475C225.145 206.495 225.075 206.475 225.045 206.415C223.675 204.065 227.875 202.135 228.175 201.255C229.275 198.055 225.785 193.635 226.645 190.095C226.685 189.955 226.495 189.875 226.405 189.985C224.915 191.945 223.805 194.225 221.715 195.695C216.955 199.025 204.315 195.755 199.525 192.415C199.445 192.365 199.455 192.245 199.525 192.195C200.635 191.495 207.695 189.075 209.025 188.425C217.315 184.395 224.905 177.365 227.805 168.435C228.055 167.665 230.225 160.265 228.555 160.095C228.505 160.095 228.455 160.115 228.425 160.165C226.975 162.535 226.415 165.335 224.835 167.715C222.605 171.065 218.285 174.385 214.435 175.795C214.345 175.825 214.245 175.745 214.255 175.655C214.375 174.645 215.865 170.265 214.605 169.175C214.555 169.125 214.465 169.145 214.415 169.205C207.445 178.455 197.095 186.115 186.195 190.155C186.075 190.205 185.975 190.075 186.025 189.965C190.595 181.225 193.845 172.015 194.855 162.145C194.865 162.035 194.755 161.955 194.655 162.015L191.005 164.045C190.915 164.095 190.815 164.045 190.805 163.945C189.735 153.335 193.205 140.995 200.515 133.035C206.845 126.145 215.635 124.005 220.865 133.185C220.895 133.235 220.885 133.305 220.845 133.345C214.165 140.285 219.025 151.235 229.035 147.495C229.105 147.465 229.135 147.385 229.115 147.315C226.965 141.465 226.905 135.295 230.885 130.185C230.925 130.135 230.925 130.055 230.885 130.015L227.275 126.205C227.185 126.105 227.275 125.945 227.415 125.985C232.005 127.415 233.535 125.015 237.185 123.235C240.195 121.775 244.705 120.015 247.635 122.445C248.665 123.305 248.715 124.405 249.475 125.125C249.965 125.595 250.785 125.515 251.285 126.125C252.145 127.175 252.815 131.495 251.285 130.995C248.035 128.395 244.485 130.805 243.225 134.165C243.185 134.255 243.275 134.355 243.365 134.345C250.895 133.615 254.745 140.795 255.755 147.305C255.765 147.385 255.845 147.435 255.915 147.415C261.855 146.195 261.725 137.355 257.705 133.695C257.655 133.655 257.645 133.595 257.675 133.535C259.345 130.155 263.575 127.475 267.275 127.165C282.915 125.835 292.095 151.165 290.075 163.925C290.065 164.015 289.955 164.065 289.875 164.015L286.185 161.965C286.095 161.915 285.985 161.975 285.985 162.085C285.725 171.855 288.685 181.415 292.185 190.415C292.235 190.525 292.125 190.635 292.015 190.595L291.975 190.615Z" fill="#171D64"/>
<path d="M334.396 242.725C333.166 242.845 332.066 242.725 330.866 242.425C324.886 240.955 315.976 235.785 309.716 233.375C267.266 216.985 225.386 217.085 182.766 232.935C175.736 235.545 166.566 240.755 159.796 242.435C158.596 242.725 157.496 242.855 156.266 242.735C173.746 222.855 198.726 210.405 224.816 206.225C224.856 206.225 224.886 206.205 224.916 206.195C225.356 206.085 225.796 205.975 226.216 205.885C226.446 205.835 226.676 205.785 226.896 205.735C227.146 205.685 227.386 205.635 227.626 205.585C228.036 205.505 228.436 205.435 228.826 205.365C236.546 204.095 240.416 205.705 241.706 206.455C241.766 206.485 241.826 206.475 241.866 206.435C241.906 206.395 241.926 206.335 241.886 206.265C241.796 206.125 241.686 205.965 241.566 205.785C241.506 205.695 241.436 205.595 241.366 205.485C241.216 205.265 241.046 205.035 240.876 204.795C241.206 204.985 241.616 205.005 242.136 204.715C242.656 204.665 243.166 204.635 243.656 204.605C253.596 203.975 257.036 205.725 258.366 206.505C258.456 206.555 258.556 206.535 258.606 206.475C258.666 206.425 258.696 206.325 258.656 206.245C258.656 206.245 258.656 206.235 258.646 206.225C258.486 205.985 258.286 205.685 258.066 205.365C258.066 205.365 258.066 205.345 258.056 205.345C260.246 205.935 264.296 205.905 266.846 206.365C292.836 211.125 316.816 222.815 334.396 242.735V242.725Z" fill="#ED1B2F"/>
<path d="M241.915 206.355C241.915 206.355 241.895 206.415 241.875 206.435C241.895 206.415 241.905 206.385 241.915 206.355Z" fill="#ED1B2F"/>
<path d="M241.896 206.265C241.896 206.265 241.916 206.325 241.916 206.355C241.916 206.325 241.916 206.295 241.896 206.265C241.806 206.125 241.696 205.955 241.576 205.785C241.696 205.965 241.806 206.125 241.896 206.265Z" fill="#ED1B2F"/>
<path d="M258.626 206.465C258.566 206.525 258.476 206.555 258.386 206.495C257.056 205.705 253.616 203.965 243.676 204.595C253.856 203.905 257.496 205.625 258.636 206.465H258.626Z" fill="#ED1B2F"/>
<path d="M103.006 260.595C95.0856 256.685 77.8256 256.265 68.9956 257.135C68.3856 257.195 67.8156 257.135 67.5156 257.825C68.4456 262.315 71.6856 265.485 74.1856 269.115L74.6456 310.795H93.8156C94.4256 310.795 99.0056 309.525 99.8956 309.215C120.426 301.935 122.406 270.195 103.006 260.605V260.595ZM97.3056 297.595C96.2356 298.115 92.5356 299.525 91.5756 299.525H85.0356V268.875H92.4756C93.3556 268.875 96.9756 270.505 97.9656 271.055C107.696 276.505 107.356 292.715 97.3156 297.595H97.3056Z" fill="#171D64"/>
<path d="M306.745 255.525C271.415 256.085 276.665 318.645 311.875 311.035C340.475 304.855 336.595 255.055 306.745 255.525ZM307.115 300.005C290.575 300.345 289.655 269.295 305.435 267.185C323.365 264.785 325.015 299.635 307.115 300.005Z" fill="#171D64"/>
<path d="M219.405 257.605V310.785L216.905 310.365L187.395 283.075L186.045 282.405V310.795H174.775V257.615L177.285 258.045C186.875 266.095 195.435 275.465 204.985 283.535C205.825 284.245 207.065 285.345 208.155 285.555V257.615H219.425L219.405 257.605Z" fill="#171D64"/>
<path d="M272.616 281.045V306.055C249.846 321.085 224.906 304.355 229.916 277.345C233.666 257.115 255.356 250.665 272.176 260.305V273.375C269.636 270.955 266.636 269.125 263.256 268.095C233.726 259.105 233.536 307.175 261.806 299.525V292.085C261.806 289.525 257.846 283.385 256.396 281.045H272.626H272.616Z" fill="#171D64"/>
<path d="M419.856 299.525L420.536 300.205V310.795H388.066V257.615H422.786C422.846 260.385 421.136 264.465 419.136 266.365C418.786 266.705 415.996 268.435 415.796 268.435H399.336V278.355H417.376V289.175H399.336V299.545H419.856V299.525Z" fill="#171D64"/>
<path d="M144.966 258.325C144.096 257.115 141.936 257.635 140.566 257.685L116.146 311.235C124.176 310.955 130.816 306.375 133.346 298.685L133.956 298.575C137.886 299.135 141.846 299.585 145.586 300.975C153.156 303.785 159.256 310.875 168.006 311.235L144.976 258.315L144.966 258.325ZM137.786 288.705C137.106 288.055 142.146 278.715 142.306 276.985L149.066 291.855C145.356 290.725 141.756 288.815 137.796 288.705H137.786Z" fill="#171D64"/>
<path d="M379.046 257.605V268.425H363.716V310.795H352.436L351.986 268.425H336.656V257.605H379.046Z" fill="#171D64"/>
<path d="M168.993 354.864C168.993 359.088 167.341 362.346 164.047 364.639C161.15 366.687 157.503 367.716 153.126 367.716C147.819 367.716 143.631 366.687 140.572 364.639V354.738C141.817 356.11 143.568 357.292 145.824 358.303C148.081 359.314 150.274 359.81 152.404 359.81C156.231 359.81 158.135 358.357 158.135 355.451C158.135 353.637 156.366 351.777 152.846 349.882C150.03 348.357 147.873 347.156 146.384 346.272C142.151 343.736 140.039 340.261 140.039 335.838C140.039 335.432 140.057 335.053 140.102 334.692C140.346 331.037 142.052 328.203 145.229 326.19C148.09 324.385 151.664 323.474 155.969 323.474C160.798 323.474 164.543 324.457 167.197 326.434V335.55C164.218 332.896 160.698 331.569 156.637 331.569C152.936 331.569 151.086 332.68 151.086 334.891C151.086 336.705 152.918 338.636 156.574 340.685C158.18 341.57 160.373 342.815 163.153 344.431C167.052 346.886 169.011 350.369 169.011 354.873L168.993 354.864Z" fill="#171D64"/>
<path d="M214.68 349.674C214.68 355.469 212.956 359.927 209.517 363.041C206.079 366.164 201.277 367.716 195.122 367.716C188.966 367.716 184.156 366.155 180.699 363.041C177.242 359.918 175.51 355.469 175.51 349.674V334.584C175.51 329.674 174.183 326.777 171.529 325.892V324.566H186.439V349.918C186.439 352.454 187.062 354.548 188.308 356.2C189.833 358.249 192.125 359.277 195.185 359.277C197.884 359.277 200.023 358.465 201.611 356.832C203.2 355.198 203.994 352.896 203.994 349.918V324.566H214.68V349.674Z" fill="#171D64"/>
<path d="M260.971 364.332C256.666 366.669 251.251 367.843 244.734 367.843C237.532 367.843 231.738 365.992 227.351 362.292C222.685 358.348 220.348 352.815 220.348 345.694C220.348 339.052 222.721 333.663 227.469 329.521C232.054 325.495 237.812 323.483 244.734 323.483C251.657 323.483 256.278 324.548 259.337 326.678V335.667C256.278 333.014 252.018 331.687 246.539 331.687C242.397 331.687 238.922 332.986 236.124 335.577C233.326 338.176 231.927 341.543 231.927 345.685C231.927 349.828 233.299 353.14 236.034 355.731C238.769 358.33 242.207 359.62 246.35 359.62C247.722 359.62 249.085 359.503 250.456 359.259V352.202H243.994V344.774H260.953V364.323L260.971 364.332Z" fill="#171D64"/>
<path d="M308.345 366.76H296.468L293.002 357.707H276.657L273.399 366.76H262.902L279.744 324.575H290.971L308.354 366.76H308.345ZM290.258 350.577L285.565 338.393C285.204 337.382 284.906 336.19 284.672 334.819H284.554C284.392 335.866 284.094 337.048 283.661 338.384L279.256 350.577H290.258Z" fill="#171D64"/>
<path d="M350.295 366.76H338.67L333.571 358.014C331.396 354.268 329.627 351.813 328.264 350.649C327.334 349.882 326.251 349.503 325.006 349.503H323.137V366.76H312.217V334.593C312.217 329.683 310.89 326.786 308.236 325.901V324.575H329.175C333.435 324.575 336.856 325.694 339.437 327.923C342.009 330.152 343.3 333.185 343.3 337.003C343.3 339.051 342.722 340.965 341.576 342.734C340.43 344.503 338.887 345.793 336.955 346.597C338.399 347.562 340.412 350.135 342.993 354.323L344.446 356.678L350.304 366.76H350.295ZM332.244 337.301C332.244 335.568 331.72 334.223 330.674 333.257C329.627 332.291 328.183 331.813 326.332 331.813H323.137V342.734H326.332C328.183 342.734 329.627 342.246 330.674 341.29C331.72 340.324 332.244 338.997 332.244 337.31V337.301Z" fill="#171D64"/>
</g>
<defs>
<clipPath id="clip0_11_9708">
<rect width="355.26" height="257.49" fill="white" transform="translate(67.5254 121.255)"/>
</clipPath>
</defs>
</svg>
