<svg width="500" height="500" viewBox="0 0 500 500" fill="none" xmlns="http://www.w3.org/2000/svg">
<rect width="500" height="500" fill="white"/>
<g clip-path="url(#clip0_11_9734)">
<path d="M161.186 224.888C159.901 201.613 150.711 160.745 124.437 154.1C109.634 150.349 92.9164 151.355 77.2129 151.914V348.645C96.3351 348.365 124.385 349.143 137.124 339.053C162.34 319.092 162.821 254.564 161.186 224.888ZM94.2017 332.05L94.0093 170.241C94.0093 170.241 144.967 151.696 146.873 248.767C148.779 345.838 94.2017 332.05 94.2017 332.05Z" fill="#09325E"/>
<path d="M307.16 152.797C302.202 156.916 300.611 164.741 293.537 165.834L265.199 348.645H283.561L288.072 319.948L288.37 318.034L302.788 339.027L316.778 318.042L317.189 320.945L321.158 348.645H339.52L307.16 152.797ZM288.868 314.396L288.982 313.609L302.359 223.603L316.026 313.609L316.148 314.396H288.868Z" fill="#09325E"/>
<path d="M418.387 167.041C411.934 145.488 367.587 152.736 358.756 151.914V348.645H377.117V263.832C398.452 264.226 413.351 258.507 419.908 237.112C424.682 221.522 423.039 182.587 418.387 167.041ZM404.756 227.135C404.441 231.656 403.479 236.482 400.262 239.849C394.473 245.908 384.698 244.675 377.117 245.471V170.276C377.117 169.725 391.116 170.459 392.454 170.757C400.174 172.444 404.074 178.845 404.922 186.312C406.452 199.742 405.691 213.679 404.747 227.135H404.756Z" fill="#09325E"/>
<path d="M198.75 245.471H236.347V263.832H198.75V330.24L236.347 330.283V348.645H180.388V263.832C172.3 263.832 172.528 263.797 172.379 263.797L176.611 245.532L180.388 245.471V151.914H227.603L236.347 170.276H198.75V245.471Z" fill="#09325E"/>
<path d="M302.789 341.493L283.736 313.61H322.331L302.789 341.493Z" fill="#D21112"/>
</g>
<defs>
<clipPath id="clip0_11_9734">
<rect width="345.573" height="197.29" fill="white" transform="translate(77.2129 151.355)"/>
</clipPath>
</defs>
</svg>
