<svg width="500" height="500" viewBox="0 0 500 500" fill="none" xmlns="http://www.w3.org/2000/svg">
<rect width="500" height="500" fill="white"/>
<g clip-path="url(#clip0_11_9535)">
<path d="M345.618 76.9329H154.382V423.067H345.618V76.9329Z" fill="#FF7225"/>
<path d="M185.988 113.422H220.713L221.492 127.362H219.118C218.563 124.074 217.864 121.709 217.031 120.258C216.198 118.816 215.096 117.732 213.743 117.006C212.381 116.289 210.607 115.931 208.421 115.931H202.974C202.132 115.931 201.523 116.101 201.138 116.433C200.762 116.764 200.573 117.23 200.573 117.821V131.654H202.437C204.578 131.654 206.235 131.044 207.409 129.817C208.583 128.599 209.281 126.628 209.496 123.913H211.924V142.467H209.496C209.335 139.394 208.663 137.226 207.472 135.972C206.28 134.718 204.497 134.081 202.105 134.081H200.565V148.828C200.565 149.473 200.753 149.93 201.129 150.198C201.702 150.593 202.527 150.79 203.611 150.79H208.412C211.7 150.79 214.388 149.742 216.475 147.636C218.563 145.531 219.853 142.359 220.355 138.122H222.782L222.191 153.298H185.979V150.79H189.563C190.369 150.79 190.987 150.584 191.409 150.172C191.83 149.759 192.045 149.204 192.045 148.496V117.812C192.045 117.167 191.83 116.692 191.409 116.388C190.987 116.083 190.226 115.931 189.133 115.931H185.979V113.422H185.988Z" fill="#F0F3FA"/>
<path d="M226.931 113.422H246.667V115.931H243.442C242.403 115.931 241.695 116.092 241.319 116.415C240.942 116.737 240.754 117.266 240.754 118.009V135.64L253.924 120.464C254.667 119.586 255.044 118.771 255.044 118.036C255.044 117.409 254.811 116.934 254.345 116.612C253.7 116.164 252.822 115.94 251.729 115.94H250.627V113.431H267.048V115.94H266.027C264.549 115.94 263.187 116.307 261.933 117.042C260.078 118.135 258.233 119.765 256.378 121.924L251.299 127.792L263.115 148.192C263.617 149.052 264.208 149.67 264.898 150.055C265.794 150.557 266.69 150.808 267.568 150.808H269.136V153.316H249.561V150.808H251.559C252.634 150.808 253.413 150.664 253.879 150.378C254.345 150.091 254.578 149.759 254.578 149.383C254.578 149.168 254.497 148.944 254.327 148.711L245.843 134.117L240.772 139.976V148.711C240.772 149.41 240.96 149.939 241.328 150.288C241.695 150.637 242.206 150.817 242.851 150.817H246.461V153.325H226.94V150.817H229.771C230.595 150.817 231.213 150.637 231.616 150.279C232.019 149.921 232.225 149.401 232.225 148.711V117.839C232.225 117.212 232.028 116.737 231.643 116.424C231.258 116.11 230.631 115.949 229.771 115.949H226.94V113.44L226.931 113.422Z" fill="#F0F3FA"/>
<path d="M290.682 112.428C294.435 112.428 297.903 113.333 301.074 115.151C304.245 116.961 306.718 119.443 308.492 122.578C310.266 125.714 311.144 129.244 311.144 133.177C311.144 139.161 309.191 144.142 305.276 148.129C301.37 152.116 296.514 154.114 290.726 154.114C286.883 154.114 283.434 153.209 280.388 151.39C277.342 149.58 274.941 147.126 273.176 144.044C271.411 140.962 270.533 137.387 270.533 133.311C270.533 127.255 272.468 122.265 276.33 118.332C280.191 114.399 284.975 112.428 290.673 112.428H290.682ZM290.843 115.017C288.702 115.017 286.847 115.608 285.279 116.782C283.703 117.956 282.457 119.855 281.535 122.48C280.612 125.105 280.146 128.697 280.146 133.257C280.146 138.05 280.576 141.688 281.427 144.151C282.278 146.624 283.524 148.452 285.163 149.634C286.802 150.817 288.702 151.408 290.879 151.408C294.095 151.408 296.666 150.028 298.592 147.269C300.519 144.51 301.477 139.717 301.477 132.899C301.477 128.124 301.065 124.531 300.241 122.139C299.417 119.738 298.18 117.956 296.55 116.782C294.91 115.608 293.02 115.017 290.861 115.017H290.843Z" fill="#F0F3FA"/>
<path d="M318.257 163.359H183.346V169.433H318.257V163.359Z" fill="#F0F3FA"/>
<path d="M271.348 185.72L264.611 183.391C264.244 181.644 262.694 180.327 260.831 180.327C258.698 180.327 256.969 182.056 256.969 184.188C256.969 186.32 258.698 188.049 260.831 188.049C262.273 188.049 263.509 187.252 264.181 186.078L270.479 188.255C274.717 189.716 277.145 194.267 276.016 198.603L265.659 238.156C264.423 242.86 260.992 246.739 256.468 248.522C252.58 250.054 248.181 249.928 244.391 248.172L243.916 247.948C239.903 246.094 236.893 242.591 235.656 238.353L224.18 199.149C222.926 194.858 225.219 190.244 229.403 188.659L234.25 186.813C234.957 187.566 235.952 188.049 237.063 188.049C239.195 188.049 240.924 186.32 240.924 184.188C240.924 182.056 239.195 180.327 237.063 180.327C234.931 180.327 233.202 182.056 233.202 184.188C233.202 184.242 233.21 184.287 233.219 184.332L228.444 186.141C222.962 188.229 219.951 194.276 221.6 199.902L233.076 239.106C234.536 244.087 238.075 248.199 242.788 250.385L243.262 250.609C245 251.415 246.846 251.926 248.718 252.141V378.873C243.952 379.169 240.279 380.996 240.279 383.209C240.279 385.628 244.66 387.59 250.062 387.59C255.464 387.59 259.845 385.628 259.845 383.209C259.845 380.996 256.172 379.169 251.406 378.873V252.24C253.466 252.177 255.518 251.783 257.453 251.012C262.766 248.907 266.806 244.356 268.258 238.828L278.614 199.275C280.101 193.586 276.921 187.628 271.357 185.702L271.348 185.72Z" fill="#F0F3FA"/>
<path d="M247.724 374.071C253.61 373.865 275.711 370.138 240.592 336.086C238.505 334.061 237.528 331.105 238.147 328.256C239.177 323.498 243.656 316.609 257.256 306.512C260.069 304.425 261.897 301.182 261.941 297.688C261.995 293.038 259.218 288.855 256.494 285.316C253.95 282.001 251.083 278.937 248.181 275.945C246.236 273.947 244.257 271.985 242.259 270.041C240.879 268.697 239.267 267.765 238.236 266.072C238.012 265.714 237.815 265.32 237.788 264.899C237.743 264.227 238.156 263.582 238.693 263.178C240.064 262.148 242.089 261.835 243.737 261.638C250.044 260.858 256.181 262.157 262.443 261.915C264.45 261.835 266.878 261.512 268.275 259.891C271.035 256.683 268.186 251.263 266.582 248.208C263.67 242.645 259.881 237.547 256.226 232.459C253.493 228.651 249.713 224.494 248.19 219.979C247.992 219.388 247.751 218.76 247.84 218.124C248.852 211.208 250.707 209.354 250.537 206.827C250.367 204.301 245.986 205.143 246.156 198.397C246.326 191.651 245.986 189.626 243.791 189.626C241.596 189.626 235.19 199.409 237.385 206.326C239.58 213.242 237.045 212.229 237.887 215.266C238.415 217.166 240.109 219.047 241.193 220.651C243.432 223.948 245.735 227.209 247.983 230.497C250.51 234.188 253.009 237.906 255.348 241.713C257.471 245.171 260.033 248.997 260.902 253.01C260.983 253.368 261.045 253.754 260.902 254.094C260.66 254.721 259.899 254.936 259.245 255.053C253.413 256.065 247.383 255.053 241.488 255.429C237.69 255.671 231.849 256.235 230.29 260.455C226.751 270.068 257.516 290.449 254.909 297.222C252.167 304.344 233.452 315.14 231.598 325.595C228.641 342.267 254.192 353.466 254.532 363.079C254.631 365.901 250.68 371.84 247.706 372.494C246.819 372.692 247.276 374.098 247.706 374.08L247.724 374.071Z" fill="#F0F3FA"/>
<path d="M336.363 412.881H164.309V88.0417H336.363V412.881ZM167.892 409.297H332.78V91.6253H167.892V409.297Z" fill="#F0F3FA"/>
<path d="M326.302 403.385H174.369V97.5293H326.302V403.385ZM177.953 399.801H322.719V101.113H177.953V399.801Z" fill="#F0F3FA"/>
</g>
<defs>
<clipPath id="clip0_11_9535">
<rect width="191.236" height="346.134" fill="white" transform="translate(154.382 76.9329)"/>
</clipPath>
</defs>
</svg>
