<svg width="500" height="500" viewBox="0 0 500 500" fill="none" xmlns="http://www.w3.org/2000/svg">
<rect width="500" height="500" fill="white"/>
<g clip-path="url(#clip0_11_8793)">
<path d="M235.258 112.328L259.213 124.861L398.546 387.672H121.355L101.453 369.245L235.258 112.328Z" fill="#231F20"/>
<path d="M258.162 136.277L387.861 380.923H129.834L258.162 136.277Z" fill="url(#paint0_linear_11_8793)"/>
<path d="M257.372 164.299C257.372 164.299 247.973 176.466 249.631 189.919C251.289 203.372 253.684 206.688 253.684 206.688C253.684 206.688 259.768 194.155 259.396 187.889C259.024 181.622 256.628 170.565 257.366 164.299H257.372Z" fill="#ED1C24"/>
<path d="M265.479 185.187C265.479 185.187 272.111 194.951 269.905 207.301C267.699 219.651 261.426 214.122 260.688 229.788C260.688 229.788 252.764 223.887 257.738 213.019C262.712 202.151 266.4 197.719 265.479 185.187Z" fill="#ED1C24"/>
<path d="M281.7 216.153C281.7 216.153 273.593 219.469 275.068 229.423C276.543 239.378 281.517 234.952 281.334 242.876L280.414 249.508C280.414 249.508 286.315 242.876 285.943 235.318C285.571 227.759 278.939 228.686 281.706 216.153H281.7Z" fill="#ED1C24"/>
<path d="M244.161 212.099C244.161 212.099 254.357 222.666 242.81 238.639C231.263 254.611 234.579 256.824 234.579 256.824C234.579 256.824 224.54 251.335 232.614 237.536C240.232 224.514 242.32 228.319 244.161 212.105V212.099Z" fill="#ED1C24"/>
<path d="M261.158 277.236C261.001 277.614 260.825 277.993 260.629 278.384C259.67 280.304 258.86 282.046 258.175 283.626C254.487 292.157 254.487 295.832 254.487 295.832C254.487 295.832 249.559 292.307 250.584 283.626C250.766 282.053 251.145 280.31 251.785 278.384C251.935 277.941 252.072 277.51 252.209 277.099C255.923 265.93 255.407 266.851 253.749 260.447C253.749 260.447 265.956 265.747 261.158 277.236Z" fill="#ED1C24"/>
<path d="M299.754 263.437C299.754 263.659 299.734 263.881 299.702 264.103C299.682 264.253 299.65 264.41 299.61 264.56C299.578 264.69 299.545 264.814 299.499 264.938C299.46 265.069 299.408 265.199 299.356 265.323C299.349 265.337 299.349 265.35 299.336 265.356C299.297 265.467 299.245 265.578 299.18 265.689C299.167 265.728 299.147 265.761 299.127 265.8C299.088 265.878 299.043 265.963 298.99 266.041C298.958 266.107 298.918 266.165 298.873 266.231C298.814 266.335 298.742 266.433 298.677 266.531C298.657 266.551 298.644 266.57 298.631 266.59C298.54 266.714 298.442 266.838 298.344 266.962C298.246 267.092 298.129 267.223 298.005 267.353C298.083 267.262 298.168 267.177 298.233 267.086C298.416 266.857 298.586 266.629 298.736 266.4C298.827 266.263 298.912 266.126 298.99 265.989C299.003 265.957 299.023 265.924 299.036 265.898C299.127 265.741 299.199 265.585 299.271 265.428C299.304 265.356 299.33 265.278 299.362 265.206C299.578 264.625 299.695 264.038 299.695 263.444C299.695 263.169 299.669 262.902 299.623 262.634C299.617 262.575 299.604 262.523 299.591 262.471C299.591 262.464 299.591 262.458 299.591 262.451C299.571 262.34 299.545 262.229 299.512 262.125C299.493 262.04 299.467 261.955 299.434 261.877C299.395 261.74 299.343 261.609 299.277 261.472C299.245 261.381 299.199 261.283 299.147 261.185C299.101 261.087 299.049 260.983 298.99 260.885C298.879 260.683 298.749 260.474 298.605 260.271C298.514 260.141 298.422 260.017 298.324 259.893C298.122 259.638 297.894 259.384 297.652 259.136C297.535 259.012 297.417 258.894 297.287 258.777C297.221 258.718 297.156 258.652 297.091 258.594C298.586 259.893 299.499 261.303 299.708 262.765C299.741 262.987 299.761 263.215 299.761 263.437H299.754Z" stroke="#ED1C24" stroke-width="0.652736" stroke-miterlimit="10"/>
<path d="M250.754 277.014C238.437 276.224 228.072 273.587 222.295 270.003C219.162 268.045 217.38 265.813 217.38 263.437C217.38 260.056 220.99 256.955 226.995 254.553C234.54 251.531 245.865 249.605 258.522 249.605C271.178 249.605 282.503 251.531 290.049 254.553C291.55 255.154 292.908 255.8 294.096 256.479C294.318 256.609 294.533 256.733 294.742 256.864C294.873 256.942 294.997 257.027 295.121 257.112C295.186 257.151 295.251 257.197 295.317 257.236H295.323C295.33 257.242 295.343 257.249 295.349 257.256H295.356C295.356 257.256 295.375 257.269 295.388 257.282C295.421 257.301 295.46 257.321 295.493 257.347C295.623 257.432 295.747 257.523 295.865 257.608C295.878 257.615 295.891 257.628 295.904 257.641C295.924 257.654 295.937 257.66 295.95 257.667C295.982 257.686 296.009 257.712 296.035 257.732C296.087 257.771 296.139 257.81 296.185 257.843C296.25 257.895 296.315 257.941 296.374 257.987C296.407 258.013 296.439 258.039 296.472 258.065C296.603 258.176 296.733 258.28 296.851 258.378C296.851 258.385 296.87 258.391 296.877 258.404C296.948 258.463 297.02 258.528 297.086 258.587C297.151 258.646 297.216 258.711 297.281 258.77C297.412 258.887 297.529 259.005 297.647 259.129C297.888 259.377 298.117 259.632 298.319 259.886C298.417 260.01 298.509 260.134 298.6 260.265C298.743 260.467 298.874 260.676 298.985 260.878C299.044 260.976 299.096 261.081 299.142 261.178C299.187 261.27 299.233 261.368 299.272 261.466C299.337 261.603 299.39 261.733 299.429 261.87C299.461 261.949 299.488 262.034 299.507 262.112C299.54 262.223 299.566 262.334 299.586 262.445C299.586 262.451 299.586 262.458 299.586 262.464C299.599 262.517 299.612 262.569 299.618 262.628C299.664 262.895 299.69 263.163 299.69 263.437C299.69 264.031 299.572 264.618 299.357 265.199C299.324 265.271 299.298 265.349 299.266 265.421C299.194 265.578 299.116 265.735 299.031 265.891C299.018 265.917 298.998 265.95 298.985 265.983C298.907 266.12 298.822 266.257 298.73 266.394C298.58 266.622 298.411 266.851 298.228 267.079C298.163 267.171 298.078 267.255 297.999 267.347C297.928 267.438 297.843 267.53 297.758 267.614C297.68 267.699 297.595 267.791 297.503 267.876C297.301 268.078 297.086 268.274 296.857 268.47C296.243 268.985 295.545 269.488 294.762 269.977C288.385 273.953 276.4 276.759 262.36 277.197" stroke="#ED1C24" stroke-width="1.30547" stroke-miterlimit="10"/>
<path d="M249.775 276.949C237.889 276.088 227.915 273.496 222.288 270.004C219.155 268.046 217.373 265.813 217.373 263.438V283.738C217.373 299.723 235.8 312.686 258.535 312.686C281.269 312.686 299.69 299.723 299.69 283.738V283.627H299.696V264.103C299.677 264.26 299.644 264.41 299.605 264.56C299.572 264.691 299.54 264.815 299.494 264.939C299.455 265.069 299.402 265.2 299.35 265.324C299.344 265.337 299.344 265.35 299.331 265.357C299.291 265.468 299.239 265.578 299.174 265.689C299.161 265.729 299.141 265.761 299.122 265.8C299.083 265.879 299.037 265.964 298.985 266.042C298.952 266.107 298.913 266.166 298.867 266.231C298.808 266.336 298.737 266.434 298.671 266.531C298.652 266.551 298.639 266.571 298.626 266.59C298.534 266.714 298.436 266.838 298.338 266.962C298.306 267.001 298.273 267.047 298.228 267.086C298.162 267.178 298.077 267.263 297.999 267.354C297.927 267.445 297.842 267.537 297.758 267.622C297.679 267.706 297.594 267.798 297.503 267.883C297.301 268.085 297.085 268.281 296.857 268.477C296.243 268.992 295.545 269.495 294.761 269.984C288.587 273.829 277.157 276.584 263.704 277.158" stroke="#ED1C24" stroke-width="1.30547" stroke-miterlimit="10"/>
<path d="M299.702 264.102V262.764" stroke="#ED1C24" stroke-width="0.652736" stroke-miterlimit="10"/>
<path d="M279.553 351.855C279.553 351.855 291.596 341.164 284.957 326.79C278.319 312.417 296.139 309.467 300.564 295.211L299.703 305.041L304.128 298.285C304.128 298.285 301.302 310.08 302.405 317.822C303.508 325.563 295.036 347.802 279.553 351.855Z" fill="#ED1C24"/>
<path d="M271.993 313.214C273.299 314.023 274.552 315.015 275.616 316.132C278.938 319.617 276.53 324.806 275.433 328.821C275.433 328.821 281.947 327.718 281.086 334.225C280.224 340.733 274.819 352.659 274.819 352.659C274.819 352.659 271.628 349.467 272.731 345.041C273.697 341.171 277.019 334.48 274.46 332.868C273.769 332.43 272.848 332.711 272.398 333.39L269.656 337.548C269.656 337.548 266.34 333.122 269.656 327.352C272.972 321.582 272.176 314.696 271.993 313.22V313.214Z" fill="#ED1C24"/>
<path d="M238.208 329.434C238.208 329.434 244.722 332.385 243.985 340.616C243.247 348.847 243.495 352.9 246.935 354.989C246.935 354.989 248.488 355.589 248.671 356.373C248.567 355.942 249.755 354.401 249.97 354.042C251.093 352.189 253.456 350.289 253.39 347.9C253.325 345.309 250.062 343.168 248.528 341.373C246.87 339.441 244.703 336.934 245.055 334.193C245.251 332.659 246.171 331.125 246.759 329.715C247.992 326.771 249.768 323.579 250.009 320.335C250.251 317.091 244.846 312.293 247.934 299.97C247.934 299.97 260.329 307.731 258.299 321.693C257.816 325.002 257.137 328.39 255.695 331.432C254.572 333.788 251.171 337.117 253.534 339.754C253.639 339.872 253.756 339.982 253.893 340.061C254.017 340.133 254.161 340.178 254.298 340.224C255.662 340.694 256.85 341.706 257.927 342.639C260.12 344.545 260.623 347.221 259.546 349.884C258.286 353.005 255.838 355.596 253.404 357.848C253.129 358.096 249.52 361.497 249.233 361.281C249.233 361.281 244.703 356.797 239.82 354.31C234.938 351.823 236.132 341.131 238.619 336.804C241.106 332.476 238.201 329.421 238.201 329.421L238.208 329.434Z" fill="#ED1C24"/>
<path d="M216.505 308.801C216.505 308.801 223.137 305.485 215.95 291.843C215.95 291.843 213.802 289.813 214.658 283.919C214.658 283.919 207.412 288.945 211.035 297.744C213.182 302.966 216.315 301.491 216.505 308.801Z" fill="#ED1C24"/>
<path d="M228.43 307.306C228.43 307.306 236.354 310.439 231.256 329.976C231.256 329.976 229.291 340.172 233.469 349.329C233.469 349.329 229.043 349.578 226.099 342.756C226.099 342.756 223.214 347.117 218.482 347.424C218.482 347.424 218.665 345.276 217.007 337.345C215.349 329.415 218.051 319.65 217.007 316.889L221.126 321.432L221.374 313.135C221.374 313.135 224.259 320.139 225.427 319.832C226.595 319.526 226.857 315.74 228.253 313.997C229.481 312.463 228.436 307.3 228.436 307.3L228.43 307.306Z" fill="#ED1C24"/>
<path d="M304.369 268.933L317.698 260.121L318.566 261.433L305.237 270.245L304.369 268.933ZM307.724 274.011L304.976 269.853L306.053 269.142L308.788 273.28C309.408 274.22 310.146 274.814 310.994 275.062C311.843 275.31 312.665 275.167 313.462 274.644C314.271 274.109 314.708 273.378 314.767 272.445C314.826 271.511 314.513 270.526 313.821 269.481L311.308 265.676L312.365 264.977L314.63 268.411C315.263 269.364 315.981 269.971 316.784 270.225C317.594 270.48 318.357 270.369 319.075 269.899C319.832 269.396 320.25 268.731 320.322 267.889C320.394 267.053 320.126 266.165 319.513 265.239L317.222 261.766L318.299 261.055L320.603 264.547C321.484 265.878 321.876 267.145 321.778 268.346C321.68 269.547 321.099 270.5 320.041 271.198C319.245 271.727 318.396 271.916 317.502 271.766C316.608 271.616 315.753 271.087 314.943 270.173L315.276 269.951C315.981 271.25 316.236 272.432 316.027 273.496C315.818 274.56 315.25 275.402 314.323 276.015C313.162 276.785 311.993 276.988 310.825 276.622C309.656 276.257 308.618 275.389 307.711 274.018L307.724 274.011Z" fill="black"/>
<path d="M311.549 280.447L326.562 274.971L327.104 276.452L312.091 281.929L311.549 280.447ZM314.95 289.762L318.69 287.268C319.323 286.851 319.773 286.446 320.034 286.054C320.295 285.656 320.406 285.219 320.367 284.736C320.322 284.253 320.185 283.678 319.943 283.012L318.611 279.37L319.604 279.011L321.02 282.895C321.366 283.848 321.568 284.657 321.614 285.304C321.66 285.95 321.516 286.537 321.19 287.046C320.857 287.562 320.315 288.071 319.551 288.58L315.524 291.328L314.95 289.762ZM320.328 283.195L318.788 278.979L319.734 278.633L321.209 282.673C321.608 283.763 322.188 284.52 322.952 284.951C323.716 285.382 324.564 285.428 325.491 285.088C326.405 284.755 327.012 284.181 327.325 283.358C327.632 282.536 327.593 281.589 327.201 280.512L325.72 276.452L326.934 276.009L328.422 280.095C328.977 281.609 329.049 282.954 328.644 284.129C328.239 285.304 327.397 286.119 326.118 286.589C324.839 287.059 323.683 286.975 322.665 286.348C321.647 285.721 320.863 284.67 320.328 283.195Z" fill="black"/>
<path d="M317.111 304.71L329.67 298.091L330.975 297.458L330.988 297.549L329.585 297.223L315.923 293.346L315.76 291.779L332.32 296.459L332.516 298.307L317.3 306.361L317.124 304.703L317.111 304.71ZM320.224 294.364L321.51 294.227L322.398 302.641L321.112 302.778L320.224 294.364Z" fill="black"/>
<path d="M315.498 318.482L331.295 320.877L331.053 322.457L315.257 320.061L315.498 318.482ZM315.511 318.417L328.814 312.189L332.861 310.59L332.652 311.981L319.278 318.221L315.309 319.807L315.518 318.41L315.511 318.417ZM317.098 307.934L332.894 310.329L332.659 311.883L316.863 309.487L317.098 307.934Z" fill="black"/>
<path d="M313.664 327.874C313.129 329.095 312.914 330.25 313.018 331.334C313.122 332.424 313.527 333.403 314.232 334.265C314.937 335.133 315.929 335.844 317.209 336.406C318.514 336.98 319.722 337.234 320.838 337.169C321.954 337.104 322.946 336.738 323.821 336.079C324.695 335.42 325.394 334.48 325.929 333.259L327.443 329.819L328.625 330.342L327.111 333.781C326.445 335.302 325.577 336.477 324.506 337.306C323.442 338.135 322.228 338.618 320.877 338.742C319.519 338.866 318.077 338.592 316.543 337.913C315.022 337.248 313.847 336.373 313.025 335.289C312.196 334.206 311.732 332.992 311.634 331.647C311.536 330.302 311.817 328.866 312.483 327.352L313.997 323.912L315.179 324.434L313.664 327.874ZM314.434 322.9L329.062 329.33L328.429 330.772L313.801 324.343L314.434 322.9Z" fill="black"/>
<path d="M188.372 322.999L187.105 323.253L185.245 313.945L186.511 313.691L188.372 322.999ZM202.987 321.204L187.321 324.337L187.014 322.79L202.68 319.657L202.987 321.204ZM195.676 321.537L194.41 321.791L192.712 313.312L193.979 313.058L195.676 321.537Z" fill="black"/>
<path d="M201.021 308.515L185.055 309.213L184.983 307.64L200.949 306.941L201.015 308.515H201.021Z" fill="black"/>
<path d="M200.715 303.6L184.847 301.707L185.036 300.147L200.904 302.04L200.715 303.6ZM194.122 297.184L193.593 301.642L192.588 301.525L193.097 297.256C193.234 296.107 193.058 295.167 192.569 294.436C192.079 293.705 191.348 293.287 190.362 293.17C189.396 293.052 188.593 293.294 187.947 293.888C187.301 294.482 186.909 295.343 186.772 296.479L186.263 300.774L184.977 300.624L185.493 296.309C185.682 294.71 186.224 293.476 187.118 292.608C188.012 291.747 189.135 291.394 190.486 291.551C191.837 291.714 192.83 292.301 193.456 293.326C194.083 294.351 194.305 295.637 194.122 297.19V297.184ZM201.89 293.757L197.425 294.292C196.674 294.377 196.093 294.534 195.676 294.769C195.264 295.004 194.964 295.35 194.781 295.8C194.599 296.25 194.468 296.831 194.383 297.53L193.926 301.381L192.875 301.257L193.365 297.151C193.482 296.14 193.672 295.337 193.926 294.736C194.181 294.136 194.566 293.679 195.095 293.372C195.623 293.065 196.341 292.856 197.255 292.745L202.085 292.112L201.89 293.77V293.757Z" fill="black"/>
<path d="M202.712 290.198L187.68 284.781L188.215 283.299L203.247 288.723L202.712 290.205V290.198ZM189.272 284.18L188.058 283.743L191.276 274.813L192.49 275.251L189.272 284.18ZM195.904 286.569L194.664 286.125L197.601 277.992L198.841 278.436L195.904 286.569ZM203.091 289.161L201.877 288.723L205.095 279.794L206.309 280.231L203.091 289.161Z" fill="black"/>
<path d="M314.154 354.383C315.733 354.383 317.013 353.103 317.013 351.524C317.013 349.945 315.733 348.665 314.154 348.665C312.575 348.665 311.295 349.945 311.295 351.524C311.295 353.103 312.575 354.383 314.154 354.383Z" fill="black"/>
<path d="M297.751 362.856C299.33 362.856 300.61 361.576 300.61 359.997C300.61 358.418 299.33 357.138 297.751 357.138C296.172 357.138 294.892 358.418 294.892 359.997C294.892 361.576 296.172 362.856 297.751 362.856Z" fill="black"/>
<path d="M293.606 367.743C295.185 367.743 296.465 366.463 296.465 364.884C296.465 363.305 295.185 362.025 293.606 362.025C292.027 362.025 290.747 363.305 290.747 364.884C290.747 366.463 292.027 367.743 293.606 367.743Z" fill="black"/>
<path d="M278.123 369.86C279.702 369.86 280.982 368.58 280.982 367.001C280.982 365.422 279.702 364.142 278.123 364.142C276.544 364.142 275.264 365.422 275.264 367.001C275.264 368.58 276.544 369.86 278.123 369.86Z" fill="black"/>
<path d="M273.978 374.747C275.557 374.747 276.837 373.467 276.837 371.888C276.837 370.309 275.557 369.029 273.978 369.029C272.399 369.029 271.119 370.309 271.119 371.888C271.119 373.467 272.399 374.747 273.978 374.747Z" fill="black"/>
<path d="M253.514 373.964C255.093 373.964 256.373 372.684 256.373 371.105C256.373 369.526 255.093 368.246 253.514 368.246C251.935 368.246 250.655 369.526 250.655 371.105C250.655 372.684 251.935 373.964 253.514 373.964Z" fill="black"/>
<path d="M247.529 373.964C249.108 373.964 250.388 372.684 250.388 371.105C250.388 369.526 249.108 368.246 247.529 368.246C245.95 368.246 244.67 369.526 244.67 371.105C244.67 372.684 245.95 373.964 247.529 373.964Z" fill="black"/>
<path d="M233.886 368.618C235.465 368.618 236.745 367.338 236.745 365.759C236.745 364.18 235.465 362.9 233.886 362.9C232.307 362.9 231.027 364.18 231.027 365.759C231.027 367.338 232.307 368.618 233.886 368.618Z" fill="black"/>
<path d="M227.901 368.618C229.48 368.618 230.76 367.338 230.76 365.759C230.76 364.18 229.48 362.9 227.901 362.9C226.322 362.9 225.042 364.18 225.042 365.759C225.042 367.338 226.322 368.618 227.901 368.618Z" fill="black"/>
<path d="M214.35 358.39C215.929 358.39 217.209 357.11 217.209 355.531C217.209 353.952 215.929 352.672 214.35 352.672C212.771 352.672 211.491 353.952 211.491 355.531C211.491 357.11 212.771 358.39 214.35 358.39Z" fill="black"/>
</g>
<defs>
<linearGradient id="paint0_linear_11_8793" x1="258.847" y1="136.277" x2="258.847" y2="377.346" gradientUnits="userSpaceOnUse">
<stop stop-color="#FFF315"/>
<stop offset="1" stop-color="white"/>
</linearGradient>
<clipPath id="clip0_11_8793">
<rect width="297.093" height="275.344" fill="white" transform="translate(101.453 112.328)"/>
</clipPath>
</defs>
</svg>
