<svg width="500" height="500" viewBox="0 0 500 500" fill="none" xmlns="http://www.w3.org/2000/svg">
<rect width="500" height="500" fill="white"/>
<g clip-path="url(#clip0_11_7340)">
<path d="M189.296 237.936L160.323 213.238L164.21 208.325C170.519 200.35 169.005 189.649 168.719 180.177C168.466 171.916 168.231 163.638 167.995 155.377L167.087 124.251C166.952 119.675 167.373 115.081 168.534 110.656C169.442 107.207 170.889 103.405 173.144 100.158C179.79 90.6517 199.979 66.1884 237.045 82.3403L266.252 97.2976L241.554 123.898C242.159 123.241 212.817 89.9283 201.393 110C198.196 115.637 199.407 123.241 200.215 129.584C202.217 145.265 204.101 160.98 205.061 176.761C205.767 188.253 207.281 200.097 204.808 211.471C202.554 221.886 195.42 229.524 189.279 237.903L189.296 237.936Z" fill="#21C89C"/>
<path d="M261.979 189.38L286.644 160.374L291.557 164.244C299.532 170.536 310.249 169.005 319.721 168.719C327.982 168.467 336.26 168.214 344.521 167.962L375.63 167.003C380.207 166.868 384.8 167.272 389.225 168.433C392.674 169.342 396.476 170.772 399.724 173.026C409.23 179.672 433.727 199.828 417.625 236.893L402.702 266.135L376.068 241.47C376.724 242.075 409.987 212.682 389.898 201.292C384.262 198.095 376.64 199.324 370.297 200.148C354.616 202.167 338.919 204.068 323.137 205.061C311.645 205.784 299.818 207.315 288.427 204.859C278.013 202.621 270.357 195.487 261.979 189.363V189.38Z" fill="#21C89C"/>
<path d="M310.62 261.996L339.66 286.611L335.79 291.524C329.497 299.515 331.045 310.216 331.365 319.688C331.634 327.949 331.887 336.227 332.156 344.488L333.148 375.597C333.3 380.174 332.896 384.767 331.735 389.192C330.827 392.641 329.413 396.46 327.142 399.691C320.513 409.213 300.39 433.727 263.292 417.676L234.033 402.786L258.665 376.119C258.059 376.775 287.503 410.004 298.859 389.899C302.039 384.262 300.811 376.641 299.987 370.298C297.934 354.617 296.016 338.919 295.006 323.138C294.266 311.646 292.718 299.818 295.158 288.428C297.379 278.013 304.496 270.341 310.62 261.962V261.996Z" fill="#21C89C"/>
<path d="M238.088 310.737L213.507 339.811L208.594 335.941C200.602 329.665 189.885 331.23 180.429 331.55C172.168 331.836 163.89 332.105 155.629 332.374L124.52 333.417C119.944 333.569 115.35 333.165 110.926 332.021C107.476 331.129 103.657 329.699 100.41 327.444C90.8871 320.832 66.3397 300.743 82.3233 263.628L97.1628 234.353L123.864 258.95C123.208 258.345 90.0122 287.839 110.135 299.162C115.788 302.342 123.393 301.097 129.736 300.255C145.416 298.186 161.114 296.234 176.896 295.208C188.387 294.451 200.215 292.886 211.605 295.309C222.02 297.513 229.692 304.63 238.088 310.737Z" fill="#21C89C"/>
<path d="M215.61 198.55L212.581 160.593L218.789 159.869C228.884 158.692 235.379 150.044 241.89 143.145C247.56 137.122 253.247 131.116 258.917 125.092L280.284 102.446C283.43 99.1148 286.964 96.1705 290.918 93.8655C293.996 92.0652 297.715 90.3996 301.601 89.7098C313.025 87.6908 344.606 84.6791 359.378 122.299L369.456 153.543L333.182 154.889C334.073 154.856 336.883 110.556 314.607 116.68C308.365 118.396 303.839 124.638 299.919 129.702C290.245 142.203 280.469 154.637 269.987 166.482C262.366 175.096 255.064 184.551 245.272 190.861C236.321 196.632 225.856 196.985 215.61 198.567V198.55Z" fill="#1C3F9D"/>
<path d="M301.332 215.61L339.289 212.531L340.012 218.74C341.207 228.835 349.855 235.329 356.77 241.806C362.793 247.476 368.816 253.146 374.84 258.816L397.52 280.15C400.851 283.28 403.812 286.83 406.117 290.767C407.917 293.846 409.6 297.547 410.29 301.451C412.326 312.875 415.388 344.438 377.784 359.278L346.557 369.406L345.161 333.132C345.194 334.023 389.511 336.766 383.353 314.507C381.62 308.265 375.378 303.739 370.314 299.835C357.796 290.178 345.346 280.42 333.484 269.954C324.853 262.333 315.398 255.048 309.071 245.272C303.301 236.322 302.914 225.873 301.332 215.61Z" fill="#1C3F9D"/>
<path d="M284.39 301.35L287.519 339.306L281.311 340.047C271.216 341.241 264.738 349.923 258.261 356.821C252.607 362.861 246.937 368.885 241.284 374.925L219.984 397.638C216.855 400.97 213.321 403.931 209.368 406.253C206.289 408.053 202.587 409.735 198.701 410.442C187.293 412.495 155.713 415.607 140.84 378.02L130.678 346.81L166.952 345.363C166.06 345.397 163.385 389.714 185.628 383.522C191.87 381.789 196.379 375.53 200.282 370.466C209.923 357.932 219.664 345.464 230.113 333.603C237.717 324.955 244.986 315.499 254.761 309.156C263.695 303.369 274.143 302.982 284.406 301.366L284.39 301.35Z" fill="#1C3F9D"/>
<path d="M198.617 284.524L160.677 287.704L159.936 281.496C158.725 271.401 150.043 264.94 143.128 258.463C137.088 252.81 131.048 247.156 125.008 241.503L102.277 220.237C98.9293 217.107 95.9681 213.574 93.6463 209.637C91.8461 206.558 90.1468 202.857 89.4401 198.97C87.3707 187.563 84.2244 155.999 121.777 141.059L152.971 130.846L154.468 167.121C154.434 166.229 110.118 163.604 116.326 185.847C118.076 192.089 124.335 196.581 129.416 200.484C141.967 210.108 154.434 219.833 166.33 230.264C174.978 237.852 184.45 245.121 190.81 254.879C196.614 263.813 197.018 274.261 198.633 284.508L198.617 284.524Z" fill="#1C3F9D"/>
</g>
<defs>
<clipPath id="clip0_11_7340">
<rect width="345.953" height="346.053" fill="white" transform="translate(77.0234 76.9731)"/>
</clipPath>
</defs>
</svg>
