<svg width="500" height="500" viewBox="0 0 500 500" fill="none" xmlns="http://www.w3.org/2000/svg">
<rect width="500" height="500" fill="white"/>
<g clip-path="url(#clip0_11_9357)">
<path d="M390.206 331.85V340.163C390.206 355.814 383.015 369.773 371.778 378.95C337.441 360.724 286.35 324.53 238.055 255.71C195.351 194.872 147.165 165.851 110.401 152.002C113.178 134.346 125.206 119.744 141.354 113.325C178.725 126.291 229.724 155.073 274.654 219.112C315.022 276.64 357.359 311.362 390.206 331.85Z" fill="#F1E02E"/>
<path d="M364.55 383.862C357.322 387.908 349.009 390.207 340.144 390.207H234.781C165.74 390.207 109.794 334.26 109.794 265.22V159.709C145.841 174.275 191.58 203.351 232.335 261.431C279.931 329.258 330.25 365.378 364.55 383.862Z" fill="#502129"/>
<path d="M390.206 234.8V322.931C358.205 302.057 318.277 268.051 280.116 213.65C237.705 153.235 189.888 124.195 153.234 110.236C155.386 109.942 157.593 109.794 159.837 109.794H265.2C334.241 109.794 390.206 165.759 390.206 234.8Z" fill="#502129"/>
</g>
<defs>
<clipPath id="clip0_11_9357">
<rect width="280.411" height="280.411" fill="white" transform="translate(109.794 109.794)"/>
</clipPath>
</defs>
</svg>
