<svg width="500" height="500" viewBox="0 0 500 500" fill="none" xmlns="http://www.w3.org/2000/svg">
<rect width="500" height="500" fill="white"/>
<g clip-path="url(#clip0_11_9370)">
<path d="M213.682 368.277C214.965 362.828 214.827 358.496 213.889 355.047C213.42 353.322 212.73 351.846 211.944 350.549C211.172 349.225 210.261 348.094 209.309 347.142C207.378 345.252 205.308 343.941 203.681 343.1C202.053 342.272 200.894 341.941 200.894 341.941C198.052 348.797 199.197 354.467 201.253 358.151C202.26 360.027 203.446 361.462 204.37 362.427C205.308 363.366 205.998 363.835 205.998 363.835C205.998 363.835 204.274 362.965 201.832 362.124C199.39 361.296 196.107 360.689 193.03 361.131C186.243 362.165 182.794 364.635 182.794 364.635C182.794 364.635 183.36 366.69 185.277 369.022C187.167 371.395 190.575 373.878 195.927 374.706C201.335 375.409 205.777 373.823 208.854 372.029C211.944 370.222 213.682 368.277 213.682 368.277Z" fill="#A44640"/>
<path d="M190.45 359.627C193.678 358.096 195.568 356.316 195.568 356.316C199.072 345.638 196.479 339.058 193.044 334.891C191.347 332.781 189.333 331.374 187.815 330.394C186.298 329.415 185.166 328.973 185.166 328.973C183.428 332.284 182.711 335.361 182.656 338.106C182.628 340.81 183.235 343.196 184.063 345.155C184.877 347.142 185.953 348.646 186.808 349.667C187.663 350.687 188.298 351.226 188.298 351.226C188.298 351.226 186.684 350.163 184.283 349.184C181.911 348.163 178.779 347.17 175.592 347.418C172.143 347.666 169.55 348.246 167.77 348.839C166.004 349.418 165.094 349.956 165.094 349.956C165.094 349.956 165.452 352.067 167.163 354.592C168.018 355.847 169.26 357.144 170.902 358.33C172.557 359.517 174.64 360.579 177.317 361.158C179.979 361.765 182.435 361.765 184.642 361.434C186.863 361.062 188.822 360.372 190.436 359.613L190.45 359.627Z" fill="#A44640"/>
<path d="M173.165 345.694C176.504 344.48 178.545 342.865 178.545 342.865C180.794 337.692 181.415 333.388 181.07 329.87C180.725 326.352 179.552 323.483 177.994 321.303C176.476 319.082 174.71 317.426 173.248 316.35C171.786 315.288 170.751 314.708 170.751 314.708C166.598 320.986 166.847 326.6 168.102 330.698C169.454 334.712 171.758 337.126 171.758 337.126C171.758 337.126 170.268 335.912 167.978 334.698C165.66 333.512 162.653 332.215 159.494 332.132C156.045 332.05 153.327 332.45 151.534 332.822C149.726 333.222 148.774 333.664 148.774 333.664C148.774 333.664 148.816 334.202 149.037 335.085C149.243 335.968 149.671 337.168 150.43 338.478C151.934 341.113 154.762 344.314 159.963 346.011C165.095 347.777 169.868 346.852 173.179 345.666L173.165 345.694Z" fill="#A44640"/>
<path d="M157.203 330.215C160.68 329.29 162.859 327.883 162.859 327.883C164.211 325.414 165.122 323.151 165.715 321.054C166.322 318.93 166.598 316.985 166.612 315.219C166.639 313.439 166.377 311.853 165.991 310.39C165.618 308.914 165.08 307.59 164.432 306.431C163.108 304.113 161.535 302.306 160.238 301.065C158.928 299.837 157.92 299.202 157.92 299.202C155.561 302.085 154.265 304.927 153.671 307.59C153.368 308.928 153.244 310.211 153.244 311.425C153.271 312.625 153.423 313.743 153.644 314.777C154.099 316.847 154.83 318.557 155.451 319.744C156.099 320.903 156.637 321.537 156.637 321.537C156.637 321.537 155.203 320.241 153.092 318.764C150.981 317.288 147.974 315.812 144.897 315.343C141.49 314.888 138.772 314.971 136.91 315.191C135.047 315.412 134.04 315.757 134.04 315.757C134.04 315.757 133.999 317.895 135.227 320.71C136.399 323.551 139.02 326.945 143.973 329.249C149.036 331.429 153.727 331.111 157.189 330.201L157.203 330.215Z" fill="#A44640"/>
<path d="M142.869 313.164C146.401 312.626 148.718 311.439 148.718 311.439C155.092 302.183 154.568 295.243 152.595 290.332C151.643 287.863 150.139 285.973 149.063 284.593C147.932 283.227 147.022 282.482 147.022 282.482C144.331 285.062 142.69 287.739 141.779 290.332C140.882 292.898 140.786 295.326 140.965 297.451C141.145 299.589 141.696 301.355 142.234 302.569C142.759 303.797 143.2 304.5 143.2 304.5C143.2 304.5 141.959 303.024 139.944 301.382C138.013 299.686 135.295 297.809 132.177 297.064C128.853 296.209 126.163 295.961 124.286 295.947C122.41 295.947 121.375 296.154 121.375 296.154C121.375 296.154 121.086 298.292 121.955 301.272C122.369 302.776 123.183 304.404 124.424 306.073C125.693 307.715 127.349 309.425 129.777 310.791C132.164 312.171 134.55 312.916 136.758 313.247C138.992 313.564 141.089 313.44 142.855 313.178L142.869 313.164Z" fill="#A44640"/>
<path d="M136.413 293.601C140.152 289.352 142.083 285.489 142.87 282.109C143.752 278.674 143.518 275.68 142.801 273.17C142.18 270.617 141.035 268.548 140.041 267.1C139.117 265.623 138.331 264.768 138.331 264.768C132.219 269.196 130.55 274.535 130.385 278.812C130.316 280.937 130.716 282.73 131.06 284.027C131.419 285.31 131.764 286.069 131.764 286.069C131.764 286.069 130.729 284.441 128.95 282.551C127.101 280.702 124.783 278.426 121.776 277.295C118.493 276.067 115.913 275.432 114.05 275.17C112.202 274.908 111.153 274.991 111.153 274.991C111.153 274.991 110.546 277.101 111.057 280.192C111.678 283.199 113.237 287.338 117.706 290.676C122.052 294.098 126.88 294.732 130.412 294.636C133.971 294.511 136.399 293.615 136.399 293.615L136.413 293.601Z" fill="#A44640"/>
<path d="M120.272 274.646C122.024 274.826 123.569 274.743 124.659 274.646C125.749 274.536 126.383 274.384 126.383 274.384C134.785 266.907 136.068 260.189 135.433 255.043C135.075 252.477 134.371 250.27 133.571 248.711C132.784 247.152 132.164 246.186 132.164 246.186C128.811 247.938 126.576 250.049 125.045 252.284C123.541 254.505 122.645 256.85 122.341 258.933C122.024 261.016 122.12 262.865 122.286 264.189C122.452 265.514 122.7 266.314 122.7 266.314C122.7 266.314 122.479 265.886 122.107 265.169C121.72 264.465 121.155 263.5 120.41 262.437C119.665 261.375 118.727 260.23 117.651 259.14C116.616 258.036 115.402 257.016 114.022 256.229C111.015 254.519 108.394 253.567 106.642 253.029C104.862 252.491 103.814 252.422 103.814 252.422C103.814 252.422 103.593 252.932 103.372 253.829C103.124 254.739 102.972 256.022 103.041 257.581C103.11 259.14 103.414 260.989 104.159 262.975C104.931 264.934 106.269 266.99 108.187 269.004C110.077 271.018 112.312 272.315 114.395 273.184C116.492 274.053 118.506 274.481 120.272 274.66V274.646Z" fill="#A44640"/>
<path d="M112.905 253.429C116.409 254.256 119.003 254.022 119.003 254.022C121.348 252.477 123.224 250.904 124.714 249.359C126.273 247.8 127.445 246.241 128.328 244.737C129.211 243.22 129.763 241.757 130.136 240.336C130.549 238.916 130.743 237.55 130.77 236.267C130.77 233.715 130.37 231.438 129.887 229.783C129.391 228.127 128.853 227.106 128.853 227.106C125.348 228.32 122.783 230.059 120.906 232.031C119.968 233.011 119.209 234.046 118.589 235.094C118.009 236.129 117.595 237.177 117.264 238.184C116.63 240.199 116.423 242.047 116.368 243.385C116.381 244.71 116.547 245.524 116.547 245.524C116.547 245.524 115.898 243.703 114.809 241.371C113.691 239.04 111.815 236.253 109.415 234.266C106.724 232.114 104.324 230.762 102.613 229.962C100.889 229.162 99.8679 228.927 99.8679 228.927C99.8679 228.927 99.5644 229.397 99.2471 230.252C98.916 231.107 98.5436 232.363 98.3642 233.935C98.2125 235.494 98.1159 237.398 98.6539 239.467C99.1782 241.537 100.13 243.799 101.717 246.075C105.138 250.587 109.401 252.615 112.905 253.442V253.429Z" fill="#A44640"/>
<path d="M103.497 228.155C105.221 229.617 107.111 230.611 108.766 231.287C112.091 232.652 114.685 232.804 114.685 232.804C124.866 228.072 128.039 222.126 129.032 217.105C129.543 214.594 129.294 212.276 129.17 210.566C128.977 208.855 128.618 207.751 128.618 207.751C124.949 208.4 122.121 209.71 119.927 211.366C117.747 213.007 116.395 214.98 115.402 216.87C114.409 218.76 113.912 220.554 113.747 221.864C113.554 223.175 113.567 224.002 113.567 224.002C113.567 224.002 113.264 222.099 112.45 219.629C111.733 217.16 110.436 214.111 108.215 211.766C105.925 209.227 103.8 207.503 102.241 206.454C100.682 205.392 99.7028 205.006 99.7028 205.006C99.7028 205.006 98.2818 206.661 97.3713 209.71C96.8747 211.228 96.6815 213.09 96.8471 215.228C97.054 217.353 97.4679 219.753 98.8474 222.25C100.172 224.761 101.8 226.679 103.51 228.141L103.497 228.155Z" fill="#A44640"/>
<path d="M108.077 208.772C111.126 210.635 113.65 211.2 113.65 211.2C119.1 209.669 122.838 207.544 125.349 205.213C127.984 202.881 129.488 200.343 130.26 197.915C131.198 195.501 131.433 193.197 131.433 191.459C131.419 190.59 131.433 189.872 131.391 189.375C131.364 188.879 131.322 188.589 131.322 188.589C123.735 188.713 119.444 192.162 116.823 195.584C114.409 199.032 113.912 202.357 113.912 202.357C113.912 202.357 113.968 200.44 113.54 197.874C113.043 195.294 112.422 192.107 110.588 189.458C109.608 188.024 108.642 186.796 107.76 185.761C106.904 184.74 106.118 183.926 105.442 183.292C104.09 182.022 103.179 181.484 103.179 181.484C103.179 181.484 102.752 181.829 102.158 182.547C101.565 183.25 100.751 184.312 100.158 185.747C98.9303 188.603 97.8542 192.949 99.7028 198.329C101.358 203.668 105.083 206.924 108.077 208.786V208.772Z" fill="#A44640"/>
<path d="M110.836 186.423C113.609 188.741 116.051 189.692 116.051 189.692C121.555 189.003 125.639 187.471 128.563 185.554C130.026 184.588 131.157 183.526 132.136 182.408C133.143 181.305 133.93 180.16 134.537 179.015C135.144 177.87 135.571 176.724 135.875 175.648C136.22 174.586 136.427 173.593 136.578 172.738C136.896 171.027 136.868 169.868 136.868 169.868C129.474 168.944 124.452 171.648 121.583 174.724C120.106 176.242 119.099 177.814 118.465 178.987C117.872 180.173 117.665 180.987 117.665 180.987C117.665 180.987 117.899 179.07 117.968 176.49C118.01 173.91 117.596 170.585 116.244 167.73C114.726 164.598 113.236 162.349 112.036 160.887C110.863 159.425 110.049 158.776 110.049 158.776C110.049 158.776 108.173 159.921 106.449 162.556C104.697 165.178 103.345 169.371 104.159 174.862C105.18 180.408 108.173 184.147 110.863 186.437L110.836 186.423Z" fill="#A44640"/>
<path d="M121.583 168.751C132.826 168.999 138.317 165.012 141.407 160.805C142.925 158.694 143.849 156.528 144.373 154.845C144.925 153.176 145.077 152.017 145.077 152.017C137.862 150.113 132.551 152.113 129.198 154.707C125.818 157.301 124.439 160.349 124.439 160.349C124.439 160.349 125.018 158.515 125.363 155.949C125.722 153.383 125.873 150.085 124.922 147.05C123.859 143.753 122.673 141.325 121.693 139.711C120.714 138.097 119.997 137.352 119.997 137.352C119.997 137.352 117.996 138.221 115.941 140.566C113.899 142.898 111.816 146.774 111.94 152.376C112.092 157.963 114.547 162.101 116.92 164.778C119.279 167.454 121.555 168.751 121.555 168.751H121.583Z" fill="#A44640"/>
<path d="M130.081 148.83C141.172 150.651 147.187 147.381 150.829 143.601C152.623 141.698 153.823 139.656 154.582 138.056C155.34 136.469 155.658 135.338 155.658 135.338C148.732 132.51 143.214 133.806 139.544 135.945C135.861 138.069 134.067 140.911 134.067 140.911C134.067 140.911 134.881 139.159 135.585 136.676C136.275 134.179 136.882 130.937 136.316 127.805C135.709 124.398 134.826 121.832 134.081 120.121C133.323 118.411 132.702 117.555 132.702 117.555C132.702 117.555 130.605 118.162 128.273 120.204C125.942 122.232 123.376 125.791 122.783 131.323C122.189 136.855 124.079 141.284 126.052 144.25C128.025 147.23 130.094 148.83 130.094 148.83H130.081Z" fill="#A44640"/>
<path d="M280.163 395.621C266.188 392.047 246.943 383.66 232.927 377.052C233.451 372.265 232.927 368.471 231.823 365.491C230.582 362.166 228.678 359.697 226.581 358C224.525 356.234 222.332 355.103 220.635 354.441C218.924 353.792 217.766 353.502 217.766 353.502C215.462 360.69 217.214 366.029 219.49 369.657C221.835 373.189 224.705 374.913 224.705 374.913C224.705 374.913 222.939 374.127 220.414 373.548C217.876 373.009 214.62 372.54 211.557 373.299C208.219 374.141 205.722 375.231 204.094 376.086C202.466 376.955 201.666 377.645 201.666 377.645C201.666 377.645 201.845 378.155 202.287 378.928C202.714 379.714 203.432 380.763 204.508 381.825C206.632 383.949 210.164 386.267 215.6 386.543C220.994 386.902 225.353 384.791 228.25 382.791C229.602 381.853 230.637 380.914 231.396 380.169C245.564 387.053 264.036 398.821 278.246 402.463L280.177 395.621H280.163Z" fill="#A44640"/>
<path d="M160.955 98.062C130.577 108.85 140.993 128.95 140.993 128.95C168.764 122.811 160.955 98.062 160.955 98.062Z" fill="#A44640"/>
<path d="M286.316 368.277C285.033 362.828 285.171 358.496 286.11 355.047C286.579 353.322 287.268 351.846 288.055 350.549C288.827 349.225 289.738 348.094 290.69 347.142C292.621 345.252 294.69 343.941 296.318 343.1C297.946 342.272 299.105 341.941 299.105 341.941C301.947 348.797 300.802 354.467 298.746 358.151C297.739 360.027 296.553 361.462 295.629 362.427C294.69 363.366 294.001 363.835 294.001 363.835C294.001 363.835 295.725 362.965 298.167 362.124C300.609 361.296 303.892 360.689 306.969 361.131C313.756 362.165 317.205 364.635 317.205 364.635C317.205 364.635 316.639 366.69 314.722 369.022C312.832 371.395 309.424 373.878 304.071 374.706C298.664 375.409 294.221 373.823 291.145 372.029C288.055 370.222 286.316 368.277 286.316 368.277Z" fill="#A44640"/>
<path d="M309.548 359.627C306.32 358.096 304.43 356.316 304.43 356.316C300.926 345.638 303.519 339.058 306.955 334.891C308.651 332.781 310.666 331.374 312.183 330.394C313.701 329.415 314.832 328.973 314.832 328.973C316.57 332.284 317.288 335.361 317.343 338.106C317.37 340.81 316.763 343.196 315.936 345.155C315.122 347.142 314.046 348.646 313.19 349.667C312.335 350.687 311.7 351.226 311.7 351.226C311.7 351.226 313.314 350.163 315.715 349.184C318.088 348.163 321.219 347.17 324.406 347.418C327.855 347.666 330.449 348.246 332.228 348.839C333.994 349.418 334.905 349.956 334.905 349.956C334.905 349.956 334.546 352.067 332.835 354.592C331.98 355.847 330.738 357.144 329.097 358.33C327.441 359.517 325.358 360.579 322.682 361.158C320.019 361.765 317.563 361.765 315.356 361.434C313.135 361.062 311.176 360.372 309.562 359.613L309.548 359.627Z" fill="#A44640"/>
<path d="M326.835 345.694C323.496 344.48 321.454 342.865 321.454 342.865C319.206 337.692 318.585 333.388 318.93 329.87C319.275 326.352 320.447 323.483 322.006 321.303C323.524 319.082 325.29 317.426 326.752 316.35C328.214 315.288 329.249 314.708 329.249 314.708C333.401 320.986 333.153 326.6 331.898 330.698C330.546 334.712 328.242 337.126 328.242 337.126C328.242 337.126 329.732 335.912 332.022 334.698C334.339 333.512 337.347 332.215 340.506 332.132C343.955 332.05 346.673 332.45 348.466 332.822C350.273 333.222 351.225 333.664 351.225 333.664C351.225 333.664 351.184 334.202 350.963 335.085C350.756 335.968 350.329 337.168 349.57 338.478C348.066 341.113 345.238 344.314 340.037 346.011C334.905 347.777 330.132 346.852 326.821 345.666L326.835 345.694Z" fill="#A44640"/>
<path d="M342.782 330.215C339.305 329.29 337.125 327.883 337.125 327.883C335.774 325.414 334.863 323.151 334.27 321.054C333.663 318.93 333.387 316.985 333.373 315.219C333.345 313.439 333.608 311.853 333.994 310.39C334.366 308.914 334.904 307.59 335.553 306.431C336.877 304.113 338.45 302.306 339.747 301.065C341.057 299.837 342.064 299.202 342.064 299.202C344.423 302.085 345.72 304.927 346.313 307.59C346.617 308.928 346.741 310.211 346.741 311.425C346.713 312.625 346.562 313.743 346.341 314.777C345.886 316.847 345.155 318.557 344.534 319.744C343.885 320.903 343.347 321.537 343.347 321.537C343.347 321.537 344.782 320.241 346.893 318.764C349.004 317.288 352.011 315.812 355.087 315.343C358.495 314.888 361.213 314.971 363.075 315.191C364.938 315.412 365.945 315.757 365.945 315.757C365.945 315.757 365.986 317.895 364.758 320.71C363.586 323.551 360.964 326.945 356.012 329.249C350.949 331.429 346.258 331.111 342.796 330.201L342.782 330.215Z" fill="#A44640"/>
<path d="M357.129 313.164C353.597 312.626 351.28 311.439 351.28 311.439C344.906 302.183 345.43 295.243 347.403 290.332C348.355 287.863 349.859 285.973 350.935 284.593C352.066 283.227 352.977 282.482 352.977 282.482C355.667 285.062 357.308 287.739 358.219 290.332C359.116 292.898 359.212 295.326 359.033 297.451C358.853 299.589 358.302 301.355 357.764 302.569C357.239 303.797 356.798 304.5 356.798 304.5C356.798 304.5 358.04 303.024 360.054 301.382C361.985 299.686 364.703 297.809 367.821 297.064C371.145 296.209 373.836 295.961 375.712 295.947C377.588 295.947 378.623 296.154 378.623 296.154C378.623 296.154 378.912 298.292 378.043 301.272C377.629 302.776 376.815 304.404 375.574 306.073C374.305 307.715 372.649 309.425 370.221 310.791C367.834 312.171 365.448 312.916 363.24 313.247C361.006 313.564 358.909 313.44 357.143 313.178L357.129 313.164Z" fill="#A44640"/>
<path d="M363.586 293.601C359.847 289.352 357.916 285.489 357.13 282.109C356.247 278.674 356.481 275.68 357.199 273.17C357.819 270.617 358.964 268.548 359.958 267.1C360.882 265.623 361.668 264.768 361.668 264.768C367.78 269.196 369.449 274.535 369.615 278.812C369.684 280.937 369.284 282.73 368.939 284.027C368.58 285.31 368.235 286.069 368.235 286.069C368.235 286.069 369.27 284.441 371.049 282.551C372.898 280.702 375.216 278.426 378.223 277.295C381.506 276.067 384.086 275.432 385.949 275.17C387.797 274.908 388.846 274.991 388.846 274.991C388.846 274.991 389.453 277.101 388.942 280.192C388.321 283.199 386.763 287.338 382.293 290.676C377.947 294.098 373.119 294.732 369.587 294.636C366.028 294.511 363.6 293.615 363.6 293.615L363.586 293.601Z" fill="#A44640"/>
<path d="M379.727 274.646C377.975 274.826 376.43 274.743 375.34 274.646C374.25 274.536 373.615 274.384 373.615 274.384C365.214 266.907 363.931 260.189 364.565 255.043C364.924 252.477 365.628 250.27 366.428 248.711C367.214 247.152 367.835 246.186 367.835 246.186C371.187 247.938 373.422 250.049 374.953 252.284C376.457 254.505 377.354 256.85 377.657 258.933C377.975 261.016 377.878 262.865 377.713 264.189C377.547 265.514 377.299 266.314 377.299 266.314C377.299 266.314 377.519 265.886 377.892 265.169C378.278 264.465 378.844 263.5 379.589 262.437C380.334 261.375 381.272 260.23 382.348 259.14C383.383 258.036 384.597 257.016 385.976 256.229C388.984 254.519 391.605 253.567 393.357 253.029C395.136 252.491 396.185 252.422 396.185 252.422C396.185 252.422 396.406 252.932 396.626 253.829C396.875 254.739 397.026 256.022 396.957 257.581C396.888 259.14 396.585 260.989 395.84 262.975C395.067 264.934 393.729 266.99 391.812 269.004C389.922 271.018 387.687 272.315 385.604 273.184C383.507 274.053 381.493 274.481 379.727 274.66V274.646Z" fill="#A44640"/>
<path d="M387.094 253.429C383.59 254.256 380.996 254.022 380.996 254.022C378.651 252.477 376.775 250.904 375.285 249.359C373.726 247.8 372.553 246.241 371.67 244.737C370.787 243.22 370.236 241.757 369.863 240.336C369.449 238.916 369.256 237.55 369.229 236.267C369.229 233.715 369.629 231.438 370.111 229.783C370.608 228.127 371.146 227.106 371.146 227.106C374.65 228.32 377.216 230.059 379.092 232.031C380.03 233.011 380.789 234.046 381.41 235.094C381.989 236.129 382.403 237.177 382.734 238.184C383.369 240.199 383.576 242.047 383.631 243.385C383.617 244.71 383.452 245.524 383.452 245.524C383.452 245.524 384.1 243.703 385.19 241.371C386.308 239.04 388.184 236.253 390.584 234.266C393.274 232.114 395.675 230.762 397.385 229.962C399.11 229.162 400.131 228.927 400.131 228.927C400.131 228.927 400.434 229.397 400.752 230.252C401.083 231.107 401.455 232.363 401.634 233.935C401.786 235.494 401.883 237.398 401.345 239.467C400.821 241.537 399.869 243.799 398.282 246.075C394.861 250.587 390.598 252.615 387.094 253.442V253.429Z" fill="#A44640"/>
<path d="M396.502 228.155C394.777 229.617 392.887 230.611 391.232 231.287C387.907 232.652 385.313 232.804 385.313 232.804C375.132 228.072 371.959 222.126 370.966 217.105C370.455 214.594 370.704 212.276 370.828 210.566C371.021 208.855 371.38 207.751 371.38 207.751C375.049 208.4 377.878 209.71 380.071 211.366C382.251 213.007 383.603 214.98 384.596 216.87C385.589 218.76 386.086 220.554 386.251 221.864C386.445 223.175 386.431 224.002 386.431 224.002C386.431 224.002 386.734 222.099 387.548 219.629C388.266 217.16 389.562 214.111 391.784 211.766C394.074 209.227 396.198 207.503 397.757 206.454C399.316 205.392 400.295 205.006 400.295 205.006C400.295 205.006 401.716 206.661 402.627 209.71C403.124 211.228 403.317 213.09 403.151 215.228C402.944 217.353 402.53 219.753 401.151 222.25C399.826 224.761 398.199 226.679 396.488 228.141L396.502 228.155Z" fill="#A44640"/>
<path d="M391.922 208.772C388.874 210.635 386.349 211.2 386.349 211.2C380.9 209.669 377.161 207.544 374.65 205.213C372.015 202.881 370.512 200.343 369.739 197.915C368.801 195.501 368.566 193.197 368.566 191.459C368.58 190.59 368.566 189.872 368.608 189.375C368.635 188.879 368.677 188.589 368.677 188.589C376.264 188.713 380.555 192.162 383.176 195.584C385.59 199.032 386.087 202.357 386.087 202.357C386.087 202.357 386.032 200.44 386.459 197.874C386.956 195.294 387.577 192.107 389.412 189.458C390.391 188.024 391.357 186.796 392.24 185.761C393.095 184.74 393.881 183.926 394.557 183.292C395.909 182.022 396.82 181.484 396.82 181.484C396.82 181.484 397.248 181.829 397.841 182.547C398.434 183.25 399.248 184.312 399.841 185.747C401.069 188.603 402.145 192.949 400.296 198.329C398.641 203.668 394.916 206.924 391.922 208.786V208.772Z" fill="#A44640"/>
<path d="M389.163 186.423C386.39 188.741 383.948 189.692 383.948 189.692C378.444 189.003 374.36 187.471 371.435 185.554C369.973 184.588 368.842 183.526 367.862 182.408C366.855 181.305 366.069 180.16 365.462 179.015C364.855 177.87 364.427 176.724 364.124 175.648C363.779 174.586 363.572 173.593 363.42 172.738C363.103 171.027 363.13 169.868 363.13 169.868C370.525 168.944 375.547 171.648 378.416 174.724C379.892 176.242 380.899 177.814 381.534 178.987C382.127 180.173 382.334 180.987 382.334 180.987C382.334 180.987 382.099 179.07 382.031 176.49C381.989 173.91 382.403 170.585 383.755 167.73C385.272 164.598 386.762 162.349 387.963 160.887C389.135 159.425 389.949 158.776 389.949 158.776C389.949 158.776 391.825 159.921 393.55 162.556C395.302 165.178 396.654 169.371 395.84 174.862C394.819 180.408 391.825 184.147 389.135 186.437L389.163 186.423Z" fill="#A44640"/>
<path d="M378.416 168.751C367.172 168.999 361.682 165.012 358.592 160.805C357.074 158.694 356.15 156.528 355.625 154.845C355.074 153.176 354.922 152.017 354.922 152.017C362.137 150.113 367.448 152.113 370.801 154.707C374.181 157.301 375.56 160.349 375.56 160.349C375.56 160.349 374.981 158.515 374.636 155.949C374.277 153.383 374.125 150.085 375.077 147.05C376.14 143.753 377.326 141.325 378.306 139.711C379.285 138.097 380.002 137.352 380.002 137.352C380.002 137.352 382.003 138.221 384.058 140.566C386.1 142.898 388.183 146.774 388.059 152.376C387.907 157.963 385.452 162.101 383.079 164.778C380.72 167.454 378.443 168.751 378.443 168.751H378.416Z" fill="#A44640"/>
<path d="M369.918 148.83C358.826 150.651 352.811 147.381 349.169 143.601C347.376 141.698 346.176 139.656 345.417 138.056C344.658 136.469 344.341 135.338 344.341 135.338C351.266 132.51 356.785 133.806 360.454 135.945C364.138 138.069 365.931 140.911 365.931 140.911C365.931 140.911 365.117 139.159 364.413 136.676C363.724 134.179 363.117 130.937 363.682 127.805C364.289 124.398 365.172 121.832 365.917 120.121C366.676 118.411 367.297 117.555 367.297 117.555C367.297 117.555 369.394 118.162 371.725 120.204C374.057 122.232 376.623 125.791 377.216 131.323C377.809 136.855 375.919 141.284 373.946 144.25C371.974 147.23 369.904 148.83 369.904 148.83H369.918Z" fill="#A44640"/>
<path d="M219.835 395.621C233.81 392.047 253.055 383.66 267.071 377.052C266.547 372.265 267.071 368.471 268.175 365.491C269.417 362.166 271.32 359.697 273.417 358C275.473 356.234 277.666 355.103 279.363 354.441C281.074 353.792 282.233 353.502 282.233 353.502C284.537 360.69 282.785 366.029 280.508 369.657C278.163 373.189 275.294 374.913 275.294 374.913C275.294 374.913 277.059 374.127 279.584 373.548C282.122 373.009 285.378 372.54 288.441 373.299C291.779 374.141 294.276 375.231 295.904 376.086C297.532 376.955 298.332 377.645 298.332 377.645C298.332 377.645 298.153 378.155 297.711 378.928C297.284 379.714 296.566 380.763 295.49 381.825C293.366 383.949 289.834 386.267 284.399 386.543C279.005 386.902 274.645 384.791 271.748 382.791C270.396 381.853 269.361 380.914 268.603 380.169C254.435 387.053 235.962 398.821 221.753 402.463L219.821 395.621H219.835Z" fill="#A44640"/>
<path d="M339.043 98.062C369.421 108.85 359.005 128.95 359.005 128.95C331.235 122.825 339.043 98.062 339.043 98.062Z" fill="#A44640"/>
<path d="M320.888 278.15H172.833V286.828H320.888V278.15Z" fill="#A44640"/>
<path d="M245.661 309.26C239.991 309.26 234.307 308.349 228.899 306.514L225.229 305.273C216.993 302.486 208.219 302.224 199.818 304.486L190.382 307.039L188.119 298.665L197.555 296.112C207.612 293.395 218.138 293.712 228.016 297.05L231.686 298.292C240.97 301.437 251.179 301.341 260.408 298.03L264.257 296.65C273.721 293.257 283.888 292.663 293.683 294.926L305.451 297.644L303.506 306.1L291.738 303.383C283.571 301.493 275.087 302.003 267.196 304.817L263.347 306.197C257.663 308.239 251.676 309.246 245.688 309.246L245.661 309.26Z" fill="#A44640"/>
<path d="M246.833 324.297C241.163 324.297 235.479 323.386 230.071 321.551L226.402 320.31C218.166 317.523 209.392 317.261 200.99 319.523L198.714 311.149C208.771 308.432 219.297 308.749 229.175 312.088L232.844 313.329C242.129 316.475 252.338 316.378 261.567 313.067L265.416 311.688C274.88 308.294 285.047 307.701 294.842 309.963L292.897 318.42C284.73 316.53 276.245 317.026 268.354 319.855L264.505 321.234C258.821 323.262 252.834 324.283 246.847 324.283L246.833 324.297Z" fill="#A44640"/>
<path d="M246.612 338.175C240.942 338.175 235.258 337.265 229.851 335.43L226.181 334.188C222.097 332.809 217.848 332.036 213.53 331.912L213.792 323.235C218.952 323.4 224.056 324.311 228.954 325.966L232.623 327.208C241.908 330.353 252.103 330.257 261.346 326.96L265.195 325.58C269.899 323.897 274.797 322.89 279.777 322.6L280.287 331.264C276.135 331.512 272.038 332.34 268.12 333.747L264.271 335.127C258.587 337.155 252.6 338.175 246.612 338.175Z" fill="#A44640"/>
<path d="M278.646 177.138H214.069C205.529 177.138 198.59 170.199 198.59 161.66V113.016C198.59 104.477 205.529 97.5376 214.069 97.5376H279.625C288.165 97.5376 295.104 104.477 295.104 113.016V126.729H279.474V113.168H214.207V161.522H278.494V148.954H247.44V133.323H278.632C287.172 133.323 294.111 140.263 294.111 148.802V161.66C294.111 170.199 287.172 177.138 278.632 177.138H278.646Z" fill="#A44640"/>
<path d="M278.646 267.197H214.069C205.529 267.197 198.59 260.257 198.59 251.718V203.074C198.59 194.535 205.529 187.596 214.069 187.596H279.625C288.165 187.596 295.104 194.535 295.104 203.074V216.787H279.474V203.226H214.207V251.58H278.494V239.012H247.44V223.382H278.632C287.172 223.382 294.111 230.321 294.111 238.86V251.718C294.111 260.257 287.172 267.197 278.632 267.197H278.646Z" fill="#A44640"/>
</g>
<defs>
<clipPath id="clip0_11_9370">
<rect width="306.443" height="304.925" fill="white" transform="translate(96.7783 97.5376)"/>
</clipPath>
</defs>
</svg>
