<svg width="500" height="500" viewBox="0 0 500 500" fill="none" xmlns="http://www.w3.org/2000/svg">
<rect width="500" height="500" fill="white"/>
<g clip-path="url(#clip0_11_9449)">
<path d="M194.095 143.185C196.784 143.185 198.965 141.004 198.965 138.315C198.965 135.625 196.784 133.445 194.095 133.445C191.405 133.445 189.225 135.625 189.225 138.315C189.225 141.004 191.405 143.185 194.095 143.185Z" fill="#988356"/>
<path d="M317.035 119.485C317.995 115.095 314.355 105.565 311.025 101.425C310.545 100.835 309.835 100.485 309.075 100.485C308.765 100.485 308.445 100.535 308.145 100.655C296.265 105.325 286.215 111.455 272.995 112.255C250.635 113.605 216.465 93.7549 196.655 107.965C189.095 113.385 192.165 116.855 190.945 124.165C190.715 125.535 190.195 126.785 189.535 127.985C185.575 129.735 182.805 133.695 182.805 138.305C182.805 143.255 186.005 147.475 190.455 148.985C191.415 149.525 192.305 150.285 193.495 153.265L208.525 199.215L233.045 274.245C238.975 287.555 244.805 285.325 255.285 277.715C290.505 252.165 309.895 199.335 305.465 157.225C304.685 149.765 302.165 138.035 302.175 132.725C302.175 131.795 302.815 130.995 303.725 130.805C303.865 130.775 304.005 130.755 304.145 130.755C304.645 130.755 305.145 130.955 305.515 131.315C306.325 132.115 306.985 133.025 307.435 134.125C309.235 138.455 310.645 150.675 310.955 155.665C313.555 198.235 298.175 237.005 271.805 269.565C273.275 269.905 273.665 268.745 274.545 268.005C311.475 237.005 318.005 188.385 316.475 143.105C316.305 137.895 314.505 130.955 314.825 125.885C315.035 122.635 316.555 121.725 317.045 119.475L317.035 119.485ZM217.545 117.035C219.265 116.775 221.215 117.715 222.525 119.175L222.575 119.225C222.995 119.695 223.435 120.115 223.945 120.485C224.675 121.035 225.645 121.735 226.825 122.525L217.155 139.415L214.575 134.175L214.555 134.135C214.215 133.575 213.915 132.965 213.655 132.315L213.635 132.275L213.615 132.245C211.345 126.525 211.945 117.845 217.545 117.015V117.035ZM246.055 198.155L240.315 186.495L263.755 139.435C266.555 140.315 269.505 141.175 272.625 141.995C272.665 141.995 272.695 142.015 272.735 142.025L246.065 198.165L246.055 198.155ZM276.835 143.055C279.465 143.695 283.825 144.705 287.585 145.555L255.475 217.295L248.395 202.915L276.835 143.065V143.055ZM238.005 181.795L232.965 171.565L250.885 134.865C253.425 135.885 256.135 136.885 259.045 137.875C259.275 137.955 259.525 138.035 259.765 138.115L238.015 181.795H238.005ZM230.645 166.855L226.425 158.285C236.045 139.945 239.595 133.105 240.915 130.505C242.795 131.415 244.845 132.335 247.035 133.275L230.645 166.855ZM224.155 153.675L219.355 143.935L230.315 124.795C231.085 125.265 231.905 125.755 232.785 126.265C233.065 126.415 233.335 126.565 233.585 126.725C234.705 127.355 235.905 128.005 237.195 128.675C235.245 132.475 229.315 143.815 224.145 153.695L224.155 153.675ZM278.475 231.235C271.715 243.465 261.665 256.045 249.585 263.205C247.315 262.775 238.515 240.365 236.965 236.675C234.695 231.255 232.475 225.825 230.295 220.375C228.085 214.865 225.915 209.345 223.775 203.815C221.615 198.265 219.485 192.695 217.375 187.115C215.265 181.545 213.165 175.985 211.075 170.405C209.005 164.875 206.935 159.335 204.865 153.805C204.285 152.235 203.695 150.675 203.105 149.105C202.805 148.315 202.515 147.515 202.215 146.725C201.945 146.015 201.745 145.135 201.355 144.475C201.335 144.475 201.325 144.475 201.295 144.465C200.425 145.115 199.215 145.585 198.175 145.965C197.245 146.315 196.285 146.555 195.305 146.665C193.435 146.875 191.485 146.615 189.825 145.675C188.415 144.885 187.325 143.635 186.615 142.185C181.395 131.525 198.145 123.145 202.495 135.695L204.985 141.285L253.785 250.795C258.235 247.145 262.295 243.045 265.895 238.555L265.925 238.525L265.245 237.145L264.775 236.185L257.865 222.145L291.735 146.475C291.935 146.515 292.135 146.555 292.315 146.595L292.855 146.715C297.675 175.405 292.505 205.845 278.475 231.245V231.235ZM308.205 121.605C298.575 129.265 283.535 133.285 271.375 132.605C260.625 132.005 232.785 121.395 223.765 115.215C221.705 113.805 219.325 111.055 223.275 111.765C244.835 121.745 270.205 133.215 294.015 123.855C297.065 122.665 308.295 114.545 310.105 116.195C311.875 117.805 309.615 120.485 308.205 121.605Z" fill="#988356"/>
<path d="M142.386 329.935C142.386 330.565 141.136 330.845 138.636 330.785C135.676 330.715 134.096 331.375 133.906 332.775C133.776 333.565 133.706 336.185 133.706 340.615V344.685C125.796 350.045 118.246 352.725 111.066 352.725C101.626 352.725 93.7257 349.405 87.3757 342.755C81.0257 336.105 77.8457 327.825 77.8457 317.925C77.8457 307.415 81.1057 298.675 87.6157 291.695C94.1357 284.715 102.306 281.225 112.156 281.225C116.216 281.225 120.396 282.225 124.726 284.215C126.326 284.945 127.416 285.315 128.016 285.315C129.076 285.315 129.976 284.515 130.706 282.925C131.036 282.125 131.406 281.725 131.806 281.725C132.266 281.725 132.506 282.055 132.506 282.725C132.506 282.855 132.406 284.185 132.206 286.715C132.136 287.515 132.106 289.405 132.106 292.395C132.106 294.655 132.236 298.115 132.506 302.765C132.506 304.025 132.176 304.655 131.506 304.655C130.576 304.655 129.946 303.325 129.606 300.665C128.806 294.815 126.876 290.195 123.826 286.805C121.566 284.345 118.406 283.115 114.346 283.115C101.776 283.115 95.4957 294.285 95.4957 316.625C95.4957 330.525 97.5657 340.195 101.706 345.645C104.306 349.105 107.776 350.835 112.116 350.835C117.586 350.835 120.326 347.375 120.326 340.465C120.326 335.275 120.106 332.375 119.666 331.735C119.226 331.105 118.106 330.785 116.286 330.785H113.766C112.356 330.785 111.646 330.485 111.646 329.885C111.646 329.285 112.206 328.985 113.346 328.985C115.676 328.985 118.596 329.025 122.126 329.085H141.176C141.976 329.085 142.376 329.365 142.376 329.935H142.386Z" fill="black" stroke="black" stroke-miterlimit="10"/>
<path d="M187.436 303.535C187.436 303.885 186.646 304.085 185.066 304.125C183.106 304.175 181.926 304.495 181.506 305.105C181.366 305.295 181.276 305.685 181.226 306.295V335.955C181.226 346.985 175.966 352.505 165.446 352.505C160.046 352.505 155.856 350.855 152.876 347.545C150.646 345.075 149.526 340.705 149.526 334.425V307.615C149.526 306.125 149.296 305.215 148.826 304.895C148.356 304.565 146.896 304.315 144.426 304.125C143.916 304.075 143.656 303.895 143.656 303.565C143.656 303.145 144.076 302.935 144.916 302.935H150.846C154.946 302.985 157.966 302.985 159.926 302.935C162.536 302.935 163.556 302.935 162.996 302.935H164.466C165.256 302.935 165.656 303.165 165.656 303.635C165.656 304.055 164.936 304.265 163.496 304.265C161.446 304.265 160.356 304.635 160.216 305.385C160.126 305.895 160.076 306.385 160.076 306.855V333.005C160.076 336.785 160.146 339.185 160.286 340.205C160.616 343.235 161.476 345.425 162.866 346.775C164.586 348.455 166.846 349.295 169.636 349.295C172.796 349.295 175.126 348.275 176.616 346.225C178.426 343.755 179.336 339.335 179.336 332.965V307.135C179.336 305.925 178.986 305.135 178.296 304.765C177.836 304.485 176.936 304.345 175.606 304.345C173.946 304.295 173.116 304.015 173.116 303.505C173.116 303.135 173.446 302.945 174.096 302.945C174.796 302.945 175.816 302.985 177.166 303.045C178.516 303.115 179.536 303.145 180.236 303.145C180.286 303.145 180.676 303.075 181.426 302.935H185.266C186.706 302.935 187.426 303.135 187.426 303.525L187.436 303.535Z" fill="black" stroke="black" stroke-miterlimit="10"/>
<path d="M211.516 350.805C211.516 351.205 211.216 351.395 210.606 351.395C210.276 351.395 209.976 351.375 209.696 351.325C206.906 351.185 204.506 351.115 202.506 351.115C200.506 351.115 197.336 351.185 193.286 351.325C191.936 351.375 190.936 351.395 190.286 351.395C189.586 351.395 189.236 351.185 189.236 350.765C189.236 350.535 189.366 350.395 189.616 350.345C189.876 350.295 190.766 350.255 192.306 350.205C193.746 349.925 194.586 349.495 194.816 348.915C195.046 348.335 195.166 346.455 195.166 343.295V307.125C195.116 306.285 195.096 305.895 195.096 305.935C195.096 304.775 193.936 304.185 191.606 304.185C190.306 304.185 189.656 304.025 189.656 303.695C189.656 303.365 189.746 303.185 189.936 303.135C190.126 303.085 190.726 303.065 191.746 303.065C191.276 303.065 192.116 303.065 194.256 303.065H210.106C210.706 303.065 211.016 303.245 211.016 303.595C211.016 303.855 210.916 304.025 210.706 304.085C210.496 304.155 209.786 304.205 208.576 304.255C207.136 304.345 206.246 304.655 205.926 305.165L205.716 306.495V345.885C205.716 347.885 205.936 349.065 206.376 349.445C206.816 349.815 208.316 350.075 210.876 350.215C211.296 350.265 211.506 350.465 211.506 350.805H211.516Z" fill="black" stroke="black" stroke-miterlimit="10"/>
<path d="M260.526 303.775C260.526 304.005 260.356 304.145 260.016 304.195C259.676 304.245 258.456 304.315 256.356 304.405C255.126 304.455 254.416 304.705 254.236 305.175C254.056 305.455 253.986 306.945 254.026 309.645V350.765C254.026 351.555 253.866 351.955 253.536 351.955C253.026 351.955 249.636 348.105 243.376 340.405C237.116 332.705 230.236 323.895 222.746 313.985V347.845C222.746 348.825 223.056 349.425 223.666 349.665C224.656 350.035 225.806 350.225 227.126 350.225C228.676 350.225 229.546 350.345 229.736 350.575C229.786 350.625 229.806 350.715 229.806 350.855C229.806 351.225 229.456 351.415 228.756 351.415C228.336 351.415 227.986 351.395 227.706 351.345C224.916 351.255 223.166 351.205 222.466 351.205C220.836 351.205 218.696 351.255 216.046 351.345C214.746 351.395 214.186 351.415 214.366 351.415C213.666 351.415 213.316 351.235 213.316 350.855C213.316 350.525 214.336 350.295 216.386 350.155C218.756 349.965 220.136 349.595 220.506 349.035C220.736 348.665 220.856 346.985 220.856 344.015V315.365C220.856 312.435 220.806 310.675 220.716 310.065C220.436 308.025 219.626 306.535 218.276 305.605C217.256 304.905 215.346 304.515 212.546 304.425C211.806 304.375 211.426 304.155 211.426 303.765C211.426 303.325 211.756 303.105 212.406 303.105C212.686 303.105 213.686 303.155 215.406 303.245C216.246 303.295 217.496 303.315 219.176 303.315C222.616 303.315 225.416 303.245 227.556 303.105L252.056 334.665V306.955C252.056 305.835 251.866 305.125 251.496 304.825C251.126 304.525 250.336 304.345 249.126 304.295L246.126 304.155C245.566 304.105 245.286 303.945 245.286 303.665C245.286 303.295 245.706 303.105 246.546 303.105H251.086C255.786 303.105 258.536 303.125 259.326 303.175C260.116 303.225 260.516 303.435 260.516 303.805L260.526 303.775Z" fill="black" stroke="black" stroke-miterlimit="10"/>
<path d="M308.356 303.775C308.356 304.005 308.186 304.145 307.846 304.195C307.506 304.245 306.286 304.315 304.186 304.405C302.956 304.455 302.246 304.705 302.066 305.175C301.886 305.455 301.816 306.945 301.856 309.645V350.765C301.856 351.555 301.696 351.955 301.366 351.955C300.856 351.955 297.466 348.105 291.206 340.405C284.946 332.705 278.066 323.895 270.576 313.985V347.845C270.576 348.825 270.876 349.425 271.496 349.665C272.486 350.035 273.636 350.225 274.956 350.225C276.506 350.225 277.376 350.345 277.566 350.575C277.616 350.625 277.636 350.715 277.636 350.855C277.636 351.225 277.286 351.415 276.586 351.415C276.166 351.415 275.816 351.395 275.536 351.345C272.746 351.255 270.996 351.205 270.296 351.205C268.666 351.205 266.526 351.255 263.876 351.345C262.576 351.395 262.016 351.415 262.196 351.415C261.496 351.415 261.146 351.235 261.146 350.855C261.146 350.525 262.166 350.295 264.216 350.155C266.586 349.965 267.966 349.595 268.336 349.035C268.566 348.665 268.686 346.985 268.686 344.015V315.365C268.686 312.435 268.636 310.675 268.546 310.065C268.266 308.025 267.456 306.535 266.106 305.605C265.086 304.905 263.176 304.515 260.386 304.425C259.646 304.375 259.266 304.155 259.266 303.765C259.266 303.325 259.596 303.105 260.246 303.105C260.526 303.105 261.526 303.155 263.246 303.245C264.086 303.295 265.336 303.315 267.016 303.315C270.456 303.315 273.256 303.245 275.396 303.105L299.906 334.665V306.955C299.906 305.835 299.716 305.125 299.346 304.825C298.976 304.525 298.186 304.345 296.976 304.295L293.976 304.155C293.416 304.105 293.136 303.945 293.136 303.665C293.136 303.295 293.556 303.105 294.396 303.105H298.936C303.636 303.105 306.386 303.125 307.176 303.175C307.966 303.225 308.366 303.435 308.366 303.805L308.356 303.775Z" fill="black" stroke="black" stroke-miterlimit="10"/>
<path d="M349.475 339.105C349.475 339.195 349.455 341.365 349.405 345.595C349.355 347.825 349.325 349.435 349.305 350.415C349.285 351.395 349.265 351.855 349.265 351.815C336.975 351.255 326.225 351.095 317.015 351.325H311.145C310.305 351.325 309.885 351.145 309.885 350.795C309.885 350.535 309.995 350.375 310.195 350.335C310.405 350.295 311.115 350.225 312.325 350.135C314.515 349.995 315.695 349.365 315.885 348.255C315.975 347.655 316.025 346.975 316.025 346.235V310.895C316.025 308.105 316.005 306.575 315.955 306.295C315.905 305.555 315.675 305.045 315.255 304.765C314.835 304.485 313.975 304.345 312.675 304.345C311.235 304.345 310.515 304.135 310.515 303.715C310.515 303.255 311.155 303.015 312.435 303.015C313.715 303.015 315.495 302.995 317.775 302.945C326.335 302.755 333.345 302.715 338.785 302.805H343.535C344.555 302.805 345.815 302.735 347.305 302.595L347.935 310.205C348.165 312.625 348.285 314.115 348.285 314.675C348.285 315.145 348.055 315.375 347.585 315.375C347.115 315.375 346.815 314.775 346.675 313.565C346.255 310.355 344.955 308.015 342.785 306.545C340.615 305.075 337.405 304.345 333.155 304.345C331.845 304.345 329.605 304.415 326.435 304.555V325.155C331.575 325.205 334.815 324.845 336.155 324.075C337.485 323.305 338.385 321.315 338.855 318.105C339.085 316.385 339.435 315.525 339.905 315.525C340.325 315.525 340.535 315.945 340.535 316.785C340.535 317.625 340.465 319.345 340.325 321.955C340.275 322.835 340.255 324.025 340.255 325.515C340.255 329.515 340.305 332.545 340.395 334.595C340.445 334.875 340.465 335.225 340.465 335.645C340.465 336.205 340.255 336.485 339.835 336.485C339.505 336.485 339.295 336.385 339.205 336.175C339.115 335.965 338.975 335.215 338.785 333.905C338.315 330.605 337.675 328.545 336.855 327.725C336.035 326.915 334.155 326.505 331.205 326.505H326.435V349.965H330.915C336.055 349.875 339.175 349.755 340.295 349.615C341.695 349.425 343.045 348.915 344.355 348.075C345.525 347.145 346.325 346.145 346.775 345.075C347.215 344.005 347.695 342.025 348.215 339.145C348.355 338.445 348.585 338.095 348.915 338.095C349.285 338.095 349.475 338.445 349.475 339.145V339.105Z" fill="black" stroke="black" stroke-miterlimit="10"/>
<path d="M385.776 337.575C385.776 341.815 384.276 345.315 381.276 348.085C378.276 350.855 374.446 352.235 369.796 352.235C366.956 352.235 363.046 351.285 358.066 349.375C357.696 349.235 357.366 349.165 357.086 349.165C356.296 349.165 355.686 350.005 355.266 351.675C355.126 352.185 354.936 352.445 354.706 352.445C354.336 352.445 354.146 352.115 354.146 351.465C354.146 350.865 354.266 349.785 354.496 348.255C354.686 346.995 354.776 345.535 354.776 343.855C354.776 342.505 354.756 341.435 354.706 340.645C354.616 339.065 354.566 338.135 354.566 337.855C354.566 337.115 354.796 336.735 355.266 336.735C355.736 336.735 356.146 337.735 356.526 339.735C357.176 343.185 358.646 345.855 360.926 347.765C363.396 349.815 366.046 350.835 368.886 350.835C371.396 350.835 373.516 350.045 375.236 348.465C376.956 346.885 377.816 344.955 377.816 342.675C377.816 340.715 377.256 339.165 376.136 337.995C375.296 337.155 372.596 335.505 368.036 333.035C362.966 330.335 359.516 327.635 357.706 324.935C356.036 322.465 355.196 319.535 355.196 316.135C355.196 312.135 356.616 308.815 359.456 306.185C362.296 303.555 365.876 302.245 370.206 302.245C372.536 302.245 375.026 302.805 377.676 303.925C378.556 304.295 379.186 304.485 379.566 304.485C380.266 304.485 380.726 303.885 380.966 302.665C381.056 302.245 381.266 302.035 381.596 302.035C382.056 302.035 382.296 302.335 382.296 302.945C382.296 303.175 382.246 303.825 382.156 304.905C382.066 305.975 382.016 306.855 382.016 307.555C382.016 309.975 382.106 312.025 382.296 313.695C382.346 313.835 382.366 314.025 382.366 314.255C382.366 314.675 382.176 314.885 381.806 314.885C381.386 314.885 380.966 314.145 380.546 312.655C380.126 311.165 379.396 309.685 378.346 308.225C377.296 306.755 376.236 305.705 375.166 305.045C373.766 304.205 372.136 303.785 370.276 303.785C367.666 303.785 365.596 304.415 364.066 305.665C362.536 306.915 361.766 308.645 361.766 310.835C361.766 312.745 362.486 314.435 363.926 315.895C365.366 317.365 368.136 319.235 372.236 321.515C377.266 324.305 380.586 326.545 382.216 328.215C384.586 330.685 385.776 333.795 385.776 337.575Z" fill="black" stroke="black" stroke-miterlimit="10"/>
<path d="M422.155 337.575C422.155 341.815 420.655 345.315 417.655 348.085C414.655 350.855 410.825 352.235 406.175 352.235C403.335 352.235 399.425 351.285 394.445 349.375C394.075 349.235 393.745 349.165 393.465 349.165C392.675 349.165 392.065 350.005 391.645 351.675C391.505 352.185 391.315 352.445 391.085 352.445C390.715 352.445 390.525 352.115 390.525 351.465C390.525 350.865 390.645 349.785 390.875 348.255C391.065 346.995 391.155 345.535 391.155 343.855C391.155 342.505 391.135 341.435 391.085 340.645C390.995 339.065 390.945 338.135 390.945 337.855C390.945 337.115 391.175 336.735 391.645 336.735C392.115 336.735 392.525 337.735 392.905 339.735C393.555 343.185 395.025 345.855 397.305 347.765C399.775 349.815 402.425 350.835 405.265 350.835C407.775 350.835 409.895 350.045 411.615 348.465C413.335 346.885 414.195 344.955 414.195 342.675C414.195 340.715 413.635 339.165 412.515 337.995C411.675 337.155 408.975 335.505 404.415 333.035C399.345 330.335 395.895 327.635 394.085 324.935C392.415 322.465 391.575 319.535 391.575 316.135C391.575 312.135 392.995 308.815 395.835 306.185C398.675 303.555 402.255 302.245 406.585 302.245C408.915 302.245 411.405 302.805 414.055 303.925C414.935 304.295 415.565 304.485 415.945 304.485C416.645 304.485 417.105 303.885 417.345 302.665C417.435 302.245 417.645 302.035 417.975 302.035C418.435 302.035 418.675 302.335 418.675 302.945C418.675 303.175 418.625 303.825 418.535 304.905C418.445 305.975 418.395 306.855 418.395 307.555C418.395 309.975 418.485 312.025 418.675 313.695C418.725 313.835 418.745 314.025 418.745 314.255C418.745 314.675 418.555 314.885 418.185 314.885C417.765 314.885 417.345 314.145 416.925 312.655C416.505 311.165 415.775 309.685 414.725 308.225C413.675 306.755 412.615 305.705 411.545 305.045C410.145 304.205 408.515 303.785 406.655 303.785C404.045 303.785 401.975 304.415 400.445 305.665C398.915 306.915 398.145 308.645 398.145 310.835C398.145 312.745 398.865 314.435 400.305 315.895C401.745 317.365 404.515 319.235 408.615 321.515C413.645 324.305 416.965 326.545 418.595 328.215C420.965 330.685 422.155 333.795 422.155 337.575Z" fill="black" stroke="black" stroke-miterlimit="10"/>
<path d="M169.506 399.085V367.405H173.246L191.416 394.075L190.886 394.165V367.415H194.316V399.095H190.576L172.406 372.425L172.936 372.335V399.085H169.506Z" fill="#E1322A"/>
<path d="M200.656 399.085V367.405H204.266V399.085H200.656Z" fill="#E1322A"/>
<path d="M224.856 399.525C221.626 399.525 218.826 398.865 216.456 397.545C214.076 396.225 212.246 394.375 210.956 391.975C209.666 389.585 209.016 386.765 209.016 383.505C209.016 380.245 209.656 377.385 210.926 374.905C212.206 372.425 213.976 370.485 216.246 369.075C218.516 367.665 221.136 366.965 224.096 366.965C226.416 366.965 228.516 367.405 230.406 368.285C232.296 369.165 233.856 370.385 235.066 371.935C236.286 373.495 237.026 375.295 237.286 377.345H233.676C233.386 375.175 232.376 373.445 230.666 372.155C228.946 370.865 226.796 370.215 224.216 370.215C221.896 370.215 219.876 370.765 218.146 371.865C216.416 372.965 215.076 374.495 214.116 376.465C213.166 378.435 212.686 380.745 212.686 383.415C212.686 386.085 213.176 388.385 214.156 390.305C215.136 392.225 216.566 393.705 218.426 394.725C220.286 395.755 222.526 396.265 225.136 396.265C226.926 396.265 228.526 396.005 229.936 395.495C231.346 394.985 232.616 394.185 233.766 393.095L237.376 394.415C235.766 396.115 233.906 397.395 231.806 398.245C229.706 399.095 227.386 399.525 224.836 399.525H224.856ZM233.786 394.415V384.165L235.146 385.525H225.116V382.355H237.396V394.415H233.786Z" fill="#E1322A"/>
<path d="M243.025 399.085V367.405H246.635V399.085H243.025ZM244.875 370.575V367.405H263.885V370.575H244.875ZM244.875 384.165V380.995H262.655V384.165H244.875ZM244.875 399.085V395.915H264.235V399.085H244.875Z" fill="#E1322A"/>
<path d="M268.467 399.085V367.405H280.167C282.427 367.405 284.347 367.775 285.927 368.505C287.507 369.235 288.717 370.255 289.557 371.565C290.397 372.875 290.807 374.415 290.807 376.205C290.807 377.995 290.387 379.555 289.557 380.895C288.727 382.235 287.507 383.275 285.927 384.015C284.347 384.755 282.417 385.135 280.167 385.135H271.107V381.965H280.037C282.387 381.965 284.167 381.455 285.387 380.425C286.607 379.395 287.217 377.995 287.217 376.205C287.217 374.415 286.617 373.065 285.417 372.065C284.217 371.065 282.427 370.565 280.047 370.565H272.087V399.075H268.477L268.467 399.085ZM287.027 399.085L270.177 383.375H275.107L292.487 399.085H287.027Z" fill="#E1322A"/>
<path d="M296.096 399.085V367.405H299.706V399.085H296.096Z" fill="#E1322A"/>
<path d="M303.836 399.085L316.066 367.405H319.236L307.316 399.085H303.836ZM309.906 386.275H326.446V389.445H309.906V386.275ZM329.006 399.085L317.086 367.405H320.476L332.706 399.085H329.006Z" fill="#E1322A"/>
<path d="M209.215 268.035H74.6953V273.145H209.215V268.035Z" fill="#C23C42"/>
<path d="M425.305 268.035H290.785V273.145H425.305V268.035Z" fill="#C23C42"/>
</g>
<defs>
<clipPath id="clip0_11_9449">
<rect width="350.61" height="299.05" fill="white" transform="translate(74.6953 100.475)"/>
</clipPath>
</defs>
</svg>
