<svg width="500" height="500" viewBox="0 0 500 500" fill="none" xmlns="http://www.w3.org/2000/svg">
<rect width="500" height="500" fill="white"/>
<g clip-path="url(#clip0_11_9434)">
<path d="M251.415 121.66H114.755V281.68H251.415V121.66Z" fill="#92C046"/>
<path d="M261.974 111.1H125.314V271.12H261.974V111.1Z" fill="#676769"/>
<path d="M366.485 228.88H248.745V388.9H366.485V228.88Z" fill="#666668"/>
<path d="M385.245 217.51H267.505V377.53H385.245V217.51Z" fill="#92C046"/>
<path d="M274.275 265.26H273.215C272.875 265.26 272.545 265.26 272.255 265.22C272.955 265.22 273.625 265.23 274.275 265.26Z" fill="#FCFEF6"/>
<path d="M276.035 328.94C276.035 328.94 276.115 328.92 276.155 328.91C284.725 326.46 288.415 320.79 289.785 317.86" stroke="#FCFEF6" stroke-miterlimit="10"/>
<path d="M348.225 262.235V266.445C346.805 266.555 345.045 266.595 342.955 266.575H342.945C330.325 267.185 327.985 272.945 327.865 273.235V273.505V273.545C327.745 276.525 327.635 282.305 327.565 287.775V288.435L326.985 315.615C303.965 329.125 282.005 335.885 261.135 335.885C233.465 335.885 210.345 327.395 191.725 310.425C173.155 293.445 163.845 272.315 163.845 247.015C163.845 220.195 173.405 197.865 192.475 180.045C211.545 162.215 235.505 153.305 264.345 153.305C276.195 153.305 288.465 155.855 301.115 160.945C305.785 162.815 309.005 163.745 310.755 163.745C313.885 163.745 316.515 161.705 318.645 157.635C319.315 156.235 320.065 154.155 320.895 152.965H327.365V210.935H322.695C315.345 177.415 292.315 165.565 276.595 161.375C269.115 159.385 261.415 158.955 253.865 160.515C253.475 160.635 253.095 160.755 252.705 160.885C227.935 169.285 215.555 196.885 215.555 243.695C215.555 279.175 221.605 303.875 233.705 317.795C241.345 326.625 251.525 331.035 264.215 331.035C267.065 331.035 269.655 330.755 271.995 330.205C278.485 328.665 283.035 324.975 285.625 319.155C285.665 319.065 285.715 318.975 285.745 318.885C285.825 318.705 285.895 318.535 285.955 318.385C285.995 318.285 286.035 318.195 286.075 318.105C286.105 318.015 286.135 317.935 286.165 317.865C286.285 317.525 286.335 317.345 286.335 317.345L285.405 273.255C285.405 273.255 283.255 267.145 270.105 266.565C269.455 266.535 268.785 266.525 268.085 266.525V261.985C274.885 261.985 283.355 262.075 293.505 262.235H348.215H348.225Z" fill="#222018"/>
<path d="M358.075 254.43V258.64C356.655 258.75 354.895 258.79 352.805 258.77H352.795C340.175 259.38 337.835 265.14 337.715 265.43V265.7V265.74C337.595 268.72 337.485 274.5 337.415 279.97V280.63L336.835 307.81C313.815 321.32 291.855 328.08 270.985 328.08C243.315 328.08 220.195 319.59 201.575 302.62C183.005 285.64 173.695 264.51 173.695 239.21C173.695 212.39 183.255 190.06 202.325 172.24C221.395 154.41 245.355 145.5 274.195 145.5C286.045 145.5 298.315 148.05 310.965 153.14C315.635 155.01 318.855 155.94 320.605 155.94C323.735 155.94 326.365 153.9 328.495 149.83C329.165 148.43 329.915 146.35 330.745 145.16H337.215V203.13H332.545C325.195 169.61 302.165 157.76 286.445 153.57C278.965 151.58 271.265 151.15 263.715 152.71C263.325 152.83 262.945 152.95 262.555 153.08C237.785 161.48 225.405 189.08 225.405 235.89C225.405 271.37 231.455 296.07 243.555 309.99C251.195 318.82 261.375 323.23 274.065 323.23C276.915 323.23 279.505 322.95 281.845 322.4C288.335 320.86 292.885 317.17 295.475 311.35C295.515 311.26 295.565 311.17 295.595 311.08C295.675 310.9 295.745 310.73 295.805 310.58C295.845 310.48 295.885 310.39 295.925 310.3C295.955 310.21 295.985 310.13 296.015 310.06C296.135 309.72 296.185 309.54 296.185 309.54L295.255 265.45C295.255 265.45 293.105 259.34 279.955 258.76C279.305 258.73 278.635 258.72 277.935 258.72V254.18C284.735 254.18 293.205 254.27 303.355 254.43H358.065H358.075Z" fill="#FCFEF6" stroke="#FCFEF6" stroke-miterlimit="10"/>
</g>
<defs>
<clipPath id="clip0_11_9434">
<rect width="270.49" height="277.8" fill="white" transform="translate(114.755 111.1)"/>
</clipPath>
</defs>
</svg>
