<svg width="500" height="500" viewBox="0 0 500 500" fill="none" xmlns="http://www.w3.org/2000/svg">
<rect width="500" height="500" fill="white"/>
<g clip-path="url(#clip0_11_9477)">
<path d="M249.991 422.769C345.414 422.769 422.769 345.414 422.769 249.991C422.769 154.569 345.414 77.2134 249.991 77.2134C154.568 77.2134 77.2129 154.569 77.2129 249.991C77.2129 345.414 154.568 422.769 249.991 422.769Z" fill="#532058"/>
<path d="M249.99 390.027C327.329 390.027 390.025 327.331 390.025 249.992C390.025 172.652 327.329 109.957 249.99 109.957C172.651 109.957 109.955 172.652 109.955 249.992C109.955 327.331 172.651 390.027 249.99 390.027Z" stroke="white" stroke-width="6.68904" stroke-miterlimit="10"/>
<path d="M249.991 407.602C337.037 407.602 407.602 337.037 407.602 249.991C407.602 162.945 337.037 92.3804 249.991 92.3804C162.946 92.3804 92.3809 162.945 92.3809 249.991C92.3809 337.037 162.946 407.602 249.991 407.602Z" stroke="white" stroke-width="6.68904" stroke-miterlimit="10"/>
<path d="M166.729 170.492C166.729 143.535 204.003 121.679 249.974 121.679C295.944 121.679 333.219 143.535 333.219 170.492H166.729Z" fill="url(#paint0_linear_11_9477)"/>
<path d="M357.349 291.312C357.349 338.955 309.272 377.584 249.974 377.584C190.675 377.584 142.598 338.955 142.598 291.312" fill="url(#paint1_linear_11_9477)"/>
<path d="M200.475 233.587H140.508V188.72H121.16V311.966H140.508V252.935H200.475V311.966H219.84V188.72H200.475V233.587Z" fill="white"/>
<path d="M356.614 213.754L349.724 183.335L337.383 210.158L307.182 275.811L276.663 209.473L264.004 181.964L257.131 212.399L234.605 311.965H253.485L269.907 239.356L304.305 311.965L307.198 318.036L310.075 311.965L344.139 240.058L360.41 311.965H378.821L356.614 213.754Z" fill="white"/>
</g>
<defs>
<linearGradient id="paint0_linear_11_9477" x1="239.99" y1="121.679" x2="239.99" y2="170.492" gradientUnits="userSpaceOnUse">
<stop stop-color="#FFFEFF"/>
<stop offset="1" stop-color="#532058"/>
</linearGradient>
<linearGradient id="paint1_linear_11_9477" x1="249.974" y1="377.584" x2="249.974" y2="297.101" gradientUnits="userSpaceOnUse">
<stop stop-color="white"/>
<stop offset="1" stop-color="#532058"/>
</linearGradient>
<clipPath id="clip0_11_9477">
<rect width="345.573" height="345.573" fill="white" transform="translate(77.2129 77.2134)"/>
</clipPath>
</defs>
</svg>
