<svg width="500" height="500" viewBox="0 0 500 500" fill="none" xmlns="http://www.w3.org/2000/svg">
<rect width="500" height="500" fill="white"/>
<g clip-path="url(#clip0_11_9490)">
<path d="M430.404 268.216L409.687 339.53C409.687 339.53 352.073 317.75 254.051 317.75C146.903 317.75 88.5786 336.376 88.5786 336.376L69.5977 265.753C69.5977 265.753 122.659 247.014 233.278 245.185L189.773 201.307L250.02 141.061L310.621 201.475L268.105 245.223C369.523 247.406 430.404 268.216 430.404 268.216Z" fill="#D13833"/>
<path d="M138.205 348.694H150.243V351.27H141.229V366.929H138.205V348.694ZM139.829 356.458H149.478V359.034H139.829V356.458Z" fill="#B19A59"/>
<path d="M153.902 348.694H156.925V364.353H165.585V366.929H153.902V348.694Z" fill="#B19A59"/>
<path d="M171.426 366.07C170.027 365.286 168.925 364.185 168.123 362.729C167.32 361.292 166.91 359.612 166.91 357.69C166.91 355.786 167.32 354.144 168.141 352.706C168.963 351.288 170.083 350.187 171.482 349.422C172.882 348.656 174.413 348.283 176.055 348.283C177.697 348.283 179.246 348.656 180.646 349.422C182.046 350.187 183.147 351.269 183.968 352.688C184.79 354.106 185.2 355.767 185.2 357.671C185.2 359.593 184.79 361.254 183.968 362.71C183.147 364.166 182.046 365.286 180.646 366.051C179.246 366.835 177.716 367.227 176.055 367.227C174.394 367.227 172.826 366.835 171.426 366.051V366.07ZM179.116 363.718C180.03 363.158 180.739 362.356 181.262 361.31C181.785 360.265 182.027 359.071 182.027 357.708C182.027 356.346 181.766 355.17 181.243 354.144C180.721 353.136 180.012 352.352 179.097 351.792C178.183 351.232 177.175 350.971 176.055 350.971C174.935 350.971 173.909 351.251 173.013 351.792C172.117 352.333 171.389 353.117 170.866 354.144C170.344 355.151 170.083 356.327 170.083 357.671C170.083 359.033 170.344 360.228 170.866 361.273C171.389 362.318 172.098 363.121 173.013 363.699C173.909 364.278 174.935 364.558 176.055 364.558C177.175 364.558 178.201 364.278 179.116 363.718Z" fill="#B19A59"/>
<path d="M192.329 366.35C191.21 365.753 190.351 364.894 189.735 363.774C189.119 362.655 188.802 361.273 188.802 359.687V348.694H191.825V359.538C191.825 360.583 192.012 361.479 192.367 362.244C192.74 363.009 193.244 363.569 193.897 363.98C194.55 364.372 195.316 364.577 196.193 364.577C197.07 364.577 197.854 364.39 198.507 363.998C199.16 363.606 199.664 363.046 200.037 362.3C200.411 361.553 200.579 360.658 200.579 359.612V348.713H203.602V359.687C203.602 361.273 203.285 362.636 202.669 363.756C202.053 364.894 201.176 365.771 200.056 366.369C198.936 366.966 197.649 367.264 196.193 367.264C194.737 367.264 193.449 366.966 192.329 366.369V366.35Z" fill="#B19A59"/>
<path d="M208.231 348.694H216.181C217.544 348.694 218.682 348.937 219.597 349.403C220.511 349.87 221.202 350.504 221.65 351.326C222.098 352.128 222.322 353.061 222.322 354.107C222.322 355.525 221.967 356.663 221.239 357.541C220.511 358.418 219.597 358.996 218.458 359.295V359.351L222.788 366.966H219.317L215.509 360.116C215.397 359.93 215.323 359.799 215.229 359.743C215.155 359.687 214.987 359.668 214.744 359.668H209.854V357.111H215.883C217.003 357.111 217.842 356.85 218.402 356.328C218.962 355.805 219.261 355.096 219.261 354.219C219.261 353.304 218.962 352.595 218.384 352.091C217.805 351.568 216.965 351.307 215.864 351.307H211.179V366.966H208.212V348.731L208.231 348.694Z" fill="#B19A59"/>
<path d="M233.595 348.694H238.597L243.916 364.614H243.188L248.507 348.694H253.359V366.929H250.467V349.366H250.971L245.035 366.929H241.956L235.984 349.366H236.506V366.929H233.613V348.694H233.595Z" fill="#B19A59"/>
<path d="M258.157 348.694H261.18V366.929H258.157V348.694Z" fill="#B19A59"/>
<path d="M266.014 348.694H269.038V364.353H277.698V366.929H266.014V348.694Z" fill="#B19A59"/>
<path d="M281.038 348.694H284.061V364.353H292.721V366.929H281.038V348.694Z" fill="#B19A59"/>
<path d="M297.127 365.715C295.764 364.689 294.999 363.214 294.85 361.254H297.798C297.948 362.374 298.433 363.214 299.254 363.811C300.075 364.409 301.083 364.689 302.278 364.689C303.024 364.689 303.696 364.577 304.312 364.371C304.928 364.147 305.395 363.849 305.749 363.438C306.104 363.027 306.272 362.542 306.272 361.982C306.272 361.254 305.954 360.695 305.301 360.247C304.648 359.799 303.715 359.444 302.502 359.183L300.598 358.772C298.862 358.38 297.556 357.783 296.697 356.962C295.839 356.141 295.409 355.058 295.409 353.752C295.409 352.688 295.708 351.755 296.305 350.933C296.903 350.112 297.705 349.459 298.732 349.011C299.739 348.544 300.859 348.321 302.072 348.321C303.976 348.321 305.563 348.806 306.813 349.776C308.063 350.747 308.773 352.091 308.959 353.808H306.01C305.88 352.912 305.451 352.184 304.76 351.661C304.069 351.139 303.174 350.859 302.072 350.859C301.401 350.859 300.766 350.971 300.206 351.195C299.646 351.419 299.198 351.736 298.844 352.128C298.489 352.52 298.34 352.986 298.34 353.49C298.34 354.181 298.582 354.685 299.049 355.058C299.534 355.431 300.299 355.711 301.382 355.935L303.566 356.402C305.376 356.775 306.776 357.41 307.765 358.25C308.754 359.108 309.258 360.228 309.258 361.646C309.258 362.878 308.941 363.886 308.287 364.726C307.634 365.566 306.776 366.2 305.712 366.611C304.648 367.022 303.51 367.245 302.278 367.245C300.206 367.245 298.489 366.742 297.127 365.715Z" fill="#B19A59"/>
<path d="M320.213 348.694H327.194C328.612 348.694 329.825 348.918 330.796 349.385C331.785 349.851 332.513 350.504 333.017 351.363C333.521 352.222 333.763 353.229 333.763 354.368C333.763 355.581 333.502 356.589 332.998 357.466C332.494 358.325 331.729 358.996 330.74 359.463C329.751 359.93 328.556 360.172 327.138 360.172H323.2V366.947H320.176V348.713L320.213 348.694ZM329.751 356.738C330.385 356.178 330.721 355.413 330.721 354.424C330.721 353.435 330.404 352.688 329.751 352.11C329.097 351.55 328.183 351.27 327.007 351.27H323.256V357.578H327.007C328.201 357.578 329.135 357.298 329.769 356.738H329.751Z" fill="#B19A59"/>
<path d="M337.197 348.694H340.221V364.353H348.881V366.929H337.197V348.694Z" fill="#B19A59"/>
<path d="M354.666 366.07C353.304 365.286 352.221 364.185 351.419 362.729C350.616 361.292 350.205 359.612 350.205 357.69C350.205 355.786 350.616 354.144 351.437 352.706C352.258 351.288 353.341 350.187 354.703 349.422C356.066 348.656 357.522 348.283 359.108 348.283C360.508 348.283 361.796 348.544 362.971 349.067C364.128 349.59 365.099 350.318 365.846 351.251C366.592 352.184 367.059 353.285 367.245 354.536H364.24C364.054 353.826 363.718 353.192 363.233 352.669C362.747 352.128 362.15 351.717 361.441 351.419C360.732 351.12 359.966 350.971 359.108 350.971C358.044 350.971 357.092 351.251 356.215 351.811C355.338 352.371 354.666 353.154 354.162 354.162C353.658 355.17 353.416 356.346 353.416 357.671C353.416 359.033 353.658 360.228 354.162 361.273C354.666 362.318 355.357 363.121 356.215 363.699C357.074 364.278 358.044 364.558 359.108 364.558C360.396 364.558 361.478 364.241 362.374 363.606C363.27 362.972 363.905 362.094 364.259 360.993H367.264C367.021 362.281 366.517 363.382 365.771 364.334C365.024 365.267 364.072 365.995 362.934 366.499C361.796 367.003 360.508 367.264 359.108 367.264C357.503 367.264 356.028 366.872 354.685 366.088L354.666 366.07Z" fill="#B19A59"/>
<path d="M107.709 341.733C108.474 341.583 183.558 324.319 255.264 324.319C326.97 324.319 391.602 341.191 392.255 341.322V341.359C391.602 341.229 326.596 328.052 255.264 328.052C183.931 328.052 108.455 341.583 107.69 341.733H107.709Z" fill="url(#paint0_linear_11_9490)"/>
<path d="M429.134 259.911C428.537 259.743 373.964 244.942 299.87 240.948C307.596 237.365 326.167 228.5 343.524 218.253C346.585 218.048 352.968 217.077 360.303 212.71C367.283 208.548 371.631 200.336 372.751 198.003C372.882 197.723 372.677 197.406 372.359 197.443C369.746 197.705 360.303 198.918 353.472 203.696C347.481 207.895 343.785 214.017 342.329 216.816C321.65 229.022 299.254 239.231 295.876 240.762C290.724 240.519 285.48 240.314 280.161 240.183L319.298 201.811L250.504 132.755L182.792 200.859L220.362 239.194C217.096 239.213 210.303 239.343 200.728 239.866C199.552 239.343 175.737 228.668 153.882 215.752C152.426 212.953 148.731 206.831 142.74 202.632C135.909 197.854 126.465 196.641 123.852 196.379C123.535 196.342 123.311 196.659 123.46 196.939C124.58 199.272 128.929 207.466 135.909 211.646C143.225 216.014 149.608 216.984 152.688 217.189C170.344 227.641 189.269 236.637 196.753 240.071C169.634 241.714 123.703 246.305 70.8848 259.22L71.3327 261.03C155.338 240.482 221.93 241.023 222.602 241.023H224.86L185.461 200.84L250.523 135.405L316.648 201.792L275.681 241.937L277.902 241.993C284.099 242.124 290.183 242.348 296.174 242.647C296.174 242.647 296.193 242.647 296.211 242.647C371.911 246.323 428.052 261.553 428.668 261.721L429.172 259.929L429.134 259.911Z" fill="url(#paint1_linear_11_9490)"/>
<path d="M331.859 218.925C332.998 218.253 334.099 217.544 335.219 216.835C338.821 214.502 342.777 212.02 345.148 208.362C347.275 205.095 348.395 201.176 348.806 197.313C348.843 196.921 348.433 196.641 348.078 196.827C347.723 197.014 347.369 197.201 347.033 197.387C343.057 199.552 338.933 202.296 336.395 206.122C335.125 208.026 334.248 210.209 333.39 212.318C332.587 214.297 331.841 216.312 331.131 218.328C330.982 218.776 331.467 219.149 331.859 218.925Z" fill="url(#paint2_linear_11_9490)"/>
<path d="M352.763 230.814C356.608 230.254 360.322 228.537 363.495 226.316C363.812 226.092 363.756 225.588 363.383 225.439C363.009 225.29 362.636 225.159 362.263 225.01C358.026 223.442 353.248 222.135 348.694 222.751C346.417 223.05 344.196 223.815 342.05 224.562C340.016 225.252 338.019 226.017 336.04 226.82C335.611 226.988 335.63 227.604 336.078 227.753C337.328 228.164 338.597 228.537 339.867 228.91C343.991 230.086 348.452 231.43 352.782 230.814H352.763Z" fill="url(#paint3_linear_11_9490)"/>
<path d="M315.827 221.445C315.025 223.424 314.278 225.439 313.569 227.455C313.42 227.903 313.905 228.276 314.297 228.052C315.435 227.38 316.536 226.671 317.656 225.962C321.258 223.629 325.215 221.147 327.585 217.489C329.713 214.222 330.833 210.303 331.243 206.44C331.281 206.048 330.87 205.768 330.515 205.954C330.161 206.141 329.806 206.328 329.47 206.514C325.495 208.679 321.37 211.423 318.832 215.249C317.563 217.153 316.686 219.336 315.827 221.445Z" fill="url(#paint4_linear_11_9490)"/>
<path d="M345.913 233.613C341.676 232.008 336.917 230.646 332.363 231.206C330.086 231.485 327.865 232.232 325.7 232.941C323.665 233.613 321.65 234.36 319.671 235.144C319.242 235.312 319.261 235.927 319.69 236.077C320.941 236.487 322.191 236.898 323.46 237.271C327.566 238.503 332.027 239.884 336.357 239.306C340.22 238.802 343.934 237.103 347.126 234.92C347.462 234.696 347.406 234.21 347.032 234.042C346.659 233.893 346.305 233.744 345.931 233.613H345.913Z" fill="url(#paint5_linear_11_9490)"/>
<path d="M372.135 243.02C371.725 243.263 371.855 243.86 372.303 243.935C373.61 244.14 374.916 244.327 376.222 244.495C380.478 245.036 385.088 245.689 389.268 244.439C393.001 243.319 396.398 241.042 399.197 238.373C399.477 238.093 399.347 237.627 398.955 237.533C398.563 237.44 398.19 237.365 397.798 237.272C393.374 236.357 388.447 235.779 384.043 237.085C381.84 237.72 379.769 238.821 377.734 239.885C375.831 240.874 373.964 241.938 372.135 243.02Z" fill="url(#paint6_linear_11_9490)"/>
<path d="M355.376 235.367C353.099 236.823 350.878 238.354 348.676 239.921C348.19 240.257 348.433 241.022 349.03 241.06C350.71 241.19 352.39 241.284 354.069 241.358C359.538 241.601 365.492 241.937 370.643 239.903C375.215 238.092 379.247 234.863 382.438 231.205C382.774 230.832 382.532 230.235 382.028 230.16C381.524 230.086 381.02 230.03 380.516 229.955C374.767 229.283 368.44 229.059 363.009 231.168C360.303 232.213 357.802 233.818 355.376 235.367Z" fill="url(#paint7_linear_11_9490)"/>
<path d="M312.952 214.745C312.598 214.931 312.243 215.118 311.907 215.305C307.932 217.47 303.807 220.213 301.269 224.039C300 225.943 299.123 228.127 298.264 230.236C297.462 232.214 296.715 234.23 296.006 236.245C295.856 236.693 296.342 237.066 296.734 236.842C297.872 236.171 298.973 235.461 300.093 234.752C303.695 232.419 307.652 229.937 310.022 226.279C312.15 223.013 313.27 219.093 313.68 215.23C313.718 214.838 313.307 214.558 312.952 214.745Z" fill="url(#paint8_linear_11_9490)"/>
<path d="M391.509 246.137C391.005 246.174 390.912 246.883 391.378 247.051C409.65 254.218 422.752 256.159 423.405 254.89C424.058 253.565 414.708 247.648 407.989 246.323C402.968 245.334 395.13 245.819 391.509 246.137Z" fill="url(#paint9_linear_11_9490)"/>
<path d="M160.975 215.771C162.076 216.481 163.196 217.19 164.334 217.862C164.745 218.104 165.211 217.712 165.062 217.264C164.353 215.249 163.625 213.233 162.804 211.255C161.945 209.146 161.049 206.962 159.799 205.058C157.261 201.214 153.136 198.489 149.161 196.324C148.806 196.137 148.47 195.951 148.115 195.764C147.761 195.577 147.35 195.857 147.388 196.249C147.798 200.094 148.937 204.032 151.046 207.298C153.416 210.956 157.373 213.438 160.975 215.771Z" fill="url(#paint10_linear_11_9490)"/>
<path d="M160.171 225.755C158.193 224.953 156.177 224.188 154.162 223.497C151.997 222.751 149.776 221.985 147.517 221.687C142.963 221.071 138.186 222.377 133.949 223.945C133.576 224.076 133.202 224.225 132.829 224.374C132.456 224.524 132.4 225.009 132.717 225.252C135.89 227.473 139.585 229.208 143.449 229.75C147.779 230.365 152.239 229.022 156.364 227.846C157.633 227.491 158.884 227.099 160.153 226.689C160.601 226.539 160.619 225.923 160.19 225.755H160.171Z" fill="url(#paint11_linear_11_9490)"/>
<path d="M178.556 224.916C179.657 225.626 180.777 226.335 181.915 227.007C182.326 227.249 182.792 226.857 182.643 226.409C181.934 224.394 181.206 222.378 180.385 220.4C179.526 218.291 178.63 216.107 177.38 214.203C174.842 210.359 170.717 207.634 166.742 205.469C166.387 205.282 166.051 205.095 165.696 204.909C165.342 204.722 164.931 205.002 164.968 205.394C165.379 209.239 166.518 213.177 168.627 216.443C170.997 220.101 174.954 222.583 178.556 224.916Z" fill="url(#paint12_linear_11_9490)"/>
<path d="M149.179 232.998C148.805 233.147 148.749 233.651 149.085 233.875C152.277 236.059 155.991 237.757 159.854 238.261C164.184 238.84 168.645 237.44 172.751 236.227C174.02 235.853 175.27 235.461 176.521 235.032C176.969 234.883 176.987 234.267 176.54 234.099C174.543 233.315 172.527 232.569 170.511 231.897C168.346 231.187 166.107 230.441 163.848 230.161C159.276 229.601 154.516 230.963 150.298 232.569C149.925 232.718 149.552 232.849 149.197 232.998H149.179Z" fill="url(#paint13_linear_11_9490)"/>
<path d="M106.906 243.394C111.087 244.663 115.715 244.009 119.952 243.45C121.258 243.282 122.565 243.095 123.871 242.89C124.338 242.815 124.45 242.218 124.039 241.975C122.191 240.893 120.325 239.829 118.44 238.84C116.424 237.776 114.334 236.693 112.132 236.04C107.708 234.752 102.8 235.331 98.3766 236.227C97.9847 236.301 97.5927 236.395 97.2194 236.488C96.8275 236.581 96.6969 237.048 96.9768 237.328C99.7764 239.997 103.173 242.274 106.906 243.394Z" fill="url(#paint14_linear_11_9490)"/>
<path d="M125.55 238.858C130.702 240.892 136.637 240.556 142.124 240.313C143.803 240.239 145.483 240.145 147.163 240.015C147.76 239.977 147.984 239.212 147.517 238.876C145.334 237.308 143.094 235.778 140.817 234.322C138.391 232.773 135.89 231.168 133.184 230.123C127.753 228.033 121.426 228.238 115.677 228.91C115.173 228.966 114.669 229.04 114.165 229.115C113.662 229.19 113.419 229.768 113.755 230.16C116.946 233.837 120.959 237.047 125.55 238.858Z" fill="url(#paint15_linear_11_9490)"/>
<path d="M196.118 233.688C197.219 234.397 198.339 235.106 199.478 235.778C199.888 236.021 200.355 235.629 200.206 235.181C199.496 233.165 198.768 231.149 197.947 229.171C197.089 227.062 196.193 224.878 194.942 222.975C192.404 219.13 188.279 216.405 184.304 214.24C183.949 214.053 183.613 213.867 183.259 213.68C182.904 213.493 182.494 213.773 182.531 214.165C182.942 218.01 184.08 221.948 186.189 225.214C188.559 228.872 192.516 231.355 196.118 233.688Z" fill="url(#paint16_linear_11_9490)"/>
<path d="M104.815 246.006C105.282 245.819 105.188 245.129 104.684 245.092C101.064 244.774 93.2248 244.289 88.2043 245.278C81.4854 246.603 72.1348 252.52 72.7881 253.845C73.4226 255.114 86.5246 253.192 104.815 246.006Z" fill="url(#paint17_linear_11_9490)"/>
<path d="M240.897 195.274H263.883V167.242L280.744 183.082V220.226L263.883 236.664V209.111H240.897V237.274L224.018 221.47V183.082L240.897 167.241V195.274Z" fill="white" stroke="#DFAD0E"/>
<path d="M93.3379 282.101L102.539 280.422L104.853 293.094L116.182 291.023L113.868 278.35L123.069 276.67L129.284 310.75L120.083 312.43L117.563 298.656L106.234 300.728L108.754 314.501L99.5529 316.181L93.3379 282.101Z" fill="white"/>
<path d="M132.42 292.646C130.553 280.104 138.336 273.591 146.623 272.359C154.872 271.127 164.204 275.084 166.07 287.644C167.937 300.186 160.154 306.7 151.905 307.932C143.618 309.164 134.267 305.207 132.401 292.665L132.42 292.646ZM156.813 289.007C155.88 282.717 152.576 279.264 147.761 279.992C142.909 280.72 140.744 284.957 141.677 291.265C142.61 297.555 145.951 301.232 150.822 300.504C155.637 299.795 157.765 295.297 156.832 289.007H156.813Z" fill="white"/>
<path d="M170.456 269.597L179.62 268.589L194.364 286.506H194.458L192.33 267.189L200.841 266.256L204.629 300.69L196.025 301.642L180.74 283.837H180.646L182.774 303.117L174.263 304.05L170.475 269.615L170.456 269.597Z" fill="white"/>
<path d="M209.724 265.509L234.398 263.997L234.883 271.762L219.56 272.713L219.915 278.312L230.852 277.641L231.299 284.938L220.363 285.61L220.755 292.012L236.88 291.022L237.347 298.544L211.871 300.112L209.743 265.528L209.724 265.509Z" fill="white"/>
<path d="M251.252 283.893L239.363 263.606L249.012 263.699L256.067 276.036L263.383 263.83L272.939 263.923L260.621 283.987L260.49 298.451L251.121 298.358L251.252 283.893Z" fill="white"/>
<path d="M277.026 264.073L286.395 264.931L288.075 278.761C288.43 281.057 288.728 282.811 288.915 286.04H289.008C289.718 283.016 290.334 281.28 291.061 279.097L295.167 265.752L303.603 266.536L305.414 280.478C305.824 283.147 306.104 284.304 306.31 287.663H306.403C307.131 284.397 307.541 283.501 308.344 280.851L312.357 267.357L320.886 268.141L308.755 301.811L300.972 301.101L298.247 279.078H298.154L290.949 300.168L283.017 299.44L277.008 264.091L277.026 264.073Z" fill="white"/>
<path d="M327.25 269.186L351.718 272.713L350.598 280.403L335.406 278.201L334.603 283.762L345.447 285.33L344.402 292.553L333.558 290.985L332.644 297.331L348.62 299.645L347.537 307.111L322.285 303.453L327.231 269.167L327.25 269.186Z" fill="white"/>
<path d="M359.109 273.964L368.328 275.606L363.588 302.295L377.922 304.833L376.597 312.261L353.043 308.081L359.09 273.964H359.109Z" fill="white"/>
<path d="M388.336 279.246L397.518 281.131L392.069 307.689L406.346 310.62L404.834 318.01L381.393 313.214L388.354 279.265L388.336 279.246Z" fill="white"/>
<path d="M93.3379 282.101L102.539 280.422L104.853 293.094L116.182 291.023L113.868 278.35L123.069 276.67L129.284 310.75L120.083 312.43L117.563 298.656L106.234 300.728L108.754 314.501L99.5529 316.181L93.3379 282.101Z" stroke="#DFAD0E"/>
<path d="M132.42 292.646C130.553 280.104 138.336 273.591 146.623 272.359C154.872 271.127 164.204 275.084 166.07 287.644C167.937 300.186 160.154 306.7 151.905 307.932C143.618 309.164 134.267 305.207 132.401 292.665L132.42 292.646ZM156.813 289.007C155.88 282.717 152.576 279.264 147.761 279.992C142.909 280.72 140.744 284.957 141.677 291.265C142.61 297.555 145.951 301.232 150.822 300.504C155.637 299.795 157.765 295.297 156.832 289.007H156.813Z" stroke="#DFAD0E"/>
<path d="M170.456 269.597L179.62 268.589L194.364 286.506H194.458L192.33 267.189L200.841 266.256L204.629 300.69L196.025 301.642L180.74 283.837H180.646L182.774 303.117L174.263 304.05L170.475 269.615L170.456 269.597Z" stroke="#DFAD0E"/>
<path d="M209.724 265.509L234.398 263.997L234.883 271.762L219.56 272.713L219.915 278.312L230.852 277.641L231.299 284.938L220.363 285.61L220.755 292.012L236.88 291.022L237.347 298.544L211.871 300.112L209.743 265.528L209.724 265.509Z" stroke="#DFAD0E"/>
<path d="M251.252 283.893L239.363 263.606L249.012 263.699L256.067 276.036L263.383 263.83L272.939 263.923L260.621 283.987L260.49 298.451L251.121 298.358L251.252 283.893Z" stroke="#DFAD0E"/>
<path d="M277.026 264.073L286.395 264.931L288.075 278.761C288.43 281.057 288.728 282.811 288.915 286.04H289.008C289.718 283.016 290.334 281.28 291.061 279.097L295.167 265.752L303.603 266.536L305.414 280.478C305.824 283.147 306.104 284.304 306.31 287.663H306.403C307.131 284.397 307.541 283.501 308.344 280.851L312.357 267.357L320.886 268.141L308.755 301.811L300.972 301.101L298.247 279.078H298.154L290.949 300.168L283.017 299.44L277.008 264.091L277.026 264.073Z" stroke="#DFAD0E"/>
<path d="M327.25 269.186L351.718 272.713L350.598 280.403L335.406 278.201L334.603 283.762L345.447 285.33L344.402 292.553L333.558 290.985L332.644 297.331L348.62 299.645L347.537 307.111L322.285 303.453L327.231 269.167L327.25 269.186Z" stroke="#DFAD0E"/>
<path d="M359.109 273.964L368.328 275.606L363.588 302.295L377.922 304.833L376.597 312.261L353.043 308.081L359.09 273.964H359.109Z" stroke="#DFAD0E"/>
<path d="M388.336 279.246L397.518 281.131L392.069 307.689L406.346 310.62L404.834 318.01L381.393 313.214L388.354 279.265L388.336 279.246Z" stroke="#DFAD0E"/>
</g>
<defs>
<linearGradient id="paint0_linear_11_9490" x1="70.8848" y1="273.289" x2="429.172" y2="279.847" gradientUnits="userSpaceOnUse">
<stop stop-color="#DFAD0E"/>
<stop offset="0.495192" stop-color="#C1B79A"/>
<stop offset="1" stop-color="#DFAD0E"/>
</linearGradient>
<linearGradient id="paint1_linear_11_9490" x1="70.8848" y1="273.289" x2="429.172" y2="279.847" gradientUnits="userSpaceOnUse">
<stop stop-color="#DFAD0E"/>
<stop offset="0.495192" stop-color="#C1B79A"/>
<stop offset="1" stop-color="#DFAD0E"/>
</linearGradient>
<linearGradient id="paint2_linear_11_9490" x1="70.8848" y1="273.289" x2="429.172" y2="279.847" gradientUnits="userSpaceOnUse">
<stop stop-color="#DFAD0E"/>
<stop offset="0.495192" stop-color="#C1B79A"/>
<stop offset="1" stop-color="#DFAD0E"/>
</linearGradient>
<linearGradient id="paint3_linear_11_9490" x1="70.8848" y1="273.289" x2="429.172" y2="279.847" gradientUnits="userSpaceOnUse">
<stop stop-color="#DFAD0E"/>
<stop offset="0.495192" stop-color="#C1B79A"/>
<stop offset="1" stop-color="#DFAD0E"/>
</linearGradient>
<linearGradient id="paint4_linear_11_9490" x1="70.8848" y1="273.289" x2="429.172" y2="279.847" gradientUnits="userSpaceOnUse">
<stop stop-color="#DFAD0E"/>
<stop offset="0.495192" stop-color="#C1B79A"/>
<stop offset="1" stop-color="#DFAD0E"/>
</linearGradient>
<linearGradient id="paint5_linear_11_9490" x1="70.8848" y1="273.289" x2="429.172" y2="279.847" gradientUnits="userSpaceOnUse">
<stop stop-color="#DFAD0E"/>
<stop offset="0.495192" stop-color="#C1B79A"/>
<stop offset="1" stop-color="#DFAD0E"/>
</linearGradient>
<linearGradient id="paint6_linear_11_9490" x1="70.8848" y1="273.289" x2="429.172" y2="279.847" gradientUnits="userSpaceOnUse">
<stop stop-color="#DFAD0E"/>
<stop offset="0.495192" stop-color="#C1B79A"/>
<stop offset="1" stop-color="#DFAD0E"/>
</linearGradient>
<linearGradient id="paint7_linear_11_9490" x1="70.8848" y1="273.289" x2="429.172" y2="279.847" gradientUnits="userSpaceOnUse">
<stop stop-color="#DFAD0E"/>
<stop offset="0.495192" stop-color="#C1B79A"/>
<stop offset="1" stop-color="#DFAD0E"/>
</linearGradient>
<linearGradient id="paint8_linear_11_9490" x1="70.8848" y1="273.289" x2="429.172" y2="279.847" gradientUnits="userSpaceOnUse">
<stop stop-color="#DFAD0E"/>
<stop offset="0.495192" stop-color="#C1B79A"/>
<stop offset="1" stop-color="#DFAD0E"/>
</linearGradient>
<linearGradient id="paint9_linear_11_9490" x1="70.8848" y1="273.289" x2="429.172" y2="279.847" gradientUnits="userSpaceOnUse">
<stop stop-color="#DFAD0E"/>
<stop offset="0.495192" stop-color="#C1B79A"/>
<stop offset="1" stop-color="#DFAD0E"/>
</linearGradient>
<linearGradient id="paint10_linear_11_9490" x1="70.8848" y1="273.289" x2="429.172" y2="279.847" gradientUnits="userSpaceOnUse">
<stop stop-color="#DFAD0E"/>
<stop offset="0.495192" stop-color="#C1B79A"/>
<stop offset="1" stop-color="#DFAD0E"/>
</linearGradient>
<linearGradient id="paint11_linear_11_9490" x1="70.8848" y1="273.289" x2="429.172" y2="279.847" gradientUnits="userSpaceOnUse">
<stop stop-color="#DFAD0E"/>
<stop offset="0.495192" stop-color="#C1B79A"/>
<stop offset="1" stop-color="#DFAD0E"/>
</linearGradient>
<linearGradient id="paint12_linear_11_9490" x1="70.8848" y1="273.289" x2="429.172" y2="279.847" gradientUnits="userSpaceOnUse">
<stop stop-color="#DFAD0E"/>
<stop offset="0.495192" stop-color="#C1B79A"/>
<stop offset="1" stop-color="#DFAD0E"/>
</linearGradient>
<linearGradient id="paint13_linear_11_9490" x1="70.8848" y1="273.289" x2="429.172" y2="279.847" gradientUnits="userSpaceOnUse">
<stop stop-color="#DFAD0E"/>
<stop offset="0.495192" stop-color="#C1B79A"/>
<stop offset="1" stop-color="#DFAD0E"/>
</linearGradient>
<linearGradient id="paint14_linear_11_9490" x1="70.8848" y1="273.289" x2="429.172" y2="279.847" gradientUnits="userSpaceOnUse">
<stop stop-color="#DFAD0E"/>
<stop offset="0.495192" stop-color="#C1B79A"/>
<stop offset="1" stop-color="#DFAD0E"/>
</linearGradient>
<linearGradient id="paint15_linear_11_9490" x1="70.8848" y1="273.289" x2="429.172" y2="279.847" gradientUnits="userSpaceOnUse">
<stop stop-color="#DFAD0E"/>
<stop offset="0.495192" stop-color="#C1B79A"/>
<stop offset="1" stop-color="#DFAD0E"/>
</linearGradient>
<linearGradient id="paint16_linear_11_9490" x1="70.8848" y1="273.289" x2="429.172" y2="279.847" gradientUnits="userSpaceOnUse">
<stop stop-color="#DFAD0E"/>
<stop offset="0.495192" stop-color="#C1B79A"/>
<stop offset="1" stop-color="#DFAD0E"/>
</linearGradient>
<linearGradient id="paint17_linear_11_9490" x1="70.8848" y1="273.289" x2="429.172" y2="279.847" gradientUnits="userSpaceOnUse">
<stop stop-color="#DFAD0E"/>
<stop offset="0.495192" stop-color="#C1B79A"/>
<stop offset="1" stop-color="#DFAD0E"/>
</linearGradient>
<clipPath id="clip0_11_9490">
<rect width="360.806" height="234.491" fill="white" transform="translate(69.5977 132.755)"/>
</clipPath>
</defs>
</svg>
