<svg width="500" height="500" viewBox="0 0 500 500" fill="none" xmlns="http://www.w3.org/2000/svg">
<rect width="500" height="500" fill="white"/>
<g clip-path="url(#clip0_11_9230)">
<path d="M356.593 208.554V256.633L351.668 256.094C344.117 255.267 336.594 255.123 329.179 255.644C341.852 241.955 351.128 225.884 356.593 208.554Z" fill="#EEA11B"/>
<path d="M356.593 317.359V394.911H285.585C300.416 388.736 314.087 379.639 325.799 367.919C340.207 353.519 350.643 336.181 356.593 317.359Z" fill="#EEA11B"/>
<path d="M356.593 105.089V208.554C351.128 225.884 341.852 241.955 329.178 255.644C336.594 255.123 344.117 255.267 351.667 256.094L356.593 256.633V317.359C350.643 336.18 340.207 353.519 325.799 367.918C314.087 379.639 300.416 388.736 285.585 394.911H143.406V105.089H356.593Z" fill="#BB2028"/>
<path d="M309.907 352.036C290.079 371.865 263.455 382.507 235.717 381.995C235.187 354.256 245.838 327.624 265.666 307.795C285.495 287.967 312.136 277.325 339.875 277.837C340.396 305.575 329.745 332.199 309.907 352.036Z" fill="#40130E"/>
<path d="M356.593 147.865L351.667 147.326C313.808 143.182 276.677 156.233 249.784 183.135C232.023 200.888 220.302 223.107 215.574 247.052C211.637 233.093 205.408 219.458 197.121 206.874C183.252 185.823 164.897 169.482 143.406 158.885V183.558C181.14 207.089 200.168 250.62 198.946 285.576L197.642 394.911H285.585C300.416 388.736 314.087 379.64 325.799 367.919C340.207 353.519 350.643 336.181 356.593 317.359V256.634L351.667 256.094C344.117 255.267 336.594 255.123 329.178 255.645C341.852 241.955 351.128 225.884 356.593 208.555V147.865ZM339.875 277.837C340.396 305.575 329.745 332.199 309.907 352.036C290.07 371.874 263.455 382.507 235.717 381.995C235.187 354.256 245.838 327.624 265.666 307.795C285.495 287.967 312.136 277.325 339.875 277.837ZM309.907 243.259C290.079 263.096 263.419 273.747 235.717 273.226C235.187 245.488 245.838 218.855 265.666 199.018C285.504 179.181 312.136 168.529 339.875 169.06C340.396 196.798 329.745 223.43 309.907 243.259Z" fill="#FEFCFF"/>
<path d="M309.907 243.259C290.079 263.096 263.419 273.747 235.717 273.226C235.187 245.488 245.838 218.855 265.666 199.018C285.504 179.18 312.136 168.529 339.875 169.059C340.396 196.798 329.745 223.43 309.907 243.259Z" fill="#40130E"/>
<path d="M182.263 274.448V394.911H159.792V274.448C159.792 268.246 164.825 263.213 171.027 263.213C177.229 263.213 182.263 268.246 182.263 274.448Z" fill="#F8FFFF"/>
<path d="M184.267 240.949C184.267 248.247 178.326 254.189 171.027 254.189C163.729 254.189 157.778 248.247 157.778 240.949C157.778 233.65 163.72 227.7 171.027 227.7C178.335 227.7 184.267 233.641 184.267 240.949Z" fill="#F8FFFF"/>
</g>
<defs>
<clipPath id="clip0_11_9230">
<rect width="213.187" height="289.822" fill="white" transform="translate(143.406 105.089)"/>
</clipPath>
</defs>
</svg>
