<svg width="500" height="500" viewBox="0 0 500 500" fill="none" xmlns="http://www.w3.org/2000/svg">
<rect width="500" height="500" fill="white"/>
<g clip-path="url(#clip0_11_9281)">
<path d="M368.373 353.895C372.528 337.584 377.929 298.599 338.98 286.737C319.797 280.896 298.963 284.862 282.831 296.768C259.296 314.148 212.245 342.24 160.376 336.139C136.366 333.313 122.539 323.273 114.841 310.998C115.316 300.599 118.044 290.174 123.149 280.43C134.185 259.38 144.073 238.717 153.655 217.964C160.421 228.336 170.479 237.12 185.427 240.323C221.783 248.111 333.166 210.472 372.913 262.584C385.17 294.435 394.878 328.136 368.373 353.895Z" fill="url(#paint0_linear_11_9281)"/>
<path d="M372.913 262.583C333.166 210.472 221.783 248.111 185.426 240.323C170.478 237.12 160.42 228.336 153.655 217.964C164.718 193.999 175.377 169.908 186.943 145C190.272 137.84 194.318 129.433 199.163 120.99C202.6 141.923 212.496 163.376 237.691 169.549C268.26 177.032 307.056 175.937 341.169 183.68C349.836 203.159 357.535 223.114 365.179 242.871C367.665 249.295 370.347 255.899 372.913 262.583Z" fill="url(#paint1_linear_11_9281)"/>
<path d="M368.373 353.896C365.673 356.525 362.586 359.073 359.096 361.522L291.023 409.291C261.494 430.017 222.052 429.703 192.856 408.511L144.979 373.743C124.441 358.83 113.71 334.991 114.841 310.999C122.539 323.273 136.366 333.313 160.376 336.139C212.245 342.241 259.296 314.148 282.831 296.769C298.963 284.862 319.797 280.896 338.98 286.737C377.929 298.599 372.528 337.584 368.373 353.896Z" fill="url(#paint2_linear_11_9281)"/>
<path d="M341.169 183.681C307.056 175.937 268.259 177.032 237.69 169.549C212.496 163.376 202.6 141.923 199.163 120.991C212.173 98.3264 230.898 75.375 256.667 75.375C276.155 76.7119 286.653 93.0955 297.608 107.433C315.499 130.842 329.245 156.817 341.169 183.681Z" fill="url(#paint3_linear_11_9281)"/>
</g>
<defs>
<linearGradient id="paint0_linear_11_9281" x1="114.841" y1="275.837" x2="393.114" y2="275.837" gradientUnits="userSpaceOnUse">
<stop stop-color="#146CB6"/>
<stop offset="1" stop-color="#1767B3"/>
</linearGradient>
<linearGradient id="paint1_linear_11_9281" x1="172.97" y1="172.269" x2="350.829" y2="172.269" gradientUnits="userSpaceOnUse">
<stop stop-color="#26A154"/>
<stop offset="1" stop-color="#26A154"/>
</linearGradient>
<linearGradient id="paint2_linear_11_9281" x1="121.29" y1="354.35" x2="371.255" y2="354.35" gradientUnits="userSpaceOnUse">
<stop stop-color="#863B31"/>
<stop offset="1" stop-color="#863B31"/>
</linearGradient>
<linearGradient id="paint3_linear_11_9281" x1="199.163" y1="119.717" x2="305.725" y2="119.717" gradientUnits="userSpaceOnUse">
<stop stop-color="#FEE01B"/>
<stop offset="1" stop-color="#F89B30"/>
</linearGradient>
<clipPath id="clip0_11_9281">
<rect width="270.481" height="349.25" fill="white" transform="translate(114.76 75.375)"/>
</clipPath>
</defs>
</svg>
