<svg width="500" height="500" viewBox="0 0 500 500" fill="none" xmlns="http://www.w3.org/2000/svg">
<rect width="500" height="500" fill="white"/>
<g clip-path="url(#clip0_11_9322)">
<path d="M334.471 155.61H166.521C160.97 155.61 156.471 160.109 156.471 165.66V335.02C156.471 340.57 160.97 345.07 166.521 345.07H334.471C340.021 345.07 344.521 340.57 344.521 335.02V165.66C344.521 160.109 340.021 155.61 334.471 155.61Z" fill="#014783"/>
<path d="M350.08 370.69H150.9C139.93 370.69 131 361.76 131 350.79V149.9C131 138.93 139.93 130 150.9 130H350.09C361.06 130 369.99 138.93 369.99 149.9V350.79C369.99 361.76 361.06 370.69 350.09 370.69H350.08ZM150.9 142C146.55 142 143 145.54 143 149.9V350.79C143 355.15 146.54 358.69 150.9 358.69H350.09C354.44 358.69 357.99 355.15 357.99 350.79V149.9C357.99 145.54 354.45 142 350.09 142H150.9Z" fill="#014783"/>
<path d="M268.949 214.19C269.299 214.64 269.629 215.1 269.939 215.59C269.649 215.1 269.309 214.63 268.949 214.19ZM267.779 212.91C268.189 213.31 268.579 213.74 268.939 214.18C268.589 213.73 268.199 213.3 267.779 212.91Z" stroke="#EA3323" stroke-miterlimit="10"/>
<path d="M268.939 214.18C268.579 213.74 268.189 213.31 267.779 212.91C268.199 213.3 268.589 213.73 268.939 214.18Z" stroke="#EA3323" stroke-miterlimit="10"/>
<path d="M269.939 215.59C269.629 215.1 269.299 214.64 268.949 214.19C269.309 214.63 269.649 215.1 269.939 215.59Z" stroke="#EA3323" stroke-miterlimit="10"/>
<path d="M276.201 246.91C288.801 243.39 298.051 231.82 298.051 218.09C298.051 201.56 284.651 188.16 268.121 188.16H198.381V312.96H272.811C289.931 311.54 303.381 297.19 303.381 279.7C303.381 263.39 291.681 249.81 276.201 246.91ZM224.121 208.82H257.761C258.291 208.82 258.811 208.85 259.321 208.9C259.731 208.95 260.131 209.01 260.531 209.09C260.871 209.15 261.211 209.23 261.541 209.33C261.701 209.37 261.871 209.42 262.031 209.47C262.251 209.53 262.471 209.61 262.681 209.69C262.861 209.75 263.031 209.82 263.201 209.89C264.121 210.26 264.981 210.73 265.791 211.28C266.501 211.76 267.171 212.3 267.781 212.91C268.201 213.3 268.591 213.73 268.941 214.18H268.951C269.311 214.63 269.651 215.1 269.941 215.59H269.951C271.331 217.8 272.131 220.41 272.131 223.2C272.131 231.14 265.691 237.57 257.761 237.57H224.121V208.82ZM260.141 291.93H224.081V258.91H260.141C269.251 258.91 276.651 266.3 276.651 275.42C276.651 284.54 269.251 291.93 260.141 291.93Z" fill="white"/>
</g>
<defs>
<clipPath id="clip0_11_9322">
<rect width="238.98" height="240.69" fill="white" transform="translate(131 130)"/>
</clipPath>
</defs>
</svg>
