<svg width="500" height="500" viewBox="0 0 500 500" fill="none" xmlns="http://www.w3.org/2000/svg">
<rect width="500" height="500" fill="white"/>
<g clip-path="url(#clip0_11_9290)">
<path d="M280.186 214.641L249.021 257.53V118.702L280.186 214.641Z" fill="#DB3634"/>
<path d="M381.072 214.642L249.021 257.542V257.531L280.186 214.642H381.072Z" fill="#C4C6CE"/>
<path d="M381.072 214.642L299.453 273.936L249.021 257.554V257.542L381.072 214.642Z" fill="#DB3634"/>
<path d="M249.021 118.702V257.542H249.01L217.845 214.641L249.021 118.702Z" fill="#C4C6CE"/>
<path d="M249.022 257.542V310.58L167.402 369.874L249.01 257.553V257.542H249.022Z" fill="#C4C6CE"/>
<path d="M249.01 257.554L167.402 369.874L198.579 273.935L249.01 257.554Z" fill="#DB3634"/>
<path d="M249.01 257.542V257.554L198.578 273.936L116.971 214.642L249.01 257.542Z" fill="#C4C6CE"/>
<path d="M249.01 257.542L116.971 214.642H217.845L249.01 257.542Z" fill="#DB3634"/>
<path d="M330.629 369.874L249.021 257.554L299.453 273.935L330.629 369.874Z" fill="#C4C6CE"/>
<path d="M330.629 369.874L249.021 310.58V257.554L330.629 369.874Z" fill="#DB3634"/>
<path d="M412.491 255.584C412.491 345.186 339.596 418.081 249.994 418.081C160.393 418.081 87.5088 345.186 87.5088 255.584C87.5088 199.65 115.905 150.25 159.026 121.008C167.321 115.389 174.399 108.16 179.601 99.5982L188.163 85.4871C190.943 80.8993 197.512 80.6908 200.583 85.0701L203.224 88.8237C205.356 91.8591 207.233 95.0451 208.854 98.3585C210.592 101.857 212.017 105.495 213.141 109.226C214.67 114.231 215.655 119.421 216.049 124.681C216.061 124.878 216.072 125.075 216.072 125.26C216.072 129.686 212.168 133.184 207.696 132.605L190.411 130.357C175.604 128.434 160.717 133.08 149.583 143.02C118.048 171.185 98.3759 212.382 99.1058 258.052C100.403 338.42 165.305 404.156 245.65 406.415C330.826 408.813 400.894 340.216 400.894 255.561C400.894 210.783 381.28 170.489 350.197 142.823C339.225 133.057 324.454 128.712 309.891 130.601L294.679 132.582C290.196 133.161 286.291 129.651 286.291 125.225C286.291 125.04 286.291 124.843 286.315 124.657C286.697 119.595 287.612 114.601 289.049 109.782C290.138 106.051 291.528 102.425 293.231 98.9146C294.911 95.4043 296.892 92.0213 299.151 88.8006L301.781 85.0469C304.863 80.6676 311.42 80.8761 314.201 85.464L324.477 102.402C329.389 110.5 335.981 117.417 343.709 122.885C385.289 152.347 412.48 200.832 412.48 255.55L412.491 255.584Z" fill="#CBB56F"/>
</g>
<defs>
<clipPath id="clip0_11_9290">
<rect width="324.983" height="336.163" fill="white" transform="translate(87.5088 81.9189)"/>
</clipPath>
</defs>
</svg>
