<svg width="500" height="500" viewBox="0 0 500 500" fill="none" xmlns="http://www.w3.org/2000/svg">
<rect width="500" height="500" fill="white"/>
<g clip-path="url(#clip0_11_8781)">
<path d="M222.184 180.428V236.981L201.971 187.658C190.847 192.11 185.285 200.266 185.285 200.266C185.285 200.266 184.78 259.767 185.285 260.339C192.147 268.127 197.893 270.537 197.893 270.537V216.584L221.258 279.809C225.71 282.219 236.834 281.851 236.834 281.851V179.318C232.014 178.76 222.184 180.428 222.184 180.428Z" fill="#053484"/>
<path d="M282.44 227.892C282.44 227.892 293.38 218.069 288.002 204.902C282.624 191.736 267.422 179.502 244.432 179.128V281.851C244.432 281.851 289.302 278.509 291.896 243.836C291.896 243.836 293.564 232.345 282.44 227.892ZM259.817 199.156C265.012 199.524 276.694 204.16 276.51 211.581C276.32 218.994 271.5 221.221 271.5 221.221H259.817V199.156ZM279.104 248.663C276.51 261.081 260.008 262.939 260.008 262.939V235.864C273.726 234.938 281.698 236.239 279.104 248.663Z" fill="#053484"/>
<path d="M209.943 151.318C209.943 151.318 257.224 84.5735 285.592 114.61C313.96 144.646 304.071 245.077 275.026 310.403C296.723 274.247 308.398 241.984 315.891 194.317C320.921 162.291 324.099 126.791 306.546 98.0353C276.3 48.496 227.398 121.781 211.795 148.139C211.171 149.197 210.541 150.254 209.943 151.324V151.318Z" fill="#050E59"/>
<path d="M175.455 297.75C175.455 297.75 179.264 372.893 220.384 368.828C264.27 364.488 314.958 251.383 324.716 180.561C322.431 225.057 309.37 274.057 290.602 318.508C277.994 348.373 259.529 378.777 229.453 393.959C177.629 420.108 174.713 332.048 175.35 301.428C175.376 300.2 175.402 298.972 175.455 297.75Z" fill="#CDA455"/>
<path d="M180.465 97.1168C180.465 97.1168 200.861 93.4067 239.796 92.2969C239.796 92.2969 189.363 147.549 178.239 212.074C178.239 212.074 176.013 124.185 180.465 97.1168Z" fill="#0C80E3"/>
<path d="M289.86 408.615C289.86 408.615 258.707 429.011 212.359 411.951C212.359 411.951 283.188 394.523 306.178 304.414C306.178 304.414 296.906 382.105 289.86 408.615Z" fill="#0C80E3"/>
</g>
<defs>
<clipPath id="clip0_11_8781">
<rect width="149.432" height="337.509" fill="white" transform="translate(175.284 81.2451)"/>
</clipPath>
</defs>
</svg>
