<svg width="500" height="500" viewBox="0 0 500 500" fill="none" xmlns="http://www.w3.org/2000/svg">
<rect width="500" height="500" fill="white"/>
<g clip-path="url(#clip0_11_9863)">
<path d="M197.11 222.96V144.06C182.02 147.23 167.49 151.79 153.61 157.57V324.18L197.11 348.35V262.42C210.71 259.53 224.78 257.81 239.12 257.34V409.69H238.98L197.11 386.45L153.61 362.32L116.21 341.55V128.55C127.99 120.96 140.52 114.39 153.61 108.94C167.49 103.12 182.02 98.5498 197.11 95.3898C210.71 92.4998 224.78 90.7798 239.13 90.3098V217.88C224.78 218.35 210.72 220.07 197.12 222.96H197.11Z" fill="#B6703A"/>
<path d="M383.79 131.58V341.36L341.78 364.7L298.28 388.83L260.88 409.56V257.53C273.64 258.18 286.12 259.86 298.28 262.42V350.73L341.78 326.56V157.61C327.9 151.79 313.32 147.22 298.28 144.06V222.96C286.12 220.4 273.64 218.72 260.88 218.07V90.4998C273.64 91.1498 286.12 92.8298 298.28 95.3898C313.32 98.5598 327.9 103.12 341.78 108.99C356.59 115.14 370.66 122.73 383.79 131.58Z" fill="#B6703A"/>
</g>
<defs>
<clipPath id="clip0_11_9863">
<rect width="267.58" height="319.38" fill="white" transform="translate(116.21 90.3098)"/>
</clipPath>
</defs>
</svg>
