<svg width="500" height="500" viewBox="0 0 500 500" fill="none" xmlns="http://www.w3.org/2000/svg">
<rect width="500" height="500" fill="white"/>
<g clip-path="url(#clip0_11_8970)">
<path d="M146.225 275.86C142.665 275.86 139.355 274.03 137.465 271.01L111.095 228.93C109.305 226.1 107.215 221.98 104.815 216.57C105.495 222.53 105.825 226.65 105.825 228.93V275.86H90.665V194.55H106.705L136.145 241.51C137.975 244.42 140.025 248.53 142.315 253.85C141.715 248.92 141.415 244.8 141.415 241.51V194.55H156.575V265.52C156.575 271.23 151.945 275.86 146.235 275.86H146.225Z" fill="#008141"/>
<path d="M233.315 274.72C229.845 274.72 226.615 272.99 224.685 270.1L197.215 228.92C195.425 226.09 193.335 221.97 190.935 216.56C191.615 222.52 191.945 226.64 191.945 228.92V275.85H176.785V194.55H192.825L222.265 241.51C224.095 244.42 226.145 248.53 228.435 253.85C227.835 248.92 227.535 244.8 227.535 241.51V194.55H242.695L243.675 264.21C243.755 269.99 239.095 274.73 233.305 274.73L233.315 274.72Z" fill="#008141"/>
<path d="M262.925 275.86V207.45C262.925 200.33 268.695 194.55 275.825 194.55H311.315V207.6H282.695C280.515 207.6 278.755 209.37 278.755 211.54V229.83H304.995V242.85H278.755V275.86H262.935H262.925Z" fill="#008141"/>
<path d="M393.715 275.86V230.96C393.715 226.57 394.055 220.92 394.725 213.99C392.585 220.02 390.195 225.27 387.545 229.72L374.735 251.28C373.205 253.85 370.435 255.43 367.445 255.43C364.455 255.43 361.685 253.85 360.155 251.28L347.345 229.72C344.915 225.74 342.555 220.56 340.275 214.2C340.935 220.94 341.265 226.53 341.265 230.95V275.85H326.355V194.55H342.965L362.155 227.58C364.625 231.91 366.425 235.88 367.555 239.48C368.485 236.26 370.275 232.3 372.925 227.58L392.155 194.55H408.655V275.86H393.715Z" fill="#008141"/>
<path d="M91.2754 286H94.4754L102.705 299.55H101.715V286H104.155V301.12H100.955L92.7254 287.57H93.7154V301.12H91.2754V286Z" fill="#4C7D07"/>
<path d="M109.406 300.64C108.556 300.16 107.886 299.47 107.406 298.58C106.926 297.69 106.686 296.65 106.686 295.47V295.45C106.686 294.31 106.926 293.31 107.406 292.44C107.886 291.57 108.556 290.89 109.406 290.41C110.256 289.93 111.216 289.69 112.276 289.69C113.336 289.69 114.316 289.93 115.156 290.4C115.996 290.88 116.656 291.55 117.146 292.42C117.626 293.29 117.866 294.3 117.866 295.46V295.48C117.866 296.65 117.616 297.68 117.136 298.57C116.646 299.46 115.976 300.15 115.126 300.64C114.276 301.13 113.326 301.37 112.276 301.37C111.226 301.37 110.256 301.13 109.406 300.65V300.64ZM113.976 298.84C114.456 298.52 114.826 298.07 115.086 297.49C115.346 296.91 115.476 296.23 115.476 295.47V295.45C115.476 294.73 115.346 294.09 115.086 293.53C114.826 292.97 114.456 292.53 113.976 292.21C113.496 291.89 112.926 291.73 112.276 291.73C111.626 291.73 111.036 291.89 110.556 292.21C110.076 292.53 109.706 292.97 109.456 293.53C109.206 294.09 109.076 294.73 109.076 295.45V295.47C109.076 296.23 109.206 296.9 109.466 297.48C109.726 298.06 110.096 298.51 110.576 298.83C111.056 299.15 111.626 299.32 112.276 299.32C112.926 299.32 113.486 299.16 113.976 298.84Z" fill="#4C7D07"/>
<path d="M120.226 289.94H122.536V292.68L122.086 292.38C122.586 291.46 123.106 290.81 123.646 290.42C124.176 290.04 124.866 289.85 125.716 289.85C126.006 289.85 126.256 289.87 126.476 289.91V292.18C126.106 292.15 125.736 292.14 125.376 292.14C124.896 292.14 124.456 292.21 124.036 292.36C123.616 292.5 123.266 292.77 122.986 293.17C122.706 293.57 122.566 294.12 122.566 294.82V301.13H120.236V289.94H120.226Z" fill="#4C7D07"/>
<path d="M130.086 300.51C129.586 300.09 129.326 299.3 129.326 298.14V291.81H127.386V289.93H129.326V287.25H131.636V289.93H134.316V291.81H131.636V297.82C131.636 298.4 131.736 298.78 131.926 298.97C132.116 299.16 132.446 299.25 132.906 299.25H134.306V301.11C133.756 301.14 133.086 301.15 132.296 301.15C131.316 301.15 130.576 300.94 130.066 300.51H130.086Z" fill="#4C7D07"/>
<path d="M136.516 285.57H138.846V290.71C138.846 291.01 138.846 291.3 138.836 291.57C138.836 291.84 138.816 292.07 138.806 292.24L138.506 291.92C138.806 291.21 139.276 290.66 139.926 290.27C140.576 289.88 141.316 289.68 142.186 289.68C143.456 289.68 144.446 290.07 145.166 290.85C145.886 291.63 146.246 292.73 146.246 294.16V301.14H143.916V294.44C143.916 293.6 143.696 292.94 143.266 292.45C142.836 291.96 142.226 291.72 141.456 291.72C140.976 291.72 140.546 291.84 140.146 292.09C139.746 292.33 139.436 292.7 139.206 293.19C138.976 293.68 138.856 294.28 138.856 294.98V301.14H136.526V285.58L136.516 285.57Z" fill="#4C7D07"/>
<path d="M151.235 300.65C150.375 300.17 149.695 299.49 149.195 298.6C148.695 297.71 148.445 296.66 148.445 295.47V295.45C148.445 294.31 148.695 293.3 149.205 292.43C149.705 291.55 150.375 290.87 151.215 290.4C152.055 289.92 152.955 289.69 153.935 289.69C154.915 289.69 155.835 289.92 156.655 290.37C157.475 290.82 158.125 291.5 158.615 292.41C159.095 293.32 159.335 294.42 159.335 295.72V296.26H149.655V294.4H156.895C156.855 293.85 156.705 293.37 156.445 292.95C156.185 292.53 155.835 292.21 155.395 291.99C154.955 291.77 154.455 291.66 153.895 291.66C153.335 291.66 152.805 291.79 152.335 292.04C151.865 292.29 151.505 292.65 151.235 293.11C150.965 293.57 150.815 294.11 150.805 294.73C150.805 295.29 150.805 295.71 150.825 295.98C150.855 296.66 151.015 297.25 151.325 297.77C151.625 298.29 152.025 298.69 152.525 298.97C153.025 299.25 153.565 299.39 154.155 299.39C154.745 299.39 155.325 299.27 155.795 299.04C156.275 298.81 156.635 298.44 156.895 297.94H159.225C158.905 299.08 158.275 299.94 157.315 300.51C156.355 301.09 155.285 301.37 154.085 301.37C153.045 301.37 152.095 301.13 151.235 300.66V300.65Z" fill="#4C7D07"/>
<path d="M161.665 289.94H163.975V292.68L163.525 292.38C164.025 291.46 164.545 290.81 165.085 290.42C165.615 290.04 166.305 289.85 167.155 289.85C167.445 289.85 167.695 289.87 167.915 289.91V292.18C167.545 292.15 167.175 292.14 166.815 292.14C166.335 292.14 165.895 292.21 165.475 292.36C165.055 292.5 164.705 292.77 164.425 293.17C164.145 293.57 164.005 294.12 164.005 294.82V301.13H161.675V289.94H161.665Z" fill="#4C7D07"/>
<path d="M169.686 289.94H171.996V292.38L171.676 291.93C171.976 291.22 172.446 290.67 173.096 290.28C173.746 289.89 174.486 289.69 175.356 289.69C176.626 289.69 177.616 290.08 178.336 290.86C179.056 291.64 179.416 292.74 179.416 294.17V301.15H177.086V294.45C177.086 293.61 176.866 292.95 176.436 292.46C176.006 291.97 175.396 291.73 174.626 291.73C174.146 291.73 173.716 291.85 173.316 292.1C172.916 292.34 172.606 292.71 172.376 293.2C172.146 293.69 172.026 294.29 172.026 294.99V301.15H169.696V289.96L169.686 289.94Z" fill="#4C7D07"/>
<path d="M187.945 286H191.145L199.375 299.55H198.385V286H200.825V301.12H197.625L189.395 287.57H190.385V301.12H187.945V286Z" fill="#4C7D07"/>
<path d="M204.085 285.57H206.465V288.03H204.085V285.57ZM204.105 289.94H206.435V301.13H204.105V289.94Z" fill="#4C7D07"/>
<path d="M210.865 304.42C209.925 303.74 209.365 302.82 209.175 301.69H211.485C211.655 302.29 211.995 302.75 212.505 303.06C213.005 303.37 213.685 303.52 214.535 303.52C215.115 303.52 215.615 303.42 216.035 303.22C216.455 303.02 216.785 302.72 217.015 302.31C217.245 301.91 217.365 301.4 217.365 300.8V297.99L217.605 298.49C217.465 298.94 217.215 299.33 216.885 299.68C216.545 300.03 216.125 300.3 215.615 300.49C215.105 300.68 214.535 300.78 213.915 300.78C212.975 300.78 212.135 300.56 211.375 300.12C210.615 299.68 210.015 299.04 209.575 298.2C209.125 297.36 208.905 296.35 208.905 295.19V295.17C208.905 294.06 209.135 293.09 209.595 292.25C210.055 291.41 210.675 290.78 211.445 290.34C212.215 289.9 213.055 289.68 213.965 289.68C214.875 289.68 215.625 289.89 216.275 290.3C216.925 290.71 217.385 291.25 217.655 291.93L217.375 292.43V289.95H219.685V300.8C219.685 301.79 219.455 302.64 219.005 303.34C218.555 304.04 217.935 304.57 217.155 304.93C216.375 305.29 215.505 305.47 214.545 305.47C213.035 305.47 211.805 305.13 210.875 304.44L210.865 304.42ZM215.895 298.37C216.355 298.08 216.715 297.65 216.985 297.1C217.255 296.55 217.385 295.91 217.385 295.19V295.17C217.385 294.45 217.255 293.83 216.985 293.3C216.715 292.77 216.355 292.37 215.895 292.09C215.435 291.81 214.925 291.67 214.365 291.67C213.805 291.67 213.265 291.81 212.805 292.1C212.345 292.39 211.985 292.8 211.715 293.33C211.445 293.86 211.315 294.48 211.315 295.17V295.19C211.315 295.92 211.445 296.57 211.715 297.11C211.985 297.65 212.345 298.08 212.805 298.37C213.265 298.67 213.785 298.81 214.365 298.81C214.945 298.81 215.435 298.66 215.895 298.37Z" fill="#4C7D07"/>
<path d="M224.825 300.65C223.965 300.17 223.285 299.49 222.785 298.6C222.285 297.71 222.035 296.66 222.035 295.47V295.45C222.035 294.31 222.285 293.3 222.795 292.43C223.295 291.55 223.965 290.87 224.805 290.4C225.645 289.92 226.545 289.69 227.525 289.69C228.505 289.69 229.425 289.92 230.245 290.37C231.065 290.82 231.715 291.5 232.205 292.41C232.685 293.32 232.925 294.42 232.925 295.72V296.26H223.245V294.4H230.485C230.445 293.85 230.295 293.37 230.035 292.95C229.775 292.53 229.425 292.21 228.985 291.99C228.545 291.77 228.045 291.66 227.485 291.66C226.925 291.66 226.395 291.79 225.925 292.04C225.455 292.29 225.095 292.65 224.825 293.11C224.555 293.57 224.405 294.11 224.395 294.73C224.395 295.29 224.395 295.71 224.415 295.98C224.445 296.66 224.605 297.25 224.915 297.77C225.215 298.29 225.615 298.69 226.115 298.97C226.615 299.25 227.155 299.39 227.745 299.39C228.335 299.39 228.915 299.27 229.385 299.04C229.865 298.81 230.225 298.44 230.485 297.94H232.815C232.495 299.08 231.865 299.94 230.905 300.51C229.945 301.09 228.875 301.37 227.675 301.37C226.635 301.37 225.685 301.13 224.825 300.66V300.65Z" fill="#4C7D07"/>
<path d="M235.256 289.94H237.566V292.68L237.116 292.38C237.616 291.46 238.136 290.81 238.676 290.42C239.206 290.04 239.896 289.85 240.746 289.85C241.036 289.85 241.286 289.87 241.506 289.91V292.18C241.136 292.15 240.766 292.14 240.406 292.14C239.926 292.14 239.486 292.21 239.066 292.36C238.646 292.5 238.296 292.77 238.016 293.17C237.736 293.57 237.596 294.12 237.596 294.82V301.13H235.266V289.94H235.256Z" fill="#4C7D07"/>
<path d="M243.256 285.57H245.636V288.03H243.256V285.57ZM243.276 289.94H245.606V301.13H243.276V289.94Z" fill="#4C7D07"/>
<path d="M250.125 300.98C249.505 300.72 249.005 300.33 248.635 299.81C248.265 299.29 248.075 298.67 248.075 297.95V297.93C248.075 297.15 248.275 296.52 248.675 296.03C249.075 295.54 249.635 295.16 250.345 294.9C251.055 294.63 251.955 294.41 253.035 294.24L255.625 293.83L256.685 293.66V295.54C254.995 295.74 253.735 295.92 252.895 296.08C252.055 296.24 251.425 296.45 251.005 296.72C250.585 296.99 250.375 297.36 250.375 297.83V297.85C250.375 298.35 250.575 298.75 250.975 299.04C251.375 299.33 251.905 299.47 252.555 299.47C253.115 299.47 253.625 299.35 254.075 299.12C254.525 298.89 254.885 298.55 255.155 298.1C255.425 297.65 255.555 297.11 255.555 296.46V293.72C255.555 292.96 255.355 292.41 254.965 292.07C254.565 291.73 253.995 291.56 253.245 291.56C252.535 291.56 251.975 291.72 251.535 292.05C251.095 292.38 250.825 292.85 250.695 293.49H248.425C248.565 292.34 249.095 291.42 250.015 290.72C250.925 290.03 252.035 289.68 253.335 289.68C254.735 289.68 255.835 290 256.655 290.64C257.465 291.28 257.865 292.33 257.855 293.78L257.815 298.88C257.815 299.24 257.855 299.99 257.925 301.13H255.765L255.705 298.54L255.985 299.21C255.635 299.9 255.145 300.43 254.505 300.81C253.865 301.18 253.075 301.37 252.135 301.37C251.415 301.37 250.745 301.24 250.125 300.98Z" fill="#4C7D07"/>
<path d="M266.415 286H276.395V288.14H268.915V301.13H266.405V286.01L266.415 286ZM267.755 292.44H275.745V294.58H267.755V292.44Z" fill="#4C7D07"/>
<path d="M278.705 285.57H281.035V301.13H278.705V285.57Z" fill="#4C7D07"/>
<path d="M286.116 300.64C285.266 300.16 284.596 299.47 284.116 298.58C283.636 297.69 283.396 296.65 283.396 295.47V295.45C283.396 294.31 283.636 293.31 284.116 292.44C284.596 291.57 285.266 290.89 286.116 290.41C286.966 289.93 287.926 289.69 288.986 289.69C290.046 289.69 291.026 289.93 291.866 290.4C292.706 290.88 293.366 291.55 293.856 292.42C294.336 293.29 294.576 294.3 294.576 295.46V295.48C294.576 296.65 294.326 297.68 293.846 298.57C293.356 299.46 292.686 300.15 291.836 300.64C290.986 301.13 290.036 301.37 288.986 301.37C287.936 301.37 286.966 301.13 286.116 300.65V300.64ZM290.686 298.84C291.166 298.52 291.536 298.07 291.796 297.49C292.056 296.91 292.186 296.23 292.186 295.47V295.45C292.186 294.73 292.056 294.09 291.796 293.53C291.536 292.97 291.166 292.53 290.686 292.21C290.206 291.89 289.636 291.73 288.986 291.73C288.336 291.73 287.746 291.89 287.266 292.21C286.786 292.53 286.416 292.97 286.166 293.53C285.916 294.09 285.786 294.73 285.786 295.45V295.47C285.786 296.23 285.916 296.9 286.176 297.48C286.436 298.06 286.806 298.51 287.286 298.83C287.766 299.15 288.336 299.32 288.986 299.32C289.636 299.32 290.196 299.16 290.686 298.84Z" fill="#4C7D07"/>
<path d="M297.905 300.22C297.165 299.46 296.795 298.37 296.795 296.96V289.94H299.125V296.64C299.125 297.5 299.345 298.17 299.785 298.64C300.225 299.11 300.815 299.34 301.565 299.34C302.025 299.34 302.445 299.23 302.825 298.99C303.205 298.76 303.515 298.41 303.755 297.94C303.995 297.47 304.115 296.9 304.115 296.22V289.93H306.445V301.12H304.155V298.68L304.435 299.28C304.085 299.96 303.615 300.47 303.005 300.82C302.405 301.17 301.685 301.35 300.865 301.35C299.625 301.35 298.635 300.97 297.895 300.2L297.905 300.22Z" fill="#4C7D07"/>
<path d="M309.565 289.94H311.875V292.68L311.425 292.38C311.925 291.46 312.445 290.81 312.985 290.42C313.515 290.04 314.205 289.85 315.055 289.85C315.345 289.85 315.595 289.87 315.815 289.91V292.18C315.445 292.15 315.075 292.14 314.715 292.14C314.235 292.14 313.795 292.21 313.375 292.36C312.955 292.5 312.605 292.77 312.325 293.17C312.045 293.57 311.905 294.12 311.905 294.82V301.13H309.575V289.94H309.565Z" fill="#4C7D07"/>
<path d="M323.155 286H327.305L331.715 299.2H331.115L335.525 286H339.545V301.12H337.145V286.56H337.555L332.625 301.12H330.075L325.125 286.56H325.555V301.12H323.155V286Z" fill="#4C7D07"/>
<path d="M342.795 285.57H345.175V288.03H342.795V285.57ZM342.815 289.94H345.145V301.13H342.815V289.94Z" fill="#4C7D07"/>
<path d="M348.256 285.57H350.586V301.13H348.256V285.57Z" fill="#4C7D07"/>
<path d="M353.705 285.57H356.035V301.13H353.705V285.57Z" fill="#4C7D07"/>
<path d="M359.885 300.42C358.975 299.77 358.455 298.83 358.325 297.59H360.575C360.675 298.22 360.975 298.7 361.475 299.01C361.975 299.32 362.575 299.47 363.305 299.47C363.925 299.47 364.465 299.35 364.915 299.1C365.365 298.85 365.595 298.5 365.595 298.04V298.02C365.595 297.6 365.405 297.28 365.015 297.05C364.625 296.82 364.015 296.63 363.175 296.49L362.075 296.3C360.965 296.1 360.105 295.74 359.505 295.22C358.905 294.7 358.595 294.02 358.595 293.17V293.15C358.595 292.44 358.785 291.83 359.175 291.3C359.565 290.77 360.095 290.37 360.765 290.09C361.435 289.81 362.165 289.67 362.955 289.67C364.165 289.67 365.205 289.98 366.065 290.59C366.925 291.2 367.425 292.05 367.555 293.13H365.325C365.185 292.63 364.905 292.24 364.485 291.98C364.065 291.72 363.535 291.59 362.885 291.59C362.495 291.59 362.145 291.64 361.825 291.75C361.505 291.86 361.255 292.02 361.065 292.23C360.875 292.44 360.785 292.68 360.785 292.95V292.97C360.785 293.34 360.935 293.63 361.245 293.81C361.555 294 362.065 294.16 362.765 294.29L363.865 294.48C365.135 294.71 366.105 295.09 366.795 295.61C367.475 296.14 367.825 296.86 367.825 297.78V297.8C367.825 298.53 367.615 299.18 367.185 299.72C366.755 300.27 366.195 300.68 365.495 300.96C364.795 301.24 364.045 301.38 363.235 301.38C361.895 301.38 360.775 301.06 359.865 300.41L359.885 300.42Z" fill="#4C7D07"/>
<path d="M375.716 286H381.506C382.686 286 383.686 286.19 384.496 286.57C385.306 286.95 385.926 287.5 386.346 288.21C386.766 288.92 386.976 289.75 386.976 290.71V290.73C386.976 291.71 386.766 292.56 386.336 293.27C385.906 293.98 385.286 294.53 384.466 294.92C383.646 295.31 382.656 295.5 381.486 295.5H378.226V301.12H375.716V286ZM383.626 292.68C384.156 292.22 384.426 291.58 384.426 290.76V290.74C384.426 289.95 384.156 289.32 383.616 288.85C383.076 288.38 382.316 288.15 381.336 288.15H378.226V293.38H381.336C382.326 293.38 383.096 293.15 383.626 292.69V292.68Z" fill="#4C7D07"/>
<path d="M389.096 285.57H391.426V301.13H389.096V285.57Z" fill="#4C7D07"/>
<path d="M396.495 300.64C395.655 300.16 394.985 299.47 394.505 298.58C394.025 297.69 393.785 296.65 393.785 295.47V295.45C393.785 294.31 394.025 293.31 394.505 292.44C394.985 291.57 395.655 290.89 396.505 290.41C397.355 289.93 398.315 289.69 399.375 289.69C400.255 289.69 401.065 289.87 401.815 290.22C402.565 290.57 403.175 291.07 403.655 291.7C404.135 292.33 404.415 293.06 404.495 293.88H402.185C402.025 293.22 401.695 292.7 401.185 292.31C400.675 291.93 400.065 291.74 399.355 291.74C398.705 291.74 398.145 291.9 397.655 292.22C397.175 292.54 396.805 292.98 396.555 293.54C396.305 294.1 396.175 294.74 396.175 295.46V295.48C396.175 296.24 396.305 296.91 396.565 297.49C396.825 298.07 397.195 298.52 397.665 298.84C398.145 299.16 398.705 299.33 399.355 299.33C400.045 299.33 400.645 299.15 401.145 298.78C401.645 298.41 401.995 297.88 402.185 297.17H404.495C404.375 298.03 404.075 298.78 403.575 299.42C403.075 300.05 402.455 300.54 401.715 300.88C400.975 301.22 400.185 301.39 399.345 301.39C398.275 301.39 397.325 301.15 396.485 300.67L396.495 300.64Z" fill="#4C7D07"/>
<path d="M406.636 298.32H409.336V301.13H406.636V298.32Z" fill="#4C7D07"/>
</g>
<defs>
<clipPath id="clip0_11_8970">
<rect width="318.67" height="110.9" fill="white" transform="translate(90.665 194.55)"/>
</clipPath>
</defs>
</svg>
