<svg width="500" height="500" viewBox="0 0 500 500" fill="none" xmlns="http://www.w3.org/2000/svg">
<rect width="500" height="500" fill="white"/>
<g clip-path="url(#clip0_11_8739)">
<path d="M249.73 76.6729C154.152 76.6729 76.6738 154.162 76.6738 249.729C76.6738 345.296 154.152 422.797 249.73 422.797C345.308 422.797 422.786 345.307 422.786 249.729C422.786 154.151 345.308 76.6729 249.73 76.6729ZM249.73 410.741C160.812 410.741 88.7181 338.658 88.7181 249.729C88.7181 160.8 160.812 88.7285 249.73 88.7285C338.647 88.7285 410.742 160.811 410.742 249.729C410.742 338.647 338.647 410.741 249.73 410.741Z" fill="#DAE28B"/>
<path d="M321.22 184.888C321.22 198.757 309.974 210.003 296.105 210.003C282.236 210.003 270.979 198.757 270.979 184.888C270.979 171.019 282.224 159.762 296.105 159.762C309.985 159.762 321.22 171.008 321.22 184.888Z" fill="#D39643"/>
<path d="M290.174 105.779C257.326 105.779 229.611 127.769 220.977 157.834C219.152 164.164 218.171 170.859 218.171 177.782V352.983H278.711V248.862C282.441 249.466 286.273 249.774 290.174 249.774C329.934 249.774 362.177 217.542 362.177 177.782C362.177 138.023 329.934 105.779 290.174 105.779ZM290.174 239.201C286.262 239.201 282.43 238.836 278.711 238.129C275.301 237.49 271.994 236.567 268.811 235.38V343.197H228.071L229.588 167.62C230.135 164.255 230.968 160.993 232.051 157.834C240.332 133.7 263.223 116.352 290.174 116.352C324.094 116.352 351.593 143.851 351.593 177.782C351.593 211.714 324.094 239.201 290.174 239.201Z" fill="#D39643"/>
<path d="M290.174 116.352C263.223 116.352 240.332 133.699 232.052 157.833C230.968 160.993 230.136 164.255 229.588 167.619L228.071 343.196H268.812V235.38C271.994 236.566 275.302 237.49 278.712 238.128C282.43 238.836 286.262 239.201 290.174 239.201C324.094 239.201 351.593 211.702 351.593 177.782C351.593 143.862 324.094 116.352 290.174 116.352ZM296.105 210.002C282.225 210.002 270.979 198.757 270.979 184.887C270.979 171.018 282.225 159.761 296.105 159.761C309.986 159.761 321.22 171.007 321.22 184.887C321.22 198.768 309.974 210.002 296.105 210.002Z" fill="#405266"/>
<path d="M381.122 281.494H299.972V293.082H381.122V281.494Z" fill="#D8BBAD"/>
<path d="M381.122 302.104H299.972V313.692H381.122V302.104Z" fill="#D8BBAD"/>
<path d="M319.852 323.363V332.727H309.963V343.004H299.972V323.363H319.852Z" fill="#777684"/>
<path d="M340.586 333.047H320.467V343.004H340.586V333.047Z" fill="#777684"/>
<path d="M196.261 281.494H106.739V293.082H196.261V281.494Z" fill="#D8BBAD"/>
<path d="M196.261 302.104H106.739V313.692H196.261V302.104Z" fill="#D8BBAD"/>
</g>
<defs>
<clipPath id="clip0_11_8739">
<rect width="346.112" height="346.124" fill="white" transform="translate(76.6738 76.6729)"/>
</clipPath>
</defs>
</svg>
