<svg width="500" height="500" viewBox="0 0 500 500" fill="none" xmlns="http://www.w3.org/2000/svg">
<rect width="500" height="500" fill="white"/>
<g clip-path="url(#clip0_11_7435)">
<path d="M250.091 425.182C346.791 425.182 425.182 346.791 425.182 250.091C425.182 153.391 346.791 75 250.091 75C153.391 75 75 153.391 75 250.091C75 346.791 153.391 425.182 250.091 425.182Z" fill="#5AAD3E"/>
<path d="M174 162.271C173.759 164.949 175.743 167.318 178.421 167.552C181.099 167.793 183.468 165.809 183.702 163.131C183.943 160.453 181.959 158.084 179.281 157.85C176.603 157.609 174.234 159.593 174 162.271Z" fill="#FFFEEE"/>
<path d="M186.041 161.402C188.689 161.877 191.224 160.112 191.692 157.464C192.167 154.816 190.402 152.281 187.754 151.806C185.106 151.331 182.571 153.096 182.096 155.744C181.621 158.392 183.386 160.927 186.034 161.394L186.041 161.402Z" fill="#FFFEEE"/>
<path d="M215.915 138.491C213.486 137.337 210.582 138.37 209.427 140.799C208.273 143.229 209.307 146.133 211.736 147.287C214.165 148.442 217.07 147.408 218.224 144.979C219.378 142.55 218.345 139.645 215.915 138.491Z" fill="#FFFEEE"/>
<path d="M221.016 144.172C223.332 145.537 226.319 144.76 227.685 142.444C229.05 140.128 228.273 137.141 225.957 135.775C223.641 134.41 220.653 135.187 219.288 137.503C217.922 139.819 218.699 142.806 221.016 144.172Z" fill="#FFFEEE"/>
<path d="M237.334 140.747C238.896 138.559 238.39 135.519 236.202 133.95C234.015 132.388 230.974 132.894 229.405 135.081C227.836 137.269 228.349 140.309 230.537 141.879C232.725 143.44 235.765 142.935 237.334 140.747Z" fill="#FFFEEE"/>
<path d="M247.096 139.917C248.846 137.872 248.612 134.802 246.575 133.044C244.531 131.294 241.46 131.528 239.702 133.565C237.952 135.609 238.186 138.68 240.223 140.437C242.26 142.195 245.338 141.954 247.096 139.917Z" fill="#FFFEEE"/>
<path d="M250.008 139.865C251.886 141.788 254.972 141.834 256.896 139.955C258.819 138.077 258.865 134.991 256.986 133.067C255.108 131.144 252.022 131.098 250.099 132.977C248.175 134.855 248.129 137.941 250.008 139.865Z" fill="#FFFEEE"/>
<path d="M281.006 136.703C278.652 138.008 277.807 140.973 279.112 143.327C280.418 145.681 283.382 146.526 285.736 145.221C288.09 143.915 288.935 140.951 287.63 138.597C286.325 136.243 283.36 135.398 281.006 136.703Z" fill="#FFFEEE"/>
<path d="M294.911 148.66C297.37 147.567 298.479 144.692 297.385 142.233C296.291 139.773 293.417 138.665 290.957 139.758C288.498 140.852 287.389 143.727 288.483 146.186C289.577 148.645 292.451 149.754 294.911 148.66Z" fill="#FFFEEE"/>
<path d="M322.363 165.469C322.536 168.155 324.845 170.192 327.531 170.026C330.216 169.852 332.253 167.544 332.087 164.858C331.914 162.172 329.605 160.135 326.92 160.301C324.234 160.475 322.197 162.783 322.363 165.469Z" fill="#FFFEEE"/>
<path d="M347.938 183.265C345.305 182.722 342.725 184.42 342.189 187.06C341.646 189.693 343.343 192.273 345.984 192.809C348.617 193.352 351.197 191.654 351.732 189.014C352.276 186.381 350.578 183.801 347.938 183.265Z" fill="#FFFEEE"/>
<path d="M353.498 192.062C350.918 191.293 348.202 192.749 347.432 195.329C346.663 197.909 348.119 200.625 350.699 201.394C353.279 202.164 355.995 200.708 356.764 198.128C357.534 195.547 356.078 192.832 353.498 192.062Z" fill="#FFFEEE"/>
<path d="M351.929 204.034C350.933 206.532 352.148 209.368 354.645 210.364C357.142 211.36 359.979 210.145 360.974 207.648C361.97 205.151 360.756 202.314 358.258 201.319C355.761 200.323 352.925 201.537 351.929 204.034Z" fill="#FFFEEE"/>
<path d="M367.401 231.08C365.251 229.458 362.196 229.888 360.581 232.038C358.967 234.188 359.389 237.243 361.54 238.858C363.69 240.48 366.745 240.05 368.359 237.9C369.974 235.75 369.551 232.694 367.401 231.08Z" fill="#FFFEEE"/>
<path d="M361.773 241.755C359.97 243.754 360.129 246.832 362.12 248.635C364.12 250.438 367.198 250.28 369.001 248.288C370.804 246.289 370.645 243.211 368.654 241.408C366.654 239.605 363.576 239.764 361.773 241.755Z" fill="#FFFEEE"/>
<path d="M368.986 251.812C367.251 249.941 364.392 249.745 362.423 251.284C342.536 238.474 313.288 226.192 281.602 235.003C271.833 237.719 264.108 241.823 258.683 245.392L258.804 231.08C261.988 228.493 270.286 222.525 283.164 218.67C305.646 211.941 330.715 214.483 357.67 226.222L357.866 225.769C358.077 227.127 358.847 228.387 360.099 229.164C362.385 230.59 365.387 229.888 366.813 227.61C368.239 225.324 367.537 222.322 365.259 220.896C363.569 219.847 361.495 219.953 359.948 221.001L360.318 220.149C361.977 220.043 363.547 219.085 364.354 217.493C365.568 215.094 364.61 212.16 362.211 210.945C359.812 209.731 356.878 210.689 355.663 213.088C355.535 213.337 355.444 213.586 355.361 213.842C321.707 200.844 295.725 203.748 279.505 208.727C270.724 211.428 263.836 214.974 258.932 218.052L259.068 201.115C267.736 195.774 301.821 176.982 338.395 186.291L338.93 184.186C339.421 184.428 339.964 184.601 340.537 184.669C343.208 184.978 345.622 183.055 345.931 180.384C346.24 177.713 344.317 175.299 341.646 174.99C340.62 174.869 339.632 175.088 338.787 175.541C338.576 175.495 338.372 175.443 338.161 175.39C338.885 174.56 339.338 173.489 339.368 172.304C339.436 169.611 337.308 167.378 334.623 167.31C331.929 167.242 329.696 169.37 329.628 172.055C329.613 172.727 329.734 173.368 329.96 173.956C299.248 169.958 272.233 181.682 259.174 188.811L259.325 170.878C268.604 167.567 295.876 158.966 316.253 164.142L316.6 162.761C317.595 163.463 318.848 163.802 320.153 163.606C322.816 163.199 324.642 160.709 324.234 158.053C323.834 155.451 321.435 153.648 318.84 153.957L318.855 153.904C317.882 153.655 316.901 153.444 315.913 153.248C315.921 152.833 315.883 152.41 315.777 151.98C315.136 149.37 312.496 147.771 309.885 148.412C308.03 148.865 306.687 150.336 306.294 152.079C305.955 152.063 305.623 152.041 305.283 152.033C306.815 150.781 307.494 148.669 306.815 146.692C305.947 144.15 303.179 142.784 300.629 143.659C298.079 144.534 296.721 147.296 297.596 149.845C297.898 150.728 298.426 151.46 299.097 152.011C283.949 152.471 269.087 156.499 260.238 159.389C261.203 155.149 262.961 151.113 265.458 147.469L269.622 141.373C271.146 143.539 274.134 144.089 276.329 142.603C278.555 141.094 279.136 138.069 277.627 135.836C276.118 133.603 273.093 133.03 270.86 134.538C269.291 135.602 268.544 137.428 268.762 139.186L268.166 138.778C268.755 137.209 268.521 135.383 267.382 133.988C265.684 131.906 262.614 131.589 260.532 133.294C259 134.546 258.427 136.538 258.91 138.333L256.737 141.517C253.101 146.843 250.664 152.803 249.532 159.042C241.475 155.526 227.111 150.675 208.1 149.928C208.508 149.476 208.84 148.948 209.066 148.344C210.001 145.824 208.711 143.018 206.192 142.083C203.672 141.147 200.865 142.437 199.93 144.957C199.289 146.684 199.696 148.548 200.828 149.853C200.609 149.853 200.39 149.861 200.171 149.868C199.711 148.299 198.474 146.994 196.784 146.534C194.189 145.824 191.511 147.356 190.802 149.951C190.364 151.55 190.779 153.18 191.767 154.357L192.356 160.875C221.152 158.287 241.845 166.918 248.778 170.35L248.627 188.66C236.044 182.014 209.783 172.116 170.199 176.574C170.214 176.25 170.199 175.91 170.138 175.578C170.04 174.998 169.844 174.462 169.565 173.979C170.138 174.22 170.772 174.349 171.428 174.349C174.122 174.349 176.302 172.168 176.302 169.475C176.302 166.782 174.122 164.602 171.428 164.602C168.735 164.602 166.555 166.782 166.555 169.475C166.555 170.35 166.789 171.165 167.189 171.874C166.374 171.535 165.461 171.407 164.525 171.565C161.87 172.003 160.074 174.515 160.52 177.17C160.663 178.023 161.017 178.785 161.523 179.418C160.61 178.936 159.546 178.732 158.452 178.913C155.797 179.35 154.001 181.863 154.447 184.518C154.884 187.174 157.396 188.969 160.052 188.524C161.523 188.283 162.722 187.4 163.432 186.216L163.726 188.094C211.955 180.565 240.774 195.91 248.522 200.829L248.378 218.361C243.15 215.185 235.674 211.39 226.146 208.441C209.345 203.243 182.843 199.833 149.701 211.571C149.973 210.523 149.897 209.376 149.415 208.32C148.291 205.876 145.401 204.804 142.957 205.928C140.513 207.052 139.441 209.942 140.565 212.386C141.086 213.525 141.999 214.363 143.07 214.823L143.259 215.291C142.029 214.921 140.656 215.042 139.449 215.728C137.11 217.063 136.303 220.036 137.638 222.375C138.974 224.713 141.946 225.52 144.285 224.185C145.084 223.725 145.703 223.076 146.118 222.322L146.797 223.981C173.465 213.11 198.934 211.224 222.509 218.376C235.727 222.382 244.621 228.274 248.273 230.997L248.152 246.101C219.122 227.15 191.805 228.727 173.329 233.842C159.267 237.734 148.419 244.064 142.316 248.206C142.082 247.564 141.712 246.961 141.192 246.44C139.29 244.539 136.205 244.539 134.304 246.44C132.403 248.341 132.403 251.427 134.304 253.328C135.533 254.558 137.261 254.988 138.838 254.626L139.381 255.259C137.616 254.799 135.669 255.35 134.424 256.844C132.697 258.911 132.968 261.981 135.036 263.709C137.103 265.436 140.173 265.165 141.901 263.098C142.768 262.057 143.13 260.766 143.017 259.514L143.696 260.314C143.824 260.201 156.898 249.254 176.536 243.913C201.695 237.07 225.738 242.117 248.054 258.911L247.941 273.033C242.162 269.51 233.592 265.263 222.796 262.743C204.902 258.556 177.471 258.549 146.42 280.849C146.842 278.835 145.952 276.692 144.073 275.621C141.735 274.286 138.762 275.093 137.427 277.431C136.092 279.77 136.899 282.742 139.238 284.078C140.03 284.53 140.897 284.734 141.742 284.712L142.202 285.292C141.388 285.783 140.701 286.507 140.279 287.435C139.155 289.879 140.226 292.769 142.67 293.893C144.79 294.866 147.249 294.187 148.592 292.391C172.153 274.074 196.143 267.511 219.929 272.913C234.248 276.164 244.282 283.007 247.843 285.715L247.729 299.407C242.132 296.526 233.977 293.055 224.079 290.988C207.459 287.518 182.843 287.541 157.902 306.182C157.396 304.673 156.159 303.436 154.507 303.013C151.904 302.342 149.241 303.904 148.57 306.506C147.898 309.109 149.46 311.772 152.063 312.444C153.473 312.806 154.892 312.512 156.008 311.757L156.242 312.044C155.065 312.753 154.19 313.952 153.949 315.416C153.511 318.072 155.299 320.576 157.955 321.021C160.61 321.459 163.115 319.671 163.56 317.015C163.665 316.389 163.643 315.763 163.515 315.175C181.153 301.686 200.654 297.001 221.536 301.248C234.022 303.791 243.565 308.973 247.639 311.463L247.526 325.08C243.052 322.613 237.009 319.837 229.88 317.973C216.255 314.413 196.15 313.643 176.008 329.048C175.14 327.622 173.571 326.672 171.783 326.694C169.09 326.732 166.94 328.935 166.977 331.628C167.015 334.322 169.218 336.472 171.911 336.434C173.269 336.419 174.491 335.845 175.366 334.933L175.608 335.212C174.808 336.177 174.378 337.46 174.514 338.803C174.785 341.481 177.177 343.427 179.855 343.156C182.533 342.884 184.48 340.493 184.208 337.814C184.155 337.301 184.027 336.819 183.831 336.374C196.897 326.928 211.344 324.137 226.862 328.09C236.557 330.557 244.055 335.091 247.428 337.377L247.239 360.303C245.428 358.704 242.667 358.666 240.804 360.303C238.782 362.084 238.586 365.162 240.366 367.176C242.147 369.198 245.225 369.387 247.239 367.614C247.895 367.04 248.356 366.324 248.62 365.554H249.442C249.676 366.354 250.113 367.108 250.755 367.719C252.701 369.575 255.787 369.492 257.642 367.546C259.385 365.713 259.415 362.868 257.786 360.998L257.982 337.332C265.043 332.534 289.728 318.683 317.218 337.46C316.087 338.199 315.264 339.406 315.061 340.855C314.683 343.518 316.547 345.985 319.21 346.354C321.873 346.732 324.34 344.868 324.71 342.205C324.823 341.405 324.732 340.636 324.483 339.919L325.072 339.225C325.766 339.67 326.573 339.949 327.456 339.995C330.141 340.131 332.435 338.063 332.571 335.378C332.706 332.692 330.639 330.399 327.953 330.263C327.207 330.225 326.49 330.361 325.841 330.633C305.887 315.74 286.823 315.997 274.013 319.037C267.631 320.554 262.214 322.87 258.088 325.035L258.201 311.395C277.778 298.781 297.355 296.171 316.419 303.64C326.565 307.615 334.057 313.568 337.897 317.076C336.954 318.094 336.448 319.512 336.637 320.999C336.976 323.669 339.413 325.555 342.084 325.216C344.754 324.876 346.64 322.44 346.301 319.769C346.135 318.486 345.486 317.393 344.566 316.631L344.769 316.45L344.875 316.359C345.893 316.947 347.123 317.181 348.36 316.91C350.986 316.336 352.653 313.741 352.08 311.108C351.506 308.483 348.911 306.816 346.278 307.389C345.456 307.57 344.732 307.947 344.136 308.46C339.473 304.334 331.439 298.246 320.704 293.968C306.166 288.167 284.069 284.81 258.291 299.03L258.404 285.383C280.26 270.302 302.311 267.066 324 275.779C341.133 282.66 351.74 294.775 351.846 294.896L351.891 294.858C351.944 295.296 352.049 295.741 352.23 296.171C353.256 298.653 356.108 299.837 358.598 298.804C361.08 297.778 362.264 294.926 361.231 292.437C360.627 290.988 359.405 289.985 358.002 289.6L358.334 289.313C359.624 289.849 361.132 289.834 362.468 289.14C364.852 287.895 365.772 284.953 364.527 282.569C363.283 280.185 360.34 279.265 357.956 280.509C356.689 281.173 355.844 282.312 355.505 283.595C350.412 278.857 341.043 271.328 328.361 266.153C311.975 259.469 287.14 255.712 258.51 272.777L258.623 258.586C262.101 255.629 271.305 248.696 284.982 244.999C308.535 238.64 333.664 244.381 359.684 262.064L362.06 258.564C363.909 260.367 366.858 260.427 368.767 258.654C370.744 256.828 370.857 253.743 369.031 251.766L368.986 251.812Z" fill="#FFFEEE"/>
<path d="M368.39 262.199C366.746 260.071 363.683 259.679 361.555 261.331C359.428 262.976 359.036 266.039 360.688 268.166C362.332 270.294 365.395 270.686 367.523 269.034C369.65 267.389 370.042 264.326 368.39 262.199Z" fill="#FFFEEE"/>
<path d="M360.152 271.019C357.889 272.467 357.225 275.485 358.681 277.748C360.129 280.011 363.147 280.675 365.41 279.219C367.673 277.771 368.337 274.753 366.881 272.49C365.433 270.227 362.415 269.563 360.152 271.019Z" fill="#FFFEEE"/>
<path d="M350.903 298.826C348.338 299.633 346.904 302.364 347.711 304.929C348.519 307.494 351.25 308.927 353.815 308.12C356.38 307.313 357.813 304.582 357.006 302.017C356.199 299.452 353.468 298.018 350.903 298.826Z" fill="#FFFEEE"/>
<path d="M329.983 328.279C330.088 330.964 332.344 333.062 335.037 332.963C337.723 332.858 339.82 330.602 339.722 327.909C339.624 325.216 337.361 323.126 334.668 323.224C331.982 323.33 329.885 325.585 329.983 328.279Z" fill="#FFFEEE"/>
<path d="M310.376 351.99C312.994 352.601 315.612 350.964 316.223 348.346C316.834 345.728 315.197 343.11 312.579 342.499C309.961 341.888 307.344 343.525 306.732 346.143C306.121 348.761 307.758 351.378 310.376 351.99Z" fill="#FFFEEE"/>
<path d="M301.15 356.795C303.707 357.633 306.461 356.237 307.298 353.68C308.136 351.122 306.74 348.369 304.183 347.531C301.625 346.694 298.872 348.089 298.034 350.647C297.197 353.204 298.592 355.958 301.15 356.795Z" fill="#FFFEEE"/>
<path d="M291.523 360.763C293.997 361.827 296.857 360.68 297.92 358.206C298.984 355.731 297.837 352.872 295.363 351.808C292.888 350.745 290.029 351.891 288.966 354.366C287.902 356.84 289.049 359.699 291.523 360.763Z" fill="#FFFEEE"/>
<path d="M286.212 355.286C283.843 354.011 280.886 354.894 279.611 357.262C278.336 359.631 279.219 362.589 281.588 363.863C283.956 365.138 286.914 364.256 288.189 361.887C289.464 359.518 288.581 356.561 286.212 355.286Z" fill="#FFFEEE"/>
<path d="M270.029 359.323C268.551 361.571 269.169 364.588 271.417 366.067C273.666 367.546 276.683 366.927 278.162 364.679C279.64 362.431 279.022 359.413 276.774 357.935C274.526 356.456 271.508 357.075 270.029 359.323Z" fill="#FFFEEE"/>
<path d="M260.313 360.529C258.638 362.634 258.993 365.697 261.098 367.372C263.202 369.046 266.265 368.692 267.94 366.587C269.615 364.482 269.26 361.419 267.155 359.745C265.051 358.07 261.988 358.424 260.313 360.529Z" fill="#FFFEEE"/>
<path d="M231.035 358.937C228.87 360.529 228.402 363.577 229.994 365.75C231.585 367.915 234.633 368.382 236.806 366.791C238.971 365.199 239.439 362.151 237.847 359.978C236.255 357.806 233.207 357.345 231.035 358.937Z" fill="#FFFEEE"/>
<path d="M226.545 365.026C228.846 363.63 229.578 360.635 228.19 358.334C226.794 356.033 223.799 355.302 221.498 356.69C219.197 358.078 218.466 361.08 219.854 363.381C221.249 365.682 224.244 366.414 226.545 365.026Z" fill="#FFFEEE"/>
<path d="M216.489 362.355C218.903 361.171 219.899 358.251 218.714 355.837C217.53 353.423 214.61 352.427 212.196 353.611C209.782 354.796 208.786 357.715 209.971 360.129C211.155 362.544 214.075 363.539 216.489 362.355Z" fill="#FFFEEE"/>
<path d="M206.712 358.81C209.224 357.844 210.477 355.023 209.511 352.511C208.545 349.998 205.724 348.746 203.212 349.712C200.7 350.677 199.447 353.499 200.413 356.011C201.379 358.523 204.2 359.776 206.712 358.81Z" fill="#FFFEEE"/>
<path d="M197.282 354.403C199.869 353.664 201.363 350.963 200.624 348.383C199.884 345.803 197.183 344.302 194.603 345.041C192.016 345.78 190.522 348.481 191.261 351.061C192.001 353.641 194.701 355.143 197.282 354.403Z" fill="#FFFEEE"/>
<path d="M186.441 339.617C183.8 340.123 182.073 342.68 182.578 345.32C183.084 347.961 185.641 349.689 188.281 349.183C190.922 348.678 192.649 346.12 192.144 343.48C191.639 340.839 189.081 339.112 186.441 339.617Z" fill="#FFFEEE"/>
<path d="M169.754 324.574C169.957 321.889 167.95 319.55 165.265 319.346C162.579 319.143 160.24 321.149 160.037 323.835C159.833 326.521 161.84 328.859 164.525 329.063C167.211 329.267 169.55 327.26 169.754 324.574Z" fill="#FFFEEE"/>
<path d="M153.119 300.441C154.024 297.906 152.696 295.122 150.162 294.217C147.627 293.312 144.843 294.64 143.938 297.174C143.032 299.709 144.36 302.493 146.895 303.398C149.43 304.304 152.214 302.976 153.119 300.441Z" fill="#FFFEEE"/>
<path d="M143.409 272.783C144.948 270.573 144.405 267.54 142.195 266.001C139.984 264.462 136.951 265.005 135.412 267.216C133.873 269.426 134.417 272.459 136.627 273.998C138.837 275.537 141.87 274.994 143.409 272.783Z" fill="#FFFEEE"/>
<path d="M134.455 242.947C136.182 245.014 139.253 245.286 141.32 243.558C143.387 241.831 143.658 238.76 141.931 236.693C140.203 234.626 137.133 234.354 135.066 236.082C133.006 237.81 132.727 240.88 134.455 242.947Z" fill="#FFFEEE"/>
<path d="M142.353 233.812C144.563 232.273 145.106 229.24 143.567 227.029C142.028 224.819 138.996 224.276 136.785 225.815C134.575 227.354 134.032 230.387 135.571 232.597C137.11 234.807 140.142 235.351 142.353 233.812Z" fill="#FFFEEE"/>
<path d="M147.272 196.497C144.737 197.403 143.417 200.186 144.315 202.721C145.22 205.256 148.004 206.576 150.539 205.678C153.073 204.773 154.394 201.989 153.496 199.455C152.591 196.92 149.807 195.6 147.272 196.497Z" fill="#FFFEEE"/>
<path d="M154.899 196.898C157.502 196.227 159.071 193.563 158.392 190.961C157.721 188.358 155.058 186.789 152.455 187.468C149.852 188.139 148.283 190.802 148.962 193.405C149.633 196.008 152.296 197.577 154.899 196.898Z" fill="#FFFEEE"/>
<path d="M253.553 85.0029H248.068V96.7114H253.553V85.0029Z" fill="#FFFEEE"/>
<path d="M254.682 84.9952L254.214 96.6943L259.694 96.9135L260.162 85.2144L254.682 84.9952Z" fill="#FFFEEE"/>
<path d="M261.329 85.2568L260.392 96.9277L265.859 97.3666L266.796 85.6957L261.329 85.2568Z" fill="#FFFEEE"/>
<path d="M267.914 85.786L266.512 97.4102L271.957 98.0672L273.359 86.443L267.914 85.786Z" fill="#FFFEEE"/>
<path d="M274.485 86.5701L272.619 98.1289L278.034 99.003L279.9 87.4441L274.485 86.5701Z" fill="#FFFEEE"/>
<path d="M281.018 87.6099L278.691 99.085L284.067 100.175L286.393 88.6996L281.018 87.6099Z" fill="#FFFEEE"/>
<path d="M287.496 88.922L284.713 100.295L290.04 101.599L292.823 90.2256L287.496 88.922Z" fill="#FFFEEE"/>
<path d="M293.957 90.5048L290.72 101.757L295.991 103.273L299.228 92.0211L293.957 90.5048Z" fill="#FFFEEE"/>
<path d="M300.31 92.3228L296.626 103.437L301.832 105.162L305.516 94.0485L300.31 92.3228Z" fill="#FFFEEE"/>
<path d="M306.585 94.3988L302.46 105.356L307.593 107.289L311.718 96.3312L306.585 94.3988Z" fill="#FFFEEE"/>
<path d="M312.776 96.7091L308.216 107.493L313.267 109.629L317.827 98.845L312.776 96.7091Z" fill="#FFFEEE"/>
<path d="M318.901 99.3061L313.912 109.898L318.874 112.235L323.863 101.643L318.901 99.3061Z" fill="#FFFEEE"/>
<path d="M324.893 102.118L319.484 112.503L324.349 115.036L329.757 104.652L324.893 102.118Z" fill="#FFFEEE"/>
<path d="M330.757 105.163L324.938 115.323L329.698 118.049L335.517 107.889L330.757 105.163Z" fill="#FFFEEE"/>
<path d="M336.496 108.436L330.276 118.355L334.923 121.269L341.143 111.35L336.496 108.436Z" fill="#FFFEEE"/>
<path d="M342.136 111.976L335.522 121.638L340.048 124.736L346.662 115.074L342.136 111.976Z" fill="#FFFEEE"/>
<path d="M347.599 115.705L340.605 125.095L345.004 128.371L351.998 118.981L347.599 115.705Z" fill="#FFFEEE"/>
<path d="M352.903 119.647L345.539 128.75L349.803 132.199L357.167 123.096L352.903 119.647Z" fill="#FFFEEE"/>
<path d="M358.048 123.791L350.326 132.593L354.449 136.21L362.171 127.408L358.048 123.791Z" fill="#FFFEEE"/>
<path d="M363.049 128.186L354.98 136.671L358.955 140.45L367.023 131.966L363.049 128.186Z" fill="#FFFEEE"/>
<path d="M367.843 132.738L359.442 140.894L363.263 144.829L371.664 136.673L367.843 132.738Z" fill="#FFFEEE"/>
<path d="M372.456 137.467L363.735 145.28L367.395 149.365L376.115 141.552L372.456 137.467Z" fill="#FFFEEE"/>
<path d="M376.873 142.384L367.848 149.843L371.341 154.071L380.367 146.612L376.873 142.384Z" fill="#FFFEEE"/>
<path d="M381.11 147.522L371.793 154.612L375.114 158.977L384.432 151.887L381.11 147.522Z" fill="#FFFEEE"/>
<path d="M385.126 152.779L375.532 159.491L378.676 163.985L388.27 157.273L385.126 152.779Z" fill="#FFFEEE"/>
<path d="M388.914 158.188L379.061 164.512L382.023 169.128L391.877 162.804L388.914 158.188Z" fill="#FFFEEE"/>
<path d="M392.493 163.738L382.395 169.663L385.17 174.394L395.269 168.469L392.493 163.738Z" fill="#FFFEEE"/>
<path d="M395.858 169.497L385.529 175.012L388.113 179.85L398.441 174.335L395.858 169.497Z" fill="#FFFEEE"/>
<path d="M398.977 175.31L388.437 180.408L390.824 185.346L401.365 180.248L398.977 175.31Z" fill="#FFFEEE"/>
<path d="M401.868 181.261L391.132 185.934L393.321 190.963L404.056 186.29L401.868 181.261Z" fill="#FFFEEE"/>
<path d="M404.516 187.307L393.603 191.547L395.589 196.659L406.502 192.419L404.516 187.307Z" fill="#FFFEEE"/>
<path d="M406.917 193.531L395.842 197.329L397.621 202.517L408.696 198.719L406.917 193.531Z" fill="#FFFEEE"/>
<path d="M409.067 199.78L397.849 203.133L399.419 208.388L410.637 205.035L409.067 199.78Z" fill="#FFFEEE"/>
<path d="M410.975 206.103L399.632 209.005L400.991 214.318L412.334 211.416L410.975 206.103Z" fill="#FFFEEE"/>
<path d="M412.622 212.501L401.172 214.947L402.318 220.311L413.768 217.864L412.622 212.501Z" fill="#FFFEEE"/>
<path d="M414.006 219.022L402.467 221.007L403.397 226.412L414.936 224.427L414.006 219.022Z" fill="#FFFEEE"/>
<path d="M415.136 225.53L403.527 227.052L404.24 232.49L415.849 230.968L415.136 225.53Z" fill="#FFFEEE"/>
<path d="M416.01 232.079L404.35 233.136L404.845 238.598L416.505 237.541L416.01 232.079Z" fill="#FFFEEE"/>
<path d="M416.614 238.657L404.92 239.247L405.196 244.725L416.89 244.134L416.614 238.657Z" fill="#FFFEEE"/>
<path d="M416.967 245.255L405.259 245.378L405.316 250.862L417.024 250.74L416.967 245.255Z" fill="#FFFEEE"/>
<path d="M405.343 251.574L405.181 257.057L416.884 257.404L417.047 251.922L405.343 251.574Z" fill="#FFFEEE"/>
<path d="M405.15 257.71L404.769 263.182L416.449 263.996L416.83 258.525L405.15 257.71Z" fill="#FFFEEE"/>
<path d="M404.728 263.837L404.128 269.289L415.766 270.57L416.366 265.118L404.728 263.837Z" fill="#FFFEEE"/>
<path d="M404.063 269.951L403.246 275.374L414.824 277.119L415.641 271.695L404.063 269.951Z" fill="#FFFEEE"/>
<path d="M403.196 276.065L402.162 281.451L413.66 283.659L414.695 278.273L403.196 276.065Z" fill="#FFFEEE"/>
<path d="M402.038 282.098L400.789 287.438L412.19 290.104L413.439 284.764L402.038 282.098Z" fill="#FFFEEE"/>
<path d="M400.64 288.083L399.179 293.369L410.464 296.488L411.925 291.202L400.64 288.083Z" fill="#FFFEEE"/>
<path d="M399.011 294.006L397.34 299.229L408.492 302.797L410.163 297.573L399.011 294.006Z" fill="#FFFEEE"/>
<path d="M397.178 299.904L395.299 305.057L406.298 309.069L408.178 303.916L397.178 299.904Z" fill="#FFFEEE"/>
<path d="M395.073 305.681L392.989 310.754L403.82 315.202L405.904 310.129L395.073 305.681Z" fill="#FFFEEE"/>
<path d="M392.741 311.361L390.456 316.347L401.1 321.224L403.385 316.238L392.741 311.361Z" fill="#FFFEEE"/>
<path d="M390.182 316.944L387.7 321.835L398.141 327.134L400.623 322.243L390.182 316.944Z" fill="#FFFEEE"/>
<path d="M387.435 322.494L384.759 327.281L394.978 332.995L397.655 328.208L387.435 322.494Z" fill="#FFFEEE"/>
<path d="M384.438 327.853L381.572 332.529L391.555 338.647L394.421 333.971L384.438 327.853Z" fill="#FFFEEE"/>
<path d="M381.235 333.09L378.185 337.648L387.915 344.16L390.965 339.602L381.235 333.09Z" fill="#FFFEEE"/>
<path d="M377.818 338.194L374.588 342.627L384.051 349.522L387.281 345.09L377.818 338.194Z" fill="#FFFEEE"/>
<path d="M374.225 343.229L370.819 347.528L379.998 354.798L383.403 350.498L374.225 343.229Z" fill="#FFFEEE"/>
<path d="M370.408 348.048L366.834 352.208L375.715 359.838L379.289 355.678L370.408 348.048Z" fill="#FFFEEE"/>
<path d="M366.411 352.707L362.673 356.721L371.241 364.7L374.979 360.686L366.411 352.707Z" fill="#FFFEEE"/>
<path d="M362.231 357.2L358.336 361.062L366.579 369.377L370.474 365.515L362.231 357.2Z" fill="#FFFEEE"/>
<path d="M357.871 361.601L353.824 365.303L361.727 373.942L365.774 370.24L357.871 361.601Z" fill="#FFFEEE"/>
<path d="M353.348 365.744L349.156 369.281L356.707 378.229L360.899 374.692L353.348 365.744Z" fill="#FFFEEE"/>
<path d="M348.647 369.717L344.317 373.084L351.505 382.327L355.834 378.96L348.647 369.717Z" fill="#FFFEEE"/>
<path d="M343.804 373.481L339.344 376.672L346.156 386.194L350.617 383.003L343.804 373.481Z" fill="#FFFEEE"/>
<path d="M338.802 377.127L334.217 380.137L340.642 389.925L345.227 386.915L338.802 377.127Z" fill="#FFFEEE"/>
<path d="M333.673 380.496L328.972 383.32L335 393.357L339.702 390.534L333.673 380.496Z" fill="#FFFEEE"/>
<path d="M328.406 383.672L323.595 386.306L329.217 396.576L334.028 393.942L328.406 383.672Z" fill="#FFFEEE"/>
<path d="M323.033 386.616L318.121 389.056L323.329 399.542L328.241 397.103L323.033 386.616Z" fill="#FFFEEE"/>
<path d="M317.499 389.413L312.493 391.653L317.276 402.34L322.282 400.1L317.499 389.413Z" fill="#FFFEEE"/>
<path d="M311.895 391.925L306.804 393.964L311.156 404.833L316.247 402.795L311.895 391.925Z" fill="#FFFEEE"/>
<path d="M306.194 394.21L301.025 396.044L304.94 407.079L310.109 405.245L306.194 394.21Z" fill="#FFFEEE"/>
<path d="M300.412 396.276L295.174 397.901L298.644 409.084L303.882 407.458L300.412 396.276Z" fill="#FFFEEE"/>
<path d="M294.509 398.152L289.21 399.566L292.228 410.879L297.528 409.465L294.509 398.152Z" fill="#FFFEEE"/>
<path d="M288.582 399.738L283.23 400.939L285.795 412.364L291.146 411.163L288.582 399.738Z" fill="#FFFEEE"/>
<path d="M282.589 401.094L277.194 402.08L279.3 413.598L284.695 412.611L282.589 401.094Z" fill="#FFFEEE"/>
<path d="M276.55 402.203L271.12 402.973L272.764 414.565L278.194 413.795L276.55 402.203Z" fill="#FFFEEE"/>
<path d="M270.483 403.075L265.026 403.627L266.206 415.276L271.662 414.724L270.483 403.075Z" fill="#FFFEEE"/>
<path d="M264.31 403.737L258.836 404.07L259.547 415.757L265.021 415.424L264.31 403.737Z" fill="#FFFEEE"/>
<path d="M258.192 404.119L252.709 404.232L252.952 415.938L258.436 415.824L258.192 404.119Z" fill="#FFFEEE"/>
<path d="M246.545 404.142L246.32 415.849L251.804 415.954L252.029 404.248L246.545 404.142Z" fill="#FFFEEE"/>
<path d="M240.397 403.805L239.705 415.493L245.18 415.817L245.872 404.13L240.397 403.805Z" fill="#FFFEEE"/>
<path d="M234.293 403.286L233.132 414.937L238.589 415.48L239.75 403.83L234.293 403.286Z" fill="#FFFEEE"/>
<path d="M228.189 402.458L226.563 414.053L231.995 414.814L233.62 403.219L228.189 402.458Z" fill="#FFFEEE"/>
<path d="M222.123 401.387L220.035 412.908L225.432 413.886L227.519 402.365L222.123 401.387Z" fill="#FFFEEE"/>
<path d="M216.107 400.073L213.561 411.501L218.914 412.694L221.46 401.265L216.107 400.073Z" fill="#FFFEEE"/>
<path d="M210.159 398.587L207.156 409.904L212.457 411.311L215.46 399.994L210.159 398.587Z" fill="#FFFEEE"/>
<path d="M204.269 396.791L200.816 407.979L206.057 409.596L209.51 398.408L204.269 396.791Z" fill="#FFFEEE"/>
<path d="M198.451 394.769L194.555 405.81L199.727 407.635L203.623 396.594L198.451 394.769Z" fill="#FFFEEE"/>
<path d="M192.717 392.521L188.382 403.397L193.477 405.428L197.812 394.552L192.717 392.521Z" fill="#FFFEEE"/>
<path d="M187.083 390.097L182.315 400.791L187.325 403.024L192.093 392.331L187.083 390.097Z" fill="#FFFEEE"/>
<path d="M181.554 387.397L176.362 397.892L181.278 400.323L186.47 389.829L181.554 387.397Z" fill="#FFFEEE"/>
<path d="M176.129 384.476L170.522 394.755L175.337 397.381L180.944 387.102L176.129 384.476Z" fill="#FFFEEE"/>
<path d="M170.833 381.33L164.82 391.377L169.526 394.194L175.539 384.147L170.833 381.33Z" fill="#FFFEEE"/>
<path d="M165.656 378.04L159.245 387.837L163.834 390.84L170.246 381.043L165.656 378.04Z" fill="#FFFEEE"/>
<path d="M160.623 374.487L153.825 384.021L158.291 387.205L165.088 377.671L160.623 374.487Z" fill="#FFFEEE"/>
<path d="M155.74 370.736L148.567 379.99L152.902 383.35L160.075 374.096L155.74 370.736Z" fill="#FFFEEE"/>
<path d="M151.012 366.806L143.475 375.766L147.672 379.296L155.209 370.336L151.012 366.806Z" fill="#FFFEEE"/>
<path d="M146.424 362.725L138.533 371.375L142.585 375.071L150.476 366.421L146.424 362.725Z" fill="#FFFEEE"/>
<path d="M142.02 358.422L133.79 366.75L137.691 370.605L145.921 362.277L142.02 358.422Z" fill="#FFFEEE"/>
<path d="M137.792 353.943L129.236 361.936L132.98 365.943L141.536 357.951L137.792 353.943Z" fill="#FFFEEE"/>
<path d="M133.749 349.3L124.881 356.944L128.462 361.099L137.33 353.454L133.749 349.3Z" fill="#FFFEEE"/>
<path d="M129.872 344.535L120.704 351.817L124.115 356.112L133.284 348.83L129.872 344.535Z" fill="#FFFEEE"/>
<path d="M126.211 339.596L116.759 346.506L119.996 350.933L129.448 344.023L126.211 339.596Z" fill="#FFFEEE"/>
<path d="M122.759 334.498L113.038 341.025L116.095 345.579L125.816 339.052L122.759 334.498Z" fill="#FFFEEE"/>
<path d="M119.504 329.28L109.53 335.413L112.403 340.085L122.377 333.952L119.504 329.28Z" fill="#FFFEEE"/>
<path d="M116.437 323.952L106.226 329.68L108.909 334.463L119.12 328.735L116.437 323.952Z" fill="#FFFEEE"/>
<path d="M113.614 318.477L103.182 323.793L105.672 328.68L116.104 323.364L113.614 318.477Z" fill="#FFFEEE"/>
<path d="M111.012 312.9L100.376 317.794L102.669 322.776L113.305 317.882L111.012 312.9Z" fill="#FFFEEE"/>
<path d="M108.633 307.23L97.8096 311.695L99.9014 316.765L110.725 312.3L108.633 307.23Z" fill="#FFFEEE"/>
<path d="M106.454 301.473L95.46 305.501L97.3466 310.651L108.341 306.623L106.454 301.473Z" fill="#FFFEEE"/>
<path d="M104.541 295.628L93.3945 299.213L95.0739 304.434L106.22 300.849L104.541 295.628Z" fill="#FFFEEE"/>
<path d="M102.858 289.717L91.5771 292.854L93.0465 298.138L104.327 295.001L102.858 289.717Z" fill="#FFFEEE"/>
<path d="M101.413 283.73L90.0166 286.413L91.2737 291.752L102.67 289.068L101.413 283.73Z" fill="#FFFEEE"/>
<path d="M100.176 277.711L88.6807 279.935L89.7225 285.319L101.218 283.095L100.176 277.711Z" fill="#FFFEEE"/>
<path d="M99.2156 271.626L87.6406 273.389L88.4664 278.811L100.041 277.048L99.2156 271.626Z" fill="#FFFEEE"/>
<path d="M98.4975 265.518L86.8613 266.817L87.4698 272.268L99.106 270.969L98.4975 265.518Z" fill="#FFFEEE"/>
<path d="M98.0245 259.385L86.3457 260.218L86.7359 265.688L98.4147 264.855L98.0245 259.385Z" fill="#FFFEEE"/>
<path d="M97.7692 253.24L86.0664 253.604L86.2368 259.085L97.9396 258.722L97.7692 253.24Z" fill="#FFFEEE"/>
<path d="M86.0918 246.986L86.043 252.471L97.751 252.575L97.7998 247.091L86.0918 246.986Z" fill="#FFFEEE"/>
<path d="M86.3656 240.364L86.0977 245.842L97.7921 246.414L98.0601 240.936L86.3656 240.364Z" fill="#FFFEEE"/>
<path d="M86.8987 233.759L86.4121 239.222L98.0744 240.26L98.561 234.798L86.8987 233.759Z" fill="#FFFEEE"/>
<path d="M87.6986 227.177L86.9941 232.616L98.6056 234.12L99.3101 228.681L87.6986 227.177Z" fill="#FFFEEE"/>
<path d="M88.763 220.665L87.8408 226.071L99.3826 228.04L100.305 222.634L88.763 220.665Z" fill="#FFFEEE"/>
<path d="M90.0838 214.169L88.9463 219.534L100.4 221.963L101.538 216.597L90.0838 214.169Z" fill="#FFFEEE"/>
<path d="M91.6635 207.743L90.3125 213.059L101.66 215.943L103.011 210.627L91.6635 207.743Z" fill="#FFFEEE"/>
<path d="M93.4998 201.367L91.9375 206.624L103.161 209.959L104.723 204.702L93.4998 201.367Z" fill="#FFFEEE"/>
<path d="M95.5914 195.11L93.8193 200.301L104.9 204.084L106.672 198.893L95.5914 195.11Z" fill="#FFFEEE"/>
<path d="M97.9301 188.906L95.9521 194.021L106.873 198.244L108.851 193.129L97.9301 188.906Z" fill="#FFFEEE"/>
<path d="M100.514 182.805L98.333 187.837L109.076 192.493L111.257 187.46L100.514 182.805Z" fill="#FFFEEE"/>
<path d="M103.343 176.816L100.963 181.757L111.511 186.838L113.891 181.897L103.343 176.816Z" fill="#FFFEEE"/>
<path d="M106.405 170.967L103.828 175.809L114.164 181.309L116.741 176.467L106.405 170.967Z" fill="#FFFEEE"/>
<path d="M109.699 165.217L106.931 169.952L117.039 175.861L119.807 171.126L109.699 165.217Z" fill="#FFFEEE"/>
<path d="M113.225 159.612L110.271 164.232L120.134 170.541L123.089 165.92L113.225 159.612Z" fill="#FFFEEE"/>
<path d="M116.974 154.142L113.837 158.641L123.441 165.338L126.578 160.839L116.974 154.142Z" fill="#FFFEEE"/>
<path d="M120.928 148.852L117.613 153.222L126.941 160.299L130.256 155.93L120.928 148.852Z" fill="#FFFEEE"/>
<path d="M125.103 143.706L121.616 147.939L130.653 155.384L134.14 151.151L125.103 143.706Z" fill="#FFFEEE"/>
<path d="M129.469 138.732L125.815 142.822L134.548 150.622L138.201 146.531L129.469 138.732Z" fill="#FFFEEE"/>
<path d="M134.047 133.935L130.233 137.876L138.647 146.018L142.461 142.077L134.047 133.935Z" fill="#FFFEEE"/>
<path d="M138.802 129.336L134.833 133.121L142.913 141.594L146.882 137.809L138.802 129.336Z" fill="#FFFEEE"/>
<path d="M143.732 124.926L139.615 128.55L147.351 137.339L151.468 133.716L143.732 124.926Z" fill="#FFFEEE"/>
<path d="M148.842 120.712L144.583 124.168L151.961 133.259L156.22 129.803L148.842 120.712Z" fill="#FFFEEE"/>
<path d="M154.115 116.699L149.722 119.982L156.73 129.361L161.124 126.078L154.115 116.699Z" fill="#FFFEEE"/>
<path d="M159.537 112.92L155.016 116.024L161.642 125.677L166.164 122.573L159.537 112.92Z" fill="#FFFEEE"/>
<path d="M165.122 109.342L160.479 112.263L166.715 122.172L171.357 119.252L165.122 109.342Z" fill="#FFFEEE"/>
<path d="M170.836 106.004L166.081 108.737L171.916 118.888L176.671 116.155L170.836 106.004Z" fill="#FFFEEE"/>
<path d="M176.668 102.888L171.808 105.429L177.232 115.805L182.093 113.264L176.668 102.888Z" fill="#FFFEEE"/>
<path d="M182.639 100.025L177.681 102.369L182.684 112.955L187.643 110.611L182.639 100.025Z" fill="#FFFEEE"/>
<path d="M188.714 97.3825L183.666 99.5264L188.243 110.303L193.291 108.159L188.714 97.3825Z" fill="#FFFEEE"/>
<path d="M194.884 94.9902L189.754 96.9307L193.896 107.882L199.026 105.941L194.884 94.9902Z" fill="#FFFEEE"/>
<path d="M201.141 92.8422L195.938 94.5762L199.639 105.684L204.842 103.95L201.141 92.8422Z" fill="#FFFEEE"/>
<path d="M207.488 90.9704L202.22 92.4941L205.473 103.742L210.741 102.218L207.488 90.9704Z" fill="#FFFEEE"/>
<path d="M213.911 89.3306L208.586 90.6426L211.387 102.011L216.712 100.699L213.911 89.3306Z" fill="#FFFEEE"/>
<path d="M220.385 87.9458L215.012 89.0439L217.356 100.515L222.73 99.4172L220.385 87.9458Z" fill="#FFFEEE"/>
<path d="M226.908 86.8274L221.495 87.71L223.379 99.2658L228.792 98.3833L226.908 86.8274Z" fill="#FFFEEE"/>
<path d="M233.475 85.9975L228.031 86.6621L229.45 98.2843L234.894 97.6197L233.475 85.9975Z" fill="#FFFEEE"/>
<path d="M240.068 85.3933L234.602 85.8398L235.555 97.5094L241.021 97.0629L240.068 85.3933Z" fill="#FFFEEE"/>
<path d="M246.683 85.0594L241.203 85.2871L241.689 96.9855L247.169 96.7577L246.683 85.0594Z" fill="#FFFEEE"/>
</g>
<defs>
<clipPath id="clip0_11_7435">
<rect width="350.19" height="350.19" fill="white" transform="translate(75 75)"/>
</clipPath>
</defs>
</svg>
