<svg width="500" height="500" viewBox="0 0 500 500" fill="none" xmlns="http://www.w3.org/2000/svg">
<rect width="500" height="500" fill="white"/>
<g clip-path="url(#clip0_11_8925)">
<path d="M232.53 237.83H235.86C239.64 237.83 242.8 236.97 245.24 235.27C247.64 233.6 249.15 231.04 249.73 227.67C250.31 224.32 249.77 221.95 248.1 220.44C246.39 218.9 243.58 218.11 239.78 218.11C238.5 218.11 237.19 218.17 235.9 218.29H235.86C234.21 218.45 232.68 219.92 232.38 221.64L230.13 234.71C229.98 235.6 230.17 236.41 230.67 237C231.12 237.53 231.78 237.82 232.54 237.82L232.53 237.83Z" fill="#E31837"/>
<path d="M179.77 151L158.76 273.77C175.51 280.36 192.88 281.89 209.93 281.31L222.89 214.75C223.09 213.57 223.59 212.63 224.35 211.95C225.06 211.32 226 210.83 227.11 210.5C229.04 209.83 231.32 209.37 233.86 209.12C236.39 208.88 238.78 208.76 240.96 208.76C248.59 208.76 254.06 210.5 257.2 213.93C260.36 217.38 261.46 222.09 260.45 227.91C259.45 233.69 256.77 238.38 252.49 241.85C248.21 245.32 242.36 247.08 235.12 247.08H228.06L221.06 280.65C241.59 279 261.35 275.19 278.64 274.58C313.25 273.35 346.2 283.64 346.2 283.64L367.62 151H179.77ZM307.23 216.3V216.36C307.03 217.48 306.61 218.52 305.98 219.47C305.38 220.36 304.64 221.31 303.77 222.29L273.17 256.55C272.98 256.76 272.95 256.99 273.01 257.12C273.04 257.18 273.08 257.23 273.2 257.23H297.35C298.7 257.23 299.77 258.12 300.01 259.45C300.14 260.19 300.12 261.03 299.97 261.94C299.71 263.47 299.13 264.65 298.27 265.45C297.38 266.26 296.32 266.68 295.1 266.68H261.82C260.2 266.68 258.86 265.69 258.41 264.16V264.13C258.14 263.22 258.1 262.19 258.3 261.07C258.49 259.96 258.91 258.89 259.55 257.89C260.16 256.93 260.91 255.95 261.79 254.97L292.45 220.8C292.64 220.59 292.67 220.36 292.61 220.22C292.58 220.17 292.54 220.11 292.42 220.11H269.39C268.04 220.11 266.98 219.22 266.74 217.89C266.61 217.15 266.62 216.31 266.78 215.4C267.45 211.49 269.85 210.67 271.73 210.67H302.61C304.05 210.67 305.32 211.24 306.2 212.27C307.11 213.35 307.48 214.78 307.22 216.3H307.23Z" fill="#E31837"/>
<path d="M148.62 293.3C148.43 294.42 147.97 295.4 147.23 296.25C147.21 296.28 147.18 296.3 147.16 296.33C146.12 297.51 144.5 297.82 143.42 297.07C142.34 296.32 141.16 295.61 139.86 294.93C137.96 293.93 135.44 293.42 132.29 293.41C129.57 293.39 127.01 293.87 124.59 294.85C122.17 295.82 119.98 297.26 118.02 299.15C116.06 301.05 114.37 303.41 112.96 306.23C111.55 309.05 110.53 312.3 109.9 315.98C108.63 323.41 109.39 329.04 112.19 332.87C114.99 336.7 119.23 338.64 124.9 338.67C127.92 338.69 130.62 338.24 133 337.33C134.59 336.72 136.06 336.06 137.39 335.33C138.72 334.6 140.2 334.96 140.82 336.17V336.2C141.27 337.06 141.4 338.05 141.2 339.16C141.04 340.08 140.66 340.93 140.07 341.72C139.47 342.51 138.59 343.23 137.43 343.88C135.91 344.79 133.92 345.6 131.46 346.31C128.99 347.02 125.97 347.36 122.39 347.34C118.44 347.32 114.88 346.66 111.71 345.35C108.54 344.05 105.91 342.09 103.82 339.48C101.74 336.87 100.3 333.6 99.5295 329.68C98.7495 325.76 98.8095 321.17 99.7095 315.91C100.61 310.65 102.11 306.25 104.26 302.32C106.41 298.39 108.97 295.11 111.92 292.49C114.87 289.88 118.12 287.9 121.69 286.57C125.25 285.24 128.91 284.59 132.68 284.61C135.33 284.63 137.68 284.89 139.72 285.39C141.76 285.9 143.47 286.55 144.85 287.34C146.23 288.14 147.24 289.07 147.89 290.12C148.54 291.18 148.78 292.23 148.6 293.28L148.62 293.3Z" fill="#717073"/>
<path d="M152.49 304.2C152.93 301.62 155.2 299.46 157.64 299.38C157.69 299.38 157.73 299.38 157.77 299.38C159.56 299.39 160.81 299.76 161.52 300.49C162.23 301.22 162.43 302.47 162.13 304.24L157.95 328.6C157.3 332.41 157.77 335.13 159.38 336.75C160.98 338.37 163.45 339.19 166.78 339.21C166.91 339.21 167.07 339.21 167.23 339.19C172.12 338.86 176.57 334.52 177.45 329.36L181.74 304.37C182.18 301.79 184.45 299.63 186.89 299.55C186.94 299.55 186.98 299.55 187.02 299.55C188.81 299.56 190.07 299.93 190.81 300.66C191.55 301.39 191.77 302.64 191.46 304.41C191.46 304.41 187.48 325.43 187.48 325.45C186.5 330.66 184.85 336.27 181.29 340.66C177.26 345.63 171.71 346.82 166.32 347.43C160.93 348.04 154.83 346.64 151.17 343.01C148.13 340 147.18 335.24 148.29 328.73L152.5 304.19L152.49 304.2Z" fill="#717073"/>
<path d="M226.879 333.82C226.119 338.22 223.989 341.67 220.479 344.15C216.969 346.63 212.279 347.85 206.419 347.82C204.009 347.81 201.829 347.6 199.859 347.19C197.889 346.78 196.239 346.22 194.919 345.48C193.589 344.75 192.609 343.89 191.979 342.9C191.349 341.91 191.129 340.82 191.339 339.64C191.509 338.65 191.899 337.74 192.509 336.88C192.549 336.82 192.599 336.76 192.639 336.7C193.549 335.5 195.089 335.11 196.129 335.81C197.329 336.62 198.659 337.39 200.129 338.1C202.179 339.1 204.689 339.61 207.649 339.62C210.429 339.64 212.639 339.14 214.299 338.13C215.959 337.12 216.949 335.66 217.269 333.75C217.549 332.11 217.269 330.79 216.419 329.8C215.569 328.81 214.199 328.04 212.319 327.51L206.329 325.7C202.339 324.49 199.529 322.86 197.909 320.81C196.279 318.76 195.779 315.96 196.389 312.41C196.719 310.5 197.389 308.71 198.419 307.04C199.449 305.37 200.789 303.93 202.449 302.72C204.109 301.51 206.069 300.57 208.349 299.89C210.629 299.21 213.149 298.88 215.929 298.9C218.149 298.91 220.139 299.11 221.899 299.48C223.659 299.85 225.149 300.35 226.369 300.99C227.589 301.62 228.489 302.4 229.069 303.32C229.649 304.25 229.849 305.23 229.669 306.28C229.489 307.33 229.119 308.24 228.559 308.99C228.559 308.99 228.549 309.01 228.539 309.01C227.689 310.14 226.249 310.52 225.219 309.94C224.359 309.46 223.299 308.95 222.039 308.41C219.999 307.54 217.709 307.1 215.179 307.09C212.649 307.08 210.469 307.54 208.829 308.48C207.189 309.43 206.219 310.75 205.919 312.46C205.689 313.78 205.919 314.86 206.609 315.72C207.299 316.58 208.609 317.28 210.559 317.82L215.669 319.33C220.129 320.67 223.279 322.47 225.119 324.71C226.959 326.96 227.549 329.99 226.899 333.8L226.879 333.82Z" fill="#717073"/>
<path d="M264.73 334.04C263.97 338.44 261.84 341.89 258.33 344.37C254.82 346.85 250.13 348.07 244.27 348.04C241.86 348.03 239.68 347.82 237.71 347.41C235.74 347 234.09 346.44 232.77 345.7C231.44 344.97 230.46 344.11 229.83 343.12C229.2 342.13 228.98 341.04 229.19 339.86C229.36 338.87 229.75 337.96 230.36 337.1C230.4 337.04 230.45 336.98 230.49 336.92C231.4 335.72 232.94 335.33 233.98 336.03C235.18 336.84 236.51 337.61 237.98 338.32C240.03 339.32 242.54 339.83 245.5 339.84C248.28 339.86 250.49 339.36 252.15 338.35C253.81 337.34 254.8 335.88 255.12 333.97C255.4 332.33 255.12 331.01 254.27 330.02C253.42 329.03 252.05 328.26 250.17 327.73L244.18 325.92C240.19 324.71 237.38 323.08 235.76 321.03C234.13 318.98 233.63 316.18 234.24 312.63C234.57 310.72 235.24 308.93 236.27 307.26C237.3 305.59 238.64 304.15 240.3 302.94C241.96 301.73 243.92 300.79 246.2 300.11C248.48 299.43 251 299.1 253.78 299.12C256 299.13 257.99 299.33 259.75 299.7C261.51 300.07 263 300.57 264.22 301.21C265.44 301.84 266.34 302.62 266.92 303.54C267.5 304.47 267.7 305.45 267.52 306.5C267.34 307.55 266.97 308.46 266.41 309.21C266.41 309.21 266.4 309.23 266.39 309.23C265.54 310.36 264.1 310.74 263.07 310.16C262.21 309.68 261.15 309.17 259.89 308.63C257.85 307.76 255.56 307.32 253.03 307.31C250.5 307.3 248.32 307.76 246.68 308.7C245.04 309.65 244.07 310.97 243.77 312.68C243.54 314 243.77 315.08 244.46 315.94C245.15 316.8 246.46 317.5 248.41 318.04L253.52 319.55C257.98 320.89 261.13 322.69 262.97 324.93C264.81 327.18 265.4 330.21 264.75 334.02L264.73 334.04Z" fill="#717073"/>
<path d="M314.06 323.96C313.42 327.71 312.31 331.09 310.75 334.11C309.18 337.13 307.28 339.68 305.04 341.78C302.8 343.87 300.22 345.49 297.31 346.62C294.4 347.75 291.28 348.31 287.95 348.29C284.62 348.27 281.69 347.68 279.18 346.51C276.66 345.34 274.64 343.7 273.12 341.59C271.6 339.48 270.57 336.9 270.04 333.87C269.51 330.84 269.57 327.45 270.21 323.7C270.85 319.95 271.96 316.57 273.52 313.55C275.09 310.53 277.01 307.98 279.28 305.88C281.55 303.79 284.14 302.17 287.06 301.04C289.97 299.91 293.06 299.35 296.33 299.37C299.6 299.39 302.49 299.98 305.01 301.15C307.53 302.32 309.56 303.97 311.1 306.12C312.64 308.27 313.69 310.84 314.22 313.84C314.76 316.84 314.7 320.21 314.06 323.96ZM294.9 307.66C291.2 307.64 288.03 309.04 285.38 311.85C282.74 314.66 280.97 318.63 280.1 323.76C279.23 328.89 279.59 332.85 281.21 335.66C282.83 338.47 285.55 339.88 289.37 339.9C293.19 339.92 296.39 338.54 298.97 335.76C301.55 332.98 303.27 329.02 304.15 323.9C305.03 318.78 304.63 314.87 303 312C301.36 309.13 298.66 307.68 294.9 307.66Z" fill="#717073"/>
<path d="M397.51 334.81C396.75 339.21 394.62 342.66 391.11 345.14C387.6 347.62 382.91 348.84 377.05 348.81C374.64 348.8 372.46 348.59 370.49 348.18C368.52 347.77 366.87 347.21 365.55 346.47C364.22 345.74 363.24 344.88 362.61 343.89C361.98 342.9 361.76 341.81 361.97 340.63C362.14 339.64 362.53 338.73 363.14 337.87C363.18 337.81 363.23 337.75 363.27 337.69C364.18 336.49 365.72 336.1 366.76 336.8C367.96 337.61 369.29 338.38 370.76 339.09C372.81 340.09 375.32 340.6 378.28 340.61C381.06 340.63 383.27 340.13 384.93 339.12C386.59 338.11 387.58 336.65 387.9 334.74C388.18 333.1 387.9 331.78 387.05 330.79C386.2 329.8 384.83 329.03 382.95 328.5L376.96 326.69C372.97 325.48 370.16 323.85 368.54 321.8C366.91 319.75 366.41 316.95 367.02 313.4C367.35 311.49 368.02 309.7 369.05 308.03C370.08 306.36 371.42 304.92 373.08 303.71C374.74 302.5 376.7 301.56 378.98 300.88C381.26 300.2 383.78 299.87 386.56 299.89C388.78 299.9 390.77 300.1 392.53 300.47C394.29 300.84 395.78 301.34 397 301.98C398.22 302.61 399.12 303.39 399.7 304.31C400.28 305.24 400.48 306.22 400.3 307.27C400.12 308.32 399.75 309.23 399.19 309.98C399.19 309.98 399.18 310 399.17 310C398.32 311.13 396.88 311.51 395.85 310.93C394.99 310.45 393.93 309.94 392.67 309.4C390.63 308.53 388.34 308.09 385.81 308.08C383.28 308.07 381.1 308.53 379.46 309.47C377.82 310.42 376.85 311.74 376.55 313.45C376.32 314.77 376.55 315.85 377.24 316.71C377.93 317.57 379.24 318.27 381.19 318.81L386.3 320.32C390.76 321.66 393.91 323.46 395.75 325.7C397.59 327.95 398.18 330.98 397.53 334.79L397.51 334.81Z" fill="#717073"/>
<path d="M354.79 343.269C354.35 345.849 352.08 348.009 349.64 348.089C349.59 348.089 349.55 348.089 349.51 348.089C347.72 348.079 346.47 347.709 345.76 346.979C345.05 346.249 344.85 344.999 345.15 343.229L349.33 318.869C349.98 315.059 349.51 312.339 347.9 310.719C346.3 309.099 343.83 308.279 340.5 308.259C340.37 308.259 340.21 308.259 340.05 308.279C335.16 308.609 330.71 312.949 329.83 318.109L325.54 343.099C325.1 345.679 322.83 347.839 320.39 347.919C320.34 347.919 320.3 347.919 320.26 347.919C318.47 347.909 317.21 347.539 316.47 346.809C315.73 346.079 315.51 344.829 315.82 343.059C315.82 343.059 319.8 322.039 319.8 322.019C320.78 316.809 322.43 311.199 325.99 306.809C330.02 301.839 335.57 300.649 340.96 300.039C346.35 299.429 352.45 300.829 356.11 304.459C359.15 307.469 360.1 312.229 358.99 318.739L354.78 343.279L354.79 343.269Z" fill="#717073"/>
</g>
<defs>
<clipPath id="clip0_11_8925">
<rect width="301.34" height="197.8" fill="white" transform="translate(99 151)"/>
</clipPath>
</defs>
</svg>
