<svg width="500" height="500" viewBox="0 0 500 500" fill="none" xmlns="http://www.w3.org/2000/svg">
<rect width="500" height="500" fill="white"/>
<g clip-path="url(#clip0_11_8232)">
<path d="M142.02 244.785C142.02 255.125 138.66 263.575 131.94 270.125C125.22 276.675 116.63 279.945 106.17 279.945C94.5598 279.945 85.3698 277.765 78.5898 273.395L82.7298 262.365C88.6998 266.045 95.5998 267.875 103.41 267.875C110.19 267.875 115.59 265.865 119.61 261.845C123.63 257.825 125.64 252.425 125.64 245.645C125.64 240.365 124.06 235.995 120.9 232.545C117.74 229.095 112.43 225.885 104.96 222.895C88.1898 216.235 79.8098 205.655 79.8098 191.185C79.8098 181.875 82.8798 174.005 89.0298 167.575C95.1798 161.145 103.25 157.925 113.24 157.925C123.23 157.925 131.45 160.055 137.54 164.305L133.73 174.305C127.85 170.625 121.56 168.795 114.87 168.795C108.64 168.795 103.79 170.665 100.33 174.395C96.8698 178.135 95.1398 183.215 95.1398 189.645C95.1398 195.275 97.0998 199.875 101.02 203.435C103.9 206.195 108.57 208.835 115.03 211.365C133.02 218.375 142.02 229.525 142.02 244.805V244.785Z" fill="#EC0B09"/>
<path d="M288.86 230.305C288.86 245.585 285.18 257.625 277.83 266.415C270.48 275.205 260.65 279.595 248.36 279.595C242.96 279.595 238.13 278.845 233.88 277.355V315.275H218.89V190.145C226.36 185.775 236.01 183.595 247.84 183.595C260.82 183.595 270.91 187.795 278.09 196.175C285.27 204.565 288.86 215.935 288.86 230.305ZM273.52 231.085C273.52 205.635 264.71 192.905 247.09 192.905C242.28 192.905 237.88 193.765 233.88 195.485V268.225C237.2 269.605 240.97 270.285 245.21 270.285C254.47 270.285 261.51 266.875 266.31 260.055C271.11 253.235 273.52 243.575 273.52 231.075V231.085Z" fill="#EC0B09"/>
<path d="M319.35 193.885C326.53 185.495 336.61 181.305 349.6 181.305C361.44 181.305 371.09 183.485 378.55 187.855V270.515L363.56 275.065C359.31 276.555 354.48 277.305 349.08 277.305C336.79 277.305 326.96 272.915 319.61 264.125C312.26 255.335 308.58 243.305 308.58 228.015C308.58 213.655 312.17 202.275 319.35 193.885ZM331.13 257.765C335.93 264.585 342.97 267.995 352.23 267.995C356.46 267.995 360.24 267.305 363.56 265.935V193.185C359.56 191.465 355.15 190.605 350.35 190.605C332.73 190.605 323.92 203.335 323.92 228.785C323.92 241.285 326.32 250.945 331.13 257.765Z" fill="#EC0B09"/>
<path d="M306.09 278.215H290.75V142.925H306.09V278.215Z" fill="#EC0B09"/>
<path d="M421.4 277.855C418.3 278.785 415.54 279.255 413.13 279.255C405.31 279.255 399.34 276.775 395.21 271.815C391.76 267.545 390.04 262.185 390.04 255.715V194.625H379.35V185.315H390.04V163.945L405.38 159.295V185.315H421.41V194.625H405.38V255.405C405.38 264.415 409.24 268.915 416.98 268.915C417.89 268.915 419.37 268.625 421.41 268.055V277.855H421.4Z" fill="#EC0B09"/>
<path d="M287.97 321.394V339.944H280.61V321.824C280.61 315.734 277.35 312.484 271.97 312.484C268.78 312.484 265.32 314.254 262.7 317.514V339.954H255.34V306.684H262.7V309.654C265.6 307.174 269.21 305.834 273.46 305.834C282.1 305.834 287.97 311.784 287.97 321.404V321.394Z" fill="#68B430"/>
<path d="M323.94 325.504H297.82C298.53 330.534 301.71 334.354 307.94 334.354C311.2 334.354 313.67 333.364 315.02 331.244H323.09C320.97 337.264 315.09 340.804 307.87 340.804C297.39 340.804 290.31 333.234 290.31 323.314C290.31 313.394 297.32 305.824 307.44 305.824C318.48 305.824 325.35 314.244 323.93 325.504H323.94ZM297.96 320.404H316.65C316.23 314.954 312.69 312.054 307.52 312.054C302 312.054 298.81 315.734 297.96 320.404Z" fill="#68B430"/>
<path d="M346.31 305.965V312.905C341 313.115 336.97 315.095 333.99 318.995V339.945H326.63V306.675H333.99V311.205C337.03 307.875 341.21 305.965 346.31 305.965Z" fill="#68B430"/>
<path d="M380.01 306.664V340.854C380.01 350.974 373.14 357.064 363.16 357.064C353.82 357.064 346.95 351.544 346.03 343.614H353.53C354.17 347.654 357.71 350.414 363.16 350.414C368.61 350.414 372.72 346.944 372.72 340.854V335.614C369.89 337.804 366.14 339.084 361.89 339.084C352.55 339.084 345.18 331.584 345.18 322.664C345.18 312.754 352.54 305.814 361.89 305.814C366.14 305.814 369.89 307.084 372.72 309.284V306.664H380.01ZM372.72 327.624V317.284C370.24 313.604 366.63 312.114 362.95 312.114C356.79 312.114 352.54 316.504 352.54 322.664C352.54 327.764 356.79 332.714 362.95 332.714C366.63 332.714 370.24 331.294 372.72 327.614V327.624Z" fill="#68B430"/>
<path d="M421.14 306.595L399.19 356.365H391.47L398.48 340.435L381.49 306.595H389.35L401.88 332.645L413.35 306.595H421.14Z" fill="#68B430"/>
<path d="M254.81 294.595C254.89 294.505 254.93 294.455 254.95 294.435C254.9 294.465 254.85 294.525 254.81 294.595Z" fill="#045032"/>
<path d="M213.019 193.205C212.019 192.065 210.929 191.015 209.789 190.065C204.559 185.735 197.969 183.545 191.399 185.085C172.609 189.475 152.739 221.265 143.789 254.435C142.809 258.055 143.309 255.845 142.659 259.385C142.439 259.475 141.759 259.365 141.319 260.265C140.399 262.125 139.309 265.475 138.619 267.685C138.249 268.885 138.939 270.155 140.149 270.495C135.409 300.115 142.769 324.245 160.009 342.065C168.559 343.155 176.129 342.995 182.539 342.235C180.679 342.335 178.819 342.255 176.989 341.885C171.569 340.805 166.759 337.465 163.189 333.335C148.649 316.535 149.929 292.675 150.859 271.945C159.369 270.285 169.049 266.425 180.369 259.905C204.679 245.915 216.019 229.345 219.069 216.625C220.899 208.985 218.729 199.675 213.029 193.215L213.019 193.205ZM209.949 214.785C208.799 221.315 203.959 226.745 199.299 231.145C191.669 238.355 182.649 244.075 173.589 249.305C165.399 254.025 151.799 258.095 152.179 256.705C156.169 241.945 162.869 227.615 171.049 216.345C176.449 208.915 183.029 202.215 192.079 199.525C193.889 198.985 195.809 198.685 197.689 198.735C199.229 198.765 200.759 199.035 202.199 199.585C208.159 201.885 211.019 208.735 209.949 214.785Z" fill="#045032"/>
<path d="M254.79 294.614C254.59 294.984 254.49 295.734 254.42 295.984C254.08 297.144 253.77 298.294 253.43 299.454C252.94 301.134 252.42 302.794 251.87 304.454C251.17 306.524 250.43 308.574 249.62 310.604C248.69 312.944 247.67 315.254 246.57 317.524C245.36 320.014 244.04 322.464 242.61 324.834C241.08 327.364 239.42 329.804 237.61 332.144C235.72 334.594 233.68 336.914 231.47 339.084C229.18 341.334 226.71 343.414 224.08 345.274C221.32 347.214 218.39 348.914 215.32 350.324C206.14 354.544 196 356.234 186.14 354.924C182.05 354.384 177.99 353.314 174.08 351.694C169.98 349.994 166.01 347.804 162.76 344.764C162.72 344.724 162.68 344.684 162.64 344.654C161.74 343.804 160.86 342.934 160.01 342.054C168.56 343.144 176.13 342.984 182.54 342.224C185.98 341.804 189.09 341.224 191.85 340.554C191.87 340.554 191.89 340.544 191.9 340.544C193.06 340.244 194.21 339.924 195.34 339.614C195.49 339.574 195.65 339.534 195.8 339.494C196 339.434 196.2 339.374 196.4 339.314C196.56 339.264 196.73 339.214 196.89 339.164C197.86 338.854 198.76 338.544 199.59 338.244C199.73 338.194 199.86 338.144 200 338.094C200.36 337.954 200.71 337.824 201.04 337.694C201.19 337.644 201.34 337.584 201.48 337.524C202.85 336.964 204.22 336.344 205.59 335.674C205.6 335.674 205.61 335.664 205.62 335.654C229.24 324.054 252.66 297.104 254.79 294.614Z" fill="#68B430"/>
</g>
<defs>
<clipPath id="clip0_11_8232">
<rect width="342.8" height="214.15" fill="white" transform="translate(78.5996 142.925)"/>
</clipPath>
</defs>
</svg>
