<svg width="500" height="500" viewBox="0 0 500 500" fill="none" xmlns="http://www.w3.org/2000/svg">
<rect width="500" height="500" fill="white"/>
<g clip-path="url(#clip0_11_8290)">
<path d="M294.093 161.349H211.238L255.448 117.139L294.093 161.349Z" fill="#00ADEE"/>
<path d="M267.857 286.123C267.306 289.08 264.697 291.225 261.682 291.225H168.797L127.747 244.841L170.682 201.906L265.683 280.122C267.451 281.572 268.292 283.891 267.857 286.123Z" fill="#00ADEE"/>
<path d="M201.644 328.331H300.326L249.449 382.34L201.644 328.331Z" fill="#00ADEE"/>
<path d="M372.772 251.392L344.043 281.89L337.375 288.992C338.941 286.035 339.897 282.672 339.984 279.107C340.013 278.875 340.013 278.643 340.013 278.411C340.013 274.845 339.173 271.482 337.694 268.496C337.578 268.264 337.462 268.003 337.317 267.742L318.735 228.75L304.819 254.9L237.968 208.863C235.938 207.472 234.721 205.152 234.721 202.688C234.721 198.543 238.084 195.18 242.229 195.18H315.43L318.387 215.241L322.735 195.18H323.663L372.772 251.392Z" fill="#00ADEE"/>
<path d="M340.014 278.411C340.014 278.643 340.014 278.875 339.985 279.107C339.898 282.673 338.941 286.036 337.375 288.993C337.346 289.022 337.317 289.051 337.317 289.08L329.461 297.4V297.429C326.04 299.574 322.011 300.792 317.662 300.792C305.312 300.792 295.311 290.761 295.311 278.411C295.311 274.961 296.064 271.715 297.456 268.787L297.514 268.7C297.688 268.352 297.862 268.004 298.065 267.656L304.848 254.9L318.764 228.751L337.346 267.743C337.491 268.004 337.607 268.265 337.723 268.497C339.202 271.483 340.043 274.846 340.043 278.411H340.014Z" fill="#D2AC67"/>
<path d="M322.736 195.151V195.18L318.678 217.01L318.417 215.155L315.547 195.876L315.431 195.18V195.151H322.736Z" fill="#D2AC67"/>
</g>
<defs>
<clipPath id="clip0_11_8290">
<rect width="245.026" height="265.203" fill="white" transform="translate(127.747 117.139)"/>
</clipPath>
</defs>
</svg>
