<svg width="500" height="500" viewBox="0 0 500 500" fill="none" xmlns="http://www.w3.org/2000/svg">
<rect width="500" height="500" fill="white"/>
<g clip-path="url(#clip0_11_8302)">
<path d="M218.12 233.93C216.15 231.88 214.17 228.63 214.17 225.59V225.54C214.17 225.33 214.18 225.13 214.21 224.92C214.22 224.77 214.24 224.63 214.27 224.48C214.27 224.47 214.28 224.46 214.27 224.44C214.57 223.03 215.43 221.82 216.6 221.06C216.61 221.05 216.62 221.05 216.63 221.05C217.45 220.51 218.43 220.21 219.48 220.21C219.68 220.21 219.88 220.22 220.08 220.25C221.23 220.36 222.27 220.86 223.06 221.62C224.02 222.47 224.66 223.68 224.77 225.04V226.24H226.82C226.82 226.24 226.84 226.25 226.85 226.25H240.44C244.43 215.09 236.89 207.63 225.99 207.65C219.76 207.67 213.55 207.69 207.32 207.7C201.69 207.72 196.22 209.12 194.07 214.94C194.05 214.97 194.04 215.01 194.03 215.04C187.92 231.92 206.74 248.97 218.28 257.57C221.38 259.88 230.46 264.03 233.77 268.79C233.77 268.81 233.79 268.83 233.8 268.84C234.75 270.22 235.2 271.66 234.87 273.11C234.87 273.12 234.86 273.13 234.86 273.15C234.52 276.37 231.77 278.88 228.46 278.88C224.91 278.88 222.03 276 222.03 272.45C222.03 272.09 222.06 271.75 222.12 271.4C222.09 271.34 222.06 271.28 222.03 271.21H209.29C208.27 284.25 210.19 291.67 224.32 292.97C241.76 294.57 253.01 288.77 251.65 269.81C250.44 252.82 228.58 244.85 218.11 233.91L218.12 233.93Z" fill="#2A2B64"/>
<path d="M413.089 212.03C411.389 210.99 409.409 210.52 407.419 210.52H394.389C392.029 210.52 389.679 211.19 387.809 212.62C387.049 213.2 386.439 213.84 385.989 214.56C382.929 219.39 379.629 230.15 376.889 240.53C374.819 248.37 373.069 256 372.009 260.66C371.689 262.04 371.079 264.39 370.399 267.15C368.609 274.59 366.449 285.03 368.869 287.56C372.949 291.86 391.389 291.98 396.489 289.29C402.059 286.35 405.119 271.64 406.849 265.46C411.149 250.12 413.689 234.33 417.229 218.81C417.319 215.86 415.679 213.61 413.089 212.03ZM393.009 267.14C392.379 269.18 391.829 270.8 391.439 271.8C390.469 274.27 387.589 279.75 384.219 277.38C383.679 277 383.459 274.25 383.559 273.28C383.669 272.02 384.069 269.86 384.649 267.14C386.179 260.05 388.999 249.15 391.479 240.52C393.119 234.87 394.599 230.19 395.489 228.17C397.589 223.4 402.969 222.96 402.749 228.09C402.529 233.17 396.449 256.2 393.019 267.14H393.009Z" fill="#2A2B64"/>
<path d="M361.81 267.14H352.96C351.74 267.14 350.66 267.94 350.31 269.1C349.21 272.77 348.1 279.12 345.08 277.25C343.6 276.32 343.01 274.44 343.49 272.76L345.1 267.13L352.67 240.51L356.24 227.95C356.76 226.12 358.39 224.75 360.29 224.77C364.39 224.82 360.75 231.8 359.34 237.13C358.89 238.84 360.17 240.51 361.94 240.51H369.76C370.98 240.51 372.05 239.69 372.36 238.51L377.76 217.98C377.81 217.76 377.85 217.54 377.89 217.32C378.43 213.69 375.4 210.5 371.75 210.5H351.09C350.44 210.5 349.79 210.59 349.18 210.8C346.35 211.78 344.13 213.14 343.08 214.91C340.49 219.23 337.93 232.09 336.17 240.51C335.79 242.37 335.43 244.02 335.13 245.31C333.57 251.99 326.31 281.69 327.57 286.02C329.49 292.58 353.26 292.06 358.04 289.98C358.91 289.6 359.75 288.65 360.54 287.35C360.63 287.19 360.71 287.02 360.75 286.84L364.48 270.51C364.87 268.78 363.56 267.14 361.79 267.14H361.81Z" fill="#2A2B64"/>
<path d="M290.11 222.54H276.67L278.91 184.21H259.41L259.61 222.54H250.41C249.45 222.48 248.5 222.45 247.63 222.54V241.19H259.61L259.22 315.78H263.89L275.26 305.91L276.94 241.13L290.11 241.2V222.54Z" fill="#2A2B64"/>
<path d="M335.43 220.73C335.44 220.68 335.44 220.62 335.45 220.56C336.08 215.2 331.83 210.51 326.44 210.51H304.57C300.85 210.51 297.4 212.75 296.14 216.25C295.19 218.89 294.86 222.3 295.3 226.68H309.8C310.3 226.68 310.5 218.81 317.04 221.99C320.6 223.72 318.54 229.03 317.44 231.75C311.2 247.08 286.89 251.81 283.31 269.11C281.29 278.9 284.64 287.19 290.96 289.72C293.5 290.76 296.52 290.84 299.88 289.72C301.7 289.12 303.63 288.15 305.63 286.78C305.63 286.79 305.62 286.8 305.62 286.81C305.23 288.28 306.39 289.72 307.91 289.72H317.76C318.87 289.72 319.82 288.95 320.06 287.88C321.83 279.96 328.64 249.24 328.64 249.24L335.43 220.74V220.73ZM313.69 257.26C312.88 262.32 310.88 272.73 307.19 273.35C297.1 275.05 305.2 257.98 312.09 255.88C312.97 255.61 313.84 256.35 313.69 257.26Z" fill="#2A2B64"/>
<path d="M154.989 248.301C154.969 248.641 154.939 248.981 154.909 249.321C154.879 249.591 154.849 249.871 154.809 250.141M154.669 250.951C154.599 251.341 154.509 251.731 154.419 252.111" stroke="#404066" stroke-width="2" stroke-miterlimit="10"/>
<path d="M164.41 218.581C161.17 218.781 157.9 219.721 154.89 221.461C150.74 223.861 147.68 227.421 145.91 231.461C145.61 231.281 145.3 231.121 144.99 230.961C144.68 230.791 144.36 230.651 144.04 230.501C143.77 230.381 143.5 230.261 143.23 230.161C142.93 230.041 142.62 229.921 142.31 229.831C142.01 229.721 141.7 229.621 141.38 229.531C141.04 229.431 140.7 229.331 140.35 229.261C140.02 229.181 139.69 229.101 139.36 229.041C139.09 228.991 138.83 228.941 138.56 228.891C138.49 228.881 138.41 228.871 138.34 228.861C137.85 228.791 137.36 228.741 136.86 228.691C136.61 228.671 136.35 228.651 136.1 228.641C135.85 228.631 135.6 228.621 135.34 228.621C135.01 228.611 134.67 228.611 134.32 228.621C134.02 228.621 133.73 228.631 133.43 228.651C133.13 228.671 132.83 228.691 132.53 228.721C132.37 228.731 132.22 228.751 132.06 228.771C131.6 228.811 131.14 228.881 130.68 228.961C130.4 229.011 130.12 229.061 129.84 229.121C129.56 229.181 129.27 229.231 128.99 229.311C128.78 229.361 128.57 229.411 128.36 229.471C127.73 229.641 127.1 229.821 126.47 230.041C126.08 230.171 125.68 230.321 125.3 230.481C125.02 230.581 124.73 230.701 124.45 230.831C124.1 230.971 123.75 231.131 123.4 231.311C123.19 231.401 122.99 231.511 122.79 231.611C122.63 231.681 122.49 231.771 122.33 231.851C122.06 232.001 121.79 232.141 121.52 232.301C121.14 232.521 120.76 232.751 120.4 232.991C119.64 233.461 118.93 233.961 118.25 234.521C118.21 234.531 118.17 234.571 118.13 234.611C118.12 234.601 118.12 234.611 118.11 234.631C117.91 234.781 117.72 234.931 117.52 235.111C117.32 235.271 117.13 235.431 116.94 235.611C116.81 235.721 116.68 235.841 116.55 235.961C116.25 236.231 115.96 236.511 115.68 236.801C114.99 237.491 114.33 238.231 113.74 239.001C113.52 239.281 113.3 239.561 113.12 239.841C113.05 239.921 112.99 240.011 112.92 240.101C112.67 240.451 112.42 240.811 112.19 241.181C111.99 241.501 111.8 241.821 111.62 242.141C111.53 242.291 111.44 242.441 111.36 242.611C111.21 242.861 111.09 243.111 110.97 243.371C110.95 243.411 110.93 243.451 110.91 243.491C110.81 243.701 110.7 243.901 110.62 244.121C110.59 244.161 110.57 244.211 110.55 244.271C110.53 244.311 110.51 244.361 110.49 244.421C110.41 244.601 110.33 244.781 110.26 244.961C110.23 245.031 110.2 245.091 110.18 245.171C110.1 245.381 110.01 245.571 109.95 245.781C109.59 246.751 109.31 247.741 109.09 248.741C109.02 249.091 108.94 249.441 108.89 249.811C107.01 249.271 105.06 249.001 103.07 249.001C102.78 249.001 102.48 249.011 102.19 249.021C101.96 249.031 101.71 249.041 101.49 249.061C101.44 249.061 101.38 249.061 101.31 249.071H101.3C100.07 249.171 98.8196 249.381 97.5896 249.711C97.2996 249.791 97.0096 249.881 96.7196 249.961C96.4096 250.061 96.1096 250.171 95.8096 250.271C95.4996 250.381 95.1996 250.501 94.8996 250.621C94.2996 250.871 93.7096 251.141 93.1196 251.451C92.8396 251.601 92.5696 251.741 92.2896 251.911C92.1896 251.971 92.0696 252.031 91.9696 252.111C91.3596 252.461 90.7696 252.861 90.2096 253.291C90.0996 253.361 89.9696 253.451 89.8596 253.551C89.7396 253.631 89.6196 253.741 89.5096 253.831C89.4996 253.831 89.4896 253.831 89.4896 253.851C89.2796 254.011 89.0796 254.171 88.8796 254.361C88.6796 254.531 88.4896 254.701 88.2896 254.891C88.0396 255.121 87.7996 255.361 87.5596 255.591C87.5596 252.781 87.8796 249.951 88.4896 247.161C91.1696 235.041 99.5096 223.421 112.19 216.121C113.84 215.171 115.49 214.321 117.18 213.571H117.19C120.1 212.261 123.06 211.261 126.04 210.541C131.26 209.261 136.51 208.851 141.55 209.291C143.47 209.451 145.36 209.741 147.21 210.141C153.69 211.541 159.61 214.401 164.41 218.601V218.581Z" stroke="#404066" stroke-width="2" stroke-miterlimit="10"/>
<path d="M137.19 270.16C136.91 270.25 136.63 270.35 136.35 270.43" stroke="#404066" stroke-width="2" stroke-miterlimit="10"/>
<path d="M132.14 271.351C131.86 271.391 131.58 271.421 131.3 271.451" stroke="#404066" stroke-width="2" stroke-miterlimit="10"/>
<path d="M112.929 240.08C112.679 240.43 112.439 240.79 112.199 241.16" stroke="#404066" stroke-width="2" stroke-miterlimit="10"/>
<path d="M176.089 244.97C175.839 244.86 175.589 244.75 175.329 244.66C175.029 244.53 174.739 244.42 174.429 244.32C174.359 244.29 174.279 244.26 174.209 244.25C174.029 244.18 173.849 244.12 173.659 244.07C173.459 244 173.269 243.94 173.059 243.88C172.759 243.8 172.449 243.71 172.129 243.65C171.769 243.56 171.399 243.48 171.029 243.43C170.729 243.37 170.429 243.33 170.129 243.3C169.889 243.26 169.639 243.23 169.389 243.22C168.729 243.15 168.049 243.12 167.379 243.12C166.959 243.12 166.539 243.13 166.119 243.16C165.899 243.17 165.679 243.19 165.479 243.21C165.149 243.24 164.829 243.27 164.509 243.32C164.349 243.34 164.189 243.36 164.029 243.39C163.859 243.41 163.709 243.44 163.539 243.47C163.119 243.54 162.679 243.64 162.259 243.75H162.249C162.009 243.81 161.779 243.87 161.549 243.95C161.309 244.01 161.069 244.08 160.839 244.17C159.409 244.63 158.009 245.25 156.649 246.02C156.089 246.34 155.539 246.69 155.019 247.06C155.019 246.29 154.969 245.54 154.869 244.79C154.569 242.46 153.819 240.2 152.609 238.1C150.969 235.26 148.649 233.03 145.909 231.45C147.679 227.41 150.739 223.86 154.889 221.45C157.899 219.71 161.169 218.77 164.409 218.57H164.419C167.189 221.02 169.579 223.88 171.489 227.19C172.959 229.73 174.059 232.39 174.819 235.13C175.569 237.82 175.979 240.58 176.069 243.38C176.089 243.91 176.099 244.44 176.089 244.98V244.97Z" fill="#FF0000" stroke="#404066" stroke-width="2" stroke-miterlimit="10"/>
<path d="M176.089 244.971C176.079 246.451 175.979 247.931 175.789 249.421" stroke="#404066" stroke-width="2" stroke-miterlimit="10"/>
<path d="M176.089 244.971C176.079 246.451 175.979 247.931 175.789 249.421" stroke="#404066" stroke-width="2" stroke-miterlimit="10"/>
<path d="M115.5 267.221C111.17 266.771 106.63 267.661 102.53 270.021C99.3698 271.841 96.8398 274.341 95.0398 277.211C93.9898 275.891 93.0298 274.501 92.1698 273.001C91.3198 271.531 90.5998 270.021 89.9798 268.471C88.8398 265.591 88.0998 262.601 87.7698 259.551C87.7598 259.481 87.7598 259.421 87.7498 259.341C87.6198 258.091 87.5498 256.831 87.5498 255.571C87.7898 255.321 88.0298 255.081 88.2798 254.861C88.4798 254.671 88.6698 254.501 88.8698 254.331C89.0698 254.141 89.2698 253.981 89.4798 253.821C89.4798 253.801 89.4898 253.801 89.4998 253.801C89.6098 253.711 89.7298 253.601 89.8498 253.521C89.9598 253.421 90.0898 253.331 90.1998 253.261C90.7598 252.821 91.3498 252.431 91.9598 252.081C92.0598 252.011 92.1798 251.951 92.2798 251.881C92.5598 251.711 92.8298 251.571 93.1098 251.421C93.6998 251.111 94.2898 250.841 94.8898 250.591C95.1898 250.471 95.4898 250.351 95.7998 250.241C96.0998 250.141 96.3998 250.031 96.7098 249.931C96.9998 249.851 97.2898 249.761 97.5798 249.681C98.8098 249.351 100.06 249.141 101.29 249.041H101.3C101.36 249.031 101.42 249.031 101.48 249.031C101.71 249.011 101.96 249.001 102.18 248.991C102.47 248.981 102.77 248.971 103.06 248.971C105.05 248.971 107.01 249.241 108.88 249.781C108.32 253.241 108.65 256.741 109.99 259.961C110.28 260.691 110.63 261.401 111.04 262.091C111.42 262.741 111.84 263.361 112.28 263.951C113.21 265.181 114.28 266.271 115.48 267.201L115.5 267.221Z" fill="#FF0000" stroke="#404066" stroke-width="2" stroke-miterlimit="10"/>
<path d="M179.57 228.99C179.57 234.28 178.29 239.23 176.07 243.38C175.98 240.58 175.56 237.83 174.82 235.13C175.31 233.18 175.56 231.12 175.56 228.99C175.56 216.76 167.23 206.85 156.95 206.85C153.39 206.85 150.05 208.04 147.22 210.11C145.38 209.71 143.48 209.42 141.56 209.26C145.59 204.79 151 202.07 156.95 202.07C169.44 202.07 179.58 214.12 179.58 228.99H179.57Z" stroke="#404066" stroke-width="2" stroke-miterlimit="10"/>
<path d="M126.049 210.52C123.079 211.23 120.109 212.24 117.199 213.55H117.189C109.419 212.96 100.259 217.95 94.1694 226.89C89.6594 233.51 87.7894 240.9 88.4894 247.13C87.8794 249.93 87.5594 252.76 87.5594 255.56C87.5594 256.83 87.6194 258.09 87.7594 259.34C87.7394 259.38 87.7194 259.42 87.7094 259.45C81.5794 251.08 82.5794 236.79 90.8594 224.63C100.279 210.81 115.699 204.75 126.049 210.52Z" stroke="#404066" stroke-width="2" stroke-miterlimit="10"/>
<path d="M176.619 282.08C168.269 294.34 153.119 298.58 142.799 291.55C141.719 290.82 140.749 290 139.869 289.08C141.599 288.58 143.319 287.98 145.029 287.28C145.179 287.39 145.329 287.51 145.489 287.61C153.989 293.39 166.439 289.91 173.309 279.82C178.799 271.75 179.059 261.9 174.589 255.32C175.149 253.37 175.549 251.39 175.789 249.42C183.589 257.15 184.159 270.99 176.619 282.08Z" stroke="#404066" stroke-width="2" stroke-miterlimit="10"/>
<path d="M176.09 244.971C176.08 246.451 175.98 247.931 175.79 249.421C175.55 251.391 175.15 253.371 174.59 255.321C174.34 256.211 174.06 257.101 173.75 257.981C170.6 266.951 164.33 275.331 155.53 281.521C154.23 282.431 152.89 283.301 151.48 284.111C149.37 285.331 147.21 286.391 145.04 287.281C143.33 287.981 141.61 288.591 139.88 289.081C137.79 289.701 135.69 290.171 133.6 290.491C131.2 290.871 128.8 291.081 126.43 291.091C123.67 291.121 120.95 290.901 118.31 290.451H118.3C115.77 290.011 113.33 289.351 110.98 288.491C104.7 286.191 99.1896 282.391 95.0596 277.201C96.8596 274.331 99.3896 271.831 102.55 270.011C106.65 267.651 111.19 266.771 115.52 267.211C117.83 269.041 120.57 270.311 123.54 270.991C124.37 271.181 125.22 271.321 126.09 271.411C127.13 271.531 128.19 271.591 129.26 271.561C129.52 271.571 129.77 271.561 130.03 271.541C130.08 271.541 130.13 271.541 130.2 271.531C130.37 271.521 130.53 271.511 130.7 271.501C130.91 271.491 131.12 271.471 131.33 271.451C131.62 271.431 131.89 271.391 132.17 271.351C132.52 271.311 132.86 271.261 133.22 271.181C133.48 271.141 133.75 271.091 134.02 271.031C134.24 270.991 134.47 270.941 134.68 270.871C134.91 270.831 135.13 270.771 135.35 270.711C135.69 270.621 136.03 270.511 136.38 270.411C136.66 270.331 136.94 270.241 137.22 270.141C137.75 269.961 138.27 269.771 138.79 269.551C138.93 269.501 139.07 269.441 139.21 269.371C139.49 269.251 139.77 269.121 140.06 268.991C140.35 268.861 140.64 268.711 140.93 268.551C141.33 268.351 141.74 268.131 142.14 267.901C143.51 267.111 144.78 266.221 145.95 265.261C149.02 262.731 151.38 259.671 152.92 256.381C153.05 256.101 153.18 255.811 153.29 255.531C153.36 255.371 153.42 255.231 153.48 255.071C153.54 254.921 153.6 254.771 153.65 254.621C153.74 254.411 153.82 254.201 153.88 253.991C153.97 253.741 154.06 253.481 154.13 253.221C154.18 253.071 154.22 252.931 154.25 252.781C154.32 252.551 154.38 252.311 154.44 252.081C154.54 251.701 154.63 251.311 154.69 250.921C154.72 250.791 154.74 250.651 154.76 250.521C154.79 250.391 154.81 250.251 154.82 250.111C154.86 249.841 154.9 249.571 154.92 249.291C154.96 248.951 154.99 248.611 155 248.271C155.03 247.861 155.03 247.451 155.03 247.041C155.55 246.681 156.1 246.331 156.66 246.001C158.02 245.221 159.42 244.601 160.85 244.151C161.09 244.071 161.33 243.991 161.56 243.931C161.8 243.861 162.03 243.801 162.26 243.731H162.27C162.69 243.631 163.13 243.531 163.55 243.451C163.72 243.421 163.87 243.391 164.04 243.371C164.2 243.341 164.36 243.321 164.52 243.301C164.84 243.251 165.16 243.221 165.49 243.191C165.7 243.171 165.91 243.151 166.13 243.141C166.55 243.111 166.97 243.101 167.39 243.101C168.06 243.101 168.74 243.131 169.4 243.201C169.65 243.221 169.9 243.251 170.14 243.281C170.44 243.321 170.74 243.361 171.04 243.411C171.41 243.471 171.78 243.541 172.14 243.631C172.46 243.691 172.77 243.781 173.07 243.861C173.28 243.911 173.47 243.971 173.67 244.051C173.86 244.101 174.04 244.151 174.22 244.231C174.29 244.241 174.37 244.271 174.44 244.301C174.74 244.401 175.04 244.521 175.34 244.641C175.6 244.731 175.85 244.841 176.1 244.951L176.09 244.971Z" stroke="#404066" stroke-width="2" stroke-miterlimit="10"/>
<path d="M126.419 291.1C116.659 298.74 104.099 300.31 94.9292 294.06C84.6592 287.07 81.9792 272.55 87.6992 259.46C87.7192 259.49 87.7392 259.52 87.7692 259.55C88.0992 262.6 88.8392 265.59 89.9792 268.47C88.7692 276.89 91.5792 285.01 98.0792 289.44C103.929 293.43 111.459 293.53 118.279 290.46H118.289C120.929 290.92 123.659 291.13 126.409 291.1H126.419Z" stroke="#404066" stroke-width="2" stroke-miterlimit="10"/>
<path d="M285.229 297.83H282.829V311.09H285.229V297.83Z" fill="black"/>
<path d="M294.769 301.461C294.259 301.171 293.659 301.021 292.969 301.021C292.229 301.021 291.599 301.181 291.099 301.511C290.599 301.841 290.229 302.281 289.999 302.841H289.879V301.151H287.639V311.101H289.979V305.271C289.979 304.791 290.069 304.381 290.249 304.051C290.429 303.711 290.679 303.461 290.989 303.281C291.309 303.101 291.669 303.011 292.079 303.011C292.679 303.011 293.159 303.201 293.499 303.571C293.839 303.951 294.009 304.471 294.009 305.131V311.101H296.349V304.771C296.349 303.981 296.209 303.301 295.929 302.741C295.649 302.181 295.249 301.761 294.739 301.461H294.769Z" fill="black"/>
<path d="M303.959 305.421L302.259 305.061C301.759 304.941 301.389 304.791 301.179 304.611C300.959 304.431 300.849 304.191 300.859 303.901C300.859 303.561 301.019 303.291 301.349 303.081C301.679 302.871 302.089 302.761 302.579 302.761C302.939 302.761 303.249 302.821 303.499 302.931C303.749 303.051 303.949 303.201 304.099 303.391C304.249 303.581 304.349 303.781 304.409 304.001L306.549 303.771C306.389 302.921 305.969 302.251 305.299 301.761C304.629 301.261 303.709 301.021 302.539 301.021C301.749 301.021 301.039 301.141 300.439 301.391C299.839 301.641 299.359 301.991 299.019 302.441C298.679 302.891 298.509 303.421 298.519 304.041C298.519 304.771 298.739 305.361 299.199 305.841C299.659 306.311 300.359 306.651 301.319 306.851L303.019 307.211C303.479 307.311 303.819 307.451 304.029 307.641C304.249 307.831 304.359 308.061 304.359 308.351C304.359 308.691 304.189 308.971 303.849 309.201C303.509 309.431 303.059 309.541 302.509 309.541C301.959 309.541 301.529 309.431 301.199 309.201C300.869 308.971 300.639 308.631 300.539 308.181L298.249 308.401C298.389 309.321 298.829 310.031 299.579 310.541C300.319 311.051 301.299 311.311 302.519 311.311C303.349 311.311 304.079 311.181 304.719 310.911C305.359 310.641 305.859 310.271 306.219 309.791C306.579 309.311 306.759 308.761 306.769 308.131C306.769 307.421 306.529 306.841 306.069 306.401C305.609 305.961 304.909 305.641 303.969 305.441L303.959 305.421Z" fill="black"/>
<path d="M314.939 306.91C314.939 307.41 314.839 307.83 314.629 308.17C314.419 308.5 314.149 308.76 313.829 308.92C313.509 309.09 313.169 309.17 312.829 309.17C312.269 309.17 311.819 308.98 311.469 308.61C311.119 308.24 310.949 307.74 310.949 307.11V301.14H308.609V307.47C308.609 308.26 308.749 308.94 309.029 309.5C309.309 310.06 309.699 310.49 310.199 310.78C310.699 311.07 311.269 311.22 311.929 311.22C312.679 311.22 313.309 311.04 313.819 310.69C314.329 310.34 314.699 309.88 314.919 309.32H315.019V311.09H317.289V301.14H314.949V306.9L314.939 306.91Z" fill="black"/>
<path d="M324.429 301.01C323.859 301.01 323.349 301.17 322.909 301.48C322.469 301.79 322.159 302.24 321.969 302.81H321.869V301.15H319.599V311.1H321.939V305.25C321.939 304.83 322.039 304.45 322.229 304.13C322.419 303.81 322.689 303.55 323.029 303.37C323.369 303.19 323.749 303.09 324.179 303.09C324.379 303.09 324.589 303.1 324.799 303.13C325.009 303.16 325.169 303.19 325.269 303.22V301.06C325.159 301.04 325.029 301.02 324.869 301.01C324.709 301 324.559 300.99 324.429 300.99V301.01Z" fill="black"/>
<path d="M333.369 301.741C332.979 301.481 332.539 301.301 332.069 301.191C331.589 301.081 331.119 301.021 330.639 301.021C329.939 301.021 329.309 301.121 328.739 301.331C328.169 301.541 327.679 301.841 327.279 302.251C326.879 302.661 326.599 303.171 326.429 303.771L328.619 304.081C328.739 303.741 328.959 303.441 329.299 303.191C329.629 302.941 330.089 302.811 330.659 302.811C331.199 302.811 331.619 302.941 331.909 303.211C332.199 303.481 332.339 303.861 332.339 304.341V304.381C332.339 304.601 332.259 304.771 332.089 304.881C331.919 304.991 331.659 305.061 331.299 305.111C330.939 305.161 330.459 305.221 329.879 305.281C329.399 305.331 328.929 305.421 328.479 305.531C328.029 305.641 327.619 305.811 327.269 306.031C326.909 306.251 326.629 306.541 326.419 306.911C326.209 307.281 326.109 307.741 326.109 308.301C326.109 308.951 326.259 309.501 326.549 309.941C326.839 310.391 327.239 310.721 327.739 310.951C328.239 311.181 328.809 311.291 329.439 311.291C329.959 311.291 330.409 311.221 330.799 311.071C331.189 310.931 331.509 310.731 331.769 310.491C332.029 310.251 332.229 309.991 332.369 309.721H332.449V311.091H334.699V304.431C334.699 303.771 334.579 303.221 334.339 302.781C334.099 302.341 333.779 301.991 333.389 301.731L333.369 301.741ZM332.339 307.531C332.339 307.901 332.249 308.241 332.059 308.551C331.869 308.861 331.599 309.111 331.259 309.301C330.909 309.491 330.509 309.581 330.039 309.581C329.569 309.581 329.149 309.471 328.839 309.251C328.519 309.031 328.369 308.701 328.369 308.271C328.369 307.971 328.449 307.721 328.609 307.531C328.769 307.341 328.989 307.191 329.259 307.081C329.539 306.971 329.849 306.891 330.199 306.851C330.359 306.831 330.539 306.801 330.749 306.771C330.959 306.741 331.179 306.711 331.389 306.671C331.599 306.631 331.799 306.591 331.979 306.531C332.159 306.471 332.279 306.421 332.349 306.361V307.531H332.339Z" fill="black"/>
<path d="M344.069 301.461C343.559 301.171 342.959 301.021 342.269 301.021C341.529 301.021 340.899 301.181 340.399 301.511C339.899 301.841 339.529 302.281 339.299 302.841H339.179V301.151H336.939V311.101H339.279V305.271C339.279 304.791 339.369 304.381 339.549 304.051C339.729 303.711 339.979 303.461 340.289 303.281C340.609 303.101 340.969 303.011 341.379 303.011C341.979 303.011 342.459 303.201 342.799 303.571C343.139 303.951 343.309 304.471 343.309 305.131V311.101H345.649V304.771C345.649 303.981 345.509 303.301 345.229 302.741C344.949 302.181 344.549 301.761 344.039 301.461H344.069Z" fill="black"/>
<path d="M351.069 303.301C351.429 303.041 351.849 302.911 352.329 302.911C352.899 302.911 353.349 303.071 353.689 303.391C354.029 303.711 354.239 304.111 354.329 304.591H356.569C356.519 303.871 356.309 303.251 355.939 302.711C355.569 302.171 355.069 301.761 354.449 301.461C353.829 301.161 353.109 301.021 352.299 301.021C351.329 301.021 350.489 301.241 349.779 301.671C349.069 302.101 348.519 302.711 348.129 303.481C347.739 304.251 347.549 305.151 347.549 306.161C347.549 307.171 347.739 308.051 348.119 308.831C348.499 309.601 349.049 310.211 349.759 310.641C350.469 311.081 351.319 311.291 352.309 311.291C353.139 311.291 353.869 311.141 354.489 310.831C355.109 310.531 355.599 310.101 355.949 309.561C356.309 309.021 356.519 308.391 356.569 307.691H354.329C354.259 308.051 354.129 308.351 353.949 308.601C353.759 308.851 353.529 309.041 353.259 309.171C352.989 309.301 352.679 309.371 352.329 309.371C351.839 309.371 351.419 309.241 351.059 308.981C350.699 308.721 350.419 308.351 350.219 307.861C350.019 307.371 349.919 306.791 349.919 306.111C349.919 305.431 350.019 304.871 350.219 304.391C350.419 303.911 350.699 303.541 351.069 303.291V303.301Z" fill="black"/>
<path d="M365.889 302.221C365.469 301.811 364.979 301.511 364.439 301.311C363.889 301.111 363.309 301.021 362.699 301.021C361.749 301.021 360.919 301.241 360.219 301.671C359.519 302.101 358.969 302.711 358.579 303.481C358.189 304.251 357.989 305.151 357.989 306.181C357.989 307.211 358.179 308.121 358.569 308.891C358.959 309.661 359.509 310.251 360.239 310.661C360.959 311.081 361.819 311.281 362.819 311.281C363.589 311.281 364.279 311.161 364.879 310.931C365.479 310.691 365.969 310.361 366.359 309.931C366.749 309.501 367.009 309.001 367.149 308.421L364.959 308.171C364.859 308.451 364.699 308.691 364.499 308.881C364.299 309.071 364.059 309.211 363.779 309.311C363.499 309.411 363.199 309.461 362.849 309.461C362.339 309.461 361.889 309.351 361.519 309.131C361.149 308.911 360.839 308.601 360.629 308.181C360.429 307.781 360.329 307.301 360.319 306.751H367.239V306.031C367.239 305.161 367.119 304.411 366.879 303.771C366.639 303.141 366.309 302.621 365.889 302.211V302.221ZM360.329 305.181C360.349 304.791 360.439 304.431 360.619 304.101C360.819 303.731 361.099 303.421 361.459 303.191C361.819 302.961 362.239 302.841 362.719 302.841C363.169 302.841 363.559 302.941 363.899 303.141C364.239 303.341 364.499 303.621 364.689 303.971C364.879 304.321 364.979 304.721 364.979 305.171H360.319L360.329 305.181Z" fill="black"/>
<path d="M381.219 298.4C380.529 298.02 379.669 297.83 378.649 297.83H373.679V311.09H376.079V306.61H378.619C379.639 306.61 380.499 306.42 381.199 306.04C381.899 305.66 382.429 305.14 382.789 304.48C383.149 303.82 383.329 303.06 383.329 302.21C383.329 301.36 383.149 300.62 382.799 299.95C382.439 299.29 381.919 298.77 381.229 298.39L381.219 298.4ZM380.599 303.47C380.419 303.83 380.129 304.12 379.749 304.32C379.369 304.53 378.879 304.63 378.289 304.63H376.079V299.83H378.279C378.879 299.83 379.369 299.93 379.749 300.13C380.129 300.33 380.419 300.61 380.599 300.97C380.779 301.33 380.879 301.74 380.879 302.21C380.879 302.68 380.789 303.1 380.599 303.46V303.47Z" fill="black"/>
<path d="M387.549 297.83H385.209V311.09H387.549V297.83Z" fill="black"/>
<path d="M395.849 308.611C395.659 308.861 395.429 309.051 395.159 309.181C394.889 309.311 394.579 309.381 394.229 309.381C393.739 309.381 393.319 309.251 392.959 308.991C392.599 308.731 392.319 308.361 392.119 307.871C391.919 307.381 391.819 306.801 391.819 306.121C391.819 305.441 391.919 304.881 392.119 304.401C392.319 303.921 392.599 303.551 392.969 303.301C393.329 303.041 393.749 302.911 394.229 302.911C394.799 302.911 395.249 303.071 395.589 303.391C395.929 303.711 396.139 304.111 396.229 304.591H398.469C398.419 303.871 398.209 303.251 397.839 302.711C397.469 302.171 396.969 301.761 396.349 301.461C395.729 301.161 395.009 301.021 394.199 301.021C393.229 301.021 392.389 301.241 391.679 301.671C390.969 302.101 390.419 302.711 390.029 303.481C389.639 304.251 389.449 305.151 389.449 306.161C389.449 307.171 389.639 308.051 390.019 308.831C390.399 309.601 390.949 310.211 391.659 310.641C392.369 311.081 393.219 311.291 394.209 311.291C395.039 311.291 395.769 311.141 396.389 310.831C397.009 310.531 397.499 310.101 397.849 309.561C398.209 309.021 398.419 308.391 398.469 307.691H396.229C396.159 308.051 396.029 308.351 395.849 308.601V308.611Z" fill="black"/>
</g>
<defs>
<clipPath id="clip0_11_8302">
<rect width="334.46" height="131.58" fill="white" transform="translate(82.7695 184.21)"/>
</clipPath>
</defs>
</svg>
