<svg width="500" height="500" viewBox="0 0 500 500" fill="none" xmlns="http://www.w3.org/2000/svg">
<rect width="500" height="500" fill="white"/>
<g clip-path="url(#clip0_11_8360)">
<path d="M141.703 249.27L249.983 183.05L356.183 249.27L249.143 315.48L141.703 249.27Z" fill="#C72645" stroke="#7F6700" stroke-width="3" stroke-miterlimit="10"/>
<path d="M63.2841 238.01H110.994L250.804 152.55L389.124 238.18H356.764L249.974 172.46L135.474 242.91H63.1641L63.2841 238.01Z" fill="#C72645"/>
<path d="M436.715 261.99H389.005L249.195 347.45L110.875 261.83H143.235L250.025 327.54L364.525 257.1H436.835L436.715 261.99Z" fill="#C72645"/>
<path d="M216.644 232.579L212.604 233.329C212.784 232.519 212.864 231.849 212.864 231.309C212.864 227.819 210.744 226.079 206.514 226.079C203.174 226.079 201.504 227.279 201.504 229.679C201.504 231.479 203.374 233.029 207.104 234.319C214.314 236.799 217.914 240.459 217.914 245.299C217.914 248.139 216.904 250.419 214.884 252.139C212.864 253.859 210.174 254.719 206.824 254.719C199.404 254.719 195.684 251.839 195.684 246.089C195.684 245.619 195.724 245.039 195.794 244.349L199.994 243.429C199.674 244.699 199.514 245.809 199.514 246.749C199.514 250.469 201.644 252.329 205.904 252.329C209.314 252.329 211.024 250.989 211.024 248.309C211.024 246.319 208.984 244.569 204.894 243.059C198.994 240.889 196.044 237.429 196.044 232.669C196.044 229.979 197.024 227.799 198.994 226.159C200.964 224.509 203.554 223.689 206.764 223.689C213.354 223.689 216.654 226.659 216.654 232.589L216.644 232.579Z" fill="white"/>
<path d="M244.053 224.189V244.309C244.053 251.209 240.243 254.659 232.613 254.659C224.983 254.659 221.213 251.209 221.213 244.309V224.189H229.913V244.579C229.913 247.219 230.293 249.019 231.043 249.979C231.793 250.949 233.193 251.429 235.223 251.429C239.163 251.429 241.133 249.059 241.133 244.309V224.189H244.053Z" fill="white"/>
<path d="M270.473 224.189V254.179H263.813L251.293 235.199V254.179H248.373V224.189H253.883L267.543 244.689V224.189H270.463H270.473Z" fill="white"/>
<path d="M297.793 224.189V244.309C297.793 251.209 293.973 254.659 286.343 254.659C278.713 254.659 274.943 251.209 274.943 244.309V224.189H283.643V244.579C283.643 247.219 284.023 249.019 284.773 249.979C285.523 250.949 286.923 251.429 288.953 251.429C292.893 251.429 294.863 249.059 294.863 244.309V224.189H297.783H297.793Z" fill="white"/>
<path d="M199.513 271.36H197.363L202.203 257.92H204.543L209.383 271.36H207.233L203.433 260.36H203.333L199.523 271.36H199.513ZM199.873 266.1H206.853V267.81H199.873V266.1Z" fill="white"/>
<path d="M218.543 263.74L216.763 264.05C216.693 263.82 216.573 263.61 216.413 263.4C216.253 263.19 216.033 263.03 215.763 262.9C215.493 262.77 215.153 262.7 214.743 262.7C214.183 262.7 213.723 262.82 213.353 263.07C212.983 263.32 212.793 263.64 212.793 264.02C212.793 264.36 212.913 264.63 213.163 264.83C213.413 265.04 213.813 265.2 214.373 265.33L215.973 265.7C216.903 265.91 217.593 266.24 218.043 266.69C218.493 267.14 218.723 267.72 218.723 268.43C218.723 269.03 218.553 269.57 218.203 270.04C217.853 270.51 217.373 270.88 216.753 271.15C216.133 271.42 215.413 271.55 214.603 271.55C213.473 271.55 212.553 271.31 211.843 270.83C211.133 270.35 210.693 269.66 210.533 268.77L212.433 268.48C212.553 268.97 212.793 269.35 213.163 269.6C213.533 269.85 214.013 269.98 214.603 269.98C215.243 269.98 215.763 269.85 216.143 269.58C216.523 269.31 216.723 268.98 216.723 268.59C216.723 268.27 216.603 268.01 216.373 267.8C216.143 267.59 215.783 267.42 215.303 267.31L213.593 266.94C212.653 266.73 211.953 266.38 211.513 265.92C211.063 265.45 210.843 264.86 210.843 264.14C210.843 263.55 211.013 263.02 211.343 262.58C211.673 262.14 212.133 261.78 212.723 261.53C213.313 261.28 213.983 261.15 214.743 261.15C215.833 261.15 216.693 261.39 217.313 261.86C217.943 262.33 218.353 262.96 218.553 263.75L218.543 263.74Z" fill="white"/>
<path d="M228.354 263.74L226.574 264.05C226.504 263.82 226.384 263.61 226.224 263.4C226.064 263.19 225.844 263.03 225.574 262.9C225.304 262.77 224.964 262.7 224.554 262.7C223.994 262.7 223.534 262.82 223.164 263.07C222.794 263.32 222.604 263.64 222.604 264.02C222.604 264.36 222.724 264.63 222.974 264.83C223.224 265.04 223.624 265.2 224.184 265.33L225.784 265.7C226.714 265.91 227.404 266.24 227.854 266.69C228.304 267.14 228.534 267.72 228.534 268.43C228.534 269.03 228.364 269.57 228.014 270.04C227.664 270.51 227.184 270.88 226.564 271.15C225.944 271.42 225.224 271.55 224.414 271.55C223.284 271.55 222.364 271.31 221.654 270.83C220.944 270.35 220.504 269.66 220.344 268.77L222.244 268.48C222.364 268.97 222.604 269.35 222.974 269.6C223.344 269.85 223.824 269.98 224.414 269.98C225.054 269.98 225.574 269.85 225.954 269.58C226.334 269.31 226.534 268.98 226.534 268.59C226.534 268.27 226.414 268.01 226.184 267.8C225.954 267.59 225.594 267.42 225.114 267.31L223.404 266.94C222.464 266.73 221.764 266.38 221.324 265.92C220.874 265.45 220.654 264.86 220.654 264.14C220.654 263.55 220.824 263.02 221.154 262.58C221.484 262.14 221.944 261.78 222.534 261.53C223.124 261.28 223.794 261.15 224.554 261.15C225.644 261.15 226.504 261.39 227.124 261.86C227.754 262.33 228.164 262.96 228.364 263.75L228.354 263.74Z" fill="white"/>
<path d="M236.993 267.18V261.28H238.963V271.36H237.033V269.61H236.933C236.703 270.15 236.333 270.6 235.823 270.95C235.313 271.31 234.683 271.48 233.923 271.48C233.273 271.48 232.703 271.34 232.203 271.05C231.703 270.76 231.313 270.34 231.033 269.77C230.753 269.21 230.613 268.51 230.613 267.68V261.27H232.573V267.44C232.573 268.13 232.763 268.67 233.143 269.08C233.523 269.49 234.023 269.69 234.623 269.69C234.993 269.69 235.353 269.6 235.723 269.41C236.093 269.22 236.393 268.95 236.633 268.58C236.873 268.21 236.993 267.74 236.993 267.16V267.18Z" fill="white"/>
<path d="M241.504 271.36V261.28H243.404V262.88H243.504C243.684 262.34 244.014 261.91 244.474 261.6C244.944 261.29 245.464 261.13 246.054 261.13C246.174 261.13 246.324 261.13 246.494 261.14C246.664 261.15 246.794 261.16 246.894 261.17V263.05C246.814 263.03 246.674 263 246.474 262.97C246.274 262.94 246.074 262.93 245.874 262.93C245.414 262.93 244.994 263.03 244.634 263.22C244.274 263.42 243.984 263.68 243.774 264.03C243.564 264.38 243.464 264.76 243.464 265.2V271.36H241.504Z" fill="white"/>
<path d="M251.353 271.59C250.713 271.59 250.133 271.47 249.623 271.23C249.113 270.99 248.703 270.65 248.403 270.19C248.103 269.73 247.953 269.18 247.953 268.52C247.953 267.95 248.063 267.48 248.283 267.12C248.503 266.75 248.793 266.46 249.173 266.25C249.543 266.04 249.963 265.87 250.423 265.76C250.883 265.65 251.353 265.57 251.823 265.51C252.423 265.44 252.913 265.38 253.293 265.34C253.673 265.29 253.943 265.22 254.113 265.11C254.283 265 254.373 264.83 254.373 264.6V264.55C254.373 263.98 254.213 263.53 253.893 263.22C253.573 262.91 253.093 262.75 252.453 262.75C251.813 262.75 251.273 262.9 250.893 263.19C250.513 263.48 250.253 263.8 250.113 264.16L248.273 263.74C248.493 263.13 248.813 262.63 249.233 262.25C249.653 261.87 250.143 261.6 250.693 261.42C251.243 261.25 251.823 261.16 252.433 261.16C252.833 261.16 253.263 261.21 253.713 261.3C254.163 261.39 254.593 261.57 254.983 261.81C255.373 262.06 255.703 262.42 255.953 262.88C256.203 263.34 256.333 263.94 256.333 264.67V271.36H254.413V269.98H254.333C254.203 270.23 254.013 270.48 253.763 270.73C253.513 270.98 253.183 271.18 252.783 271.34C252.383 271.5 251.903 271.58 251.353 271.58V271.59ZM251.783 270.01C252.323 270.01 252.793 269.9 253.173 269.69C253.563 269.48 253.853 269.19 254.063 268.85C254.263 268.5 254.363 268.13 254.363 267.73V266.43C254.293 266.5 254.153 266.56 253.963 266.62C253.763 266.68 253.533 266.73 253.283 266.77C253.033 266.81 252.783 266.85 252.543 266.88C252.303 266.91 252.103 266.94 251.943 266.96C251.563 267.01 251.213 267.09 250.903 267.2C250.593 267.31 250.343 267.48 250.153 267.69C249.963 267.9 249.873 268.18 249.873 268.53C249.873 269.02 250.053 269.38 250.413 269.63C250.773 269.88 251.233 270 251.783 270V270.01Z" fill="white"/>
<path d="M260.814 265.38V271.37H258.854V261.29H260.734V262.93H260.854C261.084 262.4 261.454 261.97 261.944 261.64C262.444 261.32 263.064 261.15 263.824 261.15C264.514 261.15 265.114 261.29 265.624 261.58C266.144 261.87 266.544 262.29 266.824 262.86C267.104 263.43 267.254 264.12 267.254 264.95V271.36H265.294V265.18C265.294 264.45 265.104 263.88 264.724 263.46C264.344 263.04 263.824 262.84 263.154 262.84C262.694 262.84 262.294 262.94 261.944 263.13C261.594 263.33 261.314 263.62 261.114 263.99C260.914 264.37 260.804 264.82 260.804 265.36L260.814 265.38Z" fill="white"/>
<path d="M274.044 271.57C273.064 271.57 272.234 271.35 271.524 270.9C270.824 270.46 270.284 269.84 269.904 269.06C269.524 268.28 269.344 267.38 269.344 266.37C269.344 265.36 269.534 264.44 269.924 263.66C270.314 262.87 270.854 262.26 271.554 261.82C272.254 261.38 273.074 261.16 274.024 261.16C274.794 261.16 275.474 261.3 276.074 261.58C276.674 261.86 277.154 262.26 277.524 262.76C277.894 263.27 278.114 263.86 278.184 264.54H276.274C276.164 264.07 275.934 263.66 275.554 263.32C275.174 262.98 274.684 262.81 274.054 262.81C273.504 262.81 273.034 262.95 272.624 263.24C272.214 263.53 271.894 263.93 271.664 264.46C271.434 264.99 271.324 265.61 271.324 266.33C271.324 267.05 271.434 267.7 271.654 268.23C271.874 268.76 272.194 269.18 272.604 269.47C273.014 269.76 273.494 269.91 274.054 269.91C274.424 269.91 274.764 269.84 275.064 269.7C275.364 269.56 275.624 269.37 275.834 269.11C276.044 268.85 276.184 268.54 276.274 268.18H278.184C278.114 268.83 277.904 269.41 277.544 269.93C277.194 270.44 276.714 270.84 276.124 271.14C275.534 271.44 274.834 271.58 274.044 271.58V271.57Z" fill="white"/>
<path d="M284.544 271.57C283.554 271.57 282.694 271.36 281.984 270.93C281.274 270.5 280.714 269.9 280.334 269.13C279.944 268.35 279.754 267.44 279.754 266.4C279.754 265.36 279.944 264.46 280.334 263.67C280.724 262.88 281.264 262.27 281.964 261.83C282.664 261.39 283.484 261.17 284.414 261.17C284.984 261.17 285.534 261.26 286.064 261.45C286.594 261.64 287.074 261.93 287.504 262.34C287.924 262.74 288.264 263.26 288.504 263.9C288.754 264.54 288.874 265.32 288.874 266.23V266.93H280.864V265.46H286.954C286.954 264.94 286.854 264.49 286.644 264.08C286.434 263.68 286.144 263.36 285.764 263.13C285.384 262.9 284.944 262.78 284.434 262.78C283.884 262.78 283.404 262.91 282.994 263.18C282.584 263.45 282.274 263.8 282.044 264.23C281.814 264.66 281.714 265.13 281.714 265.63V266.78C281.714 267.45 281.834 268.03 282.074 268.5C282.314 268.97 282.644 269.33 283.074 269.58C283.504 269.83 284.004 269.95 284.574 269.95C284.944 269.95 285.284 269.9 285.594 269.79C285.904 269.68 286.164 269.52 286.384 269.31C286.604 269.1 286.774 268.83 286.894 268.52L288.754 268.85C288.604 269.4 288.334 269.88 287.954 270.28C287.574 270.68 287.094 271.01 286.514 271.23C285.934 271.46 285.284 271.57 284.554 271.57H284.544Z" fill="white"/>
<path d="M298.514 263.74L296.734 264.05C296.654 263.82 296.544 263.61 296.384 263.4C296.224 263.19 296.004 263.03 295.734 262.9C295.464 262.77 295.124 262.7 294.714 262.7C294.154 262.7 293.694 262.82 293.324 263.07C292.954 263.32 292.764 263.64 292.764 264.02C292.764 264.36 292.884 264.63 293.134 264.83C293.384 265.04 293.784 265.2 294.344 265.33L295.944 265.7C296.874 265.91 297.564 266.24 298.014 266.69C298.464 267.14 298.694 267.72 298.694 268.43C298.694 269.03 298.524 269.57 298.174 270.04C297.824 270.51 297.344 270.88 296.724 271.15C296.104 271.42 295.384 271.55 294.574 271.55C293.444 271.55 292.524 271.31 291.814 270.83C291.104 270.35 290.664 269.66 290.504 268.77L292.404 268.48C292.524 268.97 292.764 269.35 293.134 269.6C293.504 269.85 293.984 269.98 294.574 269.98C295.214 269.98 295.734 269.85 296.114 269.58C296.494 269.31 296.694 268.98 296.694 268.59C296.694 268.27 296.574 268.01 296.344 267.8C296.114 267.59 295.754 267.42 295.274 267.31L293.564 266.94C292.624 266.73 291.924 266.38 291.484 265.92C291.034 265.45 290.814 264.86 290.814 264.14C290.814 263.55 290.984 263.02 291.314 262.58C291.644 262.13 292.104 261.78 292.694 261.53C293.284 261.28 293.954 261.15 294.704 261.15C295.794 261.15 296.654 261.39 297.274 261.86C297.894 262.33 298.314 262.96 298.514 263.75V263.74Z" fill="white"/>
</g>
<defs>
<clipPath id="clip0_11_8360">
<rect width="373.67" height="194.9" fill="white" transform="translate(63.1641 152.55)"/>
</clipPath>
</defs>
</svg>
