<svg width="500" height="500" viewBox="0 0 500 500" fill="none" xmlns="http://www.w3.org/2000/svg">
<rect width="500" height="500" fill="white"/>
<g clip-path="url(#clip0_11_8384)">
<path d="M361.118 113.791C319.473 97.0101 254.251 132.182 258.728 138.495C258.921 138.752 292.16 126.384 294.511 125.74C316.542 119.588 346.335 111.407 366.175 128.027C383.02 142.166 385.79 176.082 359.443 181.042C349.588 182.91 333.355 181.074 306.557 168.964C284.881 159.172 262.721 149.51 239.66 143.455C198.755 132.761 153.535 137.657 123.549 170.091C107.155 187.806 99.811 219.821 121.616 236.505C132.148 244.589 145.289 246.006 156.788 239.082C160.395 236.891 165.194 233.51 167.223 229.677C167.417 229.29 170.766 224.234 168.254 225.071C159.171 228.034 147.351 241.433 129.153 226.907C118.814 218.629 119.265 203.878 124.386 192.83C136.239 167.192 164.518 169.737 188.159 172.281C205.68 174.149 223.202 176.919 240.498 180.43C240.498 180.43 137.43 223.493 165.323 321.696C176.081 359.574 209.674 385.92 248.55 389.785C274.123 392.33 303.433 389.527 325.592 375.452C343.887 363.825 363.759 341.247 366.594 319.023C367.431 312.581 361.344 319.345 359.089 321.793C347.655 334.29 337.542 347.206 322.243 355.161C306.944 363.117 290.872 365.886 274.445 364.759V310.778C274.445 310.778 292.643 309.586 297.474 289.585C302.338 269.551 301.887 199.272 301.887 199.24C301.887 200.915 320.503 204.425 321.985 204.715C334.128 207.099 347.526 208.033 359.637 205.005C404.922 193.668 400.123 129.476 361.151 113.758L361.118 113.791ZM260.08 364.244C260.08 364.244 193.344 360.701 198.24 271.483C201.88 205.102 261.916 187.838 261.916 187.838L260.08 364.244ZM281.563 290.68C281.499 291.775 280.951 292.741 280.017 293.321C277.859 294.673 275.057 293.127 275.057 290.583V190.511L282.626 194.022C283.786 194.57 284.527 195.761 284.494 197.05L281.563 290.68Z" fill="#FF0000" stroke="#FFCE00" stroke-width="3.22085" stroke-miterlimit="10"/>
</g>
<defs>
<clipPath id="clip0_11_8384">
<rect width="287.171" height="284.594" fill="white" transform="translate(106.414 107.703)"/>
</clipPath>
</defs>
</svg>
