<svg width="500" height="500" viewBox="0 0 500 500" fill="none" xmlns="http://www.w3.org/2000/svg">
<rect width="500" height="500" fill="white"/>
<g clip-path="url(#clip0_11_8400)">
<path d="M199.046 328.075C190.326 328.505 183.226 322.995 181.006 314.895C174.676 292.725 170.536 262.195 144.876 253.905C136.756 251.275 128.006 251.865 119.486 251.375C110.326 250.855 100.926 248.915 93.5155 243.515C86.1155 238.115 82.3755 231.095 84.4155 222.155C86.2255 214.225 91.9055 205.715 99.5655 202.975C107.226 200.235 116.296 200.375 124.276 201.985C174.646 212.155 190.976 214.075 225.736 219.865C263.006 226.075 296.096 232.345 330.746 233.015C344.726 233.285 358.906 233.235 372.416 229.495C380.206 227.315 373.466 219.915 369.646 217.665C337.436 198.695 285.386 205.635 275.856 246.995C271.546 265.715 280.356 284.725 297.666 293.055C314.976 301.385 335.476 300.255 354.036 295.285C360.386 293.585 366.816 291.435 373.376 291.935C379.936 292.435 386.786 296.445 388.156 302.875C389.196 307.725 386.856 312.825 383.256 316.225C379.656 319.635 374.966 321.615 370.276 323.235C345.306 331.855 317.806 331.775 292.146 325.515C273.266 320.905 255.006 311.155 244.836 294.585C238.326 283.985 235.246 272.135 235.146 259.695C234.966 239.095 242.166 218.465 255.746 202.685C270.136 185.965 289.036 177.805 310.186 173.425C313.116 172.815 316.066 172.325 319.026 171.885C353.996 166.685 396.496 170.255 412.496 207.165C417.716 219.215 417.426 233.595 410.946 245.025C397.686 268.415 367.316 269.655 357.026 270.115C306.306 272.385 254.486 264.915 203.956 259.845C202.086 259.655 201.016 261.415 201.366 263.255C204.276 278.675 203.986 275.855 211.036 306.735C212.576 313.495 210.936 321.665 205.396 325.835C203.496 327.265 201.316 327.955 199.046 328.075Z" fill="url(#paint0_linear_11_8400)"/>
<path d="M410.946 245.035C397.686 268.425 367.316 269.665 357.026 270.125C330.286 271.325 303.236 269.815 276.236 267.375C274.456 260.915 274.256 253.935 275.856 246.995C277.436 240.105 280.206 234.175 283.876 229.155C299.536 231.245 314.986 232.705 330.746 233.015C344.726 233.285 358.906 233.235 372.416 229.495C380.206 227.315 373.466 219.915 369.646 217.665C342.796 201.845 302.166 204.035 283.876 229.155C270.516 227.375 256.996 225.135 242.976 222.775C246.246 215.545 250.526 208.765 255.746 202.695C270.126 185.975 289.036 177.815 310.186 173.435C313.116 172.835 316.066 172.345 319.026 171.905C353.996 166.695 396.496 170.265 412.496 207.175C417.726 219.235 417.426 233.605 410.946 245.035Z" fill="url(#paint1_radial_11_8400)"/>
<path d="M384.275 316.199C380.619 319.608 375.857 321.604 371.094 323.228C345.749 331.871 317.824 331.791 291.768 325.504C272.597 320.882 254.055 311.105 243.728 294.5C237.737 284.854 234.599 274.195 234 262.995C247.82 264.479 262.368 266.151 276.27 267.394C279.326 278.394 286.8 287.346 297.363 292.956C314.941 301.299 335.757 300.176 354.604 295.192C361.052 293.478 367.581 291.322 374.242 291.833C380.893 292.334 387.849 296.355 389.25 302.803C390.306 307.666 387.93 312.78 384.275 316.199Z" fill="url(#paint2_linear_11_8400)"/>
<path d="M358.875 270.125V232.25C342.958 233.6 321.546 232.568 305 231.375C283.632 229.835 264.292 225.972 260.672 225.43C256.441 237.962 246.663 264.159 247.939 264.309C255.483 265.197 277.867 267.879 300.5 269.146C320.805 270.282 341.625 271.125 358.875 270.125Z" fill="url(#paint3_linear_11_8400)"/>
<path d="M204.568 278.835L172.163 284.152C173.891 289.959 178.032 303.425 180.234 312.524C182.918 323.615 189.851 329.674 201.552 327.751C210.913 326.212 213.362 315.522 211.65 309.157L204.568 278.835Z" fill="url(#paint4_linear_11_8400)"/>
</g>
<defs>
<linearGradient id="paint0_linear_11_8400" x1="91.0197" y1="237.484" x2="406.921" y2="237.484" gradientUnits="userSpaceOnUse">
<stop stop-color="#FE0201"/>
<stop offset="1" stop-color="#FE0201"/>
</linearGradient>
<radialGradient id="paint1_radial_11_8400" cx="0" cy="0" r="1" gradientUnits="userSpaceOnUse" gradientTransform="translate(329.558 133.323) rotate(73.1623) scale(121.287 607.732)">
<stop stop-color="#0186F5"/>
<stop offset="0.537954" stop-color="#0186F5"/>
<stop offset="0.902324" stop-color="#8F30C2"/>
</radialGradient>
<linearGradient id="paint2_linear_11_8400" x1="258.761" y1="262.995" x2="388.961" y2="321.117" gradientUnits="userSpaceOnUse">
<stop stop-color="#0F95E3"/>
<stop offset="1" stop-color="#FED700"/>
</linearGradient>
<linearGradient id="paint3_linear_11_8400" x1="259.137" y1="247.65" x2="347.84" y2="251.105" gradientUnits="userSpaceOnUse">
<stop stop-color="#FE0201"/>
<stop offset="1" stop-color="#8F30C2"/>
</linearGradient>
<linearGradient id="paint4_linear_11_8400" x1="191.958" y1="278.817" x2="191.958" y2="328.104" gradientUnits="userSpaceOnUse">
<stop stop-color="#FE0201"/>
<stop offset="1" stop-color="#FF7F00"/>
</linearGradient>
<clipPath id="clip0_11_8400">
<rect width="332.27" height="159.99" fill="white" transform="translate(83.8652 170.005)"/>
</clipPath>
</defs>
</svg>
