<svg width="500" height="500" viewBox="0 0 500 500" fill="none" xmlns="http://www.w3.org/2000/svg">
<rect width="500" height="500" fill="white"/>
<g clip-path="url(#clip0_11_8428)">
<path d="M242.846 157.813C238.084 157.813 233.637 160.003 230.681 163.704H101.153V165.961H231.177C234.066 168.895 238.038 170.565 242.214 170.565H393.814L398.847 157.813H242.846Z" fill="#E46106"/>
<path d="M230.681 181.104H101.153V183.361H231.177C234.066 186.295 238.038 187.988 242.214 187.988H386.908L391.964 175.236H242.846C238.084 175.236 233.637 177.426 230.681 181.104Z" fill="#E46106"/>
<path d="M230.681 198.53H101.153V200.787H231.177C234.066 203.721 238.038 205.391 242.214 205.391H380.024L385.057 192.662H242.846C238.083 192.662 233.637 194.851 230.681 198.53Z" fill="#E46106"/>
<path d="M276.046 215.616H276.023C275.91 215.751 275.82 215.841 275.73 215.954H101.153V218.211H276.204C279.093 221.145 283.087 222.815 287.24 222.815H346.689L351.722 210.063H287.872C283.268 210.063 278.935 212.14 276.046 215.616Z" fill="#E46106"/>
<path d="M272.322 233.016H101.153V235.273H272.796C275.707 238.184 279.679 239.877 283.855 239.877H339.94L344.996 227.125H284.464C279.725 227.125 275.256 229.314 272.322 233.016Z" fill="#E46106"/>
<path d="M265.957 250.055H101.153V252.312H266.431C269.343 255.246 273.315 256.916 277.49 256.916H333.215L338.248 244.187H278.1C273.337 244.187 268.891 246.376 265.957 250.055Z" fill="#E46106"/>
<path d="M259.999 267.119H101.153V269.376H260.473C263.384 272.31 267.356 273.98 271.532 273.98H326.466L331.499 261.229H272.164C267.402 261.229 262.955 263.418 259.999 267.119Z" fill="#E46106"/>
<path d="M253.205 284.158H101.153V286.415H253.679C256.591 289.349 260.563 291.042 264.738 291.042H319.718L324.751 278.29H265.348C260.608 278.29 256.139 280.479 253.205 284.158Z" fill="#E46106"/>
<path d="M249.82 301.222H101.153V303.479H250.294C253.183 306.413 257.155 308.083 261.33 308.083H312.97L318.003 295.354H261.962C257.2 295.354 252.754 297.543 249.82 301.222Z" fill="#E46106"/>
<path d="M242.597 318.285H101.153V320.542H243.071C245.96 323.476 249.933 325.146 254.108 325.146H306.221L311.254 312.395H254.74C249.978 312.395 245.531 314.584 242.597 318.285Z" fill="#E46106"/>
<path d="M234.089 335.324H101.153V337.581H234.563C237.474 340.515 241.446 342.185 245.622 342.185H299.473L304.529 329.456H246.231C241.492 329.456 237.023 331.645 234.089 335.324Z" fill="#E46106"/>
</g>
<defs>
<clipPath id="clip0_11_8428">
<rect width="297.694" height="184.372" fill="white" transform="translate(101.153 157.813)"/>
</clipPath>
</defs>
</svg>
