<svg width="500" height="500" viewBox="0 0 500 500" fill="none" xmlns="http://www.w3.org/2000/svg">
<rect width="500" height="500" fill="white"/>
<g clip-path="url(#clip0_11_8604)">
<path d="M297.844 228.501V320.844L284.043 321.073L242.09 321.806H241.907C192.549 321.806 152.521 281.802 152.521 232.444C152.521 183.086 192.549 143.059 241.907 143.059C261.004 143.059 278.725 149.065 293.236 159.29L264.809 187.717C257.954 184.186 250.16 182.192 241.907 182.192C214.144 182.192 191.655 204.682 191.655 232.444C191.655 260.206 213.227 281.733 240.187 282.627C240.761 282.673 241.334 282.673 241.907 282.673C242.48 282.673 243.053 282.673 243.626 282.627H257.267V228.501H297.844Z" fill="#F68634"/>
<path d="M358.894 225.704V383.888C358.894 384.117 241.907 383.888 241.907 383.888C158.253 383.888 90.4629 316.075 90.4629 232.444C90.4629 148.813 158.253 81 241.907 81C278.174 81 311.462 93.7464 337.528 114.998L299.518 153.008C283.356 141.225 263.434 134.301 241.907 134.301C187.712 134.301 143.764 178.249 143.764 232.444C143.764 286.639 184.112 326.873 235.19 330.335H307.106V225.704H358.894Z" fill="#363435"/>
</g>
<defs>
<clipPath id="clip0_11_8604">
<rect width="268.431" height="302.979" fill="white" transform="translate(90.4629 81)"/>
</clipPath>
</defs>
</svg>
