<svg width="500" height="500" viewBox="0 0 500 500" fill="none" xmlns="http://www.w3.org/2000/svg">
<rect width="500" height="500" fill="white"/>
<g clip-path="url(#clip0_11_8444)">
<path d="M300.1 363.784C299.83 367.594 301.4 370.424 300.91 374.184C300.65 376.134 299.07 380.884 296.69 380.884C294.59 380.564 293.33 377.684 292.59 375.894C291.17 372.444 289 360.454 287.22 358.684C286.14 357.604 284.7 358.554 283.93 359.494C282.01 361.844 280.27 368.894 278.45 372.264C275.49 377.714 269.69 384.404 263.16 379.784C269.5 375.254 275.42 370.174 270.65 361.794C267.12 355.594 261.1 357.994 257.49 362.714C253.53 367.894 252.47 374.594 253.38 380.944C250.15 383.874 242.17 379.314 242.13 375.694C242.11 374.004 245.66 368.434 246.49 366.324C249.26 359.304 252.28 341.244 245.82 335.974C238.04 329.624 233.2 342.244 231.89 348.074C230.21 355.524 230.46 362.104 231.88 369.544C232.76 374.154 235.33 375.774 230.45 379.034C225.43 382.394 218.32 380.554 217.95 373.874C217.73 369.844 219.62 367.574 218.38 362.964C217.33 359.064 214.35 357.884 211.95 361.454C208.82 366.114 210.6 372.864 206.77 376.814C205.42 378.204 204.2 378.454 202.58 377.394C198.79 374.894 197.65 364.684 195.33 360.464C194.55 359.054 194.04 357.954 192.23 358.124C188.72 358.464 183.27 368.584 180.32 370.894C177.5 369.714 178.36 360.924 175.4 361.384C173.72 361.644 172.72 363.654 172.2 365.074C170.78 368.964 169.36 375.284 168.35 379.474C167.9 381.364 165.94 387.024 169 387.244C173.53 387.564 185.98 371.004 190.29 371.474C195.23 372.014 197.02 388.814 203.47 387.234C206.28 386.544 210.01 377.944 211.74 378.234C216 382.614 216.12 387.804 223.66 387.324C229.72 386.934 230.55 383.824 234.51 382.204C237.58 380.944 239.02 384.574 241.84 386.044C246.56 388.504 250.9 386.594 255.16 384.124C261.53 390.234 271.09 386.584 276.67 381.234C277.73 380.214 281.89 374.394 282.94 374.574C286.23 378.264 285.97 388.264 293.37 387.234C302.32 386.004 308.43 370.314 308.77 362.444C309.21 352.414 300.67 355.774 300.09 363.804L300.1 363.784ZM239.65 368.584C238.66 367.664 238.28 365.974 238.1 364.664C237.45 360.004 237.27 348.034 239.95 344.254C240.26 343.824 240.55 343.244 241.11 343.094C246.06 341.834 244.26 355.994 243.77 358.564C243.48 360.124 241.29 368.594 239.65 368.574V368.584ZM261.65 365.484C267.96 363.584 266.48 376.494 260.69 376.764C258.11 374.664 258.44 366.444 261.65 365.484Z" fill="#0633CC"/>
<path d="M224.96 138.515C221.5 139.555 208.65 133.335 207.49 134.495C206.92 138.375 214.89 149.745 212.77 152.775C207.96 155.325 201.24 143.555 197.29 144.505C196.33 144.735 195.9 150.695 195.13 151.795C191.79 152.575 191.47 147.675 188.36 147.755C187.7 148.205 185.6 157.825 184.9 159.585C184.4 160.865 183.82 162.805 182.23 162.655L181.13 162.225C179.07 157.955 179.87 153.015 178.27 148.645C177.11 147.795 173.05 153.805 170.36 153.545C165.99 153.125 170.89 143.205 168.26 141.105C167.08 140.585 156.88 146.805 154.67 147.625C153.23 148.165 151.16 149.295 149.94 147.995C148.9 146.715 150.68 144.635 151.44 143.485C153.03 141.075 162.79 131.195 162.75 129.705C160.58 127.495 148.24 129.705 147.71 127.395C149.43 123.045 155.31 122.195 158.19 118.745C158.49 117.975 156.87 117.585 156.36 117.405C154.81 116.855 148.58 115.905 148.19 114.605L148.61 113.275C150.81 111.155 166.06 112.585 168.25 114.645C171.06 117.285 159.95 120.815 160.51 123.275C161.06 125.695 171.81 123.895 171.87 126.965C172.08 128.905 162.43 136.065 163.67 137.235C166.42 137.565 172.41 132.215 174.65 133.785C175.95 134.705 173.69 141.085 173.69 142.935C173.69 143.625 173.39 144.275 174.38 144.085C177.16 142.075 177.77 137.785 181.22 136.785C182.93 137.155 182.01 146.025 182.84 147.735C183.69 147.895 183.97 147.345 184.3 146.695C185.23 144.875 185.83 138.625 187.38 137.895C189.2 137.045 190.46 143.165 192.17 143.195L193.32 142.495V135.425C196 133.935 203.58 143.865 204.73 142.725C204.32 139.625 198.56 130.845 200.58 128.305C202.44 125.975 210.03 130.905 212.75 130.845L213.41 130.665C215.04 129.495 212.01 126.255 211.1 125.175C209.65 123.445 204.03 119.235 204.94 117.195C206.29 114.155 221.89 111.465 225.26 113.075C225.3 113.575 225.34 114.005 225.05 114.455C223.96 116.155 213.7 117.945 213.93 120.515C214.16 123.215 222.6 130.105 224.54 132.735C225.58 134.155 227.63 137.735 224.94 138.535L224.96 138.515Z" fill="#0633CC"/>
<path d="M269.331 287.814L266.321 287.574L265.651 289.224C263.381 288.794 260.651 287.914 258.361 287.834C256.641 287.774 254.621 288.494 253.381 288.304C252.191 288.114 246.471 282.184 244.931 283.284C243.621 288.614 240.111 292.604 234.991 294.574C233.671 295.084 228.841 295.944 228.581 296.144C228.291 296.354 227.841 298.704 226.911 299.724C224.531 302.344 219.661 301.904 216.711 300.524C216.001 295.684 212.821 291.294 208.411 289.214C209.171 294.184 206.591 299.344 201.331 300.164C199.231 300.494 196.451 299.924 194.261 300.164C197.451 304.494 201.261 306.074 206.411 306.954C207.961 307.214 209.361 306.824 211.071 307.314C213.981 308.154 218.481 312.554 222.111 314.074C231.391 317.944 242.501 317.314 251.081 312.034C252.661 316.524 258.311 316.544 262.281 315.934C263.871 315.694 269.311 314.064 268.641 311.814C267.111 310.164 264.351 311.564 262.531 311.524C258.741 311.444 253.901 309.614 251.291 306.794C249.941 305.334 248.461 301.314 246.901 301.174C245.701 301.064 242.481 304.434 241.131 305.274C235.131 309.004 226.791 310.044 220.281 307.004L220.521 306.084C220.941 306.134 221.301 306.554 221.421 306.554H228.271C235.521 306.554 240.381 301.274 245.271 297.414C249.721 293.904 250.841 300.284 252.941 302.864C257.191 308.074 264.031 309.864 267.221 302.614C267.701 301.514 268.901 296.334 269.161 296.114C269.691 295.684 271.731 296.604 272.391 294.934C273.231 292.784 268.901 290.704 269.351 287.824L269.331 287.814ZM260.161 299.244C256.511 299.784 255.521 293.964 259.381 293.374C262.821 292.844 263.981 298.684 260.161 299.244Z" fill="#0633CC"/>
<path d="M342.82 217.975C339.2 215.395 335.58 222.965 332.52 223.935C334.86 213.325 347.59 208.185 342.19 195.785C339.64 189.925 335.83 190.005 332.1 186.715C329.97 184.835 327.74 180.225 325.45 177.845C316.85 168.875 311.55 173.965 301.77 172.775C299.81 172.535 298.64 171.685 296.93 171.005C296.87 187.935 307.71 198.235 324.86 193.685C329.25 192.525 331.22 190.025 335.87 192.975C342.14 196.965 341.56 206.445 335.88 210.665C330.57 207.775 335.47 200.415 334.34 195.635C329.95 195.685 324.8 201.915 325.77 206.265C326.66 210.255 334.05 212.605 334.31 213.715L330.23 222.565C329.52 222.495 329.54 221.875 329.35 221.395C327.2 215.915 324.02 203.095 319.06 200.195C317 198.985 314.37 198.425 311.98 198.385C310.9 199.395 319.28 207.975 320.18 209.115C324 213.975 328.29 219.745 327.72 226.215C326.27 222.605 324.5 218.985 322 215.955C319.28 212.655 314.67 210.235 312.43 207.275C309.29 203.115 309.91 196.745 303.76 195.185C305.32 199.255 301.31 204.125 303.36 208.135C305.17 211.675 310.35 211.785 313.59 212.965C322.2 216.105 325.15 226.245 328.18 233.975C330.58 227.435 337.54 221.835 338.45 232.605C341.81 230.925 346.21 220.385 342.81 217.975H342.82ZM327.49 187.195C326.94 188.085 326.75 187.605 326.23 187.585C324.93 187.535 323.73 187.185 322.35 187.545C320.77 187.955 319.41 190.415 318.14 190.635C317.17 190.795 317.34 190.175 317.55 189.585C318.1 188.025 320.22 187.115 319.74 185.155C315.58 184.255 313.1 188.575 309.24 188.345C308.35 187.595 313.5 184.855 311.53 183.545H303.3C303.73 181.695 306.53 182.715 307.67 181.525C308.7 180.005 305.54 177.265 307.19 176.945C309.17 177.305 311.32 183.015 313.48 181.545C315.19 180.375 312.76 177.705 314.48 176.495C316.53 178.885 316.95 183.975 321.06 183.285L322.24 179.235C323.41 180.365 323.15 182.135 323.9 183.495C324.53 184.655 327.62 186.515 327.49 187.195Z" fill="#0633CC"/>
<path d="M300.53 116.505C293.66 111.165 285.11 112.085 277.51 115.125L273.41 112.135C272.01 113.595 272.27 115.765 272.27 117.595C268.7 117.635 266.33 113.985 262.69 113.945C262.35 116.745 267.31 120.705 267.26 122.865C267.22 124.415 262.35 125.475 262.69 126.945C273.43 131.875 263.59 132.525 262.73 135.205C261.97 137.555 267.37 136.505 267.68 137.935C267.08 141.125 264.02 143.475 264.06 146.795C264.97 147.745 270.04 142.275 271.13 141.825C272.9 142.325 272.34 147.495 273.42 147.715L277.06 144.195C284.52 149.175 294.45 149.895 301.32 143.455C308.53 136.695 308.48 122.685 300.53 116.505ZM275.02 137.235L274.49 132.735L270.91 132.665L273.61 129.305L270.91 125.825L274.57 126.055L276.16 122.165L277.82 125.755L281.86 124.915L280.52 128.275L284.14 130.165L280.04 131.315L281.86 134.955L278.08 134.115L275.03 137.245L275.02 137.235ZM286.66 143.615C284.35 143.415 279.52 141.865 279.58 139.065C282.3 138.175 284.42 141.085 287.07 141.325C288.93 140.805 286.12 136.785 286.43 135.415L294.18 136.325C294.71 132.885 290.75 132.205 289.62 129.725L295.57 126.495L295.28 125.335L287.33 124.465C286.64 123.795 290.23 119.985 287.98 119.475C287.13 119.275 281.13 122.655 280.52 120.085C281.46 116.495 287.25 116.365 290.3 116.715C303.67 118.245 303.54 145.085 286.65 143.635L286.66 143.615Z" fill="#0633CC"/>
<path d="M176.081 215.115C175.051 218.045 173.591 221.255 172.281 224.095C168.921 231.425 160.261 241.875 167.781 249.025C164.651 249.185 160.411 248.445 159.561 244.925C158.991 244.535 157.951 247.425 157.851 247.995C155.691 260.755 173.451 260.515 166.181 273.205C161.041 269.685 156.321 266.695 154.341 260.415C151.741 252.195 153.741 245.635 158.011 238.575C159.961 235.345 165.331 229.785 164.481 226.105C164.361 225.595 160.421 221.145 160.021 220.965C157.931 220.005 156.761 222.295 156.811 224.145C156.861 226.185 158.461 227.275 158.651 228.765C159.031 231.695 155.051 238.195 151.921 236.865C148.821 235.545 148.421 221.785 148.601 218.665C148.741 216.215 150.041 204.935 153.021 204.825L154.021 205.515C154.371 206.655 152.561 216.785 155.231 216.165C156.671 215.835 157.611 207.475 158.061 205.755C158.601 203.665 159.681 198.685 162.551 201.105C163.861 203.295 160.981 211.205 160.941 214.125C160.941 214.545 161.201 216.595 162.081 216.165C163.271 215.585 166.431 203.635 167.711 201.255C170.131 196.785 171.991 198.555 171.401 203.125C171.121 205.255 166.291 217.905 166.881 218.445C168.131 219.575 170.651 214.975 171.071 214.195C172.291 211.925 174.561 203.635 176.421 203.145C176.871 203.025 177.361 203.225 177.721 203.495C179.541 205.465 176.931 212.705 176.091 215.105L176.081 215.115Z" fill="#0633CC"/>
<path d="M287.34 264.545C287.19 285.715 258.55 291.315 248.32 273.675C241.71 262.275 246.14 247.475 258.13 241.945C261.63 240.325 270.6 238.375 273.53 241.395C276.06 243.995 270.11 243.975 269.1 245.165C268.99 246.235 270.56 245.845 271.55 246.355C273.01 247.125 273.81 248.615 272.51 249.935C270.44 252.045 264.7 248.845 262.26 251.995C262.26 252.245 265.57 253.435 263.65 256.135C262.51 257.735 255.73 257.825 253.37 261.365C250.58 265.575 252.58 271.865 256.09 275.035C260.58 279.105 271.01 281.275 275.48 276.165C275.77 274.815 272.92 275.195 272.74 274.335L273.66 272.045L272.92 270.945C268.51 272.415 264.72 274.015 260.05 272.435C258.25 271.825 254.71 269.265 255.43 267.105C255.85 265.845 259.74 267.225 258.66 263.005L259.74 262.215C260.83 262.135 263.96 264.995 265.44 265.675C271.41 268.385 281.71 267.985 287.34 264.535V264.545Z" fill="#0633CC"/>
<path d="M369.94 356.035C361.87 353.345 355.86 360.025 352.51 366.455C351.36 368.665 350.41 372.655 349.14 374.495C348.69 375.135 348.22 375.615 347.36 375.465C345.44 375.125 345.72 361.355 343.46 359.675C340.13 357.915 338.43 366.945 337.61 368.915C335.39 374.235 330.74 382.005 324.09 381.855C323.11 381.835 318.93 380.815 319.28 379.335C323.22 376.645 329.21 376.165 331.17 371.135C333.19 365.945 329.75 358.985 324.02 358.585C310.66 357.635 303.72 386.385 320.86 387.335C330.64 387.875 334.51 381.555 339.25 374.675C339.53 374.275 339.18 373.835 340.27 374.075C340.69 378.705 343.78 394.205 349.48 383.965C352.41 378.695 356.7 363.265 363.37 362.235C363.83 362.165 364.41 362.065 364.82 362.305C365.32 362.595 365.77 365.075 367.62 365.655C375.19 368.045 376.53 358.245 369.93 356.045L369.94 356.035ZM318.44 366.605C319.94 364.095 323.98 364.105 324.66 367.085C325.78 372.025 321.72 374.595 317.46 375.425C317.16 372.505 316.83 369.275 318.44 366.595V366.605Z" fill="#0633CC"/>
<path d="M162.77 373.845C159.11 383.615 151.8 388.825 141.14 387.695C122.06 385.685 123.26 359.705 127.85 346.225C129.31 341.935 131.06 339.695 136 339.895C136.95 340.225 137.19 342.265 137.17 343.195C136.96 353.995 132.25 362.745 135.77 374.825C138.69 384.855 150.07 386.375 154.8 377.295C157.03 373.005 158.59 364.035 158.19 359.255C157.73 353.755 153.53 348.645 155.69 343.055C156.43 341.165 158.23 339.215 160.37 339.035C162.5 338.845 163.62 341.125 164.16 342.805C166.58 350.355 165.57 366.435 162.78 373.875L162.77 373.845Z" fill="#0633CC"/>
<path d="M343.471 113.505C339.891 113.325 332.051 110.505 331.181 116.035C330.731 118.885 332.951 130.045 327.061 127.405C323.341 125.745 328.301 119.085 326.811 115.785C325.011 111.785 309.461 112.685 306.511 115.095C306.031 115.485 305.901 115.665 306.511 116.015C307.961 116.865 311.811 117.255 314.131 118.435C316.181 119.475 318.191 121.185 319.751 122.855C317.021 123.515 314.121 123.675 311.441 124.575C310.931 124.745 308.921 125.265 309.261 126.045C309.641 126.885 317.211 128.855 318.991 130.005C324.721 133.675 321.451 140.065 315.051 136.685C313.491 135.855 309.721 131.325 309.821 134.585C309.971 139.245 311.431 141.985 305.421 144.045L305.141 145.445C320.021 147.415 344.441 148.435 342.551 126.975C342.101 121.865 338.291 117.595 343.471 113.515V113.505ZM323.391 139.505L330.251 136.095C333.111 133.615 335.271 130.745 334.801 126.735C336.441 126.485 337.131 127.865 337.561 129.215C340.001 136.905 329.231 140.105 323.391 139.505ZM334.861 118.455C334.111 117.275 335.551 114.275 337.341 115.745C339.671 117.655 335.921 120.115 334.861 118.455Z" fill="#0633CC"/>
<path d="M223.231 197.914C220.261 191.434 212.721 193.354 207.031 194.274L213.641 197.004C219.501 202.324 213.701 208.384 208.161 210.694C207.511 209.144 208.471 207.554 208.411 205.934C208.301 202.924 205.861 198.474 202.921 197.474L200.191 203.684C199.871 205.634 201.041 204.944 201.131 205.894C201.341 207.984 200.181 210.374 200.641 212.754C200.851 213.844 201.951 214.284 202.261 215.244C202.761 216.814 202.251 219.204 203.161 220.744C203.941 222.054 205.001 223.364 206.021 225.174C206.531 226.074 207.901 227.004 207.921 227.814C207.961 229.224 205.951 230.954 204.521 230.804L198.751 225.114C199.711 221.684 195.921 219.324 195.611 216.824C195.441 215.454 196.181 214.264 196.051 212.814C195.891 211.054 194.061 208.074 194.221 206.354C194.321 205.264 195.501 205.434 195.621 204.914C195.791 204.194 195.491 203.174 195.651 202.314C196.091 199.984 196.661 197.874 198.341 196.114C192.351 195.624 185.111 198.524 182.821 204.324C180.961 203.014 182.121 199.054 182.881 197.304C185.971 190.134 192.961 191.804 199.261 192.914C196.491 189.424 190.621 185.234 186.491 188.814C185.011 179.044 192.181 178.114 197.881 184.494L202.001 190.644C202.241 188.294 201.671 185.384 202.001 183.114C203.061 175.914 210.311 181.024 211.571 185.414C211.871 186.454 209.931 186.014 208.961 186.434C207.841 186.914 204.751 191.534 205.201 192.024C209.041 189.434 213.851 186.554 218.661 187.004C224.561 187.554 226.741 193.304 223.221 197.944L223.231 197.914Z" fill="#0633CC"/>
<path d="M172.15 286.415C168.1 279.635 168.1 270.575 175.99 266.825C173.42 279.145 180.76 290.935 194.37 288.625C204.75 286.865 200.49 268.045 189.48 268.635C181.42 269.065 183.06 279.845 190.83 280.525C193.37 280.745 195.65 280.335 195.62 277.325C192.79 278.065 186.62 276.075 188.54 272.295C189.96 269.495 194.88 272.385 196.32 274.115C203.4 282.685 192.39 290.135 183.61 283.625C178.1 279.545 176.21 269.185 183.15 265.525C191.52 261.115 200.83 268.045 203.4 276.165C210.95 300.115 182.21 303.235 172.16 286.415H172.15Z" fill="#0633CC"/>
<path d="M323.8 258.895C319.51 254.725 311.08 253.785 306.5 257.925C302.1 261.905 302.26 264.475 295.68 267.185C291.26 269.005 287.63 267.975 291.44 274.825C298.35 276.365 303.53 265.535 308.09 263.585C308.8 263.285 308.98 263.455 309.67 263.675C311.03 268.835 297.19 274.495 297.48 277.935C297.7 280.525 303.06 283.485 305.42 283.695C308.64 283.975 311.65 281.005 313.59 278.705C314.86 277.195 317.77 271.855 318.82 271.155C320.58 269.995 320.15 273.465 319.88 274.505C319.19 277.225 315.98 280.865 313.77 282.535C310.86 284.735 305.08 285.305 308.12 289.625C310.48 292.975 312.98 290.675 315.39 288.715C323.18 282.365 333.1 267.905 323.8 258.885V258.895ZM322.69 264.985C319.23 268.785 312.15 262.355 315.29 259.185C317.5 256.945 325.36 262.055 322.69 264.985Z" fill="#0633CC"/>
<path d="M222.1 159.355C216.41 157.855 213.1 161.775 209.77 165.525C211.71 150.965 193.97 147.985 189.69 160.965C197.22 155.515 195.38 169.665 191.17 170.475C187.32 171.225 188.5 164.385 186.73 164.245C183.79 164.005 184.44 172.045 185.83 174.175C190.98 182.075 203.25 177.015 207.94 171.005C208.68 175.055 210.76 180.855 214.92 182.515C219.47 184.325 224.65 181.625 224.37 176.485L221.69 176.885C220.86 174.835 220.81 169.955 222.33 168.285C224.72 165.655 223.62 174.915 225.76 173.535C228.39 169.785 226.93 160.625 222.11 159.365L222.1 159.355ZM200.97 165.625C200.6 166.995 198.64 173.685 197.22 173.735C196.43 173.195 196.51 172.535 196.5 171.695C196.48 169.615 200 156.455 201.78 156.415C203.57 156.365 201.21 164.745 200.97 165.635V165.625ZM202.93 170.995C202.25 169.305 202.7 167.325 203.24 165.615C206.42 155.645 210.28 170.165 202.93 170.995ZM211.14 173.275C210.26 170.975 210.31 166.995 213.42 166.895C213.49 169.025 213.74 172.645 211.14 173.275ZM218.56 172.725C218.42 173.245 216.47 179.025 215.24 177.845C213.98 176.635 216.54 164.995 219.34 164.155C219.5 167.145 219.34 169.835 218.56 172.725Z" fill="#0633CC"/>
<path d="M296.41 231.635C292.73 233.295 288.68 234.425 284.6 234.425L285.48 229.895C284.2 229.255 279.01 228.725 279.2 230.915C279.68 232.905 282.87 235.325 282.66 237.325C282.27 241.025 274.61 239.805 273.82 235.805C273.28 233.065 276.24 231.565 275.92 228.945C273.2 228.535 272.07 231.785 270.46 233.295C268 235.615 264.65 236.815 261.32 237.155C265.64 233.545 263.57 229.555 264.06 225.055C264.67 219.485 270.34 224.265 272.52 226.225L273.91 225.795C276.59 220.905 268.67 219.275 265.91 216.825C263.31 214.515 263.21 211.665 263.81 208.385C263.92 207.785 265.7 201.875 266.79 202.935C267.02 206.535 271.9 206.875 274.08 208.655C277.79 211.675 274.37 220.085 276.61 220.725C281.01 219.995 275.48 213.295 280.47 211.785C283.34 210.915 287.67 215.355 290.98 214.795C290.1 219.235 281.15 218.985 280.12 222.415C278.88 226.565 282.85 227.005 285.96 226.655V222.545C287.08 221.455 294.37 227.215 295.32 228.475C296.05 229.435 296.76 230.275 296.4 231.625L296.41 231.635Z" fill="#0633CC"/>
<path d="M228.471 250.865C228.401 251.735 226.651 251.755 225.991 251.795C213.461 252.485 203.491 238.995 212.961 228.705C213.901 228.225 215.961 230.815 217.391 231.145C219.731 231.685 221.951 231.005 219.771 228.765C216.841 225.765 205.861 222.595 210.441 216.165C213.871 211.345 223.791 210.165 220.271 201.585C223.141 202.535 226.861 206.505 227.131 209.565C227.631 215.135 221.831 217.725 221.641 221.015C221.461 224.075 227.461 226.065 227.581 230.125C227.751 235.475 217.481 242.305 224.061 248.895C224.981 249.815 227.151 250.795 228.471 250.875V250.865Z" fill="#0633CC"/>
<path d="M242.18 252.435C241.43 244.115 232.83 245.745 230.04 240.395C229.47 239.295 229.57 238.045 228.7 237.185C226.27 240.905 224.66 243.575 228.47 246.995C229.56 247.975 231.69 248.835 232.44 249.635C235.36 252.765 229.78 255.065 227.29 255.395C222.07 256.085 217.34 254.835 213.19 251.775C212.03 250.915 211.36 249.085 209.63 249.565C206.85 250.335 208.63 257.945 209.53 259.995C216.66 276.115 244 272.595 242.18 252.445V252.435Z" fill="#0633CC"/>
<path d="M323.63 237.165C322.23 237.345 320.65 236.865 319.26 237.365C318.48 237.915 319.19 242.925 317.7 242.185C315.32 238.625 312.9 232.225 307.64 233.495C306.35 239.375 312.41 242.585 316.55 245.155L311.59 246.355L311.99 252.235C309.73 252.605 309.28 248.765 307.45 248.325L303.32 250.875C303.38 245.895 307.66 242.035 305.37 236.735C303.2 231.705 299.24 238.725 298.79 241.565C298.62 242.625 298.86 248.325 297.61 248.595C296.07 248.935 296.54 244.875 295.29 244.505L290.54 246.315L292.36 241.305L287.34 239.925C288.34 237.985 291.23 238.415 293.18 237.785C299.96 235.585 304.11 230.655 297.34 225.135C296.21 224.215 291.3 221.645 291.01 220.965C290.92 220.755 290.82 219.845 291.22 219.845L295.49 219.325L295.56 214.375C297.24 214.145 298.59 217.815 299.49 218.005L303.3 215.025C305.4 214.505 303.01 221.455 302.91 222.405C302.74 224.015 302.37 228.215 304.47 228.545C309.37 229.305 307.4 218.845 307.42 216.205L311.74 219.405L316.08 217.115L314.29 221.915L318.82 223.505C318.97 224.475 318.86 224.245 318.24 224.515C315.65 225.695 309.5 225.385 308.51 228.955C307.8 231.525 311.88 231.365 313.52 231.195C316.69 230.875 319.42 228.775 322.46 228.515L319.75 233.695L324.29 236.275C324.94 236.935 324.25 237.105 323.62 237.185L323.63 237.165Z" fill="#0633CC"/>
<path d="M195.87 249.915C191.89 249.265 189.24 242.335 193.79 240.815C193.38 243.735 197.38 245.125 198.59 242.645C200.13 239.485 193.13 230.155 191.44 226.975C188.68 221.795 186.14 216.245 186.04 210.245L184.79 214.235C183.47 221.755 191.12 231.635 190.04 238.655C188.94 245.745 178.32 243.975 181.02 236.715L183.44 238.475C184.8 237.955 185.39 237.525 185.59 236.055C186.51 229.405 181.07 222.655 182.37 215.725C181.17 216.295 180.74 218.435 180.6 219.655C179.96 225.085 183.13 239.385 173.93 238.565C170.89 238.295 168.74 234.365 171.19 232.165C178.63 238.335 177.01 225.035 177.41 221.035C178.22 212.865 183.72 205.945 190.36 201.585L188.74 208.185C185.92 220.105 203.59 233.125 204.28 242.435C204.65 247.475 200.72 250.715 195.85 249.925L195.87 249.915Z" fill="#0633CC"/>
<path d="M304.02 292.355C303.66 290.665 301.96 288.025 299.99 288.345C299.02 288.505 296.05 290.915 294.49 291.545C291.84 292.635 287.68 293.465 284.81 293.305C280.2 293.055 279.37 289.865 275.73 294.685C272.34 299.165 269.7 308.305 277.12 310.115C286.17 312.335 306.42 303.805 304.01 292.345L304.02 292.355ZM284.6 304.705C285.51 302.255 285.68 300.025 285.51 297.405L290.19 297.285L295.8 295.565C296.96 301.545 289.45 304.515 284.61 304.705H284.6Z" fill="#0633CC"/>
<path d="M203.831 123.765C203.361 125.975 196.811 121.485 195.361 124.465C194.341 126.585 199.041 131.005 196.751 133.125C195.241 133.425 192.361 127.075 190.011 127.265C186.631 127.535 188.771 136.315 184.661 135.405C184.481 133.755 184.601 127.775 182.981 127.245C179.951 126.255 177.681 131.415 174.621 130.835C174.071 128.695 179.871 124.385 178.681 122.665C177.671 121.215 169.561 124.395 169.141 122.385C168.751 120.555 175.751 119.735 176.691 117.585C177.711 115.235 173.151 115.545 173.251 113.495C175.871 113.255 178.681 112.095 181.221 113.045C184.211 114.175 184.921 118.855 189.181 116.415C190.551 115.625 191.431 113.525 193.191 113.125C195.391 112.625 198.401 113.125 200.621 113.485C201.591 114.555 196.481 115.665 197.021 117.725C197.571 119.815 203.221 121.225 203.811 123.745L203.831 123.765Z" fill="#0633CC"/>
<path d="M316.03 155.775C312.07 147.905 310.49 153.795 306.3 153.215C304.35 152.945 304.33 149.565 301.37 150.085C300.26 150.285 298.08 151.665 296.47 152.065C293.84 152.725 291.45 152.535 288.91 153.175C288.05 159.255 294.05 165.885 299.56 167.685C303.22 168.885 306.44 168.865 310.18 168.055C317.95 166.385 319.66 162.985 316.03 155.765V155.775ZM304.98 162.755C302.35 162.615 297.01 160.955 296.92 157.775C301.75 158.785 306.49 160.285 311.52 160.055C311.18 162.235 306.78 162.845 304.98 162.755Z" fill="#0633CC"/>
<path d="M243.991 279.845C241.731 280.985 240.471 277.695 238.051 279.165C242.931 291.725 219.351 298.215 213.491 288.895C210.191 283.645 216.531 286.355 219.531 285.965C225.651 285.165 224.871 277.235 229.251 275.155C231.661 274.015 234.611 274.795 235.991 276.875C238.121 274.935 234.201 270.805 237.131 269.335C239.451 268.175 239.811 270.965 240.391 271.365C240.641 271.535 243.151 269.995 244.201 272.325C244.861 273.795 243.981 274.655 244.121 275.665C244.251 276.545 246.101 278.785 243.981 279.855L243.991 279.845Z" fill="#0633CC"/>
<path d="M336.7 256.635C336.32 257.285 332.32 263.135 331.6 262.255C333.33 254.835 320.37 253.945 319.38 249.615C317.96 243.415 323.26 240.995 328.41 243.095C325.39 234.295 335.05 230.015 338.84 238.835C341.19 244.295 339.64 251.635 336.7 256.645V256.635Z" fill="#0633CC"/>
<path d="M184.801 246.395C183.121 246.005 180.991 246.825 180.371 246.675C179.851 246.545 179.141 244.845 178.271 244.255C174.041 241.415 168.301 245.415 170.531 250.395C161.761 252.035 165.391 263.125 173.701 259.985C174.551 265.025 182.581 264.325 183.281 259.725C183.421 258.805 183.071 256.905 183.381 256.395C183.591 256.055 186.711 255.485 187.521 253.465C188.541 250.945 187.801 247.065 184.811 246.385L184.801 246.395ZM177.841 256.145C173.991 257.365 173.061 251.805 175.861 250.945C179.701 249.765 180.981 255.155 177.841 256.145Z" fill="#0633CC"/>
<path d="M172.7 171.094C172.58 170.884 171.45 170.564 170.96 169.884C169.7 168.124 170.93 166.664 167.9 166.104C160.37 164.704 152.89 168.654 150.66 176.024C150.41 176.844 149.12 182.554 149.27 182.874C149.97 184.314 152.14 183.574 153.37 183.824C158.57 184.884 159.55 185.944 164.9 183.424C168.12 181.904 174.77 174.654 172.7 171.104V171.094ZM162.32 180.824C159.7 182.484 155.85 178.874 155.48 176.204C155.24 174.484 155.6 172.044 157.74 172.364C157.43 175.014 158.98 176.634 160.7 178.304C161.34 178.934 163.71 179.934 162.32 180.814V180.824ZM165.2 175.404C163.97 174.214 161.4 168.974 164.37 168.684C166.39 168.484 166.22 170.594 166.93 171.614C167.56 172.504 169.08 173.484 169.17 174.444C168.98 176.954 166.8 176.954 165.2 175.404Z" fill="#0633CC"/>
<path d="M218.73 272.015C217.27 270.575 214.71 269.385 212.66 269.145C211.17 268.965 209.95 270.075 208.37 268.455C207.12 267.165 206.16 261.235 204.76 258.835C202.28 254.605 196.32 251.955 191.81 254.585C184.19 259.025 196.82 261.055 199.12 262.195C208.31 266.715 202.37 275.885 211.11 280.325C219.97 284.815 225.8 278.985 218.72 272.025L218.73 272.015ZM217.57 277.125C216.18 278.825 211.1 275.865 211.15 273.895L212.38 272.375C214.19 271.875 217.05 274.325 217.81 275.945L217.57 277.125Z" fill="#0633CC"/>
<path d="M341.54 185.035C340.43 186.215 337.92 184.485 336.85 183.785C333.67 181.725 325.23 172.815 325.67 168.945C329.98 168.185 334.26 167.445 337.76 164.595C339.85 162.895 342.55 157.285 343.43 163.505C343.86 166.555 343.31 183.145 341.54 185.035Z" fill="#0633CC"/>
<path d="M284.98 171.155C281.57 176.365 274.28 176.915 268.9 174.705C268.02 174.915 266.69 180.845 264.3 174.645C262.79 170.745 262.77 166.155 264.97 162.525C265.92 161.925 267.68 164.085 269.06 164.415C270.64 164.795 273.68 164.265 274.59 164.825C275.9 165.635 273.21 168.315 273.66 168.715C279.78 169.645 285.39 166.195 285.07 159.595C287.99 162.375 287.09 167.945 284.99 171.155H284.98Z" fill="#0633CC"/>
<path d="M276.84 241.734C280.83 247.414 273.68 252.254 276.3 258.474C278.69 264.184 287.35 263.374 288.85 257.614C290.89 249.774 284.4 242.564 276.84 241.734ZM281.6 253.184C280.19 252.024 281.9 249.394 281.41 247.664C284.9 248.294 285.76 254.394 281.6 253.184Z" fill="#0633CC"/>
<path d="M183.32 189.045C182.91 195.035 175.94 196.955 172.6 191.965C170.06 188.175 171.5 181.355 174.91 178.375C179.69 179.965 183.69 183.645 183.32 189.055V189.045Z" fill="#0633CC"/>
<path d="M284.601 155.255C284.341 158.415 282.751 161.735 280.211 163.665C278.131 161.645 272.831 159.525 276.391 156.625C273.401 154.055 267.871 155.525 267.271 159.595C266.651 159.515 266.481 158.975 266.381 158.435C265.311 152.315 270.441 148.815 276.131 149.595C278.131 149.865 279.961 151.555 281.301 151.765C283.901 152.165 285.051 149.745 284.601 155.255Z" fill="#0633CC"/>
<path d="M296.68 286.894C294.83 291.304 276.42 292.494 280.27 283.264C281.88 279.404 293.93 279.104 296.33 282.014C297.12 282.974 297.16 285.754 296.68 286.894Z" fill="#0633CC"/>
<path d="M336.32 162.254C333.15 164.584 320.45 168.484 321.1 162.124C321.4 159.204 327.84 159.504 330.37 158.584C334.46 157.094 339.13 153.464 337.09 148.654C345.28 150.034 341.05 158.784 336.33 162.264L336.32 162.254Z" fill="#0633CC"/>
<path d="M166.901 162.125C161.601 162.895 154.321 158.775 155.571 152.625C155.871 151.165 157.471 149.085 158.981 148.735C166.511 147.015 169.381 156.535 166.901 162.125Z" fill="#0633CC"/>
<path d="M292.8 262.065C288.39 258.705 293.91 253.695 291.91 249.495C294.37 249.795 297.45 250.635 299.23 252.445C304.74 258.045 298.47 266.395 292.8 262.065Z" fill="#0633CC"/>
<path d="M223.21 155.514C220.82 154.064 213.35 143.664 212.71 140.894C212.53 140.084 212.47 140.074 213.2 139.514C214.68 139.244 225.68 147.494 226.41 149.104C227.38 151.244 226.09 157.254 223.21 155.514Z" fill="#0633CC"/>
<path d="M288.74 210.045C280.81 212.505 278.69 201.235 285.4 199.855C292.86 198.325 293.98 208.415 288.74 210.045Z" fill="#0633CC"/>
<path d="M215.041 347.115C210.141 346.295 211.371 336.945 216.501 336.275C224.091 335.295 222.921 348.425 215.041 347.115Z" fill="#0633CC"/>
<path d="M321.68 156.275L319.74 150.465C322.84 153.175 332.96 146.315 334.57 149.545C336.84 154.095 324.95 158.795 321.67 156.275H321.68Z" fill="#0633CC"/>
<path d="M287.11 187.655C281 187.655 280.47 179.075 285.38 177.945C293.53 176.065 293.96 187.655 287.11 187.655Z" fill="#0633CC"/>
<path d="M277.57 195.165C272.22 194.415 272.45 186.445 277.65 185.695C284.7 184.675 285.04 196.215 277.57 195.165Z" fill="#0633CC"/>
<path d="M270.03 199.545C263.97 201.465 261.83 192.395 267.13 191.175C273.88 189.635 274.49 198.135 270.03 199.545Z" fill="#0633CC"/>
<path d="M158.65 163.704C157.06 165.814 152.61 166.154 150.46 164.814C146.05 162.074 147.05 155.364 151.81 153.654C151.47 158.374 153.89 162.554 158.66 163.694L158.65 163.704Z" fill="#0633CC"/>
<path d="M274.091 261.575C273.511 264.505 268.681 264.915 267.491 262.265C266.351 259.715 268.721 256.795 266.801 254.515C270.911 254.435 275.011 256.875 274.091 261.575Z" fill="#0633CC"/>
<path d="M170.97 195.185C161.39 198.405 160.41 186.295 168.69 184.705C167.86 187.025 167.94 190.455 169.22 192.615C169.59 193.235 171.42 194.585 170.98 195.185H170.97Z" fill="#0633CC"/>
<path d="M156.31 199.914C149.23 203.224 147.03 199.184 147.25 192.444L150.46 195.844C153.78 197.964 157.9 196.674 161.39 195.634C162.2 196.474 156.99 199.594 156.32 199.914H156.31Z" fill="#0633CC"/>
<path d="M148.36 135.374C149.26 131.164 153.75 130.764 157.28 131.754C158.31 133.204 146.38 144.654 148.36 135.374Z" fill="#0633CC"/>
<path d="M293.4 201.434C289.72 198.324 295.06 192.214 298.62 195.764C301.9 199.034 297.11 204.564 293.4 201.434Z" fill="#0633CC"/>
<path d="M226.541 125.715C224.861 127.415 217.901 123.525 218.461 121.555C218.871 120.125 224.981 119.405 226.381 120.385C227.491 121.165 227.381 124.855 226.531 125.715H226.541Z" fill="#0633CC"/>
<path d="M295.74 192.445C291.38 192.875 290.5 186.265 294.99 185.685C299.5 185.105 300.05 192.015 295.74 192.445Z" fill="#0633CC"/>
<path d="M160.48 188.804C156.51 194.434 149.53 193.844 149.53 186.064C151.51 186.654 152.69 188.324 154.89 188.694C156.73 189.004 158.64 188.694 160.49 188.804H160.48Z" fill="#0633CC"/>
<path d="M275.15 202.805C271.49 199.855 277.491 194.615 280.071 198.575C282.111 201.715 278.06 205.155 275.15 202.805Z" fill="#0633CC"/>
<path d="M180.43 173.145C177.42 175.565 173.07 171.855 175.73 168.675C178.45 165.425 184.03 170.245 180.43 173.145Z" fill="#0633CC"/>
<path d="M288 197.474C283.83 198.204 282.53 191.924 286.76 191.154C290.78 190.414 291.98 196.784 288 197.474Z" fill="#0633CC"/>
<path d="M272.771 185.395C272.481 188.075 268.891 188.685 267.401 186.845C263.501 182.005 273.521 178.445 272.771 185.395Z" fill="#0633CC"/>
<path d="M173.131 166.795C170.361 166.165 170.381 161.695 173.131 161.065C178.831 159.755 178.851 168.095 173.131 166.795Z" fill="#0633CC"/>
<path d="M293.871 210.114C290.991 206.544 296.841 203.134 298.781 206.334C300.921 209.884 296.131 212.904 293.871 210.114Z" fill="#0633CC"/>
<path d="M290.34 176.475C286.8 176.255 286.9 170.295 290.76 170.295C295.04 170.295 294.44 176.735 290.34 176.475Z" fill="#0633CC"/>
<path d="M277.431 183.694C273.251 184.354 273.011 177.904 276.671 177.504C280.491 177.084 281.421 183.074 277.431 183.694Z" fill="#0633CC"/>
</g>
<defs>
<clipPath id="clip0_11_8444">
<rect width="249.19" height="275.71" fill="white" transform="translate(125 112.145)"/>
</clipPath>
</defs>
</svg>
