<svg xmlns="http://www.w3.org/2000/svg" width="500" height="500" fill="none" viewBox="0 0 500 500"><path fill="#fff" d="M0 0h500v500H0z"/><g clip-path="url(#a)"><path fill="#FDFDFD" d="M359.642 250.069c0 58.63-47.522 106.159-106.151 106.159-13.912 0-27.198-2.674-39.369-7.542-.576-.697-1.446-1.071-1.668-2.192-.698.187-2.315-.367-2.804-.669-1.036-.647-1.158-1.143-1.963-2.193-.237-.309-.942-.316-1.287-.798.014.022-.108-1.208-.115-1.287-.065-.625-.165-.963-.129-1.272a.962.962 0 0 1 .072-.266c.093-.223.28-.475.639-.841 1.064-1.115 1.388-1.956 1.23-2.653h-.007c-.144-.64-.691-1.151-1.445-1.611-.928-.575-2.157-1.078-3.322-1.675a12.844 12.844 0 0 1-1.589-.963 5.463 5.463 0 0 1-.661-.539c-.626-.597-1.1-1.366-1.553-2.157-.46-.813-.892-1.639-1.438-2.315-.475-.583-1.028-1.057-1.761-1.302-.691-.23-1.568-.294-1.884-.949-.173-.366-.094-.798.022-1.2.014-.058.028-.122.05-.18.23-.791.381-1.646.446-2.545.028-.381.043-.769.043-1.157.007-2.61-.619-5.392-1.812-7.592a9.496 9.496 0 0 0-.431-.755h-.008c-.848-1.323-1.919-2.366-3.206-2.926-.949-.417-2.013-.568-3.178-.381a6.44 6.44 0 0 0-.855.194 9.255 9.255 0 0 0-2.171.97c-.367.216-.734.46-1.115.741-.474.352-.927.762-1.488.956l-.014.007c-.453.158-.935.151-1.41.05a4.08 4.08 0 0 1-1.114-.417c-.985-.524-1.776-1.301-2.466-2.178a16.5 16.5 0 0 1-1.021-1.416 29.134 29.134 0 0 1-.625-.985c-.302-.482-.597-.964-.899-1.445-1.251-2.006-2.502-4.012-3.746-6.018h-.007c-.898-1.452-2.164-3.084-3.86-2.897-.317.036-.626.137-.928.237-.482.151-.956.295-1.438.18-.719-.173-1.164-.87-1.538-1.51-.417-.719-.856-1.438-1.302-2.164-2.559-4.127-5.521-8.304-7.814-12.567-.834-1.546-1.582-3.106-2.193-4.673 0-.022-.015-.036-.022-.058-2.883-7.462-3.005-17.312-3.005-25.206 0-.726.007-1.452.022-2.171.941-43.388 30.001-83.67 71.117-98.042.014.144.043.288.086.425.252.977.971 1.797 1.87 2.286.992.561 2.207.712 3.256.259.022-.008.044-.022.065-.029-.014.021-.029.036-.043.057-.82 1.208-1.646 2.409-2.473 3.617l-.561.819c-.014.022-.036.051-.05.072.237.23.503.439.783.618a5.651 5.651 0 0 0 2.258.863 5.583 5.583 0 0 0 3.242-.388c.007.057.022.115.029.173.079.474.158.956.244 1.43l.195 1.151c.086.496.165.984.251 1.481a5.112 5.112 0 0 1-.668.496 4.22 4.22 0 0 1-.842.417 4.483 4.483 0 0 1-1.596.266c-.704-.008-1.43-.151-2.171-.367a5.768 5.768 0 0 1-.417-.129c-.172-.051-.352-.116-.532-.18-.546-.18-1.1-.396-1.661-.597-.323-.115-.647-.23-.977-.338a11.896 11.896 0 0 0-.755-.237c-2.567-.748-5.342-.928-8.39 1.596a26.514 26.514 0 0 0-2.725 2.595 27.793 27.793 0 0 0-4.105 5.888 27.1 27.1 0 0 0-2.739 8.146c-.036.165-.058.338-.087.51.065-.079.13-.158.202-.237a26.347 26.347 0 0 1 1.639-1.819l.28-.28c.317-.309.64-.611.971-.913a28.553 28.553 0 0 1 1.84-1.503c.317-.244.64-.474.971-.69.244-.18.489-.345.74-.503.31.568.619 1.129.935 1.697.41.747.82 1.502 1.237 2.25 1.581-.367 2.128-2.085 2.149-3.811 0-.201 0-.402-.014-.596a10.337 10.337 0 0 0-.122-1.079 22.655 22.655 0 0 1-.194-1.315c-.209-1.812-.116-3.724 1.351-4.638.173.382.345.763.525 1.151.252.553.51 1.107.762 1.661l.043.093c.094-.043.18-.086.273-.129a17.774 17.774 0 0 1 3.66-1.266 18.719 18.719 0 0 1 2.451-.402 19.196 19.196 0 0 1 2.66-.079c1.949.079 3.89.46 5.723 1.143-1.668.158-3.07.977-4.357 2.056-1.15.97-2.207 2.164-3.242 3.271-.144.144-.28.288-.417.431a33.984 33.984 0 0 1-2.459 2.323h-.007c-2.042 1.761-3.99 3.055-5.802 4.378-2.487 1.826-4.716 3.717-6.564 6.959a24.344 24.344 0 0 0-1.488 3.149 14.004 14.004 0 0 1-1.625 3.005 15.387 15.387 0 0 1-2.746 2.977c.237.352.446.747.611 1.172h.007c.417 1.021.583 2.192.202 3.206-.274.741-.712 1.38-1.23 1.97-.532.618-1.15 1.172-1.754 1.718-.194.173-.381.345-.561.518-.072.065-.136.129-.208.194-1.467 1.388-2.826 3.048-3.365 4.939a6.267 6.267 0 0 0-.237 1.474c-.036.963.266 1.955.791 2.782.826 1.309 2.214 2.222 3.688 2.02a2.68 2.68 0 0 0 .338-.064c1.747-.439 2.631-2.013 3.199-3.825.338-1.071.561-2.229.798-3.271.582-2.588 1.725-5.011 3.293-7.146a20.867 20.867 0 0 1 2.329-2.704c.511-.496 1.05-.97 1.61-1.416 2.28-1.826 4.932-3.192 7.751-3.918.92-.245 1.862-.41 2.818-.511.108-.481.021-.122.137-.604-.985-.632-1.978-1.286-2.963-1.926 4.257-1.431 9.102-.906 13.02 1.279a15.183 15.183 0 0 1 2.596 1.819c-.079-1.035-.166-2.063-.252-3.098l-.151-1.905c-.057-.612-.086-1.194-.179-1.855l.345-.238a36.049 36.049 0 0 1 6.499 5.098 28.297 28.297 0 0 0 3.178-1.625c1.567-.92 3.091-1.941 4.608-2.933.395-.252.798-.504 1.193-.755a8.728 8.728 0 0 1 1.136-.619c.698-.33 1.431-.503 2.114-.28a.983.983 0 0 1 .194.065c.539.237.777.87.748 1.438-.015.373-.144.719-.374.906-.158.143-.367.208-.626.165.187.065.338.129.561.194.654.194 1.287.446 1.927.69.208.086.439.158.654.245.23.079.468.158.698.244a9.55 9.55 0 0 1-.683 1.078.979.979 0 0 1-.13.18c-.345.46-.726.884-1.143 1.28-.496.482-1.042.906-1.618 1.28a11.055 11.055 0 0 1-3.472 1.509 9.22 9.22 0 0 1-1.186.223c-.166.022-.324.043-.489.051a10.4 10.4 0 0 1-1.711-.008c-.079.252-.158.504-.216.755a14.74 14.74 0 0 0-.482 2.617c-.043.374-.071.755-.079 1.129-.007.417-.007.827.015 1.244a8.17 8.17 0 0 0-1.489-.46 8.651 8.651 0 0 0-1.667-.202h-.008a10.08 10.08 0 0 0-1.387.079 8.675 8.675 0 0 0-2.574.748c.331.669.489 1.409.489 2.15 0 .834-.194 1.668-.568 2.408a4.886 4.886 0 0 1-1.416 1.718c-.511.389-1.1.655-1.719.806-1.294.323-2.724.143-3.882-.518a4.374 4.374 0 0 1-.848-.611 7.75 7.75 0 0 1-2.97.697 8.808 8.808 0 0 1-4.356-.934c-.115-.058-.23-.115-.338-.173a6.493 6.493 0 0 1-.489-.302 7.77 7.77 0 0 1-2.171-2.056 35.14 35.14 0 0 0-1.589.69 39.095 39.095 0 0 0-4.213 2.272 39.353 39.353 0 0 0-3.846 2.703 42.448 42.448 0 0 0-6.636 6.622 41.86 41.86 0 0 0-5.119 8.081 39.716 39.716 0 0 0-3.207 9.317h-.007c-.043.194-.079.381-.115.568a24.246 24.246 0 0 0-.302 1.754c-.1.633-.179 1.273-.23 1.913a6.055 6.055 0 0 0-.057.532 35.36 35.36 0 0 0-.094 1.488 44.275 44.275 0 0 0-.043 3.07c.014 1.344.094 2.681.209 4.018.194 2.28.503 4.544.87 6.809a223.4 223.4 0 0 0 .762 4.414c.079.475.165.942.251 1.416.216 1.18.475 2.43.964 3.516.431.963 1.028 1.812 1.934 2.358.136.086.28.158.431.223.525.252 1.1.41 1.675.561.69.18 1.373.352 1.999.668 1.74.892 2.732 2.74 4.126 4.098 1.474 1.438 3.351 2.236 5.349 2.502 1.992.274 4.105.022 6.083-.661a14.407 14.407 0 0 0 3.796-1.956 17.828 17.828 0 0 0 1.962-1.646 21.423 21.423 0 0 0 2.013-2.186.162.162 0 0 0 .043-.057c.496-.611.971-1.244 1.417-1.898.338-.496.668-1.014.992-1.531a68.74 68.74 0 0 0 2.078-3.674c.395-.748.783-1.496 1.164-2.243.338.194.683.395 1.028.596a.65.65 0 0 0 .072.044c1.769 1.02 3.588 2.07 5.249 3.192.618.417 1.215.841 1.775 1.279.23-.69.575-1.337 1.007-1.912a3.68 3.68 0 0 1 .302-.367c.704-.805 1.603-1.43 2.638-1.754.489-.158 1-.244 1.539-.259 2.538-.057 5.011 1.747 5.73 4.185.115.395.194.805.251 1.222.166 1.114.223 2.257.727 3.257.438.877 1.107 1.495 1.912 1.948.539.309 1.136.539 1.776.726 1.581.46 3.371.661 4.968 1.042.079.022.158.036.237.058 1.344.338 2.61.92 3.753 1.689.036.022.064.044.093.065.611.41 1.179.877 1.718 1.395a14.053 14.053 0 0 1 2.898 3.961c.388.791.697 1.611.927 2.459.065.244.122.489.173.741a12.06 12.06 0 0 1 .158 4.097c-.216 1.517-.69 3.049-.367 4.566a.192.192 0 0 1 .029.057 60.585 60.585 0 0 0 1.567 2.071c8.807 11.165 19.39 16.42 26.206 18.814 2.954 1.036 6.024-.33 7.692-2.983.051-.079.101-.144.158-.209.008 0 .008-.021.015-.028a12.846 12.846 0 0 1 2.013-3.566c.453-.568.956-1.1 1.481-1.604.697-.675 1.438-1.322 2.164-1.977 2.07-3.113 3.444-5.996 4.321-8.605 1.035-3.063 1.387-5.759 1.38-8.031.295-.424.554-.87.762-1.344.065-.144.122-.288.18-.432.553-1.495.388-3.307-.352-4.673-.468-.863-1.165-1.546-2.057-1.869a3.504 3.504 0 0 0-.683-.173c-.963-.143-1.236-1.89-1.301-1.991-.51-.827 1.158-3.94 1.797-5.133a15.446 15.446 0 0 0 1.553-4.235c.159-.791.259-1.589.281-2.387a12.652 12.652 0 0 0-.209-2.854c0-.007-.007-.007 0-.014a11.297 11.297 0 0 0-.827-2.538 9.821 9.821 0 0 0-.618-1.172 12.584 12.584 0 0 0-1.416-1.862 11.147 11.147 0 0 0-.848-.812c-.036-.036-.072-.072-.116-.094a11.737 11.737 0 0 0-2.444-1.61c-5.291-4.602-6.398-10.669-6.269-15.364.101-4.163 1.186-7.24 1.186-7.24-.057-.295-.158-.575-.251-.863a5.206 5.206 0 0 1-.18-.661c-.094-.51-.05-1.028-.015-1.538.022-.223.036-.453.058-.676.072-.885.137-1.776.208-2.66.094-1.151.187-2.301.266-3.458l.13-1.424c.036-.525.101-1.042.259-1.524.115-.352.287-.69.46-1.021.007 0 .007-.007.007-.014.173-.338.352-.676.482-1.028.395-1.079.338-2.258.208-3.408-.021-.194-.05-.381-.072-.568-.179-1.445-.316-2.962-.467-4.472-.208-2.027-.446-4.048-.856-5.924a19.59 19.59 0 0 0-.345-1.38 9.182 9.182 0 0 0-.381.107c-.862.281-1.028.619-.992 1.057l-11.021 11.705-30.677-11.956c-1.489-1.294-2.509.589-3.919.776-1.272-1.064.195-2.588 1.668-4.119 1.136.1 2.43 1.251 3.157 1.646.841.46 2.602.611 2.904 1.862.956-.532 2.02-.309 2.761.431 2.423-1.15 5.306-.33 7.865-.194h.014c.216.015.54.015.942.015 2.294-.029 5.105-.461 7.06.503.015.007.036.014.051.029 1.351.697 1.998 2.005 2.739 3.213.036.065.072.123.115.187.374.597.791 1.165 1.337 1.596.518.417 1.157.712 2.006.813.956.115 1.891-.022 2.789-.331 1.453-.503 2.79-1.452 3.89-2.538a15.922 15.922 0 0 0 1.466-1.653c.489-.619.928-1.266 1.323-1.949a17.243 17.243 0 0 0 1.503-3.35c.302-.892.525-1.812.676-2.739.129-.82.194-1.639.201-2.459.007-.331 0-.654-.014-.985-.108-.065-.209-.122-.317-.194a9.867 9.867 0 0 1-1.833-1.495 9.892 9.892 0 0 1-1.172-1.46 9.522 9.522 0 0 1-.676-1.179 9.843 9.843 0 0 1-.87-2.696c-.007-.007-.007-.014-.007-.022-.014 0-.021.008-.036.008-.122.021-.237.05-.359.072l-1.179.237c-.432.093-.863.18-1.302.266-.007 0-.014.007-.014.007-.525.101-1.057.208-1.582.316-.021 0-.05 0-.072.015a1.386 1.386 0 0 0-.1-.187 6.975 6.975 0 0 0-1.582-1.963 7.038 7.038 0 0 0-2.387-1.387c-.036-.015-.079-.029-.115-.044.007.022.015.044.015.065.201.841.036 1.675-.374 2.401-.532.964-1.489 1.755-2.574 2.2a4.99 4.99 0 0 1-1.668.374 7.938 7.938 0 0 1-2.739-.395c-1.431-.453-2.797-1.23-4.105-2.028-.008-.007-.015 0-.015 0-.122-.079-.251-.151-.374-.23a6.814 6.814 0 0 1-1.416-1.186c-.129-.144-.259-.288-.367-.439h-.007c-.855-1.135-1.215-2.444-.115-3.17.094-.065.194-.115.295-.151.69-.28 1.531-.065 2.222.266.467.23.934.51 1.394.812.432.274.863.554 1.294.813.604.366 1.215.69 1.819.884.446.144.899.216 1.352.173.309-.022.618-.101.935-.238.409-.187.769-.474 1.143-.733.287-.201.589-.381.92-.489.589-.194 1.208-.115 1.833-.029.309.051.618.101.92.123 1.877.143 3.574-.647 5.091-1.819.92-.705 1.782-1.553 2.58-2.402h.008l.611-.675c.007 0 .014-.008.021-.008.46.144.906.274 1.374.381.949.231 1.912.417 2.875.547 1.222.172 2.459.259 3.688.266a28.858 28.858 0 0 0 4.005-.237c.726-.094 1.452-.223 2.186-.281a8.3 8.3 0 0 1 1.401.022c.928.1 1.812.424 2.653.848.022.007.036.015.051.022.294.151.582.309.862.474.317.187.633.381.935.575a65.814 65.814 0 0 1 5.313 3.775c.417.323.827.654 1.229.999a63.441 63.441 0 0 1 2.89 2.516l1.029.964a41.888 41.888 0 0 0 2.351 2.063c.934.748 1.912 1.402 2.954 1.877.87.395 1.783.661 2.754.74 1.244.108 2.509-.108 3.738.079.151.022.309.058.453.094 1.309.309 2.438 1.049 3.387 2.02 1.078 1.1 1.941 2.487 2.588 3.882.402.87.798 1.733 1.186 2.603 6.974 15.457 12.1 30.634 12.517 47.831v.259c.014.661.021 1.33.021 2.005h-.007Z"/><path fill="#3E4095" d="m303.263 200.83.992-1.057c-.862.281-1.028.619-.992 1.057Z"/><path fill="#3E4095" d="M403.238 230.399c-9.641-74.115-73.008-131.357-149.747-131.357-76.74 0-140.115 57.242-149.756 131.357h-26.24v45.495h9.604v11.323h19.972c16.55 65.445 75.827 113.88 146.42 113.88 70.592 0 129.862-48.435 146.419-113.88h13.271v-11.323h9.605v-45.495h-19.548ZM253.491 356.228c-13.912 0-27.198-2.674-39.37-7.541-.575-.698-1.445-1.072-1.668-2.193-.697.187-2.315-.367-2.803-.669-1.036-.647-1.158-1.143-1.963-2.193-.237-.309-.942-.316-1.287-.798.014.022-.108-1.207-.115-1.287-.065-.625-.165-.963-.129-1.272a.967.967 0 0 1 .071-.266c.094-.223.281-.475.64-.841 1.064-1.115 1.388-1.956 1.23-2.653h-.008c-.143-.64-.69-1.15-1.445-1.611-.927-.575-2.156-1.078-3.321-1.675a12.723 12.723 0 0 1-1.589-.963 5.37 5.37 0 0 1-.661-.539c-.626-.597-1.1-1.366-1.553-2.157-.46-.812-.892-1.639-1.438-2.315-.475-.582-1.028-1.057-1.762-1.301-.69-.23-1.567-.295-1.883-.949-.173-.367-.094-.798.021-1.201.015-.057.029-.122.051-.18.23-.791.381-1.646.445-2.545.029-.381.044-.769.044-1.157.007-2.61-.619-5.392-1.812-7.592a9.817 9.817 0 0 0-.431-.755h-.008c-.848-1.323-1.919-2.365-3.206-2.926-.949-.417-2.013-.568-3.178-.381-.28.043-.561.108-.855.194a9.302 9.302 0 0 0-2.172.97c-.366.216-.733.461-1.114.741-.474.352-.927.762-1.488.956l-.015.007c-.452.159-.934.151-1.409.051a4.08 4.08 0 0 1-1.114-.417c-.985-.525-1.776-1.302-2.466-2.179a16.285 16.285 0 0 1-1.021-1.416 27.636 27.636 0 0 1-.625-.985c-.302-.482-.597-.963-.899-1.445-1.251-2.006-2.502-4.012-3.746-6.018h-.007c-.899-1.452-2.164-3.084-3.861-2.897-.316.036-.625.137-.927.237-.482.151-.956.295-1.438.18-.719-.172-1.165-.87-1.538-1.51-.417-.719-.856-1.438-1.302-2.164-2.559-4.126-5.521-8.303-7.815-12.567-.834-1.545-1.581-3.106-2.192-4.673 0-.021-.015-.036-.022-.057-2.883-7.463-3.005-17.312-3.005-25.206 0-.727.007-1.453.021-2.172.942-43.388 30.002-83.67 71.118-98.041.014.143.043.287.086.424.252.978.971 1.797 1.869 2.286.993.561 2.208.712 3.257.259.022-.007.043-.022.065-.029-.014.022-.029.036-.043.058-.82 1.207-1.647 2.408-2.473 3.616l-.561.819c-.014.022-.036.051-.05.072a5.664 5.664 0 0 0 3.041 1.481 5.584 5.584 0 0 0 3.242-.388c.007.058.022.115.029.173.079.474.158.956.244 1.43l.194 1.151c.087.496.166.985.252 1.481a5.053 5.053 0 0 1-.669.496c-.28.18-.56.316-.841.417a4.483 4.483 0 0 1-1.596.266c-.704-.007-1.43-.151-2.171-.367a5.618 5.618 0 0 1-.417-.129 9.828 9.828 0 0 1-.532-.18c-.546-.18-1.1-.395-1.661-.597-.323-.115-.647-.23-.977-.338a12.102 12.102 0 0 0-.755-.237c-2.567-.748-5.342-.927-8.39 1.596a26.416 26.416 0 0 0-2.725 2.596 27.768 27.768 0 0 0-4.105 5.888 27.095 27.095 0 0 0-2.739 8.145c-.036.166-.058.338-.087.511.065-.079.13-.159.202-.238a26.347 26.347 0 0 1 1.639-1.819l.28-.28c.316-.309.64-.611.971-.913a28.553 28.553 0 0 1 1.84-1.503c.317-.244.64-.474.971-.69.244-.179.489-.345.74-.503.309.568.619 1.129.935 1.697.41.747.82 1.502 1.236 2.25 1.582-.367 2.129-2.085 2.15-3.81 0-.202 0-.403-.014-.597a10.368 10.368 0 0 0-.122-1.079 23.538 23.538 0 0 1-.195-1.315c-.208-1.812-.115-3.724 1.352-4.637.173.381.345.762.525 1.15.251.554.51 1.107.762 1.661l.043.093c.094-.043.18-.086.273-.129a17.774 17.774 0 0 1 3.66-1.266 19.352 19.352 0 0 1 5.111-.481c1.949.079 3.89.46 5.723 1.143-1.668.158-3.07.978-4.357 2.056-1.15.971-2.207 2.164-3.242 3.271-.144.144-.281.288-.417.432a34.62 34.62 0 0 1-2.459 2.322h-.007c-2.042 1.761-3.99 3.055-5.802 4.378-2.487 1.826-4.716 3.717-6.564 6.959a24.344 24.344 0 0 0-1.488 3.149 14.08 14.08 0 0 1-1.625 3.006 15.41 15.41 0 0 1-2.746 2.976c.237.352.446.748.611 1.172h.007c.417 1.021.582 2.193.201 3.206-.273.741-.711 1.381-1.229 1.97-.532.618-1.15 1.172-1.754 1.718-.194.173-.381.346-.561.518-.072.065-.137.13-.208.194-1.467 1.388-2.826 3.049-3.365 4.939a6.267 6.267 0 0 0-.237 1.474c-.036.964.266 1.956.79 2.782.827 1.309 2.215 2.222 3.689 2.021.115-.015.223-.036.338-.065 1.747-.439 2.631-2.013 3.199-3.825.338-1.071.561-2.228.798-3.271.582-2.588 1.725-5.011 3.293-7.146a20.858 20.858 0 0 1 3.939-4.12c2.279-1.826 4.932-3.192 7.751-3.918.92-.244 1.862-.41 2.818-.51.108-.482.021-.123.136-.604-.985-.633-1.977-1.287-2.962-1.927 4.256-1.431 9.102-.906 13.02 1.28a15.072 15.072 0 0 1 2.596 1.819c-.079-1.036-.166-2.064-.252-3.099l-.151-1.905c-.057-.611-.086-1.194-.18-1.855l.345-.237a36.24 36.24 0 0 1 6.5 5.097 28.117 28.117 0 0 0 3.177-1.625c1.568-.92 3.092-1.941 4.609-2.933.395-.252.798-.503 1.193-.755a8.605 8.605 0 0 1 1.136-.618c.698-.331 1.431-.504 2.114-.281.065.015.129.036.194.065.539.237.776.87.748 1.438-.015.374-.144.719-.374.906-.158.143-.367.208-.626.165.187.065.338.129.561.194.654.194 1.287.446 1.927.69.208.087.438.159.654.245.23.079.467.158.697.244a9.287 9.287 0 0 1-.683 1.079 1 1 0 0 1-.129.179 10.07 10.07 0 0 1-1.143 1.28c-.496.482-1.043.906-1.618 1.28a11.08 11.08 0 0 1-3.472 1.51c-.388.1-.784.172-1.186.222-.166.022-.324.044-.489.051a10.51 10.51 0 0 1-1.711-.007c-.079.251-.159.503-.216.754a14.74 14.74 0 0 0-.482 2.617c-.043.374-.072.755-.079 1.129-.007.417-.007.827.015 1.244a8.329 8.329 0 0 0-1.489-.46 8.731 8.731 0 0 0-1.668-.202h-.007a9.927 9.927 0 0 0-1.387.08 8.673 8.673 0 0 0-2.574.747c.331.669.489 1.409.489 2.15 0 .834-.194 1.668-.568 2.408a4.9 4.9 0 0 1-1.416 1.719 4.66 4.66 0 0 1-1.719.805c-1.294.323-2.725.144-3.882-.518a4.344 4.344 0 0 1-.848-.611 7.732 7.732 0 0 1-2.97.697 8.797 8.797 0 0 1-4.356-.934c-.115-.058-.23-.115-.338-.173a6.493 6.493 0 0 1-.489-.302 7.77 7.77 0 0 1-2.171-2.056 35.14 35.14 0 0 0-1.589.69 39.095 39.095 0 0 0-4.213 2.272 39.661 39.661 0 0 0-3.847 2.703 42.485 42.485 0 0 0-6.635 6.622 41.86 41.86 0 0 0-5.119 8.081 39.716 39.716 0 0 0-3.207 9.317h-.007c-.043.194-.079.381-.115.568a24.246 24.246 0 0 0-.302 1.754c-.1.633-.18 1.273-.23 1.913a6.055 6.055 0 0 0-.057.532c-.044.496-.072.992-.094 1.488a43.66 43.66 0 0 0-.043 3.07c.014 1.344.093 2.681.208 4.019.195 2.279.504 4.543.87 6.808.238 1.474.496 2.948.762 4.414.08.475.166.942.252 1.417.216 1.179.475 2.43.963 3.515.432.964 1.029 1.812 1.934 2.358.137.087.281.159.432.223.525.252 1.1.41 1.675.561.69.18 1.373.352 1.999.669 1.739.891 2.732 2.739 4.126 4.098 1.474 1.437 3.351 2.236 5.349 2.502 1.992.273 4.105.021 6.082-.662a14.403 14.403 0 0 0 3.796-1.955 17.866 17.866 0 0 0 1.963-1.647 21.518 21.518 0 0 0 2.013-2.185.166.166 0 0 0 .043-.058c.496-.611.971-1.244 1.417-1.898.338-.496.668-1.014.992-1.531a68.04 68.04 0 0 0 2.077-3.674c.396-.748.784-1.495 1.165-2.243.338.194.683.395 1.028.597.022.014.043.028.072.043 1.769 1.021 3.588 2.07 5.248 3.192a30.87 30.87 0 0 1 1.776 1.28 6.736 6.736 0 0 1 1.007-1.913c.093-.129.194-.251.302-.366.704-.806 1.603-1.431 2.638-1.755a5.458 5.458 0 0 1 1.539-.259c2.538-.057 5.011 1.748 5.73 4.185.115.395.194.805.251 1.222.166 1.114.223 2.257.726 3.257.439.877 1.108 1.495 1.913 1.948.539.309 1.136.539 1.776.726 1.581.46 3.371.662 4.967 1.043.08.021.159.036.238.057 1.344.338 2.609.92 3.753 1.69.035.021.064.043.093.064.611.41 1.179.877 1.718 1.395a14.087 14.087 0 0 1 2.898 3.961c.388.791.697 1.611.927 2.459.065.245.122.489.173.741.28 1.337.345 2.725.158 4.098-.216 1.517-.69 3.048-.367 4.565a.236.236 0 0 1 .029.057 59.311 59.311 0 0 0 1.567 2.071c8.807 11.165 19.39 16.421 26.205 18.815 2.955 1.035 6.025-.331 7.693-2.984.05-.079.101-.144.158-.208.007 0 .007-.022.015-.029a12.87 12.87 0 0 1 2.013-3.566c.453-.568.956-1.1 1.481-1.603.697-.676 1.438-1.323 2.164-1.977 2.07-3.113 3.443-5.996 4.321-8.606 1.035-3.063 1.387-5.759 1.38-8.031.295-.424.553-.87.762-1.344.065-.144.122-.288.18-.431.553-1.496.388-3.308-.353-4.674-.467-.862-1.164-1.545-2.056-1.869a3.503 3.503 0 0 0-.683-.172c-.963-.144-1.236-1.891-1.301-1.992-.51-.827 1.158-3.94 1.797-5.133a15.33 15.33 0 0 0 1.553-4.235c.158-.79.259-1.588.281-2.386a12.656 12.656 0 0 0-.209-2.855c0-.007-.007-.007 0-.014a11.4 11.4 0 0 0-.827-2.538 10.13 10.13 0 0 0-.618-1.172 12.584 12.584 0 0 0-1.416-1.862 11.167 11.167 0 0 0-.849-.812c-.036-.036-.071-.072-.115-.094a11.737 11.737 0 0 0-2.444-1.61c-5.291-4.601-6.399-10.669-6.269-15.364.1-4.163 1.186-7.24 1.186-7.24-.057-.294-.158-.575-.252-.862a5.438 5.438 0 0 1-.179-.662c-.094-.51-.051-1.028-.015-1.538.022-.223.036-.453.058-.676.072-.884.136-1.776.208-2.66.094-1.15.187-2.301.266-3.458l.13-1.424c.036-.525.1-1.042.259-1.524.115-.352.287-.69.46-1.021.007 0 .007-.007.007-.014.172-.338.352-.676.482-1.028.395-1.079.338-2.258.208-3.408-.021-.194-.05-.381-.072-.568-.18-1.445-.316-2.962-.467-4.472-.209-2.027-.446-4.047-.856-5.924-.1-.467-.215-.934-.345-1.38a9.115 9.115 0 0 0-.381.108l-.992 1.056-11.021 11.705-30.677-11.956c-1.489-1.294-2.509.589-3.919.776-1.272-1.064.194-2.588 1.668-4.119 1.136.1 2.43 1.251 3.156 1.646.842.46 2.603.611 2.905 1.862.956-.532 2.02-.309 2.761.432 2.423-1.151 5.305-.331 7.865-.195h.014c.216.015.539.015.942.015 2.294-.029 5.105-.46 7.06.503.014.007.036.014.05.029 1.352.697 1.999 2.006 2.74 3.213.036.065.071.123.115.187.373.597.79 1.165 1.337 1.596.517.417 1.157.712 2.006.813.956.115 1.89-.022 2.789-.331 1.452-.503 2.79-1.452 3.89-2.538a16.053 16.053 0 0 0 1.466-1.653c.489-.619.928-1.266 1.323-1.949a17.276 17.276 0 0 0 1.503-3.35 16.576 16.576 0 0 0 .877-5.198c.007-.33 0-.654-.015-.985-.107-.064-.208-.122-.316-.194a9.834 9.834 0 0 1-1.833-1.495 9.892 9.892 0 0 1-1.172-1.46 9.522 9.522 0 0 1-.676-1.179 9.843 9.843 0 0 1-.87-2.696c-.007-.007-.007-.014-.007-.021-.014 0-.022.007-.036.007-.122.021-.237.05-.359.072l-1.179.237c-.432.093-.863.18-1.302.266-.007 0-.014.007-.014.007-.525.101-1.057.209-1.582.317-.021 0-.05 0-.072.014a1.386 1.386 0 0 0-.1-.187 6.975 6.975 0 0 0-1.582-1.963 7.038 7.038 0 0 0-2.387-1.387c-.036-.015-.079-.029-.115-.043a.21.21 0 0 1 .014.064c.202.841.036 1.675-.373 2.402-.532.963-1.489 1.754-2.574 2.199a4.99 4.99 0 0 1-1.668.374 7.938 7.938 0 0 1-2.739-.395c-1.431-.453-2.797-1.229-4.105-2.027-.008-.008-.015 0-.015 0-.122-.08-.251-.151-.374-.231a6.727 6.727 0 0 1-1.416-1.186c-.129-.144-.259-.287-.367-.438h-.007c-.855-1.136-1.215-2.445-.115-3.171.094-.065.194-.115.295-.151.69-.28 1.531-.065 2.221.266.468.23.935.511 1.395.813.432.273.863.553 1.294.812.604.367 1.215.69 1.819.884.446.144.899.216 1.352.173.309-.022.618-.101.934-.237.41-.187.77-.475 1.144-.734.287-.201.589-.381.92-.489.589-.194 1.208-.115 1.833-.028.309.05.618.1.92.122 1.877.144 3.573-.647 5.09-1.819.921-.705 1.783-1.553 2.581-2.401h.008l.611-.676c.007 0 .014-.007.021-.007.46.143.906.273 1.373.381.949.23 1.913.417 2.876.546 1.222.173 2.459.259 3.688.266a28.858 28.858 0 0 0 4.005-.237c.726-.094 1.452-.223 2.185-.281a8.416 8.416 0 0 1 1.402.022c.928.101 1.812.424 2.653.848.022.008.036.015.051.022.294.151.582.309.862.474.317.187.633.381.935.576a65.631 65.631 0 0 1 5.313 3.774c.417.324.827.654 1.229.999a63.464 63.464 0 0 1 2.89 2.517l1.028.963a42.61 42.61 0 0 0 2.351 2.063c.935.748 1.913 1.402 2.955 1.877.87.395 1.783.661 2.754.74 1.244.108 2.509-.108 3.738.079.151.022.309.058.453.094 1.309.309 2.437 1.05 3.386 2.02 1.079 1.1 1.942 2.488 2.589 3.882.402.87.798 1.733 1.186 2.603 6.974 15.457 12.1 30.634 12.517 47.831v.259c.014.661.021 1.33.021 2.006 0 58.629-47.522 106.158-106.151 106.158h-.007Z"/><path fill="#3E4095" d="M335.012 252.435c-.439-.856-1.618-.964-2.179-.18-1.474 2.056-3.882 6.435-4.256 13.487-.323 6.126.41 9.85 1.057 11.863.309.956 1.546 1.186 2.193.417 1.991-2.358 5.485-6.988 5.679-10.655.238-4.443-.539-11.1-2.502-14.925l.008-.007Z"/><path fill="#E6E7E9" d="M144.88 277.777c1.725 6.809-1.165 11.892-7.125 13.401l-14.975 3.804c-1.776.452-3.099-.288-3.516-1.942-.424-1.66.381-2.954 2.157-3.407l14.465-3.674c3.631-.92 5.291-3.566 4.414-7.024-.87-3.415-3.63-4.961-7.225-4.048l-14.465 3.674c-1.776.453-3.099-.288-3.516-1.941-.417-1.661.389-2.955 2.157-3.408l15.019-3.81c5.96-1.51 10.935 1.804 12.603 8.375h.007ZM141.379 262.328c.058 1.625-1.006 2.624-2.818 2.681l-21.956.763c-2.179.071-3.351-.842-3.415-2.711-.043-1.323.683-2.121 2.329-3.321l15.867-11.223v-.223l-15.773.547c-1.834.064-2.941-.834-2.998-2.466-.058-1.625 1.006-2.646 2.818-2.704l22.078-.762c2.078-.072 3.228.827 3.286 2.574.043 1.323-.475 2.114-2.243 3.379l-16.047 11.331v.222l15.874-.546c1.834-.065 2.941.834 2.998 2.466v-.007ZM138.475 239.645l-22.108-2.509c-1.862-.208-2.84-1.33-2.645-3.062.194-1.719 1.401-2.603 3.264-2.395l22.107 2.51c1.862.208 2.84 1.322 2.646 3.048-.202 1.74-1.402 2.624-3.264 2.416v-.008ZM121.321 209.816c-1.733-1.035-2.293-2.034-1.927-3.458.389-1.517 1.64-2.372 3.056-2.013.532.137 1.373.54 2.042.964l17.427 11.567c2.379 1.539 3.17 3.063 2.609 5.249-.568 2.228-2.027 3.221-4.831 3.429l-20.835 1.747c-.877.072-1.689.029-2.243-.115-1.423-.367-2.121-1.74-1.725-3.278.352-1.381 1.402-2.035 3.364-2.121l20.073-1.143.065-.259-17.068-10.576-.007.007ZM125.886 199.601c-2.121-1-2.675-2.589-1.625-4.817l5.234-11.129c.589-1.251 1.819-1.712 3.034-1.136 1.215.568 1.624 1.797 1.035 3.055l-4.472 9.504 6.449 3.034 4.227-8.986c.554-1.179 1.683-1.618 2.847-1.072 1.158.547 1.524 1.683.971 2.862l-4.227 8.987 6.743 3.17 4.45-9.454c.619-1.308 1.827-1.776 3.063-1.193 1.237.582 1.625 1.797 1.014 3.105l-5.212 11.072c-1.05 2.229-2.61 2.826-4.745 1.819l-18.772-8.836-.014.015ZM158.065 190.133c-1.021 1.423-2.509 1.603-4.033.51l-16.895-12.179c-2.344-1.689-2.667-3.479-.971-5.823l4.156-5.766c3.48-4.824 8.275-5.91 12.538-2.833 2.854 2.064 4.077 5.17 3.322 8.448l8.354 1.05c.625.072 1.294.33 1.768.675 1.208.87 1.388 2.43.468 3.703-.849 1.172-1.791 1.445-3.782 1.136l-8.936-1.395-2.955 4.098 6.147 4.429c1.517 1.093 1.826 2.545.812 3.954l.007-.007Zm-7.39-14.818c1.819-2.53 1.617-4.888-.698-6.549-2.293-1.654-4.659-1.129-6.434 1.337l-2.941 4.076 7.168 5.17 2.905-4.034ZM164.658 167.852c.669-.625 1.481-.863 2.919-.762 2.387.245 4.537-.496 6.305-2.157 2.373-2.228 2.833-4.45 1.28-6.096-1.287-1.366-3.027-1.316-5.716.23l-3.724 2.106c-4.242 2.481-7.721 2.258-10.482-.683-3.501-3.724-2.84-8.907 1.675-13.149 2.416-2.272 5.241-3.616 7.736-3.638 1.704-.036 3.084.453 3.961 1.388.877.934.827 2.185-.136 3.091-.626.59-1.409.82-2.445.676-2.178-.496-4.249.029-6.003 1.675-2.106 1.984-2.509 4.256-1.028 5.831 1.186 1.258 2.941 1.286 5.234-.058l3.724-2.135c4.508-2.646 7.944-2.495 10.748.489 3.624 3.86 2.854 9.195-1.977 13.739-2.624 2.473-5.636 3.932-8.16 3.925-1.747.022-3.098-.41-3.896-1.258-.949-1.007-.921-2.38-.015-3.228v.014ZM182.38 159.253c-.294-.467-.51-1.078-.769-2.142l-4.759-20.72c-.633-2.653-.158-4.228 1.804-5.464 1.949-1.222 3.545-.978 5.673.762l16.622 13.264c.704.59 1.186 1.079 1.488 1.568.783 1.243.402 2.588-.928 3.422-1.258.791-2.394.589-3.868-.719l-3.839-3.163-8.253 5.19 1.208 4.824c.539 1.927.251 2.998-.992 3.775-1.273.805-2.646.582-3.379-.59l-.008-.007Zm8.232-16.025-8.965-7.635-.223.144 2.984 11.402 6.204-3.904v-.007ZM218.385 142.719l-10.648 4.306c-2.286.92-3.832.295-4.716-1.891l-8.059-19.936c-.705-1.74-.187-3.127 1.438-3.789 1.603-.647 2.962-.007 3.659 1.726l7.621 18.858 8.951-3.617c1.337-.539 2.645-.036 3.163 1.251.525 1.301-.065 2.552-1.409 3.092ZM226.027 137.915l-4.76-21.741c-.402-1.826.338-3.12 2.049-3.494 1.69-.367 2.919.489 3.322 2.315l4.759 21.741c.403 1.826-.338 3.12-2.027 3.487-1.711.373-2.941-.482-3.343-2.315v.007ZM237.343 138.461c-1.625.115-2.653-.92-2.782-2.724l-1.517-21.921c-.151-2.171.726-3.379 2.595-3.508 1.323-.094 2.143.604 3.401 2.214l11.769 15.472.223-.015-1.093-15.744c-.129-1.827.733-2.97 2.358-3.085 1.625-.115 2.675.921 2.804 2.725l1.524 22.043c.144 2.07-.712 3.257-2.459 3.379-1.322.093-2.128-.403-3.45-2.128l-11.885-15.652-.222.015 1.1 15.845c.129 1.826-.734 2.969-2.359 3.084h-.007ZM261.263 129.259c.905.122 1.603.604 2.43 1.783 1.315 2.006 3.249 3.207 5.65 3.53 3.229.432 5.242-.611 5.543-2.854.252-1.855-.891-3.178-3.781-4.285l-3.983-1.56c-4.594-1.725-6.621-4.565-6.082-8.563.683-5.068 5.119-7.822 11.251-6.995 3.293.439 6.111 1.783 7.7 3.703 1.1 1.301 1.589 2.681 1.423 3.954-.172 1.272-1.171 2.02-2.487 1.84-.848-.115-1.524-.575-2.063-1.466-.985-1.999-2.704-3.279-5.083-3.602-2.869-.388-4.889.74-5.177 2.883-.23 1.718.856 3.091 3.343 4.026l4.005 1.546c4.889 1.826 6.945 4.586 6.398 8.648-.704 5.249-5.327 8.017-11.905 7.132-3.573-.481-6.607-1.891-8.196-3.853-1.114-1.345-1.632-2.668-1.481-3.818.187-1.373 1.265-2.214 2.495-2.049ZM290.408 144.228c-6.628-2.315-9.274-7.535-7.239-13.337l5.097-14.587c.604-1.733 1.948-2.423 3.566-1.862 1.618.568 2.25 1.948 1.646 3.681l-4.924 14.084c-1.237 3.537.057 6.384 3.415 7.556 3.321 1.165 6.139-.288 7.362-3.789l4.924-14.084c.604-1.733 1.949-2.423 3.566-1.862 1.618.561 2.25 1.948 1.647 3.681l-5.112 14.623c-2.028 5.802-7.542 8.124-13.94 5.888l-.008.008ZM305.038 150.417c-1.502-.906-1.804-2.372-.841-3.976l10.748-17.836c1.489-2.474 3.243-2.941 5.723-1.453l6.082 3.667c5.091 3.07 6.564 7.757 3.861 12.258-1.819 3.019-4.817 4.486-8.145 4.004l-.36 8.412a3.989 3.989 0 0 1-.525 1.819c-.769 1.272-2.308 1.582-3.652.769-1.237-.748-1.589-1.668-1.445-3.674l.654-9.015-4.328-2.603-3.911 6.485c-.963 1.603-2.387 2.035-3.868 1.136l.007.007Zm14.156-8.584c2.668 1.611 5.004 1.208 6.471-1.236 1.459-2.423.74-4.738-1.862-6.306l-4.307-2.595-4.558 7.57 4.256 2.567ZM321.596 157.607c.366-.41.898-.777 1.855-1.309l18.692-10.129c2.387-1.323 4.033-1.287 5.751.28 1.704 1.546 1.891 3.156.784 5.672l-8.332 19.563c-.381.841-.727 1.43-1.108 1.855-.984 1.085-2.386 1.078-3.544.021-1.1-.999-1.208-2.149-.345-3.918l2.02-4.551-7.211-6.564-4.321 2.452c-1.711 1.028-2.818 1.042-3.903.05-1.115-1.014-1.266-2.394-.331-3.415l-.007-.007Zm17.635 3.638 4.961-10.684-.194-.179-10.188 5.924 5.421 4.932v.007ZM339.656 177.493c-.956-1.323-.626-2.739.848-3.803l17.801-12.862c1.769-1.272 3.25-1.164 4.35.352.776 1.072.618 2.143-.087 4.055l-6.923 18.161.129.179 12.79-9.238c1.488-1.071 2.905-.949 3.861.374.956 1.323.633 2.753-.834 3.817l-17.902 12.934c-1.682 1.215-3.141 1.115-4.162-.309-.777-1.071-.784-2.02-.015-4.055l7.01-18.347-.129-.18-12.869 9.303c-1.489 1.071-2.905.949-3.861-.374l-.007-.007ZM366.508 188.019c7.21-3.185 13.214-1.179 16.176 5.543 1.423 3.221 1.653 6.413.661 9.008-.676 1.79-1.869 3.228-3.005 3.731-1.265.561-2.466.065-3.005-1.164-.396-.892-.324-1.683.316-2.919 1.495-2.351 1.783-4.328.841-6.471-1.653-3.745-5.262-4.666-9.957-2.595l-2.89 1.272c-4.882 2.157-6.629 5.4-4.961 9.181.956 2.164 2.667 3.43 5.349 3.847 1.344.366 1.92.776 2.301 1.632.568 1.287.115 2.487-1.129 3.034-1.345.589-3.401.366-5.306-.576-2.336-1.107-4.299-3.242-5.658-6.312-2.998-6.801-.438-12.495 7.01-15.781l3.264-1.438-.007.008ZM384.956 210.773c2.279-.525 3.703.373 4.256 2.775l2.768 11.977c.309 1.352-.366 2.466-1.675 2.768-1.308.302-2.394-.41-2.703-1.754l-2.365-10.231-6.945 1.604 2.243 9.677c.295 1.272-.324 2.307-1.575 2.602-1.251.288-2.243-.381-2.53-1.646l-2.236-9.677-7.262 1.682 2.351 10.173c.324 1.409-.338 2.524-1.66 2.833-1.33.309-2.394-.41-2.718-1.819l-2.761-11.92c-.553-2.401.302-3.832 2.603-4.364l20.209-4.673v-.007ZM368.945 241.206l21.014.043c2.891 0 4.012 1.107 4.005 3.976l-.014 7.024c-.015 5.78-3.646 9.497-9.138 9.49-5.745-.014-9.138-3.789-9.124-9.749l.015-5.27-6.758-.014c-1.877 0-2.969-1.028-2.969-2.775 0-1.733 1.107-2.725 2.976-2.725h-.007Zm11.021 9.044c-.007 4.278 1.23 6.011 4.774 6.018 3.055 0 4.81-1.697 4.817-4.716v-4.803l-9.576-.021v3.522h-.015ZM363.143 277.239l1.984-11.309c.424-2.43 1.776-3.408 4.105-3.005l21.18 3.717c1.848.323 2.754 1.495 2.452 3.221-.302 1.703-1.56 2.516-3.401 2.192l-20.037-3.515-1.668 9.504c-.251 1.424-1.366 2.265-2.732 2.02-1.387-.244-2.128-1.409-1.883-2.832v.007ZM377.982 283.638c7.398 2.703 10.339 8.303 7.822 15.213-1.207 3.307-3.256 5.765-5.765 6.952-1.733.819-3.588 1.028-4.753.604-1.301-.475-1.819-1.661-1.358-2.927.337-.92.934-1.437 2.25-1.883 2.71-.662 4.285-1.884 5.09-4.084 1.402-3.846-.561-7.009-5.385-8.771l-2.962-1.078c-5.011-1.826-8.519-.705-9.936 3.178-.812 2.214-.453 4.32 1.187 6.477.711 1.194.848 1.891.524 2.775-.481 1.323-1.639 1.877-2.919 1.409-1.38-.503-2.703-2.092-3.429-4.09-.913-2.416-.855-5.321.302-8.477 2.545-6.981 8.34-9.31 15.989-6.513l3.351 1.222-.008-.007ZM180.454 370.342c-1.452-.741-1.797-2.157-.978-3.767l10.008-19.556c.992-1.941 2.365-2.516 4.033-1.668 1.179.604 1.524 1.625 1.769 3.653l2.092 19.325.201.1 7.189-14.048c.834-1.632 2.157-2.164 3.609-1.423 1.453.74 1.819 2.164.993 3.781l-10.066 19.663c-.949 1.848-2.293 2.416-3.846 1.618-1.179-.604-1.617-1.445-1.862-3.602l-2.099-19.533-.202-.101-7.239 14.134c-.834 1.632-2.157 2.164-3.609 1.424h.007ZM205.545 378.695l7.247-21.051c.611-1.768 1.912-2.487 3.566-1.919 1.639.561 2.243 1.934 1.632 3.71l-7.247 21.05c-.611 1.769-1.913 2.488-3.552 1.92-1.653-.568-2.264-1.941-1.653-3.71h.007ZM218.393 369.558c1.502-7.549 6.693-11.309 13.825-9.893 3.178.633 5.672 2.064 7.276 4.127 1.373 1.661 2.106 3.595 1.819 5.033-.266 1.337-1.366 2.056-2.66 1.797-.777-.151-1.259-.561-1.69-1.416-1.179-2.437-2.574-4.292-5.306-4.832-4.112-.819-6.887 1.453-7.894 6.485l-.733 3.696c-.992 4.975.769 8.231 4.867 9.044 3.279.654 5.86-.87 6.442-3.782l.338-1.718-3.638-.726c-1.481-.295-2.193-1.201-1.934-2.502.259-1.301 1.237-1.848 2.739-1.553l5.45 1.086c2.293.46 3.113 1.675 2.667 3.918l-.439 2.2c-1.135 5.708-6.362 8.821-12.732 7.556-7.29-1.452-10.712-6.902-9.181-14.573l.784-3.933v-.014ZM244.871 365.833c.036-2.343 1.258-3.501 3.724-3.465l12.301.201c1.387.022 2.308.957 2.286 2.301-.022 1.344-.971 2.221-2.358 2.2l-10.504-.173-.115 7.125 9.936.165c1.301.022 2.164.87 2.142 2.15-.021 1.287-.913 2.085-2.214 2.063l-9.936-.158-.122 7.456 10.446.172c1.445.022 2.365.935 2.344 2.301-.022 1.366-.971 2.221-2.416 2.2l-12.236-.202c-2.466-.043-3.645-1.222-3.609-3.58l.338-20.749-.007-.007ZM272.054 389.695c-1.725.28-2.912-.64-3.214-2.487l-3.35-20.562c-.467-2.854.575-4.343 3.43-4.81l7.016-1.143c5.867-.956 10.03 1.668 10.878 6.852.568 3.479-.769 6.542-3.616 8.325l5.169 6.65c.388.496.683 1.15.776 1.733.238 1.466-.733 2.696-2.286 2.947-1.423.23-2.286-.244-3.48-1.869l-5.334-7.304-4.982.812 1.215 7.477c.302 1.848-.504 3.091-2.215 3.372l-.007.007Zm5.241-15.709c3.077-.503 4.594-2.315 4.134-5.133-.453-2.797-2.502-4.091-5.5-3.602l-4.968.805 1.424 8.721 4.903-.798.007.007ZM294.557 382.117l-6.435-21.309c-.539-1.798.094-3.135 1.776-3.645 1.654-.503 2.948.259 3.494 2.049l6.434 21.309c.54 1.797-.093 3.135-1.754 3.638-1.675.503-2.969-.252-3.508-2.042h-.007ZM304.478 380.183c-.23-.503-.359-1.136-.467-2.221l-1.905-21.18c-.274-2.718.417-4.213 2.53-5.169 2.1-.949 3.645-.489 5.522 1.524l14.666 15.4c.618.682 1.028 1.229 1.265 1.754.604 1.337.044 2.617-1.38 3.264-1.351.611-2.451.266-3.738-1.237l-3.379-3.659-8.886 4.026.539 4.939c.273 1.977-.158 3.005-1.496 3.609-1.373.625-2.696.216-3.271-1.042v-.008Zm10.324-14.76-7.851-8.785-.244.108 1.409 11.704 6.679-3.027h.007ZM349.591 336.523a9.139 9.139 0 1 0-.002-18.278 9.139 9.139 0 0 0 .002 18.278ZM157.152 336.523a9.138 9.138 0 1 0 0-18.277 9.138 9.138 0 0 0 0 18.277Z"/></g><defs><clipPath id="a"><path fill="#fff" d="M77.494 99.042h345.292v302.055H77.494z"/></clipPath></defs></svg>