<svg width="500" height="500" viewBox="0 0 500 500" fill="none" xmlns="http://www.w3.org/2000/svg">
<rect width="500" height="500" fill="white"/>
<g clip-path="url(#clip0_11_8640)">
<path d="M359.642 250.069C359.642 308.699 312.12 356.228 253.491 356.228C239.579 356.228 226.293 353.554 214.122 348.686C213.546 347.989 212.676 347.615 212.454 346.494C211.756 346.681 210.139 346.127 209.65 345.825C208.614 345.178 208.492 344.682 207.687 343.632C207.45 343.323 206.745 343.316 206.4 342.834C206.414 342.856 206.292 341.626 206.285 341.547C206.22 340.922 206.12 340.584 206.156 340.275C206.163 340.188 206.192 340.102 206.228 340.009C206.321 339.786 206.508 339.534 206.867 339.168C207.931 338.053 208.255 337.212 208.097 336.515H208.09C207.946 335.875 207.399 335.364 206.645 334.904C205.717 334.329 204.488 333.826 203.323 333.229C202.762 332.934 202.216 332.618 201.734 332.266C201.497 332.1 201.274 331.921 201.073 331.727C200.447 331.13 199.973 330.361 199.52 329.57C199.06 328.757 198.628 327.931 198.082 327.255C197.607 326.672 197.054 326.198 196.321 325.953C195.63 325.723 194.753 325.659 194.437 325.004C194.264 324.638 194.343 324.206 194.459 323.804C194.473 323.746 194.487 323.682 194.509 323.624C194.739 322.833 194.89 321.978 194.955 321.079C194.983 320.698 194.998 320.31 194.998 319.922C195.005 317.312 194.379 314.53 193.186 312.33C193.057 312.071 192.906 311.819 192.755 311.575H192.747C191.899 310.252 190.828 309.209 189.541 308.649C188.592 308.232 187.528 308.081 186.363 308.268C186.083 308.311 185.802 308.375 185.508 308.462C184.818 308.663 184.091 308.979 183.337 309.432C182.97 309.648 182.603 309.892 182.222 310.173C181.748 310.525 181.295 310.935 180.734 311.129C180.734 311.129 180.729 311.131 180.72 311.136C180.267 311.294 179.785 311.287 179.31 311.186C178.922 311.107 178.541 310.956 178.196 310.769C177.211 310.245 176.42 309.468 175.73 308.591C175.363 308.138 175.026 307.664 174.709 307.175C174.494 306.851 174.285 306.521 174.084 306.19C173.782 305.708 173.487 305.226 173.185 304.745C171.934 302.739 170.683 300.733 169.439 298.727H169.432C168.534 297.275 167.268 295.643 165.572 295.83C165.255 295.866 164.946 295.967 164.644 296.067C164.162 296.218 163.688 296.362 163.206 296.247C162.487 296.074 162.042 295.377 161.668 294.737C161.251 294.018 160.812 293.299 160.366 292.573C157.807 288.446 154.845 284.269 152.552 280.006C151.718 278.46 150.97 276.9 150.359 275.333C150.359 275.311 150.344 275.297 150.337 275.275C147.454 267.813 147.332 257.963 147.332 250.069C147.332 249.343 147.339 248.617 147.354 247.898C148.295 204.51 177.355 164.228 218.471 149.856C218.485 150 218.514 150.144 218.557 150.281C218.809 151.258 219.528 152.078 220.427 152.567C221.419 153.128 222.634 153.279 223.683 152.826C223.705 152.818 223.727 152.804 223.748 152.797C223.734 152.818 223.719 152.833 223.705 152.854C222.885 154.062 222.059 155.263 221.232 156.471C221.045 156.744 220.858 157.017 220.671 157.29C220.657 157.312 220.635 157.341 220.621 157.362C220.858 157.592 221.124 157.801 221.404 157.98C222.08 158.426 222.857 158.721 223.662 158.843C224.697 159.023 225.776 158.922 226.746 158.52C226.804 158.498 226.854 158.477 226.904 158.455C226.911 158.512 226.926 158.57 226.933 158.628C227.012 159.102 227.091 159.584 227.177 160.058C227.242 160.439 227.307 160.827 227.372 161.209C227.458 161.705 227.537 162.193 227.623 162.69C227.4 162.884 227.177 163.049 226.955 163.186C226.674 163.365 226.394 163.502 226.113 163.603C225.596 163.797 225.064 163.869 224.517 163.869C223.813 163.861 223.087 163.718 222.346 163.502C222.21 163.466 222.073 163.423 221.929 163.373C221.757 163.322 221.577 163.257 221.397 163.193C220.851 163.013 220.297 162.797 219.736 162.596C219.413 162.481 219.089 162.366 218.759 162.258C218.514 162.172 218.263 162.093 218.004 162.021C215.437 161.273 212.662 161.093 209.614 163.617C208.643 164.415 207.737 165.285 206.889 166.212C205.271 167.988 203.891 169.972 202.784 172.1C201.454 174.645 200.512 177.399 200.045 180.246C200.009 180.411 199.987 180.584 199.958 180.756C200.023 180.677 200.088 180.598 200.16 180.519C200.677 179.887 201.224 179.283 201.799 178.7L202.079 178.42C202.396 178.111 202.719 177.809 203.05 177.507C203.639 176.982 204.258 176.479 204.89 176.004C205.207 175.76 205.53 175.53 205.861 175.314C206.105 175.134 206.35 174.969 206.601 174.811C206.911 175.379 207.22 175.94 207.536 176.508C207.946 177.255 208.356 178.01 208.773 178.758C210.354 178.391 210.901 176.673 210.922 174.947C210.922 174.746 210.922 174.545 210.908 174.351C210.886 173.977 210.843 173.617 210.786 173.272C210.714 172.848 210.642 172.41 210.592 171.957C210.383 170.145 210.476 168.233 211.943 167.319C212.116 167.701 212.288 168.082 212.468 168.47C212.72 169.023 212.978 169.577 213.23 170.131C213.244 170.159 213.259 170.195 213.273 170.224C213.367 170.181 213.453 170.138 213.546 170.095C214.718 169.541 215.94 169.117 217.206 168.829C218.011 168.642 218.831 168.506 219.657 168.427C220.542 168.34 221.426 168.312 222.317 168.348C224.266 168.427 226.207 168.808 228.04 169.491C226.372 169.649 224.97 170.468 223.683 171.547C222.533 172.517 221.476 173.711 220.441 174.818C220.297 174.962 220.161 175.106 220.024 175.249C219.564 175.731 219.104 176.177 218.651 176.601C218.284 176.946 217.925 177.262 217.565 177.572H217.558C215.516 179.333 213.568 180.627 211.756 181.95C209.269 183.776 207.04 185.667 205.192 188.909C204.667 189.837 204.164 190.879 203.704 192.058C203.28 193.137 202.734 194.143 202.079 195.063C201.303 196.171 200.375 197.17 199.333 198.04C199.57 198.392 199.779 198.787 199.944 199.212H199.951C200.368 200.233 200.534 201.404 200.153 202.418C199.879 203.159 199.441 203.798 198.923 204.388C198.391 205.006 197.773 205.56 197.169 206.106C196.975 206.279 196.788 206.451 196.608 206.624C196.536 206.689 196.472 206.753 196.4 206.818C194.933 208.206 193.574 209.866 193.035 211.757C192.898 212.232 192.819 212.728 192.798 213.231C192.762 214.194 193.064 215.186 193.589 216.013C194.415 217.322 195.803 218.235 197.277 218.033C197.392 218.019 197.5 217.998 197.615 217.969C199.362 217.53 200.246 215.956 200.814 214.144C201.152 213.073 201.375 211.915 201.612 210.873C202.194 208.285 203.337 205.862 204.905 203.727C205.602 202.756 206.386 201.857 207.234 201.023C207.745 200.527 208.284 200.053 208.844 199.607C211.124 197.781 213.776 196.415 216.595 195.689C217.515 195.444 218.457 195.279 219.413 195.178C219.521 194.697 219.434 195.056 219.55 194.574C218.565 193.942 217.572 193.288 216.587 192.648C220.844 191.217 225.689 191.742 229.607 193.927C230.535 194.445 231.405 195.049 232.203 195.746C232.124 194.711 232.037 193.683 231.951 192.648C231.901 192.015 231.851 191.375 231.8 190.743C231.743 190.131 231.714 189.549 231.621 188.888C231.851 188.73 231.736 188.809 231.966 188.65C233.59 189.65 235.136 190.771 236.574 192.008C237.228 192.569 237.854 193.144 238.465 193.748C239.558 193.28 240.614 192.727 241.643 192.123C243.21 191.203 244.734 190.182 246.251 189.19C246.646 188.938 247.049 188.686 247.444 188.435C247.797 188.212 248.185 187.989 248.58 187.816C249.278 187.486 250.011 187.313 250.694 187.536C250.759 187.55 250.823 187.572 250.888 187.601C251.427 187.838 251.665 188.471 251.636 189.039C251.621 189.412 251.492 189.758 251.262 189.945C251.104 190.088 250.895 190.153 250.636 190.11C250.823 190.175 250.974 190.239 251.197 190.304C251.851 190.498 252.484 190.75 253.124 190.994C253.332 191.08 253.563 191.152 253.778 191.239C254.008 191.318 254.246 191.397 254.476 191.483C254.274 191.857 254.044 192.216 253.793 192.561C253.757 192.626 253.714 192.684 253.663 192.741C253.318 193.201 252.937 193.625 252.52 194.021C252.024 194.503 251.478 194.927 250.902 195.301C249.838 195.998 248.659 196.516 247.43 196.81C247.042 196.911 246.646 196.983 246.244 197.033C246.078 197.055 245.92 197.076 245.755 197.084C245.187 197.127 244.612 197.127 244.044 197.076C243.965 197.328 243.886 197.58 243.828 197.831C243.591 198.687 243.425 199.564 243.346 200.448C243.303 200.822 243.275 201.203 243.267 201.577C243.26 201.994 243.26 202.404 243.282 202.821C242.8 202.619 242.304 202.468 241.793 202.361C241.247 202.238 240.686 202.174 240.126 202.159H240.118C239.658 202.152 239.191 202.181 238.731 202.238C237.839 202.353 236.969 202.605 236.157 202.986C236.488 203.655 236.646 204.395 236.646 205.136C236.646 205.97 236.452 206.804 236.078 207.544C235.74 208.213 235.266 208.809 234.662 209.262C234.151 209.651 233.562 209.917 232.943 210.068C231.649 210.391 230.219 210.211 229.061 209.55C228.759 209.385 228.472 209.176 228.213 208.939C227.278 209.37 226.264 209.6 225.243 209.636C223.748 209.708 222.224 209.377 220.887 208.702C220.772 208.644 220.657 208.587 220.549 208.529C220.383 208.436 220.218 208.335 220.06 208.227C219.219 207.688 218.471 206.998 217.889 206.171C217.357 206.387 216.825 206.617 216.3 206.861C214.848 207.53 213.446 208.292 212.087 209.133C210.757 209.953 209.47 210.858 208.241 211.836C205.796 213.785 203.567 216.013 201.605 218.458C199.599 220.945 197.873 223.663 196.486 226.539C195.041 229.501 193.948 232.635 193.279 235.856H193.272C193.229 236.05 193.193 236.237 193.157 236.424C193.035 237.006 192.934 237.589 192.855 238.178C192.755 238.811 192.676 239.451 192.625 240.091C192.596 240.263 192.582 240.443 192.568 240.623C192.525 241.119 192.496 241.615 192.474 242.111C192.424 243.132 192.41 244.16 192.431 245.181C192.445 246.525 192.525 247.862 192.64 249.199C192.834 251.479 193.143 253.743 193.51 256.008C193.747 257.482 194.006 258.956 194.272 260.422C194.351 260.897 194.437 261.364 194.523 261.838C194.739 263.018 194.998 264.268 195.487 265.354C195.918 266.317 196.515 267.166 197.421 267.712C197.557 267.798 197.701 267.87 197.852 267.935C198.377 268.187 198.952 268.345 199.527 268.496C200.217 268.676 200.9 268.848 201.526 269.164C203.266 270.056 204.258 271.904 205.652 273.262C207.126 274.7 209.003 275.498 211.001 275.764C212.993 276.038 215.106 275.786 217.084 275.103C218.442 274.643 219.736 273.974 220.88 273.147C221.577 272.644 222.224 272.098 222.842 271.501C223.561 270.825 224.23 270.092 224.855 269.315C224.87 269.301 224.891 269.279 224.898 269.258C225.394 268.647 225.869 268.014 226.315 267.36C226.653 266.864 226.983 266.346 227.307 265.829C228.04 264.635 228.723 263.399 229.385 262.155C229.78 261.407 230.168 260.659 230.549 259.912C230.887 260.106 231.232 260.307 231.577 260.508C231.599 260.523 231.62 260.537 231.649 260.552C233.418 261.572 235.237 262.622 236.898 263.744C237.516 264.161 238.113 264.585 238.673 265.023C238.903 264.333 239.248 263.686 239.68 263.111C239.773 262.982 239.874 262.859 239.982 262.744C240.686 261.939 241.585 261.314 242.62 260.99C243.109 260.832 243.62 260.746 244.159 260.731C246.697 260.674 249.17 262.478 249.889 264.916C250.004 265.311 250.083 265.721 250.14 266.138C250.306 267.252 250.363 268.395 250.867 269.395C251.305 270.272 251.974 270.89 252.779 271.343C253.318 271.652 253.915 271.882 254.555 272.069C256.136 272.529 257.926 272.73 259.523 273.111C259.602 273.133 259.681 273.147 259.76 273.169C261.104 273.507 262.37 274.089 263.513 274.858C263.549 274.88 263.577 274.902 263.606 274.923C264.217 275.333 264.785 275.8 265.324 276.318C266.511 277.447 267.496 278.805 268.222 280.279C268.61 281.07 268.919 281.89 269.149 282.738C269.214 282.982 269.271 283.227 269.322 283.479C269.602 284.816 269.667 286.203 269.48 287.576C269.264 289.093 268.79 290.625 269.113 292.142C269.128 292.163 269.135 292.178 269.142 292.199C269.66 292.911 270.177 293.601 270.709 294.27C279.516 305.435 290.099 310.69 296.915 313.084C299.869 314.12 302.939 312.754 304.607 310.101C304.658 310.022 304.708 309.957 304.765 309.892C304.773 309.892 304.773 309.871 304.78 309.864C305.132 308.907 305.599 308.002 306.167 307.153C306.361 306.858 306.57 306.578 306.793 306.298C307.246 305.73 307.749 305.198 308.274 304.694C308.971 304.019 309.712 303.372 310.438 302.717C312.508 299.604 313.882 296.721 314.759 294.112C315.794 291.049 316.146 288.353 316.139 286.081C316.434 285.657 316.693 285.211 316.901 284.737C316.966 284.593 317.023 284.449 317.081 284.305C317.634 282.81 317.469 280.998 316.729 279.632C316.261 278.769 315.564 278.086 314.672 277.763C314.457 277.684 314.227 277.626 313.989 277.59C313.026 277.447 312.753 275.7 312.688 275.599C312.178 274.772 313.846 271.659 314.485 270.466C314.845 269.804 315.154 269.121 315.413 268.417C315.672 267.705 315.887 266.972 316.038 266.231C316.197 265.44 316.297 264.642 316.319 263.844C316.355 262.888 316.29 261.932 316.11 260.99C316.11 260.983 316.103 260.983 316.11 260.976C315.931 260.106 315.665 259.25 315.283 258.438C315.226 258.301 315.168 258.179 315.111 258.071C314.974 257.798 314.831 257.532 314.665 257.266C314.234 256.576 313.759 255.958 313.249 255.404C312.976 255.116 312.695 254.843 312.401 254.592C312.365 254.556 312.329 254.52 312.285 254.498C311.531 253.851 310.711 253.319 309.841 252.888C304.55 248.286 303.443 242.219 303.572 237.524C303.673 233.361 304.758 230.284 304.758 230.284C304.701 229.989 304.6 229.709 304.507 229.421C304.435 229.206 304.37 228.983 304.327 228.76C304.233 228.25 304.277 227.732 304.312 227.222C304.334 226.999 304.348 226.769 304.37 226.546C304.442 225.661 304.507 224.77 304.578 223.886C304.672 222.735 304.765 221.585 304.844 220.428C304.888 219.953 304.931 219.479 304.974 219.004C305.01 218.479 305.075 217.962 305.233 217.48C305.348 217.128 305.52 216.79 305.693 216.459C305.7 216.459 305.7 216.452 305.7 216.445C305.873 216.107 306.052 215.769 306.182 215.417C306.577 214.338 306.52 213.159 306.39 212.009C306.369 211.815 306.34 211.628 306.318 211.441C306.139 209.996 306.002 208.479 305.851 206.969C305.643 204.942 305.405 202.921 304.995 201.045C304.895 200.578 304.78 200.11 304.65 199.665C304.514 199.701 304.384 199.736 304.269 199.772C303.407 200.053 303.241 200.391 303.277 200.829L292.256 212.534L261.579 200.578C260.09 199.284 259.07 201.167 257.66 201.354C256.388 200.29 257.855 198.766 259.328 197.235C260.464 197.335 261.758 198.486 262.485 198.881C263.326 199.341 265.087 199.492 265.389 200.743C266.345 200.211 267.409 200.434 268.15 201.174C270.573 200.024 273.456 200.844 276.015 200.98H276.029C276.245 200.995 276.569 200.995 276.971 200.995C279.265 200.966 282.076 200.534 284.031 201.498C284.046 201.505 284.067 201.512 284.082 201.527C285.433 202.224 286.08 203.532 286.821 204.74C286.857 204.805 286.893 204.863 286.936 204.927C287.31 205.524 287.727 206.092 288.273 206.523C288.791 206.94 289.43 207.235 290.279 207.336C291.235 207.451 292.17 207.314 293.068 207.005C294.521 206.502 295.858 205.553 296.958 204.467C297.483 203.949 297.979 203.396 298.424 202.814C298.913 202.195 299.352 201.548 299.747 200.865C300.366 199.808 300.869 198.68 301.25 197.515C301.552 196.623 301.775 195.703 301.926 194.776C302.055 193.956 302.12 193.137 302.127 192.317C302.134 191.986 302.127 191.663 302.113 191.332C302.005 191.267 301.904 191.21 301.796 191.138C301.128 190.721 300.516 190.211 299.963 189.643C299.524 189.197 299.136 188.701 298.791 188.183C298.539 187.802 298.309 187.414 298.115 187.004C297.698 186.156 297.403 185.243 297.245 184.308C297.238 184.301 297.238 184.294 297.238 184.286C297.224 184.286 297.217 184.294 297.202 184.294C297.08 184.315 296.965 184.344 296.843 184.366C296.454 184.445 296.059 184.524 295.664 184.603C295.232 184.696 294.801 184.783 294.362 184.869C294.355 184.869 294.348 184.876 294.348 184.876C293.823 184.977 293.291 185.084 292.766 185.192C292.745 185.192 292.716 185.192 292.694 185.207C292.666 185.142 292.63 185.077 292.594 185.02C292.191 184.272 291.652 183.611 291.012 183.057C290.315 182.446 289.502 181.964 288.625 181.67C288.589 181.655 288.546 181.641 288.51 181.626C288.517 181.648 288.525 181.67 288.525 181.691C288.726 182.532 288.561 183.366 288.151 184.092C287.619 185.056 286.662 185.847 285.577 186.292C285.038 186.508 284.477 186.645 283.909 186.666C283.729 186.673 283.549 186.673 283.37 186.666C282.622 186.645 281.889 186.501 281.17 186.271C279.739 185.818 278.373 185.041 277.065 184.243C277.057 184.236 277.05 184.243 277.05 184.243C276.928 184.164 276.799 184.092 276.676 184.013C276.188 183.711 275.684 183.294 275.26 182.827C275.131 182.683 275.001 182.539 274.893 182.388H274.886C274.031 181.253 273.671 179.944 274.771 179.218C274.865 179.153 274.965 179.103 275.066 179.067C275.756 178.787 276.597 179.002 277.288 179.333C277.755 179.563 278.222 179.843 278.682 180.145C279.114 180.419 279.545 180.699 279.976 180.958C280.58 181.324 281.191 181.648 281.795 181.842C282.241 181.986 282.694 182.058 283.147 182.015C283.456 181.993 283.765 181.914 284.082 181.777C284.491 181.59 284.851 181.303 285.225 181.044C285.512 180.843 285.814 180.663 286.145 180.555C286.734 180.361 287.353 180.44 287.978 180.526C288.287 180.577 288.596 180.627 288.898 180.649C290.775 180.792 292.472 180.002 293.989 178.83C294.909 178.125 295.771 177.277 296.569 176.428H296.577C296.785 176.198 296.986 175.976 297.188 175.753C297.195 175.753 297.202 175.745 297.209 175.745C297.669 175.889 298.115 176.019 298.583 176.126C299.532 176.357 300.495 176.543 301.458 176.673C302.68 176.845 303.917 176.932 305.146 176.939C306.484 176.953 307.821 176.874 309.151 176.702C309.877 176.608 310.603 176.479 311.337 176.421C311.804 176.392 312.271 176.393 312.738 176.443C313.666 176.543 314.55 176.867 315.391 177.291C315.413 177.298 315.427 177.306 315.442 177.313C315.736 177.464 316.024 177.622 316.304 177.787C316.621 177.974 316.937 178.168 317.239 178.362C318.497 179.168 319.727 180.009 320.92 180.893C321.474 181.296 322.013 181.713 322.552 182.137C322.969 182.46 323.379 182.791 323.781 183.136C324.766 183.941 325.73 184.783 326.671 185.652C327.009 185.969 327.354 186.292 327.7 186.616C328.462 187.328 329.245 188.032 330.051 188.679C330.985 189.427 331.963 190.081 333.005 190.556C333.875 190.951 334.788 191.217 335.759 191.296C337.003 191.404 338.268 191.188 339.497 191.375C339.648 191.397 339.806 191.433 339.95 191.469C341.259 191.778 342.388 192.518 343.337 193.489C344.415 194.589 345.278 195.976 345.925 197.371C346.327 198.241 346.723 199.104 347.111 199.974C354.085 215.431 359.211 230.608 359.628 247.805C359.628 247.891 359.628 247.977 359.628 248.064C359.642 248.725 359.649 249.394 359.649 250.069H359.642Z" fill="#FDFDFD"/>
<path d="M303.263 200.83L304.255 199.773C303.393 200.054 303.227 200.392 303.263 200.83Z" fill="#3E4095"/>
<path d="M403.238 230.399C393.597 156.284 330.23 99.042 253.491 99.042C176.751 99.042 113.376 156.284 103.735 230.399H77.4941V275.894H87.0992V287.217H107.071C123.621 352.662 182.898 401.097 253.491 401.097C324.083 401.097 383.353 352.662 399.91 287.217H413.181V275.894H422.786V230.399H403.238ZM253.491 356.228C239.579 356.228 226.293 353.554 214.121 348.687C213.546 347.989 212.676 347.615 212.453 346.494C211.756 346.681 210.138 346.127 209.65 345.825C208.614 345.178 208.492 344.682 207.687 343.632C207.45 343.323 206.745 343.316 206.4 342.834C206.414 342.856 206.292 341.627 206.285 341.547C206.22 340.922 206.12 340.584 206.156 340.275C206.163 340.189 206.191 340.102 206.227 340.009C206.321 339.786 206.508 339.534 206.867 339.168C207.931 338.053 208.255 337.212 208.097 336.515H208.089C207.946 335.875 207.399 335.365 206.644 334.904C205.717 334.329 204.488 333.826 203.323 333.229C202.762 332.935 202.216 332.618 201.734 332.266C201.497 332.101 201.274 331.921 201.073 331.727C200.447 331.13 199.973 330.361 199.52 329.57C199.06 328.758 198.628 327.931 198.082 327.255C197.607 326.673 197.054 326.198 196.32 325.954C195.63 325.724 194.753 325.659 194.437 325.005C194.264 324.638 194.343 324.207 194.458 323.804C194.473 323.747 194.487 323.682 194.509 323.624C194.739 322.833 194.89 321.978 194.954 321.079C194.983 320.698 194.998 320.31 194.998 319.922C195.005 317.312 194.379 314.53 193.186 312.33C193.056 312.071 192.906 311.819 192.755 311.575H192.747C191.899 310.252 190.828 309.21 189.541 308.649C188.592 308.232 187.528 308.081 186.363 308.268C186.083 308.311 185.802 308.376 185.508 308.462C184.817 308.663 184.091 308.98 183.336 309.432C182.97 309.648 182.603 309.893 182.222 310.173C181.748 310.525 181.295 310.935 180.734 311.129C180.734 311.129 180.729 311.132 180.719 311.136C180.267 311.295 179.785 311.287 179.31 311.187C178.922 311.108 178.541 310.957 178.196 310.77C177.211 310.245 176.42 309.468 175.73 308.591C175.363 308.138 175.025 307.664 174.709 307.175C174.493 306.851 174.285 306.521 174.084 306.19C173.782 305.708 173.487 305.227 173.185 304.745C171.934 302.739 170.683 300.733 169.439 298.727H169.432C168.533 297.275 167.268 295.643 165.571 295.83C165.255 295.866 164.946 295.967 164.644 296.067C164.162 296.218 163.688 296.362 163.206 296.247C162.487 296.075 162.041 295.377 161.668 294.737C161.251 294.018 160.812 293.299 160.366 292.573C157.807 288.447 154.845 284.27 152.551 280.006C151.717 278.461 150.97 276.9 150.359 275.333C150.359 275.312 150.344 275.297 150.337 275.276C147.454 267.813 147.332 257.964 147.332 250.07C147.332 249.343 147.339 248.617 147.353 247.898C148.295 204.51 177.355 164.228 218.471 149.857C218.485 150 218.514 150.144 218.557 150.281C218.809 151.259 219.528 152.078 220.426 152.567C221.419 153.128 222.634 153.279 223.683 152.826C223.705 152.819 223.726 152.804 223.748 152.797C223.734 152.819 223.719 152.833 223.705 152.855C222.885 154.062 222.058 155.263 221.232 156.471C221.045 156.744 220.858 157.017 220.671 157.29C220.657 157.312 220.635 157.341 220.621 157.362C220.858 157.592 221.124 157.801 221.404 157.981C222.08 158.426 222.857 158.721 223.662 158.843C224.697 159.023 225.775 158.922 226.746 158.52C226.803 158.498 226.854 158.477 226.904 158.455C226.911 158.513 226.926 158.57 226.933 158.628C227.012 159.102 227.091 159.584 227.177 160.058C227.242 160.439 227.307 160.828 227.371 161.209C227.458 161.705 227.537 162.194 227.623 162.69C227.4 162.884 227.177 163.049 226.954 163.186C226.674 163.366 226.394 163.502 226.113 163.603C225.596 163.797 225.064 163.869 224.517 163.869C223.813 163.862 223.087 163.718 222.346 163.502C222.209 163.466 222.073 163.423 221.929 163.373C221.757 163.322 221.577 163.258 221.397 163.193C220.851 163.013 220.297 162.798 219.736 162.596C219.413 162.481 219.089 162.366 218.759 162.258C218.514 162.172 218.262 162.093 218.004 162.021C215.437 161.273 212.662 161.094 209.614 163.617C208.643 164.415 207.737 165.285 206.889 166.213C205.271 167.988 203.891 169.973 202.784 172.101C201.454 174.646 200.512 177.399 200.045 180.246C200.009 180.412 199.987 180.584 199.958 180.757C200.023 180.678 200.088 180.598 200.16 180.519C200.677 179.887 201.224 179.283 201.799 178.7L202.079 178.42C202.395 178.111 202.719 177.809 203.05 177.507C203.639 176.982 204.258 176.479 204.89 176.004C205.207 175.76 205.53 175.53 205.861 175.314C206.105 175.135 206.35 174.969 206.601 174.811C206.91 175.379 207.22 175.94 207.536 176.508C207.946 177.255 208.356 178.01 208.772 178.758C210.354 178.391 210.901 176.673 210.922 174.948C210.922 174.746 210.922 174.545 210.908 174.351C210.886 173.977 210.843 173.618 210.786 173.272C210.714 172.848 210.642 172.41 210.591 171.957C210.383 170.145 210.476 168.233 211.943 167.32C212.116 167.701 212.288 168.082 212.468 168.47C212.719 169.024 212.978 169.577 213.23 170.131C213.244 170.159 213.259 170.195 213.273 170.224C213.367 170.181 213.453 170.138 213.546 170.095C214.718 169.541 215.94 169.117 217.206 168.829C218.011 168.643 218.83 168.506 219.657 168.427C220.542 168.341 221.426 168.312 222.317 168.348C224.266 168.427 226.207 168.808 228.04 169.491C226.372 169.649 224.97 170.469 223.683 171.547C222.533 172.518 221.476 173.711 220.441 174.818C220.297 174.962 220.16 175.106 220.024 175.25C219.564 175.731 219.104 176.177 218.651 176.601C218.284 176.946 217.925 177.263 217.565 177.572H217.558C215.516 179.333 213.568 180.627 211.756 181.95C209.269 183.776 207.04 185.667 205.192 188.909C204.667 189.837 204.164 190.879 203.704 192.058C203.28 193.137 202.733 194.143 202.079 195.064C201.303 196.171 200.375 197.17 199.333 198.04C199.57 198.392 199.779 198.788 199.944 199.212H199.951C200.368 200.233 200.533 201.405 200.152 202.418C199.879 203.159 199.441 203.799 198.923 204.388C198.391 205.006 197.773 205.56 197.169 206.106C196.975 206.279 196.788 206.452 196.608 206.624C196.536 206.689 196.471 206.754 196.4 206.818C194.933 208.206 193.574 209.867 193.035 211.757C192.898 212.232 192.819 212.728 192.798 213.231C192.762 214.195 193.064 215.187 193.588 216.013C194.415 217.322 195.803 218.235 197.277 218.034C197.392 218.019 197.5 217.998 197.615 217.969C199.362 217.53 200.246 215.956 200.814 214.144C201.152 213.073 201.375 211.916 201.612 210.873C202.194 208.285 203.337 205.862 204.905 203.727C205.602 202.756 206.386 201.858 207.234 201.024C207.744 200.528 208.284 200.053 208.844 199.607C211.123 197.781 213.776 196.415 216.595 195.689C217.515 195.445 218.457 195.279 219.413 195.179C219.521 194.697 219.434 195.056 219.549 194.575C218.564 193.942 217.572 193.288 216.587 192.648C220.843 191.217 225.689 191.742 229.607 193.928C230.535 194.445 231.405 195.049 232.203 195.747C232.124 194.711 232.037 193.683 231.951 192.648C231.901 192.015 231.85 191.375 231.8 190.743C231.743 190.132 231.714 189.549 231.62 188.888C231.85 188.73 231.735 188.809 231.965 188.651C233.59 189.65 235.136 190.771 236.574 192.008C237.228 192.569 237.854 193.144 238.465 193.748C239.557 193.281 240.614 192.727 241.642 192.123C243.21 191.203 244.734 190.182 246.251 189.19C246.646 188.938 247.049 188.687 247.444 188.435C247.797 188.212 248.185 187.989 248.58 187.817C249.278 187.486 250.011 187.313 250.694 187.536C250.759 187.551 250.823 187.572 250.888 187.601C251.427 187.838 251.664 188.471 251.636 189.039C251.621 189.413 251.492 189.758 251.262 189.945C251.104 190.088 250.895 190.153 250.636 190.11C250.823 190.175 250.974 190.239 251.197 190.304C251.851 190.498 252.484 190.75 253.124 190.994C253.332 191.081 253.562 191.153 253.778 191.239C254.008 191.318 254.245 191.397 254.475 191.483C254.274 191.857 254.044 192.217 253.792 192.562C253.757 192.626 253.713 192.684 253.663 192.741C253.318 193.202 252.937 193.626 252.52 194.021C252.024 194.503 251.477 194.927 250.902 195.301C249.838 195.998 248.659 196.516 247.43 196.811C247.042 196.911 246.646 196.983 246.244 197.033C246.078 197.055 245.92 197.077 245.755 197.084C245.187 197.127 244.612 197.127 244.044 197.077C243.965 197.328 243.885 197.58 243.828 197.831C243.591 198.687 243.425 199.564 243.346 200.448C243.303 200.822 243.274 201.203 243.267 201.577C243.26 201.994 243.26 202.404 243.282 202.821C242.8 202.62 242.304 202.469 241.793 202.361C241.247 202.239 240.686 202.174 240.125 202.159H240.118C239.658 202.152 239.191 202.181 238.731 202.239C237.839 202.354 236.969 202.605 236.157 202.986C236.488 203.655 236.646 204.395 236.646 205.136C236.646 205.97 236.452 206.804 236.078 207.544C235.74 208.213 235.265 208.81 234.662 209.263C234.151 209.651 233.562 209.917 232.943 210.068C231.649 210.391 230.218 210.212 229.061 209.55C228.759 209.385 228.471 209.176 228.213 208.939C227.278 209.37 226.264 209.601 225.243 209.636C223.748 209.708 222.224 209.378 220.887 208.702C220.772 208.644 220.657 208.587 220.549 208.529C220.383 208.436 220.218 208.335 220.06 208.227C219.219 207.688 218.471 206.998 217.889 206.171C217.357 206.387 216.825 206.617 216.3 206.861C214.848 207.53 213.446 208.292 212.087 209.133C210.757 209.953 209.47 210.859 208.24 211.836C205.796 213.785 203.567 216.013 201.605 218.458C199.599 220.945 197.873 223.663 196.486 226.539C195.041 229.501 193.948 232.635 193.279 235.856H193.272C193.229 236.05 193.193 236.237 193.157 236.424C193.035 237.006 192.934 237.589 192.855 238.178C192.755 238.811 192.675 239.451 192.625 240.091C192.596 240.263 192.582 240.443 192.568 240.623C192.524 241.119 192.496 241.615 192.474 242.111C192.424 243.132 192.409 244.16 192.431 245.181C192.445 246.525 192.524 247.862 192.639 249.2C192.834 251.479 193.143 253.743 193.509 256.008C193.747 257.482 194.005 258.956 194.271 260.422C194.351 260.897 194.437 261.364 194.523 261.839C194.739 263.018 194.998 264.269 195.486 265.354C195.918 266.318 196.515 267.166 197.42 267.712C197.557 267.799 197.701 267.871 197.852 267.935C198.377 268.187 198.952 268.345 199.527 268.496C200.217 268.676 200.9 268.848 201.526 269.165C203.265 270.056 204.258 271.904 205.652 273.263C207.126 274.7 209.003 275.499 211.001 275.765C212.993 276.038 215.106 275.786 217.083 275.103C218.442 274.643 219.736 273.974 220.879 273.148C221.577 272.644 222.224 272.098 222.842 271.501C223.561 270.825 224.23 270.092 224.855 269.316C224.87 269.301 224.891 269.28 224.898 269.258C225.394 268.647 225.869 268.014 226.315 267.36C226.653 266.864 226.983 266.346 227.307 265.829C228.04 264.635 228.723 263.399 229.384 262.155C229.78 261.407 230.168 260.66 230.549 259.912C230.887 260.106 231.232 260.307 231.577 260.509C231.599 260.523 231.62 260.537 231.649 260.552C233.418 261.573 235.237 262.622 236.897 263.744C237.516 264.161 238.112 264.585 238.673 265.024C238.903 264.333 239.248 263.686 239.68 263.111C239.773 262.982 239.874 262.86 239.982 262.745C240.686 261.939 241.585 261.314 242.62 260.99C243.109 260.832 243.619 260.746 244.159 260.731C246.697 260.674 249.17 262.479 249.889 264.916C250.004 265.311 250.083 265.721 250.14 266.138C250.306 267.252 250.363 268.395 250.866 269.395C251.305 270.272 251.974 270.89 252.779 271.343C253.318 271.652 253.915 271.882 254.555 272.069C256.136 272.529 257.926 272.731 259.522 273.112C259.602 273.133 259.681 273.148 259.76 273.169C261.104 273.507 262.369 274.089 263.513 274.859C263.548 274.88 263.577 274.902 263.606 274.923C264.217 275.333 264.785 275.8 265.324 276.318C266.511 277.447 267.495 278.806 268.222 280.279C268.61 281.07 268.919 281.89 269.149 282.738C269.214 282.983 269.271 283.227 269.322 283.479C269.602 284.816 269.667 286.204 269.48 287.577C269.264 289.094 268.79 290.625 269.113 292.142C269.127 292.164 269.135 292.178 269.142 292.199C269.659 292.911 270.177 293.601 270.709 294.27C279.516 305.435 290.099 310.691 296.914 313.085C299.869 314.12 302.939 312.754 304.607 310.101C304.657 310.022 304.708 309.957 304.765 309.893C304.772 309.893 304.772 309.871 304.78 309.864C305.132 308.908 305.599 308.002 306.167 307.153C306.361 306.859 306.57 306.578 306.793 306.298C307.246 305.73 307.749 305.198 308.274 304.695C308.971 304.019 309.712 303.372 310.438 302.718C312.508 299.605 313.881 296.722 314.759 294.112C315.794 291.049 316.146 288.353 316.139 286.081C316.434 285.657 316.692 285.211 316.901 284.737C316.966 284.593 317.023 284.449 317.081 284.306C317.634 282.81 317.469 280.998 316.728 279.632C316.261 278.77 315.564 278.087 314.672 277.763C314.457 277.684 314.227 277.627 313.989 277.591C313.026 277.447 312.753 275.7 312.688 275.599C312.178 274.772 313.846 271.659 314.485 270.466C314.845 269.805 315.154 269.122 315.413 268.417C315.672 267.705 315.887 266.972 316.038 266.231C316.196 265.441 316.297 264.643 316.319 263.845C316.355 262.888 316.29 261.932 316.11 260.99C316.11 260.983 316.103 260.983 316.11 260.976C315.93 260.106 315.664 259.25 315.283 258.438C315.226 258.301 315.168 258.179 315.111 258.071C314.974 257.798 314.83 257.532 314.665 257.266C314.234 256.576 313.759 255.958 313.249 255.404C312.976 255.117 312.695 254.843 312.4 254.592C312.364 254.556 312.329 254.52 312.285 254.498C311.531 253.851 310.711 253.319 309.841 252.888C304.55 248.287 303.442 242.219 303.572 237.524C303.672 233.361 304.758 230.284 304.758 230.284C304.701 229.99 304.6 229.709 304.506 229.422C304.435 229.206 304.37 228.983 304.327 228.76C304.233 228.25 304.276 227.732 304.312 227.222C304.334 226.999 304.348 226.769 304.37 226.546C304.442 225.662 304.506 224.77 304.578 223.886C304.672 222.736 304.765 221.585 304.844 220.428C304.888 219.953 304.931 219.479 304.974 219.004C305.01 218.479 305.074 217.962 305.233 217.48C305.348 217.128 305.52 216.79 305.693 216.459C305.7 216.459 305.7 216.452 305.7 216.445C305.872 216.107 306.052 215.769 306.182 215.417C306.577 214.338 306.52 213.159 306.39 212.009C306.369 211.815 306.34 211.628 306.318 211.441C306.138 209.996 306.002 208.479 305.851 206.969C305.642 204.942 305.405 202.922 304.995 201.045C304.895 200.578 304.78 200.111 304.65 199.665C304.514 199.701 304.384 199.737 304.269 199.773L303.277 200.829L292.256 212.534L261.579 200.578C260.09 199.284 259.07 201.167 257.66 201.354C256.388 200.29 257.854 198.766 259.328 197.235C260.464 197.335 261.758 198.486 262.484 198.881C263.326 199.341 265.087 199.492 265.389 200.743C266.345 200.211 267.409 200.434 268.15 201.175C270.573 200.024 273.455 200.844 276.015 200.98H276.029C276.245 200.995 276.568 200.995 276.971 200.995C279.265 200.966 282.076 200.535 284.031 201.498C284.045 201.505 284.067 201.512 284.081 201.527C285.433 202.224 286.08 203.533 286.821 204.74C286.857 204.805 286.892 204.863 286.936 204.927C287.309 205.524 287.726 206.092 288.273 206.523C288.79 206.94 289.43 207.235 290.279 207.336C291.235 207.451 292.169 207.314 293.068 207.005C294.52 206.502 295.858 205.553 296.958 204.467C297.482 203.95 297.978 203.396 298.424 202.814C298.913 202.195 299.352 201.548 299.747 200.865C300.365 199.809 300.869 198.68 301.25 197.515C301.552 196.624 301.775 195.703 301.925 194.776C302.055 193.956 302.12 193.137 302.127 192.317C302.134 191.987 302.127 191.663 302.112 191.332C302.005 191.268 301.904 191.21 301.796 191.138C301.127 190.721 300.516 190.211 299.963 189.643C299.524 189.197 299.136 188.701 298.791 188.183C298.539 187.802 298.309 187.414 298.115 187.004C297.698 186.156 297.403 185.243 297.245 184.308C297.238 184.301 297.238 184.294 297.238 184.287C297.224 184.287 297.216 184.294 297.202 184.294C297.08 184.315 296.965 184.344 296.843 184.366C296.454 184.445 296.059 184.524 295.664 184.603C295.232 184.696 294.801 184.783 294.362 184.869C294.355 184.869 294.348 184.876 294.348 184.876C293.823 184.977 293.291 185.085 292.766 185.193C292.745 185.193 292.716 185.193 292.694 185.207C292.666 185.142 292.63 185.077 292.594 185.02C292.191 184.272 291.652 183.611 291.012 183.057C290.315 182.446 289.502 181.964 288.625 181.67C288.589 181.655 288.546 181.641 288.51 181.627C288.517 181.648 288.524 181.67 288.524 181.691C288.726 182.532 288.56 183.366 288.151 184.093C287.619 185.056 286.662 185.847 285.577 186.292C285.038 186.508 284.477 186.645 283.909 186.666C283.729 186.674 283.549 186.674 283.37 186.666C282.622 186.645 281.889 186.501 281.17 186.271C279.739 185.818 278.373 185.042 277.065 184.244C277.057 184.236 277.05 184.244 277.05 184.244C276.928 184.164 276.799 184.093 276.676 184.013C276.187 183.712 275.684 183.295 275.26 182.827C275.131 182.683 275.001 182.54 274.893 182.389H274.886C274.031 181.253 273.671 179.944 274.771 179.218C274.865 179.153 274.965 179.103 275.066 179.067C275.756 178.787 276.597 179.002 277.287 179.333C277.755 179.563 278.222 179.844 278.682 180.146C279.114 180.419 279.545 180.699 279.976 180.958C280.58 181.325 281.191 181.648 281.795 181.842C282.241 181.986 282.694 182.058 283.147 182.015C283.456 181.993 283.765 181.914 284.081 181.778C284.491 181.591 284.851 181.303 285.225 181.044C285.512 180.843 285.814 180.663 286.145 180.555C286.734 180.361 287.353 180.44 287.978 180.527C288.287 180.577 288.596 180.627 288.898 180.649C290.775 180.793 292.471 180.002 293.988 178.83C294.909 178.125 295.771 177.277 296.569 176.429H296.577C296.785 176.199 296.986 175.976 297.188 175.753C297.195 175.753 297.202 175.746 297.209 175.746C297.669 175.889 298.115 176.019 298.582 176.127C299.531 176.357 300.495 176.544 301.458 176.673C302.68 176.846 303.917 176.932 305.146 176.939C306.484 176.953 307.821 176.874 309.151 176.702C309.877 176.608 310.603 176.479 311.336 176.421C311.804 176.393 312.271 176.393 312.738 176.443C313.666 176.544 314.55 176.867 315.391 177.291C315.413 177.299 315.427 177.306 315.442 177.313C315.736 177.464 316.024 177.622 316.304 177.787C316.621 177.974 316.937 178.168 317.239 178.363C318.497 179.168 319.726 180.009 320.92 180.893C321.473 181.296 322.013 181.713 322.552 182.137C322.969 182.461 323.379 182.791 323.781 183.136C324.766 183.942 325.73 184.783 326.671 185.653C327.009 185.969 327.354 186.292 327.699 186.616C328.462 187.328 329.245 188.032 330.05 188.679C330.985 189.427 331.963 190.081 333.005 190.556C333.875 190.951 334.788 191.217 335.759 191.296C337.003 191.404 338.268 191.188 339.497 191.375C339.648 191.397 339.806 191.433 339.95 191.469C341.259 191.778 342.387 192.519 343.336 193.489C344.415 194.589 345.278 195.977 345.925 197.371C346.327 198.241 346.723 199.104 347.111 199.974C354.085 215.431 359.211 230.608 359.628 247.805C359.628 247.891 359.628 247.978 359.628 248.064C359.642 248.725 359.649 249.394 359.649 250.07C359.649 308.699 312.127 356.228 253.498 356.228H253.491Z" fill="#3E4095"/>
<path d="M335.012 252.435C334.573 251.579 333.394 251.471 332.833 252.255C331.359 254.311 328.951 258.69 328.577 265.742C328.254 271.868 328.987 275.592 329.634 277.605C329.943 278.561 331.18 278.791 331.827 278.022C333.818 275.664 337.312 271.034 337.506 267.367C337.744 262.924 336.967 256.267 335.004 252.442L335.012 252.435Z" fill="#3E4095"/>
<path d="M144.88 277.777C146.605 284.586 143.715 289.669 137.755 291.178L122.78 294.982C121.004 295.434 119.681 294.694 119.264 293.04C118.84 291.38 119.645 290.086 121.421 289.633L135.886 285.959C139.517 285.039 141.177 282.393 140.3 278.935C139.43 275.52 136.67 273.974 133.075 274.887L118.61 278.561C116.834 279.014 115.511 278.273 115.094 276.62C114.677 274.959 115.483 273.665 117.251 273.212L132.27 269.402C138.23 267.892 143.205 271.206 144.873 277.777H144.88Z" fill="#E6E7E9"/>
<path d="M141.379 262.328C141.437 263.953 140.373 264.952 138.561 265.009L116.605 265.772C114.426 265.843 113.254 264.93 113.19 263.061C113.147 261.738 113.873 260.94 115.519 259.74L131.386 248.517V248.294L115.613 248.841C113.779 248.905 112.672 248.007 112.615 246.375C112.557 244.75 113.621 243.729 115.433 243.671L137.511 242.909C139.589 242.837 140.739 243.736 140.797 245.483C140.84 246.806 140.322 247.597 138.554 248.862L122.507 260.193V260.415L138.381 259.869C140.215 259.804 141.322 260.703 141.379 262.335V262.328Z" fill="#E6E7E9"/>
<path d="M138.475 239.645L116.367 237.136C114.505 236.928 113.527 235.806 113.722 234.074C113.916 232.355 115.123 231.471 116.986 231.679L139.093 234.189C140.955 234.397 141.933 235.511 141.739 237.237C141.537 238.977 140.337 239.861 138.475 239.653V239.645Z" fill="#E6E7E9"/>
<path d="M121.321 209.816C119.588 208.781 119.028 207.782 119.394 206.358C119.783 204.841 121.034 203.986 122.45 204.345C122.982 204.482 123.823 204.885 124.492 205.309L141.919 216.876C144.298 218.415 145.089 219.939 144.528 222.125C143.96 224.353 142.501 225.346 139.697 225.554L118.862 227.301C117.985 227.373 117.173 227.33 116.619 227.186C115.196 226.819 114.498 225.446 114.894 223.908C115.246 222.527 116.296 221.873 118.258 221.787L138.331 220.644L138.396 220.385L121.328 209.809L121.321 209.816Z" fill="#E6E7E9"/>
<path d="M125.886 199.601C123.765 198.601 123.211 197.012 124.261 194.784L129.495 183.655C130.084 182.404 131.314 181.943 132.529 182.519C133.744 183.087 134.153 184.316 133.564 185.574L129.092 195.078L135.541 198.112L139.768 189.126C140.322 187.947 141.451 187.508 142.615 188.054C143.773 188.601 144.139 189.737 143.586 190.916L139.359 199.903L146.102 203.073L150.552 193.619C151.171 192.311 152.379 191.843 153.615 192.426C154.852 193.008 155.24 194.223 154.629 195.531L149.417 206.603C148.367 208.832 146.807 209.429 144.672 208.422L125.9 199.586L125.886 199.601Z" fill="#E6E7E9"/>
<path d="M158.065 190.133C157.044 191.556 155.556 191.736 154.032 190.643L137.137 178.464C134.793 176.775 134.47 174.985 136.166 172.641L140.322 166.875C143.802 162.051 148.597 160.965 152.86 164.042C155.714 166.106 156.937 169.212 156.182 172.49L164.536 173.54C165.161 173.612 165.83 173.87 166.304 174.215C167.512 175.085 167.692 176.645 166.772 177.918C165.923 179.09 164.981 179.363 162.99 179.054L154.054 177.659L151.099 181.757L157.246 186.186C158.763 187.279 159.072 188.731 158.058 190.14L158.065 190.133ZM150.675 175.315C152.494 172.785 152.292 170.427 149.977 168.766C147.684 167.112 145.318 167.637 143.543 170.103L140.602 174.179L147.77 179.349L150.675 175.315Z" fill="#E6E7E9"/>
<path d="M164.658 167.852C165.327 167.227 166.139 166.989 167.577 167.09C169.964 167.335 172.114 166.594 173.882 164.933C176.255 162.705 176.715 160.483 175.162 158.837C173.875 157.471 172.135 157.521 169.446 159.067L165.722 161.173C161.48 163.654 158.001 163.431 155.24 160.49C151.739 156.766 152.4 151.583 156.915 147.341C159.331 145.069 162.156 143.725 164.651 143.703C166.355 143.667 167.735 144.156 168.612 145.091C169.489 146.025 169.439 147.276 168.476 148.182C167.85 148.772 167.067 149.002 166.031 148.858C163.853 148.362 161.782 148.887 160.028 150.533C157.922 152.517 157.519 154.789 159 156.364C160.186 157.622 161.941 157.65 164.234 156.306L167.958 154.171C172.466 151.525 175.902 151.676 178.706 154.66C182.33 158.52 181.56 163.855 176.729 168.399C174.105 170.872 171.093 172.331 168.569 172.324C166.822 172.346 165.471 171.914 164.673 171.066C163.724 170.059 163.752 168.686 164.658 167.838V167.852Z" fill="#E6E7E9"/>
<path d="M182.38 159.253C182.086 158.786 181.87 158.175 181.611 157.111L176.852 136.391C176.219 133.738 176.694 132.163 178.656 130.927C180.605 129.705 182.201 129.949 184.329 131.689L200.951 144.953C201.655 145.543 202.137 146.032 202.439 146.521C203.222 147.764 202.841 149.109 201.511 149.943C200.253 150.734 199.117 150.532 197.643 149.224L193.804 146.061L185.551 151.251L186.759 156.075C187.298 158.002 187.01 159.073 185.767 159.85C184.494 160.655 183.121 160.432 182.388 159.26L182.38 159.253ZM190.612 143.228L181.647 135.593L181.424 135.737L184.408 147.139L190.612 143.235V143.228Z" fill="#E6E7E9"/>
<path d="M218.385 142.719L207.737 147.025C205.451 147.945 203.905 147.32 203.021 145.134L194.962 125.198C194.257 123.458 194.775 122.071 196.4 121.409C198.003 120.762 199.362 121.402 200.059 123.135L207.68 141.993L216.631 138.376C217.968 137.837 219.276 138.34 219.794 139.627C220.319 140.928 219.729 142.179 218.385 142.719Z" fill="#E6E7E9"/>
<path d="M226.027 137.915L221.267 116.174C220.865 114.348 221.605 113.054 223.316 112.68C225.006 112.313 226.235 113.169 226.638 114.995L231.397 136.736C231.8 138.562 231.059 139.856 229.37 140.223C227.659 140.596 226.429 139.741 226.027 137.908V137.915Z" fill="#E6E7E9"/>
<path d="M237.343 138.461C235.718 138.576 234.69 137.541 234.561 135.737L233.044 113.816C232.893 111.645 233.77 110.437 235.639 110.308C236.962 110.214 237.782 110.912 239.04 112.522L250.809 127.994L251.032 127.979L249.939 112.235C249.81 110.408 250.672 109.265 252.297 109.15C253.922 109.035 254.972 110.071 255.101 111.875L256.625 133.918C256.769 135.988 255.913 137.175 254.166 137.297C252.844 137.39 252.038 136.894 250.716 135.169L238.831 119.517L238.609 119.532L239.709 135.377C239.838 137.203 238.975 138.346 237.35 138.461H237.343Z" fill="#E6E7E9"/>
<path d="M261.263 129.259C262.168 129.381 262.866 129.863 263.693 131.042C265.008 133.048 266.942 134.249 269.343 134.572C272.572 135.004 274.585 133.961 274.886 131.718C275.138 129.863 273.995 128.54 271.105 127.433L267.122 125.873C262.528 124.148 260.501 121.308 261.04 117.31C261.723 112.242 266.159 109.488 272.291 110.315C275.584 110.754 278.402 112.098 279.991 114.018C281.091 115.319 281.58 116.699 281.414 117.972C281.242 119.244 280.243 119.992 278.927 119.812C278.079 119.697 277.403 119.237 276.864 118.346C275.879 116.347 274.16 115.067 271.781 114.744C268.912 114.356 266.892 115.484 266.604 117.627C266.374 119.345 267.46 120.718 269.947 121.653L273.952 123.199C278.841 125.025 280.897 127.785 280.35 131.847C279.646 137.096 275.023 139.864 268.445 138.979C264.872 138.498 261.838 137.088 260.249 135.126C259.135 133.781 258.617 132.458 258.768 131.308C258.955 129.935 260.033 129.094 261.263 129.259Z" fill="#E6E7E9"/>
<path d="M290.408 144.228C283.78 141.913 281.134 136.693 283.169 130.891L288.266 116.304C288.87 114.571 290.214 113.881 291.832 114.442C293.45 115.01 294.082 116.39 293.478 118.123L288.554 132.207C287.317 135.744 288.611 138.591 291.969 139.763C295.29 140.928 298.108 139.475 299.331 135.974L304.255 121.89C304.859 120.157 306.204 119.467 307.821 120.028C309.439 120.589 310.071 121.976 309.468 123.709L304.356 138.332C302.328 144.134 296.814 146.456 290.416 144.22L290.408 144.228Z" fill="#E6E7E9"/>
<path d="M305.038 150.417C303.536 149.511 303.234 148.045 304.197 146.441L314.945 128.605C316.434 126.131 318.188 125.664 320.668 127.152L326.75 130.819C331.841 133.889 333.314 138.576 330.611 143.077C328.792 146.096 325.794 147.563 322.466 147.081L322.106 155.493C322.085 156.118 321.883 156.809 321.581 157.312C320.812 158.584 319.273 158.894 317.929 158.081C316.692 157.333 316.34 156.413 316.484 154.407L317.138 145.392L312.81 142.789L308.899 149.274C307.936 150.877 306.512 151.309 305.031 150.41L305.038 150.417ZM319.194 141.833C321.862 143.444 324.198 143.041 325.665 140.597C327.124 138.174 326.405 135.859 323.803 134.291L319.496 131.696L314.938 139.266L319.194 141.833Z" fill="#E6E7E9"/>
<path d="M321.596 157.607C321.962 157.197 322.494 156.83 323.451 156.298L342.143 146.169C344.53 144.846 346.176 144.882 347.894 146.449C349.598 147.995 349.785 149.605 348.678 152.121L340.346 171.684C339.965 172.525 339.619 173.114 339.238 173.539C338.254 174.624 336.852 174.617 335.694 173.56C334.594 172.561 334.486 171.411 335.349 169.642L337.369 165.091L330.158 158.527L325.837 160.979C324.126 162.007 323.019 162.021 321.934 161.029C320.819 160.015 320.668 158.635 321.603 157.614L321.596 157.607ZM339.231 161.245L344.192 150.561L343.998 150.382L333.81 156.306L339.231 161.238V161.245Z" fill="#E6E7E9"/>
<path d="M339.656 177.493C338.7 176.17 339.03 174.754 340.504 173.69L358.305 160.828C360.074 159.556 361.555 159.664 362.655 161.18C363.431 162.252 363.273 163.323 362.568 165.235L355.645 183.396L355.774 183.575L368.564 174.337C370.052 173.266 371.469 173.388 372.425 174.711C373.381 176.034 373.058 177.464 371.591 178.528L353.689 191.462C352.007 192.677 350.548 192.577 349.527 191.153C348.75 190.082 348.743 189.133 349.512 187.098L356.522 168.751L356.393 168.571L343.524 177.874C342.035 178.945 340.619 178.823 339.663 177.5L339.656 177.493Z" fill="#E6E7E9"/>
<path d="M366.508 188.019C373.718 184.834 379.722 186.84 382.684 193.562C384.107 196.783 384.337 199.975 383.345 202.57C382.669 204.36 381.476 205.798 380.34 206.301C379.075 206.862 377.874 206.366 377.335 205.137C376.939 204.245 377.011 203.454 377.651 202.218C379.146 199.867 379.434 197.89 378.492 195.747C376.839 192.002 373.23 191.081 368.535 193.152L365.645 194.424C360.763 196.581 359.016 199.824 360.684 203.605C361.64 205.769 363.351 207.035 366.033 207.452C367.377 207.818 367.953 208.228 368.334 209.084C368.902 210.371 368.449 211.571 367.205 212.118C365.86 212.707 363.804 212.484 361.899 211.542C359.563 210.435 357.6 208.3 356.241 205.23C353.243 198.429 355.803 192.735 363.251 189.449L366.515 188.011L366.508 188.019Z" fill="#E6E7E9"/>
<path d="M384.956 210.773C387.235 210.248 388.659 211.146 389.212 213.548L391.98 225.525C392.289 226.877 391.614 227.991 390.305 228.293C388.997 228.595 387.911 227.883 387.602 226.539L385.237 216.308L378.292 217.912L380.535 227.589C380.83 228.861 380.211 229.896 378.96 230.191C377.709 230.479 376.717 229.81 376.43 228.545L374.194 218.868L366.932 220.55L369.283 230.723C369.607 232.132 368.945 233.247 367.623 233.556C366.293 233.865 365.229 233.146 364.905 231.737L362.144 219.817C361.591 217.416 362.446 215.985 364.747 215.453L384.956 210.78V210.773Z" fill="#E6E7E9"/>
<path d="M368.945 241.206L389.959 241.249C392.85 241.249 393.971 242.356 393.964 245.225L393.95 252.249C393.935 258.029 390.304 261.746 384.812 261.739C379.067 261.725 375.674 257.95 375.688 251.99L375.703 246.72L368.945 246.706C367.068 246.706 365.976 245.678 365.976 243.931C365.976 242.198 367.083 241.206 368.952 241.206H368.945ZM379.966 250.25C379.959 254.528 381.196 256.261 384.74 256.268C387.795 256.268 389.55 254.571 389.557 251.552V246.749L379.981 246.728V250.25H379.966Z" fill="#E6E7E9"/>
<path d="M363.143 277.239L365.127 265.93C365.551 263.5 366.903 262.522 369.232 262.925L390.412 266.642C392.26 266.965 393.166 268.137 392.864 269.863C392.562 271.566 391.304 272.379 389.463 272.055L369.426 268.54L367.758 278.044C367.507 279.468 366.392 280.309 365.026 280.064C363.639 279.82 362.898 278.655 363.143 277.232V277.239Z" fill="#E6E7E9"/>
<path d="M377.982 283.638C385.38 286.341 388.321 291.941 385.804 298.851C384.597 302.158 382.548 304.616 380.039 305.803C378.306 306.622 376.451 306.831 375.286 306.407C373.985 305.932 373.467 304.746 373.928 303.48C374.265 302.56 374.862 302.043 376.178 301.597C378.888 300.935 380.463 299.713 381.268 297.513C382.67 293.667 380.707 290.504 375.883 288.742L372.921 287.664C367.91 285.838 364.402 286.959 362.985 290.842C362.173 293.056 362.532 295.162 364.172 297.319C364.883 298.513 365.02 299.21 364.696 300.094C364.215 301.417 363.057 301.971 361.777 301.503C360.397 301 359.074 299.411 358.348 297.413C357.435 294.997 357.493 292.092 358.65 288.936C361.195 281.955 366.99 279.626 374.639 282.423L377.99 283.645L377.982 283.638Z" fill="#E6E7E9"/>
<path d="M180.454 370.342C179.002 369.601 178.657 368.185 179.476 366.575L189.484 347.019C190.476 345.078 191.849 344.503 193.517 345.351C194.696 345.955 195.041 346.976 195.286 349.004L197.378 368.329L197.579 368.429L204.768 354.381C205.602 352.749 206.925 352.217 208.377 352.958C209.83 353.698 210.196 355.122 209.37 356.739L199.304 376.402C198.355 378.25 197.011 378.818 195.458 378.02C194.279 377.416 193.841 376.575 193.596 374.418L191.497 354.885L191.295 354.784L184.056 368.918C183.222 370.55 181.899 371.082 180.447 370.342H180.454Z" fill="#E6E7E9"/>
<path d="M205.545 378.695L212.792 357.644C213.403 355.876 214.704 355.157 216.358 355.725C217.997 356.286 218.601 357.659 217.99 359.435L210.743 380.485C210.132 382.254 208.83 382.973 207.191 382.405C205.538 381.837 204.927 380.464 205.538 378.695H205.545Z" fill="#E6E7E9"/>
<path d="M218.393 369.558C219.895 362.009 225.086 358.249 232.218 359.665C235.396 360.298 237.89 361.729 239.494 363.792C240.867 365.453 241.6 367.387 241.313 368.825C241.047 370.162 239.947 370.881 238.653 370.622C237.876 370.471 237.394 370.061 236.963 369.206C235.784 366.769 234.389 364.914 231.657 364.374C227.545 363.555 224.77 365.827 223.763 370.859L223.03 374.555C222.038 379.53 223.799 382.786 227.897 383.599C231.176 384.253 233.757 382.729 234.339 379.817L234.677 378.099L231.039 377.373C229.558 377.078 228.846 376.172 229.105 374.871C229.364 373.57 230.342 373.023 231.844 373.318L237.294 374.404C239.587 374.864 240.407 376.079 239.961 378.322L239.522 380.522C238.387 386.23 233.16 389.343 226.79 388.078C219.5 386.626 216.078 381.176 217.609 373.505L218.393 369.572V369.558Z" fill="#E6E7E9"/>
<path d="M244.871 365.833C244.907 363.49 246.129 362.332 248.595 362.368L260.896 362.569C262.283 362.591 263.204 363.526 263.182 364.87C263.16 366.214 262.211 367.091 260.824 367.07L250.32 366.897L250.205 374.022L260.141 374.187C261.442 374.209 262.305 375.057 262.283 376.337C262.262 377.624 261.37 378.422 260.069 378.4L250.133 378.242L250.011 385.698L260.457 385.87C261.902 385.892 262.822 386.805 262.801 388.171C262.779 389.537 261.83 390.392 260.385 390.371L248.149 390.169C245.683 390.126 244.504 388.947 244.54 386.589L244.878 365.84L244.871 365.833Z" fill="#E6E7E9"/>
<path d="M272.054 389.695C270.329 389.975 269.142 389.055 268.84 387.208L265.49 366.646C265.023 363.792 266.065 362.303 268.92 361.836L275.936 360.693C281.803 359.737 285.966 362.361 286.814 367.545C287.382 371.024 286.045 374.087 283.198 375.87L288.367 382.52C288.755 383.016 289.05 383.67 289.143 384.253C289.381 385.719 288.41 386.949 286.857 387.2C285.434 387.43 284.571 386.956 283.377 385.331L278.043 378.027L273.061 378.839L274.276 386.316C274.578 388.164 273.772 389.407 272.061 389.688L272.054 389.695ZM277.295 373.986C280.372 373.483 281.889 371.671 281.429 368.853C280.976 366.056 278.927 364.762 275.929 365.251L270.961 366.056L272.385 374.777L277.288 373.979L277.295 373.986Z" fill="#E6E7E9"/>
<path d="M294.557 382.117L288.122 360.808C287.583 359.01 288.216 357.673 289.898 357.163C291.552 356.66 292.846 357.422 293.392 359.212L299.826 380.521C300.366 382.318 299.733 383.656 298.072 384.159C296.397 384.662 295.103 383.907 294.564 382.117H294.557Z" fill="#E6E7E9"/>
<path d="M304.478 380.183C304.248 379.68 304.119 379.047 304.011 377.962L302.106 356.782C301.832 354.064 302.523 352.569 304.636 351.613C306.736 350.664 308.281 351.124 310.158 353.137L324.824 368.537C325.442 369.219 325.852 369.766 326.089 370.291C326.693 371.628 326.133 372.908 324.709 373.555C323.358 374.166 322.258 373.821 320.971 372.318L317.592 368.659L308.706 372.685L309.245 377.624C309.518 379.601 309.087 380.629 307.749 381.233C306.376 381.858 305.053 381.449 304.478 380.191V380.183ZM314.802 365.423L306.951 356.638L306.707 356.746L308.116 368.45L314.795 365.423H314.802Z" fill="#E6E7E9"/>
<path d="M349.591 336.523C354.637 336.523 358.729 332.431 358.729 327.385C358.729 322.338 354.637 318.247 349.591 318.247C344.544 318.247 340.453 322.338 340.453 327.385C340.453 332.431 344.544 336.523 349.591 336.523Z" fill="#E6E7E9"/>
<path d="M157.152 336.523C162.199 336.523 166.29 332.431 166.29 327.385C166.29 322.338 162.199 318.247 157.152 318.247C152.106 318.247 148.015 322.338 148.015 327.385C148.015 332.431 152.106 336.523 157.152 336.523Z" fill="#E6E7E9"/>
</g>
<defs>
<clipPath id="clip0_11_8640">
<rect width="345.292" height="302.055" fill="white" transform="translate(77.4941 99.042)"/>
</clipPath>
</defs>
</svg>
