<svg width="500" height="500" viewBox="0 0 500 500" fill="none" xmlns="http://www.w3.org/2000/svg">
<rect width="500" height="500" fill="white"/>
<g clip-path="url(#clip0_11_8710)">
<path d="M137.768 286.729C140.878 289.849 142.656 293.777 143.114 297.835C139.056 297.388 135.117 295.61 132.008 292.489C130.993 291.475 130.11 290.362 129.379 289.195C128.855 290.133 128.19 291.017 127.382 291.824C123.782 295.424 118.48 296.308 114.05 294.453C115.589 293.864 117.029 292.948 118.273 291.704C120.422 289.555 121.6 286.805 121.807 283.991C121.873 283.162 121.851 282.322 121.742 281.492C121.415 278.907 120.247 276.419 118.273 274.434C117.596 273.768 116.876 273.19 116.102 272.71C115.534 272.35 114.934 272.045 114.312 271.783C112.916 271.204 111.421 270.888 109.916 270.855C108.487 270.888 107.079 271.172 105.737 271.695C104.941 272.001 104.166 272.405 103.435 272.896C102.77 273.343 102.148 273.845 101.57 274.434C99.6168 276.376 98.4604 278.83 98.1004 281.361C98.0022 282.071 97.9695 282.78 98.0022 283.489C98.1004 286.467 99.2786 289.424 101.57 291.704C102.65 292.795 103.904 293.635 105.235 294.224C100.85 295.948 95.6784 295.042 92.1327 291.497C91.8273 291.202 91.5545 290.886 91.2927 290.569C91.2709 290.537 91.2381 290.515 91.2272 290.482C90.9326 290.133 90.6708 289.762 90.4417 289.38C90.3763 289.293 90.3217 289.195 90.2672 289.097C89.5362 290.242 88.6743 291.333 87.6706 292.337C84.5613 295.446 80.6229 297.224 76.5645 297.683C77.0227 293.624 78.801 289.686 81.9103 286.576C82.9249 285.562 84.0377 284.678 85.205 283.947C84.2668 283.423 83.3831 282.758 82.5867 281.951C78.9864 278.35 78.1027 273.048 79.9465 268.619C80.5356 270.157 81.452 271.597 82.6958 272.841C84.845 274.99 87.6052 276.168 90.409 276.376C91.249 276.441 92.0891 276.419 92.9182 276.31C95.4929 275.983 97.9913 274.816 99.9769 272.841C100.642 272.165 101.221 271.445 101.69 270.67C102.05 270.103 102.366 269.503 102.617 268.881C103.206 267.484 103.512 265.99 103.544 264.484C103.523 263.055 103.239 261.648 102.704 260.306C102.399 259.498 101.995 258.724 101.504 258.004C101.068 257.338 100.555 256.705 99.9769 256.127C98.024 254.185 95.5802 253.018 93.0491 252.669C92.34 252.571 91.6309 252.527 90.9217 252.56C87.9434 252.658 84.9759 253.847 82.6958 256.127C81.6048 257.218 80.7647 258.462 80.1756 259.793C78.4518 255.418 79.3683 250.236 82.903 246.69C83.2085 246.396 83.514 246.112 83.8304 245.85C83.8631 245.828 83.8958 245.806 83.9177 245.785C84.2777 245.501 84.6486 245.239 85.0305 244.999C85.1177 244.945 85.2159 244.879 85.3032 244.825C84.1577 244.105 83.0776 243.232 82.0739 242.239C78.9537 239.119 77.1754 235.191 76.7281 231.133C80.7865 231.58 84.7141 233.358 87.8343 236.479C88.8489 237.493 89.7326 238.606 90.4635 239.773C90.9872 238.835 91.6527 237.951 92.4491 237.144C96.0603 233.544 101.352 232.66 105.781 234.504C104.243 235.104 102.813 236.02 101.57 237.253C99.4205 239.413 98.2422 242.163 98.0349 244.977C97.9586 245.806 97.9804 246.647 98.0895 247.476C98.4277 250.061 99.5841 252.549 101.57 254.534C102.235 255.2 102.966 255.778 103.73 256.258C104.308 256.618 104.897 256.924 105.519 257.185C106.926 257.764 108.41 258.08 109.916 258.113H109.927C111.345 258.08 112.752 257.796 114.094 257.273C114.901 256.967 115.676 256.564 116.396 256.073C117.062 255.625 117.683 255.123 118.273 254.534C120.215 252.592 121.371 250.138 121.731 247.607C121.829 246.897 121.862 246.188 121.84 245.479C121.742 242.501 120.553 239.544 118.273 237.264C117.182 236.173 115.938 235.333 114.607 234.744C118.982 233.02 124.164 233.926 127.71 237.471C128.004 237.766 128.288 238.082 128.55 238.399C128.571 238.431 128.593 238.453 128.604 238.486C128.899 238.835 129.161 239.206 129.401 239.588C129.455 239.675 129.521 239.773 129.575 239.872C130.295 238.726 131.157 237.635 132.161 236.631C135.281 233.522 139.208 231.744 143.267 231.286C142.82 235.344 141.041 239.282 137.921 242.392C136.907 243.406 135.794 244.29 134.626 245.021C135.565 245.545 136.448 246.21 137.245 247.017C140.856 250.618 141.74 255.92 139.885 260.349C139.296 258.811 138.379 257.371 137.136 256.127C134.986 253.978 132.237 252.8 129.422 252.592C128.593 252.527 127.753 252.549 126.924 252.658C124.338 252.985 121.84 254.152 119.865 256.127C119.189 256.804 118.622 257.524 118.142 258.298C117.782 258.866 117.476 259.466 117.214 260.076C116.636 261.484 116.32 262.978 116.287 264.484C116.32 265.902 116.592 267.321 117.127 268.662C117.433 269.47 117.836 270.244 118.327 270.964C118.764 271.63 119.276 272.263 119.865 272.841C121.807 274.783 124.262 275.939 126.793 276.299C127.502 276.398 128.211 276.441 128.921 276.408C131.899 276.31 134.855 275.121 137.136 272.841C138.227 271.75 139.067 270.506 139.656 269.175C141.38 273.55 140.474 278.732 136.928 282.278C136.634 282.572 136.317 282.856 136.001 283.118C135.968 283.14 135.946 283.162 135.914 283.183C135.565 283.467 135.194 283.729 134.812 283.969C134.725 284.023 134.626 284.089 134.528 284.143C135.674 284.864 136.765 285.736 137.768 286.729Z" fill="#878D8D"/>
<path d="M208.966 236.686C208.202 235.922 207.307 235.322 206.293 234.896C205.278 234.471 204.209 234.253 203.074 234.253C201.94 234.253 200.805 234.471 199.79 234.896C198.776 235.322 197.892 235.922 197.15 236.686C196.408 237.449 195.819 238.333 195.394 239.348C194.968 240.362 194.75 241.431 194.75 242.544V266.938C194.75 269 194.434 270.899 193.812 272.633C193.179 274.368 192.306 275.863 191.193 277.117C190.07 278.372 188.739 279.365 187.19 280.085C185.64 280.805 183.928 281.165 182.051 281.165C180.175 281.165 178.473 280.783 176.978 280.019C175.472 279.256 174.196 278.197 173.149 276.855C172.09 275.503 171.305 273.921 170.759 272.11C170.225 270.288 169.952 268.324 169.952 266.218V242.293C169.952 241.169 169.734 240.1 169.308 239.097C168.883 238.082 168.283 237.22 167.519 236.5C166.756 235.78 165.861 235.213 164.846 234.787C163.832 234.362 162.763 234.144 161.628 234.144C160.493 234.144 159.359 234.362 158.344 234.787C157.329 235.213 156.446 235.791 155.704 236.5C154.962 237.22 154.362 238.082 153.915 239.097C153.467 240.111 153.238 241.18 153.238 242.293V266.349C153.238 270.702 153.893 274.793 155.191 278.612C156.489 282.43 158.322 285.758 160.679 288.583C163.035 291.409 165.872 293.646 169.167 295.293C172.472 296.929 176.094 297.748 180.055 297.748C182.749 297.748 185.357 297.235 187.866 296.198C190.386 295.162 192.764 293.733 195.012 291.889C195.503 293.591 196.463 295.009 197.892 296.133C199.31 297.257 200.99 297.813 202.932 297.813C204.111 297.813 205.213 297.606 206.249 297.169C207.285 296.744 208.191 296.144 208.955 295.38C209.718 294.617 210.329 293.744 210.777 292.751C211.224 291.758 211.453 290.689 211.453 289.522V242.555C211.453 241.431 211.224 240.362 210.777 239.358C210.329 238.344 209.718 237.46 208.955 236.696L208.966 236.686Z" fill="#A8353A"/>
<path d="M278.352 243.635C275.45 240.711 272.057 238.409 268.173 236.729C264.289 235.049 260.122 234.198 255.671 234.198C252.703 234.198 249.856 234.591 247.117 235.376C244.379 236.162 241.793 237.275 239.371 238.715C238.651 237.362 237.626 236.282 236.306 235.442C234.986 234.613 233.513 234.198 231.887 234.198C230.72 234.198 229.629 234.416 228.614 234.842C227.6 235.267 226.716 235.857 225.952 236.598C225.189 237.34 224.589 238.202 224.163 239.195C223.738 240.188 223.52 241.257 223.52 242.424V312.236C223.52 313.403 223.738 314.483 224.163 315.465C224.589 316.458 225.189 317.32 225.952 318.062C226.716 318.804 227.6 319.382 228.614 319.818C229.629 320.244 230.709 320.462 231.887 320.462C233.066 320.462 234.091 320.244 235.117 319.818C236.153 319.393 237.037 318.804 237.779 318.062C238.521 317.32 239.11 316.458 239.568 315.465C240.015 314.472 240.244 313.403 240.244 312.236V294.442C242.535 295.74 244.968 296.733 247.554 297.41C250.139 298.086 252.845 298.424 255.671 298.424C260.122 298.424 264.289 297.584 268.173 295.893C272.057 294.213 275.45 291.922 278.352 289.02C281.254 286.118 283.545 282.714 285.225 278.808C286.905 274.903 287.756 270.746 287.756 266.338C287.756 261.931 286.916 257.72 285.225 253.836C283.545 249.952 281.254 246.548 278.352 243.624V243.635ZM269.821 272.306C269.013 274.172 267.922 275.797 266.548 277.194C265.173 278.59 263.558 279.681 261.693 280.467C259.827 281.252 257.82 281.645 255.66 281.645C253.5 281.645 251.558 281.252 249.692 280.467C247.827 279.681 246.201 278.59 244.805 277.194C243.408 275.797 242.306 274.172 241.499 272.306C240.692 270.441 240.288 268.455 240.288 266.338C240.288 264.222 240.692 262.182 241.499 260.338C242.306 258.494 243.408 256.88 244.805 255.483C246.201 254.087 247.827 253.007 249.692 252.21C251.558 251.425 253.543 251.032 255.66 251.032C257.776 251.032 259.827 251.425 261.693 252.21C263.558 252.996 265.173 254.087 266.548 255.483C267.922 256.88 269.002 258.494 269.821 260.338C270.628 262.182 271.032 264.178 271.032 266.338C271.032 268.499 270.628 270.441 269.821 272.306Z" fill="#A8353A"/>
<path d="M420.156 277.052C418.804 275.885 417.516 275.165 416.283 274.892C415.051 274.62 413.872 274.609 412.749 274.86C411.625 275.111 410.578 275.547 409.618 276.169C408.647 276.802 407.741 277.445 406.89 278.122C405.003 279.562 403.203 280.489 401.501 280.915C399.788 281.34 397.999 281.515 396.111 281.416C394.093 281.373 392.216 280.893 390.482 279.965C388.747 279.049 387.252 277.882 385.998 276.463C384.743 275.045 383.75 273.452 383.03 271.674C382.31 269.896 381.95 268.117 381.95 266.317C381.95 264.517 382.31 262.652 383.03 260.862C383.75 259.062 384.732 257.448 385.998 256.007C387.252 254.567 388.747 253.4 390.482 252.505C392.206 251.611 394.082 251.109 396.111 251.022C397.999 250.978 399.81 251.164 401.533 251.589C403.257 252.014 405.046 252.931 406.89 254.316C407.741 254.993 408.657 255.647 409.618 256.269C410.578 256.902 411.625 257.349 412.749 257.622C413.872 257.895 415.051 257.895 416.283 257.622C417.516 257.349 418.815 256.629 420.156 255.462C421.051 254.655 421.727 253.738 422.175 252.702C422.622 251.665 422.829 250.574 422.786 249.429C422.742 248.283 422.469 247.127 421.978 245.96C421.487 244.792 420.746 243.712 419.753 242.73C416.927 239.905 413.6 237.744 409.781 236.261C405.963 234.777 401.915 234.035 397.65 234.035C393.111 234.035 388.856 234.875 384.885 236.566C380.914 238.257 377.445 240.548 374.477 243.472C371.51 246.396 369.164 249.833 367.44 253.782C365.706 257.731 364.844 261.964 364.844 266.448C364.844 270.932 365.706 275.198 367.44 279.082C369.164 282.966 371.521 286.337 374.477 289.184C377.445 292.043 380.914 294.279 384.885 295.926C388.856 297.563 393.111 298.381 397.65 298.381C401.872 298.381 405.908 297.639 409.748 296.156C413.589 294.672 416.927 292.512 419.753 289.686C420.746 288.693 421.476 287.635 421.978 286.489C422.469 285.344 422.731 284.198 422.753 283.053C422.775 281.907 422.567 280.816 422.142 279.78C421.717 278.743 421.051 277.827 420.156 277.02V277.052Z" fill="#A8353A"/>
<path d="M373.638 210.688C376.42 206.75 375.493 201.306 371.554 198.524L356.412 187.81V156.979C356.412 155.812 356.193 154.732 355.768 153.75C355.342 152.757 354.742 151.895 353.979 151.153C353.215 150.411 352.331 149.833 351.317 149.397C350.302 148.971 349.211 148.753 348.044 148.753C346.876 148.753 345.785 148.971 344.771 149.397C343.756 149.822 342.872 150.411 342.109 151.153C341.345 151.895 340.745 152.757 340.32 153.75C339.894 154.743 339.676 155.812 339.676 156.979V175.984L291.695 142L209.653 199.102C205.693 201.851 204.722 207.295 207.471 211.255C209.173 213.688 211.879 214.997 214.639 214.997C216.363 214.997 218.097 214.485 219.614 213.437L291.596 163.34L339.676 197.378V238.126C337.385 236.872 334.952 235.901 332.366 235.224C329.781 234.548 327.097 234.21 324.315 234.21C319.907 234.21 315.773 235.05 311.878 236.741C307.994 238.421 304.59 240.723 301.666 243.647C298.742 246.57 296.429 249.974 294.728 253.858C293.015 257.742 292.164 261.91 292.164 266.361C292.164 270.812 293.015 274.914 294.728 278.831C296.429 282.736 298.742 286.14 301.666 289.042C304.59 291.944 307.994 294.235 311.878 295.915C315.762 297.595 319.907 298.446 324.315 298.446C327.37 298.446 330.293 298.043 333.075 297.235C335.857 296.428 338.465 295.283 340.887 293.799C341.607 294.966 342.578 295.915 343.822 296.624C345.054 297.345 346.462 297.705 348.033 297.705C349.2 297.705 350.291 297.497 351.306 297.061C352.32 296.635 353.204 296.046 353.968 295.304C354.731 294.563 355.331 293.701 355.757 292.708C356.182 291.726 356.401 290.646 356.401 289.479V209.193L361.463 212.772C365.401 215.554 370.845 214.626 373.627 210.688H373.638ZM339.698 266.339C339.698 268.455 339.294 270.441 338.487 272.307C337.679 274.172 336.588 275.798 335.214 277.194C333.839 278.591 332.225 279.682 330.359 280.467C328.493 281.253 326.486 281.645 324.326 281.645C322.166 281.645 320.224 281.253 318.358 280.467C316.493 279.682 314.867 278.591 313.471 277.194C312.074 275.798 310.972 274.172 310.165 272.307C309.358 270.441 308.954 268.455 308.954 266.339C308.954 264.222 309.358 262.182 310.165 260.339C310.972 258.495 312.074 256.88 313.471 255.484C314.867 254.087 316.493 253.007 318.358 252.211C320.224 251.425 322.209 251.032 324.326 251.032C326.442 251.032 328.341 251.414 330.184 252.178C332.028 252.942 333.632 253.978 335.007 255.276C336.381 256.575 337.472 258.135 338.312 259.924C339.141 261.724 339.6 263.655 339.698 265.717V266.328V266.339Z" fill="#A8353A"/>
</g>
<defs>
<clipPath id="clip0_11_8710">
<rect width="346.222" height="178.451" fill="white" transform="translate(76.5645 142)"/>
</clipPath>
</defs>
</svg>
