<svg width="500" height="500" viewBox="0 0 500 500" fill="none" xmlns="http://www.w3.org/2000/svg">
<rect width="500" height="500" fill="white"/>
<g clip-path="url(#clip0_11_9333)">
<path d="M139.502 168.697H181.653L141.815 309.506H169.608L163.592 332.193H89.9453L139.502 168.697Z" fill="#00935B"/>
<path d="M206.32 258.534H197.609L201.965 248.421L206.32 258.534Z" fill="#FEFEFE"/>
<path d="M237.19 244.102V250.574H253.762V259.752H237.19V275.992H226.4V234.986H254.845V244.102H237.19Z" fill="black"/>
<path d="M223.939 273.925L206.051 234.986H197.66L179.968 273.495V266.654H162.756V234.986H151.855V275.992H190.057L193.735 267.441H210.148L213.826 275.992H224.887L223.939 273.925ZM197.611 258.534L201.966 248.421L206.321 258.534H197.611Z" fill="black"/>
<path d="M278.381 258.534H269.658L274.013 248.421L278.381 258.534Z" fill="#FEFEFE"/>
<path d="M336.303 275.094L331.001 261.462C330.582 260.355 330.053 259.358 329.438 258.485C330.176 257.833 330.841 257.107 331.419 256.32C333.252 253.834 334.175 250.882 334.175 247.523C334.175 242.762 332.563 238.997 329.401 236.315C326.412 233.805 322.192 232.525 316.84 232.525H295.986V268.02L280.349 233.953L279.684 232.525H268.132L267.48 233.953L256.222 258.46V248.113H239.65V246.563H257.305V232.525H223.939V268.02L208.29 233.953L207.637 232.525H196.085L195.42 233.953L181.53 264.194H165.216V232.525H149.395V278.453H191.668L192.308 276.964L195.359 269.902H208.523L211.562 276.964L212.202 278.453H239.65V262.213H254.5L248.644 274.959L247.044 278.453H263.727L264.367 276.964L267.406 269.902H280.57L283.621 276.964L284.261 278.453H311.709V262.914H313.481C314.232 262.914 314.65 263.025 314.834 263.099C314.859 263.136 314.884 263.185 314.921 263.271L320.137 276.866L320.74 278.453H337.608L336.303 275.094ZM213.826 275.992L210.147 267.442H193.735L190.056 275.992H151.855V234.986H162.756V266.654H179.968V273.495L197.66 234.986H206.05L223.939 273.925L224.886 275.992H213.826ZM253.762 259.752H237.19V275.992H226.4V234.986H254.844V244.103H237.19V250.574H253.762V259.752ZM285.873 275.992L282.194 267.442H265.782L262.103 275.992H250.883L269.707 234.986H278.11L295.986 273.901L296.946 275.992H285.873ZM322.438 275.992L317.209 262.373C316.926 261.659 316.532 261.179 316.003 260.921C315.364 260.613 314.515 260.453 313.481 260.453H309.249V275.992H298.447V234.986H316.84C321.589 234.986 325.28 236.069 327.814 238.197C330.398 240.387 331.714 243.524 331.714 247.523C331.714 250.353 330.952 252.813 329.438 254.868C328.466 256.184 327.211 257.279 325.698 258.116C326.99 259.063 327.999 260.478 328.712 262.36L334.015 275.992H322.438Z" fill="#FEFEFE"/>
<path d="M321.343 247.744C321.343 249.073 320.962 249.996 320.175 250.561C319.276 251.214 317.739 251.546 315.598 251.546H309.139V243.942H315.598C317.702 243.942 319.289 244.275 320.175 244.927C320.962 245.493 321.343 246.415 321.343 247.744Z" fill="#FEFEFE"/>
<path d="M328.713 262.36C327.999 260.478 326.99 259.063 325.699 258.116C327.212 257.279 328.467 256.184 329.439 254.868C330.952 252.813 331.715 250.352 331.715 247.523C331.715 243.524 330.398 240.387 327.815 238.197C325.28 236.069 321.589 234.986 316.84 234.986H298.447V275.992H309.249V260.453H313.482C314.515 260.453 315.364 260.613 316.004 260.921C316.533 261.179 316.927 261.659 317.21 262.373L322.438 275.992H334.016L328.713 262.36ZM320.175 250.562C319.276 251.214 317.739 251.546 315.598 251.546H309.139V243.943H315.598C317.702 243.943 319.289 244.275 320.175 244.927C320.962 245.493 321.343 246.415 321.343 247.744C321.343 249.073 320.962 249.996 320.175 250.562Z" fill="black"/>
<path d="M295.986 273.901L278.11 234.986H269.707L250.883 275.992H262.103L265.782 267.441H282.194L285.873 275.992H296.946L295.986 273.901ZM269.657 258.534L274.013 248.421L278.38 258.534H269.657Z" fill="black"/>
<path d="M370.888 249.787L371.245 248.999L374.936 240.732L375.674 239.083L374.308 237.889L373.632 237.287C371.7 235.589 369.264 234.26 366.373 233.337C363.629 232.476 360.64 232.033 357.502 232.033C352.962 232.033 348.89 232.993 345.421 234.9C341.853 236.844 339.06 239.649 337.116 243.229C335.221 246.711 334.262 250.82 334.262 255.434C334.262 260.047 335.221 264.317 337.116 267.798C339.072 271.403 341.902 274.196 345.531 276.128C349.05 277.985 353.209 278.933 357.871 278.933C360.738 278.933 363.58 278.662 366.324 278.108C369.116 277.542 371.626 276.73 373.767 275.697L374.468 275.365L375.859 274.7V249.787H370.888ZM373.398 273.15L372.697 273.482C370.74 274.43 368.44 275.168 365.832 275.697C363.248 276.214 360.578 276.472 357.871 276.472C353.615 276.472 349.85 275.623 346.688 273.95C343.489 272.252 340.992 269.791 339.281 266.63C337.584 263.505 336.722 259.74 336.722 255.434C336.722 251.128 337.584 247.523 339.281 244.398C340.992 241.236 343.452 238.775 346.589 237.053C349.702 235.355 353.368 234.494 357.502 234.494C360.381 234.494 363.125 234.9 365.635 235.687C368.194 236.499 370.334 237.656 372.008 239.132L372.684 239.735L368.993 248.003L367.763 247.117C366.065 245.899 364.417 245.001 362.842 244.472C361.279 243.943 359.557 243.672 357.711 243.672C350.945 243.672 347.795 247.412 347.795 255.434C347.795 263.455 351.105 267.466 358.204 267.466C359.901 267.466 361.636 267.282 363.359 266.913V260.613H355.78V252.247H373.398V273.15ZM360.898 263.074V264.833C359.988 264.944 359.089 265.006 358.204 265.006C351.609 265.006 350.256 261.179 350.256 255.434C350.256 247.707 353.233 246.133 357.711 246.133C359.286 246.133 360.738 246.354 362.042 246.797C363.383 247.252 364.823 248.04 366.336 249.122L367.271 249.787H353.319V263.074H360.898Z" fill="#FEFEFE"/>
<path d="M373.398 252.248V273.151L372.697 273.483C370.741 274.43 368.44 275.168 365.832 275.697C363.248 276.214 360.578 276.472 357.872 276.472C353.615 276.472 349.85 275.623 346.688 273.95C343.489 272.252 340.992 269.792 339.282 266.63C337.584 263.505 336.723 259.74 336.723 255.434C336.723 251.128 337.584 247.523 339.282 244.398C340.992 241.236 343.452 238.776 346.59 237.053C349.702 235.355 353.369 234.494 357.503 234.494C360.382 234.494 363.125 234.9 365.635 235.688C368.194 236.5 370.335 237.656 372.008 239.132L372.685 239.735L368.994 248.003L367.763 247.117C366.066 245.899 364.417 245.001 362.842 244.472C361.28 243.943 359.557 243.672 357.712 243.672C350.945 243.672 347.795 247.412 347.795 255.434C347.795 263.456 351.105 267.466 358.204 267.466C359.902 267.466 361.636 267.282 363.359 266.913V260.614H355.78V252.248H373.398Z" fill="black"/>
<path d="M390.228 243.992V250.623H407.452V259.69H390.228V266.974H408.584V275.992H379.549V234.986H408.584V243.992H390.228Z" fill="black"/>
<path d="M377.088 232.525V278.453H411.044V264.513H392.688V262.151H409.913V248.163H392.688V246.453H411.044V232.525H377.088ZM408.584 243.992H390.228V250.623H407.452V259.691H390.228V266.974H408.584V275.992H379.549V234.986H408.584V243.992Z" fill="#FEFEFE"/>
</g>
<defs>
<clipPath id="clip0_11_9333">
<rect width="321.099" height="163.496" fill="white" transform="translate(89.9453 168.697)"/>
</clipPath>
</defs>
</svg>
