<svg width="500" height="500" viewBox="0 0 500 500" fill="none" xmlns="http://www.w3.org/2000/svg">
<rect width="500" height="500" fill="white"/>
<g clip-path="url(#clip0_11_9629)">
<path d="M124.13 263.31C121.81 264.94 118.69 265.76 114.77 265.76C109.79 265.76 105.68 264.34 102.45 261.51C99.0899 258.62 97.4199 254.78 97.4199 250C97.4199 245.22 99.0899 241.37 102.44 238.45C105.68 235.65 109.79 234.24 114.77 234.24C118.69 234.24 121.81 235.04 124.13 236.64V243.04C121.93 241.06 119.19 240.08 115.93 240.08C112.98 240.08 110.53 241 108.59 242.83C106.65 244.66 105.67 247.05 105.67 250C105.67 252.95 106.64 255.3 108.59 257.15C110.54 259 112.98 259.92 115.93 259.92C119.19 259.92 121.93 258.93 124.13 256.96V263.31Z" fill="black"/>
<path d="M161.53 250C161.53 254.24 160.14 257.83 157.36 260.78C154.18 264.13 149.82 265.8 144.26 265.8C139.31 265.8 135.23 264.31 132.02 261.34C128.81 258.36 127.21 254.58 127.21 250C127.21 245.42 128.82 241.64 132.04 238.66C135.26 235.68 139.36 234.19 144.34 234.19C149.32 234.19 153.54 235.66 156.73 238.59C159.92 241.52 161.52 245.32 161.52 249.99L161.53 250ZM153.2 250C153.2 247.14 152.38 244.79 150.75 242.96C149.12 241.13 146.99 240.21 144.35 240.21C141.71 240.21 139.58 241.13 137.95 242.96C136.32 244.79 135.5 247.14 135.5 250C135.5 252.86 136.33 255.14 137.99 257C139.65 258.86 141.77 259.79 144.34 259.79C146.91 259.79 149.11 258.87 150.74 257.04C152.37 255.21 153.19 252.86 153.19 250H153.2Z" fill="black"/>
<path d="M193 264.99H184.73L181.1 258.77C179.56 256.11 178.3 254.36 177.32 253.53C176.66 252.99 175.89 252.71 175 252.71H173.67V264.99H165.9V242.1C165.9 238.61 164.96 236.55 163.07 235.92V234.97H177.97C181 234.97 183.44 235.76 185.27 237.35C187.1 238.94 188.02 241.09 188.02 243.81C188.02 245.27 187.61 246.63 186.8 247.89C185.98 249.15 184.89 250.07 183.52 250.64C184.55 251.33 185.98 253.16 187.81 256.14L188.84 257.81L193.01 264.98L193 264.99ZM180.16 244.03C180.16 242.8 179.79 241.84 179.04 241.15C178.3 240.46 177.27 240.12 175.95 240.12H173.67V247.89H175.95C177.27 247.89 178.3 247.55 179.04 246.86C179.78 246.17 180.16 245.23 180.16 244.03Z" fill="black"/>
<path d="M227.57 250C227.57 254.24 226.18 257.83 223.4 260.78C220.22 264.13 215.86 265.8 210.3 265.8C205.35 265.8 201.27 264.31 198.06 261.34C194.85 258.36 193.25 254.58 193.25 250C193.25 245.42 194.86 241.64 198.08 238.66C201.3 235.68 205.4 234.19 210.38 234.19C215.36 234.19 219.58 235.66 222.77 238.59C225.96 241.52 227.56 245.32 227.56 249.99L227.57 250ZM219.24 250C219.24 247.14 218.42 244.79 216.79 242.96C215.16 241.13 213.03 240.21 210.39 240.21C207.75 240.21 205.62 241.13 203.99 242.96C202.36 244.79 201.54 247.14 201.54 250C201.54 252.86 202.37 255.14 204.03 257C205.69 258.86 207.81 259.79 210.38 259.79C212.95 259.79 215.15 258.87 216.78 257.04C218.41 255.21 219.23 252.86 219.23 250H219.24Z" fill="black"/>
<path d="M260.97 264.99H254.8L239.29 246.56V264.99H231.99V242.1C231.99 238.61 231.05 236.55 229.16 235.92V234.97H238.86L253.67 252.57V234.97H260.97V264.98V264.99Z" fill="black"/>
<path d="M295.75 264.99H287.3L284.83 258.55H273.2L270.88 264.99H263.41L275.4 234.97H283.39L295.76 264.98L295.75 264.99ZM282.88 253.48L279.54 244.81C279.29 244.09 279.07 243.25 278.9 242.27H278.82C278.71 243.02 278.49 243.86 278.19 244.8L275.06 253.47H282.89L282.88 253.48Z" fill="black"/>
<path d="M320.31 240.38H311.16V264.98H303.39V240.38H294.46V234.97H320.31V240.38Z" fill="black"/>
<path d="M330.789 264.99H323.019V242.1C323.019 238.61 322.069 236.53 320.189 235.87V234.97H330.799V264.98L330.789 264.99Z" fill="black"/>
<path d="M369.18 250C369.18 254.24 367.79 257.83 365.01 260.78C361.83 264.13 357.47 265.8 351.91 265.8C346.96 265.8 342.88 264.31 339.67 261.34C336.46 258.36 334.86 254.58 334.86 250C334.86 245.42 336.47 241.64 339.69 238.66C342.91 235.68 347.01 234.19 351.99 234.19C356.97 234.19 361.19 235.66 364.38 238.59C367.57 241.52 369.17 245.32 369.17 249.99L369.18 250ZM360.85 250C360.85 247.14 360.03 244.79 358.4 242.96C356.77 241.13 354.64 240.21 352 240.21C349.36 240.21 347.23 241.13 345.6 242.96C343.97 244.79 343.15 247.14 343.15 250C343.15 252.86 343.98 255.14 345.64 257C347.3 258.86 349.42 259.79 351.99 259.79C354.56 259.79 356.76 258.87 358.39 257.04C360.02 255.21 360.84 252.86 360.84 250H360.85Z" fill="black"/>
<path d="M402.58 264.99H396.41L380.9 246.56V264.99H373.6V242.1C373.6 238.61 372.65 236.55 370.77 235.92V234.97H380.47L395.28 252.57V234.97H402.58V264.98V264.99Z" fill="black"/>
</g>
<defs>
<clipPath id="clip0_11_9629">
<rect width="305.16" height="31.6" fill="white" transform="translate(97.4199 234.2)"/>
</clipPath>
</defs>
</svg>
