<svg width="500" height="500" viewBox="0 0 500 500" fill="none" xmlns="http://www.w3.org/2000/svg">
<rect width="500" height="500" fill="white"/>
<g clip-path="url(#clip0_11_8390)">
<path d="M386.772 111.29H113.228V388.71H386.772V111.29Z" fill="#3A2956"/>
<path d="M369.068 241.281H133.949C137.25 175.179 188.622 122.667 251.508 122.667C314.395 122.667 365.767 175.179 369.068 241.281Z" fill="#F0F3FA"/>
<path d="M369.214 250.592C367.953 318.674 315.732 373.449 251.509 373.449C187.285 373.449 135.064 318.674 133.804 250.592H369.214Z" fill="#F0F3FA"/>
<path d="M315.356 157.526V222.882H160.434L315.356 157.526Z" fill="#058D3C"/>
<path d="M315.355 259.68V324.075H168.663V314.395H237.654C250.351 314.395 260.648 304.099 260.648 291.401C260.648 278.704 250.351 268.407 237.654 268.407H167.694V259.697H315.355V259.68Z" fill="#058D3C"/>
</g>
<defs>
<clipPath id="clip0_11_8390">
<rect width="273.545" height="277.42" fill="white" transform="translate(113.228 111.29)"/>
</clipPath>
</defs>
</svg>
